<?xml version="1.0" encoding="UTF-8"?>
<!DOCTYPE svg PUBLIC "-//W3C//DTD SVG 1.1//EN" "http://www.w3.org/Graphics/SVG/1.1/DTD/svg11.dtd">
<!-- Creator: CorelDRAW -->
<svg xmlns="http://www.w3.org/2000/svg" xml:space="preserve" width="100%" height="100%" style="shape-rendering:geometricPrecision; text-rendering:geometricPrecision; image-rendering:optimizeQuality; fill-rule:evenodd; clip-rule:evenodd"
viewBox="0 0 96115 71162"
 xmlns:xlink="http://www.w3.org/1999/xlink">
 <defs>
  <style type="text/css">
   <![CDATA[
    .fil0 {fill:black}
   ]]>
  </style>
 </defs>
 <g id="Layer_x0020_1">
  <metadata id="CorelCorpID_0Corel-Layer"/>
  <path class="fil0" d="M6600 33413c1911,0 6078,395 7632,-205 268,641 -5,411 1133,411 1263,0 1776,116 2717,207l894 0c529,12 2496,221 2819,413l893 0c646,150 2039,412 2785,412 419,173 324,135 893,206 800,27 1780,389 2613,413l826 206c917,172 1960,521 2887,619 297,120 263,53 515,206 584,48 623,97 1214,242 327,80 840,135 1056,377 664,39 733,49 1236,206 549,244 1611,465 2270,619 274,156 220,132 618,206 512,245 2011,769 2682,825 230,214 -96,206 721,206 181,187 -99,4 319,218 238,122 231,107 562,235 439,171 646,319 1285,372 196,181 187,205 619,412 537,79 1778,506 2063,826 503,157 572,166 1236,206 106,331 -176,5 285,345 18,13 507,272 524,279 407,181 762,292 1255,407l412 206c269,234 69,96 483,343 255,151 409,214 681,350 546,273 718,407 1311,545l206 206c625,331 1664,721 2064,1238 338,103 374,64 686,206 541,461 1724,932 1995,1444 542,165 272,-4 618,206 299,201 534,365 866,588 456,305 -90,23 495,312 407,200 171,124 495,167 334,511 -340,177 722,583l1048 905c429,247 210,130 499,230 285,547 -18,416 619,413 591,1166 1231,961 1651,1752 592,448 264,231 823,413 8,330 199,654 771,1077 424,314 149,153 468,264 161,389 -16,213 412,618 530,535 832,1224 1444,1548 346,851 -89,414 721,824 15,656 676,1400 1238,1857l103 515c461,613 766,1366 1032,2165l332 422c13,16 50,66 80,95 103,544 150,685 328,1232 106,325 82,309 215,593 329,704 46,215 282,444 0,839 -75,463 206,1030 0,1110 207,1419 207,2682l0 1340 0 2063 826 0 1442 0 2786 0 1236 0 2889 0 1236 0 2786 0 1443 0 0 -1236 0 -3130c0,-800 88,-428 -206,-893 0,-957 -191,-1750 -413,-2476 -72,-500 -39,-424 -206,-790 -241,-869 -547,-1493 -825,-2405 -282,-252 -173,-255 -413,-826 -354,-796 -712,-1155 -1031,-1994 -171,-209 -214,-283 -412,-584 -194,-258 -307,-472 -531,-809 -252,-381 -41,-127 -337,-484 -314,-378 -168,-210 -370,-358l-412 -721c-219,-326 -405,-645 -679,-982 -49,-60 -346,-386 -385,-422 -321,-297 -151,-177 -380,-282 -206,-587 301,-177 -413,-583 -269,-403 -338,-415 -662,-786 -70,-81 -365,-436 -373,-444 -271,-285 -54,-171 -408,-352 -222,-486 -48,-293 -584,-481 -45,-342 89,-103 -201,-461 -188,-230 -271,-240 -438,-369 -392,-300 -654,-558 -1046,-820l-413 -413c-264,-393 -274,-421 -699,-756 -55,-44 -460,-316 -478,-325 -448,-232 -57,-147 -473,-157 -305,-732 144,-351 -619,-720 -473,-480 -1227,-1009 -1856,-1342 -497,-714 146,-256 -824,-412 -10,-403 348,-144 -510,-729 -8,-5 -368,-201 -394,-211 -503,-190 -147,-117 -541,-92 -378,-602 -13,-85 -333,-452 -157,-180 -238,-223 -389,-373 -713,-360 -1199,-846 -2062,-1031 -223,-618 512,128 -110,-233 -234,-137 64,-69 -509,-179 -133,-181 66,-42 -355,-373 -452,-355 55,-6 -509,-316 -413,-227 -649,-237 -890,-549l-618 -411c-459,-68 -501,-152 -880,-351 -738,-386 -268,-357 -976,-373 -296,-364 34,-101 -350,-371 -277,-196 -106,-72 -475,-246 -287,-146 -559,-297 -884,-462 -768,-388 -510,-425 -1179,-262 -395,-656 465,-141 -687,-618 -554,-328 -1565,-694 -2200,-1031 -472,-234 -230,-157 -928,-206 -110,-150 -64,-150 -385,-343 -295,-179 -315,-152 -571,-255 -467,-188 -611,-258 -1005,-433l-1029 -206c-166,-519 347,155 -201,-257 -204,-153 -160,-139 -508,-274 -886,-344 -447,-325 -1148,-89 -501,-676 117,-35 -383,-418 -151,-115 -227,-113 -374,-200l-2440 -825c-226,-273 37,-38 -515,-206 -665,-296 -1642,-602 -2374,-826l-790 -206c-852,-236 -1386,-686 -2200,-413 -605,-767 263,-11 -432,-364 -340,-172 -443,-144 -804,-254 -463,-206 -1746,-576 -2373,-619 -470,-331 -29,-150 -825,-206 -342,-230 -1738,-563 -2270,-619l-825 -206c-415,-155 -2278,-577 -2784,-619 -390,-72 -336,-44 -584,-206 -1024,-21 -1669,-386 -2613,-413 -430,-178 -328,-135 -927,-206 -999,-37 -1571,-412 -2889,-412 -292,-271 34,-207 -789,-207 -583,-19 -1982,-291 -2545,-412l-687 0c-1414,-149 -5371,-929 -6704,-414 -251,-599 100,-411 -1032,-411 -647,0 -2427,226 -2681,-206l-1339 0 -3199 0 -1029 0 -2820 0c-719,0 -918,22 -1409,206l-1857 0 -103 2062 0 1032 0 2888 0 1442 0 1651c1025,0 903,-183 1754,-206l927 0c1127,-263 2373,-97 3404,-413l515 0zm34445 -9179c286,937 638,1518 1650,1754l378 206c97,1499 -393,1824 1066,1857l0 -1857c1790,-417 2062,-1609 2062,-3093l0 -1031c-197,-445 -376,-2061 -412,-2681l-206 -723c0,-1082 -240,-1762 -413,-2681 0,-944 45,-245 -206,-516 -70,-843 -299,-1863 -825,-2270 -213,-632 318,-207 -412,-618 -1005,269 -943,888 -1238,1856 -313,704 -809,2901 -825,3919 0,507 69,-23 -206,207l0 790c-174,1360 -413,2304 -413,3954l0 927zm38157 -5156c119,1128 678,1291 1033,1960l411 411c738,109 513,337 1444,414l0 1239c208,793 -448,617 1031,617l0 -1443c161,-841 1290,-234 2396,-1936 908,-1396 339,-2394 286,-3841l0 -1029c-113,-787 -361,-1792 -413,-2681l-206 -723c0,-1168 -282,-1664 -413,-2579 -67,-573 -10,-481 -206,-824 -50,-603 -383,-2009 -619,-2407 -104,-521 165,-42 -152,-538 -265,-415 19,-45 -363,-356 4,-788 -129,-840 -722,-1237 -819,218 -914,694 -1240,1441 -331,758 -599,1400 -616,2477 -433,-69 -80,-154 -255,365 -105,311 -121,437 -158,942 -184,663 -602,2700 -619,3438 -67,806 -189,596 -206,1580 -121,1051 -413,2389 -413,3575l0 1135zm-45994 32486l824 411c877,36 1755,589 2613,826 346,158 273,-210 276,207 562,171 737,225 1244,435 767,318 252,372 1024,184 265,423 -254,367 825,618 618,327 1427,631 1960,1032 519,341 342,230 926,412 366,472 1133,808 1651,929 277,354 -120,264 619,412 255,314 54,103 339,362 222,202 269,227 478,382 587,434 378,479 1040,494 336,664 10,314 618,721 549,477 1042,1037 1650,1444l413 412c266,398 321,417 668,780l776 802c162,356 19,257 412,481 153,574 245,568 576,1080 236,365 418,784 662,1018 352,1060 104,477 583,789 -125,765 289,1261 448,2268l206 414c0,1177 206,1427 206,2681l620 0 1442 0 2683 0 1442 0 2786 0 1237 0 2888 0 1237 0c3363,0 1954,207 2578,-2475l-206 -1134c0,-988 -200,-1741 -412,-2510 0,-796 60,-319 -207,-481 -55,-662 -658,-2188 -1031,-2476 -364,-1168 -76,-498 -618,-824 36,-583 130,172 -39,-416 -68,-235 -76,-246 -244,-536 -206,-357 -357,-490 -544,-904 -535,-735 -103,-319 -823,-619 -14,-593 151,187 -78,-376 -57,-140 -175,-347 -282,-487 -280,-366 -532,-556 -878,-787 -175,-733 64,-335 -618,-619 -12,-496 -738,-1226 -1238,-1238 -306,-733 144,-352 -619,-721 -608,-614 -822,-1045 -1650,-1239 -410,-809 26,-375 -824,-721 -317,-598 -1007,-831 -1549,-1238 -506,-491 -111,-275 -824,-412 -132,-331 91,-2 -218,-318 -3,-4 -423,-339 -441,-350 -441,-284 -739,-383 -1197,-569 -37,-340 412,-86 -310,-309 -336,-305 -475,-342 -932,-619 -684,-416 -390,-467 -1131,-345 -184,-555 331,-250 -412,-480 -476,-242 -461,-301 -959,-590 -16,-10 -526,-277 -547,-284 -563,-185 -210,-190 -763,-56 -214,-511 345,-411 -412,-411 -282,-337 131,-72 -516,-206 -180,-245 121,-9 -284,-253 -348,-210 -137,-75 -556,-252 -446,-190 -680,-224 -914,-527 -523,-173 -713,-239 -1236,-412 -556,-248 -1296,-556 -1857,-825 -275,-157 -220,-133 -619,-207 -364,-192 -541,-286 -1001,-454 -302,-111 -219,-127 -621,-182 -518,-72 -64,-125 -647,17 -527,-711 231,-73 -406,-418 -365,-197 -71,-31 -624,-200 -560,-249 -1669,-382 -2065,-825 -799,-129 -247,64 -824,-206 -713,-218 -1665,-552 -2475,-619 -41,-27 -92,-127 -121,-84 -33,49 -107,-60 -153,-68 -389,-65 -279,-54 -756,-54 -258,-444 431,157 -262,-195 -94,-47 -505,-206 -560,-222 -615,-175 -564,-250 -1241,3 -449,-588 640,-287 -825,-480 -391,-165 -2193,-539 -2784,-550 -149,-254 562,-207 -482,-207 -908,-195 -1747,-581 -2716,-207 -312,-745 186,-204 -449,-375 -231,-63 -556,-36 -787,-36 -323,-362 -267,-156 -956,-274 -350,-61 -813,-139 -1418,-139 -523,-252 -102,-206 -928,-206 -1131,-67 -1274,-465 -2475,-1 -250,-600 101,-411 -1032,-411 -1189,0 -1561,-207 -2888,-207l-1441 0c-3,-376 -2123,-206 -2580,-206l-928 0 -3301 0 -1236 0c-1010,484 -2232,-63 -3301,413l-1442 0c-637,283 -548,206 -1445,206l0 1444 0 1442 0 2889 0 1031 0 3094 0 1031 0 413c1379,0 2146,-213 3712,-207 1324,5 2585,108 3611,-206l927 0 3198 0 1064 0 2958 0 1032 0c1331,0 1853,207 3299,207l618 0 2991 412c333,224 -120,175 723,206 1053,62 1670,390 2680,413 343,195 252,139 824,206 822,117 1824,587 2684,619l823 206c494,220 1456,532 2064,619zm-30630 19594l2888 0 1237 0 2786 0 1442 0 2683 0 1442 0 2786 0 1236 0 2889 0 1236 0 2786 0 1442 0 2684 0 1441 0 2786 0 1237 0 2888 0 1237 0 2888 0 1237 0 2786 0 1442 0 2476 0c0,-1021 -97,-1637 -276,-2475l-343 -619c-69,-835 -585,-1714 -1031,-2166 -199,-481 30,-326 -413,-412 -181,-845 -134,-502 -638,-1133 -227,-286 -125,-240 -364,-433 -393,-318 -20,-178 -441,-188 -194,-594 29,-392 -516,-618 -114,-329 82,-18 -195,-342 -297,-346 -948,-886 -1352,-896 -402,-667 268,-19 -619,-721 -228,-207 -470,-368 -773,-572 -770,-521 -464,-495 -1083,-358 -300,-720 116,-287 -619,-823 -320,-144 -593,-280 -964,-481 -462,-250 -558,-375 -893,-551l-961 -412c-385,-337 -1731,-890 -2338,-1032 0,-342 63,-206 -378,-206 -306,-281 -1633,-765 -2201,-825l-790 -412c-576,-160 -1693,-546 -2201,-619 -710,-282 -330,-206 -1236,-206 -223,-449 401,135 -233,-223 -223,-126 -209,-132 -562,-220 -553,-138 -661,-197 -1268,29 -312,-745 186,-204 -449,-375 -232,-63 -556,-36 -788,-36 -167,-287 245,-14 -406,-223 -65,-21 -622,-137 -660,-144 -691,-139 -935,-237 -1616,-252 -347,-210 -77,-42 -618,-206 -1031,0 -1350,-207 -2580,-207 -554,-274 -166,-206 -996,-206 -1252,0 -1543,-206 -2820,-206l-617 0 -4127 0 -617 0 -2683 0 -1442 206c-526,0 -1132,-28 -1648,-1 -929,49 -774,207 -1654,207l-1167 0c-819,0 -720,113 -1326,181 -505,57 -1114,26 -1631,26l0 2682 0 1442 0 2683 0 1442 0 2683 0 1442 0 2684 0 1441 0 1651 1341 0 1237 0zm77657 -36507c1376,0 2391,-412 3643,-412 643,-49 463,6 893,-207 973,0 1222,-106 1895,-172 357,-35 683,-2 1001,-34 681,-66 515,89 612,-207l1236 0c1494,0 2066,-206 3508,-206l823 0 2269 0 0 -2063 0 -1442 0 -2683 0 -1442 0 -1032 -1891 0 -1271 0 -2820 0c-954,56 -602,128 -1340,206l-3197 0 -1 206 -1237 0c-1225,0 -2031,206 -3505,206l-2 206 -1167 0c-541,63 -917,157 -1681,243 -478,55 -1529,133 -1792,376l-1443 0c-336,227 -2779,605 -3403,619 -368,86 -507,97 -854,186 -656,168 -207,-204 -591,227 -853,13 -1361,150 -2147,330l-1668 495 -1238 206c-766,53 -3658,777 -4229,1031 -908,144 -1592,414 -2474,619 394,537 484,446 1238,824 1045,154 1425,739 2475,826l412 309c582,296 1515,729 2167,929 244,160 450,293 618,412 791,323 1575,846 2372,1032 144,130 283,255 413,412 610,203 543,212 1040,433 757,337 273,369 1022,187 326,541 -344,253 824,617 796,1030 1648,252 2889,207l1648 -413c293,-11 3739,-738 3920,-825l1032 0 1 -206zm5120 11344l1479 1479c209,596 -13,375 583,583 66,498 -156,-117 130,353 128,209 198,270 356,434 271,281 462,486 787,658 212,650 -32,407 618,618 10,422 -91,29 170,461 57,94 230,307 351,461 368,470 237,431 718,763 356,818 -67,391 721,790 14,629 -8,384 766,1400 36,47 149,191 181,232 23,29 75,89 94,112 18,23 62,76 94,113 494,996 -16,227 583,618 64,479 -93,-112 110,373 13,30 222,440 269,521 321,557 401,405 483,962l642 512c46,31 121,71 181,107 -130,582 -134,176 103,712 115,261 211,348 395,645 326,526 502,999 946,1325l0 -4127 0 -1441 0 -2889 0 -1031 0 -3094 0 -1031 0 -3094 0 -1032 0 -3093 0 -1032 0 -1237 -2268 0 -723 0c-1443,0 -2026,206 -3300,206l-1202 0c-599,166 -2730,413 -3472,413 -656,15 -747,101 -1306,206 -912,25 -2966,421 -3817,619l-1030 206c-901,0 -1612,341 -2476,412l0 413c628,146 458,243 1031,207 214,512 -344,412 413,412 438,781 -46,136 617,412 152,196 1408,1070 1686,1238l482 412c475,304 532,401 900,666 308,222 -202,-52 357,236 405,209 172,122 495,165 177,502 -35,219 413,754 594,159 315,71 771,496 183,170 234,262 418,407 423,331 145,158 461,267 399,789 -27,366 790,722zm-53179 -25267c100,949 610,1441 1135,1960l790 413c460,284 -3,141 756,206l0 1651c0,1044 258,1008 1238,1030l0 -1855 0 -826c1086,-91 1901,-754 2348,-1571 817,-1496 333,-1833 333,-3482 0,-102 8,-461 -14,-527 -241,-707 257,-175 -397,-608 420,-1088 17,-1357 -1,-2474 0,-1090 -2,-309 -206,-620 0,-1277 -286,-1725 -413,-2716l-206 -1099c-85,-802 -423,-1597 -619,-2304 -105,-521 164,-42 -152,-538 -265,-414 18,-45 -363,-355 4,-828 -313,-1032 -929,-1444 -759,508 -928,863 -1269,1825 -201,566 -566,1637 -587,2404l-413 1512c-32,415 -505,3097 -618,3334 0,771 -103,994 -207,1649 0,1201 -206,1794 -206,3198 -209,586 -129,550 0,1237zm-23926 -5190c0,1197 -75,2077 619,2613 182,560 -35,232 412,823 706,374 1100,808 2063,1033 0,1442 -84,447 412,825 -314,812 -206,944 -206,1856l1032 0 0 -2681c1823,-152 3169,-1708 3300,-3609l0 -997c-70,-726 -125,-386 -185,-1198 -18,-241 -2,-553 -38,-769 -114,-673 159,-327 -190,-441l0 -1235c-30,-817 -358,-1964 -412,-2888 -60,-403 -48,-292 -207,-517 0,-1242 -333,-1773 -412,-2853 -169,-590 -88,-226 -206,-962 -280,-629 -361,-1429 -619,-2098 -54,-166 -90,-428 -201,-593 -388,-576 295,124 -417,-403 122,-499 282,-702 -826,-1444 -1449,387 -2201,3863 -2269,4846 -315,469 -188,144 -206,929 -275,573 -619,2792 -619,3713 -27,41 -77,43 -83,121 -7,89 -60,107 -68,153 -65,389 -55,279 -55,756 -184,1288 -412,2260 -412,3817 -302,625 -207,369 -207,1203z"/>
 </g>
</svg>
