<?xml version="1.0" encoding="UTF-8"?>
<!DOCTYPE svg PUBLIC "-//W3C//DTD SVG 1.1//EN" "http://www.w3.org/Graphics/SVG/1.1/DTD/svg11.dtd">
<!-- Creator: CorelDRAW X8 -->
<svg xmlns="http://www.w3.org/2000/svg" xml:space="preserve" width="100%" height="100%" version="1.1" shape-rendering="geometricPrecision" text-rendering="geometricPrecision" image-rendering="optimizeQuality" fill-rule="evenodd" clip-rule="evenodd"
viewBox="0 0 1738 1631"
 xmlns:xlink="http://www.w3.org/1999/xlink">
 <g id="Layer_x0020_1">
  <metadata id="CorelCorpID_0Corel-Layer"/>
  <g id="Layers">
   <g id="India_Districts_selection">
    <polygon fill="#6EA97F" points="1208,148 1208,359 1327,497 1428,674 1504,894 1595,971 1709,976 1738,1019 1700,1091 1547,1162 1442,1162 1370,1287 1342,1406 1280,1483 1194,1535 1060,1564 1012,1583 797,1588 506,1631 401,1621 315,1588 239,1521 301,1507 334,1488 339,1378 358,1344 377,1282 454,1220 568,1134 487,1067 444,1057 439,1009 396,875 344,933 253,957 201,909 148,880 119,737 115,564 62,555 0,464 0,426 91,383 181,325 210,244 248,124 301,10 501,0 535,105 640,139 778,158 845,120 969,86 1113,124 "/>
   </g>
  </g>
 </g>
</svg>
