<?xml version="1.0" encoding="UTF-8"?>
<!DOCTYPE svg PUBLIC "-//W3C//DTD SVG 1.1//EN" "http://www.w3.org/Graphics/SVG/1.1/DTD/svg11.dtd">
<!-- Creator: CorelDRAW X8 -->
<svg xmlns="http://www.w3.org/2000/svg" xml:space="preserve" width="100%" height="100%" version="1.1" shape-rendering="geometricPrecision" text-rendering="geometricPrecision" image-rendering="optimizeQuality" fill-rule="evenodd" clip-rule="evenodd"
viewBox="0 0 2780 2233"
 xmlns:xlink="http://www.w3.org/1999/xlink">
 <g id="Layer_x0020_1">
  <metadata id="CorelCorpID_0Corel-Layer"/>
  <g id="Layers">
   <g id="India_Districts_selection">
    <polygon fill="#6EA97F" points="2774,570 2761,603 2728,786 2741,923 2754,1120 2780,1172 2754,1297 2695,1362 2748,1375 2708,1441 2708,1716 2702,1716 2597,1834 2565,1971 2545,2004 2532,2069 2447,2233 2139,2233 1799,1991 1740,1984 1721,2030 1518,2030 1518,1925 1570,1925 1570,1814 1269,1808 1243,1722 1374,1539 1590,1467 1590,1349 1479,1185 1354,1185 1341,1271 1210,1343 1027,1474 824,1362 615,1513 641,1709 667,1860 327,1906 137,1893 0,1722 26,1474 373,1126 536,1107 870,943 1230,923 1243,563 1433,465 1446,301 1590,124 1649,0 1708,13 1871,26 1904,65 1976,183 2035,269 2074,288 2113,399 2146,445 2205,445 2231,491 2499,485 2584,491 2630,537 2676,550 "/>
   </g>
  </g>
 </g>
</svg>
