<?xml version="1.0" encoding="UTF-8"?>
<!DOCTYPE svg PUBLIC "-//W3C//DTD SVG 1.1//EN" "http://www.w3.org/Graphics/SVG/1.1/DTD/svg11.dtd">
<!-- Creator: CorelDRAW X8 -->
<svg xmlns="http://www.w3.org/2000/svg" xml:space="preserve" width="100%" height="100%" version="1.1" shape-rendering="geometricPrecision" text-rendering="geometricPrecision" image-rendering="optimizeQuality" fill-rule="evenodd" clip-rule="evenodd"
viewBox="0 0 6919 5093"
 xmlns:xlink="http://www.w3.org/1999/xlink">
 <g id="Layer_x0020_1">
  <metadata id="CorelCorpID_0Corel-Layer"/>
  <g id="Layers">
   <g id="India_Districts_selection">
    <polygon fill="#6EA97F" points="2952,5093 2923,4601 3042,4347 3012,4182 2937,4063 2788,4078 2699,3988 2565,4018 2460,4242 2147,4242 2043,4152 1953,4018 1953,3899 1819,3839 1640,3719 1417,3674 1238,3525 954,3585 716,3615 611,3540 447,3256 447,3137 134,3092 0,3047 104,2957 268,2793 418,2659 447,2241 388,2076 358,2002 611,1942 910,1837 1088,1852 1282,2002 1431,2031 1566,2016 1745,1807 2102,1792 2132,1568 1968,1479 1938,1359 2088,1105 2192,807 2222,583 2088,523 2132,284 2311,119 2475,0 2759,45 2893,149 2848,358 2923,538 2952,717 3161,986 3251,971 3996,388 4145,418 4533,597 4786,657 4935,597 5100,314 5144,224 5323,314 5368,508 5442,672 5606,642 5726,807 5770,911 5651,1075 5681,1285 5338,1285 5293,1434 5234,1613 5249,1777 5174,1867 4846,2106 5085,2315 5293,2435 5323,2569 5502,2554 5487,2778 5532,2853 5726,2838 5979,2689 6009,2300 6263,2061 6263,1792 6412,1807 6561,1942 6710,2151 6904,2136 6919,2375 6158,3346 5800,3764 5651,3824 5487,4033 4801,4242 4324,4466 3549,4840 3131,5049 "/>
   </g>
  </g>
 </g>
</svg>
