<?xml version="1.0" encoding="UTF-8"?>
<!DOCTYPE svg PUBLIC "-//W3C//DTD SVG 1.1//EN" "http://www.w3.org/Graphics/SVG/1.1/DTD/svg11.dtd">
<!-- Creator: CorelDRAW X8 -->
<svg xmlns="http://www.w3.org/2000/svg" xml:space="preserve" width="100%" height="100%" version="1.1" shape-rendering="geometricPrecision" text-rendering="geometricPrecision" image-rendering="optimizeQuality" fill-rule="evenodd" clip-rule="evenodd"
viewBox="0 0 1629 2233"
 xmlns:xlink="http://www.w3.org/1999/xlink">
 <g id="Layer_x0020_1">
  <metadata id="CorelCorpID_0Corel-Layer"/>
  <g id="Layers">
   <g id="India_Districts_selection">
    <polygon fill="#6EA97F" points="635,2233 550,2148 536,1945 510,1912 517,1709 556,1696 615,1677 654,1624 654,1323 595,1303 536,1264 478,1225 445,1172 406,1107 262,1113 249,1140 203,1140 209,1113 0,1107 0,1022 33,891 59,806 131,753 255,727 327,694 445,694 458,675 458,688 550,688 615,661 608,635 720,642 746,596 844,550 975,544 1034,511 1119,458 1151,426 1223,347 1282,288 1348,236 1367,177 1367,144 1400,124 1420,98 1426,79 1459,72 1479,26 1551,0 1609,13 1622,85 1629,124 1590,157 1590,236 1485,347 1479,517 1479,557 1492,557 1472,596 1433,629 1204,629 1191,707 1171,819 1112,845 1079,858 1073,1107 1053,1126 1053,1172 1106,1198 1112,1467 1145,1500 1184,1493 1204,1539 1315,1578 1308,1709 1348,1801 1341,1978 837,1978 667,2076 628,2174 "/>
   </g>
  </g>
 </g>
</svg>
