<?xml version="1.0" encoding="UTF-8"?>
<!DOCTYPE svg PUBLIC "-//W3C//DTD SVG 1.1//EN" "http://www.w3.org/Graphics/SVG/1.1/DTD/svg11.dtd">
<!-- Creator: CorelDRAW X8 -->
<svg xmlns="http://www.w3.org/2000/svg" xml:space="preserve" width="100%" height="100%" version="1.1" shape-rendering="geometricPrecision" text-rendering="geometricPrecision" image-rendering="optimizeQuality" fill-rule="evenodd" clip-rule="evenodd"
viewBox="0 0 3482 1782"
 xmlns:xlink="http://www.w3.org/1999/xlink">
 <g id="Layer_x0020_1">
  <metadata id="CorelCorpID_0Corel-Layer"/>
  <g id="Layers">
   <g id="India_Districts_selection">
    <polygon fill="#6EA97F" points="983,0 1004,37 1234,37 1362,37 1373,96 1885,128 2377,144 2847,166 3338,257 3429,423 3418,551 3482,765 3306,851 3151,952 2959,1011 2729,1150 2574,1300 2451,1450 2323,1557 2152,1782 2030,1589 1779,1375 1255,1129 935,781 742,658 614,572 507,503 240,465 123,316 0,166 43,37 502,80 780,48 "/>
   </g>
  </g>
 </g>
</svg>
