<?xml version="1.0" encoding="UTF-8"?>
<!DOCTYPE svg PUBLIC "-//W3C//DTD SVG 1.1//EN" "http://www.w3.org/Graphics/SVG/1.1/DTD/svg11.dtd">
<!-- Creator: CorelDRAW X8 -->
<svg xmlns="http://www.w3.org/2000/svg" xml:space="preserve" width="100%" height="100%" version="1.1" shape-rendering="geometricPrecision" text-rendering="geometricPrecision" image-rendering="optimizeQuality" fill-rule="evenodd" clip-rule="evenodd"
viewBox="0 0 3224 1932"
 xmlns:xlink="http://www.w3.org/1999/xlink">
 <g id="Layer_x0020_1">
  <metadata id="CorelCorpID_0Corel-Layer"/>
  <g id="Layers">
   <g id="India_Districts_selection">
    <polygon fill="#6EA97F" points="730,1700 718,1666 679,1615 684,1360 617,1224 588,1150 503,1105 402,1133 305,1111 226,1173 170,1230 158,1275 40,1286 0,1224 40,1128 249,1037 430,975 662,822 888,720 984,527 1137,408 1261,340 1341,283 1408,164 1567,0 1736,11 1855,113 2359,125 2376,204 2330,238 2330,487 2483,504 2625,646 2641,816 2766,867 2998,810 3156,674 3224,720 3213,765 3162,856 3145,907 3128,975 3066,1043 3173,1173 3213,1224 3207,1286 3156,1343 3151,1383 2930,1383 2845,1235 2721,1173 2568,1269 2472,1269 2330,1184 2246,1320 2183,1445 2161,1479 2070,1439 1827,1417 1691,1530 1640,1632 1612,1830 1606,1853 1533,1892 1476,1915 1092,1932 826,1689 735,1677 "/>
   </g>
  </g>
 </g>
</svg>
