<?xml version="1.0" encoding="UTF-8"?>
<!DOCTYPE svg PUBLIC "-//W3C//DTD SVG 1.1//EN" "http://www.w3.org/Graphics/SVG/1.1/DTD/svg11.dtd">
<!-- Creator: CorelDRAW X8 -->
<svg xmlns="http://www.w3.org/2000/svg" xml:space="preserve" width="100%" height="100%" version="1.1" shape-rendering="geometricPrecision" text-rendering="geometricPrecision" image-rendering="optimizeQuality" fill-rule="evenodd" clip-rule="evenodd"
viewBox="0 0 2672 2685"
 xmlns:xlink="http://www.w3.org/1999/xlink">
 <g id="Layer_x0020_1">
  <metadata id="CorelCorpID_0Corel-Layer"/>
  <g id="Layers">
   <g id="India_Districts_selection">
    <polygon fill="#6EA97F" points="2201,24 2130,55 2122,79 2083,110 1996,87 1981,165 1973,189 1941,228 1941,535 1918,559 1933,653 2028,669 2185,764 2154,827 2075,937 2075,1024 2004,1094 2004,1157 2106,1165 2130,1197 2075,1236 2075,1291 2099,1338 2146,1370 2138,1425 2106,1425 2036,1488 2028,1622 2051,1638 2051,1842 2138,1811 2216,1795 2264,1811 2342,1803 2342,1685 2264,1677 2240,1638 2240,1590 2271,1575 2303,1606 2405,1638 2476,1646 2476,1598 2523,1630 2625,1622 2633,1669 2602,1732 2625,1795 2672,1842 2633,1913 2602,1937 2586,1984 2562,2031 2523,2016 2523,1984 2468,1984 2437,1929 2405,1945 2405,2055 2358,2110 2319,2063 2319,2000 2232,1992 2209,2023 2193,2071 2161,2102 2028,2110 1989,2134 1981,2181 2012,2197 2004,2283 1918,2307 1902,2401 1823,2417 1808,2386 1564,2394 1470,2496 1470,2567 1446,2598 1344,2614 1328,2559 1273,2559 1250,2535 1061,2527 1061,2519 1037,2512 1022,2472 951,2464 959,2480 707,2488 707,2559 660,2559 652,2598 582,2614 550,2638 542,2685 448,2661 448,2622 472,2606 479,2512 424,2512 424,2488 299,2488 275,2449 267,2409 236,2354 204,2346 189,2323 134,2331 126,2378 71,2354 31,2323 31,2283 0,2236 24,2165 157,2165 181,2149 291,2142 385,2142 440,2055 456,1976 503,1929 542,1937 534,1976 582,1976 589,1890 621,1858 676,1858 747,1779 770,1764 1124,1764 1140,1732 1148,1653 1171,1622 1171,1583 1195,1575 1203,1512 1171,1512 1163,1472 1045,1472 967,1370 888,1378 888,1346 841,1315 817,1260 825,1236 896,1244 982,1323 1030,1323 1037,1244 1061,1220 1061,1142 1061,1118 1085,1102 1085,1071 1116,1047 1100,984 1045,976 1061,929 1069,890 1100,835 1148,772 1179,724 1210,677 1218,653 1195,622 1187,567 1077,480 1069,189 1077,181 1100,197 1140,150 1163,110 1218,94 1265,102 1297,71 1368,71 1391,55 1430,24 1493,0 1603,8 1768,8 1910,71 1918,55 2059,47 2059,31 2122,0 "/>
   </g>
  </g>
 </g>
</svg>
