<?xml version="1.0" encoding="UTF-8"?>
<!DOCTYPE svg PUBLIC "-//W3C//DTD SVG 1.1//EN" "http://www.w3.org/Graphics/SVG/1.1/DTD/svg11.dtd">
<!-- Creator: CorelDRAW X8 -->
<svg xmlns="http://www.w3.org/2000/svg" xml:space="preserve" width="100%" height="100%" version="1.1" shape-rendering="geometricPrecision" text-rendering="geometricPrecision" image-rendering="optimizeQuality" fill-rule="evenodd" clip-rule="evenodd"
viewBox="0 0 1856 1481"
 xmlns:xlink="http://www.w3.org/1999/xlink">
 <g id="Layer_x0020_1">
  <metadata id="CorelCorpID_0Corel-Layer"/>
  <g id="Layers">
   <g id="India_Districts_selection">
    <polygon fill="#6EA97F" points="1141,109 1175,200 1240,326 1284,434 1396,630 1553,855 1665,907 1657,1012 1735,1072 1800,1168 1856,1303 1795,1407 1631,1372 1509,1420 1461,1481 1292,1468 1253,1433 1206,1311 1149,1272 1084,1142 997,1116 906,1072 841,1020 659,986 529,960 516,933 455,938 377,903 351,864 360,812 321,764 278,708 291,382 221,321 182,287 113,208 35,178 0,165 87,43 386,0 642,74 "/>
   </g>
  </g>
 </g>
</svg>
