<?xml version="1.0" encoding="UTF-8"?>
<!DOCTYPE svg PUBLIC "-//W3C//DTD SVG 1.1//EN" "http://www.w3.org/Graphics/SVG/1.1/DTD/svg11.dtd">
<!-- Creator: CorelDRAW X8 -->
<svg xmlns="http://www.w3.org/2000/svg" xml:space="preserve" width="100%" height="100%" version="1.1" shape-rendering="geometricPrecision" text-rendering="geometricPrecision" image-rendering="optimizeQuality" fill-rule="evenodd" clip-rule="evenodd"
viewBox="0 0 2165 1631"
 xmlns:xlink="http://www.w3.org/1999/xlink">
 <g id="Layer_x0020_1">
  <metadata id="CorelCorpID_0Corel-Layer"/>
  <g id="Layers">
   <g id="India_Districts_selection">
    <polygon fill="#6EA97F" points="2145,5 2165,287 2102,507 2074,622 2098,670 2059,732 2035,1311 1801,1478 1424,1583 1042,1631 803,1617 745,1516 664,1315 492,1224 177,1153 0,1057 48,894 72,722 91,555 148,421 210,335 272,239 296,239 420,120 573,29 731,77 827,177 1032,172 1132,220 1405,220 1682,81 1949,57 2122,19 2117,0 "/>
   </g>
  </g>
 </g>
</svg>
