<?xml version="1.0" encoding="UTF-8"?>
<!DOCTYPE svg PUBLIC "-//W3C//DTD SVG 1.1//EN" "http://www.w3.org/Graphics/SVG/1.1/DTD/svg11.dtd">
<!-- Creator: CorelDRAW X8 -->
<svg xmlns="http://www.w3.org/2000/svg" xml:space="preserve" width="100%" height="100%" version="1.1" shape-rendering="geometricPrecision" text-rendering="geometricPrecision" image-rendering="optimizeQuality" fill-rule="evenodd" clip-rule="evenodd"
viewBox="0 0 3088 2085"
 xmlns:xlink="http://www.w3.org/1999/xlink">
 <g id="Layer_x0020_1">
  <metadata id="CorelCorpID_0Corel-Layer"/>
  <g id="Layers">
   <g id="India_Districts_selection">
    <polygon fill="#6EA97F" points="2087,624 2161,642 2167,673 2197,697 2203,758 2338,758 2448,721 2466,636 2521,630 2527,611 2570,624 2747,758 2741,758 2747,880 2838,948 3076,966 3088,1076 2924,1205 2820,1168 2802,1131 2661,1119 2655,1260 2698,1278 2692,1437 2716,1467 2728,1865 2686,2061 2405,2085 2405,1895 2368,1902 2368,1773 2264,1694 2228,1633 2179,1633 2155,1602 1740,1608 1727,1584 1312,1565 1288,1633 1215,1633 1202,1688 1074,1773 1056,1871 1001,1926 989,1987 891,1987 897,1902 897,1895 800,1816 739,1804 684,1834 678,1926 482,1920 446,1871 366,1859 323,1804 323,1639 250,1620 189,1577 98,1584 73,1529 0,1449 0,1400 43,1351 79,1278 31,1168 12,1119 18,1076 18,1046 92,1052 104,1021 323,1021 330,966 385,954 385,893 421,893 476,850 476,807 507,801 507,758 568,709 586,673 616,624 653,575 708,514 745,440 775,379 879,367 940,318 952,208 995,183 1007,79 1056,24 1086,31 1099,61 1166,55 1184,18 1233,24 1233,0 1294,55 1233,135 1196,257 1239,293 1233,379 1202,379 1178,440 1172,624 1196,636 1202,697 1239,728 1227,783 1263,807 1263,874 1392,1033 1440,1088 1611,1076 1672,960 1740,966 1794,997 1733,1131 1733,1180 1880,1162 1965,1076 1959,721 2075,660 "/>
   </g>
  </g>
 </g>
</svg>
