<?xml version="1.0" encoding="UTF-8"?>
<!DOCTYPE svg PUBLIC "-//W3C//DTD SVG 1.1//EN" "http://www.w3.org/Graphics/SVG/1.1/DTD/svg11.dtd">
<!-- Creator: CorelDRAW X8 -->
<svg xmlns="http://www.w3.org/2000/svg" xml:space="preserve" width="100%" height="100%" version="1.1" shape-rendering="geometricPrecision" text-rendering="geometricPrecision" image-rendering="optimizeQuality" fill-rule="evenodd" clip-rule="evenodd"
viewBox="0 0 3486 1763"
 xmlns:xlink="http://www.w3.org/1999/xlink">
 <g id="Layer_x0020_1">
  <metadata id="CorelCorpID_0Corel-Layer"/>
  <g id="Layers">
   <g id="India_Districts_selection">
    <polygon fill="#6EA97F" points="3186,1276 3250,1329 3320,1415 3475,1485 3486,1603 3448,1710 3421,1763 3357,1721 3164,1731 3148,1694 2913,1667 2779,1597 2591,1544 2404,1560 2356,1490 2211,1436 2088,1436 2083,1442 2083,1292 1997,1211 1842,1152 1713,1211 1580,1324 1510,1329 1360,1270 1082,1227 873,1206 776,1227 717,1292 477,1340 343,1415 182,1603 70,1522 0,1426 59,1276 182,1163 434,1126 643,1045 771,1029 755,917 482,825 364,729 402,649 568,472 637,375 626,364 664,348 1392,359 1521,327 1537,284 1601,252 1649,220 1665,150 1842,5 1960,0 2088,48 2147,118 2243,166 2388,193 2393,311 2340,381 2356,536 2383,686 2420,761 2425,911 2629,933 2699,976 2768,1126 2886,1158 3036,1254 3127,1286 "/>
   </g>
  </g>
 </g>
</svg>
