<?xml version="1.0" encoding="UTF-8"?>
<!DOCTYPE svg PUBLIC "-//W3C//DTD SVG 1.1//EN" "http://www.w3.org/Graphics/SVG/1.1/DTD/svg11.dtd">
<!-- Creator: CorelDRAW X8 -->
<svg xmlns="http://www.w3.org/2000/svg" xml:space="preserve" width="100%" height="100%" version="1.1" shape-rendering="geometricPrecision" text-rendering="geometricPrecision" image-rendering="optimizeQuality" fill-rule="evenodd" clip-rule="evenodd"
viewBox="0 0 3543 2233"
 xmlns:xlink="http://www.w3.org/1999/xlink">
 <g id="Layer_x0020_1">
  <metadata id="CorelCorpID_0Corel-Layer"/>
  <g id="Layers">
   <g id="India_Districts_selection">
    <polygon fill="#6EA97F" points="2537,79 2543,92 2752,98 2857,157 2870,249 2942,295 3164,295 3243,347 3249,386 3458,373 3537,511 3537,544 3543,544 3498,596 3413,603 3380,629 3321,648 3164,747 3158,799 2739,806 2680,766 2622,727 2556,675 2517,681 2530,923 2465,937 2439,1041 2327,1067 2138,1238 2138,1506 2262,1657 2282,1821 2236,1847 2216,1997 2262,2004 1987,2233 1942,2102 1824,2109 1824,2063 1654,2069 1608,2011 1608,1932 1556,1886 1556,1768 1478,1696 1268,1546 1262,1428 726,1388 693,1343 510,1343 471,1382 340,1415 327,1382 20,969 0,550 131,347 458,124 484,98 516,164 608,223 680,282 1072,308 1170,236 1164,98 1432,79 1419,144 1569,124 1628,13 1719,0 1726,79 1687,105 1700,223 1870,216 1909,170 1974,164 1987,138 2112,124 2118,183 2452,164 "/>
   </g>
  </g>
 </g>
</svg>
