<?xml version="1.0" encoding="UTF-8"?>
<!DOCTYPE svg PUBLIC "-//W3C//DTD SVG 1.1//EN" "http://www.w3.org/Graphics/SVG/1.1/DTD/svg11.dtd">
<!-- Creator: CorelDRAW X8 -->
<svg xmlns="http://www.w3.org/2000/svg" xml:space="preserve" width="100%" height="100%" version="1.1" shape-rendering="geometricPrecision" text-rendering="geometricPrecision" image-rendering="optimizeQuality" fill-rule="evenodd" clip-rule="evenodd"
viewBox="0 0 3540 2699"
 xmlns:xlink="http://www.w3.org/1999/xlink">
 <g id="Layer_x0020_1">
  <metadata id="CorelCorpID_0Corel-Layer"/>
  <g id="Layers">
   <g id="India_Districts_selection">
    <polygon fill="#6EA97F" points="2363,127 2513,380 2537,420 2734,760 3177,1172 3485,1512 3461,2106 3540,2612 3540,2644 3327,2699 2742,2628 2568,2430 2276,1955 1778,1369 1328,1346 632,1346 363,1124 55,1124 0,847 16,784 40,681 47,657 79,673 95,720 103,776 111,847 111,871 126,926 126,982 134,1029 190,1053 356,1045 435,1021 498,1021 553,1021 624,1021 695,997 735,974 806,950 822,942 956,926 1027,879 1090,839 1098,744 1090,681 1098,617 1075,602 1027,578 996,546 956,515 932,475 925,427 917,404 925,388 948,380 1004,356 1051,332 1114,293 1177,261 1217,261 1272,253 1328,237 1375,230 1414,206 1454,182 1493,150 1517,142 1557,150 1596,174 1636,190 1675,190 1691,214 1731,230 1794,253 1825,261 1904,230 1975,214 2118,103 2173,32 2181,0 "/>
   </g>
  </g>
 </g>
</svg>
