<?xml version="1.0" encoding="UTF-8"?>
<!DOCTYPE svg PUBLIC "-//W3C//DTD SVG 1.1//EN" "http://www.w3.org/Graphics/SVG/1.1/DTD/svg11.dtd">
<!-- Creator: CorelDRAW X8 -->
<svg xmlns="http://www.w3.org/2000/svg" xml:space="preserve" width="100%" height="100%" version="1.1" shape-rendering="geometricPrecision" text-rendering="geometricPrecision" image-rendering="optimizeQuality" fill-rule="evenodd" clip-rule="evenodd"
viewBox="0 0 1301 1330"
 xmlns:xlink="http://www.w3.org/1999/xlink">
 <g id="Layer_x0020_1">
  <metadata id="CorelCorpID_0Corel-Layer"/>
  <g id="Layers">
   <g id="India_Districts_selection">
    <polygon fill="#6EA97F" points="1067,1330 1028,1326 904,1326 806,1318 728,1232 658,1193 577,1193 499,1225 390,1248 265,1279 144,1275 140,1275 117,1236 51,1147 0,1092 51,987 27,971 70,952 210,959 312,901 343,800 370,722 421,683 436,542 503,456 510,378 362,324 405,304 452,242 471,148 471,51 619,55 997,55 1056,0 1270,0 1282,273 1157,449 1157,550 1243,690 1243,788 1301,842 1274,1006 1208,1034 1157,1112 "/>
   </g>
  </g>
 </g>
</svg>
