<?xml version="1.0" encoding="UTF-8"?>
<!DOCTYPE svg PUBLIC "-//W3C//DTD SVG 1.1//EN" "http://www.w3.org/Graphics/SVG/1.1/DTD/svg11.dtd">
<!-- Creator: CorelDRAW X8 -->
<svg xmlns="http://www.w3.org/2000/svg" xml:space="preserve" width="100%" height="100%" version="1.1" shape-rendering="geometricPrecision" text-rendering="geometricPrecision" image-rendering="optimizeQuality" fill-rule="evenodd" clip-rule="evenodd"
viewBox="0 0 2582 1384"
 xmlns:xlink="http://www.w3.org/1999/xlink">
 <g id="Layer_x0020_1">
  <metadata id="CorelCorpID_0Corel-Layer"/>
  <g id="Layers">
   <g id="India_Districts_selection">
    <polygon fill="#6EA97F" points="2230,1295 2153,1303 2068,1376 1861,1384 1804,1295 1650,1295 1650,1242 1618,1177 1618,1132 1784,958 1780,832 1686,828 1650,852 1459,942 1374,820 1241,824 1111,942 709,942 604,1011 559,954 495,1011 292,1011 101,974 61,946 93,885 93,735 126,682 109,426 8,349 12,175 45,126 36,69 0,8 8,0 36,57 101,69 186,106 288,126 446,134 470,166 701,166 807,118 941,77 981,97 1115,114 1119,85 1257,77 1334,179 1500,187 1504,264 1480,292 1480,414 1573,406 1622,296 1686,304 1751,361 1824,357 1828,402 1873,406 1922,365 2007,390 2011,426 2096,386 2096,308 2222,312 2218,321 2226,455 2161,471 2132,507 2165,593 2222,686 2230,714 2335,718 2380,657 2420,657 2485,747 2526,868 2582,962 2566,1015 2469,1092 2461,1197 2368,1226 2311,1157 2250,1161 2230,1201 "/>
   </g>
  </g>
 </g>
</svg>
