<?xml version="1.0" encoding="UTF-8"?>
<!DOCTYPE svg PUBLIC "-//W3C//DTD SVG 1.1//EN" "http://www.w3.org/Graphics/SVG/1.1/DTD/svg11.dtd">
<!-- Creator: CorelDRAW X8 -->
<svg xmlns="http://www.w3.org/2000/svg" xml:space="preserve" width="100%" height="100%" version="1.1" shape-rendering="geometricPrecision" text-rendering="geometricPrecision" image-rendering="optimizeQuality" fill-rule="evenodd" clip-rule="evenodd"
viewBox="0 0 2485 1932"
 xmlns:xlink="http://www.w3.org/1999/xlink">
 <g id="Layer_x0020_1">
  <metadata id="CorelCorpID_0Corel-Layer"/>
  <g id="Layers">
   <g id="India_Districts_selection">
    <polygon fill="#6EA97F" points="1783,1858 1732,1864 1534,1864 1483,1932 1409,1932 1387,1892 1240,1892 1234,1875 1126,1858 917,1875 838,1807 843,1666 917,1643 996,1581 1030,1530 1092,1462 1098,1383 1160,1303 1149,1094 1041,946 668,941 634,878 538,912 442,980 215,975 204,958 113,924 34,878 0,833 17,833 17,776 209,776 255,861 391,856 442,759 436,657 509,601 577,499 617,414 668,363 736,272 747,0 872,0 945,113 1206,108 1313,11 1409,6 1409,176 1641,357 1636,584 1687,623 1687,686 1794,674 1902,714 2032,674 2083,623 2128,595 2224,606 2247,640 2377,623 2383,663 2474,663 2485,725 2485,782 2417,788 2411,856 2332,884 2264,901 2236,952 2236,1077 2304,1111 2349,1207 2349,1354 2332,1371 2179,1371 2094,1417 1941,1445 1851,1513 1817,1621 1783,1785 "/>
   </g>
  </g>
 </g>
</svg>
