<?xml version="1.0" encoding="UTF-8"?>
<!DOCTYPE svg PUBLIC "-//W3C//DTD SVG 1.1//EN" "http://www.w3.org/Graphics/SVG/1.1/DTD/svg11.dtd">
<!-- Creator: CorelDRAW X8 -->
<svg xmlns="http://www.w3.org/2000/svg" xml:space="preserve" width="100%" height="100%" version="1.1" shape-rendering="geometricPrecision" text-rendering="geometricPrecision" image-rendering="optimizeQuality" fill-rule="evenodd" clip-rule="evenodd"
viewBox="0 0 2093 3136"
 xmlns:xlink="http://www.w3.org/1999/xlink">
 <g id="Layer_x0020_1">
  <metadata id="CorelCorpID_0Corel-Layer"/>
  <g id="Layers">
   <g id="India_Districts_selection">
    <polygon fill="#6EA97F" points="2093,3063 2020,3136 1827,3136 1451,2741 1056,2741 790,2723 716,2594 514,2566 294,2419 220,2401 220,2465 174,2474 55,2401 83,2364 129,2272 165,2207 184,2134 147,1968 64,1904 73,1775 0,1702 0,1637 46,1591 28,1499 0,1499 0,1426 0,1324 18,1334 239,1214 514,1187 725,874 716,745 845,699 891,515 1175,368 1212,175 1313,83 1506,0 1515,18 1524,120 1616,166 1644,285 1726,386 1846,368 1864,368 1864,451 1827,552 1772,625 1763,671 1708,690 1634,708 1689,763 1745,773 1745,846 1671,883 1855,1058 1956,1168 1891,1278 1882,1306 1763,1315 1772,1370 1800,1426 1772,1499 1735,1554 1827,1692 1827,1738 1901,1766 1974,1803 2066,1803 2075,1922 2029,2005 1937,2070 1882,2152 1882,2585 1928,2603 1928,2713 2002,2759 2038,2943 2038,3063 "/>
   </g>
  </g>
 </g>
</svg>
