<?xml version="1.0" encoding="UTF-8"?>
<!DOCTYPE svg PUBLIC "-//W3C//DTD SVG 1.1//EN" "http://www.w3.org/Graphics/SVG/1.1/DTD/svg11.dtd">
<!-- Creator: CorelDRAW X8 -->
<svg xmlns="http://www.w3.org/2000/svg" xml:space="preserve" width="100%" height="100%" version="1.1" shape-rendering="geometricPrecision" text-rendering="geometricPrecision" image-rendering="optimizeQuality" fill-rule="evenodd" clip-rule="evenodd"
viewBox="0 0 1540 1782"
 xmlns:xlink="http://www.w3.org/1999/xlink">
 <g id="Layer_x0020_1">
  <metadata id="CorelCorpID_0Corel-Layer"/>
  <g id="Layers">
   <g id="India_Districts_selection">
    <polygon fill="#6EA97F" points="1122,78 1117,104 1127,178 1253,199 1367,287 1482,371 1467,418 1508,496 1540,543 1534,731 1493,805 1482,841 1425,883 1409,899 1420,1029 1482,1102 1529,1191 1519,1338 1435,1437 1362,1499 1284,1588 1211,1614 1153,1656 1117,1703 1106,1782 882,1782 694,1599 647,1489 579,1432 470,1395 365,1327 209,1301 47,1129 0,1129 0,1097 16,951 42,904 130,857 204,831 271,852 355,899 475,920 548,904 621,862 673,768 715,669 705,601 710,549 647,543 647,481 538,486 459,439 423,423 381,334 298,329 245,240 355,63 444,0 689,5 945,10 1028,73 "/>
   </g>
  </g>
 </g>
</svg>
