<?xml version="1.0" encoding="UTF-8"?>
<!DOCTYPE svg PUBLIC "-//W3C//DTD SVG 1.1//EN" "http://www.w3.org/Graphics/SVG/1.1/DTD/svg11.dtd">
<!-- Creator: CorelDRAW X8 -->
<svg xmlns="http://www.w3.org/2000/svg" xml:space="preserve" width="100%" height="100%" version="1.1" shape-rendering="geometricPrecision" text-rendering="geometricPrecision" image-rendering="optimizeQuality" fill-rule="evenodd" clip-rule="evenodd"
viewBox="0 0 1614 1631"
 xmlns:xlink="http://www.w3.org/1999/xlink">
 <g id="Layer_x0020_1">
  <metadata id="CorelCorpID_0Corel-Layer"/>
  <g id="Layers">
   <g id="India_Districts_selection">
    <polygon fill="#6EA97F" points="626,210 764,225 869,187 879,163 960,110 969,134 969,172 974,206 988,210 1003,239 1012,249 1046,268 1070,306 1079,316 1122,316 1141,335 1146,349 1146,373 1141,402 1136,440 1132,478 1141,497 1146,555 1151,588 1151,607 1203,617 1237,636 1256,655 1270,698 1275,741 1289,780 1318,799 1323,799 1332,837 1361,871 1375,899 1409,914 1437,914 1456,957 1475,976 1485,995 1499,1024 1523,1062 1552,1095 1580,1124 1590,1148 1595,1191 1614,1215 1604,1224 1585,1263 1538,1272 1475,1282 1471,1315 1466,1387 1432,1387 1404,1397 1385,1411 1351,1411 1342,1425 1327,1454 1327,1483 1308,1488 1261,1492 1194,1492 1184,1473 1170,1468 1136,1468 1093,1468 1046,1473 988,1483 974,1497 955,1511 936,1497 883,1492 821,1488 817,1468 783,1459 750,1449 711,1459 673,1473 640,1488 626,1497 597,1531 587,1559 563,1588 540,1598 516,1617 482,1631 482,1602 454,1583 449,1583 449,1578 482,1445 439,1373 415,1358 415,1349 420,1320 415,1287 411,1268 406,1263 392,1244 368,1224 334,1215 320,1196 296,1181 272,1172 239,1167 229,1153 210,1153 186,1153 158,1148 162,1134 167,1028 53,885 10,493 0,124 134,105 372,5 420,0 458,33 516,163 "/>
   </g>
  </g>
 </g>
</svg>
