<?xml version="1.0" encoding="UTF-8"?>
<!DOCTYPE svg PUBLIC "-//W3C//DTD SVG 1.1//EN" "http://www.w3.org/Graphics/SVG/1.1/DTD/svg11.dtd">
<!-- Creator: CorelDRAW X8 -->
<svg xmlns="http://www.w3.org/2000/svg" xml:space="preserve" width="100%" height="100%" version="1.1" shape-rendering="geometricPrecision" text-rendering="geometricPrecision" image-rendering="optimizeQuality" fill-rule="evenodd" clip-rule="evenodd"
viewBox="0 0 2432 1163"
 xmlns:xlink="http://www.w3.org/1999/xlink">
 <g id="Layer_x0020_1">
  <metadata id="CorelCorpID_0Corel-Layer"/>
  <g id="Layers">
   <g id="India_Districts_selection">
    <polygon fill="#6EA97F" points="964,150 1024,165 1083,127 1124,97 1240,108 1334,202 1412,224 1509,206 1550,194 1674,183 1722,172 1786,161 1842,217 1935,247 1961,183 2002,127 2055,187 2215,352 2309,348 2428,426 2432,430 2395,482 2338,561 2256,647 2193,759 2133,886 2081,939 2010,976 2013,991 1999,995 1905,905 1849,905 1748,995 1674,1013 1584,1096 1505,1107 1438,1099 1363,1069 1319,909 1304,864 1248,774 1199,684 1158,639 1087,740 1046,883 997,927 930,1028 852,1077 784,1111 758,1163 740,1159 695,1118 661,1107 646,1043 635,972 643,901 639,849 601,778 605,684 545,613 366,464 344,452 306,456 217,464 86,467 26,471 30,449 4,370 0,213 15,56 15,34 168,30 332,64 385,97 482,161 549,82 579,19 792,0 904,120 "/>
   </g>
  </g>
 </g>
</svg>
