<?xml version="1.0" encoding="UTF-8"?>
<!DOCTYPE svg PUBLIC "-//W3C//DTD SVG 1.1//EN" "http://www.w3.org/Graphics/SVG/1.1/DTD/svg11.dtd">
<!-- Creator: CorelDRAW X8 -->
<svg xmlns="http://www.w3.org/2000/svg" xml:space="preserve" width="100%" height="100%" version="1.1" shape-rendering="geometricPrecision" text-rendering="geometricPrecision" image-rendering="optimizeQuality" fill-rule="evenodd" clip-rule="evenodd"
viewBox="0 0 1834 1631"
 xmlns:xlink="http://www.w3.org/1999/xlink">
 <g id="Layer_x0020_1">
  <metadata id="CorelCorpID_0Corel-Layer"/>
  <g id="Layers">
   <g id="India_Districts_selection">
    <polygon fill="#6EA97F" points="96,880 100,875 158,832 196,780 224,713 244,660 291,627 325,598 377,579 411,526 468,521 520,488 540,421 516,344 554,306 606,254 626,234 630,167 626,100 654,57 802,43 831,0 859,33 941,62 984,38 1127,43 1141,220 1194,316 1284,368 1356,311 1413,301 1514,344 1590,450 1619,488 1719,497 1834,497 1834,493 1814,574 1762,612 1705,751 1561,856 1461,928 1289,894 1208,880 1055,981 1003,1004 931,1009 902,1153 917,1282 941,1373 979,1464 979,1502 931,1511 836,1511 735,1631 597,1626 597,1296 626,1253 602,1134 544,1124 482,1181 458,1138 363,1148 349,1181 263,1205 138,1239 0,1234 14,1172 91,1067 96,957 "/>
   </g>
  </g>
 </g>
</svg>
