<?xml version="1.0" encoding="UTF-8"?>
<!DOCTYPE svg PUBLIC "-//W3C//DTD SVG 1.1//EN" "http://www.w3.org/Graphics/SVG/1.1/DTD/svg11.dtd">
<!-- Creator: CorelDRAW X8 -->
<svg xmlns="http://www.w3.org/2000/svg" xml:space="preserve" width="100%" height="100%" version="1.1" shape-rendering="geometricPrecision" text-rendering="geometricPrecision" image-rendering="optimizeQuality" fill-rule="evenodd" clip-rule="evenodd"
viewBox="0 0 2483 1631"
 xmlns:xlink="http://www.w3.org/1999/xlink">
 <g id="Layer_x0020_1">
  <metadata id="CorelCorpID_0Corel-Layer"/>
  <g id="Layers">
   <g id="India_Districts_selection">
    <polygon fill="#6EA97F" points="2163,622 2139,612 2029,617 1934,627 1900,641 1881,665 1886,780 1900,789 1905,861 1934,871 1953,904 1967,938 1967,976 1972,1158 2001,1191 2044,1210 2072,1201 2106,1224 2144,1244 2163,1263 2182,1296 2177,1382 2158,1421 2139,1449 2134,1483 1996,1483 1986,1497 1910,1497 1767,1511 1748,1535 1738,1559 1700,1578 1647,1583 1609,1598 1571,1607 1547,1617 1518,1631 1456,1621 1428,1598 1375,1583 1318,1564 1313,1516 1284,1473 1261,1363 1237,1358 1227,1330 1194,1296 1165,1253 1113,1229 1079,1215 1031,1205 974,1215 969,1229 735,1229 726,1210 697,1201 649,1172 635,1148 630,1095 606,1100 621,952 635,947 630,866 640,847 664,837 664,780 683,751 702,737 702,713 692,708 688,694 430,694 420,713 387,717 368,732 363,751 244,746 239,765 210,770 205,789 167,780 158,751 143,751 105,727 96,684 86,670 81,651 57,636 19,636 0,631 5,493 143,416 153,340 201,249 310,215 396,201 444,163 544,77 664,124 778,110 926,38 1084,0 1165,29 1256,158 1289,210 1275,297 1198,301 1194,287 1108,287 1089,320 1108,397 1184,526 1275,526 1318,497 1399,488 1590,483 1600,474 1633,469 1709,497 1857,469 2005,435 2091,330 2239,316 2359,206 2397,196 2440,301 2483,340 2483,344 2473,378 2469,402 2450,421 2397,430 2392,469 2383,469 2383,493 2364,517 2364,555 2344,569 2301,579 2268,584 2259,607 "/>
   </g>
  </g>
 </g>
</svg>
