<?xml version="1.0" encoding="UTF-8"?>
<!DOCTYPE svg PUBLIC "-//W3C//DTD SVG 1.1//EN" "http://www.w3.org/Graphics/SVG/1.1/DTD/svg11.dtd">
<!-- Creator: CorelDRAW X8 -->
<svg xmlns="http://www.w3.org/2000/svg" xml:space="preserve" width="100%" height="100%" version="1.1" shape-rendering="geometricPrecision" text-rendering="geometricPrecision" image-rendering="optimizeQuality" fill-rule="evenodd" clip-rule="evenodd"
viewBox="0 0 1418 2384"
 xmlns:xlink="http://www.w3.org/1999/xlink">
 <g id="Layer_x0020_1">
  <metadata id="CorelCorpID_0Corel-Layer"/>
  <g id="Layers">
   <g id="India_Districts_selection">
    <polygon fill="#6EA97F" points="1362,315 1397,384 1418,545 1390,636 1390,776 1299,811 1299,888 1327,993 1341,1146 1397,1209 1362,1447 1320,1489 1264,1510 1166,1510 1173,1601 1208,1727 1208,1873 1257,1908 1278,2097 1187,2118 1103,2188 852,2279 635,2384 335,2384 175,2251 0,2097 14,2062 49,1957 28,1915 28,1776 56,1748 49,1601 35,1531 84,1454 133,1300 398,1286 454,1223 601,1091 622,895 538,790 552,622 538,468 496,454 496,426 482,364 901,0 999,70 1117,280 1194,329 1313,336 "/>
   </g>
  </g>
 </g>
</svg>
