<?xml version="1.0" encoding="UTF-8"?>
<!DOCTYPE svg PUBLIC "-//W3C//DTD SVG 1.1//EN" "http://www.w3.org/Graphics/SVG/1.1/DTD/svg11.dtd">
<!-- Creator: CorelDRAW X8 -->
<svg xmlns="http://www.w3.org/2000/svg" xml:space="preserve" width="100%" height="100%" version="1.1" shape-rendering="geometricPrecision" text-rendering="geometricPrecision" image-rendering="optimizeQuality" fill-rule="evenodd" clip-rule="evenodd"
viewBox="0 0 2336 1873"
 xmlns:xlink="http://www.w3.org/1999/xlink">
 <g id="Layer_x0020_1">
  <metadata id="CorelCorpID_0Corel-Layer"/>
  <g id="Layers">
   <g id="India_Districts_selection">
    <polygon fill="#6EA97F" points="1755,1763 1749,1747 1733,1736 1672,1708 1634,1703 1596,1703 1557,1681 1535,1681 1480,1670 1469,1653 1437,1637 1398,1637 1332,1626 1278,1626 1190,1609 1162,1609 1113,1593 1102,1571 1069,1571 1031,1571 987,1549 949,1532 921,1521 883,1516 828,1494 795,1483 757,1467 718,1461 707,1472 696,1521 685,1532 674,1554 669,1582 652,1598 625,1615 609,1642 598,1659 570,1659 548,1642 510,1642 428,1637 389,1642 373,1653 345,1659 334,1648 334,1615 318,1593 313,1543 345,1510 318,1494 274,1488 241,1478 236,1439 230,1390 214,1384 197,1357 164,1313 148,1258 110,1236 88,1219 88,1181 82,1131 55,1093 60,1016 49,1016 22,978 0,950 5,873 33,840 55,813 71,785 71,741 60,709 49,692 27,654 38,632 82,615 126,610 154,599 181,588 197,549 197,516 214,467 236,456 280,423 296,395 324,390 329,363 324,341 302,313 307,286 340,275 373,247 367,236 378,231 395,225 395,203 406,176 417,165 444,165 461,154 483,148 515,148 515,82 526,55 576,49 620,38 631,5 636,0 658,0 674,11 762,11 822,11 844,33 872,55 905,60 932,66 949,66 970,88 970,115 987,132 998,132 1020,143 1036,165 1053,170 1080,187 1091,203 1119,214 1151,214 1212,220 1256,214 1272,220 1278,258 1294,280 1294,286 1289,313 1261,324 1245,330 1212,346 1184,357 1168,379 1151,401 1168,428 1179,456 1195,478 1206,511 1212,544 1256,577 1289,621 1310,654 1332,687 1382,703 1426,698 1442,725 1448,780 1458,802 1480,824 1502,846 1508,862 1519,868 1524,884 1530,906 1508,923 1480,934 1502,967 1524,978 1552,994 1563,994 1585,1022 1585,1038 1590,1055 1601,1110 1612,1142 1628,1170 1650,1197 1689,1203 1716,1192 1722,1170 1733,1164 1749,1159 1771,1175 1766,1274 1787,1280 1798,1269 1809,1258 1831,1236 1853,1225 1859,1241 1886,1252 1897,1269 1870,1280 1870,1296 1881,1329 1919,1346 1946,1346 1963,1346 1963,1357 1990,1401 2012,1423 2056,1434 2095,1434 2100,1412 2149,1412 2166,1423 2166,1472 2138,1483 2138,1516 2177,1538 2182,1532 2226,1521 2248,1527 2264,1543 2281,1571 2297,1593 2303,1615 2330,1637 2336,1675 2308,1675 2286,1681 2254,1703 2221,1714 2215,1736 2188,1741 2182,1758 2215,1774 2237,1774 2264,1796 2248,1835 2232,1846 2204,1862 2177,1862 2122,1873 2089,1862 2089,1846 2040,1851 2007,1846 1990,1829 1957,1824 1936,1824 1936,1785 1925,1763 1892,1763 1804,1763 1755,1758 "/>
   </g>
  </g>
 </g>
</svg>
