<?xml version="1.0" encoding="UTF-8"?>
<!DOCTYPE svg PUBLIC "-//W3C//DTD SVG 1.1//EN" "http://www.w3.org/Graphics/SVG/1.1/DTD/svg11.dtd">
<!-- Creator: CorelDRAW X8 -->
<svg xmlns="http://www.w3.org/2000/svg" xml:space="preserve" width="100%" height="100%" version="1.1" shape-rendering="geometricPrecision" text-rendering="geometricPrecision" image-rendering="optimizeQuality" fill-rule="evenodd" clip-rule="evenodd"
viewBox="0 0 2489 1932"
 xmlns:xlink="http://www.w3.org/1999/xlink">
 <g id="Layer_x0020_1">
  <metadata id="CorelCorpID_0Corel-Layer"/>
  <g id="Layers">
   <g id="India_Districts_selection">
    <polygon fill="#6EA97F" points="2319,1179 2246,1184 2189,1218 2144,1264 2138,1326 2189,1405 2240,1496 2206,1536 2138,1541 2104,1439 2014,1264 1934,1077 1895,1048 1844,1037 1821,1213 1782,1298 1833,1445 1821,1632 1691,1598 1539,1558 1403,1592 1335,1632 1188,1609 1080,1581 1041,1468 831,1473 775,1598 735,1723 701,1807 605,1870 475,1932 328,1898 204,1751 198,1615 209,1530 238,1411 187,1377 164,1173 272,1031 62,827 40,550 0,453 153,272 328,130 475,142 634,272 803,261 798,164 888,113 1160,108 1199,125 1278,57 1346,34 1374,0 1391,17 1550,28 1657,210 1753,351 1850,414 2144,442 2342,402 2387,442 2455,482 2449,635 2489,652 2483,941 "/>
   </g>
  </g>
 </g>
</svg>
