<?xml version="1.0" encoding="UTF-8"?>
<!DOCTYPE svg PUBLIC "-//W3C//DTD SVG 1.1//EN" "http://www.w3.org/Graphics/SVG/1.1/DTD/svg11.dtd">
<!-- Creator: CorelDRAW X8 -->
<svg xmlns="http://www.w3.org/2000/svg" xml:space="preserve" width="100%" height="100%" version="1.1" shape-rendering="geometricPrecision" text-rendering="geometricPrecision" image-rendering="optimizeQuality" fill-rule="evenodd" clip-rule="evenodd"
viewBox="0 0 1463 2534"
 xmlns:xlink="http://www.w3.org/1999/xlink">
 <g id="Layer_x0020_1">
  <metadata id="CorelCorpID_0Corel-Layer"/>
  <g id="Layers">
   <g id="India_Districts_selection">
    <polygon fill="#6EA97F" points="876,45 869,186 839,230 809,230 802,275 876,327 928,334 921,379 906,498 898,557 1128,543 1136,446 1166,498 1270,609 1381,617 1396,684 1336,713 1329,758 1314,795 1314,914 1425,1026 1440,1145 1463,1182 1463,1241 1396,1293 1307,1308 1247,1345 1114,1375 1114,1330 995,1323 1002,1353 943,1375 943,1412 1002,1472 898,1501 898,1561 995,1628 1002,1739 883,1903 869,1977 846,2007 832,2066 802,2074 802,2163 883,2252 987,2453 757,2534 512,2497 379,2453 349,2349 297,2140 319,1917 349,1635 431,1486 438,1286 364,1204 178,1063 22,996 0,951 0,840 67,795 141,758 215,728 275,713 275,676 171,617 126,557 126,476 97,431 67,379 45,357 59,268 134,238 215,201 304,201 297,171 356,89 468,45 638,45 713,7 720,0 735,7 809,7 839,45 "/>
   </g>
  </g>
 </g>
</svg>
