<?xml version="1.0" encoding="UTF-8"?>
<!DOCTYPE svg PUBLIC "-//W3C//DTD SVG 1.1//EN" "http://www.w3.org/Graphics/SVG/1.1/DTD/svg11.dtd">
<!-- Creator: CorelDRAW X8 -->
<svg xmlns="http://www.w3.org/2000/svg" xml:space="preserve" width="100%" height="100%" version="1.1" shape-rendering="geometricPrecision" text-rendering="geometricPrecision" image-rendering="optimizeQuality" fill-rule="evenodd" clip-rule="evenodd"
viewBox="0 0 2462 1782"
 xmlns:xlink="http://www.w3.org/1999/xlink">
 <g id="Layer_x0020_1">
  <metadata id="CorelCorpID_0Corel-Layer"/>
  <g id="Layers">
   <g id="India_Districts_selection">
    <polygon fill="#6EA97F" points="2462,611 2436,637 2373,674 2300,669 2227,658 2175,606 2065,617 2003,669 1977,773 1951,805 1852,810 1794,836 1779,956 1784,1014 1758,1050 1674,1097 1643,1155 1648,1243 1627,1270 1601,1290 1539,1290 1455,1348 1450,1416 1429,1468 1419,1520 1361,1552 1330,1557 1283,1578 1252,1620 1252,1651 1231,1693 1064,1698 970,1740 725,1782 433,1573 120,1379 31,1202 0,946 31,873 261,617 402,559 589,554 798,324 897,178 1080,89 1215,0 1267,57 1340,136 1387,199 1476,230 1466,308 1492,355 1559,355 1632,324 1695,298 1732,251 1794,230 1857,172 1935,131 2008,131 2091,120 2389,162 2436,193 2420,287 2394,303 2389,350 2399,444 2378,533 2415,575 "/>
   </g>
  </g>
 </g>
</svg>
