<?xml version="1.0" encoding="UTF-8"?>
<!DOCTYPE svg PUBLIC "-//W3C//DTD SVG 1.1//EN" "http://www.w3.org/Graphics/SVG/1.1/DTD/svg11.dtd">
<!-- Creator: CorelDRAW X8 -->
<svg xmlns="http://www.w3.org/2000/svg" xml:space="preserve" width="100%" height="100%" version="1.1" shape-rendering="geometricPrecision" text-rendering="geometricPrecision" image-rendering="optimizeQuality" fill-rule="evenodd" clip-rule="evenodd"
viewBox="0 0 2475 2083"
 xmlns:xlink="http://www.w3.org/1999/xlink">
 <g id="Layer_x0020_1">
  <metadata id="CorelCorpID_0Corel-Layer"/>
  <g id="Layers">
   <g id="India_Districts_selection">
    <polygon fill="#6EA97F" points="2475,886 2457,916 2420,983 2420,1038 2433,1118 2402,1160 2390,1234 2360,1264 2341,1289 2341,1344 2299,1393 2280,1411 2286,1466 2189,1478 2116,1496 2012,1509 1945,1515 1914,1533 1878,1551 1866,1576 1793,1594 1780,1612 1707,1612 1695,1637 1677,1637 1646,1606 1640,1588 1482,1576 1475,1606 1402,1612 1360,1625 1329,1661 1305,1692 1286,1722 1244,1735 1207,1771 1183,1777 1134,1790 1073,1796 1043,1820 1000,1844 921,1844 896,1869 847,1875 805,1887 805,1942 811,2009 719,2016 707,2034 646,2034 616,2028 579,2052 524,2058 482,2083 329,1765 0,1728 0,1692 311,1588 518,1460 658,1435 683,1386 707,1276 774,1148 933,1142 1012,1130 1012,1093 1067,1099 1067,1130 1195,1136 1201,1099 1360,1105 1439,1038 1427,886 1049,886 847,941 537,934 451,843 415,654 537,660 616,525 537,421 530,348 726,311 847,220 1116,195 1116,189 1152,214 1335,189 1549,140 1732,6 1853,0 1884,183 1975,464 2006,580 2042,672 2256,794 2445,886 "/>
   </g>
  </g>
 </g>
</svg>
