<?xml version="1.0" encoding="UTF-8"?>
<!DOCTYPE svg PUBLIC "-//W3C//DTD SVG 1.1//EN" "http://www.w3.org/Graphics/SVG/1.1/DTD/svg11.dtd">
<!-- Creator: CorelDRAW X8 -->
<svg xmlns="http://www.w3.org/2000/svg" xml:space="preserve" width="100%" height="100%" version="1.1" shape-rendering="geometricPrecision" text-rendering="geometricPrecision" image-rendering="optimizeQuality" fill-rule="evenodd" clip-rule="evenodd"
viewBox="0 0 1147 1782"
 xmlns:xlink="http://www.w3.org/1999/xlink">
 <g id="Layer_x0020_1">
  <metadata id="CorelCorpID_0Corel-Layer"/>
  <g id="Layers">
   <g id="India_Districts_selection">
    <polygon fill="#6EA97F" points="1147,42 1147,57 1116,89 1080,99 1074,131 1095,157 1106,183 1095,214 1069,219 1048,251 1001,287 975,298 960,355 960,387 944,434 908,449 881,460 829,465 782,481 772,507 798,554 808,569 819,606 819,653 798,684 777,711 746,747 741,836 761,867 793,909 808,909 798,993 834,1034 840,1092 840,1134 866,1149 902,1176 923,1238 960,1285 981,1317 996,1322 1001,1374 1012,1416 1048,1432 1090,1442 1121,1458 1085,1494 1090,1546 1106,1573 1111,1609 1132,1625 1116,1672 1064,1656 1017,1682 981,1708 975,1745 928,1782 887,1766 845,1766 798,1761 777,1745 751,1693 735,1672 725,1646 725,1604 668,1599 626,1567 610,1536 595,1505 537,1505 495,1505 464,1520 438,1541 386,1541 355,1552 303,1573 287,1588 266,1599 256,1599 146,1468 146,1108 94,935 78,836 120,763 125,684 57,627 0,575 5,413 37,402 177,392 224,387 256,381 245,261 339,125 344,131 370,152 370,172 402,162 428,146 449,136 469,110 480,78 506,47 522,37 553,26 589,10 626,0 657,10 688,21 694,37 751,47 803,47 824,63 840,47 850,37 908,26 954,21 996,21 1027,21 1038,26 1048,42 1116,47 "/>
   </g>
  </g>
 </g>
</svg>
