<?xml version="1.0" encoding="UTF-8"?>
<!DOCTYPE svg PUBLIC "-//W3C//DTD SVG 1.1//EN" "http://www.w3.org/Graphics/SVG/1.1/DTD/svg11.dtd">
<!-- Creator: CorelDRAW X8 -->
<svg xmlns="http://www.w3.org/2000/svg" xml:space="preserve" width="100%" height="100%" version="1.1" shape-rendering="geometricPrecision" text-rendering="geometricPrecision" image-rendering="optimizeQuality" fill-rule="evenodd" clip-rule="evenodd"
viewBox="0 0 3185 2534"
 xmlns:xlink="http://www.w3.org/1999/xlink">
 <g id="Layer_x0020_1">
  <metadata id="CorelCorpID_0Corel-Layer"/>
  <g id="Layers">
   <g id="India_Districts_selection">
    <polygon fill="#6EA97F" points="891,2393 891,2259 854,2036 772,1992 698,1910 624,1858 483,1739 386,1717 334,1672 245,1568 148,1486 134,1293 111,1197 104,1033 67,936 30,877 0,788 37,795 67,647 111,572 156,483 171,394 193,178 549,171 609,164 653,104 817,89 921,22 987,7 1017,0 1010,22 1195,52 1455,52 1559,89 1618,156 1730,201 1841,342 1819,565 1871,751 1938,877 2057,1018 2227,1263 2428,1449 2673,1479 2799,1598 2962,1694 3036,1739 3133,1843 3133,1873 3185,1880 3103,1940 3014,2014 2799,2007 2725,2066 2665,2096 2650,2207 2480,2244 2465,2282 2302,2267 2198,2334 2101,2453 2012,2534 1812,2378 1693,2230 1581,2148 1477,2274 1373,2252 1329,2192 1262,2163 1173,2259 1106,2319 1062,2386 "/>
   </g>
  </g>
 </g>
</svg>
