<?xml version="1.0" encoding="UTF-8"?>
<!DOCTYPE svg PUBLIC "-//W3C//DTD SVG 1.1//EN" "http://www.w3.org/Graphics/SVG/1.1/DTD/svg11.dtd">
<!-- Creator: CorelDRAW X8 -->
<svg xmlns="http://www.w3.org/2000/svg" xml:space="preserve" width="100%" height="100%" version="1.1" shape-rendering="geometricPrecision" text-rendering="geometricPrecision" image-rendering="optimizeQuality" fill-rule="evenodd" clip-rule="evenodd"
viewBox="0 0 2300 2534"
 xmlns:xlink="http://www.w3.org/1999/xlink">
 <g id="Layer_x0020_1">
  <metadata id="CorelCorpID_0Corel-Layer"/>
  <g id="Layers">
   <g id="India_Districts_selection">
    <polygon fill="#6EA97F" points="1380,2534 1269,2519 1217,2356 1128,2096 979,1799 920,1620 875,1330 816,1226 586,1241 423,1293 30,1308 0,1241 45,1152 334,929 364,394 415,186 549,67 586,0 616,22 1076,97 1469,208 1588,230 1610,349 1840,416 2033,372 2211,349 2292,357 2300,617 1929,892 1751,1583 1692,1709 1706,2088 1380,2207 "/>
   </g>
  </g>
 </g>
</svg>
