<?xml version="1.0" encoding="UTF-8"?>
<!DOCTYPE svg PUBLIC "-//W3C//DTD SVG 1.1//EN" "http://www.w3.org/Graphics/SVG/1.1/DTD/svg11.dtd">
<!-- Creator: CorelDRAW X8 -->
<svg xmlns="http://www.w3.org/2000/svg" xml:space="preserve" width="100%" height="100%" version="1.1" shape-rendering="geometricPrecision" text-rendering="geometricPrecision" image-rendering="optimizeQuality" fill-rule="evenodd" clip-rule="evenodd"
viewBox="0 0 1856 1932"
 xmlns:xlink="http://www.w3.org/1999/xlink">
 <g id="Layer_x0020_1">
  <metadata id="CorelCorpID_0Corel-Layer"/>
  <g id="Layers">
   <g id="India_Districts_selection">
    <polygon fill="#6EA97F" points="1856,805 1800,878 1805,1145 1817,1224 1670,1241 1658,1281 1556,1292 1556,1258 1460,1252 1421,1292 1426,1604 1511,1706 1517,1796 1471,1853 1347,1858 1296,1739 1273,1604 1234,1643 1172,1734 1172,1790 1109,1858 1109,1932 990,1926 973,1785 923,1739 923,1609 877,1609 809,1547 702,1468 611,1468 560,1547 487,1604 357,1394 181,1235 164,907 40,720 0,538 79,329 113,244 311,249 391,215 509,74 572,28 736,0 821,74 894,96 900,266 838,323 826,459 951,482 985,419 1013,346 1081,346 1104,397 1177,414 1205,465 1353,476 1370,442 1466,442 1551,516 1647,567 1709,669 "/>
   </g>
  </g>
 </g>
</svg>
