<?xml version="1.0" encoding="UTF-8"?>
<!DOCTYPE svg PUBLIC "-//W3C//DTD SVG 1.1//EN" "http://www.w3.org/Graphics/SVG/1.1/DTD/svg11.dtd">
<!-- Creator: CorelDRAW X8 -->
<svg xmlns="http://www.w3.org/2000/svg" xml:space="preserve" width="100%" height="100%" version="1.1" shape-rendering="geometricPrecision" text-rendering="geometricPrecision" image-rendering="optimizeQuality" fill-rule="evenodd" clip-rule="evenodd"
viewBox="0 0 1713 2233"
 xmlns:xlink="http://www.w3.org/1999/xlink">
 <g id="Layer_x0020_1">
  <metadata id="CorelCorpID_0Corel-Layer"/>
  <g id="Layers">
   <g id="India_Districts_selection">
    <polygon fill="#6EA97F" points="1242,33 1268,138 1268,190 1288,314 1281,570 1229,668 1229,812 1190,871 1196,969 1301,1067 1471,1166 1497,1264 1393,1388 1262,1474 1216,1546 1288,1637 1379,1631 1458,1598 1491,1742 1523,1801 1608,1886 1654,1971 1713,2050 1641,2122 1595,2200 1582,2187 1432,2200 1294,2233 1183,2214 1072,2142 1007,2050 994,1912 856,1808 484,1460 477,1336 379,1225 157,1081 0,1035 7,956 118,714 235,603 255,504 262,380 183,334 190,262 320,105 412,0 575,79 752,118 948,118 1151,79 "/>
   </g>
  </g>
 </g>
</svg>
