<?xml version="1.0" encoding="UTF-8"?>
<!DOCTYPE svg PUBLIC "-//W3C//DTD SVG 1.1//EN" "http://www.w3.org/Graphics/SVG/1.1/DTD/svg11.dtd">
<!-- Creator: CorelDRAW X8 -->
<svg xmlns="http://www.w3.org/2000/svg" xml:space="preserve" width="100%" height="100%" version="1.1" shape-rendering="geometricPrecision" text-rendering="geometricPrecision" image-rendering="optimizeQuality" fill-rule="evenodd" clip-rule="evenodd"
viewBox="0 0 2086 1782"
 xmlns:xlink="http://www.w3.org/1999/xlink">
 <g id="Layer_x0020_1">
  <metadata id="CorelCorpID_0Corel-Layer"/>
  <g id="Layers">
   <g id="India_Districts_selection">
    <polygon fill="#6EA97F" points="1095,246 1090,272 1048,387 1007,444 1074,617 1147,758 1205,836 1330,852 1497,972 1737,1019 1951,998 2029,1045 2086,1097 2065,1254 1998,1374 1945,1515 1945,1594 1752,1620 1669,1724 1591,1782 1429,1740 1429,1688 1262,1661 1100,1557 626,1552 396,1557 329,1515 151,1390 219,1322 240,1196 151,1040 141,784 141,575 120,423 78,256 5,209 0,136 68,94 37,120 407,0 746,26 756,136 949,199 1074,256 "/>
   </g>
  </g>
 </g>
</svg>
