<?xml version="1.0" encoding="UTF-8"?>
<!DOCTYPE svg PUBLIC "-//W3C//DTD SVG 1.1//EN" "http://www.w3.org/Graphics/SVG/1.1/DTD/svg11.dtd">
<!-- Creator: CorelDRAW X8 -->
<svg xmlns="http://www.w3.org/2000/svg" xml:space="preserve" width="100%" height="100%" version="1.1" shape-rendering="geometricPrecision" text-rendering="geometricPrecision" image-rendering="optimizeQuality" fill-rule="evenodd" clip-rule="evenodd"
viewBox="0 0 2235 1631"
 xmlns:xlink="http://www.w3.org/1999/xlink">
 <g id="Layer_x0020_1">
  <metadata id="CorelCorpID_0Corel-Layer"/>
  <g id="Layers">
   <g id="India_Districts_selection">
    <polygon fill="#6EA97F" points="1227,1478 1203,1483 1175,1497 1132,1507 1108,1516 1046,1516 1027,1507 1008,1502 993,1521 979,1545 969,1569 950,1593 917,1593 902,1574 883,1564 859,1578 855,1598 845,1617 812,1631 774,1626 754,1607 754,1550 735,1545 721,1526 707,1483 697,1497 606,1492 597,1483 578,1483 568,1511 559,1531 516,1540 439,1540 406,1550 382,1559 353,1598 325,1598 272,1583 253,1531 267,1507 301,1478 349,1468 401,1445 415,1425 430,1382 454,1358 473,1335 477,1311 473,1268 473,1229 458,1229 420,1220 406,1205 411,1181 377,1148 363,1138 349,1110 349,1052 349,995 325,957 296,942 267,928 220,918 201,909 162,909 148,885 143,851 124,823 86,794 72,789 10,780 0,751 29,746 33,722 38,717 57,703 67,679 86,665 110,646 138,612 148,607 196,612 277,607 310,607 320,631 320,665 344,670 372,674 387,689 420,694 463,689 463,708 492,713 544,703 573,703 602,689 616,679 630,646 602,622 583,622 554,603 559,588 583,588 587,564 621,555 654,536 668,531 697,531 692,488 668,469 659,450 645,430 630,402 616,387 597,383 554,392 544,397 511,373 511,344 540,335 540,287 520,277 473,277 468,297 435,297 392,287 372,263 349,225 349,210 358,210 377,201 396,191 411,187 430,172 444,158 468,148 506,153 540,153 559,143 563,124 578,120 611,91 621,81 654,77 692,48 697,38 711,33 726,24 745,0 807,0 826,19 859,24 883,38 907,77 926,91 941,91 950,110 969,110 984,163 993,210 1027,249 1060,287 1065,320 1074,407 1084,440 1103,435 1141,440 1189,440 1222,430 1222,411 1246,397 1280,378 1294,359 1318,344 1323,311 1332,287 1347,268 1389,263 1423,258 1437,234 1452,191 1461,172 1466,206 1485,220 1523,234 1547,268 1566,277 1585,306 1638,320 1676,340 1686,368 1695,445 1705,493 1705,531 1719,584 1719,655 1714,679 1695,689 1657,703 1580,703 1552,708 1533,732 1542,746 1552,780 1576,832 1604,861 1604,885 1619,904 1652,918 1686,918 1714,923 1781,933 1824,933 1848,957 1862,971 1905,981 1915,981 1934,1024 1929,1062 1991,1062 2010,1057 2025,1033 2048,1033 2091,1048 2153,1062 2149,1100 2192,1124 2216,1138 2235,1177 2235,1201 2230,1201 2158,1248 2168,1296 2187,1392 2192,1507 2110,1521 2106,1497 2048,1459 1967,1473 1958,1502 1877,1507 1872,1478 1819,1483 1786,1507 1705,1535 1676,1531 1552,1416 1313,1425 1275,1368 1251,1358 1222,1406 1222,1468 "/>
   </g>
  </g>
 </g>
</svg>
