<?xml version="1.0" encoding="UTF-8"?>
<!DOCTYPE svg PUBLIC "-//W3C//DTD SVG 1.1//EN" "http://www.w3.org/Graphics/SVG/1.1/DTD/svg11.dtd">
<!-- Creator: CorelDRAW X8 -->
<svg xmlns="http://www.w3.org/2000/svg" xml:space="preserve" width="100%" height="100%" version="1.1" shape-rendering="geometricPrecision" text-rendering="geometricPrecision" image-rendering="optimizeQuality" fill-rule="evenodd" clip-rule="evenodd"
viewBox="0 0 2329 2083"
 xmlns:xlink="http://www.w3.org/1999/xlink">
 <g id="Layer_x0020_1">
  <metadata id="CorelCorpID_0Corel-Layer"/>
  <g id="Layers">
   <g id="India_Districts_selection">
    <polygon fill="#6EA97F" points="2158,24 2128,61 2189,232 2268,415 2329,544 2329,708 2225,1026 2122,1179 2042,1313 2049,1374 1902,1429 1713,1484 1451,1612 1299,1759 1183,1899 1055,2028 921,2052 750,2016 573,2003 348,2077 238,2083 189,1942 0,1802 30,1698 12,1179 146,1051 244,959 262,806 671,788 805,702 988,586 1073,531 1335,440 1475,318 1561,171 1610,31 1811,0 "/>
   </g>
  </g>
 </g>
</svg>
