<?xml version="1.0" encoding="UTF-8"?>
<!DOCTYPE svg PUBLIC "-//W3C//DTD SVG 1.1//EN" "http://www.w3.org/Graphics/SVG/1.1/DTD/svg11.dtd">
<!-- Creator: CorelDRAW X8 -->
<svg xmlns="http://www.w3.org/2000/svg" xml:space="preserve" width="100%" height="100%" version="1.1" shape-rendering="geometricPrecision" text-rendering="geometricPrecision" image-rendering="optimizeQuality" fill-rule="evenodd" clip-rule="evenodd"
viewBox="0 0 2849 1782"
 xmlns:xlink="http://www.w3.org/1999/xlink">
 <g id="Layer_x0020_1">
  <metadata id="CorelCorpID_0Corel-Layer"/>
  <g id="Layers">
   <g id="India_Districts_selection">
    <polygon fill="#6EA97F" points="548,1604 543,1604 496,1578 470,1531 475,1505 470,1416 501,1390 522,1364 553,1322 569,1280 574,1243 574,1212 569,1181 548,1144 522,1144 480,1139 459,1160 433,1181 428,1202 423,1238 397,1249 365,1249 339,1275 339,1254 313,1212 297,1165 271,1155 235,1144 224,1123 188,1097 157,1071 125,1071 73,1045 52,1040 5,1019 0,1014 37,982 198,946 303,946 397,784 376,658 292,543 198,465 209,392 235,392 256,366 308,350 371,350 423,345 444,329 475,303 527,277 553,293 564,324 621,329 626,308 668,298 710,308 736,334 793,334 809,308 830,282 887,287 898,298 939,277 1028,277 1075,277 1075,298 1153,298 1169,261 1190,251 1216,261 1252,287 1305,266 1352,256 1372,235 1388,251 1419,256 1461,235 1508,214 1539,199 1555,204 1581,204 1618,204 1649,188 1675,162 1722,172 1743,183 1785,214 1780,397 1920,402 1931,355 1952,324 1962,282 2004,282 2030,277 2056,261 2093,235 2145,214 2171,193 2218,183 2228,146 2228,84 2223,52 2254,47 2312,0 2338,16 2359,10 2406,16 2437,31 2442,84 2416,125 2390,125 2374,193 2359,246 2354,293 2322,298 2359,334 2395,366 2427,366 2453,329 2489,308 2536,277 2562,261 2573,235 2599,230 2604,209 2614,178 2630,172 2656,162 2661,125 2735,110 2787,110 2797,162 2839,188 2823,225 2849,251 2849,345 2839,413 2818,460 2787,413 2740,413 2656,481 2599,554 2583,559 2547,486 2505,455 2447,475 2447,549 2458,664 2385,664 2364,637 2270,648 2239,700 2265,747 2307,789 2307,820 2228,899 2124,914 1999,993 1910,1003 1894,977 1837,967 1790,1034 1785,1097 1670,1191 1670,1249 1680,1311 1722,1374 1733,1479 1706,1520 1644,1635 1586,1656 1493,1635 1341,1562 1279,1552 992,1782 960,1782 877,1682 866,1609 840,1541 851,1458 804,1416 694,1405 631,1447 558,1515 543,1604 "/>
   </g>
  </g>
 </g>
</svg>
