<?xml version="1.0" encoding="UTF-8"?>
<!DOCTYPE svg PUBLIC "-//W3C//DTD SVG 1.1//EN" "http://www.w3.org/Graphics/SVG/1.1/DTD/svg11.dtd">
<!-- Creator: CorelDRAW X8 -->
<svg xmlns="http://www.w3.org/2000/svg" xml:space="preserve" width="100%" height="100%" version="1.1" shape-rendering="geometricPrecision" text-rendering="geometricPrecision" image-rendering="optimizeQuality" fill-rule="evenodd" clip-rule="evenodd"
viewBox="0 0 1888 1782"
 xmlns:xlink="http://www.w3.org/1999/xlink">
 <g id="Layer_x0020_1">
  <metadata id="CorelCorpID_0Corel-Layer"/>
  <g id="Layers">
   <g id="India_Districts_selection">
    <polygon fill="#6EA97F" points="1883,157 1888,172 1888,261 1883,308 1831,319 1794,319 1758,329 1747,355 1726,381 1726,428 1721,470 1679,507 1653,559 1638,601 1627,637 1606,664 1596,684 1570,721 1559,747 1549,778 1523,825 1513,857 1528,899 1549,935 1575,951 1580,1019 1580,1055 1559,1087 1539,1160 1544,1196 1523,1228 1523,1264 1507,1290 1497,1290 1486,1322 1476,1358 1439,1395 1429,1416 1424,1473 1460,1531 1497,1557 1523,1557 1544,1588 1518,1630 1507,1693 1502,1714 1492,1735 1476,1766 1424,1782 1387,1755 1361,1750 1335,1729 1283,1729 1231,1714 1205,1703 1147,1661 1137,1635 1090,1677 1038,1651 1038,1614 1027,1588 965,1552 918,1531 908,1484 855,1468 819,1473 751,1442 704,1411 636,1405 615,1390 542,1379 495,1369 428,1364 376,1358 349,1338 287,1285 261,1270 219,1217 188,1186 177,1165 110,1149 99,1139 78,1149 26,1139 0,1108 0,1066 42,1034 94,998 94,951 63,930 68,893 78,857 83,857 89,820 110,784 130,758 167,726 172,700 167,679 146,643 162,611 203,590 235,575 282,538 313,517 339,528 376,533 407,559 417,580 433,601 475,601 485,596 506,606 511,543 516,507 511,465 537,449 553,428 631,434 652,449 678,439 709,418 720,376 756,366 803,361 834,324 834,298 814,277 829,235 855,214 866,204 902,183 928,162 960,146 981,136 1001,110 1017,94 1121,84 1179,78 1200,89 1226,120 1252,136 1267,146 1309,157 1408,157 1408,131 1424,115 1429,99 1460,78 1492,68 1528,47 1554,47 1559,21 1596,0 1664,5 1679,37 1679,68 1695,84 1716,84 1721,99 1737,115 1763,125 1794,131 1815,146 1825,152 1857,162 1878,162 "/>
   </g>
  </g>
 </g>
</svg>
