<?xml version="1.0" encoding="UTF-8"?>
<!DOCTYPE svg PUBLIC "-//W3C//DTD SVG 1.1//EN" "http://www.w3.org/Graphics/SVG/1.1/DTD/svg11.dtd">
<!-- Creator: CorelDRAW X8 -->
<svg xmlns="http://www.w3.org/2000/svg" xml:space="preserve" width="100%" height="100%" version="1.1" shape-rendering="geometricPrecision" text-rendering="geometricPrecision" image-rendering="optimizeQuality" fill-rule="evenodd" clip-rule="evenodd"
viewBox="0 0 4146 3438"
 xmlns:xlink="http://www.w3.org/1999/xlink">
 <g id="Layer_x0020_1">
  <metadata id="CorelCorpID_0Corel-Layer"/>
  <g id="Layers">
   <g id="India_Districts_selection">
    <polygon fill="#6EA97F" points="1731,3438 1650,3306 1348,3125 946,3135 745,3266 523,3266 443,3095 302,2903 40,2641 0,2651 10,2621 70,2167 151,1956 272,1804 684,1542 1026,1391 1429,1028 1449,675 1610,413 1701,373 1731,292 2003,111 2254,0 2707,91 3874,131 4055,171 4126,171 4086,302 4025,363 3905,615 3935,817 4035,917 4146,1371 3894,1522 3965,1704 3985,1946 3824,2218 3633,2520 3462,2742 3321,2974 3271,3155 3210,3256 2707,3256 2496,3226 2405,3306 2063,3317 1942,3397 "/>
   </g>
  </g>
 </g>
</svg>
