<?xml version="1.0" encoding="UTF-8"?>
<!DOCTYPE svg PUBLIC "-//W3C//DTD SVG 1.1//EN" "http://www.w3.org/Graphics/SVG/1.1/DTD/svg11.dtd">
<!-- Creator: CorelDRAW X8 -->
<svg xmlns="http://www.w3.org/2000/svg" xml:space="preserve" width="100%" height="100%" version="1.1" shape-rendering="geometricPrecision" text-rendering="geometricPrecision" image-rendering="optimizeQuality" fill-rule="evenodd" clip-rule="evenodd"
viewBox="0 0 9229 7803"
 xmlns:xlink="http://www.w3.org/1999/xlink">
 <g id="Layer_x0020_1">
  <metadata id="CorelCorpID_0Corel-Layer"/>
  <g id="Layers">
   <g id="India_Districts_selection">
    <polygon fill="#6EA97F" points="9114,320 9229,435 8932,1030 8109,1579 8178,2563 7995,3661 7447,4119 7515,4737 6488,4851 6236,6087 5185,5995 3609,6270 3038,6819 2376,7277 1096,7483 91,7803 0,6590 845,6178 1393,5675 2147,5263 2102,4371 1508,3432 1188,3227 1416,3158 1165,2220 617,435 959,343 1051,46 2970,23 5345,0 5985,366 6282,984 7104,1053 7173,595 7881,709 8269,366 "/>
   </g>
  </g>
 </g>
</svg>
