<?xml version="1.0" encoding="UTF-8"?>
<!DOCTYPE svg PUBLIC "-//W3C//DTD SVG 1.1//EN" "http://www.w3.org/Graphics/SVG/1.1/DTD/svg11.dtd">
<!-- Creator: CorelDRAW X8 -->
<svg xmlns="http://www.w3.org/2000/svg" xml:space="preserve" width="100%" height="100%" version="1.1" shape-rendering="geometricPrecision" text-rendering="geometricPrecision" image-rendering="optimizeQuality" fill-rule="evenodd" clip-rule="evenodd"
viewBox="0 0 3315 1932"
 xmlns:xlink="http://www.w3.org/1999/xlink">
 <g id="Layer_x0020_1">
  <metadata id="CorelCorpID_0Corel-Layer"/>
  <g id="Layers">
   <g id="India_Districts_selection">
    <polygon fill="#6EA97F" points="1527,57 1674,176 1686,385 1697,516 1776,499 1861,397 2279,351 2444,300 2585,164 2760,79 2902,68 2913,96 3037,176 3179,238 3207,300 3275,300 3269,323 3258,346 3258,363 3269,385 3264,419 3247,448 3235,459 3241,476 3252,504 3286,544 3298,589 3298,612 3275,635 3258,652 3252,663 3252,674 3269,686 3281,697 3309,725 3315,742 3292,776 3281,833 3264,856 3235,873 3196,873 3173,873 3162,873 3128,907 3111,929 3111,935 3134,986 3162,1031 3173,1071 3156,1088 3128,1094 3105,1082 3094,1060 3083,1043 3054,1031 3032,1043 2998,1060 2975,1048 2947,1037 2930,1031 2896,1043 2890,1065 2879,1099 2856,1150 2822,1196 2806,1224 2800,1247 2777,1258 2721,1247 2692,1247 2687,1247 2664,1281 2664,1298 2670,1326 2681,1343 2675,1360 2415,1394 2393,1507 2285,1570 2082,1558 1929,1513 1799,1621 1799,1932 1686,1932 1669,1909 1544,1762 1346,1592 979,1575 588,1575 554,1456 317,1445 249,1394 0,1326 11,1167 74,1065 113,907 187,873 300,980 447,1048 554,1048 718,878 645,725 481,635 447,533 407,357 469,363 752,51 979,74 1318,79 1391,11 1522,0 "/>
   </g>
  </g>
 </g>
</svg>
