<?xml version="1.0" encoding="UTF-8"?>
<!DOCTYPE svg PUBLIC "-//W3C//DTD SVG 1.1//EN" "http://www.w3.org/Graphics/SVG/1.1/DTD/svg11.dtd">
<!-- Creator: CorelDRAW X8 -->
<svg xmlns="http://www.w3.org/2000/svg" xml:space="preserve" width="100%" height="100%" version="1.1" shape-rendering="geometricPrecision" text-rendering="geometricPrecision" image-rendering="optimizeQuality" fill-rule="evenodd" clip-rule="evenodd"
viewBox="0 0 1347 1631"
 xmlns:xlink="http://www.w3.org/1999/xlink">
 <g id="Layer_x0020_1">
  <metadata id="CorelCorpID_0Corel-Layer"/>
  <g id="Layers">
   <g id="India_Districts_selection">
    <polygon fill="#6EA97F" points="1294,24 1294,67 1256,129 1265,306 1289,344 1289,411 1313,464 1318,526 1347,574 1337,727 1313,761 1256,799 1203,823 1151,890 1151,933 1103,947 1098,976 1070,1024 1074,1067 1122,1095 1208,1100 1160,1167 1156,1239 1141,1287 1098,1349 1103,1416 1050,1430 1036,1445 998,1449 984,1631 463,1521 38,1349 0,1210 24,1086 86,1081 134,1071 215,1057 277,1028 325,981 334,928 387,899 454,866 501,823 497,775 449,737 392,703 325,674 291,631 291,574 325,521 377,469 425,411 439,354 482,258 511,187 559,153 626,124 692,129 750,167 802,167 859,163 922,143 993,110 1065,67 1122,10 1194,0 1284,19 "/>
   </g>
  </g>
 </g>
</svg>
