<?xml version="1.0" encoding="UTF-8"?>
<!DOCTYPE svg PUBLIC "-//W3C//DTD SVG 1.1//EN" "http://www.w3.org/Graphics/SVG/1.1/DTD/svg11.dtd">
<!-- Creator: CorelDRAW X8 -->
<svg xmlns="http://www.w3.org/2000/svg" xml:space="preserve" width="100%" height="100%" version="1.1" shape-rendering="geometricPrecision" text-rendering="geometricPrecision" image-rendering="optimizeQuality" fill-rule="evenodd" clip-rule="evenodd"
viewBox="0 0 1529 2384"
 xmlns:xlink="http://www.w3.org/1999/xlink">
 <g id="Layer_x0020_1">
  <metadata id="CorelCorpID_0Corel-Layer"/>
  <g id="Layers">
   <g id="India_Districts_selection">
    <polygon fill="#6EA97F" points="1131,2167 1006,2174 922,2251 775,2286 538,2335 531,2384 447,2356 363,2286 265,2181 251,2013 203,1839 175,1685 189,1468 293,1293 314,965 237,881 63,853 0,818 0,762 49,699 42,503 112,440 203,440 272,496 496,482 594,391 531,280 503,126 656,105 656,0 775,42 908,28 1020,70 1082,98 1166,140 1432,336 1529,440 1522,678 1529,713 1369,762 1215,853 1075,993 1020,1265 1013,1671 1013,2041 "/>
   </g>
  </g>
 </g>
</svg>
