<?xml version="1.0" encoding="UTF-8"?>
<!DOCTYPE svg PUBLIC "-//W3C//DTD SVG 1.1//EN" "http://www.w3.org/Graphics/SVG/1.1/DTD/svg11.dtd">
<!-- Creator: CorelDRAW X8 -->
<svg xmlns="http://www.w3.org/2000/svg" xml:space="preserve" width="100%" height="100%" version="1.1" shape-rendering="geometricPrecision" text-rendering="geometricPrecision" image-rendering="optimizeQuality" fill-rule="evenodd" clip-rule="evenodd"
viewBox="0 0 2129 2083"
 xmlns:xlink="http://www.w3.org/1999/xlink">
 <g id="Layer_x0020_1">
  <metadata id="CorelCorpID_0Corel-Layer"/>
  <g id="Layers">
   <g id="India_Districts_selection">
    <polygon fill="#6EA97F" points="1306,2083 1159,1692 1043,1673 1025,1619 635,1631 549,1576 561,1374 476,1222 171,1014 55,922 0,831 0,654 73,592 464,562 506,470 574,385 708,366 860,238 1086,226 1178,73 1275,0 1537,24 1751,140 1885,226 1885,366 2129,379 2129,727 1824,1399 1318,2064 "/>
   </g>
  </g>
 </g>
</svg>
