<?xml version="1.0" encoding="UTF-8"?>
<!DOCTYPE svg PUBLIC "-//W3C//DTD SVG 1.1//EN" "http://www.w3.org/Graphics/SVG/1.1/DTD/svg11.dtd">
<!-- Creator: CorelDRAW X8 -->
<svg xmlns="http://www.w3.org/2000/svg" xml:space="preserve" width="100%" height="100%" version="1.1" shape-rendering="geometricPrecision" text-rendering="geometricPrecision" image-rendering="optimizeQuality" fill-rule="evenodd" clip-rule="evenodd"
viewBox="0 0 2827 1631"
 xmlns:xlink="http://www.w3.org/1999/xlink">
 <g id="Layer_x0020_1">
  <metadata id="CorelCorpID_0Corel-Layer"/>
  <g id="Layers">
   <g id="India_Districts_selection">
    <polygon fill="#6EA97F" points="2072,77 2282,96 2612,77 2822,77 2827,153 2812,464 2784,732 2736,904 2693,1196 2669,1440 2621,1502 2564,1574 2492,1631 2335,1545 2120,1382 2106,1301 1939,1134 1805,1095 1681,1224 1466,1330 1289,1445 1046,1492 1008,1473 922,1430 797,1454 692,1497 597,1516 540,1555 444,1569 439,1540 325,1497 325,1258 258,1263 201,1339 158,1387 76,1416 0,1382 48,1320 181,1162 277,1057 286,866 344,684 549,306 587,115 659,120 898,77 1179,10 1542,0 1834,10 "/>
   </g>
  </g>
 </g>
</svg>
