<?xml version="1.0" encoding="UTF-8"?>
<!DOCTYPE svg PUBLIC "-//W3C//DTD SVG 1.1//EN" "http://www.w3.org/Graphics/SVG/1.1/DTD/svg11.dtd">
<!-- Creator: CorelDRAW X8 -->
<svg xmlns="http://www.w3.org/2000/svg" xml:space="preserve" width="100%" height="100%" version="1.1" shape-rendering="geometricPrecision" text-rendering="geometricPrecision" image-rendering="optimizeQuality" fill-rule="evenodd" clip-rule="evenodd"
viewBox="0 0 2317 2384"
 xmlns:xlink="http://www.w3.org/1999/xlink">
 <g id="Layer_x0020_1">
  <metadata id="CorelCorpID_0Corel-Layer"/>
  <g id="Layers">
   <g id="India_Districts_selection">
    <polygon fill="#6EA97F" points="1682,2384 1633,2363 1361,2286 1424,2118 1514,1692 1479,1468 1319,1440 1165,1594 1005,1643 921,1559 670,1552 572,1433 244,1160 42,1139 49,1014 0,748 154,608 342,433 565,377 684,266 844,133 844,0 879,21 1151,49 1172,98 1389,84 1612,238 1849,336 1968,364 2031,685 2184,965 2282,1160 2317,1286 1905,1720 1884,1985 1717,2342 "/>
   </g>
  </g>
 </g>
</svg>
