<?xml version="1.0" encoding="UTF-8"?>
<!DOCTYPE svg PUBLIC "-//W3C//DTD SVG 1.1//EN" "http://www.w3.org/Graphics/SVG/1.1/DTD/svg11.dtd">
<!-- Creator: CorelDRAW X8 -->
<svg xmlns="http://www.w3.org/2000/svg" xml:space="preserve" width="100%" height="100%" version="1.1" shape-rendering="geometricPrecision" text-rendering="geometricPrecision" image-rendering="optimizeQuality" fill-rule="evenodd" clip-rule="evenodd"
viewBox="0 0 1897 2083"
 xmlns:xlink="http://www.w3.org/1999/xlink">
 <g id="Layer_x0020_1">
  <metadata id="CorelCorpID_0Corel-Layer"/>
  <g id="Layers">
   <g id="India_Districts_selection">
    <polygon fill="#6EA97F" points="1897,1899 1867,1924 1721,1967 1605,1961 1537,2064 1391,1991 1330,1961 1232,2034 1275,2064 1184,2083 1043,2034 824,1887 647,1844 537,1612 439,1551 128,1515 122,1295 61,1179 24,953 0,715 79,611 73,476 153,464 287,409 421,293 397,165 494,92 671,79 879,0 1202,18 1245,110 1251,287 1287,409 1354,489 1495,562 1531,592 1385,733 1403,861 1470,922 1647,928 1800,1173 1843,1368 1867,1533 1824,1600 1782,1735 1855,1808 "/>
   </g>
  </g>
 </g>
</svg>
