<?xml version="1.0" encoding="UTF-8"?>
<!DOCTYPE svg PUBLIC "-//W3C//DTD SVG 1.1//EN" "http://www.w3.org/Graphics/SVG/1.1/DTD/svg11.dtd">
<!-- Creator: CorelDRAW X8 -->
<svg xmlns="http://www.w3.org/2000/svg" xml:space="preserve" width="100%" height="100%" version="1.1" shape-rendering="geometricPrecision" text-rendering="geometricPrecision" image-rendering="optimizeQuality" fill-rule="evenodd" clip-rule="evenodd"
viewBox="0 0 3888 4341"
 xmlns:xlink="http://www.w3.org/1999/xlink">
 <g id="Layer_x0020_1">
  <metadata id="CorelCorpID_0Corel-Layer"/>
  <g id="Layers">
   <g id="India_Districts_selection">
    <polygon fill="#6EA97F" points="3838,25 3685,293 3609,446 3622,624 3571,827 3431,866 3329,802 3240,687 3024,726 2974,777 2897,993 2910,1146 2630,1184 2592,1235 2376,1235 2287,1337 2198,1578 2262,1642 2287,1718 2224,1769 1881,1795 1792,1960 1741,2011 1919,2228 2211,2202 2287,2342 2478,2368 2745,2610 3037,2775 3228,3042 3571,3361 3850,3730 3888,3870 3787,3984 3812,4201 3800,4341 3520,4341 3190,4328 3113,4239 2974,4137 2808,4010 2796,3857 2567,3653 2402,3564 2249,3526 1843,3539 1766,3335 1665,3157 1474,3042 1347,3068 1334,3170 1195,3284 1055,3348 813,3361 813,2928 775,2928 546,2839 559,2610 419,2635 356,2699 203,2800 102,2928 51,2737 76,2584 89,2419 394,2088 546,2011 534,1871 470,1820 457,1718 267,1706 203,1655 165,1528 25,1413 0,1375 38,1298 51,1057 229,1006 407,980 457,1044 839,1044 978,917 1347,929 1601,815 1754,687 1982,675 2135,586 2389,433 2719,446 2783,407 3088,395 3088,242 3431,242 3469,115 3583,0 "/>
   </g>
  </g>
 </g>
</svg>
