<?xml version="1.0" encoding="UTF-8"?>
<!DOCTYPE svg PUBLIC "-//W3C//DTD SVG 1.1//EN" "http://www.w3.org/Graphics/SVG/1.1/DTD/svg11.dtd">
<!-- Creator: CorelDRAW X8 -->
<svg xmlns="http://www.w3.org/2000/svg" xml:space="preserve" width="100%" height="100%" version="1.1" shape-rendering="geometricPrecision" text-rendering="geometricPrecision" image-rendering="optimizeQuality" fill-rule="evenodd" clip-rule="evenodd"
viewBox="0 0 1745 1330"
 xmlns:xlink="http://www.w3.org/1999/xlink">
 <g id="Layer_x0020_1">
  <metadata id="CorelCorpID_0Corel-Layer"/>
  <g id="Layers">
   <g id="India_Districts_selection">
    <polygon fill="#6EA97F" points="1745,1158 1640,1244 1593,1283 1504,1287 1461,1264 1434,1221 1399,1166 1344,1135 1270,1139 1235,1201 1173,1201 1122,1131 1102,1170 1005,1182 892,1268 791,1326 721,1330 635,1303 557,1268 495,1275 464,1307 429,1283 378,1248 316,1225 249,1229 226,1174 199,1127 168,1069 132,1002 171,956 230,928 269,885 273,671 175,671 160,702 117,686 86,683 55,651 31,605 0,554 4,293 23,187 74,129 82,105 86,105 121,94 175,31 253,0 382,4 440,23 495,51 600,59 627,101 713,152 779,183 841,121 919,148 982,183 1056,94 1239,86 1247,117 1500,101 1554,82 1574,113 1644,74 1656,94 1683,98 1648,152 1621,218 1601,378 1586,445 1539,491 1422,620 1434,737 1515,757 1554,831 1484,924 1574,956 1687,932 1714,979 1706,1080 1726,1143 "/>
   </g>
  </g>
 </g>
</svg>
