<?xml version="1.0" encoding="UTF-8"?>
<!DOCTYPE svg PUBLIC "-//W3C//DTD SVG 1.1//EN" "http://www.w3.org/Graphics/SVG/1.1/DTD/svg11.dtd">
<!-- Creator: CorelDRAW X8 -->
<svg xmlns="http://www.w3.org/2000/svg" xml:space="preserve" width="100%" height="100%" version="1.1" shape-rendering="geometricPrecision" text-rendering="geometricPrecision" image-rendering="optimizeQuality" fill-rule="evenodd" clip-rule="evenodd"
viewBox="0 0 1891 1481"
 xmlns:xlink="http://www.w3.org/1999/xlink">
 <g id="Layer_x0020_1">
  <metadata id="CorelCorpID_0Corel-Layer"/>
  <g id="Layers">
   <g id="India_Districts_selection">
    <polygon fill="#6EA97F" points="1891,308 1834,360 1817,460 1765,547 1726,551 1726,768 1635,838 1566,916 1422,990 1318,1051 1310,1107 1097,1129 1032,1198 1006,1276 937,1394 889,1428 850,1476 451,1472 442,1437 191,1446 160,1481 65,1476 4,1437 0,1376 35,1311 39,1272 113,1246 113,1190 182,1098 256,1068 334,1016 369,968 382,755 338,686 330,604 299,534 299,434 265,386 256,139 304,61 308,0 395,35 438,104 503,152 577,191 659,208 742,239 802,261 872,261 945,234 963,165 984,82 1054,78 1102,135 1145,204 1227,200 1323,187 1401,195 1513,200 1652,200 1713,221 1787,230 1860,261 "/>
   </g>
  </g>
 </g>
</svg>
