<?xml version="1.0" encoding="UTF-8"?>
<!DOCTYPE svg PUBLIC "-//W3C//DTD SVG 1.1//EN" "http://www.w3.org/Graphics/SVG/1.1/DTD/svg11.dtd">
<!-- Creator: CorelDRAW X8 -->
<svg xmlns="http://www.w3.org/2000/svg" xml:space="preserve" width="100%" height="100%" version="1.1" shape-rendering="geometricPrecision" text-rendering="geometricPrecision" image-rendering="optimizeQuality" fill-rule="evenodd" clip-rule="evenodd"
viewBox="0 0 2206 3588"
 xmlns:xlink="http://www.w3.org/1999/xlink">
 <g id="Layer_x0020_1">
  <metadata id="CorelCorpID_0Corel-Layer"/>
  <g id="Layers">
   <g id="India_Districts_selection">
    <polygon fill="#6EA97F" points="2206,495 2090,694 1912,894 1901,1221 1901,1473 1765,1610 1744,1883 1681,1978 1681,2168 1586,2294 1565,2852 1555,2988 1513,3125 1471,3241 1471,3588 1239,3588 924,3514 630,3378 557,2915 368,2536 0,2157 0,1663 11,1115 84,747 273,558 483,431 798,347 1302,53 1681,0 1681,42 1912,295 2132,431 "/>
   </g>
  </g>
 </g>
</svg>
