<?xml version="1.0" encoding="UTF-8"?>
<!DOCTYPE svg PUBLIC "-//W3C//DTD SVG 1.1//EN" "http://www.w3.org/Graphics/SVG/1.1/DTD/svg11.dtd">
<!-- Creator: CorelDRAW X8 -->
<svg xmlns="http://www.w3.org/2000/svg" xml:space="preserve" width="100%" height="100%" version="1.1" shape-rendering="geometricPrecision" text-rendering="geometricPrecision" image-rendering="optimizeQuality" fill-rule="evenodd" clip-rule="evenodd"
viewBox="0 0 2867 1631"
 xmlns:xlink="http://www.w3.org/1999/xlink">
 <g id="Layer_x0020_1">
  <metadata id="CorelCorpID_0Corel-Layer"/>
  <g id="Layers">
   <g id="India_Districts_selection">
    <polygon fill="#6EA97F" points="2867,550 2790,741 2451,775 2265,985 1839,1578 1806,1631 1725,1540 1634,1464 1596,1382 1529,1306 1443,1224 1433,1114 1457,1033 1534,1014 1591,928 1553,794 1433,751 1300,746 1194,770 1132,866 1108,947 1042,1038 994,1119 870,1301 764,1325 669,1363 592,1406 411,1435 268,1416 182,1382 67,1344 0,1339 105,1071 172,976 253,942 282,741 210,674 210,593 511,584 583,450 659,349 688,163 822,14 941,0 984,129 1070,124 1228,244 1777,254 1777,177 1925,163 1983,230 2007,440 2174,464 2217,277 2370,301 2508,450 2556,521 "/>
   </g>
  </g>
 </g>
</svg>
