<?xml version="1.0" encoding="UTF-8"?>
<!DOCTYPE svg PUBLIC "-//W3C//DTD SVG 1.1//EN" "http://www.w3.org/Graphics/SVG/1.1/DTD/svg11.dtd">
<!-- Creator: CorelDRAW X8 -->
<svg xmlns="http://www.w3.org/2000/svg" xml:space="preserve" width="100%" height="100%" version="1.1" shape-rendering="geometricPrecision" text-rendering="geometricPrecision" image-rendering="optimizeQuality" fill-rule="evenodd" clip-rule="evenodd"
viewBox="0 0 1216 1179"
 xmlns:xlink="http://www.w3.org/1999/xlink">
 <g id="Layer_x0020_1">
  <metadata id="CorelCorpID_0Corel-Layer"/>
  <g id="Layers">
   <g id="India_Districts_selection">
    <polygon fill="#6EA97F" points="812,1179 808,1176 605,1145 577,1107 570,1041 542,1000 456,1013 411,1003 425,989 397,941 287,868 214,744 97,619 3,560 0,277 38,204 45,163 342,159 411,118 473,52 535,7 529,3 587,0 656,38 798,48 822,10 1068,0 1106,86 1130,187 1137,287 1175,349 1182,540 1216,847 1140,903 1102,937 998,944 940,972 888,1034 840,1079 812,1086 "/>
   </g>
  </g>
 </g>
</svg>
