<?xml version="1.0" encoding="UTF-8"?>
<!DOCTYPE svg PUBLIC "-//W3C//DTD SVG 1.1//EN" "http://www.w3.org/Graphics/SVG/1.1/DTD/svg11.dtd">
<!-- Creator: CorelDRAW X8 -->
<svg xmlns="http://www.w3.org/2000/svg" xml:space="preserve" width="100%" height="100%" version="1.1" shape-rendering="geometricPrecision" text-rendering="geometricPrecision" image-rendering="optimizeQuality" fill-rule="evenodd" clip-rule="evenodd"
viewBox="0 0 3078 3136"
 xmlns:xlink="http://www.w3.org/1999/xlink">
 <g id="Layer_x0020_1">
  <metadata id="CorelCorpID_0Corel-Layer"/>
  <g id="Layers">
   <g id="India_Districts_selection">
    <polygon fill="#6EA97F" points="2104,3136 2040,3090 1911,2833 1626,2621 1351,2447 1093,2391 864,2235 818,2005 726,1748 606,1536 368,1288 165,1085 0,837 64,736 349,671 368,478 459,441 588,340 946,359 1093,230 1222,129 1378,147 1479,46 1727,9 1773,0 1966,147 2132,304 2214,423 2178,745 2205,846 2371,846 2462,993 2646,1131 2756,1297 2995,1619 3078,1876 3078,2226 3069,2428 3014,2493 2995,2575 2894,2704 2784,2861 2499,3063 2288,3063 "/>
   </g>
  </g>
 </g>
</svg>
