<?xml version="1.0" encoding="UTF-8"?>
<!DOCTYPE svg PUBLIC "-//W3C//DTD SVG 1.1//EN" "http://www.w3.org/Graphics/SVG/1.1/DTD/svg11.dtd">
<!-- Creator: CorelDRAW X8 -->
<svg xmlns="http://www.w3.org/2000/svg" xml:space="preserve" width="100%" height="100%" version="1.1" shape-rendering="geometricPrecision" text-rendering="geometricPrecision" image-rendering="optimizeQuality" fill-rule="evenodd" clip-rule="evenodd"
viewBox="0 0 1268 3438"
 xmlns:xlink="http://www.w3.org/1999/xlink">
 <g id="Layer_x0020_1">
  <metadata id="CorelCorpID_0Corel-Layer"/>
  <g id="Layers">
   <g id="India_Districts_selection">
    <polygon fill="#6EA97F" points="845,464 966,494 976,474 976,1048 976,1149 1057,1300 1097,1663 1067,1905 1198,1925 1268,2167 986,2188 926,2278 825,2208 714,2056 644,2218 584,2470 543,2692 644,2873 644,3135 574,3337 523,3438 413,3317 403,2792 453,2722 453,2550 413,2500 413,2188 362,2147 362,2036 70,2046 0,2056 0,1542 60,1391 101,1331 121,1220 151,1129 221,1069 262,978 272,827 352,716 312,685 342,685 362,685 392,403 443,222 503,101 574,0 714,50 725,393 825,403 "/>
   </g>
  </g>
 </g>
</svg>
