<?xml version="1.0" encoding="UTF-8"?>
<!DOCTYPE svg PUBLIC "-//W3C//DTD SVG 1.1//EN" "http://www.w3.org/Graphics/SVG/1.1/DTD/svg11.dtd">
<!-- Creator: CorelDRAW X8 -->
<svg xmlns="http://www.w3.org/2000/svg" xml:space="preserve" width="100%" height="100%" version="1.1" shape-rendering="geometricPrecision" text-rendering="geometricPrecision" image-rendering="optimizeQuality" fill-rule="evenodd" clip-rule="evenodd"
viewBox="0 0 2269 3136"
 xmlns:xlink="http://www.w3.org/1999/xlink">
 <g id="Layer_x0020_1">
  <metadata id="CorelCorpID_0Corel-Layer"/>
  <g id="Layers">
   <g id="India_Districts_selection">
    <polygon fill="#6EA97F" points="386,2566 459,2474 551,2410 643,2299 597,2217 606,2134 717,2033 753,1922 735,1683 698,1646 753,1490 882,1361 671,1205 496,1085 322,901 312,819 358,773 358,598 303,515 101,497 64,432 0,350 74,285 193,276 322,221 358,156 368,18 450,28 515,9 717,0 707,9 763,55 809,184 827,331 891,478 965,607 1066,717 1231,874 1341,1003 1479,1141 1553,1370 1626,1564 1709,1610 2141,1821 2224,1950 2269,2014 2269,2115 2233,2171 2178,2244 2141,2272 2132,2309 2104,2290 2086,2373 1828,2428 1553,2539 1231,2778 1002,3017 965,3090 882,3127 753,3136 662,3081 634,2815 597,2695 542,2640 404,2621 "/>
   </g>
  </g>
 </g>
</svg>
