<?xml version="1.0" encoding="UTF-8"?>
<!DOCTYPE svg PUBLIC "-//W3C//DTD SVG 1.1//EN" "http://www.w3.org/Graphics/SVG/1.1/DTD/svg11.dtd">
<!-- Creator: CorelDRAW X8 -->
<svg xmlns="http://www.w3.org/2000/svg" xml:space="preserve" width="100%" height="100%" version="1.1" shape-rendering="geometricPrecision" text-rendering="geometricPrecision" image-rendering="optimizeQuality" fill-rule="evenodd" clip-rule="evenodd"
viewBox="0 0 4760 4491"
 xmlns:xlink="http://www.w3.org/1999/xlink">
 <g id="Layer_x0020_1">
  <metadata id="CorelCorpID_0Corel-Layer"/>
  <g id="Layers">
   <g id="India_Districts_selection">
    <polygon fill="#6EA97F" points="4391,2028 4391,2147 4510,2226 4576,2476 4602,2700 4602,3029 4615,3411 4760,3648 4720,3846 4576,4004 4155,4215 3892,4425 3760,4491 3432,4294 3208,4096 3261,3991 3668,3701 3471,3609 3234,3424 2814,3411 2538,3227 2012,3148 1814,2871 1486,2726 855,2516 224,2318 13,2081 0,2028 53,1989 118,1844 131,1594 197,1422 237,975 118,817 39,527 66,540 171,421 329,0 486,26 618,184 723,211 789,659 947,751 1473,764 2025,1093 2235,1304 2590,1291 2827,1093 3616,1199 3813,1278 3931,1462 3997,1673 4128,1831 4378,2042 "/>
   </g>
  </g>
 </g>
</svg>
