<?xml version="1.0" encoding="UTF-8"?>
<!DOCTYPE svg PUBLIC "-//W3C//DTD SVG 1.1//EN" "http://www.w3.org/Graphics/SVG/1.1/DTD/svg11.dtd">
<!-- Creator: CorelDRAW X8 -->
<svg xmlns="http://www.w3.org/2000/svg" xml:space="preserve" width="100%" height="100%" version="1.1" shape-rendering="geometricPrecision" text-rendering="geometricPrecision" image-rendering="optimizeQuality" fill-rule="evenodd" clip-rule="evenodd"
viewBox="0 0 2884 1631"
 xmlns:xlink="http://www.w3.org/1999/xlink">
 <g id="Layer_x0020_1">
  <metadata id="CorelCorpID_0Corel-Layer"/>
  <g id="Layers">
   <g id="India_Districts_selection">
    <polygon fill="#6EA97F" points="2879,301 2874,340 2884,459 2855,536 2836,641 2822,717 2774,780 2736,808 2717,856 2669,918 2612,1024 2593,1067 2540,1052 2521,1019 2483,971 2445,981 2407,1004 2364,1091 2344,1124 2268,1129 2177,1148 2163,1287 2134,1339 2029,1354 2001,1306 1953,1311 1905,1363 1738,1358 1700,1392 1695,1488 1442,1492 1394,1540 1366,1574 1323,1631 1246,1631 1246,1607 1189,1559 1117,1483 941,1387 941,1368 917,1363 907,1335 802,1330 783,1306 759,1282 616,1268 611,1210 611,1129 549,1105 463,1091 358,1071 325,1019 263,981 167,933 86,899 10,847 0,732 62,622 148,536 310,454 396,368 473,263 540,206 587,134 583,129 707,124 769,182 797,258 850,397 936,435 1017,521 1050,521 1060,550 1117,545 1122,187 1160,143 1313,153 1342,215 1432,325 1514,392 1619,454 1666,459 1757,531 1824,607 1962,641 2053,674 2087,727 2173,717 2225,694 2273,684 2311,593 2301,497 2340,478 2330,330 2378,249 2426,210 2450,100 2502,29 2469,0 2521,0 2588,91 2631,124 2698,139 2698,167 2803,177 2846,215 2879,301 "/>
   </g>
  </g>
 </g>
</svg>
