<?xml version="1.0" encoding="UTF-8"?>
<!DOCTYPE svg PUBLIC "-//W3C//DTD SVG 1.1//EN" "http://www.w3.org/Graphics/SVG/1.1/DTD/svg11.dtd">
<!-- Creator: CorelDRAW X8 -->
<svg xmlns="http://www.w3.org/2000/svg" xml:space="preserve" width="100%" height="100%" version="1.1" shape-rendering="geometricPrecision" text-rendering="geometricPrecision" image-rendering="optimizeQuality" fill-rule="evenodd" clip-rule="evenodd"
viewBox="0 0 8577 6599"
 xmlns:xlink="http://www.w3.org/1999/xlink">
 <g id="Layer_x0020_1">
  <metadata id="CorelCorpID_0Corel-Layer"/>
  <g id="Layers">
   <g id="India_Districts_selection">
    <polygon fill="#6EA97F" points="3439,774 3400,871 3361,1567 3574,1567 3709,1742 3690,2090 3922,2167 4153,2283 4559,2225 4868,2167 5525,2225 5873,1819 6008,1567 6433,1393 7399,1490 7688,1567 7959,1567 8152,1374 8500,1606 8577,1761 8403,1955 7515,2864 7051,3290 6761,3483 6336,3619 6046,3909 5853,4199 5621,4548 5525,4799 5621,4915 5834,5109 5834,5496 5602,5670 5235,5786 4984,5883 4791,6134 4443,6289 3844,6386 3554,6502 2956,6579 1951,6599 1430,6579 1159,6444 889,6444 792,6444 773,6309 715,6115 560,5883 270,5457 0,5109 444,4973 753,4741 753,4567 367,4606 135,4664 77,4335 212,4161 270,3967 406,3754 522,3503 1005,3038 1005,2903 1005,2593 889,2264 637,2264 560,2129 444,1896 618,1703 657,1374 502,1084 290,1026 39,871 19,697 174,600 773,368 1024,232 1797,116 1951,58 2106,0 2415,0 2627,213 2859,426 3072,426 3284,581 "/>
   </g>
  </g>
 </g>
</svg>
