<?xml version="1.0" encoding="UTF-8"?>
<!DOCTYPE svg PUBLIC "-//W3C//DTD SVG 1.1//EN" "http://www.w3.org/Graphics/SVG/1.1/DTD/svg11.dtd">
<!-- Creator: CorelDRAW X8 -->
<svg xmlns="http://www.w3.org/2000/svg" xml:space="preserve" width="100%" height="100%" version="1.1" shape-rendering="geometricPrecision" text-rendering="geometricPrecision" image-rendering="optimizeQuality" fill-rule="evenodd" clip-rule="evenodd"
viewBox="0 0 1856 1932"
 xmlns:xlink="http://www.w3.org/1999/xlink">
 <g id="Layer_x0020_1">
  <metadata id="CorelCorpID_0Corel-Layer"/>
  <g id="Layers">
   <g id="India_Districts_selection">
    <polygon fill="#6EA97F" points="1647,714 1630,765 1624,771 1732,771 1749,805 1800,873 1805,1054 1828,1077 1828,1128 1856,1184 1336,1190 1313,1167 1081,1167 1070,1156 798,1139 798,1298 775,1332 781,1649 753,1666 753,1728 787,1756 826,1790 877,1824 838,1853 792,1898 741,1932 436,1932 430,1875 407,1853 368,1847 345,1824 255,1830 232,1847 181,1864 119,1796 102,1734 45,1700 57,1570 11,1530 23,1428 0,1400 0,1394 6,1326 62,1264 113,1218 164,1139 181,1094 255,1077 317,1009 413,980 464,907 413,878 407,827 374,799 317,799 317,765 311,759 407,748 475,754 481,731 657,725 707,697 713,680 843,674 923,601 951,555 1030,493 1030,210 1160,159 1228,85 1256,0 1307,6 1330,45 1370,45 1432,102 1438,147 1454,153 1505,176 1545,221 1568,244 1607,278 1602,425 1602,470 1624,504 1653,533 1641,561 1675,612 1681,652 "/>
   </g>
  </g>
 </g>
</svg>
