<?xml version="1.0" encoding="UTF-8"?>
<!DOCTYPE svg PUBLIC "-//W3C//DTD SVG 1.1//EN" "http://www.w3.org/Graphics/SVG/1.1/DTD/svg11.dtd">
<!-- Creator: CorelDRAW X8 -->
<svg xmlns="http://www.w3.org/2000/svg" xml:space="preserve" width="100%" height="100%" version="1.1" shape-rendering="geometricPrecision" text-rendering="geometricPrecision" image-rendering="optimizeQuality" fill-rule="evenodd" clip-rule="evenodd"
viewBox="0 0 1785 1782"
 xmlns:xlink="http://www.w3.org/1999/xlink">
 <g id="Layer_x0020_1">
  <metadata id="CorelCorpID_0Corel-Layer"/>
  <g id="Layers">
   <g id="India_Districts_selection">
    <polygon fill="#6EA97F" points="1785,1609 1759,1630 1712,1646 1654,1667 1613,1641 1586,1630 1555,1641 1539,1682 1451,1677 1451,1656 1399,1656 1305,1656 1263,1682 1247,1667 1185,1661 1164,1693 1148,1714 1080,1714 1049,1693 1007,1677 960,1688 950,1714 887,1703 877,1672 845,1656 793,1682 757,1714 731,1735 673,1735 605,1735 548,1750 522,1782 501,1782 543,1452 558,1290 371,1123 350,643 167,538 52,371 42,235 52,115 0,16 68,0 146,42 292,167 470,167 517,230 631,225 819,361 877,517 945,517 1038,434 1185,517 1273,569 1315,512 1315,805 1294,852 1242,914 1200,935 1320,1008 1378,1008 1425,1040 1456,1076 1482,1176 1524,1212 1534,1275 1566,1338 1602,1364 1654,1395 1686,1400 1722,1416 1743,1447 1753,1531 1769,1588 "/>
   </g>
  </g>
 </g>
</svg>
