<?xml version="1.0" encoding="UTF-8"?>
<!DOCTYPE svg PUBLIC "-//W3C//DTD SVG 1.1//EN" "http://www.w3.org/Graphics/SVG/1.1/DTD/svg11.dtd">
<!-- Creator: CorelDRAW X8 -->
<svg xmlns="http://www.w3.org/2000/svg" xml:space="preserve" width="100%" height="100%" version="1.1" shape-rendering="geometricPrecision" text-rendering="geometricPrecision" image-rendering="optimizeQuality" fill-rule="evenodd" clip-rule="evenodd"
viewBox="0 0 1679 1217"
 xmlns:xlink="http://www.w3.org/1999/xlink">
 <g id="Layer_x0020_1">
  <metadata id="CorelCorpID_0Corel-Layer"/>
  <g id="Layers">
   <g id="India_Districts_selection">
    <polygon fill="#6EA97F" points="1679,532 1679,610 1633,614 1586,678 1529,764 1415,842 1412,924 1380,978 1266,1163 1041,1163 1034,1121 895,1135 873,1099 770,1092 720,1117 667,1171 528,1217 410,1171 299,1185 299,1117 239,1078 250,835 0,642 0,332 29,278 111,268 185,360 310,321 321,182 456,75 478,7 481,0 488,71 759,368 799,389 1184,375 1294,475 1308,532 "/>
   </g>
  </g>
 </g>
</svg>
