<?xml version="1.0" encoding="UTF-8"?>
<!DOCTYPE svg PUBLIC "-//W3C//DTD SVG 1.1//EN" "http://www.w3.org/Graphics/SVG/1.1/DTD/svg11.dtd">
<!-- Creator: CorelDRAW X8 -->
<svg xmlns="http://www.w3.org/2000/svg" xml:space="preserve" width="100%" height="100%" version="1.1" shape-rendering="geometricPrecision" text-rendering="geometricPrecision" image-rendering="optimizeQuality" fill-rule="evenodd" clip-rule="evenodd"
viewBox="0 0 4738 5395"
 xmlns:xlink="http://www.w3.org/1999/xlink">
 <g id="Layer_x0020_1">
  <metadata id="CorelCorpID_0Corel-Layer"/>
  <g id="Layers">
   <g id="India_Districts_selection">
    <polygon fill="#6EA97F" points="4501,332 4580,380 4738,633 4738,854 4548,965 4406,1092 4185,1202 4217,1519 3474,1566 3206,1598 3048,1677 3016,2357 3001,2484 2985,2484 2811,2468 2590,2547 2448,2658 2369,2863 2242,3164 2195,3338 2053,3512 1895,3670 1785,3844 1785,4002 1895,4145 2085,4224 2258,4335 2416,4445 2432,4604 2274,4714 2069,4825 1927,4904 1895,5078 1737,5221 1548,5300 1311,5347 1153,5379 979,5395 1058,5015 869,4224 695,3654 758,2674 726,1772 0,1060 47,823 126,680 411,506 616,237 774,0 979,190 1058,380 1279,617 1295,854 1437,1028 1674,1060 2242,1060 2274,981 2242,522 2606,570 2669,475 2985,475 3095,649 3048,759 3158,902 3380,886 3490,649 3632,475 3901,411 4169,427 "/>
   </g>
  </g>
 </g>
</svg>
