<?xml version="1.0" encoding="UTF-8"?>
<!DOCTYPE svg PUBLIC "-//W3C//DTD SVG 1.1//EN" "http://www.w3.org/Graphics/SVG/1.1/DTD/svg11.dtd">
<!-- Creator: CorelDRAW X8 -->
<svg xmlns="http://www.w3.org/2000/svg" xml:space="preserve" width="100%" height="100%" version="1.1" shape-rendering="geometricPrecision" text-rendering="geometricPrecision" image-rendering="optimizeQuality" fill-rule="evenodd" clip-rule="evenodd"
viewBox="0 0 2436 1481"
 xmlns:xlink="http://www.w3.org/1999/xlink">
 <g id="Layer_x0020_1">
  <metadata id="CorelCorpID_0Corel-Layer"/>
  <g id="Layers">
   <g id="India_Districts_selection">
    <polygon fill="#6EA97F" points="0,825 4,751 82,682 160,656 217,586 277,495 277,473 386,456 386,399 429,391 429,356 468,300 516,265 576,213 602,230 810,226 988,265 1157,265 1192,213 1296,213 1396,113 1452,52 1513,56 1638,213 1712,261 1829,256 1838,169 1916,82 2072,0 2197,0 2236,126 2392,247 2388,339 2436,382 2397,465 2349,569 2275,651 2223,721 2184,782 2154,838 2076,903 2072,964 2028,973 2028,1029 1955,1085 1907,1085 1907,1168 1833,1185 1820,1259 1517,1259 1504,1307 1404,1298 1400,1333 1214,1329 1175,1376 1079,1368 1071,1407 841,1437 797,1454 628,1454 585,1481 585,1463 156,1446 74,1103 52,825 "/>
   </g>
  </g>
 </g>
</svg>
