<?xml version="1.0" encoding="UTF-8"?>
<!DOCTYPE svg PUBLIC "-//W3C//DTD SVG 1.1//EN" "http://www.w3.org/Graphics/SVG/1.1/DTD/svg11.dtd">
<!-- Creator: CorelDRAW X8 -->
<svg xmlns="http://www.w3.org/2000/svg" xml:space="preserve" width="100%" height="100%" version="1.1" shape-rendering="geometricPrecision" text-rendering="geometricPrecision" image-rendering="optimizeQuality" fill-rule="evenodd" clip-rule="evenodd"
viewBox="0 0 2082 1782"
 xmlns:xlink="http://www.w3.org/1999/xlink">
 <g id="Layer_x0020_1">
  <metadata id="CorelCorpID_0Corel-Layer"/>
  <g id="Layers">
   <g id="India_Districts_selection">
    <polygon fill="#6EA97F" points="2082,1708 1978,1735 1968,1782 1868,1708 1775,1677 1701,1614 1581,1520 1127,1531 1096,1499 1075,1322 1013,1280 955,1338 913,1338 887,1259 762,1264 741,1181 621,1186 558,1102 371,1108 360,1129 287,1134 261,1102 204,1102 183,1097 193,1008 240,961 271,914 308,888 324,857 350,773 313,737 183,747 120,674 57,622 16,596 5,554 0,481 5,428 42,408 84,366 115,319 157,298 292,293 365,329 418,329 470,334 506,361 564,387 626,371 673,345 757,329 814,293 866,266 934,266 1007,308 1070,345 1112,350 1164,350 1200,329 1227,277 1273,246 1331,209 1367,136 1435,99 1581,84 1665,52 1748,5 1754,0 1785,57 1795,115 1764,157 1759,324 1853,397 1868,632 1842,684 1842,820 1811,883 1816,883 1775,899 1743,914 1722,961 1701,1102 1754,1139 1816,1233 1910,1243 1926,1348 1989,1379 2041,1484 2041,1552 1999,1588 1999,1646 2062,1682 "/>
   </g>
  </g>
 </g>
</svg>
