<?xml version="1.0" encoding="UTF-8"?>
<!DOCTYPE svg PUBLIC "-//W3C//DTD SVG 1.1//EN" "http://www.w3.org/Graphics/SVG/1.1/DTD/svg11.dtd">
<!-- Creator: CorelDRAW X8 -->
<svg xmlns="http://www.w3.org/2000/svg" xml:space="preserve" width="100%" height="100%" version="1.1" shape-rendering="geometricPrecision" text-rendering="geometricPrecision" image-rendering="optimizeQuality" fill-rule="evenodd" clip-rule="evenodd"
viewBox="0 0 2777 2384"
 xmlns:xlink="http://www.w3.org/1999/xlink">
 <g id="Layer_x0020_1">
  <metadata id="CorelCorpID_0Corel-Layer"/>
  <g id="Layers">
   <g id="India_Districts_selection">
    <polygon fill="#6EA97F" points="2156,2384 2100,2307 2066,2244 2024,2097 2087,1866 1982,1776 2010,1636 1954,1489 1793,1167 1654,1091 1445,1077 1207,958 1040,937 1033,1160 844,1447 726,1636 558,1790 516,1671 461,1489 384,1426 56,1440 0,1307 7,1188 91,1014 126,825 342,720 475,657 621,643 649,447 726,301 754,182 816,0 830,63 935,203 1249,371 1486,391 1598,461 1689,482 1731,580 1786,692 1835,727 1891,713 1996,622 2121,650 2191,762 2275,853 2317,951 2394,1014 2526,1035 2603,1028 2659,1070 2777,1132 2763,1335 2617,1349 2617,1454 2736,1545 2770,1601 2694,1671 2463,1692 2366,1832 2352,2013 2338,2265 2331,2293 2289,2293 2177,2349 "/>
   </g>
  </g>
 </g>
</svg>
