<?xml version="1.0" encoding="UTF-8"?>
<!DOCTYPE svg PUBLIC "-//W3C//DTD SVG 1.1//EN" "http://www.w3.org/Graphics/SVG/1.1/DTD/svg11.dtd">
<!-- Creator: CorelDRAW X8 -->
<svg xmlns="http://www.w3.org/2000/svg" xml:space="preserve" width="100%" height="100%" version="1.1" shape-rendering="geometricPrecision" text-rendering="geometricPrecision" image-rendering="optimizeQuality" fill-rule="evenodd" clip-rule="evenodd"
viewBox="0 0 2507 1330"
 xmlns:xlink="http://www.w3.org/1999/xlink">
 <g id="Layer_x0020_1">
  <metadata id="CorelCorpID_0Corel-Layer"/>
  <g id="Layers">
   <g id="India_Districts_selection">
    <polygon fill="#6EA97F" points="0,1002 12,959 58,866 117,800 175,776 175,753 343,741 409,675 428,608 397,581 370,550 370,484 417,464 510,468 533,515 627,511 670,542 728,523 736,464 794,417 825,359 938,386 966,347 993,320 1059,316 1125,343 1184,324 1219,316 1219,269 1273,265 1363,187 1367,164 1398,156 1413,59 1433,12 1472,0 1550,27 1678,12 1775,55 1807,55 1807,70 1955,140 2075,152 2110,164 2079,183 2040,230 2067,265 2099,293 2227,328 2309,328 2391,355 2433,378 2488,406 2503,476 2507,550 2476,628 2449,675 2391,729 2313,768 2239,800 2110,811 2048,846 2017,909 1966,944 1923,967 1900,1018 1869,1037 1822,1037 1783,1030 1733,998 1666,959 1608,959 1561,987 1507,1014 1433,1030 1394,1053 1335,1069 1285,1045 1254,1022 1203,1014 1156,1014 1094,983 973,991 938,1010 911,1049 872,1088 837,1104 837,1151 837,1217 849,1264 814,1307 740,1330 635,1322 545,1264 506,1209 452,1182 409,1178 339,1174 304,1139 269,1104 210,1104 121,1108 66,1127 47,1057 27,1018 "/>
   </g>
  </g>
 </g>
</svg>
