<?xml version="1.0" encoding="UTF-8"?>
<!DOCTYPE svg PUBLIC "-//W3C//DTD SVG 1.1//EN" "http://www.w3.org/Graphics/SVG/1.1/DTD/svg11.dtd">
<!-- Creator: CorelDRAW X8 -->
<svg xmlns="http://www.w3.org/2000/svg" xml:space="preserve" width="100%" height="100%" version="1.1" shape-rendering="geometricPrecision" text-rendering="geometricPrecision" image-rendering="optimizeQuality" fill-rule="evenodd" clip-rule="evenodd"
viewBox="0 0 1633 2384"
 xmlns:xlink="http://www.w3.org/1999/xlink">
 <g id="Layer_x0020_1">
  <metadata id="CorelCorpID_0Corel-Layer"/>
  <g id="Layers">
   <g id="India_Districts_selection">
    <polygon fill="#6EA97F" points="174,2370 195,2279 202,2223 181,2146 154,2034 112,1929 42,1866 0,1811 14,1783 126,1720 133,1664 105,1580 98,1447 126,1342 126,1300 133,1300 174,1279 216,1216 272,1167 265,986 272,825 300,678 356,615 468,622 530,566 628,426 628,357 635,189 789,147 970,42 1033,42 1082,28 1089,98 1284,98 1403,28 1452,0 1458,21 1445,133 1431,168 1452,210 1570,294 1633,343 1500,461 1431,517 1298,643 1228,664 1228,741 1193,769 1249,790 1298,832 1312,1000 1319,1223 1354,1293 1507,1391 1584,1489 1591,1629 1535,1706 1507,1797 1438,1832 1277,1915 1249,1957 1228,1999 1235,2062 1110,2188 1054,2216 998,2223 907,2111 893,2076 768,2069 698,2132 537,2132 363,2209 265,2328 237,2384 "/>
   </g>
  </g>
 </g>
</svg>
