<?xml version="1.0" encoding="UTF-8"?>
<!DOCTYPE svg PUBLIC "-//W3C//DTD SVG 1.1//EN" "http://www.w3.org/Graphics/SVG/1.1/DTD/svg11.dtd">
<!-- Creator: CorelDRAW X8 -->
<svg xmlns="http://www.w3.org/2000/svg" xml:space="preserve" width="100%" height="100%" version="1.1" shape-rendering="geometricPrecision" text-rendering="geometricPrecision" image-rendering="optimizeQuality" fill-rule="evenodd" clip-rule="evenodd"
viewBox="0 0 1462 2685"
 xmlns:xlink="http://www.w3.org/1999/xlink">
 <g id="Layer_x0020_1">
  <metadata id="CorelCorpID_0Corel-Layer"/>
  <g id="Layers">
   <g id="India_Districts_selection">
    <polygon fill="#6EA97F" points="1022,2071 998,2110 872,2173 880,2567 786,2669 621,2685 621,2630 692,2480 629,2441 558,2441 487,2567 299,2582 244,2519 102,2346 110,2275 63,2244 79,2189 31,2149 31,2079 0,2063 8,1866 31,1803 71,1795 79,1701 31,1661 71,1527 141,1441 71,1378 63,1228 134,1197 141,1047 165,1055 165,953 204,953 204,866 252,850 212,787 196,693 267,630 464,630 558,606 589,504 629,433 589,362 550,291 558,291 550,213 582,205 597,150 668,118 739,63 762,24 849,0 841,39 943,94 1100,157 1265,142 1352,213 1462,283 1454,701 1368,724 1352,756 1297,756 1203,882 1203,1000 1179,1031 1163,1110 1108,1110 1077,1150 1265,1291 1265,1401 1242,1433 1108,1441 1092,1527 1069,1606 998,1669 904,1732 912,1827 1037,1897 1053,2008 "/>
   </g>
  </g>
 </g>
</svg>
