<?xml version="1.0" encoding="UTF-8"?>
<!DOCTYPE svg PUBLIC "-//W3C//DTD SVG 1.1//EN" "http://www.w3.org/Graphics/SVG/1.1/DTD/svg11.dtd">
<!-- Creator: CorelDRAW X8 -->
<svg xmlns="http://www.w3.org/2000/svg" xml:space="preserve" width="100%" height="100%" version="1.1" shape-rendering="geometricPrecision" text-rendering="geometricPrecision" image-rendering="optimizeQuality" fill-rule="evenodd" clip-rule="evenodd"
viewBox="0 0 2396 1782"
 xmlns:xlink="http://www.w3.org/1999/xlink">
 <g id="Layer_x0020_1">
  <metadata id="CorelCorpID_0Corel-Layer"/>
  <g id="Layers">
   <g id="India_Districts_selection">
    <polygon fill="#6EA97F" points="1973,188 1962,428 2025,569 2182,742 2296,914 2349,940 2396,1045 2354,1129 2338,1181 2286,1254 2317,1327 2390,1343 2343,1463 2249,1578 2187,1656 2182,1672 1493,1661 1425,1635 1352,1541 1174,1625 1086,1661 1002,1651 924,1782 819,1745 741,1682 491,1682 480,1693 438,1604 376,1536 412,1411 454,1343 428,1196 386,1008 245,778 78,773 16,716 0,596 136,465 298,444 344,397 449,209 637,16 705,0 1002,94 1315,183 1608,272 1775,319 1905,246 "/>
   </g>
  </g>
 </g>
</svg>
