<?xml version="1.0" encoding="UTF-8"?>
<!DOCTYPE svg PUBLIC "-//W3C//DTD SVG 1.1//EN" "http://www.w3.org/Graphics/SVG/1.1/DTD/svg11.dtd">
<!-- Creator: CorelDRAW X8 -->
<svg xmlns="http://www.w3.org/2000/svg" xml:space="preserve" width="100%" height="100%" version="1.1" shape-rendering="geometricPrecision" text-rendering="geometricPrecision" image-rendering="optimizeQuality" fill-rule="evenodd" clip-rule="evenodd"
viewBox="0 0 1554 1782"
 xmlns:xlink="http://www.w3.org/1999/xlink">
 <g id="Layer_x0020_1">
  <metadata id="CorelCorpID_0Corel-Layer"/>
  <g id="Layers">
   <g id="India_Districts_selection">
    <polygon fill="#6EA97F" points="1262,522 1231,606 1205,705 1231,778 1194,799 1163,888 1163,956 1247,1050 1320,1108 1419,1202 1492,1249 1513,1332 1554,1374 1539,1489 1439,1641 1382,1755 1356,1740 1304,1761 1189,1782 1033,1761 960,1703 887,1635 735,1515 605,1447 480,1395 376,1385 313,1353 250,1270 188,1186 115,1108 37,1014 5,940 5,836 5,768 16,705 10,658 0,648 57,611 99,580 172,590 235,606 459,611 563,528 595,449 610,381 584,313 569,272 574,235 668,256 772,235 840,235 850,235 981,110 1012,120 1027,42 1095,0 1142,47 1147,94 1226,110 1200,230 1158,303 1200,355 1200,444 1252,517 "/>
   </g>
  </g>
 </g>
</svg>
