<?xml version="1.0" encoding="UTF-8"?>
<!DOCTYPE svg PUBLIC "-//W3C//DTD SVG 1.1//EN" "http://www.w3.org/Graphics/SVG/1.1/DTD/svg11.dtd">
<!-- Creator: CorelDRAW X8 -->
<svg xmlns="http://www.w3.org/2000/svg" xml:space="preserve" width="100%" height="100%" version="1.1" shape-rendering="geometricPrecision" text-rendering="geometricPrecision" image-rendering="optimizeQuality" fill-rule="evenodd" clip-rule="evenodd"
viewBox="0 0 1980 1240"
 xmlns:xlink="http://www.w3.org/1999/xlink">
 <g id="Layer_x0020_1">
  <metadata id="CorelCorpID_0Corel-Layer"/>
  <g id="Layers">
   <g id="India_Districts_selection">
    <polygon fill="#6EA97F" points="1897,509 1886,742 1828,818 1784,862 1751,931 1690,1022 1628,1069 1631,1157 1591,1237 1475,1240 1435,1168 1272,1168 1272,1219 1119,1229 1083,1189 1079,1138 905,1131 897,1109 443,1098 414,1058 342,1015 345,946 389,906 389,829 331,709 254,669 236,549 131,542 62,433 0,389 22,226 47,171 87,153 127,138 167,164 374,204 592,204 661,142 709,204 825,131 1254,131 1392,4 1541,0 1628,131 1831,36 1871,7 1977,11 1980,145 1802,338 1802,382 1831,455 1831,509 "/>
   </g>
  </g>
 </g>
</svg>
