<?xml version="1.0" encoding="UTF-8"?>
<!DOCTYPE svg PUBLIC "-//W3C//DTD SVG 1.1//EN" "http://www.w3.org/Graphics/SVG/1.1/DTD/svg11.dtd">
<!-- Creator: CorelDRAW X8 -->
<svg xmlns="http://www.w3.org/2000/svg" xml:space="preserve" width="100%" height="100%" version="1.1" shape-rendering="geometricPrecision" text-rendering="geometricPrecision" image-rendering="optimizeQuality" fill-rule="evenodd" clip-rule="evenodd"
viewBox="0 0 2338 1932"
 xmlns:xlink="http://www.w3.org/1999/xlink">
 <g id="Layer_x0020_1">
  <metadata id="CorelCorpID_0Corel-Layer"/>
  <g id="Layers">
   <g id="India_Districts_selection">
    <polygon fill="#6EA97F" points="2264,663 2281,691 2321,748 2338,788 2236,816 2202,861 2174,873 2089,850 2009,850 1964,935 1924,1031 1885,1116 1913,1184 1975,1235 1930,1366 1913,1468 1902,1507 1834,1530 1692,1536 1591,1530 1523,1598 1523,1694 1523,1813 1528,1875 1523,1921 1506,1904 1421,1915 1364,1932 1302,1915 1262,1836 1206,1689 1115,1649 1024,1655 945,1745 917,1762 860,1756 815,1734 815,1598 787,1519 758,1439 708,1422 555,1422 481,1388 396,1349 362,1269 357,1213 458,1184 594,1173 594,1122 560,1116 560,1026 430,941 396,924 396,742 340,686 170,635 57,493 0,453 68,346 153,249 215,272 272,289 357,329 447,357 481,391 600,516 747,516 821,470 906,368 906,312 923,215 996,170 1121,85 1183,68 1189,23 1404,17 1421,0 1511,6 1591,17 1681,34 1658,91 1658,136 1953,261 2055,374 2123,487 2162,584 2219,646 2258,674 "/>
   </g>
  </g>
 </g>
</svg>
