<?xml version="1.0" encoding="UTF-8"?>
<!DOCTYPE svg PUBLIC "-//W3C//DTD SVG 1.1//EN" "http://www.w3.org/Graphics/SVG/1.1/DTD/svg11.dtd">
<!-- Creator: CorelDRAW X8 -->
<svg xmlns="http://www.w3.org/2000/svg" xml:space="preserve" width="100%" height="100%" version="1.1" shape-rendering="geometricPrecision" text-rendering="geometricPrecision" image-rendering="optimizeQuality" fill-rule="evenodd" clip-rule="evenodd"
viewBox="0 0 2001 2233"
 xmlns:xlink="http://www.w3.org/1999/xlink">
 <g id="Layer_x0020_1">
  <metadata id="CorelCorpID_0Corel-Layer"/>
  <g id="Layers">
   <g id="India_Districts_selection">
    <polygon fill="#6EA97F" points="968,2227 739,2056 686,2037 680,2063 608,2069 582,2181 445,2227 275,2227 268,2148 222,2115 222,2076 131,2056 163,1984 150,1860 7,1775 0,1670 105,1598 190,1526 216,1434 229,1336 386,1323 412,1290 412,1159 196,995 229,950 294,950 307,864 333,819 340,694 445,544 510,544 530,504 628,478 641,0 1118,341 1327,498 1641,773 1824,917 1811,1002 2001,1316 1994,1552 1916,1611 1935,1749 1824,1991 1438,1997 1229,2233 "/>
   </g>
  </g>
 </g>
</svg>
