<?xml version="1.0" encoding="UTF-8"?>
<!DOCTYPE svg PUBLIC "-//W3C//DTD SVG 1.1//EN" "http://www.w3.org/Graphics/SVG/1.1/DTD/svg11.dtd">
<!-- Creator: CorelDRAW X8 -->
<svg xmlns="http://www.w3.org/2000/svg" xml:space="preserve" width="100%" height="100%" version="1.1" shape-rendering="geometricPrecision" text-rendering="geometricPrecision" image-rendering="optimizeQuality" fill-rule="evenodd" clip-rule="evenodd"
viewBox="0 0 2346 1481"
 xmlns:xlink="http://www.w3.org/1999/xlink">
 <g id="Layer_x0020_1">
  <metadata id="CorelCorpID_0Corel-Layer"/>
  <g id="Layers">
   <g id="India_Districts_selection">
    <polygon fill="#6EA97F" points="1778,295 1791,360 1852,456 1822,508 1718,634 1731,747 1770,760 1882,742 2047,760 2104,812 2212,847 2312,912 2346,999 2303,1033 2303,1111 1999,1111 1969,1151 1874,1255 1835,1316 1774,1294 1661,1307 1609,1268 1592,1246 1201,1250 1141,1316 1032,1481 872,1481 828,1446 612,1441 473,1411 386,1355 330,1307 334,1172 295,1133 321,1025 416,986 447,964 408,912 173,903 52,868 4,799 0,755 139,747 208,734 291,656 312,569 252,538 269,478 330,465 347,421 356,165 356,96 243,48 239,35 334,30 360,13 390,48 447,52 529,48 599,22 633,48 698,52 685,87 677,243 607,256 612,352 659,360 703,391 911,399 915,217 859,152 924,69 1032,17 1054,96 1093,91 1171,78 1210,0 1301,9 1323,104 1431,213 1518,204 1661,274 1770,300 "/>
   </g>
  </g>
 </g>
</svg>
