<?xml version="1.0" encoding="UTF-8"?>
<!DOCTYPE svg PUBLIC "-//W3C//DTD SVG 1.1//EN" "http://www.w3.org/Graphics/SVG/1.1/DTD/svg11.dtd">
<!-- Creator: CorelDRAW X8 -->
<svg xmlns="http://www.w3.org/2000/svg" xml:space="preserve" width="100%" height="100%" version="1.1" shape-rendering="geometricPrecision" text-rendering="geometricPrecision" image-rendering="optimizeQuality" fill-rule="evenodd" clip-rule="evenodd"
viewBox="0 0 1863 1782"
 xmlns:xlink="http://www.w3.org/1999/xlink">
 <g id="Layer_x0020_1">
  <metadata id="CorelCorpID_0Corel-Layer"/>
  <g id="Layers">
   <g id="India_Districts_selection">
    <polygon fill="#6EA97F" points="1049,1782 981,1714 955,1594 840,1599 783,1641 736,1724 710,1688 678,1604 611,1541 496,1520 376,1479 313,1369 209,1196 146,1066 130,831 78,726 26,632 0,538 5,350 136,381 209,465 308,496 376,486 433,522 480,517 501,470 511,376 522,324 585,204 668,178 772,157 866,199 976,219 1065,193 1164,89 1200,0 1289,16 1498,89 1634,225 1837,219 1853,246 1863,251 1842,308 1764,413 1696,538 1654,601 1597,700 1545,810 1493,841 1477,909 1482,982 1581,1034 1576,1196 1613,1280 1660,1327 1665,1364 1649,1385 1623,1426 1425,1432 1378,1562 1268,1667 1216,1698 1133,1729 1075,1745 "/>
   </g>
  </g>
 </g>
</svg>
