<?xml version="1.0" encoding="UTF-8"?>
<!DOCTYPE svg PUBLIC "-//W3C//DTD SVG 1.1//EN" "http://www.w3.org/Graphics/SVG/1.1/DTD/svg11.dtd">
<!-- Creator: CorelDRAW X8 -->
<svg xmlns="http://www.w3.org/2000/svg" xml:space="preserve" width="100%" height="100%" version="1.1" shape-rendering="geometricPrecision" text-rendering="geometricPrecision" image-rendering="optimizeQuality" fill-rule="evenodd" clip-rule="evenodd"
viewBox="0 0 2776 1631"
 xmlns:xlink="http://www.w3.org/1999/xlink">
 <g id="Layer_x0020_1">
  <metadata id="CorelCorpID_0Corel-Layer"/>
  <g id="Layers">
   <g id="India_Districts_selection">
    <polygon fill="#6EA97F" points="922,1626 808,1631 702,1621 578,1607 306,1483 172,1368 119,1272 53,1244 48,1167 62,1004 10,981 0,904 43,823 124,770 330,603 463,617 463,660 526,651 583,646 621,627 564,469 540,464 535,153 573,115 683,91 712,53 769,19 808,0 965,263 1128,306 1295,416 1419,411 1472,368 1653,378 1677,340 1825,325 1902,416 1945,354 2193,354 2284,407 2719,430 2757,512 2776,564 2661,804 2504,971 2403,990 2246,1158 2131,1311 2117,1397 1988,1387 1878,1301 1519,1291 1190,1287 1066,1373 917,1621 "/>
   </g>
  </g>
 </g>
</svg>
