<?xml version="1.0" encoding="UTF-8"?>
<!DOCTYPE svg PUBLIC "-//W3C//DTD SVG 1.1//EN" "http://www.w3.org/Graphics/SVG/1.1/DTD/svg11.dtd">
<!-- Creator: CorelDRAW X8 -->
<svg xmlns="http://www.w3.org/2000/svg" xml:space="preserve" width="100%" height="100%" version="1.1" shape-rendering="geometricPrecision" text-rendering="geometricPrecision" image-rendering="optimizeQuality" fill-rule="evenodd" clip-rule="evenodd"
viewBox="0 0 2679 1481"
 xmlns:xlink="http://www.w3.org/1999/xlink">
 <g id="Layer_x0020_1">
  <metadata id="CorelCorpID_0Corel-Layer"/>
  <g id="Layers">
   <g id="India_Districts_selection">
    <polygon fill="#6EA97F" points="2028,1033 2020,1029 1820,994 1703,955 1547,855 1474,899 1439,994 1253,994 1153,1072 1014,1059 815,1133 719,1203 615,1281 390,1363 256,1433 65,1481 65,1433 0,1372 0,1246 17,1181 95,1090 178,1068 251,1025 303,933 338,881 351,708 360,595 407,508 416,465 550,417 754,365 919,326 949,369 1040,313 1105,300 1218,282 1287,230 1292,161 1435,135 1560,161 1617,156 1664,113 1833,96 1942,61 1968,9 2033,0 2119,52 2384,48 2618,52 2679,48 2674,417 2635,495 2527,521 2492,630 2605,686 2561,851 2414,990 2288,1016 2028,1025 "/>
   </g>
  </g>
 </g>
</svg>
