<?xml version="1.0" encoding="UTF-8"?>
<!DOCTYPE svg PUBLIC "-//W3C//DTD SVG 1.1//EN" "http://www.w3.org/Graphics/SVG/1.1/DTD/svg11.dtd">
<!-- Creator: CorelDRAW X8 -->
<svg xmlns="http://www.w3.org/2000/svg" xml:space="preserve" width="100%" height="100%" version="1.1" shape-rendering="geometricPrecision" text-rendering="geometricPrecision" image-rendering="optimizeQuality" fill-rule="evenodd" clip-rule="evenodd"
viewBox="0 0 2384 1631"
 xmlns:xlink="http://www.w3.org/1999/xlink">
 <g id="Layer_x0020_1">
  <metadata id="CorelCorpID_0Corel-Layer"/>
  <g id="Layers">
   <g id="India_Districts_selection">
    <polygon fill="#6EA97F" points="2384,612 2365,631 2298,708 2284,789 2241,871 2246,1009 2246,1095 2198,1105 1730,1196 1605,1272 1601,1511 1534,1602 1276,1626 1185,1521 726,1555 640,1621 201,1631 196,1430 291,1186 268,1076 14,933 19,588 72,507 0,493 76,411 105,249 239,234 444,268 554,249 755,225 855,177 937,134 1099,67 1252,43 1362,0 1620,29 1825,163 2012,172 2188,277 2222,536 2327,593 "/>
   </g>
  </g>
 </g>
</svg>
