<?xml version="1.0" encoding="UTF-8"?>
<!DOCTYPE svg PUBLIC "-//W3C//DTD SVG 1.1//EN" "http://www.w3.org/Graphics/SVG/1.1/DTD/svg11.dtd">
<!-- Creator: CorelDRAW X8 -->
<svg xmlns="http://www.w3.org/2000/svg" xml:space="preserve" width="100%" height="100%" version="1.1" shape-rendering="geometricPrecision" text-rendering="geometricPrecision" image-rendering="optimizeQuality" fill-rule="evenodd" clip-rule="evenodd"
viewBox="0 0 1638 1481"
 xmlns:xlink="http://www.w3.org/1999/xlink">
 <g id="Layer_x0020_1">
  <metadata id="CorelCorpID_0Corel-Layer"/>
  <g id="Layers">
   <g id="India_Districts_selection">
    <polygon fill="#6EA97F" points="0,551 22,517 35,430 126,399 126,339 143,313 221,287 290,261 364,234 368,69 641,65 672,0 771,0 797,74 763,169 745,208 849,287 958,326 988,378 984,473 1088,473 1084,491 1435,504 1448,608 1448,742 1487,803 1578,847 1634,920 1638,994 1621,1042 1578,1142 1526,1237 1439,1346 1339,1428 1309,1415 1192,1446 1110,1481 1032,1420 962,1372 871,1298 767,1307 659,1316 524,1272 368,1207 286,1129 251,1007 217,873 152,734 87,608 "/>
   </g>
  </g>
 </g>
</svg>
