<?xml version="1.0" encoding="UTF-8"?>
<!DOCTYPE svg PUBLIC "-//W3C//DTD SVG 1.1//EN" "http://www.w3.org/Graphics/SVG/1.1/DTD/svg11.dtd">
<!-- Creator: CorelDRAW X8 -->
<svg xmlns="http://www.w3.org/2000/svg" xml:space="preserve" width="100%" height="100%" version="1.1" shape-rendering="geometricPrecision" text-rendering="geometricPrecision" image-rendering="optimizeQuality" fill-rule="evenodd" clip-rule="evenodd"
viewBox="0 0 2003 2534"
 xmlns:xlink="http://www.w3.org/1999/xlink">
 <g id="Layer_x0020_1">
  <metadata id="CorelCorpID_0Corel-Layer"/>
  <g id="Layers">
   <g id="India_Districts_selection">
    <polygon fill="#6EA97F" points="148,2192 148,2074 171,1620 67,1241 0,1063 282,1018 430,840 519,758 705,491 705,245 712,178 875,52 1016,30 1194,45 1283,0 1380,164 1395,290 1506,290 1662,565 1766,966 1833,1011 1833,1159 1862,1330 1944,1538 2003,1680 1914,1821 1766,2066 1669,2282 1261,2282 1261,2363 1239,2512 1209,2534 942,2519 668,2467 549,2438 453,2341 349,2163 245,2118 "/>
   </g>
  </g>
 </g>
</svg>
