<?xml version="1.0" encoding="UTF-8"?>
<!DOCTYPE svg PUBLIC "-//W3C//DTD SVG 1.1//EN" "http://www.w3.org/Graphics/SVG/1.1/DTD/svg11.dtd">
<!-- Creator: CorelDRAW X8 -->
<svg xmlns="http://www.w3.org/2000/svg" xml:space="preserve" width="100%" height="100%" version="1.1" shape-rendering="geometricPrecision" text-rendering="geometricPrecision" image-rendering="optimizeQuality" fill-rule="evenodd" clip-rule="evenodd"
viewBox="0 0 2391 1330"
 xmlns:xlink="http://www.w3.org/1999/xlink">
 <g id="Layer_x0020_1">
  <metadata id="CorelCorpID_0Corel-Layer"/>
  <g id="Layers">
   <g id="India_Districts_selection">
    <polygon fill="#6EA97F" points="2301,238 2340,355 2391,425 2371,620 2344,694 2340,800 2309,862 2266,897 2192,889 2180,1076 2134,1100 2095,1193 2083,1268 2067,1314 1993,1330 1822,1310 1744,1260 1530,1240 1347,1232 1265,1201 1188,1139 1071,1041 958,1061 907,1088 740,1174 701,1088 522,1037 308,944 284,811 222,632 117,445 0,230 128,98 269,0 467,20 479,62 775,47 868,86 1008,133 1059,94 1067,86 1102,183 1188,215 1320,261 1468,285 1491,222 1526,226 1546,199 1678,137 1803,55 1916,23 2025,43 2138,74 2173,195 "/>
   </g>
  </g>
 </g>
</svg>
