<?xml version="1.0" encoding="UTF-8"?>
<!DOCTYPE svg PUBLIC "-//W3C//DTD SVG 1.1//EN" "http://www.w3.org/Graphics/SVG/1.1/DTD/svg11.dtd">
<!-- Creator: CorelDRAW X8 -->
<svg xmlns="http://www.w3.org/2000/svg" xml:space="preserve" width="100%" height="100%" version="1.1" shape-rendering="geometricPrecision" text-rendering="geometricPrecision" image-rendering="optimizeQuality" fill-rule="evenodd" clip-rule="evenodd"
viewBox="0 0 2453 1481"
 xmlns:xlink="http://www.w3.org/1999/xlink">
 <g id="Layer_x0020_1">
  <metadata id="CorelCorpID_0Corel-Layer"/>
  <g id="Layers">
   <g id="India_Districts_selection">
    <polygon fill="#6EA97F" points="2193,1172 2150,1177 1981,1172 1790,1177 1729,1138 1677,1142 1660,1181 1582,1207 1461,1220 1426,1250 1387,1250 1292,1233 1192,1250 1188,1303 1136,1342 1053,1350 1006,1363 941,1407 919,1372 802,1402 654,1437 537,1481 472,1415 472,1350 546,1276 542,1207 524,1181 485,1155 546,1090 546,955 451,903 390,842 303,847 221,825 152,795 35,630 0,551 30,534 95,530 104,560 204,551 212,521 316,504 390,547 394,577 494,560 490,421 464,304 455,243 542,178 646,156 715,65 793,0 923,17 1001,30 1010,52 1001,82 1001,152 1036,187 1162,195 1231,191 1248,165 1331,169 1335,191 1456,187 1487,161 1591,152 1651,187 1725,208 1794,247 1985,247 1998,269 2098,274 2115,291 2206,291 2262,287 2254,339 2306,352 2453,421 2444,517 2262,569 2154,742 2033,873 2046,938 2197,1003 2197,1098 "/>
   </g>
  </g>
 </g>
</svg>
