<?xml version="1.0" encoding="UTF-8"?>
<!DOCTYPE svg PUBLIC "-//W3C//DTD SVG 1.1//EN" "http://www.w3.org/Graphics/SVG/1.1/DTD/svg11.dtd">
<!-- Creator: CorelDRAW X8 -->
<svg xmlns="http://www.w3.org/2000/svg" xml:space="preserve" width="100%" height="100%" version="1.1" shape-rendering="geometricPrecision" text-rendering="geometricPrecision" image-rendering="optimizeQuality" fill-rule="evenodd" clip-rule="evenodd"
viewBox="0 0 1719 1631"
 xmlns:xlink="http://www.w3.org/1999/xlink">
 <g id="Layer_x0020_1">
  <metadata id="CorelCorpID_0Corel-Layer"/>
  <g id="Layers">
   <g id="India_Districts_selection">
    <polygon fill="#6EA97F" points="1719,952 1686,995 1638,1114 1557,1277 1485,1392 1437,1574 1361,1631 1146,1631 1146,1564 855,1574 783,1593 735,1511 349,1258 201,1081 0,914 14,861 29,717 67,631 67,373 272,387 396,536 506,617 592,679 673,588 735,459 797,306 850,182 850,77 902,0 1146,10 1122,100 1227,273 1308,469 1399,679 1437,770 1557,780 1652,899 "/>
   </g>
  </g>
 </g>
</svg>
