<?xml version="1.0" encoding="UTF-8"?>
<!DOCTYPE svg PUBLIC "-//W3C//DTD SVG 1.1//EN" "http://www.w3.org/Graphics/SVG/1.1/DTD/svg11.dtd">
<!-- Creator: CorelDRAW X8 -->
<svg xmlns="http://www.w3.org/2000/svg" xml:space="preserve" width="100%" height="100%" version="1.1" shape-rendering="geometricPrecision" text-rendering="geometricPrecision" image-rendering="optimizeQuality" fill-rule="evenodd" clip-rule="evenodd"
viewBox="0 0 2486 2384"
 xmlns:xlink="http://www.w3.org/1999/xlink">
 <g id="Layer_x0020_1">
  <metadata id="CorelCorpID_0Corel-Layer"/>
  <g id="Layers">
   <g id="India_Districts_selection">
    <polygon fill="#6EA97F" points="2486,972 2444,993 2430,1021 2346,1021 2332,1056 2290,1007 2262,1007 2241,1028 2206,1014 2206,958 2172,937 2109,944 2095,993 2060,1028 2025,1063 2025,1132 1990,1174 1927,1202 1885,1244 1857,1307 1885,1342 1913,1377 1997,1391 2032,1447 2046,1496 2060,1517 2060,1657 2025,1699 2025,1873 2060,1901 2060,2020 1997,2034 1983,1992 1899,1985 1836,2020 1843,2118 1920,2132 1941,2216 1850,2223 1718,2237 1648,2251 1627,2272 1557,2293 1438,2314 1327,2321 1285,2349 1201,2349 1159,2384 1124,2377 1117,2370 1096,2349 1040,2335 1005,2307 957,2279 922,2258 859,2216 824,2167 775,2146 733,2104 677,2069 600,2041 566,2027 524,1999 426,1999 293,1992 258,1978 209,1957 202,1880 161,1859 126,1818 84,1769 42,1748 21,1713 0,1706 0,1671 7,1580 14,1594 84,1580 175,1587 216,1587 230,1559 279,1538 321,1538 328,1503 356,1496 349,1405 384,1370 384,1342 433,1314 468,1293 524,1279 580,1251 733,1272 838,1265 859,1230 880,1195 880,1125 887,1098 915,1070 922,1049 964,1007 991,993 1005,986 1012,1000 1068,1056 1131,1098 1173,1118 1201,1084 1243,1077 1278,1056 1313,1077 1334,1111 1452,1125 1473,1070 1473,1035 1431,1000 1445,944 1417,916 1348,902 1348,825 1620,818 1620,713 1585,692 1564,622 1571,566 1634,517 1697,496 1753,454 1843,412 1899,384 1934,336 1948,273 1962,252 1976,182 1941,126 1934,119 1948,77 1969,42 1990,0 2116,42 2185,35 2213,63 2241,147 2262,203 2325,217 2325,350 2318,384 2269,454 2269,489 2262,545 2325,580 2325,636 2269,636 2262,713 2262,832 2332,860 2374,895 2416,916 "/>
   </g>
  </g>
 </g>
</svg>
