<?xml version="1.0" encoding="UTF-8"?>
<!DOCTYPE svg PUBLIC "-//W3C//DTD SVG 1.1//EN" "http://www.w3.org/Graphics/SVG/1.1/DTD/svg11.dtd">
<!-- Creator: CorelDRAW X8 -->
<svg xmlns="http://www.w3.org/2000/svg" xml:space="preserve" width="100%" height="100%" version="1.1" shape-rendering="geometricPrecision" text-rendering="geometricPrecision" image-rendering="optimizeQuality" fill-rule="evenodd" clip-rule="evenodd"
viewBox="0 0 3185 1601"
 xmlns:xlink="http://www.w3.org/1999/xlink">
 <g id="Layer_x0020_1">
  <metadata id="CorelCorpID_0Corel-Layer"/>
  <g id="Layers">
   <g id="India_Districts_selection">
    <polygon fill="#6EA97F" points="3033,1567 2832,1533 2813,1601 2465,1587 2157,1405 2069,1469 2074,1547 1859,1552 1477,1347 1091,1259 885,1229 792,1327 611,1180 78,1214 24,1249 0,1097 132,1023 245,921 362,666 494,446 651,269 763,108 846,0 1106,98 1492,402 1766,446 2045,642 2152,774 2299,764 2436,832 2686,911 2813,940 2955,1053 3101,1190 3185,1317 3048,1543 "/>
   </g>
  </g>
 </g>
</svg>
