<?xml version="1.0" encoding="UTF-8"?>
<!DOCTYPE svg PUBLIC "-//W3C//DTD SVG 1.1//EN" "http://www.w3.org/Graphics/SVG/1.1/DTD/svg11.dtd">
<!-- Creator: CorelDRAW X8 -->
<svg xmlns="http://www.w3.org/2000/svg" xml:space="preserve" width="100%" height="100%" version="1.1" shape-rendering="geometricPrecision" text-rendering="geometricPrecision" image-rendering="optimizeQuality" fill-rule="evenodd" clip-rule="evenodd"
viewBox="0 0 2398 1932"
 xmlns:xlink="http://www.w3.org/1999/xlink">
 <g id="Layer_x0020_1">
  <metadata id="CorelCorpID_0Corel-Layer"/>
  <g id="Layers">
   <g id="India_Districts_selection">
    <polygon fill="#6EA97F" points="0,1150 51,1094 158,997 351,963 407,805 464,629 622,550 679,510 747,521 803,550 888,584 973,601 1041,595 1052,561 1063,470 1126,340 1256,255 1346,221 1454,170 1612,68 1691,68 1838,51 1917,0 1934,23 1991,51 2014,136 1974,215 1900,295 1793,374 1742,431 1759,652 1934,878 2161,958 2376,1082 2398,1111 2336,1269 2285,1394 2240,1439 2149,1445 2087,1513 1957,1513 1929,1479 1759,1473 1708,1626 1635,1790 1510,1819 1459,1887 1318,1904 911,1909 905,1932 894,1921 843,1847 843,1751 798,1694 837,1615 865,1485 781,1468 775,1417 724,1366 656,1411 639,1496 605,1485 464,1621 447,1621 379,1621 266,1643 170,1621 136,1575 51,1388 34,1156 "/>
   </g>
  </g>
 </g>
</svg>
