<?xml version="1.0" encoding="UTF-8"?>
<!DOCTYPE svg PUBLIC "-//W3C//DTD SVG 1.1//EN" "http://www.w3.org/Graphics/SVG/1.1/DTD/svg11.dtd">
<!-- Creator: CorelDRAW X8 -->
<svg xmlns="http://www.w3.org/2000/svg" xml:space="preserve" width="100%" height="100%" version="1.1" shape-rendering="geometricPrecision" text-rendering="geometricPrecision" image-rendering="optimizeQuality" fill-rule="evenodd" clip-rule="evenodd"
viewBox="0 0 1610 2083"
 xmlns:xlink="http://www.w3.org/1999/xlink">
 <g id="Layer_x0020_1">
  <metadata id="CorelCorpID_0Corel-Layer"/>
  <g id="Layers">
   <g id="India_Districts_selection">
    <polygon fill="#6EA97F" points="1366,1759 1354,1765 1311,1765 1250,1777 1128,1783 1012,1808 957,1838 866,1820 756,1820 695,1826 652,1863 634,1912 628,1942 585,1973 567,2028 567,2070 530,2083 451,2083 366,2077 274,2046 274,2028 299,1967 293,1869 274,1796 244,1753 244,1698 232,1667 165,1643 122,1612 61,1551 61,1490 67,1423 152,1405 219,1399 280,1374 341,1319 335,1258 329,1154 329,1081 299,1032 256,1002 207,959 183,898 122,879 73,861 37,800 12,727 0,592 6,476 30,428 49,366 73,311 73,244 110,220 134,177 122,49 293,31 598,0 719,0 847,55 1012,263 1372,501 1597,617 1610,733 1567,837 1396,941 1360,1020 1116,1099 1128,1215 1152,1570 1225,1570 1299,1594 1360,1673 "/>
   </g>
  </g>
 </g>
</svg>
