<?xml version="1.0" encoding="UTF-8"?>
<!DOCTYPE svg PUBLIC "-//W3C//DTD SVG 1.1//EN" "http://www.w3.org/Graphics/SVG/1.1/DTD/svg11.dtd">
<!-- Creator: CorelDRAW X8 -->
<svg xmlns="http://www.w3.org/2000/svg" xml:space="preserve" width="100%" height="100%" version="1.1" shape-rendering="geometricPrecision" text-rendering="geometricPrecision" image-rendering="optimizeQuality" fill-rule="evenodd" clip-rule="evenodd"
viewBox="0 0 2730 2384"
 xmlns:xlink="http://www.w3.org/1999/xlink">
 <g id="Layer_x0020_1">
  <metadata id="CorelCorpID_0Corel-Layer"/>
  <g id="Layers">
   <g id="India_Districts_selection">
    <polygon fill="#6EA97F" points="314,2069 272,2034 203,1950 140,1908 126,1832 84,1797 84,1755 42,1741 0,1699 84,1608 230,1594 258,1671 363,1664 412,1636 454,1573 447,1524 391,1454 342,1384 363,1321 377,1167 419,1167 426,1195 580,1195 622,1153 628,1091 601,1070 608,1014 670,881 719,825 782,762 852,762 964,825 1054,811 1082,762 1082,587 978,517 908,454 908,398 873,343 824,252 796,126 810,42 859,84 901,14 1040,0 1096,91 1110,154 1229,238 1257,301 1292,384 1299,433 1278,503 1264,559 1278,608 1320,615 1397,580 1432,587 1466,608 1522,601 1578,573 1620,601 1613,657 1599,727 1613,881 1648,1056 1697,1070 1913,1070 2074,1084 2172,1070 2256,1056 2297,1070 2472,1000 2535,951 2675,937 2723,916 2716,930 2730,1007 2702,1063 2661,1084 2605,1105 2549,1125 2507,1174 2430,1174 2416,1216 2381,1251 2346,1286 2332,1363 2339,1489 2297,1496 2228,1587 2060,1636 1941,1636 1927,1713 1858,1762 1585,1776 1487,1811 1425,1894 1383,2020 1341,2013 1278,1971 1257,1999 1166,1999 1110,1915 1027,1887 1006,1915 943,1985 782,1992 740,2090 803,2132 894,2125 978,2125 1013,2160 1020,2349 929,2349 915,2384 768,2300 698,2216 580,2069 314,2062 "/>
   </g>
  </g>
 </g>
</svg>
