<?xml version="1.0" encoding="UTF-8"?>
<!DOCTYPE svg PUBLIC "-//W3C//DTD SVG 1.1//EN" "http://www.w3.org/Graphics/SVG/1.1/DTD/svg11.dtd">
<!-- Creator: CorelDRAW X8 -->
<svg xmlns="http://www.w3.org/2000/svg" xml:space="preserve" width="100%" height="100%" version="1.1" shape-rendering="geometricPrecision" text-rendering="geometricPrecision" image-rendering="optimizeQuality" fill-rule="evenodd" clip-rule="evenodd"
viewBox="0 0 1870 2233"
 xmlns:xlink="http://www.w3.org/1999/xlink">
 <g id="Layer_x0020_1">
  <metadata id="CorelCorpID_0Corel-Layer"/>
  <g id="Layers">
   <g id="India_Districts_selection">
    <polygon fill="#6EA97F" points="909,138 1007,334 1111,334 1098,557 1157,622 1177,688 1340,701 1399,760 1478,838 1478,910 1517,989 1582,989 1693,1113 1726,1192 1726,1329 1759,1362 1759,1742 1798,1801 1798,1860 1863,1873 1870,2024 1850,2024 1654,2214 1190,2233 1164,2207 968,2187 941,2056 850,1984 752,1912 654,1847 641,1866 595,1834 536,1755 458,1755 431,1690 373,1552 320,1428 262,1336 248,1316 262,1271 268,1257 262,1257 262,1041 229,1022 229,989 150,884 7,733 7,504 0,498 131,485 163,419 177,255 288,229 379,223 405,183 458,79 503,52 549,39 595,92 621,138 686,157 706,98 758,0 "/>
   </g>
  </g>
 </g>
</svg>
