<?xml version="1.0" encoding="UTF-8"?>
<!DOCTYPE svg PUBLIC "-//W3C//DTD SVG 1.1//EN" "http://www.w3.org/Graphics/SVG/1.1/DTD/svg11.dtd">
<!-- Creator: CorelDRAW X8 -->
<svg xmlns="http://www.w3.org/2000/svg" xml:space="preserve" width="100%" height="100%" version="1.1" shape-rendering="geometricPrecision" text-rendering="geometricPrecision" image-rendering="optimizeQuality" fill-rule="evenodd" clip-rule="evenodd"
viewBox="0 0 1586 1782"
 xmlns:xlink="http://www.w3.org/1999/xlink">
 <g id="Layer_x0020_1">
  <metadata id="CorelCorpID_0Corel-Layer"/>
  <g id="Layers">
   <g id="India_Districts_selection">
    <polygon fill="#6EA97F" points="1430,1212 1493,1505 1545,1552 1508,1583 1440,1599 1383,1620 1357,1646 1185,1651 1143,1698 986,1724 955,1782 845,1766 830,1782 793,1755 741,1677 678,1609 647,1526 590,1484 543,1468 543,1390 480,1432 459,1458 339,1447 167,1322 125,1290 84,1285 0,1228 130,951 167,669 120,517 188,376 532,376 778,355 1065,21 1200,0 1440,246 1586,481 1503,726 "/>
   </g>
  </g>
 </g>
</svg>
