<?xml version="1.0" encoding="UTF-8"?>
<!DOCTYPE svg PUBLIC "-//W3C//DTD SVG 1.1//EN" "http://www.w3.org/Graphics/SVG/1.1/DTD/svg11.dtd">
<!-- Creator: CorelDRAW X8 -->
<svg xmlns="http://www.w3.org/2000/svg" xml:space="preserve" width="100%" height="100%" version="1.1" shape-rendering="geometricPrecision" text-rendering="geometricPrecision" image-rendering="optimizeQuality" fill-rule="evenodd" clip-rule="evenodd"
viewBox="0 0 1878 1932"
 xmlns:xlink="http://www.w3.org/1999/xlink">
 <g id="Layer_x0020_1">
  <metadata id="CorelCorpID_0Corel-Layer"/>
  <g id="Layers">
   <g id="India_Districts_selection">
    <polygon fill="#6EA97F" points="950,1932 933,1932 826,1932 566,1892 549,1841 498,1807 373,1802 328,1739 305,1694 226,1677 215,1626 175,1621 141,1581 57,1547 6,1513 0,1468 0,1371 34,1343 124,1326 147,1269 192,1269 238,1173 288,1133 294,1077 249,1048 232,969 272,907 260,793 243,584 181,538 170,436 232,374 453,91 458,91 537,85 634,68 662,28 713,0 758,40 803,62 871,68 905,102 939,221 967,346 979,448 1029,459 1080,431 1103,380 1188,357 1267,385 1301,442 1301,510 1301,589 1295,657 1346,708 1420,748 1522,782 1606,788 1680,765 1691,805 1697,963 1736,1060 1776,1116 1782,1332 1810,1388 1861,1411 1878,1411 1850,1490 1804,1592 1663,1592 1612,1592 1584,1553 1499,1570 1471,1638 1431,1739 1391,1802 1318,1807 1318,1824 1273,1847 1244,1802 1052,1807 945,1926 "/>
   </g>
  </g>
 </g>
</svg>
