<?xml version="1.0" encoding="UTF-8"?>
<!DOCTYPE svg PUBLIC "-//W3C//DTD SVG 1.1//EN" "http://www.w3.org/Graphics/SVG/1.1/DTD/svg11.dtd">
<!-- Creator: CorelDRAW X8 -->
<svg xmlns="http://www.w3.org/2000/svg" xml:space="preserve" width="100%" height="100%" version="1.1" shape-rendering="geometricPrecision" text-rendering="geometricPrecision" image-rendering="optimizeQuality" fill-rule="evenodd" clip-rule="evenodd"
viewBox="0 0 1151 2233"
 xmlns:xlink="http://www.w3.org/1999/xlink">
 <g id="Layer_x0020_1">
  <metadata id="CorelCorpID_0Corel-Layer"/>
  <g id="Layers">
   <g id="India_Districts_selection">
    <polygon fill="#6EA97F" points="896,1893 844,1893 746,1925 713,1886 641,1821 563,1788 517,1735 478,1735 445,1703 340,1709 340,1742 314,1775 307,2168 229,2181 170,2207 118,2233 52,2207 0,2161 72,2030 52,1919 118,1919 118,1853 72,1788 65,1650 92,1650 131,1598 144,1546 177,1506 183,1454 268,1454 288,1428 314,1408 366,1388 425,1356 451,1310 458,851 425,819 425,720 399,675 399,603 373,596 366,557 288,504 281,301 255,262 262,190 281,164 288,124 314,105 334,92 340,98 360,79 360,33 386,7 458,0 523,7 569,26 595,79 595,131 576,203 536,288 536,354 563,413 589,498 628,616 648,668 700,714 785,740 896,740 955,740 988,760 1040,766 1040,773 1151,930 1112,1035 1119,1087 1060,1153 1060,1343 1034,1375 1034,1447 935,1519 909,1618 896,1703 "/>
   </g>
  </g>
 </g>
</svg>
