<?xml version="1.0" encoding="UTF-8"?>
<!DOCTYPE svg PUBLIC "-//W3C//DTD SVG 1.1//EN" "http://www.w3.org/Graphics/SVG/1.1/DTD/svg11.dtd">
<!-- Creator: CorelDRAW X8 -->
<svg xmlns="http://www.w3.org/2000/svg" xml:space="preserve" width="100%" height="100%" version="1.1" shape-rendering="geometricPrecision" text-rendering="geometricPrecision" image-rendering="optimizeQuality" fill-rule="evenodd" clip-rule="evenodd"
viewBox="0 0 2478 1380"
 xmlns:xlink="http://www.w3.org/1999/xlink">
 <g id="Layer_x0020_1">
  <metadata id="CorelCorpID_0Corel-Layer"/>
  <g id="Layers">
   <g id="India_Districts_selection">
    <polygon fill="#6EA97F" points="2445,1149 2276,1177 2280,1287 2199,1380 2094,1368 2005,1295 1823,1165 1706,1198 1548,1149 1471,1020 1386,923 1132,923 1047,975 970,971 918,995 675,1003 663,971 570,967 550,1003 489,1003 489,963 461,951 404,971 303,1032 162,1076 113,1080 105,1028 24,1020 0,939 12,854 61,809 89,769 101,700 129,647 166,635 174,651 380,660 453,660 481,579 497,510 517,453 582,429 582,368 635,328 639,174 671,158 675,117 639,97 618,8 703,0 784,73 804,125 942,125 946,146 1067,154 1196,170 1285,154 1293,283 1342,312 1382,352 1536,417 1641,429 1706,308 1730,308 1774,360 1835,417 1989,425 1989,449 2142,449 2175,388 2227,401 2231,413 2292,413 2389,473 2478,587 2457,757 2401,858 2373,955 2437,1032 2441,1145 "/>
   </g>
  </g>
 </g>
</svg>
