<?xml version="1.0" encoding="UTF-8"?>
<!DOCTYPE svg PUBLIC "-//W3C//DTD SVG 1.1//EN" "http://www.w3.org/Graphics/SVG/1.1/DTD/svg11.dtd">
<!-- Creator: CorelDRAW X8 -->
<svg xmlns="http://www.w3.org/2000/svg" xml:space="preserve" width="100%" height="100%" version="1.1" shape-rendering="geometricPrecision" text-rendering="geometricPrecision" image-rendering="optimizeQuality" fill-rule="evenodd" clip-rule="evenodd"
viewBox="0 0 1658 2083"
 xmlns:xlink="http://www.w3.org/1999/xlink">
 <g id="Layer_x0020_1">
  <metadata id="CorelCorpID_0Corel-Layer"/>
  <g id="Layers">
   <g id="India_Districts_selection">
    <polygon fill="#6EA97F" points="1658,1417 1634,1417 1634,1631 1603,1710 1591,1826 1579,1869 1573,1863 1488,1838 1421,1887 1293,2040 1195,2077 1061,2083 896,2009 719,1753 591,1533 543,1411 476,1270 427,1148 427,965 384,794 329,654 226,476 171,385 43,214 6,73 0,0 219,24 262,61 293,98 451,110 469,153 506,159 512,195 780,342 896,458 982,531 982,568 1104,568 1122,666 1244,684 1347,751 1451,953 1494,1063 1506,1185 "/>
   </g>
  </g>
 </g>
</svg>
