<?xml version="1.0" encoding="UTF-8"?>
<!DOCTYPE svg PUBLIC "-//W3C//DTD SVG 1.1//EN" "http://www.w3.org/Graphics/SVG/1.1/DTD/svg11.dtd">
<!-- Creator: CorelDRAW X8 -->
<svg xmlns="http://www.w3.org/2000/svg" xml:space="preserve" width="100%" height="100%" version="1.1" shape-rendering="geometricPrecision" text-rendering="geometricPrecision" image-rendering="optimizeQuality" fill-rule="evenodd" clip-rule="evenodd"
viewBox="0 0 1490 1631"
 xmlns:xlink="http://www.w3.org/1999/xlink">
 <g id="Layer_x0020_1">
  <metadata id="CorelCorpID_0Corel-Layer"/>
  <g id="Layers">
   <g id="India_Districts_selection">
    <polygon fill="#6EA97F" points="1208,1626 1160,1626 1108,1631 1065,1593 1022,1588 912,1583 898,1574 850,1569 750,1488 616,1473 611,1454 525,1358 506,1354 406,1358 406,1301 358,1272 263,1191 224,1186 167,1148 138,1114 105,1081 119,1033 119,985 57,957 5,923 10,851 48,780 38,698 10,679 10,617 0,603 10,593 210,584 220,617 282,627 349,584 382,612 411,636 454,617 463,545 444,512 435,383 425,277 415,206 420,158 396,120 396,53 425,0 449,10 492,72 750,62 879,191 912,191 998,163 1008,153 1036,220 1136,364 1198,387 1275,407 1347,402 1399,454 1480,497 1480,617 1428,674 1461,694 1475,717 1480,780 1418,842 1418,899 1475,952 1490,947 1485,971 1452,1028 1447,1095 1442,1210 1418,1239 1389,1296 1337,1325 1289,1335 1241,1397 1227,1435 1232,1511 1270,1550 1270,1574 1246,1588 "/>
   </g>
  </g>
 </g>
</svg>
