<?xml version="1.0" encoding="UTF-8"?>
<!DOCTYPE svg PUBLIC "-//W3C//DTD SVG 1.1//EN" "http://www.w3.org/Graphics/SVG/1.1/DTD/svg11.dtd">
<!-- Creator: CorelDRAW X8 -->
<svg xmlns="http://www.w3.org/2000/svg" xml:space="preserve" width="100%" height="100%" version="1.1" shape-rendering="geometricPrecision" text-rendering="geometricPrecision" image-rendering="optimizeQuality" fill-rule="evenodd" clip-rule="evenodd"
viewBox="0 0 6027 6599"
 xmlns:xlink="http://www.w3.org/1999/xlink">
 <g id="Layer_x0020_1">
  <metadata id="CorelCorpID_0Corel-Layer"/>
  <g id="Layers">
   <g id="India_Districts_selection">
    <polygon fill="#6EA97F" points="5486,6483 4694,6444 4675,6599 4153,6560 3999,6425 3593,6405 3458,6231 3245,6173 3168,5980 2956,5980 2589,5670 2492,5264 2337,5031 2048,5186 1719,5225 1430,4993 1140,4954 773,5225 386,5128 174,4819 193,4199 328,4296 773,4180 773,3735 580,3696 386,3541 425,3309 637,2961 599,2632 174,2400 0,2361 193,1838 464,1451 889,1335 2086,1258 2376,1045 2434,716 2936,716 3670,503 3979,97 4385,0 4424,368 5061,755 5081,1142 4810,1432 4829,1742 5139,2419 5158,3212 5390,3986 5583,4180 5583,4393 6008,4915 6027,5206 5641,5728 5448,6154 "/>
   </g>
  </g>
 </g>
</svg>
