<?xml version="1.0" encoding="UTF-8"?>
<!DOCTYPE svg PUBLIC "-//W3C//DTD SVG 1.1//EN" "http://www.w3.org/Graphics/SVG/1.1/DTD/svg11.dtd">
<!-- Creator: CorelDRAW X8 -->
<svg xmlns="http://www.w3.org/2000/svg" xml:space="preserve" width="100%" height="100%" version="1.1" shape-rendering="geometricPrecision" text-rendering="geometricPrecision" image-rendering="optimizeQuality" fill-rule="evenodd" clip-rule="evenodd"
viewBox="0 0 2883 1397"
 xmlns:xlink="http://www.w3.org/1999/xlink">
 <g id="Layer_x0020_1">
  <metadata id="CorelCorpID_0Corel-Layer"/>
  <g id="Layers">
   <g id="India_Districts_selection">
    <polygon fill="#6EA97F" points="1767,208 1803,231 1887,270 2099,279 2148,355 2272,368 2445,426 2534,461 2604,519 2627,523 2613,603 2764,674 2857,696 2883,701 2830,820 2702,958 2582,998 2436,962 2308,913 2170,940 2060,975 1975,1135 1958,1202 1949,1330 1918,1392 1860,1397 1781,1348 1688,1366 1555,1321 1453,1210 1262,1166 1107,1131 1014,1086 943,1046 890,949 757,1002 616,989 518,998 518,865 474,785 319,714 124,692 120,634 0,634 0,621 217,359 332,173 571,195 695,151 815,18 797,0 1045,18 1307,262 1435,262 1479,372 1572,377 1661,257 1763,235 "/>
   </g>
  </g>
 </g>
</svg>
