<?xml version="1.0" encoding="UTF-8"?>
<!DOCTYPE svg PUBLIC "-//W3C//DTD SVG 1.1//EN" "http://www.w3.org/Graphics/SVG/1.1/DTD/svg11.dtd">
<!-- Creator: CorelDRAW X8 -->
<svg xmlns="http://www.w3.org/2000/svg" xml:space="preserve" width="100%" height="100%" version="1.1" shape-rendering="geometricPrecision" text-rendering="geometricPrecision" image-rendering="optimizeQuality" fill-rule="evenodd" clip-rule="evenodd"
viewBox="0 0 4056 2685"
 xmlns:xlink="http://www.w3.org/1999/xlink">
 <g id="Layer_x0020_1">
  <metadata id="CorelCorpID_0Corel-Layer"/>
  <g id="Layers">
   <g id="India_Districts_selection">
    <polygon fill="#6EA97F" points="1706,2189 1580,2008 1478,2016 1061,2086 762,1897 417,1929 141,1890 71,1732 0,1606 55,1551 181,1213 267,898 338,598 786,606 935,630 990,811 1234,858 1438,811 1792,724 2004,677 2264,598 2570,449 2727,378 2900,291 2955,39 3097,0 3097,8 3285,307 3961,835 4001,1024 4056,1590 3443,1441 3285,1386 2947,1583 2735,2071 2727,2590 2759,2685 2492,2590 2271,2488 2020,2323 1745,2173 "/>
   </g>
  </g>
 </g>
</svg>
