<?xml version="1.0" encoding="UTF-8"?>
<!DOCTYPE svg PUBLIC "-//W3C//DTD SVG 1.1//EN" "http://www.w3.org/Graphics/SVG/1.1/DTD/svg11.dtd">
<!-- Creator: CorelDRAW X8 -->
<svg xmlns="http://www.w3.org/2000/svg" xml:space="preserve" width="100%" height="100%" version="1.1" shape-rendering="geometricPrecision" text-rendering="geometricPrecision" image-rendering="optimizeQuality" fill-rule="evenodd" clip-rule="evenodd"
viewBox="0 0 2694 1932"
 xmlns:xlink="http://www.w3.org/1999/xlink">
 <g id="Layer_x0020_1">
  <metadata id="CorelCorpID_0Corel-Layer"/>
  <g id="Layers">
   <g id="India_Districts_selection">
    <polygon fill="#6EA97F" points="2603,1926 2247,1932 1890,1915 1834,1875 1715,1864 1636,1807 1488,1796 1449,1694 1341,1604 1205,1541 1075,1519 872,1507 781,1581 736,1638 594,1672 402,1638 317,1558 272,1377 238,1303 198,1173 147,1043 45,997 0,901 0,759 28,595 68,482 113,453 272,408 277,272 334,232 419,181 481,102 521,153 628,153 713,198 758,198 781,380 877,442 973,453 1036,363 1098,306 1172,278 1273,244 1313,255 1330,380 1387,425 1449,499 1562,493 1596,391 1647,334 1687,249 1715,181 1811,164 1890,142 1964,74 2077,0 2156,45 2202,125 2298,181 2264,238 2332,1122 2473,1298 2683,1479 2694,1672 2586,1875 "/>
   </g>
  </g>
 </g>
</svg>
