<?xml version="1.0" encoding="UTF-8"?>
<!DOCTYPE svg PUBLIC "-//W3C//DTD SVG 1.1//EN" "http://www.w3.org/Graphics/SVG/1.1/DTD/svg11.dtd">
<!-- Creator: CorelDRAW X8 -->
<svg xmlns="http://www.w3.org/2000/svg" xml:space="preserve" width="100%" height="100%" version="1.1" shape-rendering="geometricPrecision" text-rendering="geometricPrecision" image-rendering="optimizeQuality" fill-rule="evenodd" clip-rule="evenodd"
viewBox="0 0 2206 1631"
 xmlns:xlink="http://www.w3.org/1999/xlink">
 <g id="Layer_x0020_1">
  <metadata id="CorelCorpID_0Corel-Layer"/>
  <g id="Layers">
   <g id="India_Districts_selection">
    <polygon fill="#6EA97F" points="2206,110 2206,124 2158,139 2068,220 2005,254 1996,364 2072,421 2101,454 2082,674 2096,827 2005,880 1910,832 1814,761 1695,770 1614,837 1585,918 1542,1038 1428,1110 1423,1191 1456,1229 1399,1344 1409,1473 1280,1588 1093,1631 993,1588 979,1454 864,1344 745,1330 745,1129 783,1100 769,1038 368,1033 272,952 124,942 119,813 0,789 0,545 96,560 129,502 224,387 401,306 568,311 640,239 769,249 778,287 874,402 931,397 984,364 1117,234 1389,143 1628,57 1829,0 1982,124 "/>
   </g>
  </g>
 </g>
</svg>
