<?xml version="1.0" encoding="UTF-8"?>
<!DOCTYPE svg PUBLIC "-//W3C//DTD SVG 1.1//EN" "http://www.w3.org/Graphics/SVG/1.1/DTD/svg11.dtd">
<!-- Creator: CorelDRAW X8 -->
<svg xmlns="http://www.w3.org/2000/svg" xml:space="preserve" width="100%" height="100%" version="1.1" shape-rendering="geometricPrecision" text-rendering="geometricPrecision" image-rendering="optimizeQuality" fill-rule="evenodd" clip-rule="evenodd"
viewBox="0 0 3219 2083"
 xmlns:xlink="http://www.w3.org/1999/xlink">
 <g id="Layer_x0020_1">
  <metadata id="CorelCorpID_0Corel-Layer"/>
  <g id="Layers">
   <g id="India_Districts_selection">
    <polygon fill="#6EA97F" points="2506,6 2500,67 2549,110 2591,214 2573,311 2481,354 2469,525 2427,574 2323,617 2360,696 2347,873 2317,916 2329,1020 2402,1057 2731,1044 2945,1160 3085,1191 3140,1270 3140,1393 3103,1478 3061,1515 3079,1619 3042,1631 3000,1716 3048,1838 3207,1985 3219,2083 2634,2034 2219,1924 1878,1771 1494,1490 1402,1368 1286,1331 1244,1276 774,1283 524,1167 250,1002 195,879 152,721 37,354 0,159 43,153 122,153 293,159 354,116 463,122 537,147 585,128 634,86 780,92 829,49 994,37 1262,49 1664,43 1713,6 1829,0 "/>
   </g>
  </g>
 </g>
</svg>
