<?xml version="1.0" encoding="UTF-8"?>
<!DOCTYPE svg PUBLIC "-//W3C//DTD SVG 1.1//EN" "http://www.w3.org/Graphics/SVG/1.1/DTD/svg11.dtd">
<!-- Creator: CorelDRAW X8 -->
<svg xmlns="http://www.w3.org/2000/svg" xml:space="preserve" width="100%" height="100%" version="1.1" shape-rendering="geometricPrecision" text-rendering="geometricPrecision" image-rendering="optimizeQuality" fill-rule="evenodd" clip-rule="evenodd"
viewBox="0 0 2365 1330"
 xmlns:xlink="http://www.w3.org/1999/xlink">
 <g id="Layer_x0020_1">
  <metadata id="CorelCorpID_0Corel-Layer"/>
  <g id="Layers">
   <g id="India_Districts_selection">
    <polygon fill="#6EA97F" points="2365,1131 2345,1197 2268,1221 2100,1248 1983,1279 1882,1326 1578,1330 1551,1303 1516,1252 1481,1197 1181,1186 1173,1108 1110,1096 1079,1034 1013,1026 951,987 884,928 612,924 623,811 573,729 452,702 432,655 304,671 281,640 183,608 144,550 70,511 16,499 0,421 12,417 39,367 101,359 187,289 179,203 199,187 273,152 343,51 378,0 409,27 471,129 507,156 732,160 736,98 822,55 951,20 1029,31 1173,125 1332,277 1500,125 1605,70 1827,285 1897,347 1975,406 2077,433 2084,499 2186,499 2236,546 2295,573 2291,573 2271,620 2084,636 2045,663 2045,745 2077,792 2131,835 2275,936 2314,1006 2310,1104 2353,1131 "/>
   </g>
  </g>
 </g>
</svg>
