<?xml version="1.0" encoding="UTF-8"?>
<!DOCTYPE svg PUBLIC "-//W3C//DTD SVG 1.1//EN" "http://www.w3.org/Graphics/SVG/1.1/DTD/svg11.dtd">
<!-- Creator: CorelDRAW X8 -->
<svg xmlns="http://www.w3.org/2000/svg" xml:space="preserve" width="100%" height="100%" version="1.1" shape-rendering="geometricPrecision" text-rendering="geometricPrecision" image-rendering="optimizeQuality" fill-rule="evenodd" clip-rule="evenodd"
viewBox="0 0 2587 1782"
 xmlns:xlink="http://www.w3.org/1999/xlink">
 <g id="Layer_x0020_1">
  <metadata id="CorelCorpID_0Corel-Layer"/>
  <g id="Layers">
   <g id="India_Districts_selection">
    <polygon fill="#6EA97F" points="1247,1782 1163,1682 1137,1536 871,1536 709,1442 454,1202 282,878 10,622 0,517 250,381 532,193 569,0 589,26 725,125 1001,167 1210,125 1304,89 1445,167 1518,313 1643,428 1789,475 1925,559 2107,711 2222,831 2305,867 2399,862 2514,909 2550,993 2587,1129 2582,1134 2441,1207 2222,1353 2034,1437 1930,1515 1925,1557 1820,1546 1513,1578 1299,1682 "/>
   </g>
  </g>
 </g>
</svg>
