<?xml version="1.0" encoding="UTF-8"?>
<!DOCTYPE svg PUBLIC "-//W3C//DTD SVG 1.1//EN" "http://www.w3.org/Graphics/SVG/1.1/DTD/svg11.dtd">
<!-- Creator: CorelDRAW X8 -->
<svg xmlns="http://www.w3.org/2000/svg" xml:space="preserve" width="100%" height="100%" version="1.1" shape-rendering="geometricPrecision" text-rendering="geometricPrecision" image-rendering="optimizeQuality" fill-rule="evenodd" clip-rule="evenodd"
viewBox="0 0 1865 2233"
 xmlns:xlink="http://www.w3.org/1999/xlink">
 <g id="Layer_x0020_1">
  <metadata id="CorelCorpID_0Corel-Layer"/>
  <g id="Layers">
   <g id="India_Districts_selection">
    <polygon fill="#6EA97F" points="1694,138 1688,498 1570,596 1564,747 1740,812 1812,910 1865,963 1851,1231 1740,1277 1721,1395 1799,1428 1806,1532 1701,1559 1688,1683 1505,1899 1354,2142 1269,2207 1210,2233 1125,2030 1093,1945 805,1925 635,1860 517,1755 399,1749 294,1650 170,1578 118,1434 59,1329 0,1238 26,1212 164,1067 236,969 386,969 432,923 536,806 654,583 909,262 1079,20 1165,0 1295,20 1446,111 1537,164 1649,157 "/>
   </g>
  </g>
 </g>
</svg>
