<?xml version="1.0" encoding="UTF-8"?>
<!DOCTYPE svg PUBLIC "-//W3C//DTD SVG 1.1//EN" "http://www.w3.org/Graphics/SVG/1.1/DTD/svg11.dtd">
<!-- Creator: CorelDRAW X8 -->
<svg xmlns="http://www.w3.org/2000/svg" xml:space="preserve" width="100%" height="100%" version="1.1" shape-rendering="geometricPrecision" text-rendering="geometricPrecision" image-rendering="optimizeQuality" fill-rule="evenodd" clip-rule="evenodd"
viewBox="0 0 2718 3136"
 xmlns:xlink="http://www.w3.org/1999/xlink">
 <g id="Layer_x0020_1">
  <metadata id="CorelCorpID_0Corel-Layer"/>
  <g id="Layers">
   <g id="India_Districts_selection">
    <polygon fill="#6EA97F" points="1662,3127 1616,3100 1625,3017 1579,2943 1432,2824 1368,2769 1386,2759 1423,2667 1432,2373 1313,2253 1322,2079 1083,1922 836,1812 643,1766 514,1665 285,1665 285,1610 110,1610 28,1564 0,1462 37,1407 248,1315 376,1196 376,727 441,616 404,441 275,359 367,267 533,129 679,0 1065,9 1065,55 1341,83 1487,202 1579,230 1699,276 1717,414 1873,506 1873,773 1947,828 2066,828 2093,1095 2093,1297 2222,1315 2222,1426 2314,1490 2424,1637 2461,1729 2461,1858 2690,1867 2718,2143 2663,2171 2672,2437 2617,2465 2626,2759 2553,2851 2378,2879 2387,2971 2314,3008 1919,3017 1910,3136 1781,3063 1644,3100 "/>
   </g>
  </g>
 </g>
</svg>
