<?xml version="1.0" encoding="UTF-8"?>
<!DOCTYPE svg PUBLIC "-//W3C//DTD SVG 1.1//EN" "http://www.w3.org/Graphics/SVG/1.1/DTD/svg11.dtd">
<!-- Creator: CorelDRAW X8 -->
<svg xmlns="http://www.w3.org/2000/svg" xml:space="preserve" width="100%" height="100%" version="1.1" shape-rendering="geometricPrecision" text-rendering="geometricPrecision" image-rendering="optimizeQuality" fill-rule="evenodd" clip-rule="evenodd"
viewBox="0 0 8321 5997"
 xmlns:xlink="http://www.w3.org/1999/xlink">
 <g id="Layer_x0020_1">
  <metadata id="CorelCorpID_0Corel-Layer"/>
  <g id="Layers">
   <g id="India_Districts_selection">
    <polygon fill="#6EA97F" points="8321,299 8321,668 8304,1653 8321,1829 8128,1846 8146,2655 7952,2638 7900,4537 7917,4942 7882,4871 6478,4889 6460,5311 6741,5539 6197,5557 5951,5786 5495,5698 5442,5997 4915,5944 4722,5557 4301,5328 2774,5328 1545,5346 1492,5539 1282,5592 1264,5557 720,5416 140,4256 0,3500 808,3289 1229,2831 1387,2251 1562,1917 1510,1161 1001,809 966,492 1018,0 2809,668 4863,879 5776,563 7742,615 8268,334 "/>
   </g>
  </g>
 </g>
</svg>
