<?xml version="1.0" encoding="UTF-8"?>
<!DOCTYPE svg PUBLIC "-//W3C//DTD SVG 1.1//EN" "http://www.w3.org/Graphics/SVG/1.1/DTD/svg11.dtd">
<!-- Creator: CorelDRAW X8 -->
<svg xmlns="http://www.w3.org/2000/svg" xml:space="preserve" width="100%" height="100%" version="1.1" shape-rendering="geometricPrecision" text-rendering="geometricPrecision" image-rendering="optimizeQuality" fill-rule="evenodd" clip-rule="evenodd"
viewBox="0 0 2466 1932"
 xmlns:xlink="http://www.w3.org/1999/xlink">
 <g id="Layer_x0020_1">
  <metadata id="CorelCorpID_0Corel-Layer"/>
  <g id="Layers">
   <g id="India_Districts_selection">
    <polygon fill="#6EA97F" points="2415,312 2381,391 2393,521 2466,572 2449,714 2376,771 2223,822 2166,890 2087,986 1912,1060 1753,1241 1714,1349 1686,1411 1646,1519 1657,1536 1572,1592 1499,1666 1290,1672 1188,1706 1137,1739 1120,1836 1126,1909 1029,1909 865,1864 730,1858 503,1921 436,1932 339,1734 11,1728 11,1632 17,1587 57,1502 102,1411 34,1320 0,1241 17,1162 130,1105 187,1122 300,1077 351,997 243,890 238,861 238,856 266,731 345,504 436,351 554,283 673,181 786,79 826,45 1046,6 1165,85 1227,153 1380,181 1555,147 1731,62 1850,6 2025,0 2206,57 2308,176 2376,306 "/>
   </g>
  </g>
 </g>
</svg>
