<?xml version="1.0" encoding="UTF-8"?>
<!DOCTYPE svg PUBLIC "-//W3C//DTD SVG 1.1//EN" "http://www.w3.org/Graphics/SVG/1.1/DTD/svg11.dtd">
<!-- Creator: CorelDRAW X8 -->
<svg xmlns="http://www.w3.org/2000/svg" xml:space="preserve" width="100%" height="100%" version="1.1" shape-rendering="geometricPrecision" text-rendering="geometricPrecision" image-rendering="optimizeQuality" fill-rule="evenodd" clip-rule="evenodd"
viewBox="0 0 2947 2083"
 xmlns:xlink="http://www.w3.org/1999/xlink">
 <g id="Layer_x0020_1">
  <metadata id="CorelCorpID_0Corel-Layer"/>
  <g id="Layers">
   <g id="India_Districts_selection">
    <polygon fill="#6EA97F" points="2514,550 2501,580 2605,611 2654,647 2855,660 2886,702 2886,861 2837,898 2788,953 2782,1069 2758,1148 2892,1203 2922,1252 2947,1325 2898,1393 2880,1527 2782,1625 2617,1844 2587,1961 2544,2003 2343,2009 2264,2083 2209,2070 2105,2009 2074,1759 1904,1661 1727,1649 1525,1521 1275,1496 1171,1533 1025,1557 866,1619 787,1661 689,1710 494,1735 390,1753 189,1716 67,1735 61,1741 37,1680 18,1441 0,1276 43,1063 73,971 262,867 580,708 757,666 1049,641 1092,690 1208,721 1391,666 1531,617 1586,495 1660,415 1727,311 1727,226 1653,140 1745,92 1812,0 1952,43 1965,98 2099,116 2154,171 2190,287 2221,544 2300,599 2434,586 "/>
   </g>
  </g>
 </g>
</svg>
