<?xml version="1.0" encoding="UTF-8"?>
<!DOCTYPE svg PUBLIC "-//W3C//DTD SVG 1.1//EN" "http://www.w3.org/Graphics/SVG/1.1/DTD/svg11.dtd">
<!-- Creator: CorelDRAW X8 -->
<svg xmlns="http://www.w3.org/2000/svg" xml:space="preserve" width="100%" height="100%" version="1.1" shape-rendering="geometricPrecision" text-rendering="geometricPrecision" image-rendering="optimizeQuality" fill-rule="evenodd" clip-rule="evenodd"
viewBox="0 0 1598 3136"
 xmlns:xlink="http://www.w3.org/1999/xlink">
 <g id="Layer_x0020_1">
  <metadata id="CorelCorpID_0Corel-Layer"/>
  <g id="Layers">
   <g id="India_Districts_selection">
    <polygon fill="#6EA97F" points="1561,83 1598,267 1432,441 1386,598 1396,1536 1396,2557 1157,2787 1074,2897 1056,2879 808,2907 679,2980 551,3072 468,3136 459,3127 331,3072 202,3017 138,2934 129,2842 147,2769 257,2640 303,2428 266,2171 193,2060 37,1941 0,1932 110,1214 46,304 138,9 312,0 560,304 799,248 845,64 1322,83 "/>
   </g>
  </g>
 </g>
</svg>
