<?xml version="1.0" encoding="UTF-8"?>
<!DOCTYPE svg PUBLIC "-//W3C//DTD SVG 1.1//EN" "http://www.w3.org/Graphics/SVG/1.1/DTD/svg11.dtd">
<!-- Creator: CorelDRAW X8 -->
<svg xmlns="http://www.w3.org/2000/svg" xml:space="preserve" width="100%" height="100%" version="1.1" shape-rendering="geometricPrecision" text-rendering="geometricPrecision" image-rendering="optimizeQuality" fill-rule="evenodd" clip-rule="evenodd"
viewBox="0 0 3142 1782"
 xmlns:xlink="http://www.w3.org/1999/xlink">
 <g id="Layer_x0020_1">
  <metadata id="CorelCorpID_0Corel-Layer"/>
  <g id="Layers">
   <g id="India_Districts_selection">
    <polygon fill="#6EA97F" points="16,1782 0,1567 5,1191 344,1108 428,658 840,585 872,622 913,601 976,674 1279,653 1320,601 1352,517 1378,481 1529,486 1529,413 1586,402 1613,361 1712,324 1915,329 1915,361 1999,402 2124,402 2134,371 2160,361 2187,209 2213,162 2630,162 2677,78 2714,68 2771,89 2787,157 2849,120 2886,89 2964,21 3042,0 3063,42 3121,167 3142,178 3142,324 3110,361 3105,428 3058,455 2980,507 2980,575 2938,617 2891,679 2860,711 2813,778 2766,820 2719,873 2672,909 2620,893 2552,893 2484,873 2427,893 2364,914 2234,899 2134,935 2046,940 2014,987 1962,1029 1931,1113 1957,1139 1947,1212 1931,1301 1905,1358 1847,1400 1853,1473 1738,1484 1738,1515 1602,1526 1576,1546 1513,1573 1477,1594 1430,1625 1409,1661 1372,1714 1331,1766 1299,1724 1273,1661 1247,1599 1221,1557 1195,1505 1127,1479 1106,1437 1059,1426 1018,1379 971,1358 918,1322 746,1322 736,1348 694,1374 658,1400 605,1458 543,1468 485,1505 355,1557 282,1630 125,1708 37,1776 "/>
   </g>
  </g>
 </g>
</svg>
