<?xml version="1.0" encoding="UTF-8"?>
<!DOCTYPE svg PUBLIC "-//W3C//DTD SVG 1.1//EN" "http://www.w3.org/Graphics/SVG/1.1/DTD/svg11.dtd">
<!-- Creator: CorelDRAW X8 -->
<svg xmlns="http://www.w3.org/2000/svg" xml:space="preserve" width="100%" height="100%" version="1.1" shape-rendering="geometricPrecision" text-rendering="geometricPrecision" image-rendering="optimizeQuality" fill-rule="evenodd" clip-rule="evenodd"
viewBox="0 0 4596 7201"
 xmlns:xlink="http://www.w3.org/1999/xlink">
 <g id="Layer_x0020_1">
  <metadata id="CorelCorpID_0Corel-Layer"/>
  <g id="Layers">
   <g id="India_Districts_selection">
    <polygon fill="#6EA97F" points="2740,6567 2719,6251 2466,6251 2277,5997 2066,5807 1876,5786 1876,6145 1539,6462 1518,6969 1159,7180 906,7201 843,7095 864,6800 632,6800 590,6631 316,6483 0,6208 422,5892 527,5765 506,5533 590,5300 654,5110 1096,5110 1054,4836 1223,4625 1159,4477 991,4245 780,4308 696,4076 632,3822 401,3696 422,3653 379,3315 232,3083 190,2872 190,2661 590,2365 611,2133 780,1901 970,1943 1012,2048 1328,2006 1750,1732 2108,1668 2382,1394 2382,1288 2235,1161 2150,993 2256,802 2593,781 2656,866 2888,866 2867,465 2867,232 3078,148 3204,253 3331,507 3394,486 3584,232 3858,0 4026,0 4237,296 4385,866 4532,866 4532,1183 4490,1415 4574,1436 4596,2069 4090,2112 3520,2471 3267,2809 3626,2978 3626,3358 3858,3337 3689,3674 3605,3759 3605,4392 3837,4540 3984,4688 3984,5195 3668,5322 3584,5638 3816,5955 2972,6441 "/>
   </g>
  </g>
 </g>
</svg>
