<?xml version="1.0" encoding="UTF-8"?>
<!DOCTYPE svg PUBLIC "-//W3C//DTD SVG 1.1//EN" "http://www.w3.org/Graphics/SVG/1.1/DTD/svg11.dtd">
<!-- Creator: CorelDRAW X8 -->
<svg xmlns="http://www.w3.org/2000/svg" xml:space="preserve" width="100%" height="100%" version="1.1" shape-rendering="geometricPrecision" text-rendering="geometricPrecision" image-rendering="optimizeQuality" fill-rule="evenodd" clip-rule="evenodd"
viewBox="0 0 2475 2083"
 xmlns:xlink="http://www.w3.org/1999/xlink">
 <g id="Layer_x0020_1">
  <metadata id="CorelCorpID_0Corel-Layer"/>
  <g id="Layers">
   <g id="India_Districts_selection">
    <polygon fill="#6EA97F" points="2433,922 2463,983 2475,1087 2396,1142 2360,1252 2353,1484 2250,1655 2073,1759 1963,1826 1732,1808 1671,1863 1317,1857 1116,1765 1012,1710 878,1710 811,1771 622,1881 537,1954 372,2028 244,2083 238,2046 24,1985 0,1838 55,1728 146,1460 134,1319 85,1215 91,1069 116,892 201,818 439,1026 652,941 652,654 579,629 317,611 299,507 348,318 445,299 646,403 902,397 1030,202 1024,92 1195,6 1500,0 1475,183 1524,311 1695,403 1719,458 1695,519 1591,537 1469,507 1378,470 1146,470 1225,672 1244,855 1390,953 1908,941 1927,1002 2396,977 "/>
   </g>
  </g>
 </g>
</svg>
