<?xml version="1.0" encoding="UTF-8"?>
<!DOCTYPE svg PUBLIC "-//W3C//DTD SVG 1.1//EN" "http://www.w3.org/Graphics/SVG/1.1/DTD/svg11.dtd">
<!-- Creator: CorelDRAW X8 -->
<svg xmlns="http://www.w3.org/2000/svg" xml:space="preserve" width="100%" height="100%" version="1.1" shape-rendering="geometricPrecision" text-rendering="geometricPrecision" image-rendering="optimizeQuality" fill-rule="evenodd" clip-rule="evenodd"
viewBox="0 0 2022 3287"
 xmlns:xlink="http://www.w3.org/1999/xlink">
 <g id="Layer_x0020_1">
  <metadata id="CorelCorpID_0Corel-Layer"/>
  <g id="Layers">
   <g id="India_Districts_selection">
    <polygon fill="#6EA97F" points="0,559 106,472 183,366 327,366 481,472 578,569 635,569 635,762 722,829 741,1031 915,1041 915,935 1011,839 1011,752 1107,617 1155,569 1194,762 1261,935 1454,925 1512,848 1512,713 1386,569 1377,106 1435,39 1579,58 1579,96 1723,87 1743,29 1954,0 2022,405 1974,762 1993,1041 1858,1080 1762,1205 1666,1012 1531,1022 1521,1195 1386,1311 1358,1494 1454,1658 1444,1706 1175,1706 1165,1764 1165,2111 1194,2159 1136,2227 1165,2738 1040,2670 876,2680 790,2853 635,3287 395,3239 481,2275 385,1725 193,877 "/>
   </g>
  </g>
 </g>
</svg>
