<?xml version="1.0" encoding="UTF-8"?>
<!DOCTYPE svg PUBLIC "-//W3C//DTD SVG 1.1//EN" "http://www.w3.org/Graphics/SVG/1.1/DTD/svg11.dtd">
<!-- Creator: CorelDRAW X8 -->
<svg xmlns="http://www.w3.org/2000/svg" xml:space="preserve" width="100%" height="100%" version="1.1" shape-rendering="geometricPrecision" text-rendering="geometricPrecision" image-rendering="optimizeQuality" fill-rule="evenodd" clip-rule="evenodd"
viewBox="0 0 2132 1481"
 xmlns:xlink="http://www.w3.org/1999/xlink">
 <g id="Layer_x0020_1">
  <metadata id="CorelCorpID_0Corel-Layer"/>
  <g id="Layers">
   <g id="India_Districts_selection">
    <polygon fill="#6EA97F" points="2098,1029 2089,1025 2089,1064 2102,1107 2132,1185 2115,1263 2080,1346 1968,1437 1721,1433 1651,1411 1569,1402 1526,1437 1461,1481 1430,1454 1374,1459 1300,1459 1270,1402 1188,1350 1062,1276 971,1211 949,1155 932,1072 854,1029 767,1038 719,1068 663,1046 663,981 615,920 524,894 416,903 230,907 191,920 165,821 0,252 9,69 104,78 199,135 299,247 420,278 429,421 628,469 776,538 789,573 845,452 893,360 949,326 1014,308 1114,200 1214,52 1361,22 1456,0 1560,13 1656,148 1721,252 1829,261 1881,308 1846,391 1851,534 1959,551 1976,790 2063,981 "/>
   </g>
  </g>
 </g>
</svg>
