<?xml version="1.0" encoding="UTF-8"?>
<!DOCTYPE svg PUBLIC "-//W3C//DTD SVG 1.1//EN" "http://www.w3.org/Graphics/SVG/1.1/DTD/svg11.dtd">
<!-- Creator: CorelDRAW X8 -->
<svg xmlns="http://www.w3.org/2000/svg" xml:space="preserve" width="100%" height="100%" version="1.1" shape-rendering="geometricPrecision" text-rendering="geometricPrecision" image-rendering="optimizeQuality" fill-rule="evenodd" clip-rule="evenodd"
viewBox="0 0 2288 2233"
 xmlns:xlink="http://www.w3.org/1999/xlink">
 <g id="Layer_x0020_1">
  <metadata id="CorelCorpID_0Corel-Layer"/>
  <g id="Layers">
   <g id="India_Districts_selection">
    <polygon fill="#6EA97F" points="2236,491 2269,544 2288,1074 2197,1310 2092,1467 2053,1637 2046,1866 1961,2050 1929,2069 1922,2089 1850,2056 1759,2194 1510,2220 1223,2233 981,2089 667,1965 562,1775 431,1605 157,1336 0,1192 26,1198 118,956 170,799 275,616 72,354 20,229 307,85 399,33 595,0 798,170 928,282 1072,334 1393,347 1765,380 1896,465 2197,498 "/>
   </g>
  </g>
 </g>
</svg>
