<?xml version="1.0" encoding="UTF-8"?>
<!DOCTYPE svg PUBLIC "-//W3C//DTD SVG 1.1//EN" "http://www.w3.org/Graphics/SVG/1.1/DTD/svg11.dtd">
<!-- Creator: CorelDRAW X8 -->
<svg xmlns="http://www.w3.org/2000/svg" xml:space="preserve" width="100%" height="100%" version="1.1" shape-rendering="geometricPrecision" text-rendering="geometricPrecision" image-rendering="optimizeQuality" fill-rule="evenodd" clip-rule="evenodd"
viewBox="0 0 2215 2083"
 xmlns:xlink="http://www.w3.org/1999/xlink">
 <g id="Layer_x0020_1">
  <metadata id="CorelCorpID_0Corel-Layer"/>
  <g id="Layers">
   <g id="India_Districts_selection">
    <polygon fill="#6EA97F" points="2215,788 2074,837 2032,922 1977,934 1971,977 1928,1020 1867,1057 1861,1124 1830,1234 1708,1325 1599,1435 1458,1588 1397,1649 1239,1747 1135,1802 885,1820 708,1912 659,1985 445,1973 451,2028 329,2083 165,2077 165,1832 92,1686 0,1637 0,1447 37,1368 140,1344 262,1295 275,1203 378,1191 378,1105 354,1008 537,1008 702,745 744,672 750,556 909,440 994,318 1056,232 1123,226 1123,116 1275,116 1361,31 1605,0 1891,330 1910,379 2044,385 2074,458 2166,550 2203,788 "/>
   </g>
  </g>
 </g>
</svg>
