<?xml version="1.0" encoding="UTF-8"?>
<!DOCTYPE svg PUBLIC "-//W3C//DTD SVG 1.1//EN" "http://www.w3.org/Graphics/SVG/1.1/DTD/svg11.dtd">
<!-- Creator: CorelDRAW X8 -->
<svg xmlns="http://www.w3.org/2000/svg" xml:space="preserve" width="100%" height="100%" version="1.1" shape-rendering="geometricPrecision" text-rendering="geometricPrecision" image-rendering="optimizeQuality" fill-rule="evenodd" clip-rule="evenodd"
viewBox="0 0 3652 2835"
 xmlns:xlink="http://www.w3.org/1999/xlink">
 <g id="Layer_x0020_1">
  <metadata id="CorelCorpID_0Corel-Layer"/>
  <g id="Layers">
   <g id="India_Districts_selection">
    <polygon fill="#6EA97F" points="2241,200 2216,249 2407,407 2673,574 2781,524 2764,798 2822,973 2947,1197 3096,1339 3353,1497 3528,1547 3636,1671 3652,1663 3644,1729 3644,2012 3428,2328 3328,2420 3154,2627 2747,2694 2581,2711 2324,2835 2083,2785 1851,2677 1386,2494 1162,2287 1187,2278 1228,2162 1345,2070 1444,1962 1295,1871 1121,1754 963,1646 739,1605 656,1497 490,1422 349,1405 274,1256 100,1189 0,1048 8,948 191,948 448,765 564,640 722,482 872,516 1054,649 1096,640 1204,649 1270,516 1278,225 1386,166 1519,116 1702,0 1859,108 2067,166 2100,166 "/>
   </g>
  </g>
 </g>
</svg>
