<?xml version="1.0" encoding="UTF-8"?>
<!DOCTYPE svg PUBLIC "-//W3C//DTD SVG 1.1//EN" "http://www.w3.org/Graphics/SVG/1.1/DTD/svg11.dtd">
<!-- Creator: CorelDRAW X8 -->
<svg xmlns="http://www.w3.org/2000/svg" xml:space="preserve" width="100%" height="100%" version="1.1" shape-rendering="geometricPrecision" text-rendering="geometricPrecision" image-rendering="optimizeQuality" fill-rule="evenodd" clip-rule="evenodd"
viewBox="0 0 2531 2685"
 xmlns:xlink="http://www.w3.org/1999/xlink">
 <g id="Layer_x0020_1">
  <metadata id="CorelCorpID_0Corel-Layer"/>
  <g id="Layers">
   <g id="India_Districts_selection">
    <polygon fill="#6EA97F" points="2531,39 2531,102 2460,236 2358,496 2311,551 2311,598 2358,606 2358,1630 2122,1653 2051,1559 1831,1575 1823,1606 1745,1614 1745,1661 1713,1716 1713,1819 1666,1921 1509,2094 1470,2354 1407,2449 1399,2614 1383,2614 1265,2630 1250,2685 1155,2590 1030,2480 872,2496 810,2535 692,2527 644,2480 652,2386 550,2386 534,2110 589,2047 605,1929 668,1858 755,1835 794,1764 935,1630 943,1559 739,1575 723,1598 637,1598 574,1559 385,1480 196,1394 126,1425 71,1425 8,1425 0,1370 0,1331 86,1268 196,1189 275,1134 511,1150 495,1189 755,1165 849,1134 865,1000 990,984 1069,1181 1195,1205 1265,1142 1399,1079 1407,835 1438,748 1525,748 1556,716 1627,701 1682,661 1682,402 1713,394 1863,252 1973,181 1965,39 2067,39 2067,16 2421,0 2468,55 "/>
   </g>
  </g>
 </g>
</svg>
