<?xml version="1.0" encoding="UTF-8"?>
<!DOCTYPE svg PUBLIC "-//W3C//DTD SVG 1.1//EN" "http://www.w3.org/Graphics/SVG/1.1/DTD/svg11.dtd">
<!-- Creator: CorelDRAW X8 -->
<svg xmlns="http://www.w3.org/2000/svg" xml:space="preserve" width="100%" height="100%" version="1.1" shape-rendering="geometricPrecision" text-rendering="geometricPrecision" image-rendering="optimizeQuality" fill-rule="evenodd" clip-rule="evenodd"
viewBox="0 0 2378 1782"
 xmlns:xlink="http://www.w3.org/1999/xlink">
 <g id="Layer_x0020_1">
  <metadata id="CorelCorpID_0Corel-Layer"/>
  <g id="Layers">
   <g id="India_Districts_selection">
    <polygon fill="#6EA97F" points="1737,1782 1737,1750 1711,1703 1674,1682 1622,1651 1627,1599 1549,1578 1486,1557 1455,1557 1434,1588 1408,1599 1330,1599 1335,1546 1309,1489 1293,1494 1241,1479 1215,1458 1184,1421 1127,1421 1038,1416 1001,1411 960,1411 913,1385 897,1358 892,1327 855,1290 824,1223 814,1176 793,1155 824,1123 866,1118 960,1118 1017,1097 1043,1082 1048,1055 1043,956 1027,888 1022,841 1012,773 1001,674 986,632 939,611 866,585 845,549 819,538 782,491 735,470 709,455 704,408 688,434 668,491 652,522 605,533 553,538 527,559 516,596 511,637 480,653 459,684 417,711 381,726 381,758 339,768 271,768 224,758 198,768 183,721 172,611 167,564 120,512 78,460 68,397 47,324 16,324 0,282 16,272 47,230 73,225 162,219 224,209 224,178 245,162 276,136 287,125 334,78 370,31 396,42 407,37 407,57 464,73 522,63 563,63 579,21 589,0 636,16 688,63 772,73 814,84 881,136 954,162 1012,167 1059,183 1132,178 1205,204 1236,214 1273,230 1273,251 1335,266 1429,266 1486,272 1507,287 1492,282 1497,319 1523,340 1528,381 1497,402 1497,439 1476,465 1476,559 1507,596 1523,664 1528,726 1549,758 1554,883 1554,940 1570,982 1627,1040 1669,1050 1737,1071 1789,1097 1893,1102 1992,1108 2065,1102 2107,1134 2138,1186 2191,1212 2232,1270 2253,1311 2274,1369 2316,1379 2378,1379 2368,1447 2305,1494 2290,1583 2284,1661 2243,1667 2222,1620 2138,1609 1998,1588 1914,1656 1841,1755 "/>
   </g>
  </g>
 </g>
</svg>
