<?xml version="1.0" encoding="UTF-8"?>
<!DOCTYPE svg PUBLIC "-//W3C//DTD SVG 1.1//EN" "http://www.w3.org/Graphics/SVG/1.1/DTD/svg11.dtd">
<!-- Creator: CorelDRAW X8 -->
<svg xmlns="http://www.w3.org/2000/svg" xml:space="preserve" width="100%" height="100%" version="1.1" shape-rendering="geometricPrecision" text-rendering="geometricPrecision" image-rendering="optimizeQuality" fill-rule="evenodd" clip-rule="evenodd"
viewBox="0 0 2923 2534"
 xmlns:xlink="http://www.w3.org/1999/xlink">
 <g id="Layer_x0020_1">
  <metadata id="CorelCorpID_0Corel-Layer"/>
  <g id="Layers">
   <g id="India_Districts_selection">
    <polygon fill="#6EA97F" points="1617,446 1528,513 1454,580 1365,580 1306,721 1232,795 1321,922 1380,1048 1432,1115 1521,1159 1610,1167 1640,1256 1855,1271 2048,1159 2226,1152 2574,1122 2634,1308 2752,1494 2834,1724 2923,1836 2849,1962 2671,2051 2552,2118 2315,2140 2114,2207 2018,2252 2018,2334 1855,2512 1818,2534 1758,2445 1573,2222 1335,2215 1165,2252 1172,2334 964,2490 772,2482 616,2423 542,2363 549,2356 564,2304 519,2170 401,2044 282,1910 171,1910 185,1851 267,1709 378,1709 549,1635 594,1553 556,1509 430,1501 334,1420 245,1182 141,988 15,832 7,609 45,617 52,424 0,275 37,186 67,0 119,15 156,45 237,238 334,416 371,528 438,513 467,476 415,379 371,297 371,238 423,186 482,156 556,149 556,156 660,260 927,282 1373,312 "/>
   </g>
  </g>
 </g>
</svg>
