<?xml version="1.0" encoding="UTF-8"?>
<!DOCTYPE svg PUBLIC "-//W3C//DTD SVG 1.1//EN" "http://www.w3.org/Graphics/SVG/1.1/DTD/svg11.dtd">
<!-- Creator: CorelDRAW X8 -->
<svg xmlns="http://www.w3.org/2000/svg" xml:space="preserve" width="100%" height="100%" version="1.1" shape-rendering="geometricPrecision" text-rendering="geometricPrecision" image-rendering="optimizeQuality" fill-rule="evenodd" clip-rule="evenodd"
viewBox="0 0 2087 1782"
 xmlns:xlink="http://www.w3.org/1999/xlink">
 <g id="Layer_x0020_1">
  <metadata id="CorelCorpID_0Corel-Layer"/>
  <g id="Layers">
   <g id="India_Districts_selection">
    <polygon fill="#6EA97F" points="1054,1766 898,1755 877,1782 605,1776 579,1735 527,1719 527,1651 506,1588 485,1499 454,1473 459,1421 350,1270 360,1207 313,1191 303,1113 464,1003 558,946 543,883 527,841 496,789 391,690 313,690 313,716 235,711 209,737 89,731 89,784 42,836 0,784 5,564 47,522 10,455 47,413 104,408 130,329 141,251 282,136 407,104 506,84 584,21 600,0 605,16 872,178 1122,355 1331,324 1414,287 1701,277 1769,199 1941,89 1999,104 2014,146 1988,209 1988,350 2072,439 2087,502 1983,596 1826,632 1660,721 1534,716 1503,737 1378,737 1289,773 1179,825 1185,1061 1101,1061 1075,1170 1221,1259 1326,1322 1477,1515 1461,1552 1446,1661 1378,1740 1237,1745 1205,1693 1091,1693 "/>
   </g>
  </g>
 </g>
</svg>
