<?xml version="1.0" encoding="UTF-8"?>
<!DOCTYPE svg PUBLIC "-//W3C//DTD SVG 1.1//EN" "http://www.w3.org/Graphics/SVG/1.1/DTD/svg11.dtd">
<!-- Creator: CorelDRAW X8 -->
<svg xmlns="http://www.w3.org/2000/svg" xml:space="preserve" width="100%" height="100%" version="1.1" shape-rendering="geometricPrecision" text-rendering="geometricPrecision" image-rendering="optimizeQuality" fill-rule="evenodd" clip-rule="evenodd"
viewBox="0 0 2326 1782"
 xmlns:xlink="http://www.w3.org/1999/xlink">
 <g id="Layer_x0020_1">
  <metadata id="CorelCorpID_0Corel-Layer"/>
  <g id="Layers">
   <g id="India_Districts_selection">
    <polygon fill="#6EA97F" points="1815,1782 1507,1776 1497,1714 1518,1688 1513,1594 1434,1557 1304,1531 1247,1557 1179,1620 1106,1646 1033,1719 1017,1735 970,1688 928,1620 908,1604 834,1599 834,1661 767,1688 657,1682 626,1609 605,1578 532,1552 480,1526 464,1458 449,1390 422,1301 402,1233 402,1207 501,1123 485,1066 407,982 402,846 428,789 417,752 365,737 198,836 136,909 0,914 16,883 16,852 37,820 78,805 99,799 151,778 156,731 172,690 177,637 245,590 292,590 318,575 334,554 329,481 355,434 422,397 443,366 438,319 454,225 495,204 579,199 600,178 621,89 668,47 756,42 798,84 861,94 918,94 965,63 986,42 986,47 1027,47 1106,10 1106,0 1132,26 1158,73 1257,183 1335,204 1419,298 1606,298 1705,361 1825,392 1898,366 1966,350 1966,345 1977,371 1977,408 2029,402 2086,428 2097,465 2144,496 2175,554 2237,569 2269,596 2305,643 2326,679 2326,684 2274,690 2050,920 2034,1082 2175,1259 2175,1421 1935,1635 "/>
   </g>
  </g>
 </g>
</svg>
