<?xml version="1.0" encoding="UTF-8"?>
<!DOCTYPE svg PUBLIC "-//W3C//DTD SVG 1.1//EN" "http://www.w3.org/Graphics/SVG/1.1/DTD/svg11.dtd">
<!-- Creator: CorelDRAW X8 -->
<svg xmlns="http://www.w3.org/2000/svg" xml:space="preserve" width="100%" height="100%" version="1.1" shape-rendering="geometricPrecision" text-rendering="geometricPrecision" image-rendering="optimizeQuality" fill-rule="evenodd" clip-rule="evenodd"
viewBox="0 0 3239 1955"
 xmlns:xlink="http://www.w3.org/1999/xlink">
 <g id="Layer_x0020_1">
  <metadata id="CorelCorpID_0Corel-Layer"/>
  <g id="Layers">
   <g id="India_Districts_selection">
    <polygon fill="#6EA97F" points="1373,183 1391,178 1545,149 1745,166 1843,304 2043,344 2272,350 2341,436 2409,522 2426,705 2415,757 2518,791 2690,803 2747,957 2804,1078 2924,1181 3039,1290 3176,1301 3216,1479 3239,1542 3107,1548 2947,1628 2816,1754 2667,1800 2278,1840 2203,1938 2129,1955 2112,1829 2100,1640 1969,1531 1963,1479 1843,1485 1780,1548 1459,1542 1253,1525 990,1806 893,1806 853,1697 870,1542 961,1462 921,1376 515,1364 521,1101 401,1049 343,923 166,705 143,413 0,252 52,155 177,40 612,0 664,92 910,80 1104,166 1299,281 "/>
   </g>
  </g>
 </g>
</svg>
