<?xml version="1.0" encoding="UTF-8"?>
<!DOCTYPE svg PUBLIC "-//W3C//DTD SVG 1.1//EN" "http://www.w3.org/Graphics/SVG/1.1/DTD/svg11.dtd">
<!-- Creator: CorelDRAW X8 -->
<svg xmlns="http://www.w3.org/2000/svg" xml:space="preserve" width="100%" height="100%" version="1.1" shape-rendering="geometricPrecision" text-rendering="geometricPrecision" image-rendering="optimizeQuality" fill-rule="evenodd" clip-rule="evenodd"
viewBox="0 0 1726 2233"
 xmlns:xlink="http://www.w3.org/1999/xlink">
 <g id="Layer_x0020_1">
  <metadata id="CorelCorpID_0Corel-Layer"/>
  <g id="Layers">
   <g id="India_Districts_selection">
    <polygon fill="#6EA97F" points="1726,1886 1700,1873 1549,2096 1393,2220 1347,2233 1321,2161 1177,2011 968,1827 856,1821 798,1840 536,1853 503,1768 431,1559 262,1290 229,1081 105,694 52,485 0,79 52,79 98,118 157,144 203,151 418,144 464,92 523,85 673,79 824,79 928,79 948,39 1033,13 1066,13 1092,0 1131,20 1151,52 1170,98 1157,124 1144,216 1144,308 1183,367 1203,413 1138,426 1085,458 1039,550 1085,596 1098,655 1157,727 1190,766 1216,773 1236,884 1229,937 1216,976 1157,989 1098,1002 1066,1009 1026,1022 994,1061 994,1107 1026,1146 1092,1153 1131,1146 1164,1126 1190,1146 1229,1166 1281,1172 1340,1179 1353,1179 1366,1238 1399,1257 1451,1271 1504,1297 1510,1343 1491,1460 1504,1519 1497,1552 1464,1631 1464,1677 1569,1690 1621,1690 1647,1716 1674,1755 1674,1775 "/>
   </g>
  </g>
 </g>
</svg>
