<?xml version="1.0" encoding="UTF-8"?>
<!DOCTYPE svg PUBLIC "-//W3C//DTD SVG 1.1//EN" "http://www.w3.org/Graphics/SVG/1.1/DTD/svg11.dtd">
<!-- Creator: CorelDRAW X8 -->
<svg xmlns="http://www.w3.org/2000/svg" xml:space="preserve" width="100%" height="100%" version="1.1" shape-rendering="geometricPrecision" text-rendering="geometricPrecision" image-rendering="optimizeQuality" fill-rule="evenodd" clip-rule="evenodd"
viewBox="0 0 2068 2083"
 xmlns:xlink="http://www.w3.org/1999/xlink">
 <g id="Layer_x0020_1">
  <metadata id="CorelCorpID_0Corel-Layer"/>
  <g id="Layers">
   <g id="India_Districts_selection">
    <polygon fill="#6EA97F" points="1721,1814 1714,1899 1690,2016 1666,2077 1611,2083 1562,2058 1458,2040 1422,1979 1239,1985 1147,1936 897,1814 689,1814 653,1844 543,1838 482,1790 409,1716 177,1667 55,1576 0,1509 85,1393 189,1167 384,1002 549,904 720,831 787,672 940,519 1104,360 1184,275 1184,153 1226,79 1330,37 1464,0 1550,49 1586,153 1666,189 1769,208 1904,269 2038,354 2068,421 2026,525 1861,684 1721,794 1672,971 1660,1307 1647,1490 1666,1698 1708,1820 "/>
   </g>
  </g>
 </g>
</svg>
