<?xml version="1.0" encoding="UTF-8"?>
<!DOCTYPE svg PUBLIC "-//W3C//DTD SVG 1.1//EN" "http://www.w3.org/Graphics/SVG/1.1/DTD/svg11.dtd">
<!-- Creator: CorelDRAW X8 -->
<svg xmlns="http://www.w3.org/2000/svg" xml:space="preserve" width="100%" height="100%" version="1.1" shape-rendering="geometricPrecision" text-rendering="geometricPrecision" image-rendering="optimizeQuality" fill-rule="evenodd" clip-rule="evenodd"
viewBox="0 0 8655 8305"
 xmlns:xlink="http://www.w3.org/1999/xlink">
 <g id="Layer_x0020_1">
  <metadata id="CorelCorpID_0Corel-Layer"/>
  <g id="Layers">
   <g id="India_Districts_selection">
    <polygon fill="#6EA97F" points="8655,4676 7804,4651 7293,5017 6904,5431 6564,6161 6321,6575 6126,6868 5786,7160 5664,7647 5397,8037 4959,8305 4303,8231 4473,8061 4716,7647 4935,7184 4935,5796 4741,5480 4522,5041 4327,4554 4060,4408 3695,4067 3160,3629 2990,3361 2431,3093 1921,3069 1507,2849 1313,2411 972,1997 535,1924 340,1900 267,1705 0,1218 267,974 316,779 1483,828 1994,1461 2310,1802 2942,2192 3015,2021 3404,2046 3404,1218 3233,1047 2844,1047 2455,1072 2188,901 2382,463 3063,414 3355,122 3452,0 3817,122 4060,487 4449,487 4546,390 4838,536 5178,609 5616,852 5664,1169 5446,1534 5421,1753 5616,1924 5786,1948 5810,2435 5348,2533 5203,2435 5203,3069 5397,3361 5810,3458 6175,3190 6467,3239 6758,3458 7099,3434 7391,3263 7536,3507 7634,3921 7998,4237 8217,4237 8290,4432 8533,4481 "/>
   </g>
  </g>
 </g>
</svg>
