<?xml version="1.0" encoding="UTF-8"?>
<!DOCTYPE svg PUBLIC "-//W3C//DTD SVG 1.1//EN" "http://www.w3.org/Graphics/SVG/1.1/DTD/svg11.dtd">
<!-- Creator: CorelDRAW X8 -->
<svg xmlns="http://www.w3.org/2000/svg" xml:space="preserve" width="100%" height="100%" version="1.1" shape-rendering="geometricPrecision" text-rendering="geometricPrecision" image-rendering="optimizeQuality" fill-rule="evenodd" clip-rule="evenodd"
viewBox="0 0 2400 1932"
 xmlns:xlink="http://www.w3.org/1999/xlink">
 <g id="Layer_x0020_1">
  <metadata id="CorelCorpID_0Corel-Layer"/>
  <g id="Layers">
   <g id="India_Districts_selection">
    <polygon fill="#6EA97F" points="1160,1909 1138,1909 1126,1887 1092,1858 1047,1824 1024,1785 979,1790 939,1802 922,1841 906,1881 883,1926 821,1932 770,1887 758,1802 787,1768 775,1728 764,1717 758,1672 747,1632 713,1609 679,1570 640,1547 594,1536 572,1468 600,1445 623,1417 623,1394 662,1411 707,1383 690,1343 623,1337 583,1315 543,1292 521,1252 509,1207 464,1196 424,1190 396,1179 357,1162 311,1139 255,1111 232,1082 221,1031 204,1009 187,980 158,952 136,929 91,901 51,873 23,816 6,782 0,708 96,686 187,708 209,822 351,822 464,759 589,550 492,289 543,96 662,0 792,40 872,130 1047,187 1183,289 1364,300 1551,442 1670,448 1704,465 1709,510 1737,584 1817,623 1885,652 2026,652 2077,669 2100,742 2128,816 2128,941 2168,963 2224,969 2230,963 2241,975 2269,1009 2298,1043 2349,1065 2377,1077 2400,1105 2377,1133 2360,1167 2332,1207 2269,1213 2190,1235 2145,1269 2100,1315 2077,1354 2015,1388 1913,1411 1817,1417 1766,1439 1641,1434 1585,1439 1573,1473 1562,1513 1528,1524 1494,1558 1454,1564 1432,1581 1421,1609 1404,1643 1375,1689 1353,1723 1296,1773 1262,1819 1217,1858 1160,1881 "/>
   </g>
  </g>
 </g>
</svg>
