<?xml version="1.0" encoding="UTF-8"?>
<!DOCTYPE svg PUBLIC "-//W3C//DTD SVG 1.1//EN" "http://www.w3.org/Graphics/SVG/1.1/DTD/svg11.dtd">
<!-- Creator: CorelDRAW X8 -->
<svg xmlns="http://www.w3.org/2000/svg" xml:space="preserve" width="100%" height="100%" version="1.1" shape-rendering="geometricPrecision" text-rendering="geometricPrecision" image-rendering="optimizeQuality" fill-rule="evenodd" clip-rule="evenodd"
viewBox="0 0 3034 2011"
 xmlns:xlink="http://www.w3.org/1999/xlink">
 <g id="Layer_x0020_1">
  <metadata id="CorelCorpID_0Corel-Layer"/>
  <g id="Layers">
   <g id="India_Districts_selection">
    <polygon fill="#6EA97F" points="978,2011 901,1905 901,1586 949,1492 860,1439 695,1451 365,1309 224,1203 206,1050 189,926 242,879 136,719 12,578 0,489 71,419 171,259 324,124 465,0 642,100 813,142 1037,165 1190,201 1196,283 1367,472 1638,631 1968,672 2203,761 2227,961 2463,1044 3034,1262 3028,1498 2792,1533 2645,1569 2445,1527 1626,1533 1520,1563 1314,1698 "/>
   </g>
  </g>
 </g>
</svg>
