<?xml version="1.0" encoding="UTF-8"?>
<!DOCTYPE svg PUBLIC "-//W3C//DTD SVG 1.1//EN" "http://www.w3.org/Graphics/SVG/1.1/DTD/svg11.dtd">
<!-- Creator: CorelDRAW X8 -->
<svg xmlns="http://www.w3.org/2000/svg" xml:space="preserve" width="100%" height="100%" version="1.1" shape-rendering="geometricPrecision" text-rendering="geometricPrecision" image-rendering="optimizeQuality" fill-rule="evenodd" clip-rule="evenodd"
viewBox="0 0 3037 1631"
 xmlns:xlink="http://www.w3.org/1999/xlink">
 <g id="Layer_x0020_1">
  <metadata id="CorelCorpID_0Corel-Layer"/>
  <g id="Layers">
   <g id="India_Districts_selection">
    <polygon fill="#6EA97F" points="535,110 626,91 1299,24 1318,0 1442,91 1542,172 1757,129 1810,67 1862,158 1915,268 2115,297 2364,273 2574,411 2874,359 2946,354 3037,483 2975,512 2927,593 2841,765 2769,875 2640,909 2526,909 2421,947 2349,995 2278,1119 2235,1229 2163,1378 2048,1483 1915,1555 1800,1631 1681,1578 1533,1578 1413,1526 1280,1545 1012,1545 764,1459 444,1459 363,1401 244,1363 148,1306 124,1339 76,1229 19,1076 0,952 0,842 19,856 253,784 444,593 458,435 554,297 559,124 "/>
   </g>
  </g>
 </g>
</svg>
