<?xml version="1.0" encoding="UTF-8"?>
<!DOCTYPE svg PUBLIC "-//W3C//DTD SVG 1.1//EN" "http://www.w3.org/Graphics/SVG/1.1/DTD/svg11.dtd">
<!-- Creator: CorelDRAW X8 -->
<svg xmlns="http://www.w3.org/2000/svg" xml:space="preserve" width="100%" height="100%" version="1.1" shape-rendering="geometricPrecision" text-rendering="geometricPrecision" image-rendering="optimizeQuality" fill-rule="evenodd" clip-rule="evenodd"
viewBox="0 0 1674 2233"
 xmlns:xlink="http://www.w3.org/1999/xlink">
 <g id="Layer_x0020_1">
  <metadata id="CorelCorpID_0Corel-Layer"/>
  <g id="Layers">
   <g id="India_Districts_selection">
    <polygon fill="#6EA97F" points="1549,1893 1484,1978 1438,1997 1412,1860 1347,1827 1281,1893 1229,1978 1242,2187 1170,2233 1013,2050 928,2063 739,2109 549,2155 438,2043 399,1893 248,1840 72,1847 7,1801 13,1794 0,1644 72,1506 33,1460 39,1362 170,1277 222,1140 262,1035 353,956 497,943 615,1028 726,1087 830,1028 817,845 837,583 804,537 713,472 726,341 804,301 909,203 961,190 968,164 981,164 1013,105 1301,13 1321,0 1347,92 1379,190 1379,308 1569,301 1576,504 1628,530 1628,773 1674,819 1674,950 1602,1009 1602,1074 1661,1120 1654,1257 1595,1401 1589,1690 1563,1762 1543,1794 1536,1886 "/>
   </g>
  </g>
 </g>
</svg>
