<?xml version="1.0" encoding="UTF-8"?>
<!DOCTYPE svg PUBLIC "-//W3C//DTD SVG 1.1//EN" "http://www.w3.org/Graphics/SVG/1.1/DTD/svg11.dtd">
<!-- Creator: CorelDRAW X8 -->
<svg xmlns="http://www.w3.org/2000/svg" xml:space="preserve" width="100%" height="100%" version="1.1" shape-rendering="geometricPrecision" text-rendering="geometricPrecision" image-rendering="optimizeQuality" fill-rule="evenodd" clip-rule="evenodd"
viewBox="0 0 2236 2233"
 xmlns:xlink="http://www.w3.org/1999/xlink">
 <g id="Layer_x0020_1">
  <metadata id="CorelCorpID_0Corel-Layer"/>
  <g id="Layers">
   <g id="India_Districts_selection">
    <polygon fill="#6EA97F" points="2171,740 2157,753 2229,989 2157,1087 2184,1382 2190,1506 2223,1611 2236,1860 2216,2024 2164,2069 2112,2115 1961,2063 1863,2024 1549,2037 1536,1991 1327,1971 1183,2076 1033,2233 824,2037 732,1958 713,1840 641,1814 628,1814 634,1808 556,1775 320,1670 78,1454 0,1316 52,1290 98,1257 209,1244 307,1172 373,1126 464,1035 458,688 503,635 497,491 569,445 588,321 654,151 667,0 1131,151 1216,380 1321,472 1589,498 1968,675 "/>
   </g>
  </g>
 </g>
</svg>
