<?xml version="1.0" encoding="UTF-8"?>
<!DOCTYPE svg PUBLIC "-//W3C//DTD SVG 1.1//EN" "http://www.w3.org/Graphics/SVG/1.1/DTD/svg11.dtd">
<!-- Creator: CorelDRAW X8 -->
<svg xmlns="http://www.w3.org/2000/svg" xml:space="preserve" width="100%" height="100%" version="1.1" shape-rendering="geometricPrecision" text-rendering="geometricPrecision" image-rendering="optimizeQuality" fill-rule="evenodd" clip-rule="evenodd"
viewBox="0 0 2303 1481"
 xmlns:xlink="http://www.w3.org/1999/xlink">
 <g id="Layer_x0020_1">
  <metadata id="CorelCorpID_0Corel-Layer"/>
  <g id="Layers">
   <g id="India_Districts_selection">
    <polygon fill="#6EA97F" points="2303,1181 2203,1185 2186,1224 2112,1190 2086,1159 2030,1129 1999,1107 1960,1129 1878,1263 1809,1185 1648,1194 1622,1207 1600,1276 1527,1329 1327,1324 1245,1415 1214,1420 1106,1437 1063,1481 954,1468 954,1441 885,1372 828,1342 711,1268 620,1181 442,1164 295,1029 173,851 87,747 39,651 0,517 17,356 22,360 87,300 273,161 421,117 555,109 698,100 724,65 833,22 902,56 1180,61 1297,4 1405,0 1436,22 1548,52 1709,87 1848,130 1943,213 2025,261 2051,230 2051,195 2077,156 2117,213 2134,408 2169,452 2169,808 2294,1020 "/>
   </g>
  </g>
 </g>
</svg>
