<?xml version="1.0" encoding="UTF-8"?>
<!DOCTYPE svg PUBLIC "-//W3C//DTD SVG 1.1//EN" "http://www.w3.org/Graphics/SVG/1.1/DTD/svg11.dtd">
<!-- Creator: CorelDRAW X8 -->
<svg xmlns="http://www.w3.org/2000/svg" xml:space="preserve" width="100%" height="100%" version="1.1" shape-rendering="geometricPrecision" text-rendering="geometricPrecision" image-rendering="optimizeQuality" fill-rule="evenodd" clip-rule="evenodd"
viewBox="0 0 2915 1330"
 xmlns:xlink="http://www.w3.org/1999/xlink">
 <g id="Layer_x0020_1">
  <metadata id="CorelCorpID_0Corel-Layer"/>
  <g id="Layers">
   <g id="India_Districts_selection">
    <polygon fill="#6EA97F" points="282,1330 206,1258 143,1205 54,1133 58,1066 89,1008 67,918 27,869 63,784 45,708 0,627 9,627 54,649 134,649 277,564 487,484 586,475 666,457 764,376 907,340 1037,255 1180,193 1261,134 1332,67 1386,4 1439,27 1480,134 1346,224 1363,282 1462,309 1556,282 1600,282 1708,237 1788,184 1833,125 1913,130 2043,112 2088,112 2123,85 2195,49 2298,27 2333,85 2271,152 2307,233 2356,273 2423,242 2472,125 2490,81 2508,27 2512,36 2544,0 2651,13 2700,36 2749,157 2781,313 2852,354 2915,434 2874,493 2879,502 2857,515 2781,506 2731,533 2642,564 2615,649 2597,658 2602,716 2624,770 2633,1008 2544,1012 2544,1061 2477,1070 2445,1043 2387,1039 2325,1012 2213,1012 2164,1034 2061,1039 2030,1066 1842,1066 1739,1106 1623,1146 1506,1164 1386,1191 1332,1231 1229,1227 1203,1151 1122,1146 988,1120 952,1088 867,1102 773,1151 679,1155 586,1120 536,1155 420,1227 282,1330 "/>
   </g>
  </g>
 </g>
</svg>
