<?xml version="1.0" encoding="UTF-8"?>
<!DOCTYPE svg PUBLIC "-//W3C//DTD SVG 1.1//EN" "http://www.w3.org/Graphics/SVG/1.1/DTD/svg11.dtd">
<!-- Creator: CorelDRAW X8 -->
<svg xmlns="http://www.w3.org/2000/svg" xml:space="preserve" width="100%" height="100%" version="1.1" shape-rendering="geometricPrecision" text-rendering="geometricPrecision" image-rendering="optimizeQuality" fill-rule="evenodd" clip-rule="evenodd"
viewBox="0 0 2464 1631"
 xmlns:xlink="http://www.w3.org/1999/xlink">
 <g id="Layer_x0020_1">
  <metadata id="CorelCorpID_0Corel-Layer"/>
  <g id="Layers">
   <g id="India_Districts_selection">
    <polygon fill="#6EA97F" points="110,646 134,631 172,588 253,541 310,512 487,521 525,464 578,421 616,416 654,397 664,354 654,277 721,249 826,234 883,201 955,206 1027,249 1175,215 1361,153 1418,115 1523,134 1695,139 1805,10 1905,10 1958,0 1953,24 1977,139 2072,306 2220,454 2368,555 2450,593 2459,593 2445,622 2464,651 2397,694 2273,708 2206,708 2068,794 1982,837 1900,871 1791,938 1738,1048 1728,1129 1719,1158 1657,1162 1590,1148 1518,1119 1466,1091 1409,1086 1361,1119 1227,1186 1175,1335 1127,1468 965,1502 874,1583 831,1631 769,1621 764,1497 793,1430 750,1387 659,1382 602,1296 520,1186 439,1172 358,1191 234,1215 224,1229 177,1201 115,1134 38,985 0,875 19,804 91,765 129,651 "/>
   </g>
  </g>
 </g>
</svg>
