<?xml version="1.0" encoding="UTF-8"?>
<!DOCTYPE svg PUBLIC "-//W3C//DTD SVG 1.1//EN" "http://www.w3.org/Graphics/SVG/1.1/DTD/svg11.dtd">
<!-- Creator: CorelDRAW X8 -->
<svg xmlns="http://www.w3.org/2000/svg" xml:space="preserve" width="100%" height="100%" version="1.1" shape-rendering="geometricPrecision" text-rendering="geometricPrecision" image-rendering="optimizeQuality" fill-rule="evenodd" clip-rule="evenodd"
viewBox="0 0 2523 2835"
 xmlns:xlink="http://www.w3.org/1999/xlink">
 <g id="Layer_x0020_1">
  <metadata id="CorelCorpID_0Corel-Layer"/>
  <g id="Layers">
   <g id="India_Districts_selection">
    <polygon fill="#6EA97F" points="2523,615 2523,649 2457,773 2391,840 2316,923 2150,989 2009,1089 1992,1131 1934,1156 1851,1297 1843,1488 1619,1680 1436,1763 1220,1912 1145,1987 1104,2104 1071,2345 1071,2370 979,2395 872,2511 689,2636 398,2777 100,2835 0,2835 0,2544 25,2453 66,2345 75,2228 91,1763 174,1663 166,1513 224,1430 241,1197 349,1089 357,881 357,607 506,449 606,283 697,366 830,416 963,407 1013,258 1204,83 1428,75 1610,42 1859,33 1868,0 1951,141 2000,241 2125,407 2200,499 2324,524 2357,574 2515,632 "/>
   </g>
  </g>
 </g>
</svg>
