<?xml version="1.0" encoding="UTF-8"?>
<!DOCTYPE svg PUBLIC "-//W3C//DTD SVG 1.1//EN" "http://www.w3.org/Graphics/SVG/1.1/DTD/svg11.dtd">
<!-- Creator: CorelDRAW X8 -->
<svg xmlns="http://www.w3.org/2000/svg" xml:space="preserve" width="100%" height="100%" version="1.1" shape-rendering="geometricPrecision" text-rendering="geometricPrecision" image-rendering="optimizeQuality" fill-rule="evenodd" clip-rule="evenodd"
viewBox="0 0 8570 6448"
 xmlns:xlink="http://www.w3.org/1999/xlink">
 <g id="Layer_x0020_1">
  <metadata id="CorelCorpID_0Corel-Layer"/>
  <g id="Layers">
   <g id="India_Districts_selection">
    <polygon fill="#6EA97F" points="3228,6448 3228,6410 3568,5919 3417,5692 3039,5503 2964,5049 2473,5068 2473,4936 2567,4690 2756,4387 2756,3933 2756,3706 2397,3479 1944,3687 1680,3895 1208,4028 944,4217 755,4103 378,3763 170,3555 245,3309 529,2912 755,2742 755,2364 755,2042 585,1796 302,1570 0,1191 19,964 491,794 1114,246 2133,0 3643,246 4210,511 4984,643 5927,662 6267,1040 6720,1437 7853,1305 7985,1986 7758,2307 7796,2553 8570,2496 8476,3271 7985,4103 7645,4406 7060,4519 6739,5087 6003,5238 5437,5408 5002,5881 4946,6127 4663,6127 4493,6221 4228,6335 3851,6392 3662,6410 "/>
   </g>
  </g>
 </g>
</svg>
