<?xml version="1.0" encoding="UTF-8"?>
<!DOCTYPE svg PUBLIC "-//W3C//DTD SVG 1.1//EN" "http://www.w3.org/Graphics/SVG/1.1/DTD/svg11.dtd">
<!-- Creator: CorelDRAW X8 -->
<svg xmlns="http://www.w3.org/2000/svg" xml:space="preserve" width="100%" height="100%" version="1.1" shape-rendering="geometricPrecision" text-rendering="geometricPrecision" image-rendering="optimizeQuality" fill-rule="evenodd" clip-rule="evenodd"
viewBox="0 0 2938 1991"
 xmlns:xlink="http://www.w3.org/1999/xlink">
 <g id="Layer_x0020_1">
  <metadata id="CorelCorpID_0Corel-Layer"/>
  <g id="Layers">
   <g id="India_Districts_selection">
    <polygon fill="#6EA97F" points="2005,1991 1871,1892 1749,1857 1510,1839 1510,1793 991,1804 938,1857 740,1822 227,1781 227,1623 175,1355 64,1296 64,1139 0,1115 0,496 76,385 216,286 280,169 268,0 606,0 711,128 1043,128 1084,228 1096,660 1143,742 1259,736 1265,689 1405,689 1486,590 1673,601 1702,572 1772,561 1813,613 2098,613 2122,689 2198,858 2233,1004 2320,1074 2472,1080 2606,1139 2693,1215 2740,1255 2722,1390 2850,1483 2938,1641 2938,1816 2862,1851 2606,1851 2571,1752 2343,1758 2227,1711 2215,1746 2093,1758 2046,1909 "/>
   </g>
  </g>
 </g>
</svg>
