<?xml version="1.0" encoding="UTF-8"?>
<!DOCTYPE svg PUBLIC "-//W3C//DTD SVG 1.1//EN" "http://www.w3.org/Graphics/SVG/1.1/DTD/svg11.dtd">
<!-- Creator: CorelDRAW X8 -->
<svg xmlns="http://www.w3.org/2000/svg" xml:space="preserve" width="100%" height="100%" version="1.1" shape-rendering="geometricPrecision" text-rendering="geometricPrecision" image-rendering="optimizeQuality" fill-rule="evenodd" clip-rule="evenodd"
viewBox="0 0 2862 1631"
 xmlns:xlink="http://www.w3.org/1999/xlink">
 <g id="Layer_x0020_1">
  <metadata id="CorelCorpID_0Corel-Layer"/>
  <g id="Layers">
   <g id="India_Districts_selection">
    <polygon fill="#6EA97F" points="2466,588 2394,598 2313,593 2265,670 2265,775 2212,899 2136,985 1978,990 1988,942 2007,923 2012,861 1930,837 1849,808 1849,737 1825,698 1725,708 1715,737 1644,732 1562,784 1457,808 1381,880 1314,928 1132,909 1113,961 1042,961 999,990 1018,1033 937,1038 898,1071 903,1143 846,1210 774,1325 745,1416 717,1464 698,1526 655,1598 621,1631 492,1626 416,1555 416,1421 296,1382 134,1373 134,1325 110,1291 115,1244 19,1177 5,1148 0,1009 33,1014 24,856 153,847 311,756 506,593 554,459 573,287 636,249 736,81 889,67 1070,67 1142,129 1242,220 1314,230 1371,201 1424,206 1534,249 1754,254 1773,234 1801,268 1902,263 1921,234 1954,239 1988,215 2040,215 2050,191 2136,177 2179,134 2208,143 2208,163 2337,163 2375,115 2418,143 2494,134 2552,96 2647,0 2695,0 2771,129 2843,220 2853,306 2862,306 2843,316 2781,325 2743,364 2642,392 2575,421 2571,488 2537,521 2475,526 2461,588 "/>
   </g>
  </g>
 </g>
</svg>
