<?xml version="1.0" encoding="UTF-8"?>
<!DOCTYPE svg PUBLIC "-//W3C//DTD SVG 1.1//EN" "http://www.w3.org/Graphics/SVG/1.1/DTD/svg11.dtd">
<!-- Creator: CorelDRAW X8 -->
<svg xmlns="http://www.w3.org/2000/svg" xml:space="preserve" width="100%" height="100%" version="1.1" shape-rendering="geometricPrecision" text-rendering="geometricPrecision" image-rendering="optimizeQuality" fill-rule="evenodd" clip-rule="evenodd"
viewBox="0 0 3154 2384"
 xmlns:xlink="http://www.w3.org/1999/xlink">
 <g id="Layer_x0020_1">
  <metadata id="CorelCorpID_0Corel-Layer"/>
  <g id="Layers">
   <g id="India_Districts_selection">
    <polygon fill="#6EA97F" points="2903,1783 2861,1769 2742,1699 2638,1678 2526,1692 2394,1699 2331,1629 2247,1510 2135,1496 1982,1545 1870,1405 1828,1426 1689,1489 1598,1559 1584,1650 1542,1692 1472,1762 1312,1943 1158,2139 1130,2286 963,2272 921,2307 768,2307 733,2335 635,2335 572,2384 516,2300 419,2195 419,2090 482,1964 523,1699 468,1657 516,1566 607,1475 537,1384 482,1279 377,1174 335,1098 300,916 202,958 91,965 0,853 56,762 209,657 349,510 370,517 516,517 558,489 600,447 600,412 621,301 705,287 754,329 851,322 914,231 928,287 1103,294 1249,294 1319,217 1403,203 1396,91 1493,91 1675,49 1759,28 1828,0 1926,63 2003,98 2017,377 2059,412 2052,489 2135,531 2268,531 2401,447 2456,433 2484,510 2575,552 2903,566 3098,713 3126,776 3147,965 3112,1091 3057,1125 3105,1244 3105,1356 3112,1384 3154,1398 3064,1524 3022,1622 2994,1699 2931,1741 "/>
   </g>
  </g>
 </g>
</svg>
