<?xml version="1.0" encoding="UTF-8"?>
<!DOCTYPE svg PUBLIC "-//W3C//DTD SVG 1.1//EN" "http://www.w3.org/Graphics/SVG/1.1/DTD/svg11.dtd">
<!-- Creator: CorelDRAW X8 -->
<svg xmlns="http://www.w3.org/2000/svg" xml:space="preserve" width="100%" height="100%" version="1.1" shape-rendering="geometricPrecision" text-rendering="geometricPrecision" image-rendering="optimizeQuality" fill-rule="evenodd" clip-rule="evenodd"
viewBox="0 0 1283 1481"
 xmlns:xlink="http://www.w3.org/1999/xlink">
 <g id="Layer_x0020_1">
  <metadata id="CorelCorpID_0Corel-Layer"/>
  <g id="Layers">
   <g id="India_Districts_selection">
    <polygon fill="#6EA97F" points="381,1428 390,1402 425,1350 442,1294 425,1263 342,1246 338,1194 360,1142 238,1133 130,1077 43,973 0,886 17,808 82,742 139,712 282,638 282,530 308,421 325,386 329,252 312,213 308,122 399,48 425,113 585,109 620,61 797,30 849,0 988,48 1110,78 1166,169 1214,178 1192,243 1075,469 1092,486 1196,486 1222,534 1188,738 1027,907 1049,977 1114,1012 1253,1185 1283,1207 1253,1246 1088,1255 1023,1350 871,1433 654,1481 498,1437 "/>
   </g>
  </g>
 </g>
</svg>
