<?xml version="1.0" encoding="UTF-8"?>
<!DOCTYPE svg PUBLIC "-//W3C//DTD SVG 1.1//EN" "http://www.w3.org/Graphics/SVG/1.1/DTD/svg11.dtd">
<!-- Creator: CorelDRAW X8 -->
<svg xmlns="http://www.w3.org/2000/svg" xml:space="preserve" width="100%" height="100%" version="1.1" shape-rendering="geometricPrecision" text-rendering="geometricPrecision" image-rendering="optimizeQuality" fill-rule="evenodd" clip-rule="evenodd"
viewBox="0 0 1749 1631"
 xmlns:xlink="http://www.w3.org/1999/xlink">
 <g id="Layer_x0020_1">
  <metadata id="CorelCorpID_0Corel-Layer"/>
  <g id="Layers">
   <g id="India_Districts_selection">
    <polygon fill="#6EA97F" points="1749,1574 1252,1540 999,1464 698,1511 616,1631 612,1631 602,1550 502,1459 430,1454 397,1387 311,1382 311,1373 158,1291 0,1196 24,1076 124,971 148,808 177,603 220,531 225,196 263,129 463,124 468,43 597,0 626,19 741,72 870,134 956,187 1003,258 1151,282 1276,301 1352,340 1357,454 1362,593 1400,722 1515,871 1562,952 1653,1114 1706,1239 1744,1387 1744,1555 "/>
   </g>
  </g>
 </g>
</svg>
