<?xml version="1.0" encoding="UTF-8"?>
<!DOCTYPE svg PUBLIC "-//W3C//DTD SVG 1.1//EN" "http://www.w3.org/Graphics/SVG/1.1/DTD/svg11.dtd">
<!-- Creator: CorelDRAW X8 -->
<svg xmlns="http://www.w3.org/2000/svg" xml:space="preserve" width="100%" height="100%" version="1.1" shape-rendering="geometricPrecision" text-rendering="geometricPrecision" image-rendering="optimizeQuality" fill-rule="evenodd" clip-rule="evenodd"
viewBox="0 0 2454 1631"
 xmlns:xlink="http://www.w3.org/1999/xlink">
 <g id="Layer_x0020_1">
  <metadata id="CorelCorpID_0Corel-Layer"/>
  <g id="Layers">
   <g id="India_Districts_selection">
    <polygon fill="#6EA97F" points="487,1631 435,1631 363,1588 306,1526 282,1440 253,1392 253,1311 196,1263 148,1162 110,1091 110,1009 62,904 33,818 0,765 0,651 19,584 43,536 57,488 186,493 205,397 286,249 306,172 468,134 554,81 630,124 735,115 840,5 1003,0 1175,177 1332,206 1437,277 1552,311 1623,378 1671,488 1867,674 2120,674 2278,813 2387,880 2450,1033 2454,1043 2344,1134 2344,1138 2301,1129 2249,1162 2087,1124 2001,1172 1886,1201 1595,1215 1385,1330 1122,1406 879,1497 697,1526 621,1555 492,1617 "/>
   </g>
  </g>
 </g>
</svg>
