<?xml version="1.0" encoding="UTF-8"?>
<!DOCTYPE svg PUBLIC "-//W3C//DTD SVG 1.1//EN" "http://www.w3.org/Graphics/SVG/1.1/DTD/svg11.dtd">
<!-- Creator: CorelDRAW X8 -->
<svg xmlns="http://www.w3.org/2000/svg" xml:space="preserve" width="100%" height="100%" version="1.1" shape-rendering="geometricPrecision" text-rendering="geometricPrecision" image-rendering="optimizeQuality" fill-rule="evenodd" clip-rule="evenodd"
viewBox="0 0 3603 2384"
 xmlns:xlink="http://www.w3.org/1999/xlink">
 <g id="Layer_x0020_1">
  <metadata id="CorelCorpID_0Corel-Layer"/>
  <g id="Layers">
   <g id="India_Districts_selection">
    <path fill="#6EA97F" d="M3170 566l0 35 126 -7 0 175 49 14 118 28 -7 189 147 -7 0 209 0 -7 -126 -7 -84 28 -62 112 -377 14 -14 -49 -419 14 -119 -84 -21 -146 -63 -161 189 0 76 28 98 28 84 -21 21 -49 -21 -42 -140 -77 -42 -105 21 -126 7 7 -14 56 91 7 14 -35 56 7 21 -35 63 -14 0 14 328 7zm-1683 -468l0 84 91 56 91 -119 111 -7 7 105 63 49 161 7 0 -35 126 0 55 56 105 7 21 35 84 62 0 140 -42 0 -140 70 0 84 -97 161 -210 7 -167 -84 -77 14 -35 154 14 84 209 14 56 21 7 230 -174 70 -196 -168 -70 56 -14 147 -14 119 49 84 7 112 -77 216 -42 91 14 70 -83 -7 -21 56 -77 14 0 28 -140 0 -70 -70 -55 14 0 56 -56 49 28 35 0 119 -70 -21 -98 -63 0 -56 -63 -42 -7 -84 -56 -49 -132 -147 -63 -118 0 -245 -147 7 0 49 -77 7 -48 -21 -7 -91 132 -98 0 -56 -63 -35 -7 -70 -62 -91 -105 -160 -42 -161 -14 -133 49 -35 42 -112 42 -84 160 0 56 -42 -28 -97 0 -28 35 -49 133 -84 56 -7 28 -49 62 -63 301 7 28 56 174 -7 0 -21 56 -28 35 -63 77 21 90 49 91 28z"/>
   </g>
  </g>
 </g>
</svg>
