<?xml version="1.0" encoding="UTF-8"?>
<!DOCTYPE svg PUBLIC "-//W3C//DTD SVG 1.1//EN" "http://www.w3.org/Graphics/SVG/1.1/DTD/svg11.dtd">
<!-- Creator: CorelDRAW X8 -->
<svg xmlns="http://www.w3.org/2000/svg" xml:space="preserve" width="100%" height="100%" version="1.1" shape-rendering="geometricPrecision" text-rendering="geometricPrecision" image-rendering="optimizeQuality" fill-rule="evenodd" clip-rule="evenodd"
viewBox="0 0 1273 1782"
 xmlns:xlink="http://www.w3.org/1999/xlink">
 <g id="Layer_x0020_1">
  <metadata id="CorelCorpID_0Corel-Layer"/>
  <g id="Layers">
   <g id="India_Districts_selection">
    <polygon fill="#6EA97F" points="324,1782 329,1755 209,1667 188,1343 57,1306 0,1233 0,1176 68,1149 63,967 73,967 130,930 188,878 230,810 287,763 277,705 235,637 250,559 339,449 464,355 579,282 731,199 887,125 1028,57 1153,5 1169,0 1179,162 1232,246 1216,381 1258,434 1273,946 1205,1097 1075,1353 924,1442 918,1614 783,1688 757,1416 673,1463 605,1735 "/>
   </g>
  </g>
 </g>
</svg>
