<?xml version="1.0" encoding="UTF-8"?>
<!DOCTYPE svg PUBLIC "-//W3C//DTD SVG 1.1//EN" "http://www.w3.org/Graphics/SVG/1.1/DTD/svg11.dtd">
<!-- Creator: CorelDRAW X8 -->
<svg xmlns="http://www.w3.org/2000/svg" xml:space="preserve" width="100%" height="100%" version="1.1" shape-rendering="geometricPrecision" text-rendering="geometricPrecision" image-rendering="optimizeQuality" fill-rule="evenodd" clip-rule="evenodd"
viewBox="0 0 2337 1782"
 xmlns:xlink="http://www.w3.org/1999/xlink">
 <g id="Layer_x0020_1">
  <metadata id="CorelCorpID_0Corel-Layer"/>
  <g id="Layers">
   <g id="India_Districts_selection">
    <polygon fill="#6EA97F" points="2337,1050 2305,1144 2253,1186 2243,1369 2284,1489 2290,1562 2321,1620 2305,1740 2243,1771 2159,1782 2112,1740 2039,1677 1945,1677 1747,1656 1716,1588 1643,1526 1591,1494 1612,1432 1653,1364 1674,1301 1638,1296 1544,1290 1533,1212 1502,1176 1518,1061 1471,1061 1382,961 1325,1003 1179,998 1090,1008 949,987 908,1045 855,1082 798,1076 746,1008 647,1008 605,1045 568,1045 459,1045 370,1076 323,1113 308,1165 240,1243 193,1343 110,1421 73,1390 52,1332 73,1270 125,1243 110,1029 57,904 78,716 89,637 110,601 110,475 0,319 26,282 78,251 99,188 136,104 214,0 250,16 370,68 443,99 527,110 589,73 668,47 699,16 772,47 840,167 834,199 944,298 1158,340 1606,361 1612,486 1846,533 2284,538 2284,836 2248,836 2237,967 "/>
   </g>
  </g>
 </g>
</svg>
