<?xml version="1.0" encoding="UTF-8"?>
<!DOCTYPE svg PUBLIC "-//W3C//DTD SVG 1.1//EN" "http://www.w3.org/Graphics/SVG/1.1/DTD/svg11.dtd">
<!-- Creator: CorelDRAW X8 -->
<svg xmlns="http://www.w3.org/2000/svg" xml:space="preserve" width="100%" height="100%" version="1.1" shape-rendering="geometricPrecision" text-rendering="geometricPrecision" image-rendering="optimizeQuality" fill-rule="evenodd" clip-rule="evenodd"
viewBox="0 0 1795 1782"
 xmlns:xlink="http://www.w3.org/1999/xlink">
 <g id="Layer_x0020_1">
  <metadata id="CorelCorpID_0Corel-Layer"/>
  <g id="Layers">
   <g id="India_Districts_selection">
    <polygon fill="#6EA97F" points="1456,131 1451,172 1414,235 1419,486 1503,538 1607,653 1670,763 1769,825 1795,867 1743,914 1680,961 1560,1050 1539,1108 1519,1118 1508,1317 1331,1327 1331,1416 1284,1452 1352,1520 1320,1594 1320,1646 1242,1761 1226,1761 1164,1782 1112,1776 1106,1729 1106,1661 1096,1573 1059,1546 971,1531 866,1515 798,1473 736,1437 616,1369 480,1290 376,1275 209,1290 193,1296 193,1123 68,1040 0,961 52,909 104,820 209,695 193,606 204,496 250,413 282,439 292,496 344,507 376,470 699,486 741,502 830,444 856,381 819,334 825,193 898,157 971,162 1033,73 1012,52 1070,31 1106,5 1216,0 1242,31 1299,31 1320,68 1336,136 "/>
   </g>
  </g>
 </g>
</svg>
