<?xml version="1.0" encoding="UTF-8"?>
<!DOCTYPE svg PUBLIC "-//W3C//DTD SVG 1.1//EN" "http://www.w3.org/Graphics/SVG/1.1/DTD/svg11.dtd">
<!-- Creator: CorelDRAW X8 -->
<svg xmlns="http://www.w3.org/2000/svg" xml:space="preserve" width="100%" height="100%" version="1.1" shape-rendering="geometricPrecision" text-rendering="geometricPrecision" image-rendering="optimizeQuality" fill-rule="evenodd" clip-rule="evenodd"
viewBox="0 0 2527 1179"
 xmlns:xlink="http://www.w3.org/1999/xlink">
 <g id="Layer_x0020_1">
  <metadata id="CorelCorpID_0Corel-Layer"/>
  <g id="Layers">
   <g id="India_Districts_selection">
    <polygon fill="#6EA97F" points="1901,93 1901,101 1925,167 2057,160 2158,152 2337,175 2344,214 2395,261 2395,370 2449,381 2484,413 2504,455 2527,514 2527,564 2465,568 2100,755 1205,981 673,1152 229,1176 54,1179 0,1059 51,895 58,763 39,763 54,747 140,693 156,638 148,580 105,525 121,467 210,452 350,444 362,420 381,381 455,366 486,413 490,463 544,463 579,378 638,366 673,335 743,339 793,304 778,241 832,230 863,179 871,132 906,105 956,74 1007,27 1034,0 1108,0 1186,43 1221,86 1287,82 1388,58 1423,47 1442,66 1516,121 1567,167 1656,152 1715,90 1851,93 "/>
   </g>
  </g>
 </g>
</svg>
