<?xml version="1.0" encoding="UTF-8"?>
<!DOCTYPE svg PUBLIC "-//W3C//DTD SVG 1.1//EN" "http://www.w3.org/Graphics/SVG/1.1/DTD/svg11.dtd">
<!-- Creator: CorelDRAW X8 -->
<svg xmlns="http://www.w3.org/2000/svg" xml:space="preserve" width="100%" height="100%" version="1.1" shape-rendering="geometricPrecision" text-rendering="geometricPrecision" image-rendering="optimizeQuality" fill-rule="evenodd" clip-rule="evenodd"
viewBox="0 0 1974 2233"
 xmlns:xlink="http://www.w3.org/1999/xlink">
 <g id="Layer_x0020_1">
  <metadata id="CorelCorpID_0Corel-Layer"/>
  <g id="Layers">
   <g id="India_Districts_selection">
    <polygon fill="#6EA97F" points="1425,2233 1366,2214 1000,2220 987,2174 883,2194 876,2220 686,2200 647,2200 641,2128 530,2024 490,1932 523,1873 549,1860 536,1788 569,1762 595,1703 595,1618 549,1559 451,1532 301,1454 59,1460 7,1434 0,1362 20,1329 33,1198 7,1140 78,1113 111,1081 118,956 183,923 196,851 163,779 131,747 137,707 229,707 438,681 595,655 588,570 647,504 647,295 615,216 660,164 700,157 765,216 837,242 928,249 1183,216 1366,210 1406,190 1523,170 1602,124 1654,59 1667,0 1752,0 1844,111 1942,210 1974,314 1961,360 1870,426 1785,491 1700,635 1706,688 1778,707 1778,864 1837,956 1811,1015 1811,1113 1778,1192 1719,1218 1713,1277 1674,1303 1700,1454 1719,1532 1700,1591 1674,1624 1634,1644 1589,1742 1556,1834 1419,1866 1399,1925 1445,1984 1451,2024 1425,2050 1425,2168 "/>
   </g>
  </g>
 </g>
</svg>
