<?xml version="1.0" encoding="UTF-8"?>
<!DOCTYPE svg PUBLIC "-//W3C//DTD SVG 1.1//EN" "http://www.w3.org/Graphics/SVG/1.1/DTD/svg11.dtd">
<!-- Creator: CorelDRAW X8 -->
<svg xmlns="http://www.w3.org/2000/svg" xml:space="preserve" width="100%" height="100%" version="1.1" shape-rendering="geometricPrecision" text-rendering="geometricPrecision" image-rendering="optimizeQuality" fill-rule="evenodd" clip-rule="evenodd"
viewBox="0 0 2444 1932"
 xmlns:xlink="http://www.w3.org/1999/xlink">
 <g id="Layer_x0020_1">
  <metadata id="CorelCorpID_0Corel-Layer"/>
  <g id="Layers">
   <g id="India_Districts_selection">
    <polygon fill="#6EA97F" points="2246,23 2246,153 2274,204 2263,402 2240,453 2206,612 2200,771 1997,878 1906,924 1810,1020 1793,1133 1855,1258 1980,1411 2138,1496 2313,1513 2285,1587 2291,1660 2410,1689 2444,1734 2410,1819 2364,1892 2347,1932 2087,1915 1720,1887 1527,1807 1290,1881 1069,1847 792,1666 792,1683 775,1649 718,1649 537,1638 464,1524 441,1349 475,1298 475,1139 407,1094 402,975 356,884 119,833 0,810 28,703 62,578 215,510 305,476 520,442 809,334 1114,244 1358,108 1703,91 1838,57 1934,0 2132,45 2189,11 "/>
   </g>
  </g>
 </g>
</svg>
