<?xml version="1.0" encoding="UTF-8"?>
<!DOCTYPE svg PUBLIC "-//W3C//DTD SVG 1.1//EN" "http://www.w3.org/Graphics/SVG/1.1/DTD/svg11.dtd">
<!-- Creator: CorelDRAW X8 -->
<svg xmlns="http://www.w3.org/2000/svg" xml:space="preserve" width="100%" height="100%" version="1.1" shape-rendering="geometricPrecision" text-rendering="geometricPrecision" image-rendering="optimizeQuality" fill-rule="evenodd" clip-rule="evenodd"
viewBox="0 0 2025 1782"
 xmlns:xlink="http://www.w3.org/1999/xlink">
 <g id="Layer_x0020_1">
  <metadata id="CorelCorpID_0Corel-Layer"/>
  <g id="Layers">
   <g id="India_Districts_selection">
    <polygon fill="#6EA97F" points="485,125 532,146 642,73 699,37 757,42 772,16 830,31 918,47 971,63 1018,104 1065,115 1070,178 1117,214 1153,246 1216,272 1362,277 1357,319 1331,345 1331,402 1346,402 1320,423 1299,434 1299,726 1357,778 1399,799 1409,810 1566,815 1566,831 1733,831 1790,883 1811,899 1811,925 1826,925 1826,987 1821,1008 1842,1045 1842,1092 1879,1155 1926,1202 1957,1196 1962,1223 1999,1259 2025,1290 2004,1317 1988,1353 1952,1390 1905,1463 1910,1562 1884,1588 1853,1625 1806,1630 1800,1614 1769,1614 1769,1573 1686,1573 1675,1594 1639,1599 1628,1609 1586,1609 1555,1567 1498,1567 1472,1599 1446,1635 1425,1635 1399,1661 1378,1635 1357,1614 1289,1609 1289,1620 1279,1635 1190,1641 1127,1677 1070,1693 1038,1750 950,1740 924,1776 924,1782 908,1766 851,1755 798,1708 720,1614 798,1599 798,1494 783,1473 788,1416 757,1400 715,1390 689,1374 642,1338 579,1338 553,1353 485,1390 407,1390 376,1374 355,1353 287,1327 250,1290 230,1254 193,1186 198,1076 235,1045 230,899 261,873 261,825 313,763 292,731 230,674 235,627 250,617 240,596 209,569 204,533 230,512 240,475 209,465 204,428 157,418 84,350 37,345 0,308 10,246 26,225 21,188 52,162 84,131 162,73 177,47 209,47 224,16 277,10 318,0 371,57 376,115 433,115 444,131 475,131 "/>
   </g>
  </g>
 </g>
</svg>
