<?xml version="1.0" encoding="UTF-8"?>
<!DOCTYPE svg PUBLIC "-//W3C//DTD SVG 1.1//EN" "http://www.w3.org/Graphics/SVG/1.1/DTD/svg11.dtd">
<!-- Creator: CorelDRAW X8 -->
<svg xmlns="http://www.w3.org/2000/svg" xml:space="preserve" width="100%" height="100%" version="1.1" shape-rendering="geometricPrecision" text-rendering="geometricPrecision" image-rendering="optimizeQuality" fill-rule="evenodd" clip-rule="evenodd"
viewBox="0 0 2714 1782"
 xmlns:xlink="http://www.w3.org/1999/xlink">
 <g id="Layer_x0020_1">
  <metadata id="CorelCorpID_0Corel-Layer"/>
  <g id="Layers">
   <g id="India_Districts_selection">
    <polygon fill="#6EA97F" points="2688,805 2641,810 2625,820 2630,857 2609,857 2609,888 2599,893 2599,925 2573,951 2531,956 2531,972 2489,972 2474,987 2447,1024 2406,1024 2395,1055 2380,1050 2380,1076 2343,1092 2312,1092 2296,1123 2192,1123 2187,1149 2035,1155 2014,1123 2020,1097 1879,1097 1873,1123 1800,1123 1780,1149 1780,1170 1769,1191 1764,1217 1727,1249 1696,1285 1665,1327 1628,1332 1628,1369 1618,1369 1592,1405 1482,1494 1440,1499 1404,1442 1378,1442 1383,1468 1211,1473 1132,1520 1117,1567 1075,1614 1054,1635 1038,1635 1007,1646 965,1688 950,1719 950,1771 918,1782 762,1724 746,1714 725,1698 767,1661 772,1458 684,1196 543,1029 538,873 532,726 459,679 271,679 120,658 42,575 0,418 16,225 42,199 120,235 183,230 219,209 470,209 517,235 621,240 621,261 652,287 757,303 819,402 845,397 877,381 955,308 950,251 903,204 913,162 950,157 1075,146 1075,125 1127,68 1174,73 1226,26 1305,42 1331,37 1331,21 1404,16 1451,37 1477,42 1534,0 1581,73 1607,125 1654,125 1686,183 1759,178 1785,162 1826,214 1873,214 2014,209 2030,246 2072,282 2140,308 2160,329 2192,350 2270,345 2338,308 2369,293 2427,293 2479,329 2500,350 2541,361 2578,376 2568,434 2588,455 2583,559 2505,575 2588,664 2635,716 2693,726 2714,742 2714,758 2677,784 "/>
   </g>
  </g>
 </g>
</svg>
