<?xml version="1.0" encoding="UTF-8"?>
<!DOCTYPE svg PUBLIC "-//W3C//DTD SVG 1.1//EN" "http://www.w3.org/Graphics/SVG/1.1/DTD/svg11.dtd">
<!-- Creator: CorelDRAW X8 -->
<svg xmlns="http://www.w3.org/2000/svg" xml:space="preserve" width="100%" height="100%" version="1.1" shape-rendering="geometricPrecision" text-rendering="geometricPrecision" image-rendering="optimizeQuality" fill-rule="evenodd" clip-rule="evenodd"
viewBox="0 0 3109 2083"
 xmlns:xlink="http://www.w3.org/1999/xlink">
 <g id="Layer_x0020_1">
  <metadata id="CorelCorpID_0Corel-Layer"/>
  <g id="Layers">
   <g id="India_Districts_selection">
    <polygon fill="#6EA97F" points="1744,1374 1744,1356 1701,1319 1658,1283 1603,1270 1597,1252 1530,1252 1530,1270 1469,1276 1299,1276 1079,1289 1067,1301 957,1319 957,1350 933,1362 927,1411 890,1429 854,1460 854,1533 890,1564 933,1576 963,1612 1012,1637 1061,1637 1122,1655 1128,1686 1219,1680 1268,1692 1299,1722 1347,1753 1378,1771 1402,1802 1372,1863 1335,1906 1280,1918 1238,1954 1201,1967 1177,2003 1134,2003 1079,1991 1036,1967 988,1967 957,1936 927,1936 799,1948 762,1985 719,2046 683,2083 646,2077 628,2052 598,2052 555,2034 555,1991 567,1961 567,1936 555,1924 518,1924 506,1906 457,1875 421,1857 408,1826 366,1832 360,1771 341,1753 280,1704 226,1680 189,1661 146,1643 146,1576 128,1551 122,1490 98,1435 61,1393 37,1356 6,1313 0,1222 12,1032 30,1026 49,996 73,971 85,941 140,934 207,953 238,971 463,965 469,996 518,983 537,941 537,916 555,861 549,806 543,751 524,721 506,684 469,666 427,623 408,617 372,592 378,562 384,531 408,519 408,495 421,470 439,434 439,385 488,360 500,318 524,299 524,263 530,214 537,177 555,147 567,122 591,110 652,134 719,153 762,183 841,189 878,171 908,165 957,147 1006,134 1073,122 1128,104 1134,73 1158,37 1341,24 1439,24 1451,0 1622,6 1640,49 1640,73 1683,116 1707,147 1719,183 1750,232 1823,232 1866,238 1896,324 1945,324 1988,366 2018,403 2061,403 2116,428 2177,440 2213,446 2268,489 2292,507 2341,537 2372,568 2414,586 2463,617 2512,629 2542,654 2579,660 2579,770 2628,776 2683,812 2707,812 2738,849 2811,879 2853,934 2884,959 2927,1014 2988,1087 3012,1118 3042,1142 3067,1148 3079,1197 3079,1246 3055,1264 3048,1319 3061,1350 3073,1374 3079,1405 3109,1435 3109,1460 3048,1472 3024,1496 2927,1521 2914,1545 2884,1539 2866,1557 2799,1570 2756,1564 2744,1600 2738,1612 2603,1631 2396,1606 2207,1594 2201,1564 1994,1564 1957,1478 1829,1368 "/>
   </g>
  </g>
 </g>
</svg>
