<?xml version="1.0" encoding="UTF-8"?>
<!DOCTYPE svg PUBLIC "-//W3C//DTD SVG 1.1//EN" "http://www.w3.org/Graphics/SVG/1.1/DTD/svg11.dtd">
<!-- Creator: CorelDRAW X8 -->
<svg xmlns="http://www.w3.org/2000/svg" xml:space="preserve" width="100%" height="100%" version="1.1" shape-rendering="geometricPrecision" text-rendering="geometricPrecision" image-rendering="optimizeQuality" fill-rule="evenodd" clip-rule="evenodd"
viewBox="0 0 1617 2534"
 xmlns:xlink="http://www.w3.org/1999/xlink">
 <g id="Layer_x0020_1">
  <metadata id="CorelCorpID_0Corel-Layer"/>
  <g id="Layers">
   <g id="India_Districts_selection">
    <polygon fill="#6EA97F" points="1617,1977 1521,2126 1410,2244 1335,2259 1276,2296 1224,2401 1165,2534 1150,2497 987,2415 772,2363 757,2207 623,2178 512,2051 415,1992 304,1984 319,1776 267,1754 267,1665 364,1665 334,1472 193,1271 200,691 52,290 0,164 96,126 230,59 349,0 482,82 571,193 757,216 913,349 950,498 1187,669 1254,736 1261,1011 1261,1159 1491,1226 1439,1375 1350,1427 1321,1516 1373,1665 1469,1858 1551,1940 "/>
   </g>
  </g>
 </g>
</svg>
