<?xml version="1.0" encoding="UTF-8"?>
<!DOCTYPE svg PUBLIC "-//W3C//DTD SVG 1.1//EN" "http://www.w3.org/Graphics/SVG/1.1/DTD/svg11.dtd">
<!-- Creator: CorelDRAW X8 -->
<svg xmlns="http://www.w3.org/2000/svg" xml:space="preserve" width="100%" height="100%" version="1.1" shape-rendering="geometricPrecision" text-rendering="geometricPrecision" image-rendering="optimizeQuality" fill-rule="evenodd" clip-rule="evenodd"
viewBox="0 0 11364 6448"
 xmlns:xlink="http://www.w3.org/1999/xlink">
 <g id="Layer_x0020_1">
  <metadata id="CorelCorpID_0Corel-Layer"/>
  <g id="Layers">
   <g id="India_Districts_selection">
    <polygon fill="#6EA97F" points="11194,76 11364,454 11137,700 10949,1399 10779,1967 10628,2004 9061,2004 8589,1834 8079,2137 7664,2515 7475,2572 6607,2742 6362,2855 6154,3347 5493,3952 5399,4406 5059,4576 4833,5049 4436,5011 4040,5125 3643,5578 3624,6032 3152,6448 2643,6392 2586,6259 2246,6240 1340,6202 1057,6392 642,6429 604,6165 642,5465 302,5427 283,5087 57,4690 19,4274 0,3933 132,4009 604,4047 1303,3839 2246,3309 2907,3026 3719,2780 4417,2553 5304,2175 6569,1475 7532,964 8136,511 8665,435 9137,170 9759,0 10288,76 10835,95 "/>
   </g>
  </g>
 </g>
</svg>
