<?xml version="1.0" encoding="UTF-8"?>
<!DOCTYPE svg PUBLIC "-//W3C//DTD SVG 1.1//EN" "http://www.w3.org/Graphics/SVG/1.1/DTD/svg11.dtd">
<!-- Creator: CorelDRAW X8 -->
<svg xmlns="http://www.w3.org/2000/svg" xml:space="preserve" width="100%" height="100%" version="1.1" shape-rendering="geometricPrecision" text-rendering="geometricPrecision" image-rendering="optimizeQuality" fill-rule="evenodd" clip-rule="evenodd"
viewBox="0 0 3691 2243"
 xmlns:xlink="http://www.w3.org/1999/xlink">
 <g id="Layer_x0020_1">
  <metadata id="CorelCorpID_0Corel-Layer"/>
  <g id="Layers">
   <g id="India_Districts_selection">
    <polygon fill="#6EA97F" points="3631,1513 3671,1697 3691,1770 2371,1796 2141,1849 1747,1835 1524,1947 1359,2098 1281,2164 1044,2112 926,2138 775,2243 729,2138 650,1677 348,1125 486,1112 486,980 276,954 190,618 20,546 0,309 322,263 512,191 735,151 939,112 1031,26 1497,0 1799,39 2141,0 2252,59 2154,329 1911,592 1852,684 2167,960 2633,1342 2850,1441 3100,1480 3316,1605 3480,1579 "/>
   </g>
  </g>
 </g>
</svg>
