<?xml version="1.0" encoding="UTF-8"?>
<!DOCTYPE svg PUBLIC "-//W3C//DTD SVG 1.1//EN" "http://www.w3.org/Graphics/SVG/1.1/DTD/svg11.dtd">
<!-- Creator: CorelDRAW X8 -->
<svg xmlns="http://www.w3.org/2000/svg" xml:space="preserve" width="100%" height="100%" version="1.1" shape-rendering="geometricPrecision" text-rendering="geometricPrecision" image-rendering="optimizeQuality" fill-rule="evenodd" clip-rule="evenodd"
viewBox="0 0 2107 1631"
 xmlns:xlink="http://www.w3.org/1999/xlink">
 <g id="Layer_x0020_1">
  <metadata id="CorelCorpID_0Corel-Layer"/>
  <g id="Layers">
   <g id="India_Districts_selection">
    <polygon fill="#6EA97F" points="2107,225 2059,258 1969,306 1854,364 1820,407 1806,464 1777,512 1749,564 1720,651 1734,708 1744,995 1844,1153 1792,1301 1701,1344 1548,1344 1199,1358 1185,1416 1137,1449 1132,1540 1104,1617 941,1631 841,1602 831,1555 779,1555 774,1521 573,1521 526,1492 530,1167 492,1119 473,1057 416,1028 420,966 330,837 239,784 86,775 33,722 0,674 29,660 38,502 115,454 143,435 205,387 225,368 263,344 320,435 363,478 449,478 449,502 526,512 645,631 693,641 698,703 841,689 903,564 922,536 975,541 1032,631 1085,617 1166,517 1195,464 1190,364 1309,330 1386,335 1400,301 1472,306 1472,344 1577,325 1591,301 1658,268 1663,153 1706,120 1825,115 1844,86 1911,81 1921,38 1997,0 2050,5 2064,24 2102,38 "/>
   </g>
  </g>
 </g>
</svg>
