<?xml version="1.0" encoding="UTF-8"?>
<!DOCTYPE svg PUBLIC "-//W3C//DTD SVG 1.1//EN" "http://www.w3.org/Graphics/SVG/1.1/DTD/svg11.dtd">
<!-- Creator: CorelDRAW X8 -->
<svg xmlns="http://www.w3.org/2000/svg" xml:space="preserve" width="100%" height="100%" version="1.1" shape-rendering="geometricPrecision" text-rendering="geometricPrecision" image-rendering="optimizeQuality" fill-rule="evenodd" clip-rule="evenodd"
viewBox="0 0 2365 1631"
 xmlns:xlink="http://www.w3.org/1999/xlink">
 <g id="Layer_x0020_1">
  <metadata id="CorelCorpID_0Corel-Layer"/>
  <g id="Layers">
   <g id="India_Districts_selection">
    <polygon fill="#6EA97F" points="1797,301 1816,521 1878,622 2002,727 2064,751 2059,775 1926,899 2031,1114 2241,1339 2365,1492 2317,1559 2284,1631 2179,1598 2112,1531 2035,1545 1978,1559 1835,1569 1787,1583 1677,1607 1582,1578 1472,1468 1338,1459 1290,1492 1223,1535 1152,1516 1085,1483 951,1344 698,1368 664,1440 588,1531 473,1459 416,1421 225,1378 43,1382 48,1263 5,1105 0,1071 0,1067 48,1067 158,1052 191,1019 301,1019 387,1014 511,966 631,904 784,842 669,708 511,651 497,603 569,507 616,426 621,440 722,430 827,282 941,196 1032,167 1285,96 1362,0 1438,29 1543,81 1625,110 1792,129 1835,187 "/>
   </g>
  </g>
 </g>
</svg>
