<?xml version="1.0" encoding="UTF-8"?>
<!DOCTYPE svg PUBLIC "-//W3C//DTD SVG 1.1//EN" "http://www.w3.org/Graphics/SVG/1.1/DTD/svg11.dtd">
<!-- Creator: CorelDRAW X8 -->
<svg xmlns="http://www.w3.org/2000/svg" xml:space="preserve" width="100%" height="100%" version="1.1" shape-rendering="geometricPrecision" text-rendering="geometricPrecision" image-rendering="optimizeQuality" fill-rule="evenodd" clip-rule="evenodd"
viewBox="0 0 2943 1631"
 xmlns:xlink="http://www.w3.org/1999/xlink">
 <g id="Layer_x0020_1">
  <metadata id="CorelCorpID_0Corel-Layer"/>
  <g id="Layers">
   <g id="India_Districts_selection">
    <polygon fill="#6EA97F" points="368,1631 358,1445 320,1401 334,1291 96,1301 57,1224 0,1138 57,1095 43,981 115,894 277,885 330,818 363,746 358,799 492,746 607,741 592,627 640,545 698,474 755,517 941,301 1089,215 1371,163 1443,86 1548,62 1792,86 2112,139 2284,201 2365,201 2518,67 2666,0 2843,67 2943,163 2938,335 2852,402 2503,383 2432,631 2413,708 2279,808 2078,837 1964,880 1930,966 1844,981 1720,1004 1452,1129 1171,1354 946,1445 774,1550 526,1598 "/>
   </g>
  </g>
 </g>
</svg>
