<?xml version="1.0" encoding="UTF-8"?>
<!DOCTYPE svg PUBLIC "-//W3C//DTD SVG 1.1//EN" "http://www.w3.org/Graphics/SVG/1.1/DTD/svg11.dtd">
<!-- Creator: CorelDRAW X8 -->
<svg xmlns="http://www.w3.org/2000/svg" xml:space="preserve" width="100%" height="100%" version="1.1" shape-rendering="geometricPrecision" text-rendering="geometricPrecision" image-rendering="optimizeQuality" fill-rule="evenodd" clip-rule="evenodd"
viewBox="0 0 1887 1631"
 xmlns:xlink="http://www.w3.org/1999/xlink">
 <g id="Layer_x0020_1">
  <metadata id="CorelCorpID_0Corel-Layer"/>
  <g id="Layers">
   <g id="India_Districts_selection">
    <polygon fill="#6EA97F" points="784,53 788,100 822,134 951,124 980,163 1042,201 1118,225 1123,239 1309,244 1386,191 1462,158 1491,215 1787,215 1873,335 1887,502 1835,564 1830,631 1782,684 1749,722 1691,775 1663,780 1629,794 1625,904 1691,957 1696,957 1682,990 1648,1028 1596,1033 1553,1062 1515,1100 1500,1153 1500,1205 1543,1210 1582,1277 1768,1291 1773,1315 1711,1392 1639,1483 1577,1483 1577,1511 1486,1507 1371,1516 1328,1583 1328,1602 1257,1598 1161,1631 1147,1526 1128,1473 1118,1344 1042,1325 941,1291 884,1282 846,1248 836,1129 822,1114 779,1052 741,985 788,933 765,837 836,804 817,598 621,607 607,641 530,636 473,698 473,799 401,823 358,875 263,871 248,823 201,880 91,875 43,756 62,665 91,603 96,502 0,430 14,263 33,239 33,167 62,110 53,77 57,77 72,29 182,0 186,10 616,24 621,43 "/>
   </g>
  </g>
 </g>
</svg>
