<?xml version="1.0" encoding="UTF-8"?>
<!DOCTYPE svg PUBLIC "-//W3C//DTD SVG 1.1//EN" "http://www.w3.org/Graphics/SVG/1.1/DTD/svg11.dtd">
<!-- Creator: CorelDRAW X8 -->
<svg xmlns="http://www.w3.org/2000/svg" xml:space="preserve" width="100%" height="100%" version="1.1" shape-rendering="geometricPrecision" text-rendering="geometricPrecision" image-rendering="optimizeQuality" fill-rule="evenodd" clip-rule="evenodd"
viewBox="0 0 1585 1932"
 xmlns:xlink="http://www.w3.org/1999/xlink">
 <g id="Layer_x0020_1">
  <metadata id="CorelCorpID_0Corel-Layer"/>
  <g id="Layers">
   <g id="India_Districts_selection">
    <polygon fill="#6EA97F" points="226,1581 226,1434 119,1434 125,1298 40,1275 0,1269 0,1139 40,1139 62,1116 119,1116 158,1071 147,992 181,963 181,907 204,810 283,788 294,822 391,816 419,771 572,776 572,799 600,793 617,742 651,708 804,612 838,578 883,561 928,544 1058,402 1041,357 1030,306 1064,278 1109,221 1132,176 1149,147 1205,147 1222,96 1234,62 1239,68 1347,57 1387,28 1477,23 1585,0 1426,181 1404,232 1426,425 1488,550 1477,567 1409,623 1319,640 1205,669 1081,771 1075,844 1047,912 1002,918 968,952 1002,1014 962,1048 956,1241 996,1286 1036,1241 1036,1196 1143,1201 1166,1179 1234,1179 1239,1156 1307,1156 1398,1247 1426,1292 1438,1332 1449,1383 1370,1434 1234,1530 1211,1524 1194,1479 1036,1485 1036,1502 889,1502 889,1547 860,1564 866,1689 826,1717 798,1717 741,1745 606,1728 606,1881 566,1892 566,1909 436,1909 441,1932 391,1932 402,1904 345,1830 323,1762 345,1706 311,1677 "/>
   </g>
  </g>
 </g>
</svg>
