<?xml version="1.0" encoding="UTF-8"?>
<!DOCTYPE svg PUBLIC "-//W3C//DTD SVG 1.1//EN" "http://www.w3.org/Graphics/SVG/1.1/DTD/svg11.dtd">
<!-- Creator: CorelDRAW X8 -->
<svg xmlns="http://www.w3.org/2000/svg" xml:space="preserve" width="100%" height="100%" version="1.1" shape-rendering="geometricPrecision" text-rendering="geometricPrecision" image-rendering="optimizeQuality" fill-rule="evenodd" clip-rule="evenodd"
viewBox="0 0 2172 2083"
 xmlns:xlink="http://www.w3.org/1999/xlink">
 <g id="Layer_x0020_1">
  <metadata id="CorelCorpID_0Corel-Layer"/>
  <g id="Layers">
   <g id="India_Districts_selection">
    <polygon fill="#6EA97F" points="531,513 567,476 622,409 708,379 836,360 933,452 1025,537 1074,629 1220,641 1287,556 1367,519 1495,513 1574,476 1659,366 1751,281 1794,177 1806,116 1830,104 1842,43 1842,0 1977,0 2019,98 2141,128 2172,232 2160,513 2123,507 2038,562 2019,611 2019,708 1989,782 1873,818 1726,879 1641,971 1641,1069 1678,1191 1684,1258 1647,1301 1470,1350 1336,1356 1324,1313 1232,1173 1153,1130 1068,1167 1019,1228 903,1252 775,1270 671,1289 610,1411 561,1588 555,1741 592,1918 567,2003 470,2046 403,2083 390,1967 226,1948 104,1918 0,1851 6,1735 98,1582 171,1521 268,1490 275,1417 390,1325 390,1173 403,1020 482,934 537,898 543,800 549,544 "/>
   </g>
  </g>
 </g>
</svg>
