<?xml version="1.0" encoding="UTF-8"?>
<!DOCTYPE svg PUBLIC "-//W3C//DTD SVG 1.1//EN" "http://www.w3.org/Graphics/SVG/1.1/DTD/svg11.dtd">
<!-- Creator: CorelDRAW -->
<svg xmlns="http://www.w3.org/2000/svg" xml:space="preserve" width="100%" height="100%" style="shape-rendering:geometricPrecision; text-rendering:geometricPrecision; image-rendering:optimizeQuality; fill-rule:evenodd; clip-rule:evenodd"
viewBox="0 0 302809 221655"
 xmlns:xlink="http://www.w3.org/1999/xlink">
 <defs>
  <style type="text/css">
   <![CDATA[
    .fil0 {fill:#6EA97F}
   ]]>
  </style>
 </defs>
 <g id="Layer_x0020_1">
  <metadata id="CorelCorpID_0Corel-Layer"/>
  <polygon class="fil0" points="187694,-1.5748 185169,3588.58 184637,6248.03 185036,9971.26 185966,11168.1 187163,11433.9 192214,7046.06 193809,9572.44 197664,7843.7 199791,7444.88 201519,11035 200854,14359.1 200987,15954.7 201519,16619.7 203247,17683.5 203779,18481.1 203646,21672.4 205108,27257.1 204709,28719.7 204975,32841.7 205906,33772.4 207235,34038.6 208697,33373.6 210026,30980.3 211356,30182.3 215211,29384.6 215476,28453.9 215078,26725.2 215343,24730.7 216939,25395.7 219597,27523.2 219730,30448.4 220395,31512.2 220661,31778 221458,31911 225712,25927.6 227440,24065.7 227174,29517.3 228902,33506.7 230497,36033.1 232358,36431.9 233820,34171.7 235681,32841.7 237011,32576 240201,36565 244056,38426.4 246715,40553.9 250304,46271.7 251500,46803.5 254823,46936.2 256285,47734.3 258013,50127.6 258944,52255.1 260141,52255.1 260539,51989.4 262400,49463 266920,48398.8 267983,48931.1 267584,52520.9 269977,55845.3 269711,56909.1 269977,57307.9 272370,58371.7 273699,59967.3 274630,61696.1 275161,64488.2 279017,68610.2 279947,70604.7 281276,70471.7 284200,68610.2 285663,68477.2 290581,70870.9 291512,71668.5 293506,78848.8 291910,81774 291644,83502.8 293107,86959.8 294170,91347.6 295898,93608.3 295898,94273.2 294569,97597.2 291246,99059.8 289917,99990.6 285397,102517 288587,105309 288853,106373 283270,111958 286061,116346 287125,119537 293904,120335 297892,122728 302146,124856 302811,125787 302412,126850 300019,128845 297361,129377 294835,130839 291113,134031 285264,133499 283270,133898 281010,133898 279017,133233 277554,132435 275294,132169 273035,134563 268914,134695 264394,136690 260672,139216 255222,141211 250171,145865 247113,145333 244854,145599 243126,145067 242062,145599 239802,147593 237144,148258 236080,149189 235416,150253 234485,155439 233954,157034 232093,159428 229966,160358 228636,160225 226642,161023 223851,163948 221192,167804 220528,170464 220262,173788 217736,176979 216274,177378 210691,174586 207368,174187 204975,174453 203114,172724 196866,171262 195670,171129 190353,172326 189156,171793 185435,172458 183175,172193 178256,170198 176794,169267 174667,170597 172009,169533 170680,168204 169350,168070 169749,175118 172274,176846 172806,177777 173870,181367 177592,185090 178655,187351 176395,187484 173338,185489 170812,184559 162704,184957 157519,183894 150341,184026 148613,187883 148347,190143 148746,194930 147151,198520 146220,202110 144493,204105 143030,206897 142365,208892 141302,209689 140372,209556 139308,210221 139574,212615 140903,212349 141834,213678 141302,218598 139574,219529 138244,219662 136915,218997 135320,216870 133193,216471 130933,217535 129072,220593 126148,220992 123357,221657 122293,221258 122028,221258 119900,221391 118704,221125 116710,220460 116178,220194 114318,220327 113121,219928 112191,218731 111260,217402 109399,217003 107538,216870 107272,216870 105677,217003 104614,217136 103284,216604 101955,216338 99961,216471 98897.6,216338 97834.3,215540 97169.7,213678 95973.2,213147 93979.5,213413 92650,213147 91586.6,213147 89991.3,213280 88529.1,213280 86003.5,213280 85205.9,213014 84807.5,212216 84408.7,211285 85870.9,209689 87200,208094 88396.5,207562 89326.8,206631 89459.8,205302 89326.8,203706 89194.1,202642 87465.7,201844 85073.2,200381 82547.6,199717 80686.6,199185 78559.4,198919 76565.7,199052 74970.5,199717 74040.2,201313 72976.8,202775 71248.4,202642 69919.3,202908 69387.4,203839 66994.9,203440 57955.5,200914 55563,200781 53170.1,200249 51442.1,199318 50378.7,198520 47985.8,198121 43466.5,197191 42137,196792 41206.7,196260 39478.3,194664 35091.7,193202 31768.5,192270 30838.2,191872 30040.6,192803 29907.5,193069 29242.9,192537 27780.7,191340 27116.1,188548 25520.9,187883 23394.1,187218 20868.5,186287 19937.8,185356 19406.3,184026 20336.6,182830 20868.5,182032 22862.6,182165 25787,182830 26052.8,182830 27381.9,182963 28844.5,182165 26318.5,181101 23660.2,180570 21400.4,179639 19007.5,179373 17013.4,178841 14753.9,178442 17412.2,168868 17013.4,165145 16216.1,161023 17146.5,156369 18608.7,152779 20070.9,151449 19672,149588 22065,146396 27249.2,142939 30306.3,135227 31635.8,130441 32034.6,123792 28578.3,117676 26850.4,113952 19140.6,111958 15285.4,109963 12361,103182 12095.3,94405.9 13291.7,88821.3 13823.2,84167.7 11696.5,81641.3 7442.52,78316.9 7442.52,71801.6 4784.25,68477.2 -1.1811,61031.1 1195.28,53717.7 4385.43,50792.5 11962.2,46670.5 19406.3,45473.6 25919.7,44542.9 31635.8,39756.3 40010.2,32442.9 43599.2,28453.9 50245.7,26060.6 55296.9,25129.5 60879.9,24331.9 69254.7,24065.7 75103.5,24597.6 80287.8,25794.5 86402.4,27257.1 98765,24730.7 104614,24597.6 116046,21805.5 124154,19811 131731,18747.2 142100,15024 148879,10768.9 154728,7179.13 162039,6779.92 169616,8508.66 174667,8907.48 181048,1461.42 185435,-1.5748 "/>
 </g>
</svg>
