<?xml version="1.0" encoding="UTF-8"?>
<!DOCTYPE svg PUBLIC "-//W3C//DTD SVG 1.1//EN" "http://www.w3.org/Graphics/SVG/1.1/DTD/svg11.dtd">
<!-- Creator: CorelDRAW X8 -->
<svg xmlns="http://www.w3.org/2000/svg" xml:space="preserve" width="100%" height="100%" version="1.1" shape-rendering="geometricPrecision" text-rendering="geometricPrecision" image-rendering="optimizeQuality" fill-rule="evenodd" clip-rule="evenodd"
viewBox="0 0 1434 2083"
 xmlns:xlink="http://www.w3.org/1999/xlink">
 <g id="Layer_x0020_1">
  <metadata id="CorelCorpID_0Corel-Layer"/>
  <g id="Layers">
   <g id="India_Districts_selection">
    <polygon fill="#6EA97F" points="1263,495 1342,617 1324,800 1397,879 1403,1026 1434,1154 1422,1368 1354,1466 1287,1551 1226,1692 1202,1790 1257,1881 1354,1985 1348,2077 1202,2077 988,2083 915,2070 903,2040 683,2046 531,1906 311,1820 195,1802 116,1783 0,1728 12,1655 134,1594 275,1570 268,1527 183,1374 104,1356 85,1215 31,1154 6,1081 37,1014 104,1002 134,861 67,812 43,733 116,629 183,611 262,586 342,568 336,366 287,238 275,165 165,165 134,67 116,43 128,0 311,0 500,73 598,165 689,24 714,37 726,366 915,391 1049,409 1129,501 1251,501 "/>
   </g>
  </g>
 </g>
</svg>
