<?xml version="1.0" encoding="UTF-8"?>
<!DOCTYPE svg PUBLIC "-//W3C//DTD SVG 1.1//EN" "http://www.w3.org/Graphics/SVG/1.1/DTD/svg11.dtd">
<!-- Creator: CorelDRAW X8 -->
<svg xmlns="http://www.w3.org/2000/svg" xml:space="preserve" width="100%" height="100%" version="1.1" shape-rendering="geometricPrecision" text-rendering="geometricPrecision" image-rendering="optimizeQuality" fill-rule="evenodd" clip-rule="evenodd"
viewBox="0 0 3583 2233"
 xmlns:xlink="http://www.w3.org/1999/xlink">
 <g id="Layer_x0020_1">
  <metadata id="CorelCorpID_0Corel-Layer"/>
  <g id="Layers">
   <g id="India_Districts_selection">
    <polygon fill="#6EA97F" points="3583,576 3550,609 3471,642 3373,720 3328,701 3007,707 2896,766 2903,884 2707,897 2517,740 2340,727 2138,897 1955,1113 2001,1218 2027,1552 2282,1794 2151,1958 2177,2227 1909,2233 1863,2148 1661,2142 1595,2187 1281,2181 1164,2024 1046,1978 883,2037 778,2056 726,1899 601,1834 490,1742 445,1735 346,1605 78,1532 7,1460 0,1349 150,1231 353,1159 706,969 941,806 1157,622 1236,347 1249,269 1628,275 1824,157 2491,164 2628,39 2635,52 2739,0 2929,190 3262,439 3432,386 3530,517 "/>
   </g>
  </g>
 </g>
</svg>
