<?xml version="1.0" encoding="UTF-8"?>
<!DOCTYPE svg PUBLIC "-//W3C//DTD SVG 1.1//EN" "http://www.w3.org/Graphics/SVG/1.1/DTD/svg11.dtd">
<!-- Creator: CorelDRAW X8 -->
<svg xmlns="http://www.w3.org/2000/svg" xml:space="preserve" width="100%" height="100%" version="1.1" shape-rendering="geometricPrecision" text-rendering="geometricPrecision" image-rendering="optimizeQuality" fill-rule="evenodd" clip-rule="evenodd"
viewBox="0 0 2563 2233"
 xmlns:xlink="http://www.w3.org/1999/xlink">
 <g id="Layer_x0020_1">
  <metadata id="CorelCorpID_0Corel-Layer"/>
  <g id="Layers">
   <g id="India_Districts_selection">
    <polygon fill="#6EA97F" points="1288,2030 1170,2135 601,2128 438,2233 118,2220 124,2148 131,1906 190,1781 209,1591 65,1474 20,1343 0,1166 118,1120 268,1054 353,982 523,884 588,825 713,832 804,878 987,963 1321,969 1373,917 1582,930 1687,871 1850,773 1948,616 1948,406 1981,301 2053,249 2046,157 2014,98 2053,33 2144,0 2288,13 2425,164 2484,203 2445,288 2478,393 2563,511 2517,681 2242,740 2118,963 2164,1094 2275,1159 2275,1264 2164,1375 2223,1644 2144,1762 2099,1821 1916,1827 1752,1762 1654,1755 1634,1801 1373,1801 1249,1939 "/>
   </g>
  </g>
 </g>
</svg>
