<?xml version="1.0" encoding="UTF-8"?>
<!DOCTYPE svg PUBLIC "-//W3C//DTD SVG 1.1//EN" "http://www.w3.org/Graphics/SVG/1.1/DTD/svg11.dtd">
<!-- Creator: CorelDRAW X8 -->
<svg xmlns="http://www.w3.org/2000/svg" xml:space="preserve" width="100%" height="100%" version="1.1" shape-rendering="geometricPrecision" text-rendering="geometricPrecision" image-rendering="optimizeQuality" fill-rule="evenodd" clip-rule="evenodd"
viewBox="0 0 1842 1782"
 xmlns:xlink="http://www.w3.org/1999/xlink">
 <g id="Layer_x0020_1">
  <metadata id="CorelCorpID_0Corel-Layer"/>
  <g id="Layers">
   <g id="India_Districts_selection">
    <polygon fill="#6EA97F" points="1644,1782 1440,1782 1409,1740 1404,1646 1352,1552 1414,1499 1399,1280 1378,1223 1216,1212 1185,1149 1127,1144 1122,1123 939,1123 934,1040 793,1029 778,1066 532,1050 522,940 449,825 381,773 214,946 104,940 0,862 5,815 31,810 37,726 78,679 157,679 167,601 235,601 313,496 381,413 376,381 172,371 130,298 78,287 78,230 94,172 136,125 183,99 245,89 282,47 292,16 475,0 569,16 579,37 710,37 725,68 793,68 840,10 1018,10 1059,0 1059,26 1284,31 1279,63 1331,68 1341,37 1503,26 1545,99 1576,157 1644,193 1712,240 1780,261 1780,596 1733,653 1670,674 1628,684 1618,914 1649,946 1660,1170 1754,1264 1764,1322 1842,1411 1837,1583 1764,1708 "/>
   </g>
  </g>
 </g>
</svg>
