<?xml version="1.0" encoding="UTF-8"?>
<!DOCTYPE svg PUBLIC "-//W3C//DTD SVG 1.1//EN" "http://www.w3.org/Graphics/SVG/1.1/DTD/svg11.dtd">
<!-- Creator: CorelDRAW X8 -->
<svg xmlns="http://www.w3.org/2000/svg" xml:space="preserve" width="100%" height="100%" version="1.1" shape-rendering="geometricPrecision" text-rendering="geometricPrecision" image-rendering="optimizeQuality" fill-rule="evenodd" clip-rule="evenodd"
viewBox="0 0 7336 7201"
 xmlns:xlink="http://www.w3.org/1999/xlink">
 <g id="Layer_x0020_1">
  <metadata id="CorelCorpID_0Corel-Layer"/>
  <g id="Layers">
   <g id="India_Districts_selection">
    <polygon fill="#6EA97F" points="5629,7201 5333,6990 4912,6779 4300,6377 4343,5976 4090,5786 3584,5765 3120,5997 2846,6124 2488,5892 2192,5807 1982,5976 1771,5786 1012,5744 1138,5596 1349,5322 1623,5110 1813,5005 2066,4878 2235,4773 2256,4561 2045,4350 1792,4118 1539,4076 1370,3928 1012,3653 675,3400 443,3273 232,3125 84,2999 0,2787 105,2534 337,2365 316,2302 506,2217 632,2112 801,1985 970,1901 1054,1626 1223,1520 1476,1563 1539,1394 1771,1436 1918,1288 2150,1330 2298,1183 2488,845 2719,634 3141,169 3331,0 3352,21 3668,253 3921,443 4047,612 4659,634 5333,634 5565,781 5839,1119 6029,1415 6134,1520 6240,1732 6134,1879 6134,2217 6198,2386 6324,2513 6619,2597 6914,2766 7146,2978 7294,3231 7336,3590 7315,3780 7146,3928 7020,4139 7020,4202 6957,4223 6872,4392 6661,4646 6577,4941 6366,5216 6198,5469 6092,5681 5881,6061 5776,6441 5755,6779 5671,7053 "/>
   </g>
  </g>
 </g>
</svg>
