<?xml version="1.0" encoding="UTF-8"?>
<!DOCTYPE svg PUBLIC "-//W3C//DTD SVG 1.1//EN" "http://www.w3.org/Graphics/SVG/1.1/DTD/svg11.dtd">
<!-- Creator: CorelDRAW X8 -->
<svg xmlns="http://www.w3.org/2000/svg" xml:space="preserve" width="100%" height="100%" version="1.1" shape-rendering="geometricPrecision" text-rendering="geometricPrecision" image-rendering="optimizeQuality" fill-rule="evenodd" clip-rule="evenodd"
viewBox="0 0 2236 2233"
 xmlns:xlink="http://www.w3.org/1999/xlink">
 <g id="Layer_x0020_1">
  <metadata id="CorelCorpID_0Corel-Layer"/>
  <g id="Layers">
   <g id="India_Districts_selection">
    <polygon fill="#6EA97F" points="1732,39 1778,105 1844,138 1968,124 2079,105 2099,183 2236,275 2223,341 2151,491 2151,596 2118,688 2033,806 1942,812 1902,851 1870,910 1798,910 1791,969 1752,1126 1674,1225 1569,1192 1399,1192 1399,1264 1451,1329 1445,1441 1347,1460 1360,1565 1445,1631 1700,1729 1693,1762 1628,1873 1680,1919 1772,2030 1706,2122 1641,2181 1608,2155 1602,2122 1569,2122 1451,2233 1347,2233 1301,2187 1301,2056 1255,2030 1203,2050 1131,2109 1066,2096 1066,2135 1072,2142 1059,2148 1059,2161 1046,2174 1033,2187 1026,2200 1013,2207 994,2194 987,2181 987,2168 994,2148 1013,2128 1026,2109 1039,2083 1046,2063 1039,2050 1033,2030 1020,2030 1013,2030 1000,2037 974,2043 961,2063 941,2083 922,2096 883,2096 837,2089 824,2076 804,2063 785,2011 771,1965 758,1952 745,1952 726,1945 719,1925 713,1906 693,1893 667,1893 647,1899 621,1912 595,1925 562,1939 543,1932 516,1925 497,1939 477,1952 451,1952 431,1945 399,1906 412,1880 418,1847 438,1814 458,1781 464,1716 471,1657 510,1637 562,1598 569,1539 549,1519 530,1493 477,1500 458,1480 438,1447 405,1415 360,1395 307,1395 255,1382 209,1349 177,1323 144,1323 92,1277 65,1231 85,1179 118,1126 137,1067 124,1041 111,995 98,976 98,910 92,871 33,845 26,799 7,740 0,720 46,714 118,688 163,661 209,629 235,609 268,583 301,544 333,517 379,485 431,465 497,445 536,426 595,393 641,354 667,321 686,301 693,275 765,275 863,295 902,282 909,236 1007,236 1066,164 1203,79 1301,59 1504,72 1589,59 1654,7 1713,0 "/>
   </g>
  </g>
 </g>
</svg>
