<?xml version="1.0" encoding="UTF-8"?>
<!DOCTYPE svg PUBLIC "-//W3C//DTD SVG 1.1//EN" "http://www.w3.org/Graphics/SVG/1.1/DTD/svg11.dtd">
<!-- Creator: CorelDRAW X8 -->
<svg xmlns="http://www.w3.org/2000/svg" xml:space="preserve" width="100%" height="100%" version="1.1" shape-rendering="geometricPrecision" text-rendering="geometricPrecision" image-rendering="optimizeQuality" fill-rule="evenodd" clip-rule="evenodd"
viewBox="0 0 3108 3739"
 xmlns:xlink="http://www.w3.org/1999/xlink">
 <g id="Layer_x0020_1">
  <metadata id="CorelCorpID_0Corel-Layer"/>
  <g id="Layers">
   <g id="India_Districts_selection">
    <polygon fill="#6EA97F" points="1510,3739 1456,3717 1346,3662 1335,3486 1259,3475 1237,3519 810,3508 810,3475 635,3475 602,3443 525,3432 514,3410 471,3410 405,3322 405,3256 350,3223 197,3190 197,3158 77,3081 44,3015 22,2851 0,2840 11,2664 22,2631 44,2565 120,2555 164,2631 285,2620 328,2587 328,2565 427,2565 416,2598 591,2587 602,2565 679,2544 700,2587 755,2609 799,2565 821,2500 854,2445 865,2401 908,2401 985,2379 1007,2324 1062,2215 1051,2105 1007,2094 1029,2006 1160,1886 1138,1809 1116,1787 1116,1601 1018,1612 974,1579 985,1031 919,954 919,756 996,746 1029,691 1029,625 854,614 843,395 887,351 908,296 985,252 974,143 1051,77 1073,33 1116,33 1182,0 1357,77 1532,153 1587,186 1664,186 1685,175 1872,153 1861,219 1740,340 1696,417 1620,428 1565,504 1543,603 1499,658 1510,921 1598,921 1598,1009 1642,1053 1751,1053 1806,1020 1948,1009 2069,1107 2156,1195 2167,1151 2276,1129 2309,1162 2495,1162 2550,1085 2670,1085 2922,1074 2944,1140 3021,1206 3097,1250 3108,1250 3108,1414 3010,1480 2922,1502 2878,1579 2802,1612 2714,1634 2528,1645 2463,1699 2353,1710 2320,1798 2287,1809 2298,1962 2255,1973 2255,2094 2309,2127 2266,2171 2222,2204 2189,2248 2189,2269 2156,2280 2156,2324 2069,2346 2069,2357 2014,2434 1970,2489 1904,2511 1839,2565 1839,2631 1784,2631 1729,2938 1653,3245 1543,3399 "/>
   </g>
  </g>
 </g>
</svg>
