<?xml version="1.0" encoding="UTF-8"?>
<!DOCTYPE svg PUBLIC "-//W3C//DTD SVG 1.1//EN" "http://www.w3.org/Graphics/SVG/1.1/DTD/svg11.dtd">
<!-- Creator: CorelDRAW X8 -->
<svg xmlns="http://www.w3.org/2000/svg" xml:space="preserve" width="100%" height="100%" version="1.1" shape-rendering="geometricPrecision" text-rendering="geometricPrecision" image-rendering="optimizeQuality" fill-rule="evenodd" clip-rule="evenodd"
viewBox="0 0 2355 1481"
 xmlns:xlink="http://www.w3.org/1999/xlink">
 <g id="Layer_x0020_1">
  <metadata id="CorelCorpID_0Corel-Layer"/>
  <g id="Layers">
   <g id="India_Districts_selection">
    <polygon fill="#6EA97F" points="2251,0 2242,69 2212,152 2182,204 2190,313 2299,347 2355,425 2342,491 2286,586 2325,664 2277,751 2182,755 2060,821 2004,890 1978,946 1904,1042 1787,973 1626,968 1600,1116 1579,1198 1470,1229 1401,1255 1375,1337 1240,1407 1141,1472 1041,1481 1041,1450 763,1450 750,1481 664,1476 664,1454 607,1450 494,1320 382,1294 226,1294 147,1385 95,1389 13,1433 0,1311 126,1220 134,1133 221,1051 230,977 425,816 503,677 560,621 620,547 677,465 950,460 1006,417 1089,326 1193,274 1423,269 1527,300 1644,499 1809,486 1878,386 1913,287 1969,204 2004,148 2034,91 2056,39 2173,0 "/>
   </g>
  </g>
 </g>
</svg>
