<?xml version="1.0" encoding="UTF-8"?>
<!DOCTYPE svg PUBLIC "-//W3C//DTD SVG 1.1//EN" "http://www.w3.org/Graphics/SVG/1.1/DTD/svg11.dtd">
<!-- Creator: CorelDRAW X8 -->
<svg xmlns="http://www.w3.org/2000/svg" xml:space="preserve" width="100%" height="100%" version="1.1" shape-rendering="geometricPrecision" text-rendering="geometricPrecision" image-rendering="optimizeQuality" fill-rule="evenodd" clip-rule="evenodd"
viewBox="0 0 2323 1782"
 xmlns:xlink="http://www.w3.org/1999/xlink">
 <g id="Layer_x0020_1">
  <metadata id="CorelCorpID_0Corel-Layer"/>
  <g id="Layers">
   <g id="India_Districts_selection">
    <polygon fill="#6EA97F" points="2218,125 2208,204 2187,277 2213,293 2197,303 2135,402 2171,449 2307,481 2323,664 2286,721 2161,810 2098,982 2129,1139 1968,1233 1921,1327 1915,1400 1816,1468 1592,1635 1435,1672 1263,1740 1127,1782 1028,1604 960,1217 814,1191 532,1071 355,946 386,867 444,731 428,569 214,481 125,361 0,261 89,199 141,225 277,287 334,199 438,204 574,162 605,136 846,136 919,193 1018,230 1091,104 1174,110 1258,78 1430,0 1498,89 1561,110 "/>
   </g>
  </g>
 </g>
</svg>
