<?xml version="1.0" encoding="UTF-8"?>
<!DOCTYPE svg PUBLIC "-//W3C//DTD SVG 1.1//EN" "http://www.w3.org/Graphics/SVG/1.1/DTD/svg11.dtd">
<!-- Creator: CorelDRAW X8 -->
<svg xmlns="http://www.w3.org/2000/svg" xml:space="preserve" width="100%" height="100%" version="1.1" shape-rendering="geometricPrecision" text-rendering="geometricPrecision" image-rendering="optimizeQuality" fill-rule="evenodd" clip-rule="evenodd"
viewBox="0 0 2130 2384"
 xmlns:xlink="http://www.w3.org/1999/xlink">
 <g id="Layer_x0020_1">
  <metadata id="CorelCorpID_0Corel-Layer"/>
  <g id="Layers">
   <g id="India_Districts_selection">
    <polygon fill="#6EA97F" points="1669,1007 1690,1077 1753,1146 1788,1258 1844,1349 1955,1426 2067,1552 2116,1615 2130,1825 1997,1929 1795,2034 1494,2034 1264,2251 1075,2384 950,2384 698,2314 649,2048 615,1873 447,1852 251,1950 98,2062 28,1873 0,1566 14,1293 35,790 112,517 321,350 573,119 615,0 859,203 1040,405 1138,601 1159,797 1208,909 1320,972 1425,1111 "/>
   </g>
  </g>
 </g>
</svg>
