<?xml version="1.0" encoding="UTF-8"?>
<!DOCTYPE svg PUBLIC "-//W3C//DTD SVG 1.1//EN" "http://www.w3.org/Graphics/SVG/1.1/DTD/svg11.dtd">
<!-- Creator: CorelDRAW X8 -->
<svg xmlns="http://www.w3.org/2000/svg" xml:space="preserve" width="100%" height="100%" version="1.1" shape-rendering="geometricPrecision" text-rendering="geometricPrecision" image-rendering="optimizeQuality" fill-rule="evenodd" clip-rule="evenodd"
viewBox="0 0 1480 1330"
 xmlns:xlink="http://www.w3.org/1999/xlink">
 <g id="Layer_x0020_1">
  <metadata id="CorelCorpID_0Corel-Layer"/>
  <g id="Layers">
   <g id="India_Districts_selection">
    <polygon fill="#6EA97F" points="1402,1170 1343,1170 1226,1174 1164,1123 1098,1193 1082,1244 1012,1225 903,1205 845,1303 713,1310 565,1330 467,1236 417,1240 288,1256 183,1295 113,1291 86,1264 109,1232 148,1154 86,1119 86,987 117,920 164,850 214,764 167,706 128,632 0,515 0,441 23,355 90,226 152,117 308,78 432,55 572,43 639,98 705,98 759,4 860,0 950,74 1082,66 1090,47 1129,74 1203,156 1413,168 1413,226 1367,328 1332,480 1390,585 1456,608 1480,718 1441,788 1441,1045 1409,1100 "/>
   </g>
  </g>
 </g>
</svg>
