<?xml version="1.0" encoding="UTF-8"?>
<!DOCTYPE svg PUBLIC "-//W3C//DTD SVG 1.1//EN" "http://www.w3.org/Graphics/SVG/1.1/DTD/svg11.dtd">
<!-- Creator: CorelDRAW X8 -->
<svg xmlns="http://www.w3.org/2000/svg" xml:space="preserve" width="100%" height="100%" version="1.1" shape-rendering="geometricPrecision" text-rendering="geometricPrecision" image-rendering="optimizeQuality" fill-rule="evenodd" clip-rule="evenodd"
viewBox="0 0 2344 3588"
 xmlns:xlink="http://www.w3.org/1999/xlink">
 <g id="Layer_x0020_1">
  <metadata id="CorelCorpID_0Corel-Layer"/>
  <g id="Layers">
   <g id="India_Districts_selection">
    <polygon fill="#6EA97F" points="1829,1063 1808,1105 1566,1147 1545,1210 1472,1273 1345,1368 1261,1442 1104,1452 1125,1610 1198,1705 1209,1810 1251,1999 1293,2125 1440,2231 1524,2273 1734,2262 1839,2241 1945,2273 2050,2283 2113,2399 2176,2325 2281,2315 2344,2399 2323,2536 2176,2757 2018,2736 1934,2694 1839,2641 1745,2641 1661,2662 1650,2799 1745,2830 1734,2904 1692,2936 1608,3051 1503,3115 1440,3104 1440,3125 1408,3304 1451,3441 1408,3588 1261,3430 1051,3136 1020,2967 904,2778 893,2494 725,2210 736,1736 683,1684 662,1420 610,1336 673,1242 557,1189 526,1084 410,1010 294,842 305,747 231,726 74,579 42,431 0,274 53,84 168,0 200,105 462,168 631,200 1041,526 1619,873 "/>
   </g>
  </g>
 </g>
</svg>
