<?xml version="1.0" encoding="UTF-8"?>
<!DOCTYPE svg PUBLIC "-//W3C//DTD SVG 1.1//EN" "http://www.w3.org/Graphics/SVG/1.1/DTD/svg11.dtd">
<!-- Creator: CorelDRAW X8 -->
<svg xmlns="http://www.w3.org/2000/svg" xml:space="preserve" width="100%" height="100%" version="1.1" shape-rendering="geometricPrecision" text-rendering="geometricPrecision" image-rendering="optimizeQuality" fill-rule="evenodd" clip-rule="evenodd"
viewBox="0 0 3258 1932"
 xmlns:xlink="http://www.w3.org/1999/xlink">
 <g id="Layer_x0020_1">
  <metadata id="CorelCorpID_0Corel-Layer"/>
  <g id="Layers">
   <g id="India_Districts_selection">
    <polygon fill="#6EA97F" points="2681,1026 2670,1043 2438,1060 2427,1094 2155,1088 2127,1111 2065,1122 1946,1230 1906,1258 1601,1264 1561,1292 1561,1394 1544,1513 1539,1570 1510,1632 1454,1711 1425,1745 1420,1881 1312,1932 1267,1926 1222,1892 1182,1847 1205,1756 1193,1660 1199,1615 1227,1598 1244,1502 1193,1468 894,1428 803,1434 730,1434 650,1479 588,1536 526,1558 486,1604 424,1632 345,1666 277,1666 255,1615 260,1536 175,1507 124,1445 51,1366 0,1303 62,1264 379,1077 385,1037 622,975 820,929 996,895 1126,822 1290,754 1493,589 1691,499 1782,482 1844,470 1872,408 1957,374 2104,351 2200,278 2217,221 2268,40 2523,51 2591,0 2698,0 2817,45 2862,102 3015,85 3179,136 3258,181 3258,278 3139,374 3049,459 2885,499 2743,629 2636,731 2664,935 2658,1026 "/>
   </g>
  </g>
 </g>
</svg>
