<?xml version="1.0" encoding="UTF-8"?>
<!DOCTYPE svg PUBLIC "-//W3C//DTD SVG 1.1//EN" "http://www.w3.org/Graphics/SVG/1.1/DTD/svg11.dtd">
<!-- Creator: CorelDRAW X8 -->
<svg xmlns="http://www.w3.org/2000/svg" xml:space="preserve" width="100%" height="100%" version="1.1" shape-rendering="geometricPrecision" text-rendering="geometricPrecision" image-rendering="optimizeQuality" fill-rule="evenodd" clip-rule="evenodd"
viewBox="0 0 2399 1782"
 xmlns:xlink="http://www.w3.org/1999/xlink">
 <g id="Layer_x0020_1">
  <metadata id="CorelCorpID_0Corel-Layer"/>
  <g id="Layers">
   <g id="India_Districts_selection">
    <polygon fill="#6EA97F" points="1768,1207 1737,1207 1685,1202 1659,1155 1617,1155 1586,1170 1580,1207 1559,1223 1523,1270 1518,1317 1544,1353 1617,1405 1580,1437 1533,1458 1513,1546 1492,1609 1476,1661 1361,1771 1330,1782 1226,1782 1137,1771 1111,1740 1043,1646 954,1604 897,1614 834,1661 751,1620 704,1531 688,1374 563,1364 522,1390 454,1364 422,1332 402,1369 266,1379 240,1421 245,1484 240,1546 219,1562 172,1609 125,1661 89,1656 63,1620 63,1552 52,1499 16,1468 0,1364 16,1270 57,1186 136,1149 177,1129 271,1040 349,1040 376,1008 438,935 527,904 631,899 668,857 756,784 824,794 840,825 918,888 1007,815 1074,731 1158,711 1205,684 1309,658 1382,601 1471,601 1612,502 1627,460 1732,455 1789,439 1862,329 1867,266 1919,178 2029,78 2133,10 2159,0 2191,5 2180,16 2196,68 2295,193 2295,293 2180,334 2149,512 2175,669 2211,726 2290,773 2384,862 2399,1019 2222,1176 2086,1228 2008,1176 1825,1102 1773,1155 "/>
   </g>
  </g>
 </g>
</svg>
