<?xml version="1.0" encoding="UTF-8"?>
<!DOCTYPE svg PUBLIC "-//W3C//DTD SVG 1.1//EN" "http://www.w3.org/Graphics/SVG/1.1/DTD/svg11.dtd">
<!-- Creator: CorelDRAW X8 -->
<svg xmlns="http://www.w3.org/2000/svg" xml:space="preserve" width="100%" height="100%" version="1.1" shape-rendering="geometricPrecision" text-rendering="geometricPrecision" image-rendering="optimizeQuality" fill-rule="evenodd" clip-rule="evenodd"
viewBox="0 0 2794 1932"
 xmlns:xlink="http://www.w3.org/1999/xlink">
 <g id="Layer_x0020_1">
  <metadata id="CorelCorpID_0Corel-Layer"/>
  <g id="Layers">
   <g id="India_Districts_selection">
    <polygon fill="#6EA97F" points="2794,487 2551,555 2432,771 2415,935 2098,1116 2087,1485 1867,1700 1488,1700 1386,1847 1154,1915 571,1932 345,1683 436,1547 413,1315 198,1111 45,1054 45,952 45,771 91,725 79,663 0,572 40,482 243,436 300,289 362,142 379,130 673,142 758,181 905,181 933,244 1086,221 1273,0 1358,17 1510,204 1657,57 1708,28 1872,11 1980,96 2065,255 2161,261 2161,227 2489,221 2534,272 2675,272 2777,402 "/>
   </g>
  </g>
 </g>
</svg>
