<?xml version="1.0" encoding="UTF-8"?>
<!DOCTYPE svg PUBLIC "-//W3C//DTD SVG 1.1//EN" "http://www.w3.org/Graphics/SVG/1.1/DTD/svg11.dtd">
<!-- Creator: CorelDRAW X8 -->
<svg xmlns="http://www.w3.org/2000/svg" xml:space="preserve" width="100%" height="100%" version="1.1" shape-rendering="geometricPrecision" text-rendering="geometricPrecision" image-rendering="optimizeQuality" fill-rule="evenodd" clip-rule="evenodd"
viewBox="0 0 2421 1932"
 xmlns:xlink="http://www.w3.org/1999/xlink">
 <g id="Layer_x0020_1">
  <metadata id="CorelCorpID_0Corel-Layer"/>
  <g id="Layers">
   <g id="India_Districts_selection">
    <polygon fill="#6EA97F" points="1227,1875 1210,1807 1188,1723 1131,1711 786,1660 730,1609 656,1541 617,1456 447,1451 436,1371 492,1292 566,1241 566,1167 515,1094 469,992 305,867 266,805 249,674 187,629 11,618 6,317 0,306 45,255 74,142 102,45 141,0 221,6 288,91 396,125 475,102 481,85 515,119 656,153 781,227 1046,232 1267,244 1369,289 1454,340 1442,368 1459,414 1742,402 1855,368 2025,357 2065,425 2093,629 2138,765 2246,975 2308,1156 2347,1275 2421,1286 2415,1451 2104,1660 1946,1683 1917,1909 1793,1932 1239,1870 "/>
   </g>
  </g>
 </g>
</svg>
