<?xml version="1.0" encoding="UTF-8"?>
<!DOCTYPE svg PUBLIC "-//W3C//DTD SVG 1.1//EN" "http://www.w3.org/Graphics/SVG/1.1/DTD/svg11.dtd">
<!-- Creator: CorelDRAW X8 -->
<svg xmlns="http://www.w3.org/2000/svg" xml:space="preserve" width="100%" height="100%" version="1.1" shape-rendering="geometricPrecision" text-rendering="geometricPrecision" image-rendering="optimizeQuality" fill-rule="evenodd" clip-rule="evenodd"
viewBox="0 0 2314 1481"
 xmlns:xlink="http://www.w3.org/1999/xlink">
 <g id="Layer_x0020_1">
  <metadata id="CorelCorpID_0Corel-Layer"/>
  <g id="Layers">
   <g id="India_Districts_selection">
    <polygon fill="#6EA97F" points="2314,287 2271,347 2167,443 2089,430 2076,486 2041,521 1989,556 1911,577 1894,538 1781,586 1768,643 1725,664 1738,742 1703,790 1664,907 1634,999 1621,1072 1461,1116 1370,1172 1361,1233 1270,1324 1253,1368 1235,1481 498,1476 481,1385 459,1333 429,1259 351,1203 303,1164 247,1133 178,1064 52,1042 39,912 35,734 0,716 0,643 39,638 48,595 134,543 247,486 299,425 373,369 373,195 403,191 446,122 459,43 503,0 520,30 585,65 637,87 672,87 728,69 789,30 828,30 836,74 858,165 902,234 954,243 1032,243 1071,204 1071,135 1092,78 1144,43 1179,39 1183,109 1326,117 1339,156 1448,156 1478,139 1634,126 1651,109 1760,91 1764,48 1807,39 1846,69 1894,91 1963,104 1968,56 2063,9 2106,30 2119,122 2215,130 2275,213 2306,287 "/>
   </g>
  </g>
 </g>
</svg>
