<?xml version="1.0" encoding="UTF-8"?>
<!DOCTYPE svg PUBLIC "-//W3C//DTD SVG 1.1//EN" "http://www.w3.org/Graphics/SVG/1.1/DTD/svg11.dtd">
<!-- Creator: CorelDRAW X8 -->
<svg xmlns="http://www.w3.org/2000/svg" xml:space="preserve" width="100%" height="100%" version="1.1" shape-rendering="geometricPrecision" text-rendering="geometricPrecision" image-rendering="optimizeQuality" fill-rule="evenodd" clip-rule="evenodd"
viewBox="0 0 3353 2534"
 xmlns:xlink="http://www.w3.org/1999/xlink">
 <g id="Layer_x0020_1">
  <metadata id="CorelCorpID_0Corel-Layer"/>
  <g id="Layers">
   <g id="India_Districts_selection">
    <polygon fill="#6EA97F" points="312,1932 393,1776 534,1553 556,1397 490,1330 467,1211 364,1145 223,1011 119,929 0,803 0,699 45,580 96,550 59,438 89,305 148,164 683,156 868,134 935,45 1098,0 1098,15 1358,260 1573,468 1692,513 1729,624 1870,706 2033,810 2196,877 2389,870 2522,788 2552,736 2663,706 2715,699 2886,929 3005,1107 3109,1159 3220,1159 3353,1197 3346,1234 3205,1353 3116,1367 3116,1434 3064,1457 2968,1479 2864,1434 2760,1442 2715,1486 2671,1553 2493,1501 2441,1598 2352,1672 2337,1769 2248,1799 2174,1747 2033,1754 1996,1680 1847,1672 1766,1709 1766,1806 1810,1858 1862,1903 1825,2007 1721,2111 1462,2133 1462,2170 1365,2207 1269,2311 1202,2467 1180,2534 1135,2512 1061,2519 994,2490 905,2401 757,2282 653,2215 534,2178 438,2088 378,1969 "/>
   </g>
  </g>
 </g>
</svg>
