<?xml version="1.0" encoding="UTF-8"?>
<!DOCTYPE svg PUBLIC "-//W3C//DTD SVG 1.1//EN" "http://www.w3.org/Graphics/SVG/1.1/DTD/svg11.dtd">
<!-- Creator: CorelDRAW X8 -->
<svg xmlns="http://www.w3.org/2000/svg" xml:space="preserve" width="100%" height="100%" version="1.1" shape-rendering="geometricPrecision" text-rendering="geometricPrecision" image-rendering="optimizeQuality" fill-rule="evenodd" clip-rule="evenodd"
viewBox="0 0 2741 1631"
 xmlns:xlink="http://www.w3.org/1999/xlink">
 <g id="Layer_x0020_1">
  <metadata id="CorelCorpID_0Corel-Layer"/>
  <g id="Layers">
   <g id="India_Districts_selection">
    <polygon fill="#6EA97F" points="411,1631 411,1626 306,1488 10,1454 0,1143 162,1105 229,990 220,789 210,784 315,684 430,679 449,646 563,641 592,584 668,517 774,430 840,383 902,301 969,287 988,249 993,239 1079,244 1108,277 1117,320 1184,320 1194,340 1389,349 1418,292 1490,287 1533,268 1628,210 1652,148 1724,110 1743,81 1814,81 1867,48 1958,0 1982,77 2025,105 2120,100 2120,134 2244,129 2311,191 2416,210 2550,273 2683,354 2679,450 2741,517 2741,679 2717,727 2688,756 2688,784 2650,775 2598,823 2531,837 2526,866 2335,856 2306,885 2297,918 2254,918 2168,1000 2158,1028 2115,1028 2110,1110 2139,1110 2134,1263 2216,1344 2216,1373 2249,1382 2249,1483 2163,1521 2044,1516 2005,1550 1982,1598 1709,1593 1709,1569 1547,1569 1547,1511 1466,1488 1437,1435 1428,1043 1194,1014 1179,990 1031,1000 1031,1153 931,1172 855,1191 783,1239 726,1344 606,1349 583,1464 640,1492 606,1545 497,1621 "/>
   </g>
  </g>
 </g>
</svg>
