<?xml version="1.0" encoding="UTF-8"?>
<!DOCTYPE svg PUBLIC "-//W3C//DTD SVG 1.1//EN" "http://www.w3.org/Graphics/SVG/1.1/DTD/svg11.dtd">
<!-- Creator: CorelDRAW X8 -->
<svg xmlns="http://www.w3.org/2000/svg" xml:space="preserve" width="100%" height="100%" version="1.1" shape-rendering="geometricPrecision" text-rendering="geometricPrecision" image-rendering="optimizeQuality" fill-rule="evenodd" clip-rule="evenodd"
viewBox="0 0 2666 1932"
 xmlns:xlink="http://www.w3.org/1999/xlink">
 <g id="Layer_x0020_1">
  <metadata id="CorelCorpID_0Corel-Layer"/>
  <g id="Layers">
   <g id="India_Districts_selection">
    <polygon fill="#6EA97F" points="509,1762 351,1643 192,1524 23,1490 0,1394 28,1269 142,1116 300,946 402,929 560,759 679,516 855,504 877,567 940,561 962,295 917,210 974,147 1081,159 1126,113 1234,102 1330,74 1426,17 1443,0 1443,45 1472,153 1534,261 1591,380 1607,646 1681,793 1794,986 1868,1111 2004,1162 2134,1179 2207,1258 2247,1349 2275,1388 2332,1298 2394,1247 2524,1241 2553,1377 2632,1456 2621,1468 2632,1638 2655,1689 2666,1824 2632,1847 2553,1864 2332,1796 2196,1785 2128,1706 2055,1717 1998,1638 1919,1649 1760,1739 1698,1836 1641,1881 1568,1904 1489,1932 1489,1926 1019,1921 928,1847 809,1768 515,1728 "/>
   </g>
  </g>
 </g>
</svg>
