<?xml version="1.0" encoding="UTF-8"?>
<!DOCTYPE svg PUBLIC "-//W3C//DTD SVG 1.1//EN" "http://www.w3.org/Graphics/SVG/1.1/DTD/svg11.dtd">
<!-- Creator: CorelDRAW X8 -->
<svg xmlns="http://www.w3.org/2000/svg" xml:space="preserve" width="100%" height="100%" version="1.1" shape-rendering="geometricPrecision" text-rendering="geometricPrecision" image-rendering="optimizeQuality" fill-rule="evenodd" clip-rule="evenodd"
viewBox="0 0 1658 1932"
 xmlns:xlink="http://www.w3.org/1999/xlink">
 <g id="Layer_x0020_1">
  <metadata id="CorelCorpID_0Corel-Layer"/>
  <g id="Layers">
   <g id="India_Districts_selection">
    <polygon fill="#6EA97F" points="458,181 741,193 787,147 1472,147 1511,45 1506,0 1551,17 1568,198 1551,391 1658,516 1630,748 1455,895 1392,980 1081,992 1019,1167 968,1258 979,1343 991,1513 962,1547 957,1706 985,1762 940,1881 934,1898 725,1858 674,1887 532,1932 458,1904 317,1785 249,1672 226,1417 266,1286 221,1218 102,1065 34,895 57,652 0,533 23,51 57,0 68,28 340,153 "/>
   </g>
  </g>
 </g>
</svg>
