<?xml version="1.0" encoding="UTF-8"?>
<!DOCTYPE svg PUBLIC "-//W3C//DTD SVG 1.1//EN" "http://www.w3.org/Graphics/SVG/1.1/DTD/svg11.dtd">
<!-- Creator: CorelDRAW X8 -->
<svg xmlns="http://www.w3.org/2000/svg" xml:space="preserve" width="100%" height="100%" version="1.1" shape-rendering="geometricPrecision" text-rendering="geometricPrecision" image-rendering="optimizeQuality" fill-rule="evenodd" clip-rule="evenodd"
viewBox="0 0 7187 5093"
 xmlns:xlink="http://www.w3.org/1999/xlink">
 <g id="Layer_x0020_1">
  <metadata id="CorelCorpID_0Corel-Layer"/>
  <g id="Layers">
   <g id="India_Districts_selection">
    <polygon fill="#6EA97F" points="7187,1987 6784,2151 6412,2569 6188,2972 5741,3809 5487,4257 5323,4496 5219,5064 4697,4959 4294,5093 4145,5049 4026,4765 3787,4944 3474,4914 3385,4825 3057,4854 2773,4750 2475,4615 2117,4511 1610,4675 1506,4571 1476,4257 1074,4272 939,4093 567,4078 343,4182 209,4242 0,4108 89,3809 313,3510 313,3002 373,2838 403,1957 537,1643 895,1300 924,403 954,373 1074,239 2102,239 2162,284 2311,388 2416,403 2669,209 2878,239 3191,149 3310,0 3653,30 3787,209 3668,523 3444,941 3489,1314 3549,1479 3698,1464 3728,1553 4056,1524 4086,1643 4309,1673 4443,1464 4950,1494 5010,1240 4935,971 5144,971 5428,881 5517,1120 5577,1255 5785,1270 5800,1195 6099,1210 6143,1090 6427,1105 6486,1165 6844,1135 6859,1255 6919,1314 6859,1434 6859,1673 7068,1703 "/>
   </g>
  </g>
 </g>
</svg>
