<?xml version="1.0" encoding="UTF-8"?>
<!DOCTYPE svg PUBLIC "-//W3C//DTD SVG 1.1//EN" "http://www.w3.org/Graphics/SVG/1.1/DTD/svg11.dtd">
<!-- Creator: CorelDRAW X8 -->
<svg xmlns="http://www.w3.org/2000/svg" xml:space="preserve" width="100%" height="100%" version="1.1" shape-rendering="geometricPrecision" text-rendering="geometricPrecision" image-rendering="optimizeQuality" fill-rule="evenodd" clip-rule="evenodd"
viewBox="0 0 2731 1631"
 xmlns:xlink="http://www.w3.org/1999/xlink">
 <g id="Layer_x0020_1">
  <metadata id="CorelCorpID_0Corel-Layer"/>
  <g id="Layers">
   <g id="India_Districts_selection">
    <polygon fill="#6EA97F" points="2044,1387 2025,1430 2015,1473 1967,1574 1910,1602 1867,1564 1838,1497 1896,1435 1862,1387 1776,1406 1709,1440 1681,1459 1643,1464 1528,1478 1461,1473 1423,1521 1351,1569 1256,1607 1222,1607 1136,1631 1055,1607 1041,1559 1156,1478 1122,1387 1074,1368 1084,1358 1027,1296 931,1339 869,1425 845,1468 826,1488 745,1373 673,1392 616,1473 516,1445 487,1401 401,1406 368,1430 320,1392 272,1349 224,1301 167,1244 124,1201 67,1201 43,1143 24,1119 0,1081 29,1081 167,1052 248,1000 310,990 382,966 392,909 458,856 458,651 401,517 392,392 587,397 587,325 649,263 735,287 836,316 950,397 1117,493 1198,517 1203,588 1270,607 1270,536 1213,469 1261,440 1404,483 1552,411 1686,297 1705,139 1752,143 1791,187 1877,191 1891,158 1929,134 1939,96 1910,62 1915,10 2020,0 2106,139 2149,148 2153,368 2220,368 2235,344 2416,344 2416,435 2330,569 2397,703 2521,765 2574,885 2679,928 2731,966 2683,1043 2564,1153 2421,1196 2235,1205 2101,1253 2058,1291 2020,1344 "/>
   </g>
  </g>
 </g>
</svg>
