<?xml version="1.0" encoding="UTF-8"?>
<!DOCTYPE svg PUBLIC "-//W3C//DTD SVG 1.1//EN" "http://www.w3.org/Graphics/SVG/1.1/DTD/svg11.dtd">
<!-- Creator: CorelDRAW X8 -->
<svg xmlns="http://www.w3.org/2000/svg" xml:space="preserve" width="100%" height="100%" version="1.1" shape-rendering="geometricPrecision" text-rendering="geometricPrecision" image-rendering="optimizeQuality" fill-rule="evenodd" clip-rule="evenodd"
viewBox="0 0 8380 7050"
 xmlns:xlink="http://www.w3.org/1999/xlink">
 <g id="Layer_x0020_1">
  <metadata id="CorelCorpID_0Corel-Layer"/>
  <g id="Layers">
   <g id="India_Districts_selection">
    <polygon fill="#6EA97F" points="1589,7050 1569,6740 1569,6492 1775,6306 1940,6182 2023,5851 2043,4693 1920,4673 1899,4528 1837,4321 1610,4259 1321,4094 1176,3990 888,3990 702,3825 599,3866 165,3784 0,3680 0,3432 83,3081 83,2812 165,2605 413,2212 433,2254 660,2274 1011,2316 1404,1944 1754,1964 1899,2357 2374,2605 2890,2771 3137,2977 3550,3163 3756,3122 4293,2688 4520,2481 4211,2336 3860,2316 3901,2192 4293,2026 4438,1819 4396,1571 4314,1447 4211,1096 4107,992 4231,951 4541,827 4995,806 5243,600 5346,393 5511,269 5841,227 6213,62 6791,0 6894,558 7451,558 8091,455 8380,517 7761,910 7100,1468 6976,1819 7079,2398 7513,2771 7595,2750 7575,2812 7534,3391 7368,3639 7472,4011 7327,4114 7183,4466 6914,4611 6646,4425 6460,4425 6295,4838 6275,5066 6171,5272 6109,5541 6047,5707 5903,5893 5593,6306 5573,6327 5531,6347 5449,6265 5119,6244 4603,6327 4355,6389 3571,6430 3282,6513 2869,6596 2312,6699 1940,6823 1651,6968 "/>
   </g>
  </g>
 </g>
</svg>
