<?xml version="1.0" encoding="UTF-8"?>
<!DOCTYPE svg PUBLIC "-//W3C//DTD SVG 1.1//EN" "http://www.w3.org/Graphics/SVG/1.1/DTD/svg11.dtd">
<!-- Creator: CorelDRAW X8 -->
<svg xmlns="http://www.w3.org/2000/svg" xml:space="preserve" width="100%" height="100%" version="1.1" shape-rendering="geometricPrecision" text-rendering="geometricPrecision" image-rendering="optimizeQuality" fill-rule="evenodd" clip-rule="evenodd"
viewBox="0 0 2745 2986"
 xmlns:xlink="http://www.w3.org/1999/xlink">
 <g id="Layer_x0020_1">
  <metadata id="CorelCorpID_0Corel-Layer"/>
  <g id="Layers">
   <g id="India_Districts_selection">
    <polygon fill="#6EA97F" points="909,2986 909,2968 857,2881 769,2758 682,2688 524,2653 446,2504 323,2434 306,2338 157,2268 26,2277 26,2180 0,2128 149,1944 262,1953 367,1874 577,1716 848,1497 1250,1095 1460,832 1661,543 1713,412 1713,280 1731,298 1984,228 2203,0 2448,44 2500,377 2369,1016 2264,1252 2675,1375 2745,1401 2552,1637 2535,1909 2220,2075 2194,2662 1600,2697 1058,2968 "/>
   </g>
  </g>
 </g>
</svg>
