<?xml version="1.0" encoding="UTF-8"?>
<!DOCTYPE svg PUBLIC "-//W3C//DTD SVG 1.1//EN" "http://www.w3.org/Graphics/SVG/1.1/DTD/svg11.dtd">
<!-- Creator: CorelDRAW X8 -->
<svg xmlns="http://www.w3.org/2000/svg" xml:space="preserve" width="100%" height="100%" version="1.1" shape-rendering="geometricPrecision" text-rendering="geometricPrecision" image-rendering="optimizeQuality" fill-rule="evenodd" clip-rule="evenodd"
viewBox="0 0 3870 2233"
 xmlns:xlink="http://www.w3.org/1999/xlink">
 <g id="Layer_x0020_1">
  <metadata id="CorelCorpID_0Corel-Layer"/>
  <g id="Layers">
   <g id="India_Districts_selection">
    <polygon fill="#6EA97F" points="1732,0 1883,111 2059,85 2190,164 2262,236 2595,347 3047,589 3308,766 3413,766 3485,701 3530,701 3635,904 3759,1028 3766,1159 3838,1303 3870,1519 3504,1559 3262,1644 3007,1899 2772,2233 2759,2227 1994,2187 1647,1847 1759,1310 1909,753 1791,694 1353,799 634,864 0,517 235,458 373,432 686,373 928,282 1229,269 1334,118 "/>
   </g>
  </g>
 </g>
</svg>
