<?xml version="1.0" encoding="UTF-8"?>
<!DOCTYPE svg PUBLIC "-//W3C//DTD SVG 1.1//EN" "http://www.w3.org/Graphics/SVG/1.1/DTD/svg11.dtd">
<!-- Creator: CorelDRAW X8 -->
<svg xmlns="http://www.w3.org/2000/svg" xml:space="preserve" width="100%" height="100%" version="1.1" shape-rendering="geometricPrecision" text-rendering="geometricPrecision" image-rendering="optimizeQuality" fill-rule="evenodd" clip-rule="evenodd"
viewBox="0 0 1719 2835"
 xmlns:xlink="http://www.w3.org/1999/xlink">
 <g id="Layer_x0020_1">
  <metadata id="CorelCorpID_0Corel-Layer"/>
  <g id="Layers">
   <g id="India_Districts_selection">
    <polygon fill="#6EA97F" points="1537,2079 1437,2087 1412,2245 1387,2278 1395,2453 1371,2810 1304,2835 1138,2785 947,2686 789,2677 764,2553 806,2470 806,2245 581,2079 557,1804 581,1455 532,1389 341,1280 91,1123 25,898 0,865 25,757 282,715 523,640 789,491 872,249 997,67 1254,0 1379,25 1454,17 1478,200 1719,407 1670,557 1296,516 1113,615 1121,890 1022,1106 1179,1280 1520,1480 "/>
   </g>
  </g>
 </g>
</svg>
