<?xml version="1.0" encoding="UTF-8"?>
<!DOCTYPE svg PUBLIC "-//W3C//DTD SVG 1.1//EN" "http://www.w3.org/Graphics/SVG/1.1/DTD/svg11.dtd">
<!-- Creator: CorelDRAW X8 -->
<svg xmlns="http://www.w3.org/2000/svg" xml:space="preserve" width="100%" height="100%" version="1.1" shape-rendering="geometricPrecision" text-rendering="geometricPrecision" image-rendering="optimizeQuality" fill-rule="evenodd" clip-rule="evenodd"
viewBox="0 0 2419 2534"
 xmlns:xlink="http://www.w3.org/1999/xlink">
 <g id="Layer_x0020_1">
  <metadata id="CorelCorpID_0Corel-Layer"/>
  <g id="Layers">
   <g id="India_Districts_selection">
    <polygon fill="#6EA97F" points="2419,1784 1818,1828 1439,1917 1209,2059 1120,2237 1091,2534 838,1992 156,602 45,201 0,45 67,22 423,15 623,0 794,45 875,164 875,282 987,320 1068,268 1232,245 1380,334 1410,483 1454,587 1625,706 1862,847 2011,944 2062,1048 2196,1048 2307,1040 2382,1100 2389,1197 2367,1323 2367,1464 2367,1680 "/>
   </g>
  </g>
 </g>
</svg>
