<?xml version="1.0" encoding="UTF-8"?>
<!DOCTYPE svg PUBLIC "-//W3C//DTD SVG 1.1//EN" "http://www.w3.org/Graphics/SVG/1.1/DTD/svg11.dtd">
<!-- Creator: CorelDRAW X8 -->
<svg xmlns="http://www.w3.org/2000/svg" xml:space="preserve" width="100%" height="100%" version="1.1" shape-rendering="geometricPrecision" text-rendering="geometricPrecision" image-rendering="optimizeQuality" fill-rule="evenodd" clip-rule="evenodd"
viewBox="0 0 2806 1932"
 xmlns:xlink="http://www.w3.org/1999/xlink">
 <g id="Layer_x0020_1">
  <metadata id="CorelCorpID_0Corel-Layer"/>
  <g id="Layers">
   <g id="India_Districts_selection">
    <polygon fill="#6EA97F" points="2268,1689 2251,1683 2076,1836 1991,1904 1844,1932 1827,1864 1753,1762 1640,1768 1606,1728 1358,1728 1358,1756 1284,1756 1222,1632 1143,1570 1012,1581 973,1604 860,1717 747,1575 679,1558 537,1728 424,1745 402,1700 288,1694 226,1666 0,1660 34,1638 68,1598 91,1536 74,1434 34,1258 79,1224 96,1156 164,1122 198,1037 204,918 232,844 164,737 158,550 74,527 68,465 164,289 266,215 373,142 447,198 588,255 769,261 967,113 962,34 1120,0 1341,6 1516,215 1572,300 1606,283 1765,108 1850,113 1934,187 2031,317 1968,436 1878,561 1850,635 1867,765 1929,895 1957,992 2551,997 2806,1105 2777,1224 2732,1281 2613,1292 2579,1337 2613,1422 2523,1507 2393,1547 2330,1587 2285,1638 "/>
   </g>
  </g>
 </g>
</svg>
