<?xml version="1.0" encoding="UTF-8"?>
<!DOCTYPE svg PUBLIC "-//W3C//DTD SVG 1.1//EN" "http://www.w3.org/Graphics/SVG/1.1/DTD/svg11.dtd">
<!-- Creator: CorelDRAW X8 -->
<svg xmlns="http://www.w3.org/2000/svg" xml:space="preserve" width="100%" height="100%" version="1.1" shape-rendering="geometricPrecision" text-rendering="geometricPrecision" image-rendering="optimizeQuality" fill-rule="evenodd" clip-rule="evenodd"
viewBox="0 0 3939 1657"
 xmlns:xlink="http://www.w3.org/1999/xlink">
 <g id="Layer_x0020_1">
  <metadata id="CorelCorpID_0Corel-Layer"/>
  <g id="Layers">
   <g id="India_Districts_selection">
    <polygon fill="#6EA97F" points="2467,182 2515,249 2582,279 2594,388 2661,425 2715,443 2909,455 3055,449 3115,491 3170,516 3279,558 3364,613 3430,667 3503,698 3552,771 3649,831 3691,868 3770,904 3824,947 3903,965 3939,995 3939,1007 3927,1092 3691,1123 3673,1165 3649,1207 3564,1207 3558,1250 3509,1274 3455,1329 3400,1396 3327,1456 3224,1474 3176,1547 3145,1626 3079,1578 3000,1553 2994,1286 2945,1238 2861,1214 2770,1226 2752,1159 2721,1019 2661,1025 2673,965 2667,819 2509,849 2455,856 2424,886 2364,922 2261,922 2055,928 2121,1038 1988,1038 1927,1068 1897,1086 1794,1050 1661,1074 1624,1050 1600,910 1467,928 1473,1044 1515,1110 1509,1232 1479,1323 1448,1329 1394,1390 1200,1408 1194,1493 1030,1499 1018,1535 642,1547 594,1590 545,1608 545,1614 533,1657 527,1657 527,1638 515,1657 503,1584 455,1584 370,1541 352,1493 279,1474 206,1462 139,1426 48,1396 0,1335 0,1262 42,1207 115,1147 194,1129 236,1080 279,1025 279,941 285,934 339,922 376,843 436,783 455,734 509,667 588,625 594,552 642,528 642,461 691,437 764,394 776,309 800,273 836,267 842,231 915,182 1679,188 1685,146 1709,127 1727,61 2133,36 2170,18 2279,0 2279,18 2309,30 2339,79 2406,109 "/>
   </g>
  </g>
 </g>
</svg>
