<?xml version="1.0" encoding="UTF-8"?>
<!DOCTYPE svg PUBLIC "-//W3C//DTD SVG 1.1//EN" "http://www.w3.org/Graphics/SVG/1.1/DTD/svg11.dtd">
<!-- Creator: CorelDRAW X8 -->
<svg xmlns="http://www.w3.org/2000/svg" xml:space="preserve" width="100%" height="100%" version="1.1" shape-rendering="geometricPrecision" text-rendering="geometricPrecision" image-rendering="optimizeQuality" fill-rule="evenodd" clip-rule="evenodd"
viewBox="0 0 7820 4240"
 xmlns:xlink="http://www.w3.org/1999/xlink">
 <g id="Layer_x0020_1">
  <metadata id="CorelCorpID_0Corel-Layer"/>
  <g id="Layers">
   <g id="India_Districts_selection">
    <polygon fill="#6EA97F" points="12,3656 0,3432 25,2387 137,2387 124,1952 223,1940 211,1840 223,1293 236,1094 1080,647 1800,945 2532,920 3066,448 4084,796 4642,945 5188,908 5722,336 6653,311 6852,62 6901,0 7001,485 7038,1107 7149,1579 7261,2114 7435,2561 7621,2872 7745,2984 7820,3332 7547,3345 7001,3307 6156,3357 5623,3345 4729,3320 4059,3407 3637,3494 3128,3506 2818,3444 2396,3382 2259,3531 2048,3432 1663,3432 1663,3618 1216,3705 1254,4240 1030,4190 770,4091 261,4053 99,3855 "/>
   </g>
  </g>
 </g>
</svg>
