<?xml version="1.0" encoding="UTF-8"?>
<!DOCTYPE svg PUBLIC "-//W3C//DTD SVG 1.1//EN" "http://www.w3.org/Graphics/SVG/1.1/DTD/svg11.dtd">
<!-- Creator: CorelDRAW X8 -->
<svg xmlns="http://www.w3.org/2000/svg" xml:space="preserve" width="100%" height="100%" version="1.1" shape-rendering="geometricPrecision" text-rendering="geometricPrecision" image-rendering="optimizeQuality" fill-rule="evenodd" clip-rule="evenodd"
viewBox="0 0 4389 2018"
 xmlns:xlink="http://www.w3.org/1999/xlink">
 <g id="Layer_x0020_1">
  <metadata id="CorelCorpID_0Corel-Layer"/>
  <g id="Layers">
   <g id="India_Districts_selection">
    <polygon fill="#6EA97F" points="1025,88 1207,155 1308,148 1362,88 1382,34 1618,162 2029,256 2252,371 2360,641 2434,763 2751,790 3250,722 3742,587 4052,364 4133,553 4099,938 4207,1208 4389,1451 4092,1424 3944,1370 3755,1276 3620,1222 3479,1390 3027,1518 2865,1572 2656,1728 2467,1991 2285,2018 2279,1984 2245,1768 2103,1518 2043,1424 1901,1147 1672,1242 1375,1336 991,1228 843,1276 701,1316 593,1282 607,1269 600,1228 587,1208 587,1188 593,1181 600,1161 600,1141 580,1134 573,1120 560,1114 539,1107 512,1114 499,1120 485,1134 458,1141 438,1141 418,1127 411,1114 405,1107 411,1087 411,1073 405,1060 391,1046 391,1033 371,1019 357,1019 337,1019 317,1012 297,1006 290,979 297,958 297,938 290,931 276,918 263,904 229,904 222,877 216,857 202,850 189,830 182,817 169,803 169,776 162,769 128,763 94,763 94,749 81,742 74,722 67,709 54,682 67,668 74,661 101,648 121,634 128,634 175,621 175,607 182,574 175,553 148,526 115,520 81,520 74,499 74,466 61,445 47,425 27,412 7,412 0,317 519,385 694,290 694,47 822,0 "/>
   </g>
  </g>
 </g>
</svg>
