<?xml version="1.0" encoding="UTF-8"?>
<!DOCTYPE svg PUBLIC "-//W3C//DTD SVG 1.1//EN" "http://www.w3.org/Graphics/SVG/1.1/DTD/svg11.dtd">
<!-- Creator: CorelDRAW X8 -->
<svg xmlns="http://www.w3.org/2000/svg" xml:space="preserve" width="100%" height="100%" version="1.1" shape-rendering="geometricPrecision" text-rendering="geometricPrecision" image-rendering="optimizeQuality" fill-rule="evenodd" clip-rule="evenodd"
viewBox="0 0 3427 2685"
 xmlns:xlink="http://www.w3.org/1999/xlink">
 <g id="Layer_x0020_1">
  <metadata id="CorelCorpID_0Corel-Layer"/>
  <g id="Layers">
   <g id="India_Districts_selection">
    <polygon fill="#6EA97F" points="2790,614 2790,661 2861,764 2924,772 2924,968 2955,1126 3010,1157 3073,1213 3175,1181 3230,1118 3277,1268 3285,1323 3333,1331 3427,1409 3293,1504 3207,1575 3191,1638 3167,1677 3160,1795 3128,1819 3010,1850 2955,1913 2995,2016 2995,2283 2916,2370 2924,2472 2719,2512 2452,2543 1706,2535 1603,2543 1556,2575 1187,2582 935,2575 778,2582 739,2622 597,2614 558,2653 511,2669 448,2653 346,2645 291,2677 134,2677 55,2677 16,2685 8,2638 0,2638 86,2582 228,2472 314,2417 322,2220 385,2205 401,2094 479,2094 660,2102 762,1968 747,1913 731,1874 865,1779 888,1653 951,1598 1030,1449 998,1401 1085,1252 1077,1063 1045,961 1045,905 1140,905 1320,811 1533,748 1635,606 1706,394 1698,228 1674,126 1674,39 1941,39 1996,0 2177,8 2216,79 2452,79 2452,55 2507,87 2476,220 2460,307 2468,449 2602,606 2751,638 "/>
   </g>
  </g>
 </g>
</svg>
