<?xml version="1.0" encoding="UTF-8"?>
<!DOCTYPE svg PUBLIC "-//W3C//DTD SVG 1.1//EN" "http://www.w3.org/Graphics/SVG/1.1/DTD/svg11.dtd">
<!-- Creator: CorelDRAW X8 -->
<svg xmlns="http://www.w3.org/2000/svg" xml:space="preserve" width="100%" height="100%" version="1.1" shape-rendering="geometricPrecision" text-rendering="geometricPrecision" image-rendering="optimizeQuality" fill-rule="evenodd" clip-rule="evenodd"
viewBox="0 0 1463 2083"
 xmlns:xlink="http://www.w3.org/1999/xlink">
 <g id="Layer_x0020_1">
  <metadata id="CorelCorpID_0Corel-Layer"/>
  <g id="Layers">
   <g id="India_Districts_selection">
    <polygon fill="#6EA97F" points="256,0 354,79 598,79 756,86 927,293 1030,458 1097,531 1299,556 1378,537 1384,586 1445,831 1439,1051 1414,1331 1421,1619 1463,1753 1457,1881 1165,1979 829,2083 585,2083 579,2058 561,2058 567,2040 622,1924 591,1857 341,1844 256,1765 244,1698 238,1545 91,1661 43,1612 24,1509 43,1307 104,1191 24,1124 0,1002 12,770 91,708 134,629 213,513 219,311 146,159 79,98 177,116 159,49 152,0 "/>
   </g>
  </g>
 </g>
</svg>
