<?xml version="1.0" encoding="UTF-8"?>
<!DOCTYPE svg PUBLIC "-//W3C//DTD SVG 1.1//EN" "http://www.w3.org/Graphics/SVG/1.1/DTD/svg11.dtd">
<!-- Creator: CorelDRAW X8 -->
<svg xmlns="http://www.w3.org/2000/svg" xml:space="preserve" width="100%" height="100%" version="1.1" shape-rendering="geometricPrecision" text-rendering="geometricPrecision" image-rendering="optimizeQuality" fill-rule="evenodd" clip-rule="evenodd"
viewBox="0 0 1334 2384"
 xmlns:xlink="http://www.w3.org/1999/xlink">
 <g id="Layer_x0020_1">
  <metadata id="CorelCorpID_0Corel-Layer"/>
  <g id="Layers">
   <g id="India_Districts_selection">
    <polygon fill="#6EA97F" points="950,657 908,685 887,706 817,762 782,783 698,839 684,1021 649,1035 691,1091 754,1153 922,1160 1027,1223 1131,1370 1131,1440 1194,1475 1215,1545 1257,1601 1250,1971 1334,2020 1292,2111 1229,2223 1131,2321 978,2384 915,2300 852,2265 824,2202 810,2083 747,1964 642,1845 496,1727 510,1699 482,1643 363,1566 244,1510 147,1496 77,1461 49,1370 0,1342 105,1258 189,1146 244,1049 293,944 307,902 307,825 244,748 154,706 112,643 112,503 98,391 161,329 209,301 258,266 307,210 342,133 398,42 433,0 454,7 691,14 726,49 726,189 684,203 684,350 789,496 817,496 817,552 908,594 "/>
   </g>
  </g>
 </g>
</svg>
