<?xml version="1.0" encoding="UTF-8"?>
<!DOCTYPE svg PUBLIC "-//W3C//DTD SVG 1.1//EN" "http://www.w3.org/Graphics/SVG/1.1/DTD/svg11.dtd">
<!-- Creator: CorelDRAW X8 -->
<svg xmlns="http://www.w3.org/2000/svg" xml:space="preserve" width="100%" height="100%" version="1.1" shape-rendering="geometricPrecision" text-rendering="geometricPrecision" image-rendering="optimizeQuality" fill-rule="evenodd" clip-rule="evenodd"
viewBox="0 0 2628 2233"
 xmlns:xlink="http://www.w3.org/1999/xlink">
 <g id="Layer_x0020_1">
  <metadata id="CorelCorpID_0Corel-Layer"/>
  <g id="Layers">
   <g id="India_Districts_selection">
    <polygon fill="#6EA97F" points="935,131 1020,190 1085,170 1105,275 1170,341 1164,661 1249,661 1275,707 1327,727 1445,753 1478,720 1647,701 1706,635 1850,661 1850,707 2406,714 2471,661 2563,596 2582,806 2628,858 2615,1251 2465,1519 2445,1873 2242,2063 2040,2083 1844,2207 1798,2233 1726,1984 1445,1952 1399,1853 1484,1781 1647,1532 1523,1401 1445,1401 1379,1474 1268,1493 1151,1434 1026,1559 935,1866 883,1873 785,1873 288,2083 7,2135 0,2102 222,1853 582,1146 771,799 785,13 778,0 830,13 889,92 "/>
   </g>
  </g>
 </g>
</svg>
