<?xml version="1.0" encoding="UTF-8"?>
<!DOCTYPE svg PUBLIC "-//W3C//DTD SVG 1.1//EN" "http://www.w3.org/Graphics/SVG/1.1/DTD/svg11.dtd">
<!-- Creator: CorelDRAW X8 -->
<svg xmlns="http://www.w3.org/2000/svg" xml:space="preserve" width="100%" height="100%" version="1.1" shape-rendering="geometricPrecision" text-rendering="geometricPrecision" image-rendering="optimizeQuality" fill-rule="evenodd" clip-rule="evenodd"
viewBox="0 0 1783 1330"
 xmlns:xlink="http://www.w3.org/1999/xlink">
 <g id="Layer_x0020_1">
  <metadata id="CorelCorpID_0Corel-Layer"/>
  <g id="Layers">
   <g id="India_Districts_selection">
    <polygon fill="#6EA97F" points="864,121 864,129 927,164 923,246 993,257 997,335 977,359 1032,413 1125,425 1191,452 1238,437 1242,406 1328,421 1335,452 1413,460 1441,491 1448,558 1515,566 1546,585 1550,663 1635,710 1682,772 1721,846 1752,928 1772,979 1783,1006 1705,1034 1639,1190 1561,1283 1511,1256 1437,1264 1409,1209 1300,1217 1250,1162 1195,1178 1129,1213 1075,1217 1063,1287 993,1330 954,1295 853,1299 794,1256 786,1236 736,1240 724,1256 666,1256 545,1166 479,1193 327,1197 288,1154 187,1154 164,1104 140,1057 105,975 66,909 51,850 58,819 86,784 140,780 164,768 261,757 269,745 347,749 370,725 370,608 417,566 401,534 300,538 202,554 136,542 66,507 8,445 0,413 16,367 31,254 58,199 136,137 269,148 319,172 331,152 366,82 413,8 491,55 545,55 627,0 697,39 744,117 "/>
   </g>
  </g>
 </g>
</svg>
