<?xml version="1.0" encoding="UTF-8"?>
<!DOCTYPE svg PUBLIC "-//W3C//DTD SVG 1.1//EN" "http://www.w3.org/Graphics/SVG/1.1/DTD/svg11.dtd">
<!-- Creator: CorelDRAW X8 -->
<svg xmlns="http://www.w3.org/2000/svg" xml:space="preserve" width="100%" height="100%" version="1.1" shape-rendering="geometricPrecision" text-rendering="geometricPrecision" image-rendering="optimizeQuality" fill-rule="evenodd" clip-rule="evenodd"
viewBox="0 0 1402 1330"
 xmlns:xlink="http://www.w3.org/1999/xlink">
 <g id="Layer_x0020_1">
  <metadata id="CorelCorpID_0Corel-Layer"/>
  <g id="Layers">
   <g id="India_Districts_selection">
    <polygon fill="#6EA97F" points="0,768 62,722 191,612 242,538 242,503 355,491 429,456 460,417 464,355 506,293 545,230 639,215 701,172 760,117 853,62 915,23 974,0 1013,27 1040,137 1138,195 1173,304 1215,382 1196,683 1402,683 1402,729 1391,792 1363,803 1356,862 1313,971 1223,1057 1134,1166 1052,1205 919,1209 845,1244 771,1330 631,1322 577,1225 487,1143 386,1053 257,1069 171,1100 113,1166 74,1201 58,1174 55,1104 4,1061 12,948 16,772 "/>
   </g>
  </g>
 </g>
</svg>
