<?xml version="1.0" encoding="UTF-8"?>
<!DOCTYPE svg PUBLIC "-//W3C//DTD SVG 1.1//EN" "http://www.w3.org/Graphics/SVG/1.1/DTD/svg11.dtd">
<!-- Creator: CorelDRAW X8 -->
<svg xmlns="http://www.w3.org/2000/svg" xml:space="preserve" width="100%" height="100%" version="1.1" shape-rendering="geometricPrecision" text-rendering="geometricPrecision" image-rendering="optimizeQuality" fill-rule="evenodd" clip-rule="evenodd"
viewBox="0 0 1917 1330"
 xmlns:xlink="http://www.w3.org/1999/xlink">
 <g id="Layer_x0020_1">
  <metadata id="CorelCorpID_0Corel-Layer"/>
  <g id="Layers">
   <g id="India_Districts_selection">
    <polygon fill="#6EA97F" points="1683,1201 1589,1205 1558,1205 1531,1174 1512,1178 1465,1182 1441,1147 1410,1147 1395,1112 1367,1065 1325,1088 1309,1088 1278,1073 1231,1076 1231,1088 1212,1088 1161,1080 1126,1112 1095,1108 1060,1147 1060,1162 978,1170 954,1170 943,1197 974,1229 978,1268 927,1314 908,1326 892,1330 849,1264 779,1256 760,1236 760,1221 690,1221 654,1201 491,1201 464,1217 425,1217 370,1197 413,1151 460,998 417,928 265,862 132,842 8,761 0,694 8,558 86,468 261,339 405,172 503,43 627,0 705,0 771,39 822,140 873,187 1118,183 1340,133 1519,125 1617,113 1628,86 1656,113 1706,152 1749,172 1773,191 1792,226 1784,293 1808,300 1819,320 1858,316 1917,332 1905,363 1870,417 1854,445 1843,452 1823,449 1819,437 1780,441 1776,402 1741,363 1714,367 1675,374 1667,394 1648,394 1636,410 1586,449 1562,472 1543,488 1543,511 1535,527 1531,569 1550,597 1582,597 1632,644 1663,651 1667,671 1687,683 1683,702 1663,718 1667,745 1691,761 1699,776 1687,780 1683,815 1726,854 1737,874 1702,917 1702,948 1683,963 1687,1061 1660,1084 1656,1154 1679,1201 "/>
   </g>
  </g>
 </g>
</svg>
