<?xml version="1.0" encoding="UTF-8"?>
<!DOCTYPE svg PUBLIC "-//W3C//DTD SVG 1.1//EN" "http://www.w3.org/Graphics/SVG/1.1/DTD/svg11.dtd">
<!-- Creator: CorelDRAW X8 -->
<svg xmlns="http://www.w3.org/2000/svg" xml:space="preserve" width="100%" height="100%" version="1.1" shape-rendering="geometricPrecision" text-rendering="geometricPrecision" image-rendering="optimizeQuality" fill-rule="evenodd" clip-rule="evenodd"
viewBox="0 0 5180 4943"
 xmlns:xlink="http://www.w3.org/1999/xlink">
 <g id="Layer_x0020_1">
  <metadata id="CorelCorpID_0Corel-Layer"/>
  <g id="Layers">
   <g id="India_Districts_selection">
    <polygon fill="#6EA97F" points="970,2566 998,2537 1013,2522 1230,2232 1331,2116 1375,2000 1418,1812 1490,1667 1519,1508 1621,1218 1751,1218 1939,1334 2127,1247 2228,1000 2330,928 2257,667 2373,493 2402,87 2417,43 2532,0 2518,174 2749,449 2952,623 3082,812 3082,1044 3082,1334 2909,1464 2706,1754 2648,1942 2793,2087 3082,2334 3212,2421 3415,2290 3762,2189 3965,2044 4298,1884 4558,2044 4558,2218 4558,2566 4428,2783 4356,2957 4356,3059 4717,3044 4790,3392 5065,3522 5180,3696 4920,4059 4920,4088 4891,4102 4790,4146 4630,4189 4298,4204 3762,4291 3646,4160 3444,4146 3328,4189 3183,4392 2966,4668 2735,4711 2532,4740 2286,4436 2156,4450 2011,4581 1751,4624 1693,4812 1259,4914 854,4914 724,4943 680,4885 463,4841 304,4725 159,4508 87,4349 29,4204 0,3986 101,3798 232,3638 420,3450 637,3232 781,3088 912,2928 1013,2783 1013,2609 "/>
   </g>
  </g>
 </g>
</svg>
