<?xml version="1.0" encoding="UTF-8"?>
<!DOCTYPE svg PUBLIC "-//W3C//DTD SVG 1.1//EN" "http://www.w3.org/Graphics/SVG/1.1/DTD/svg11.dtd">
<!-- Creator: CorelDRAW X8 -->
<svg xmlns="http://www.w3.org/2000/svg" xml:space="preserve" width="100%" height="100%" version="1.1" shape-rendering="geometricPrecision" text-rendering="geometricPrecision" image-rendering="optimizeQuality" fill-rule="evenodd" clip-rule="evenodd"
viewBox="0 0 1920 1782"
 xmlns:xlink="http://www.w3.org/1999/xlink">
 <g id="Layer_x0020_1">
  <metadata id="CorelCorpID_0Corel-Layer"/>
  <g id="Layers">
   <g id="India_Districts_selection">
    <polygon fill="#6EA97F" points="1555,1693 1498,1724 1477,1698 1435,1714 1232,1729 1226,1703 1075,1708 1012,1782 965,1750 898,1729 851,1782 798,1755 725,1714 705,1682 621,1672 574,1651 527,1635 423,1630 360,1656 313,1708 282,1719 240,1708 209,1641 209,1562 188,1520 110,1515 115,1447 78,1405 52,1332 31,1311 0,1280 31,1243 52,1207 94,1165 172,1144 172,1102 204,1129 329,1139 360,1102 407,1055 444,1024 475,987 496,940 470,904 470,888 480,888 569,862 564,789 684,794 767,669 809,648 887,648 924,617 992,606 1049,575 1305,575 1352,543 1404,507 1399,470 1466,413 1451,355 1477,313 1508,293 1503,199 1539,172 1566,136 1586,73 1581,52 1618,47 1675,89 1712,84 1774,63 1780,26 1753,10 1753,0 1832,5 1863,31 1920,136 1910,183 1863,204 1821,199 1811,272 1759,308 1759,569 1675,643 1597,784 1571,846 1618,925 1748,935 1759,1008 1811,1066 1806,1076 1811,1139 1764,1165 1712,1191 1717,1249 1654,1327 1659,1426 1628,1489 1586,1546 1555,1583 1529,1656 "/>
   </g>
  </g>
 </g>
</svg>
