<?xml version="1.0" encoding="UTF-8"?>
<!DOCTYPE svg PUBLIC "-//W3C//DTD SVG 1.1//EN" "http://www.w3.org/Graphics/SVG/1.1/DTD/svg11.dtd">
<!-- Creator: CorelDRAW X8 -->
<svg xmlns="http://www.w3.org/2000/svg" xml:space="preserve" width="100%" height="100%" version="1.1" shape-rendering="geometricPrecision" text-rendering="geometricPrecision" image-rendering="optimizeQuality" fill-rule="evenodd" clip-rule="evenodd"
viewBox="0 0 1819 2233"
 xmlns:xlink="http://www.w3.org/1999/xlink">
 <g id="Layer_x0020_1">
  <metadata id="CorelCorpID_0Corel-Layer"/>
  <g id="Layers">
   <g id="India_Districts_selection">
    <polygon fill="#6EA97F" points="1197,151 1236,144 1374,124 1472,138 1511,190 1603,196 1694,183 1747,229 1819,262 1799,360 1779,458 1786,550 1766,609 1740,642 1727,766 1733,773 1714,832 1609,1009 1478,1212 1439,1290 1374,1401 1348,1513 1269,1624 1485,1735 1701,1735 1766,1801 1760,1801 1760,1880 1177,1866 1020,1742 922,1749 883,1611 752,1631 615,1781 582,1978 504,2083 432,2227 111,2233 111,2194 0,2011 0,1886 164,1657 157,1467 478,1126 582,969 582,714 491,675 497,426 824,373 903,52 1007,0 1034,314 1197,229 "/>
   </g>
  </g>
 </g>
</svg>
