<?xml version="1.0" encoding="UTF-8"?>
<!DOCTYPE svg PUBLIC "-//W3C//DTD SVG 1.1//EN" "http://www.w3.org/Graphics/SVG/1.1/DTD/svg11.dtd">
<!-- Creator: CorelDRAW X8 -->
<svg xmlns="http://www.w3.org/2000/svg" xml:space="preserve" width="100%" height="100%" version="1.1" shape-rendering="geometricPrecision" text-rendering="geometricPrecision" image-rendering="optimizeQuality" fill-rule="evenodd" clip-rule="evenodd"
viewBox="0 0 2609 1330"
 xmlns:xlink="http://www.w3.org/1999/xlink">
 <g id="Layer_x0020_1">
  <metadata id="CorelCorpID_0Corel-Layer"/>
  <g id="Layers">
   <g id="India_Districts_selection">
    <polygon fill="#6EA97F" points="2324,28 2609,133 2597,285 2468,454 2444,723 2340,804 2288,956 2223,1149 2031,1266 1762,1254 1678,1286 1645,1266 1377,1189 1132,1278 899,1330 462,1318 76,1330 0,1306 88,1242 189,1009 381,727 482,514 610,293 783,133 935,0 1096,8 1300,68 1429,193 1561,342 1702,342 1882,253 2047,141 2247,60 "/>
   </g>
  </g>
 </g>
</svg>
