<?xml version="1.0" encoding="UTF-8"?>
<!DOCTYPE svg PUBLIC "-//W3C//DTD SVG 1.1//EN" "http://www.w3.org/Graphics/SVG/1.1/DTD/svg11.dtd">
<!-- Creator: CorelDRAW X8 -->
<svg xmlns="http://www.w3.org/2000/svg" xml:space="preserve" width="100%" height="100%" version="1.1" shape-rendering="geometricPrecision" text-rendering="geometricPrecision" image-rendering="optimizeQuality" fill-rule="evenodd" clip-rule="evenodd"
viewBox="0 0 2015 1932"
 xmlns:xlink="http://www.w3.org/1999/xlink">
 <g id="Layer_x0020_1">
  <metadata id="CorelCorpID_0Corel-Layer"/>
  <g id="Layers">
   <g id="India_Districts_selection">
    <polygon fill="#6EA97F" points="2015,470 1839,470 1715,550 1647,629 1630,754 1675,884 1720,1003 1681,1088 1545,1184 1449,1292 1398,1428 1296,1632 1273,1734 1188,1864 1047,1932 877,1926 741,1909 657,1870 560,1785 481,1728 430,1728 430,1694 492,1598 577,1519 583,1428 560,1252 492,1133 385,1026 238,952 96,901 28,839 0,759 0,595 102,470 260,346 475,227 645,142 730,79 781,96 1041,91 1341,96 1500,62 1664,0 1845,51 1902,91 1828,227 1902,300 1986,419 "/>
   </g>
  </g>
 </g>
</svg>
