<?xml version="1.0" encoding="UTF-8"?>
<!DOCTYPE svg PUBLIC "-//W3C//DTD SVG 1.1//EN" "http://www.w3.org/Graphics/SVG/1.1/DTD/svg11.dtd">
<!-- Creator: CorelDRAW X8 -->
<svg xmlns="http://www.w3.org/2000/svg" xml:space="preserve" width="100%" height="100%" version="1.1" shape-rendering="geometricPrecision" text-rendering="geometricPrecision" image-rendering="optimizeQuality" fill-rule="evenodd" clip-rule="evenodd"
viewBox="0 0 2095 1481"
 xmlns:xlink="http://www.w3.org/1999/xlink">
 <g id="Layer_x0020_1">
  <metadata id="CorelCorpID_0Corel-Layer"/>
  <g id="Layers">
   <g id="India_Districts_selection">
    <polygon fill="#6EA97F" points="22,873 0,855 17,786 30,699 87,630 169,530 213,425 152,408 121,347 165,282 182,234 217,165 173,65 681,43 729,126 902,113 1106,78 1232,26 1336,0 1418,65 1509,174 1566,221 1661,247 1809,373 1887,425 1969,512 2051,556 2095,786 2091,929 2064,929 2004,955 1917,946 1908,1077 1874,1138 1748,1198 1635,1203 1566,1272 1570,1276 1514,1329 1423,1389 1358,1472 1145,1481 1158,1424 1188,1350 1141,1211 1076,1151 963,1107 941,1090 720,1085 573,973 369,916 134,881 61,855 "/>
   </g>
  </g>
 </g>
</svg>
