<?xml version="1.0" encoding="UTF-8"?>
<!DOCTYPE svg PUBLIC "-//W3C//DTD SVG 1.1//EN" "http://www.w3.org/Graphics/SVG/1.1/DTD/svg11.dtd">
<!-- Creator: CorelDRAW X8 -->
<svg xmlns="http://www.w3.org/2000/svg" xml:space="preserve" width="100%" height="100%" version="1.1" shape-rendering="geometricPrecision" text-rendering="geometricPrecision" image-rendering="optimizeQuality" fill-rule="evenodd" clip-rule="evenodd"
viewBox="0 0 2429 1481"
 xmlns:xlink="http://www.w3.org/1999/xlink">
 <g id="Layer_x0020_1">
  <metadata id="CorelCorpID_0Corel-Layer"/>
  <g id="Layers">
   <g id="India_Districts_selection">
    <polygon fill="#6EA97F" points="2429,1025 2420,1025 2403,1072 2376,1120 2346,1172 2294,1242 2264,1333 2203,1420 2060,1428 1956,1255 1865,1229 1661,1233 1570,1281 1496,1355 1453,1398 1210,1398 1162,1472 1154,1481 1119,1441 1032,1428 1041,1342 989,1307 1032,1268 1019,1164 954,1116 729,1125 677,1146 585,1177 538,1237 377,1233 317,1237 204,1220 173,1172 113,1177 91,1203 39,1211 0,1211 17,1164 17,1064 13,1059 74,1016 117,990 147,968 199,946 195,660 243,630 282,604 308,556 334,508 399,473 390,365 429,300 525,295 624,317 685,317 733,304 733,265 820,269 828,217 872,187 902,148 958,126 1049,135 1049,221 1110,295 1206,287 1219,213 1318,174 1323,156 1370,274 1479,282 1527,221 1540,269 1635,274 1678,221 1748,200 1748,100 1804,35 1878,39 1895,9 2086,0 2103,204 2038,234 2060,330 2012,382 2051,452 2103,525 2116,643 2155,677 2212,686 2311,716 2385,738 2394,864 2416,916 "/>
   </g>
  </g>
 </g>
</svg>
