<?xml version="1.0" encoding="UTF-8"?>
<!DOCTYPE svg PUBLIC "-//W3C//DTD SVG 1.1//EN" "http://www.w3.org/Graphics/SVG/1.1/DTD/svg11.dtd">
<!-- Creator: CorelDRAW X8 -->
<svg xmlns="http://www.w3.org/2000/svg" xml:space="preserve" width="100%" height="100%" version="1.1" shape-rendering="geometricPrecision" text-rendering="geometricPrecision" image-rendering="optimizeQuality" fill-rule="evenodd" clip-rule="evenodd"
viewBox="0 0 1751 2534"
 xmlns:xlink="http://www.w3.org/1999/xlink">
 <g id="Layer_x0020_1">
  <metadata id="CorelCorpID_0Corel-Layer"/>
  <g id="Layers">
   <g id="India_Districts_selection">
    <polygon fill="#6EA97F" points="705,2534 697,2415 467,2423 438,2408 371,2334 267,2289 141,2237 45,2185 0,2148 37,2081 37,2022 67,1955 96,1895 126,1806 193,1799 200,1784 267,1806 393,1806 415,1858 556,1858 601,1836 601,1739 556,1650 482,1598 490,1524 467,1501 415,1457 341,1427 252,1420 200,1382 185,1301 141,1204 126,1159 156,1159 163,1100 230,1078 275,988 289,929 326,877 341,788 393,728 386,520 349,491 356,201 371,201 408,111 505,7 616,0 660,45 801,52 861,141 868,245 987,245 987,349 1113,349 1165,446 1410,446 1410,654 1528,661 1558,721 1662,721 1751,788 1751,855 1706,855 1521,922 1387,1048 1380,1174 1180,1278 1187,1472 1350,1605 1350,1650 1098,1694 1054,1955 853,2007 853,2230 861,2415 727,2467 "/>
   </g>
  </g>
 </g>
</svg>
