<?xml version="1.0" encoding="UTF-8"?>
<!DOCTYPE svg PUBLIC "-//W3C//DTD SVG 1.1//EN" "http://www.w3.org/Graphics/SVG/1.1/DTD/svg11.dtd">
<!-- Creator: CorelDRAW X8 -->
<svg xmlns="http://www.w3.org/2000/svg" xml:space="preserve" width="100%" height="100%" version="1.1" shape-rendering="geometricPrecision" text-rendering="geometricPrecision" image-rendering="optimizeQuality" fill-rule="evenodd" clip-rule="evenodd"
viewBox="0 0 1670 1481"
 xmlns:xlink="http://www.w3.org/1999/xlink">
 <g id="Layer_x0020_1">
  <metadata id="CorelCorpID_0Corel-Layer"/>
  <g id="Layers">
   <g id="India_Districts_selection">
    <polygon fill="#6EA97F" points="1431,347 1349,399 1110,543 1115,651 1262,716 1561,803 1670,933 1644,1051 1431,1229 1345,1346 1349,1481 1232,1450 1063,1433 928,1402 776,1316 681,1237 551,1220 455,1155 364,1151 247,1038 191,955 156,933 156,907 56,803 0,712 26,612 87,473 156,382 221,282 234,104 421,100 724,126 937,0 1019,0 1171,182 1358,300 "/>
   </g>
  </g>
 </g>
</svg>
