<?xml version="1.0" encoding="UTF-8"?>
<!DOCTYPE svg PUBLIC "-//W3C//DTD SVG 1.1//EN" "http://www.w3.org/Graphics/SVG/1.1/DTD/svg11.dtd">
<!-- Creator: CorelDRAW X8 -->
<svg xmlns="http://www.w3.org/2000/svg" xml:space="preserve" width="100%" height="100%" version="1.1" shape-rendering="geometricPrecision" text-rendering="geometricPrecision" image-rendering="optimizeQuality" fill-rule="evenodd" clip-rule="evenodd"
viewBox="0 0 1787 1631"
 xmlns:xlink="http://www.w3.org/1999/xlink">
 <g id="Layer_x0020_1">
  <metadata id="CorelCorpID_0Corel-Layer"/>
  <g id="Layers">
   <g id="India_Districts_selection">
    <polygon fill="#6EA97F" points="1237,1621 1190,1626 1123,1626 1085,1631 1042,1607 1032,1583 1013,1574 1003,1535 970,1531 917,1535 903,1540 865,1569 846,1598 822,1602 774,1607 755,1621 721,1617 717,1598 698,1593 688,1569 640,1545 607,1507 545,1473 516,1440 468,1440 449,1454 411,1459 411,1488 373,1507 339,1521 301,1535 239,1526 215,1483 215,1421 191,1339 153,1282 124,1263 96,1239 86,1177 57,1119 29,1071 0,1019 24,976 33,952 53,904 100,894 129,875 162,856 196,851 201,832 239,827 291,818 315,813 349,799 401,746 420,722 468,708 468,684 463,636 430,607 430,536 411,517 397,493 392,450 373,445 358,426 363,402 368,402 392,392 416,373 607,364 612,344 693,340 698,301 798,292 827,258 841,258 855,210 860,148 836,110 836,57 903,48 917,120 932,129 999,120 1051,139 1065,124 1099,110 1166,110 1132,53 1237,53 1290,53 1319,33 1338,19 1362,14 1443,0 1448,72 1438,105 1472,100 1491,172 1495,206 1543,201 1586,210 1610,239 1615,373 1653,383 1682,407 1682,426 1706,426 1710,464 1734,493 1739,536 1772,579 1777,588 1787,646 1787,660 1744,674 1720,694 1701,722 1600,722 1600,684 1553,674 1534,722 1500,756 1495,804 1495,842 1462,885 1462,918 1414,928 1419,995 1529,1004 1543,1024 1543,1086 1581,1138 1577,1191 1505,1205 1395,1220 1333,1210 1319,1172 1271,1177 1233,1220 1185,1244 1137,1220 1080,1258 1080,1301 1104,1344 1128,1368 1147,1421 1171,1464 1199,1526 1228,1574 "/>
   </g>
  </g>
 </g>
</svg>
