<?xml version="1.0" encoding="UTF-8"?>
<!DOCTYPE svg PUBLIC "-//W3C//DTD SVG 1.1//EN" "http://www.w3.org/Graphics/SVG/1.1/DTD/svg11.dtd">
<!-- Creator: CorelDRAW X8 -->
<svg xmlns="http://www.w3.org/2000/svg" xml:space="preserve" width="100%" height="100%" version="1.1" shape-rendering="geometricPrecision" text-rendering="geometricPrecision" image-rendering="optimizeQuality" fill-rule="evenodd" clip-rule="evenodd"
viewBox="0 0 3034 1339"
 xmlns:xlink="http://www.w3.org/1999/xlink">
 <g id="Layer_x0020_1">
  <metadata id="CorelCorpID_0Corel-Layer"/>
  <g id="Layers">
   <g id="India_Districts_selection">
    <polygon fill="#6EA97F" points="117,569 182,565 233,532 359,499 466,448 522,420 629,313 657,257 741,215 792,210 881,107 1058,107 1184,135 1305,280 1370,285 1370,313 1463,313 1482,280 1785,280 1785,313 1902,308 2009,233 2158,154 2186,65 2270,37 2386,0 2386,5 2573,5 2684,42 2684,112 2824,117 2913,107 2908,257 2978,252 3034,350 3020,350 3029,406 2992,434 2992,621 2857,625 2820,709 2792,728 2605,737 2591,858 2806,1031 2848,1068 2829,1115 2815,1190 2782,1227 2638,1232 2657,1264 2573,1264 2535,1222 2512,1152 2461,1078 2363,1092 2363,1059 2298,1050 2279,1008 2107,1022 2107,1045 2046,1050 2041,1115 1971,1157 1934,1222 1883,1227 1748,1288 1720,1339 1463,1325 1435,1339 1431,1297 1249,1311 1170,1255 1063,1157 955,1162 951,1120 844,1115 853,1082 718,1031 685,952 597,952 461,1012 364,1026 266,910 205,877 14,868 0,863 56,816 131,639 "/>
   </g>
  </g>
 </g>
</svg>
