<?xml version="1.0" encoding="UTF-8"?>
<!DOCTYPE svg PUBLIC "-//W3C//DTD SVG 1.1//EN" "http://www.w3.org/Graphics/SVG/1.1/DTD/svg11.dtd">
<!-- Creator: CorelDRAW X8 -->
<svg xmlns="http://www.w3.org/2000/svg" xml:space="preserve" width="100%" height="100%" version="1.1" shape-rendering="geometricPrecision" text-rendering="geometricPrecision" image-rendering="optimizeQuality" fill-rule="evenodd" clip-rule="evenodd"
viewBox="0 0 1722 1782"
 xmlns:xlink="http://www.w3.org/1999/xlink">
 <g id="Layer_x0020_1">
  <metadata id="CorelCorpID_0Corel-Layer"/>
  <g id="Layers">
   <g id="India_Districts_selection">
    <polygon fill="#6EA97F" points="1159,355 1185,549 1529,486 1519,820 1680,1087 1722,1290 1597,1546 1482,1782 1294,1771 1284,1740 1159,1724 1153,1599 1033,1599 992,1546 986,1473 924,1437 898,1573 851,1609 757,1573 725,1458 725,1296 543,1301 438,1290 438,1296 433,1290 438,1191 459,1160 480,1113 475,1040 485,961 501,883 444,852 407,815 329,825 256,820 224,773 141,768 31,784 0,784 0,721 5,684 151,601 277,361 339,214 329,0 433,31 772,214 945,355 "/>
   </g>
  </g>
 </g>
</svg>
