<?xml version="1.0" encoding="UTF-8"?>
<!DOCTYPE svg PUBLIC "-//W3C//DTD SVG 1.1//EN" "http://www.w3.org/Graphics/SVG/1.1/DTD/svg11.dtd">
<!-- Creator: CorelDRAW X8 -->
<svg xmlns="http://www.w3.org/2000/svg" xml:space="preserve" width="100%" height="100%" version="1.1" shape-rendering="geometricPrecision" text-rendering="geometricPrecision" image-rendering="optimizeQuality" fill-rule="evenodd" clip-rule="evenodd"
viewBox="0 0 1626 2534"
 xmlns:xlink="http://www.w3.org/1999/xlink">
 <g id="Layer_x0020_1">
  <metadata id="CorelCorpID_0Corel-Layer"/>
  <g id="Layers">
   <g id="India_Districts_selection">
    <polygon fill="#6EA97F" points="1626,1003 1418,1301 1106,1702 958,1977 817,2126 765,2178 579,2178 490,2304 319,2482 275,2534 163,2415 104,2341 141,2334 111,2096 45,2044 45,1865 7,1702 0,1598 126,1590 193,1568 245,1516 282,1219 215,1137 200,944 171,810 163,721 275,676 275,505 312,379 290,186 245,97 364,37 460,0 587,119 728,297 883,394 1151,572 1463,825 1604,1003 "/>
   </g>
  </g>
 </g>
</svg>
