<?xml version="1.0" encoding="UTF-8"?>
<!DOCTYPE svg PUBLIC "-//W3C//DTD SVG 1.1//EN" "http://www.w3.org/Graphics/SVG/1.1/DTD/svg11.dtd">
<!-- Creator: CorelDRAW X8 -->
<svg xmlns="http://www.w3.org/2000/svg" xml:space="preserve" width="100%" height="100%" version="1.1" shape-rendering="geometricPrecision" text-rendering="geometricPrecision" image-rendering="optimizeQuality" fill-rule="evenodd" clip-rule="evenodd"
viewBox="0 0 2938 2082"
 xmlns:xlink="http://www.w3.org/1999/xlink">
 <g id="Layer_x0020_1">
  <metadata id="CorelCorpID_0Corel-Layer"/>
  <g id="Layers">
   <g id="India_Districts_selection">
    <polygon fill="#6EA97F" points="738,299 756,342 829,354 939,360 994,372 1054,440 1085,464 1170,550 1213,568 1268,562 1310,531 1359,513 1414,519 1457,537 1518,513 1585,476 1646,446 1694,434 1749,440 1786,470 1810,513 1829,543 1859,574 1896,574 1926,604 1950,696 1987,806 2030,837 2072,873 2164,879 2255,885 2304,855 2334,812 2377,775 2426,757 2462,739 2481,733 2511,751 2523,782 2523,818 2517,861 2487,916 2456,965 2420,1007 2402,1044 2402,1081 2414,1111 2456,1136 2499,1123 2511,1093 2536,1056 2554,1038 2572,1007 2590,983 2725,1117 2712,1264 2639,1337 2639,1435 2792,1472 2938,1679 2804,1673 2749,1691 2749,1807 2603,1813 2560,1868 2487,1868 2481,1893 2408,1893 2389,1960 2298,1966 2237,1991 2213,2082 2158,2070 2103,2027 2036,2045 1981,2027 1938,2003 1926,1960 1926,1850 1859,1850 1859,1826 1835,1801 1835,1697 1853,1691 1853,1661 1816,1606 1774,1557 1701,1533 1640,1490 1530,1459 1487,1404 1390,1410 1353,1392 1292,1392 1231,1337 1176,1264 1115,1185 1079,1166 1012,1154 1012,1142 963,1148 951,1117 823,1123 798,1069 774,1044 707,1038 707,1020 664,1007 634,989 597,934 561,934 536,916 530,879 475,867 414,849 317,837 299,782 226,714 177,684 98,678 79,666 18,653 24,629 0,604 0,470 49,421 73,397 140,397 201,446 250,452 329,452 347,434 421,434 427,342 451,324 518,324 518,232 494,189 457,134 439,104 433,73 457,73 488,49 518,18 530,12 549,0 573,12 579,55 616,73 646,92 689,134 701,202 725,256 "/>
   </g>
  </g>
 </g>
</svg>
