<?xml version="1.0" encoding="UTF-8"?>
<!DOCTYPE svg PUBLIC "-//W3C//DTD SVG 1.1//EN" "http://www.w3.org/Graphics/SVG/1.1/DTD/svg11.dtd">
<!-- Creator: CorelDRAW X8 -->
<svg xmlns="http://www.w3.org/2000/svg" xml:space="preserve" width="100%" height="100%" version="1.1" shape-rendering="geometricPrecision" text-rendering="geometricPrecision" image-rendering="optimizeQuality" fill-rule="evenodd" clip-rule="evenodd"
viewBox="0 0 1291 2534"
 xmlns:xlink="http://www.w3.org/1999/xlink">
 <g id="Layer_x0020_1">
  <metadata id="CorelCorpID_0Corel-Layer"/>
  <g id="Layers">
   <g id="India_Districts_selection">
    <polygon fill="#6EA97F" points="1135,2534 1150,2319 838,2319 816,2170 653,1947 260,1917 126,1836 52,1747 0,1657 134,1449 163,1412 178,1182 178,922 89,773 104,557 260,498 275,260 341,82 341,37 445,30 890,0 905,178 979,245 972,713 1031,803 1031,1063 957,1174 972,1984 1202,2207 1276,2252 1291,2490 "/>
   </g>
  </g>
 </g>
</svg>
