<?xml version="1.0" encoding="UTF-8"?>
<!DOCTYPE svg PUBLIC "-//W3C//DTD SVG 1.1//EN" "http://www.w3.org/Graphics/SVG/1.1/DTD/svg11.dtd">
<!-- Creator: CorelDRAW X8 -->
<svg xmlns="http://www.w3.org/2000/svg" xml:space="preserve" width="100%" height="100%" version="1.1" shape-rendering="geometricPrecision" text-rendering="geometricPrecision" image-rendering="optimizeQuality" fill-rule="evenodd" clip-rule="evenodd"
viewBox="0 0 2877 2685"
 xmlns:xlink="http://www.w3.org/1999/xlink">
 <g id="Layer_x0020_1">
  <metadata id="CorelCorpID_0Corel-Layer"/>
  <g id="Layers">
   <g id="India_Districts_selection">
    <polygon fill="#6EA97F" points="1320,8 1313,79 1344,150 1423,315 1360,433 1297,504 1305,583 1407,701 1446,779 1588,772 1682,835 1792,858 1792,1118 1855,1197 1973,1220 2028,1291 2334,1299 2342,1157 2421,1118 2507,1134 2657,1252 2657,1268 2649,1394 2641,1661 2759,1709 2829,1740 2806,2086 2877,2142 2814,2236 2822,2315 2767,2378 2790,2441 2696,2535 2342,2551 2334,2488 2201,2504 2193,2535 2122,2543 2075,2582 1894,2590 1886,2472 1926,2441 1926,2362 1823,2370 1761,2488 1603,2512 1619,2441 1328,2456 1336,2606 1234,2685 817,2653 739,2598 644,2535 613,2464 1037,2118 1124,2031 1116,1866 872,1811 299,1819 291,1779 424,1362 393,1079 196,1071 149,1126 63,1102 0,803 55,630 417,299 417,165 464,142 652,142 700,118 951,87 959,47 1069,55 1108,0 "/>
   </g>
  </g>
 </g>
</svg>
