<?xml version="1.0" encoding="UTF-8"?>
<!DOCTYPE svg PUBLIC "-//W3C//DTD SVG 1.1//EN" "http://www.w3.org/Graphics/SVG/1.1/DTD/svg11.dtd">
<!-- Creator: CorelDRAW X8 -->
<svg xmlns="http://www.w3.org/2000/svg" xml:space="preserve" width="100%" height="100%" version="1.1" shape-rendering="geometricPrecision" text-rendering="geometricPrecision" image-rendering="optimizeQuality" fill-rule="evenodd" clip-rule="evenodd"
viewBox="0 0 4990 5395"
 xmlns:xlink="http://www.w3.org/1999/xlink">
 <g id="Layer_x0020_1">
  <metadata id="CorelCorpID_0Corel-Layer"/>
  <g id="Layers">
   <g id="India_Districts_selection">
    <polygon fill="#6EA97F" points="4990,2547 4943,2610 4753,2737 4596,3037 4422,3259 4343,3544 4295,3718 4311,4762 4280,4936 4185,5062 4027,5126 3838,5205 3695,5300 3522,5395 3380,5395 3253,5252 3127,5126 3158,5031 3064,4809 3095,4430 3206,4081 3285,3828 3348,3512 3474,3180 3727,2721 3537,2610 3522,2452 3395,2231 3111,2215 2937,2009 2922,1756 2843,1629 2637,1408 2416,1123 2053,1155 1958,1218 1484,1234 1248,1313 805,1376 505,1503 237,1550 0,1550 16,1535 0,1313 95,1123 284,791 600,649 837,490 1090,380 1500,395 1785,490 1816,554 2164,554 2195,348 2021,221 2179,158 2448,95 2685,0 2922,111 3016,206 3285,316 3569,221 3648,158 3964,111 4074,206 4138,522 4295,712 4469,949 4532,1376 4674,1550 4674,2088 4864,2310 "/>
   </g>
  </g>
 </g>
</svg>
