<?xml version="1.0" encoding="UTF-8"?>
<!DOCTYPE svg PUBLIC "-//W3C//DTD SVG 1.1//EN" "http://www.w3.org/Graphics/SVG/1.1/DTD/svg11.dtd">
<!-- Creator: CorelDRAW X8 -->
<svg xmlns="http://www.w3.org/2000/svg" xml:space="preserve" width="100%" height="100%" version="1.1" shape-rendering="geometricPrecision" text-rendering="geometricPrecision" image-rendering="optimizeQuality" fill-rule="evenodd" clip-rule="evenodd"
viewBox="0 0 3400 2233"
 xmlns:xlink="http://www.w3.org/1999/xlink">
 <g id="Layer_x0020_1">
  <metadata id="CorelCorpID_0Corel-Layer"/>
  <g id="Layers">
   <g id="India_Districts_selection">
    <polygon fill="#6EA97F" points="3151,1709 3007,1762 2818,1801 2739,1853 2654,1971 2576,2076 2517,2102 2432,2096 2327,2043 2190,2063 2125,2089 2059,2148 1961,2181 1870,2148 1798,2024 1706,1873 1589,1703 1445,1703 1334,1762 1255,1834 1157,1932 1033,1991 896,2043 745,2135 641,2233 471,2233 353,2181 242,2083 118,1978 39,1794 0,1735 111,1716 163,1677 333,1670 379,1631 484,1644 726,1644 758,1598 785,1506 856,1388 935,1284 1033,1133 1111,1002 1098,884 1066,799 1190,720 1131,498 1085,452 1072,347 1131,229 1157,203 1170,164 1353,85 1576,124 1693,144 1844,203 1974,242 2033,203 2249,210 2386,210 2524,92 2720,0 3007,13 3171,79 3275,124 3354,170 3400,275 3380,367 3328,445 3177,544 3125,688 3086,851 3027,923 3014,995 3007,1113 3007,1153 3020,1244 3040,1375 3086,1480 3151,1506 "/>
   </g>
  </g>
 </g>
</svg>
