<?xml version="1.0" encoding="UTF-8"?>
<!DOCTYPE svg PUBLIC "-//W3C//DTD SVG 1.1//EN" "http://www.w3.org/Graphics/SVG/1.1/DTD/svg11.dtd">
<!-- Creator: CorelDRAW X8 -->
<svg xmlns="http://www.w3.org/2000/svg" xml:space="preserve" width="100%" height="100%" version="1.1" shape-rendering="geometricPrecision" text-rendering="geometricPrecision" image-rendering="optimizeQuality" fill-rule="evenodd" clip-rule="evenodd"
viewBox="0 0 2659 1481"
 xmlns:xlink="http://www.w3.org/1999/xlink">
 <g id="Layer_x0020_1">
  <metadata id="CorelCorpID_0Corel-Layer"/>
  <g id="Layers">
   <g id="India_Districts_selection">
    <path fill="#6EA97F" d="M2433 291l13 139 74 82 9 382 112 113 18 161 -61 82 -65 18 -126 61 -178 -44 -225 -104 -130 13 -169 -169 -40 -157 -138 -8 -57 121 -121 18 -65 8 -35 -121 -169 82 -104 126 91 104 -9 283 -325 -9 -69 -52 -74 -13 -9 -148 113 -22 13 -243 22 -52 -104 -9 -57 -43 -104 43 -130 9 -87 -13 -47 -48 -44 26 -147 5 -9 -52 139 -161 130 -204 212 -56 9 -87 83 -5 177 -208 196 91 203 130 87 -17 122 96 169 26 208 -13 134 -157 91 -208 87 -87 208 30 213 61 0 187 -35 13zm-408 556l18 -39 35 -35 65 -5 34 -26 26 -39 18 -73 -52 -18 21 -87 13 -82 -69 -22 -30 -39 -74 13 -18 35 -26 35 -30 39 -48 30 -43 35 -48 21 -21 66 21 39 57 39 56 39 9 48 21 26 65 0z"/>
   </g>
  </g>
 </g>
</svg>
