<?xml version="1.0" encoding="UTF-8"?>
<!DOCTYPE svg PUBLIC "-//W3C//DTD SVG 1.1//EN" "http://www.w3.org/Graphics/SVG/1.1/DTD/svg11.dtd">
<!-- Creator: CorelDRAW X8 -->
<svg xmlns="http://www.w3.org/2000/svg" xml:space="preserve" width="100%" height="100%" version="1.1" shape-rendering="geometricPrecision" text-rendering="geometricPrecision" image-rendering="optimizeQuality" fill-rule="evenodd" clip-rule="evenodd"
viewBox="0 0 2791 3136"
 xmlns:xlink="http://www.w3.org/1999/xlink">
 <g id="Layer_x0020_1">
  <metadata id="CorelCorpID_0Corel-Layer"/>
  <g id="Layers">
   <g id="India_Districts_selection">
    <path fill="#6EA97F" d="M1689 1168l157 9 137 -64 37 -175 55 19 184 46 257 27 73 175 -73 46 -92 73 -37 83 28 129 -46 110 -18 83 -46 92 -19 129 -92 9 -91 37 -138 74 -18 119 -56 110 -73 -36 -119 64 -111 110 56 166 45 37 65 73 9 184 27 92 -91 101 -111 0 10 46 -28 -9 -92 -55 -82 -74 -120 -101 -101 -101 -27 -119 -74 -102 -229 -55 -166 83 -36 -55 -221 -120 -220 -83 -184 -230 -18 -220 55 -65 101 -82 83 -74 36 -83 -18 -92 -64 -27 -37 -56 9 -36 129 -19 73 -73 156 -37 129 -28 37 -64 238 -37 10 -101 55 -18 73 -65 18 -55 -55 -18 46 -56 46 -73 101 -9 101 -120 46 -46 9 -101 37 -46 37 -46 73 9 -9 212 119 211 -9 101 -110 102 18 110 156 55zm662 -1085l137 129 110 -46 65 -92 82 64 46 147 -119 129 -110 138 92 248 -46 74 -46 9 -129 -221 -165 -27 -165 9 -175 -19 -239 -257 65 -74 -9 -82 18 -92 18 9 129 -9 156 -83 147 -37 138 83z"/>
   </g>
  </g>
 </g>
</svg>
