<?xml version="1.0" encoding="UTF-8"?>
<!DOCTYPE svg PUBLIC "-//W3C//DTD SVG 1.1//EN" "http://www.w3.org/Graphics/SVG/1.1/DTD/svg11.dtd">
<!-- Creator: CorelDRAW X8 -->
<svg xmlns="http://www.w3.org/2000/svg" xml:space="preserve" width="100%" height="100%" version="1.1" shape-rendering="geometricPrecision" text-rendering="geometricPrecision" image-rendering="optimizeQuality" fill-rule="evenodd" clip-rule="evenodd"
viewBox="0 0 2233 2384"
 xmlns:xlink="http://www.w3.org/1999/xlink">
 <g id="Layer_x0020_1">
  <metadata id="CorelCorpID_0Corel-Layer"/>
  <g id="Layers">
   <g id="India_Districts_selection">
    <polygon fill="#6EA97F" points="2163,1202 2149,1307 2114,1328 2080,1384 2121,1433 2233,1440 2226,1475 2198,1524 2170,1629 2142,1629 2135,1657 2017,1664 2010,1692 1968,1706 1884,1720 1856,1741 1828,1797 1779,1832 1752,1866 1738,1901 1710,1950 1661,1978 1598,2006 1570,2041 1535,2076 1507,2132 1563,2181 1598,2202 1535,2265 1521,2265 1417,2237 1403,2265 1326,2279 1305,2293 1284,2321 1214,2328 1200,2342 1144,2342 1089,2363 1054,2384 998,2370 949,2335 907,2314 858,2265 796,2237 768,2188 747,2104 726,1992 677,1936 621,1929 558,1901 488,1873 454,1839 391,1783 349,1720 356,1643 328,1629 300,1538 258,1454 209,1419 147,1377 105,1349 56,1272 42,1244 0,1202 14,1132 56,1070 70,1007 119,958 195,944 265,895 328,860 342,811 335,748 349,692 419,629 454,552 495,517 530,461 572,412 572,364 607,315 628,294 649,238 663,189 677,161 684,105 691,56 740,21 747,0 837,14 914,0 956,28 949,56 935,140 998,196 1033,273 1082,350 1124,412 1256,433 1361,426 1465,433 1479,468 1514,482 1528,531 1500,552 1493,636 1535,664 1549,727 1528,762 1514,853 1556,972 1598,1070 1689,1091 1759,1118 1856,1098 1912,1167 1940,1195 1982,1160 2024,1160 2059,1209 "/>
   </g>
  </g>
 </g>
</svg>
