<?xml version="1.0" encoding="UTF-8"?>
<!DOCTYPE svg PUBLIC "-//W3C//DTD SVG 1.1//EN" "http://www.w3.org/Graphics/SVG/1.1/DTD/svg11.dtd">
<!-- Creator: CorelDRAW X8 -->
<svg xmlns="http://www.w3.org/2000/svg" xml:space="preserve" width="100%" height="100%" version="1.1" shape-rendering="geometricPrecision" text-rendering="geometricPrecision" image-rendering="optimizeQuality" fill-rule="evenodd" clip-rule="evenodd"
viewBox="0 0 2805 2384"
 xmlns:xlink="http://www.w3.org/1999/xlink">
 <g id="Layer_x0020_1">
  <metadata id="CorelCorpID_0Corel-Layer"/>
  <g id="Layers">
   <g id="India_Districts_selection">
    <polygon fill="#6EA97F" points="2128,587 2317,685 2491,671 2596,685 2582,741 2652,1209 2770,1482 2805,1804 2798,2118 2791,2370 2401,2384 2066,2370 1870,2356 1640,2251 1375,2160 1179,2090 1005,2160 726,2223 405,2118 405,1894 391,1608 223,1433 112,993 0,776 126,496 140,350 377,0 1026,21 1354,231 1640,357 1884,489 "/>
   </g>
  </g>
 </g>
</svg>
