<?xml version="1.0" encoding="UTF-8"?>
<!DOCTYPE svg PUBLIC "-//W3C//DTD SVG 1.1//EN" "http://www.w3.org/Graphics/SVG/1.1/DTD/svg11.dtd">
<!-- Creator: CorelDRAW X8 -->
<svg xmlns="http://www.w3.org/2000/svg" xml:space="preserve" width="100%" height="100%" version="1.1" shape-rendering="geometricPrecision" text-rendering="geometricPrecision" image-rendering="optimizeQuality" fill-rule="evenodd" clip-rule="evenodd"
viewBox="0 0 4090 1858"
 xmlns:xlink="http://www.w3.org/1999/xlink">
 <g id="Layer_x0020_1">
  <metadata id="CorelCorpID_0Corel-Layer"/>
  <g id="Layers">
   <g id="India_Districts_selection">
    <polygon fill="#6EA97F" points="3675,1846 3574,1852 3448,1858 3429,1795 3429,1600 3385,1562 3297,1531 3247,1493 3209,1424 3134,1367 3058,1323 3020,1273 2995,1184 2976,1102 2938,1058 2938,1021 2913,970 2876,913 2825,857 2769,806 2743,787 2693,731 2504,750 2467,775 2423,787 2341,825 2328,857 2309,882 2297,932 2278,964 2246,1002 2202,1046 2127,1096 2001,1102 1963,1115 1869,1128 1787,1140 1749,1197 1630,1197 1605,1241 1535,1228 1516,1285 1422,1291 1233,1273 1221,1228 1214,1159 1177,1128 1120,1121 1101,1090 1070,1090 1026,1052 761,1058 749,1134 686,1121 667,1058 642,1039 591,1027 510,995 459,951 440,907 333,895 296,863 227,869 176,825 94,813 88,750 57,680 63,554 31,554 19,491 0,441 19,435 113,403 138,384 239,365 409,340 503,334 510,334 598,359 642,346 654,403 698,391 724,580 780,598 837,624 938,617 963,649 1447,661 1460,611 1498,580 1573,561 1598,535 1630,523 1661,466 1680,397 1774,378 1812,346 1831,315 1900,265 1938,233 1988,233 2020,271 2183,277 2183,315 2259,315 2259,277 2322,233 2309,183 2372,183 2404,151 2618,151 2630,195 2712,195 2725,132 2775,101 2819,63 2882,57 2907,32 2964,32 2976,6 3045,0 3052,38 3115,63 3165,101 3165,176 3196,214 3341,246 3398,183 3442,132 3511,94 3605,82 3643,63 3643,38 3725,6 3863,19 3945,6 3952,63 4008,107 4040,120 4059,176 4090,252 4090,321 4090,328 4084,365 4059,397 4040,454 4008,479 4002,510 3958,561 3964,643 4014,674 4052,718 4046,819 4046,901 4014,895 4014,945 3543,939 3549,901 3196,895 3184,1008 3228,1052 3272,1052 3272,1084 3310,1090 3316,1115 3429,1128 3436,1159 3454,1165 3473,1210 3505,1210 3498,1323 3530,1323 3593,1380 3587,1436 3555,1474 3498,1525 3511,1556 3561,1562 3593,1581 3650,1594 3668,1695 3656,1839 "/>
   </g>
  </g>
 </g>
</svg>
