<?xml version="1.0" encoding="UTF-8"?>
<!DOCTYPE svg PUBLIC "-//W3C//DTD SVG 1.1//EN" "http://www.w3.org/Graphics/SVG/1.1/DTD/svg11.dtd">
<!-- Creator: CorelDRAW X8 -->
<svg xmlns="http://www.w3.org/2000/svg" xml:space="preserve" width="100%" height="100%" version="1.1" shape-rendering="geometricPrecision" text-rendering="geometricPrecision" image-rendering="optimizeQuality" fill-rule="evenodd" clip-rule="evenodd"
viewBox="0 0 3390 1856"
 xmlns:xlink="http://www.w3.org/1999/xlink">
 <g id="Layer_x0020_1">
  <metadata id="CorelCorpID_0Corel-Layer"/>
  <g id="Layers">
   <g id="India_Districts_selection">
    <polygon fill="#6EA97F" points="1668,76 1662,87 1793,261 1901,316 2135,316 2271,354 2368,490 2510,680 2721,794 2857,920 3015,909 3123,974 3210,1012 3390,1099 3270,1295 3297,1464 2895,1665 2455,1671 1581,1747 1260,1856 1162,1752 1141,1518 1097,1502 1086,1426 994,1366 934,1295 690,1322 646,1382 532,1398 478,1333 266,1295 266,1230 326,1154 299,1034 0,724 212,495 587,479 636,566 722,533 728,495 864,484 951,359 1016,169 1076,38 1244,0 1293,76 1396,71 "/>
   </g>
  </g>
 </g>
</svg>
