<?xml version="1.0" encoding="UTF-8"?>
<!DOCTYPE svg PUBLIC "-//W3C//DTD SVG 1.1//EN" "http://www.w3.org/Graphics/SVG/1.1/DTD/svg11.dtd">
<!-- Creator: CorelDRAW X8 -->
<svg xmlns="http://www.w3.org/2000/svg" xml:space="preserve" width="100%" height="100%" version="1.1" shape-rendering="geometricPrecision" text-rendering="geometricPrecision" image-rendering="optimizeQuality" fill-rule="evenodd" clip-rule="evenodd"
viewBox="0 0 2427 1631"
 xmlns:xlink="http://www.w3.org/1999/xlink">
 <g id="Layer_x0020_1">
  <metadata id="CorelCorpID_0Corel-Layer"/>
  <g id="Layers">
   <g id="India_Districts_selection">
    <polygon fill="#6EA97F" points="2322,139 2422,230 2427,306 2317,392 2265,454 2231,545 1968,560 1983,603 1925,674 1892,780 1863,861 1763,847 1634,933 1486,1119 1467,1258 1381,1392 1309,1511 1204,1631 1099,1559 1003,1488 831,1502 674,1435 564,1382 597,1239 607,933 569,923 306,871 263,770 229,584 76,488 0,344 10,316 100,325 139,239 220,234 373,191 478,48 549,0 645,29 731,77 784,53 1199,48 1204,14 1433,0 1538,57 1772,72 1906,19 1964,14 2045,129 2035,215 2083,268 2207,239 "/>
   </g>
  </g>
 </g>
</svg>
