<?xml version="1.0" encoding="UTF-8"?>
<!DOCTYPE svg PUBLIC "-//W3C//DTD SVG 1.1//EN" "http://www.w3.org/Graphics/SVG/1.1/DTD/svg11.dtd">
<!-- Creator: CorelDRAW X8 -->
<svg xmlns="http://www.w3.org/2000/svg" xml:space="preserve" width="100%" height="100%" version="1.1" shape-rendering="geometricPrecision" text-rendering="geometricPrecision" image-rendering="optimizeQuality" fill-rule="evenodd" clip-rule="evenodd"
viewBox="0 0 1561 2083"
 xmlns:xlink="http://www.w3.org/1999/xlink">
 <g id="Layer_x0020_1">
  <metadata id="CorelCorpID_0Corel-Layer"/>
  <g id="Layers">
   <g id="India_Districts_selection">
    <polygon fill="#6EA97F" points="1451,2034 1390,2028 1262,2046 1116,2083 951,2028 933,1942 847,1930 561,1844 226,1790 91,1722 79,1405 116,1240 171,825 79,745 67,660 18,586 0,391 73,373 140,269 219,116 268,37 348,0 537,98 701,208 847,275 1024,342 1104,592 1195,690 1195,989 1335,1258 1475,1325 1500,1564 1561,1582 1543,1936 1451,2028 "/>
   </g>
  </g>
 </g>
</svg>
