<?xml version="1.0" encoding="UTF-8"?>
<!DOCTYPE svg PUBLIC "-//W3C//DTD SVG 1.1//EN" "http://www.w3.org/Graphics/SVG/1.1/DTD/svg11.dtd">
<!-- Creator: CorelDRAW X8 -->
<svg xmlns="http://www.w3.org/2000/svg" xml:space="preserve" width="100%" height="100%" version="1.1" shape-rendering="geometricPrecision" text-rendering="geometricPrecision" image-rendering="optimizeQuality" fill-rule="evenodd" clip-rule="evenodd"
viewBox="0 0 1795 1631"
 xmlns:xlink="http://www.w3.org/1999/xlink">
 <g id="Layer_x0020_1">
  <metadata id="CorelCorpID_0Corel-Layer"/>
  <g id="Layers">
   <g id="India_Districts_selection">
    <polygon fill="#6EA97F" points="1795,1057 1695,1052 1638,1062 1590,1076 1523,971 1389,966 1332,966 1151,1105 1122,1215 1141,1277 1289,1421 1332,1478 1318,1621 1237,1631 1237,1593 1127,1598 1108,1621 988,1621 984,1559 945,1502 855,1497 831,1468 759,1473 697,1540 678,1593 549,1593 487,1535 420,1473 310,1464 201,1430 134,1425 86,1263 48,1229 81,1186 72,1134 43,1067 43,1024 115,1009 124,952 172,933 205,894 244,832 220,756 191,698 105,698 72,679 43,612 57,541 19,517 24,469 33,435 0,416 5,354 5,340 129,316 234,258 277,191 387,187 406,158 549,254 659,277 735,249 831,196 917,177 941,120 955,62 960,0 1036,19 1146,96 1194,148 1194,206 1380,378 1447,430 1452,497 1485,541 1538,579 1595,588 1662,574 1733,564 1762,588 1748,689 1724,741 1724,784 1762,823 1791,871 "/>
   </g>
  </g>
 </g>
</svg>
