<?xml version="1.0" encoding="UTF-8"?>
<!DOCTYPE svg PUBLIC "-//W3C//DTD SVG 1.1//EN" "http://www.w3.org/Graphics/SVG/1.1/DTD/svg11.dtd">
<!-- Creator: CorelDRAW X8 -->
<svg xmlns="http://www.w3.org/2000/svg" xml:space="preserve" width="100%" height="100%" version="1.1" shape-rendering="geometricPrecision" text-rendering="geometricPrecision" image-rendering="optimizeQuality" fill-rule="evenodd" clip-rule="evenodd"
viewBox="0 0 1744 1330"
 xmlns:xlink="http://www.w3.org/1999/xlink">
 <g id="Layer_x0020_1">
  <metadata id="CorelCorpID_0Corel-Layer"/>
  <g id="Layers">
   <g id="India_Districts_selection">
    <polygon fill="#6EA97F" points="1507,1330 1444,1307 1078,1307 981,1326 771,1174 596,1073 510,1088 487,1186 436,1182 401,1162 347,1162 238,1166 160,1135 109,1092 90,1041 51,928 27,846 0,792 0,722 39,640 55,569 58,519 47,499 105,484 132,441 128,386 90,335 86,269 109,215 128,168 187,176 199,199 273,195 304,164 350,164 347,199 350,351 428,347 471,312 514,242 561,215 561,195 615,183 619,164 716,164 775,121 794,86 810,55 907,59 907,78 1195,94 1242,74 1277,47 1347,0 1390,20 1386,98 1413,148 1413,238 1409,312 1402,328 1355,398 1370,425 1398,456 1444,484 1577,495 1631,569 1635,620 1744,620 1736,698 1721,776 1686,803 1686,854 1608,928 1553,971 1550,1092 1530,1139 1499,1209 "/>
   </g>
  </g>
 </g>
</svg>
