<?xml version="1.0" encoding="UTF-8"?>
<!DOCTYPE svg PUBLIC "-//W3C//DTD SVG 1.1//EN" "http://www.w3.org/Graphics/SVG/1.1/DTD/svg11.dtd">
<!-- Creator: CorelDRAW X8 -->
<svg xmlns="http://www.w3.org/2000/svg" xml:space="preserve" width="100%" height="100%" version="1.1" shape-rendering="geometricPrecision" text-rendering="geometricPrecision" image-rendering="optimizeQuality" fill-rule="evenodd" clip-rule="evenodd"
viewBox="0 0 876 1782"
 xmlns:xlink="http://www.w3.org/1999/xlink">
 <g id="Layer_x0020_1">
  <metadata id="CorelCorpID_0Corel-Layer"/>
  <g id="Layers">
   <g id="India_Districts_selection">
    <polygon fill="#6EA97F" points="756,1040 741,1071 741,1129 767,1155 788,1155 814,1186 840,1202 871,1223 876,1275 855,1285 819,1285 803,1311 777,1353 777,1385 761,1421 761,1458 767,1505 788,1541 819,1562 845,1578 850,1651 861,1667 855,1693 829,1698 814,1698 767,1719 751,1740 694,1740 605,1740 522,1745 485,1745 459,1776 339,1782 313,1776 276,1761 250,1740 224,1735 130,1452 110,1212 94,967 78,883 115,820 120,758 68,721 31,695 31,632 52,575 73,528 57,470 37,428 5,235 0,78 10,78 26,68 42,57 83,42 115,31 156,31 183,10 203,0 240,0 292,0 303,26 318,52 355,84 407,84 402,120 412,141 428,162 449,204 469,219 506,225 542,225 579,235 615,209 615,214 642,266 662,293 657,376 662,413 694,465 746,517 772,517 803,554 819,580 834,637 814,695 798,737 756,773 720,794 704,831 725,862 756,867 767,940 777,977 761,977 751,1003 735,1014 "/>
   </g>
  </g>
 </g>
</svg>
