<?xml version="1.0" encoding="UTF-8"?>
<!DOCTYPE svg PUBLIC "-//W3C//DTD SVG 1.1//EN" "http://www.w3.org/Graphics/SVG/1.1/DTD/svg11.dtd">
<!-- Creator: CorelDRAW X8 -->
<svg xmlns="http://www.w3.org/2000/svg" xml:space="preserve" width="100%" height="100%" version="1.1" shape-rendering="geometricPrecision" text-rendering="geometricPrecision" image-rendering="optimizeQuality" fill-rule="evenodd" clip-rule="evenodd"
viewBox="0 0 2667 2233"
 xmlns:xlink="http://www.w3.org/1999/xlink">
 <g id="Layer_x0020_1">
  <metadata id="CorelCorpID_0Corel-Layer"/>
  <g id="Layers">
   <g id="India_Districts_selection">
    <polygon fill="#6EA97F" points="2615,1009 2589,1028 2510,1349 2667,1781 2458,2128 2275,2233 2040,2233 2001,2037 1857,2004 1687,2050 1347,1958 915,1965 700,2083 451,2109 118,2043 0,1978 26,1742 59,1598 248,1421 268,1343 78,1107 65,1107 78,1048 105,1002 111,838 183,727 248,616 281,544 366,380 340,321 340,314 347,314 438,203 445,92 510,46 830,46 935,7 981,13 1079,52 1151,118 1216,111 1209,79 1366,85 1412,7 1497,0 1549,13 1549,79 1628,124 1641,170 1798,190 1942,249 2020,301 2007,380 2066,445 2171,504 2308,524 2386,648 2465,766 2497,838 2543,943 2589,976 "/>
   </g>
  </g>
 </g>
</svg>
