<?xml version="1.0" encoding="UTF-8"?>
<!DOCTYPE svg PUBLIC "-//W3C//DTD SVG 1.1//EN" "http://www.w3.org/Graphics/SVG/1.1/DTD/svg11.dtd">
<!-- Creator: CorelDRAW X8 -->
<svg xmlns="http://www.w3.org/2000/svg" xml:space="preserve" width="100%" height="100%" version="1.1" shape-rendering="geometricPrecision" text-rendering="geometricPrecision" image-rendering="optimizeQuality" fill-rule="evenodd" clip-rule="evenodd"
viewBox="0 0 2024 2083"
 xmlns:xlink="http://www.w3.org/1999/xlink">
 <g id="Layer_x0020_1">
  <metadata id="CorelCorpID_0Corel-Layer"/>
  <g id="Layers">
   <g id="India_Districts_selection">
    <polygon fill="#6EA97F" points="2024,153 2012,257 1975,336 1951,507 1835,635 1738,702 1732,855 1658,1014 1701,1252 1664,1460 1536,1606 1274,1741 1110,1869 933,1887 762,1985 658,2083 506,2028 463,1973 335,1948 262,1857 140,1692 91,1588 0,1447 6,1325 91,1160 91,928 134,751 183,574 226,434 250,324 226,257 262,189 268,134 439,134 640,177 787,140 1018,104 1018,6 1085,12 1262,0 1335,37 1561,43 1774,55 1957,159 "/>
   </g>
  </g>
 </g>
</svg>
