<?xml version="1.0" encoding="UTF-8"?>
<!DOCTYPE svg PUBLIC "-//W3C//DTD SVG 1.1//EN" "http://www.w3.org/Graphics/SVG/1.1/DTD/svg11.dtd">
<!-- Creator: CorelDRAW X8 -->
<svg xmlns="http://www.w3.org/2000/svg" xml:space="preserve" width="100%" height="100%" version="1.1" shape-rendering="geometricPrecision" text-rendering="geometricPrecision" image-rendering="optimizeQuality" fill-rule="evenodd" clip-rule="evenodd"
viewBox="0 0 1683 1481"
 xmlns:xlink="http://www.w3.org/1999/xlink">
 <g id="Layer_x0020_1">
  <metadata id="CorelCorpID_0Corel-Layer"/>
  <g id="Layers">
   <g id="India_Districts_selection">
    <polygon fill="#6EA97F" points="815,1481 724,1441 624,1320 538,1320 481,1281 442,1224 473,1085 503,1046 672,1020 690,973 798,960 841,890 841,677 893,612 915,569 941,521 945,473 750,465 711,495 655,543 603,543 551,512 503,473 499,421 191,425 48,434 4,421 0,352 87,321 139,247 226,174 304,187 360,126 447,130 516,104 585,9 690,0 781,78 889,56 967,117 1032,156 1115,152 1171,109 1197,78 1201,39 1353,126 1461,161 1626,230 1683,334 1678,482 1661,525 1626,569 1527,573 1483,630 1492,699 1453,725 1492,777 1513,825 1665,821 1657,890 1678,916 1683,1033 1618,1046 1418,1103 1414,1138 1141,1294 971,1402 "/>
   </g>
  </g>
 </g>
</svg>
