<?xml version="1.0" encoding="UTF-8"?>
<!DOCTYPE svg PUBLIC "-//W3C//DTD SVG 1.1//EN" "http://www.w3.org/Graphics/SVG/1.1/DTD/svg11.dtd">
<!-- Creator: CorelDRAW X8 -->
<svg xmlns="http://www.w3.org/2000/svg" xml:space="preserve" width="100%" height="100%" version="1.1" shape-rendering="geometricPrecision" text-rendering="geometricPrecision" image-rendering="optimizeQuality" fill-rule="evenodd" clip-rule="evenodd"
viewBox="0 0 2589 2233"
 xmlns:xlink="http://www.w3.org/1999/xlink">
 <g id="Layer_x0020_1">
  <metadata id="CorelCorpID_0Corel-Layer"/>
  <g id="Layers">
   <g id="India_Districts_selection">
    <polygon fill="#6EA97F" points="1249,642 1406,694 1543,661 1628,629 1719,661 1850,707 1968,760 2059,766 2229,773 2419,766 2419,1028 2465,1212 2530,1401 2563,1834 2569,1873 2582,1958 2589,2030 2576,2030 2550,2043 2530,2056 2510,2069 2491,2089 2478,2102 2452,2102 2445,2096 2439,2076 2432,2050 2432,2017 2425,2011 2412,2004 2393,2011 2367,2011 2354,2004 2334,1991 2321,1984 2308,1978 2301,1971 2288,1958 2275,1945 2262,1925 2249,1925 2229,1932 2216,1939 2190,1971 2184,1971 2151,1978 2138,2004 2112,2030 2105,2043 2099,2069 2072,2083 2059,2083 2040,2069 2007,2063 1987,2063 1948,2056 1922,2063 1896,2096 1896,2109 1883,2109 1870,2109 1850,2109 1831,2115 1817,2128 1804,2135 1791,2142 1778,2148 1746,2168 1746,2187 1746,2194 1759,2207 1759,2233 1713,2233 1693,2187 1589,2142 1504,2083 1471,2017 1445,1880 1334,1866 1249,1781 1151,1703 1105,1611 1066,1487 922,1480 843,1447 856,1408 837,1264 785,1198 732,1126 549,1126 399,1094 320,989 163,976 39,995 7,1015 0,923 33,819 105,707 163,616 124,557 196,530 346,511 392,419 458,347 634,321 628,269 739,118 837,72 1007,39 1059,0 1105,92 1157,308 1236,393 1249,530 "/>
   </g>
  </g>
 </g>
</svg>
