<?xml version="1.0" encoding="UTF-8"?>
<!DOCTYPE svg PUBLIC "-//W3C//DTD SVG 1.1//EN" "http://www.w3.org/Graphics/SVG/1.1/DTD/svg11.dtd">
<!-- Creator: CorelDRAW X8 -->
<svg xmlns="http://www.w3.org/2000/svg" xml:space="preserve" width="100%" height="100%" version="1.1" shape-rendering="geometricPrecision" text-rendering="geometricPrecision" image-rendering="optimizeQuality" fill-rule="evenodd" clip-rule="evenodd"
viewBox="0 0 2359 2384"
 xmlns:xlink="http://www.w3.org/1999/xlink">
 <g id="Layer_x0020_1">
  <metadata id="CorelCorpID_0Corel-Layer"/>
  <g id="Layers">
   <g id="India_Districts_selection">
    <polygon fill="#6EA97F" points="1424,1398 1493,1433 1549,1377 1647,1335 1807,1328 1961,1419 2059,1531 2121,1636 2135,1818 2184,1894 2268,1908 2338,1971 2359,2034 2338,2041 2296,2083 2247,2118 2156,2125 2100,2104 2038,2062 1891,2062 1682,2055 1591,2076 1514,2125 1479,2174 1438,2251 1410,2307 1368,2328 1326,2314 1291,2293 1242,2300 1207,2321 1179,2370 1172,2384 1124,2363 1068,2272 1033,2181 984,2167 942,2258 837,2237 775,2251 726,2272 677,2237 684,2181 579,2146 447,2118 321,2097 307,1999 300,1971 230,1839 147,1741 140,1692 119,1692 167,1580 188,1489 265,1300 272,1153 251,1000 195,888 77,748 28,650 0,482 70,384 140,343 195,210 314,105 356,0 440,28 516,49 586,140 642,266 775,329 886,384 970,468 1117,615 1221,755 1340,888 1410,1014 1451,1125 1424,1307 "/>
   </g>
  </g>
 </g>
</svg>
