<?xml version="1.0" encoding="UTF-8"?>
<!DOCTYPE svg PUBLIC "-//W3C//DTD SVG 1.1//EN" "http://www.w3.org/Graphics/SVG/1.1/DTD/svg11.dtd">
<!-- Creator: CorelDRAW X8 -->
<svg xmlns="http://www.w3.org/2000/svg" xml:space="preserve" width="100%" height="100%" version="1.1" shape-rendering="geometricPrecision" text-rendering="geometricPrecision" image-rendering="optimizeQuality" fill-rule="evenodd" clip-rule="evenodd"
viewBox="0 0 1047 2233"
 xmlns:xlink="http://www.w3.org/1999/xlink">
 <g id="Layer_x0020_1">
  <metadata id="CorelCorpID_0Corel-Layer"/>
  <g id="Layers">
   <g id="India_Districts_selection">
    <polygon fill="#6EA97F" points="883,210 863,229 831,249 818,301 792,334 792,432 824,478 824,747 935,812 942,858 975,871 975,963 1001,1022 1007,1153 1047,1192 1040,1788 1001,1847 935,1893 863,1912 831,1945 798,1978 693,1978 687,2043 641,2096 628,2161 576,2227 536,2233 523,1821 608,1775 608,1526 510,1421 504,1362 288,1362 281,1323 183,1323 79,1218 150,1179 144,1048 92,1002 0,871 0,838 13,825 46,760 118,720 170,681 209,622 209,530 229,445 275,373 321,288 379,183 425,105 484,46 543,0 628,7 687,39 713,85 772,138 844,151 863,183 "/>
   </g>
  </g>
 </g>
</svg>
