<?xml version="1.0" encoding="UTF-8"?>
<!DOCTYPE svg PUBLIC "-//W3C//DTD SVG 1.1//EN" "http://www.w3.org/Graphics/SVG/1.1/DTD/svg11.dtd">
<!-- Creator: CorelDRAW X8 -->
<svg xmlns="http://www.w3.org/2000/svg" xml:space="preserve" width="100%" height="100%" version="1.1" shape-rendering="geometricPrecision" text-rendering="geometricPrecision" image-rendering="optimizeQuality" fill-rule="evenodd" clip-rule="evenodd"
viewBox="0 0 2531 1782"
 xmlns:xlink="http://www.w3.org/1999/xlink">
 <g id="Layer_x0020_1">
  <metadata id="CorelCorpID_0Corel-Layer"/>
  <g id="Layers">
   <g id="India_Districts_selection">
    <polygon fill="#6EA97F" points="1070,26 1221,31 1247,26 1341,89 1467,152 1691,204 1733,287 1639,397 1587,486 1618,580 1717,627 1874,679 1889,758 2025,773 2067,831 2161,825 2328,904 2349,946 2422,982 2484,1008 2505,1019 2458,1066 2458,1113 2531,1196 2490,1311 2411,1379 2156,1379 2067,1301 1962,1301 1889,1379 1785,1395 1738,1531 1717,1771 1665,1782 1597,1750 1482,1714 1435,1661 1341,1661 1080,1661 913,1630 684,1625 558,1546 428,1468 329,1426 224,1411 125,1390 31,1296 0,1181 47,1034 0,899 31,726 37,700 99,716 204,648 282,533 329,502 334,434 245,392 251,266 334,240 423,235 527,298 611,340 762,355 908,136 934,0 1002,0 "/>
   </g>
  </g>
 </g>
</svg>
