<?xml version="1.0" encoding="UTF-8"?>
<!DOCTYPE svg PUBLIC "-//W3C//DTD SVG 1.1//EN" "http://www.w3.org/Graphics/SVG/1.1/DTD/svg11.dtd">
<!-- Creator: CorelDRAW X8 -->
<svg xmlns="http://www.w3.org/2000/svg" xml:space="preserve" width="100%" height="100%" version="1.1" shape-rendering="geometricPrecision" text-rendering="geometricPrecision" image-rendering="optimizeQuality" fill-rule="evenodd" clip-rule="evenodd"
viewBox="0 0 2641 2534"
 xmlns:xlink="http://www.w3.org/1999/xlink">
 <g id="Layer_x0020_1">
  <metadata id="CorelCorpID_0Corel-Layer"/>
  <g id="Layers">
   <g id="India_Districts_selection">
    <polygon fill="#6EA97F" points="2589,1813 2493,1843 2374,1873 2122,1940 1988,1940 1996,2096 1884,2118 1781,2215 1580,2222 1335,2207 1313,2133 1224,2252 1091,2274 1024,2215 905,2230 883,2386 875,2438 824,2497 757,2534 564,2527 527,2527 527,2519 475,2356 185,2185 7,2014 0,1843 67,1747 67,1494 156,1330 171,884 126,669 126,587 89,409 275,320 482,178 601,37 727,0 890,164 979,282 1039,394 1172,394 1298,312 1551,297 1743,416 1833,572 1929,810 2092,944 2241,1070 2382,1130 2471,1130 2456,1330 2612,1367 2641,1590 2574,1620 2574,1799 "/>
   </g>
  </g>
 </g>
</svg>
