<?xml version="1.0" encoding="UTF-8"?>
<!DOCTYPE svg PUBLIC "-//W3C//DTD SVG 1.1//EN" "http://www.w3.org/Graphics/SVG/1.1/DTD/svg11.dtd">
<!-- Creator: CorelDRAW X8 -->
<svg xmlns="http://www.w3.org/2000/svg" xml:space="preserve" width="100%" height="100%" version="1.1" shape-rendering="geometricPrecision" text-rendering="geometricPrecision" image-rendering="optimizeQuality" fill-rule="evenodd" clip-rule="evenodd"
viewBox="0 0 3185 2063"
 xmlns:xlink="http://www.w3.org/1999/xlink">
 <g id="Layer_x0020_1">
  <metadata id="CorelCorpID_0Corel-Layer"/>
  <g id="Layers">
   <g id="India_Districts_selection">
    <polygon fill="#6EA97F" points="3154,1113 3106,1137 3179,1228 3185,1313 3112,1428 3033,1512 2973,1639 2828,1694 2635,1748 2514,1718 2472,1670 2163,1694 1976,1742 1638,1905 1432,2014 1420,2063 1299,2045 1239,2020 1178,1966 1076,1954 737,1966 701,1912 628,1905 586,1845 532,1706 489,1682 411,1573 326,1428 284,1379 73,1361 0,1343 121,1095 139,792 604,296 568,151 496,18 532,6 955,6 1263,0 1311,24 1613,48 1686,36 1734,91 1861,97 2006,254 2049,466 2248,478 2320,605 2369,665 2568,756 2629,805 2659,938 2828,1016 2961,1040 3009,1119 "/>
   </g>
  </g>
 </g>
</svg>
