<?xml version="1.0" encoding="UTF-8"?>
<!DOCTYPE svg PUBLIC "-//W3C//DTD SVG 1.1//EN" "http://www.w3.org/Graphics/SVG/1.1/DTD/svg11.dtd">
<!-- Creator: CorelDRAW X8 -->
<svg xmlns="http://www.w3.org/2000/svg" xml:space="preserve" width="100%" height="100%" version="1.1" shape-rendering="geometricPrecision" text-rendering="geometricPrecision" image-rendering="optimizeQuality" fill-rule="evenodd" clip-rule="evenodd"
viewBox="0 0 963 2083"
 xmlns:xlink="http://www.w3.org/1999/xlink">
 <g id="Layer_x0020_1">
  <metadata id="CorelCorpID_0Corel-Layer"/>
  <g id="Layers">
   <g id="India_Districts_selection">
    <polygon fill="#6EA97F" points="530,2083 433,2028 390,1985 317,1942 274,1893 232,1857 146,1826 134,1790 159,1741 201,1692 183,1612 146,1606 140,1533 116,1490 73,1460 85,1380 85,1331 49,1270 18,1246 18,1075 0,1044 0,928 30,879 43,825 116,800 122,776 189,751 232,696 262,654 311,617 348,592 372,525 390,476 390,403 433,379 415,336 372,281 354,263 415,183 439,140 469,98 482,61 512,12 561,0 622,6 683,24 701,92 671,128 634,140 622,177 628,226 671,269 701,305 719,342 762,379 805,421 683,623 707,843 805,916 908,1014 963,1081 951,1228 915,1325 817,1478 787,1619 713,1796 "/>
   </g>
  </g>
 </g>
</svg>
