<?xml version="1.0" encoding="UTF-8"?>
<!DOCTYPE svg PUBLIC "-//W3C//DTD SVG 1.1//EN" "http://www.w3.org/Graphics/SVG/1.1/DTD/svg11.dtd">
<!-- Creator: CorelDRAW -->
<svg xmlns="http://www.w3.org/2000/svg" xml:space="preserve" width="100%" height="100%" style="shape-rendering:geometricPrecision; text-rendering:geometricPrecision; image-rendering:optimizeQuality; fill-rule:evenodd; clip-rule:evenodd"
viewBox="0 0 184200 158653"
 xmlns:xlink="http://www.w3.org/1999/xlink">
 <defs>
  <style type="text/css">
   <![CDATA[
    .fil0 {fill:#6EA97F}
   ]]>
  </style>
 </defs>
 <g id="Layer_x0020_1">
  <metadata id="CorelCorpID_0Corel-Layer"/>
  <polygon class="fil0" points="143383,138571 140719,136192 139672,135050 135676,133051 133488,130863 131394,130006 131394,128198 131490,126675 131394,125723 128540,125437 124354,127056 122070,127436 120548,127722 119977,128578 119787,129911 119026,130482 114554,130672 110463,131243 107609,129815 105896,129720 103232,129530 101329,129149 99806.7,128102 97998.8,128293 96000.8,130006 93717.3,131243 92480.7,132861 90387.4,134574 87628.3,135335 86010.6,137239 84203.1,139904 83822.4,140951 83156.3,142188 81063,142949 80968.1,144472 80111.8,146185 77542.9,147327 76115.7,148279 73261.4,149041 72976,149802 73642.1,150944 76686.6,152086 77828.3,153418 78209.1,155131 77162.2,156083 73927.2,157987 72215,158653 71548.8,158653 69931.5,156369 67933.1,154941 67362.2,154465 64793.3,152943 63651.6,152562 62129.5,151515 60797.2,149516 59179.9,149231 55469.3,148660 52995.7,148850 52615,147042 51378,145804 50331.5,145233 48333.5,144948 46525.6,144948 44242.1,143615 41578.3,143711 39770.5,144377 38914.2,143806 38533.5,142664 37677.2,141522 36916.1,140951 36726,140285 36440.6,138476 38057.9,136668 38914.2,135050 39009.4,132671 39960.6,130672 40055.9,129244 39485,127531 38153.1,126104 36630.7,126009 34252,126580 33966.5,126580 31968.5,125818 31778.3,125437 31778.3,124486 30161,123248 28828.7,122678 28257.9,122202 25403.5,120679 24261.8,120393 23786.2,119156 23120.1,118490 21407.5,117919 19219.3,118585 18077.6,118585 16745.7,118204 16840.6,117443 15603.9,115730 14652.4,114969 13700.8,114398 13129.9,112684 13035,111637 12654.3,109448 12178.7,106974 11798,104880 11227.2,96409.8 14652.4,94411.4 15889.4,92127.2 16079.5,91175.6 16079.5,90318.9 14271.7,89367.3 14081.5,88129.9 14366.9,86511.8 13320.5,84894.1 12464.2,82800.4 12464.2,81087 10751.6,78993.3 8658.27,77565.7 8562.99,74615.4 8562.99,71379.5 9609.84,69571.3 9419.29,68143.7 9324.41,67382.3 9704.72,65669.3 8658.27,64431.9 8277.56,63955.9 6945.67,61576.8 6089.37,61576.8 4186.61,63004.3 1332.28,62623.6 190.551,62052.4 190.551,61005.5 190.551,59483.1 285.433,58150.4 190.551,56722.8 0,55105.1 1046.85,52440.2 1617.72,50917.3 1903.15,49299.6 2854.33,46634.6 3615.75,46539.4 4376.77,46539.4 5613.78,46253.9 7135.83,46253.9 7897.24,46349.2 8658.27,46920.1 9895.28,47586.2 11607.9,48157.5 13510.6,49109.1 17316.5,50061 18743.7,50631.9 20836.6,51107.9 22263.8,51393.3 23120.1,50917.3 23881.5,50536.6 24928,50631.9 26165,51298 27306.7,51583.5 28257.9,51488.2 29019.3,50727.2 29875.6,49204.3 30731.9,48442.9 31302.8,47776.8 32539.4,47110.6 33015.4,46444.1 33586.2,44635.8 34252,42066.5 34347.2,40067.7 34918.1,38450 35108.3,37783.5 36155.1,37498 37487,38164.2 39389.8,38925.6 40722,39591.7 41958.7,39972.4 42053.9,37593.3 42149.2,36831.9 42244.1,35879.9 42244.1,34547.6 42244.1,32834.6 42244.1,32644.5 41958.7,30550.4 41483.1,29027.6 41578.3,28171.3 42624.8,28076 44718.1,28076 47381.9,28171.3 48238.2,28171.3 48333.5,26743.7 48714.2,24840.2 49570.5,23317.3 50426.8,22270.5 51283.1,22270.5 53376.4,23507.5 54708.3,24459.4 55659.4,24364.2 56420.9,23602.8 57752.8,23031.9 58894.5,22555.9 60702.4,21889.8 62129.5,21128.3 63461.4,19986.2 64222.8,18939.4 64983.9,18178 65554.7,18178 66791.3,18558.7 68409.1,18178 70787.4,16465 71168.1,14656.7 74022.4,12753.1 75259.4,11896.5 75925.6,11325.6 76686.6,11420.9 77067.3,12657.9 77542.9,13990.6 78303.9,14276 79160.2,13895.3 79255.5,13800 80206.7,13229.1 81539,12372.4 82585.4,11896.5 84393.3,12372.4 85535,11801.6 87152.4,10659.4 89531.1,8375.2 90387.4,7613.78 91529.1,7709.06 92861,8089.76 94288.2,8375.2 97713.4,9231.89 100663,9612.6 101995,9136.61 103707,7423.62 105039,6662.2 105896,6281.5 107228,6090.94 108941,4949.21 110653,3426.38 111985,2284.25 113317,1332.28 115030,380.709 116933,0 118455,0 119311,285.433 120072,1046.85 121024,2664.96 122546,5234.65 123878,6662.2 125876,8184.65 127208,9422.05 128160,11801.6 128921,12657.9 130348,14466.1 130919,15798.8 131585,17321.7 131394,18083.1 130824,22080.3 131490,22841.3 132631,23793.3 133393,24459.4 133869,26172.4 134154,27124.4 136152,29313 137103,31692.5 138245,32929.9 139196,33215.4 141290,32929.9 141385,32929.9 143668,33310.6 145000,33310.6 145095,33310.6 147950,30360.2 148996,30074.4 152517,29598.8 153278,29027.6 154420,27790.6 155181,27314.6 155942,27219.3 156703,27695.3 156798,27790.6 157654,28742.1 158225,30550.4 158891,31597.2 158606,33024.8 158130,34262.2 157940,34642.9 156798,35499.6 155561,36641.3 155181,37212.6 154705,37974 154229,39211 153373,41495.3 151660,42732.7 149757,42827.6 146618,42732.7 146332,42732.7 146142,42732.7 143859,43398.8 141385,43398.8 140624,43303.5 139767,43303.5 139006,44065 138055,44540.9 136723,44731.1 136628,44731.1 135105,44826.4 133678,45873.2 133297,46539.4 132251,48157.5 131680,49014.2 131014,50061 128826,51488.2 127969,51774 126542,52249.6 125686,52344.9 124639,52344.9 120263,52725.6 118931,53011 121785,55105.1 123593,56818.1 124830,59197.2 125210,61481.5 125686,62433.5 126447,63861 127113,64431.9 127589,66050 127398,67477.6 126733,68619.3 124164,69666.5 123212,70142.1 122927,71379.5 122356,71855.5 121594,72521.7 122927,73853.9 123878,74805.9 124164,75947.6 124164,77089.8 125306,77375.2 126923,76423.6 129587,75662.2 131109,75186.2 132822,74520.1 135771,72902.4 136913,70713.4 137674,69952 138816,69190.6 140814,67667.7 141575,66620.9 142526,65764.2 143573,65383.9 144715,65002.8 145476,64622.4 146522,64146.5 148806,62718.9 149377,62242.9 150138,61766.9 151660,61576.8 153183,61576.8 155942,61957.5 158130,61957.5 160319,61862.2 162412,61957.5 162792,61862.2 164410,61481.5 165646,61100.8 166503,60244.5 166788,60053.9 167169,59863.8 168311,59292.5 168691,59197.2 170309,58721.7 171546,58150.4 172687,57769.7 174209,57294.1 175066,57198.8 172973,60720.1 171926,62147.6 170975,63480.3 170023,64907.9 169357,66240.2 168691,66906.3 167644,68333.9 168025,70047.2 168025,70142.1 168311,71379.5 168691,72426.4 169452,72902.4 169548,72902.4 170499,72807.1 172307,72045.7 173068,71950.8 173258,72807.1 173353,74139.4 173448,75186.2 174209,76709.1 174876,77756.3 175161,78707.9 175256,78993.3 174876,80516.1 174590,82229.1 174685,84037.4 175256,84798.8 175827,85465 176493,86987.8 176588,87083.1 176683,87178.3 177349,88129.9 177730,89272 178206,90128.3 179347,91746.5 180394,93078.7 181821,94126 182868,95648.4 183439,96600.4 183724,97742.5 184200,99360.2 184009,101169 183724,101835 183058,102691 181345,104690 179538,106784 177635,107545 175922,107831 172117,107545 171355,107735 170689,107831 168691,108782 167264,109829 166122,110305 165266,110210 163744,110115 163363,110591 163839,111257 163934,111352 164315,112304 164981,113351 165266,114302 165837,115444 165837,115540 166313,116396 166027,117157 164695,118014 162983,119156 160889,120108 158987,121060 158225,121726 157559,122202 156513,123439 155752,123724 154705,123154 153754,122202 152897,122202 152707,122678 153373,124486 153373,125343 153278,126389 152517,126580 151660,126484 150519,126199 148426,126009 148045,126009 146142,126294 144524,127436 143193,129054 141956,129625 141670,130101 142622,130672 142717,130767 144049,131529 145476,132480 146522,133337 147189,134098 147855,135240 147855,136573 147379,137048 146998,137524 "/>
 </g>
</svg>
