<?xml version="1.0" encoding="UTF-8"?>
<!DOCTYPE svg PUBLIC "-//W3C//DTD SVG 1.1//EN" "http://www.w3.org/Graphics/SVG/1.1/DTD/svg11.dtd">
<!-- Creator: CorelDRAW X8 -->
<svg xmlns="http://www.w3.org/2000/svg" xml:space="preserve" width="100%" height="100%" version="1.1" shape-rendering="geometricPrecision" text-rendering="geometricPrecision" image-rendering="optimizeQuality" fill-rule="evenodd" clip-rule="evenodd"
viewBox="0 0 1763 1782"
 xmlns:xlink="http://www.w3.org/1999/xlink">
 <g id="Layer_x0020_1">
  <metadata id="CorelCorpID_0Corel-Layer"/>
  <g id="Layers">
   <g id="India_Districts_selection">
    <polygon fill="#6EA97F" points="1763,731 1747,825 1705,987 1601,1155 1539,1327 1544,1515 1471,1719 1413,1782 1257,1729 1215,1599 1090,1562 970,1536 840,1573 699,1667 553,1735 532,1766 490,1766 522,1682 548,1416 542,1233 495,1118 396,977 271,873 209,862 162,920 31,940 26,883 0,569 78,470 5,225 16,209 115,240 365,78 642,0 819,94 1189,507 1340,721 "/>
   </g>
  </g>
 </g>
</svg>
