<?xml version="1.0" encoding="UTF-8"?>
<!DOCTYPE svg PUBLIC "-//W3C//DTD SVG 1.1//EN" "http://www.w3.org/Graphics/SVG/1.1/DTD/svg11.dtd">
<!-- Creator: CorelDRAW X8 -->
<svg xmlns="http://www.w3.org/2000/svg" xml:space="preserve" width="100%" height="100%" version="1.1" shape-rendering="geometricPrecision" text-rendering="geometricPrecision" image-rendering="optimizeQuality" fill-rule="evenodd" clip-rule="evenodd"
viewBox="0 0 1673 1481"
 xmlns:xlink="http://www.w3.org/1999/xlink">
 <g id="Layer_x0020_1">
  <metadata id="CorelCorpID_0Corel-Layer"/>
  <g id="Layers">
   <g id="India_Districts_selection">
    <polygon fill="#6EA97F" points="1253,43 1305,139 1326,230 1287,326 1331,386 1357,486 1322,556 1318,634 1422,721 1495,777 1578,864 1673,1051 1634,1281 1552,1346 1378,1411 1214,1415 1049,1481 1053,1468 797,1355 199,1350 169,1255 108,1125 91,994 121,916 208,799 273,677 178,547 91,473 9,465 4,473 0,391 95,352 282,291 503,269 620,200 789,122 854,4 871,0 915,39 1097,39 1118,4 1144,4 1175,39 "/>
   </g>
  </g>
 </g>
</svg>
