<?xml version="1.0" encoding="UTF-8"?>
<!DOCTYPE svg PUBLIC "-//W3C//DTD SVG 1.1//EN" "http://www.w3.org/Graphics/SVG/1.1/DTD/svg11.dtd">
<!-- Creator: CorelDRAW X8 -->
<svg xmlns="http://www.w3.org/2000/svg" xml:space="preserve" width="100%" height="100%" version="1.1" shape-rendering="geometricPrecision" text-rendering="geometricPrecision" image-rendering="optimizeQuality" fill-rule="evenodd" clip-rule="evenodd"
viewBox="0 0 2387 1631"
 xmlns:xlink="http://www.w3.org/1999/xlink">
 <g id="Layer_x0020_1">
  <metadata id="CorelCorpID_0Corel-Layer"/>
  <g id="Layers">
   <g id="India_Districts_selection">
    <polygon fill="#6EA97F" points="2387,1268 2373,1330 2359,1421 2273,1502 2182,1550 2039,1535 1848,1526 1662,1535 1600,1621 1308,1602 1141,1631 812,1631 745,1531 520,1325 334,1024 62,880 0,866 57,698 181,598 72,584 105,502 177,435 143,330 210,230 244,110 306,0 477,148 587,120 664,129 688,210 826,368 931,584 955,631 965,799 1175,832 1404,880 1571,933 1561,1019 1638,1081 1714,1048 1829,1019 1996,1062 2063,904 2153,933 2206,1081 2297,1234 "/>
   </g>
  </g>
 </g>
</svg>
