<?xml version="1.0" encoding="UTF-8"?>
<!DOCTYPE svg PUBLIC "-//W3C//DTD SVG 1.1//EN" "http://www.w3.org/Graphics/SVG/1.1/DTD/svg11.dtd">
<!-- Creator: CorelDRAW X8 -->
<svg xmlns="http://www.w3.org/2000/svg" xml:space="preserve" width="100%" height="100%" version="1.1" shape-rendering="geometricPrecision" text-rendering="geometricPrecision" image-rendering="optimizeQuality" fill-rule="evenodd" clip-rule="evenodd"
viewBox="0 0 2079 2233"
 xmlns:xlink="http://www.w3.org/1999/xlink">
 <g id="Layer_x0020_1">
  <metadata id="CorelCorpID_0Corel-Layer"/>
  <g id="Layers">
   <g id="India_Districts_selection">
    <polygon fill="#6EA97F" points="1831,79 1850,131 1876,183 1942,262 1981,334 1981,485 1863,485 1831,511 1817,661 1693,661 1674,694 1536,701 1458,681 1353,603 1249,609 1209,648 1131,720 1131,950 1170,989 1164,1028 1255,1041 1294,1067 1425,1074 1497,1126 1615,1231 1654,1329 1804,1343 1909,1375 2001,1395 2007,1454 2079,1506 2027,1585 2007,1696 1955,1742 1902,1821 1916,1978 1876,1997 1883,2096 1844,2187 1798,2200 1746,2220 1654,2233 1621,2181 1523,2142 1379,2109 1314,2030 1223,1958 1170,1952 1066,1886 974,1821 883,1703 856,1637 700,1631 660,1677 654,2043 595,2050 588,2024 549,2024 464,1932 379,1886 320,1749 294,1670 229,1611 105,1611 72,1552 39,1506 0,1460 0,1395 46,1323 105,1231 170,1041 170,943 131,864 85,760 52,655 111,570 242,563 379,570 477,583 543,550 601,491 615,426 621,367 660,314 700,282 758,282 798,308 843,321 889,295 922,229 974,138 1020,79 1105,20 1209,0 1458,7 1628,7 1700,59 1772,85 "/>
   </g>
  </g>
 </g>
</svg>
