<?xml version="1.0" encoding="UTF-8"?>
<!DOCTYPE svg PUBLIC "-//W3C//DTD SVG 1.1//EN" "http://www.w3.org/Graphics/SVG/1.1/DTD/svg11.dtd">
<!-- Creator: CorelDRAW X8 -->
<svg xmlns="http://www.w3.org/2000/svg" xml:space="preserve" width="100%" height="100%" version="1.1" shape-rendering="geometricPrecision" text-rendering="geometricPrecision" image-rendering="optimizeQuality" fill-rule="evenodd" clip-rule="evenodd"
viewBox="0 0 2430 1782"
 xmlns:xlink="http://www.w3.org/1999/xlink">
 <g id="Layer_x0020_1">
  <metadata id="CorelCorpID_0Corel-Layer"/>
  <g id="Layers">
   <g id="India_Districts_selection">
    <polygon fill="#6EA97F" points="2065,1505 1971,1520 1836,1499 1779,1442 1643,1452 1591,1499 1419,1505 1309,1604 1194,1719 934,1750 834,1782 668,1599 370,1552 292,1562 156,1426 130,1233 0,977 57,967 240,920 344,920 475,956 548,961 548,899 563,820 600,794 683,768 850,768 908,711 975,658 965,648 996,564 1022,517 1048,428 1179,282 1314,225 1382,152 1424,94 1544,52 1601,10 1601,0 1674,42 1622,125 1586,183 1653,329 1726,428 1846,423 1893,428 1992,538 2071,575 2102,653 2138,711 2149,925 2175,1003 2331,982 2337,1071 2399,1144 2415,1243 2430,1353 2425,1364 2420,1348 2164,1374 2086,1437 2055,1494 "/>
   </g>
  </g>
 </g>
</svg>
