<?xml version="1.0" encoding="UTF-8"?>
<!DOCTYPE svg PUBLIC "-//W3C//DTD SVG 1.1//EN" "http://www.w3.org/Graphics/SVG/1.1/DTD/svg11.dtd">
<!-- Creator: CorelDRAW X8 -->
<svg xmlns="http://www.w3.org/2000/svg" xml:space="preserve" width="100%" height="100%" version="1.1" shape-rendering="geometricPrecision" text-rendering="geometricPrecision" image-rendering="optimizeQuality" fill-rule="evenodd" clip-rule="evenodd"
viewBox="0 0 3017 1982"
 xmlns:xlink="http://www.w3.org/1999/xlink">
 <g id="Layer_x0020_1">
  <metadata id="CorelCorpID_0Corel-Layer"/>
  <g id="Layers">
   <g id="India_Districts_selection">
    <polygon fill="#6EA97F" points="2860,1668 2634,1674 2466,1715 2170,1726 1845,1523 1787,1773 1543,1808 1398,1465 1172,1401 1050,1627 922,1778 830,1656 708,1668 580,1726 574,1895 476,1982 412,1912 307,1744 203,1488 145,1180 75,912 58,558 0,285 12,267 64,203 551,203 1044,366 1213,169 1218,81 1392,116 1503,116 1770,116 1973,110 2263,76 2460,29 2698,12 2733,0 2779,116 2773,285 2646,360 2733,570 2756,785 2802,953 2808,1116 2895,1267 3017,1441 2942,1581 2866,1656 "/>
   </g>
  </g>
 </g>
</svg>
