<?xml version="1.0" encoding="UTF-8"?>
<!DOCTYPE svg PUBLIC "-//W3C//DTD SVG 1.1//EN" "http://www.w3.org/Graphics/SVG/1.1/DTD/svg11.dtd">
<!-- Creator: CorelDRAW X8 -->
<svg xmlns="http://www.w3.org/2000/svg" xml:space="preserve" width="100%" height="100%" version="1.1" shape-rendering="geometricPrecision" text-rendering="geometricPrecision" image-rendering="optimizeQuality" fill-rule="evenodd" clip-rule="evenodd"
viewBox="0 0 2131 1753"
 xmlns:xlink="http://www.w3.org/1999/xlink">
 <g id="Layer_x0020_1">
  <metadata id="CorelCorpID_0Corel-Layer"/>
  <g id="Layers">
   <g id="India_Districts_selection">
    <polygon fill="#6EA97F" points="231,1588 221,1511 144,1413 113,1398 77,1342 62,1285 62,1192 36,1141 133,1141 154,1115 169,1059 180,1028 149,997 0,879 10,792 139,786 164,771 190,714 282,709 282,581 308,560 303,519 365,514 390,488 524,499 647,653 745,658 827,684 857,622 888,576 1068,571 1114,504 1083,437 1073,370 1027,344 919,344 934,180 950,149 929,118 919,57 955,46 996,72 1119,72 1171,144 1171,298 1222,293 1273,252 1304,200 1325,139 1366,57 1412,0 1515,5 1561,0 1597,67 1597,144 1622,170 1787,175 1617,278 1407,447 1356,591 1320,894 1330,1105 1448,1254 1694,1336 1787,1326 1874,1264 1941,1254 2008,1285 2131,1403 2110,1516 2054,1516 1961,1444 1812,1424 1746,1419 1751,1527 1694,1516 1710,1413 1617,1372 1504,1306 1433,1331 1109,1372 970,1429 786,1429 549,1547 442,1583 416,1676 411,1753 308,1742 334,1588 "/>
   </g>
  </g>
 </g>
</svg>
