<?xml version="1.0" encoding="UTF-8"?>
<!DOCTYPE svg PUBLIC "-//W3C//DTD SVG 1.1//EN" "http://www.w3.org/Graphics/SVG/1.1/DTD/svg11.dtd">
<!-- Creator: CorelDRAW X8 -->
<svg xmlns="http://www.w3.org/2000/svg" xml:space="preserve" width="100%" height="100%" version="1.1" shape-rendering="geometricPrecision" text-rendering="geometricPrecision" image-rendering="optimizeQuality" fill-rule="evenodd" clip-rule="evenodd"
viewBox="0 0 2105 1932"
 xmlns:xlink="http://www.w3.org/1999/xlink">
 <g id="Layer_x0020_1">
  <metadata id="CorelCorpID_0Corel-Layer"/>
  <g id="Layers">
   <g id="India_Districts_selection">
    <polygon fill="#6EA97F" points="792,1921 617,1932 187,1915 34,1858 34,1756 96,1609 68,1513 0,1439 91,1383 108,1258 34,1133 51,986 368,703 741,397 1166,198 1239,125 1245,91 1336,91 1358,74 1454,74 1454,40 1681,45 1698,23 1766,23 1771,0 1805,0 1851,45 1936,45 1975,85 1975,113 2026,113 2054,136 2060,181 2105,215 2060,278 1975,306 1919,363 1851,380 1839,419 1794,487 1743,527 1698,589 1692,646 1658,680 1624,720 1568,708 1562,697 1460,691 1438,657 1375,629 1228,629 1098,646 1041,714 956,759 934,844 911,918 843,980 781,1003 781,1094 753,1133 702,1167 645,1167 651,1230 668,1235 719,1298 736,1298 730,1383 719,1400 707,1428 690,1439 690,1468 713,1502 730,1536 753,1570 781,1575 775,1723 804,1745 832,1745 832,1768 804,1773 804,1887 "/>
   </g>
  </g>
 </g>
</svg>
