<?xml version="1.0" encoding="UTF-8"?>
<!DOCTYPE svg PUBLIC "-//W3C//DTD SVG 1.1//EN" "http://www.w3.org/Graphics/SVG/1.1/DTD/svg11.dtd">
<!-- Creator: CorelDRAW X8 -->
<svg xmlns="http://www.w3.org/2000/svg" xml:space="preserve" width="100%" height="100%" version="1.1" shape-rendering="geometricPrecision" text-rendering="geometricPrecision" image-rendering="optimizeQuality" fill-rule="evenodd" clip-rule="evenodd"
viewBox="0 0 3187 1950"
 xmlns:xlink="http://www.w3.org/1999/xlink">
 <g id="Layer_x0020_1">
  <metadata id="CorelCorpID_0Corel-Layer"/>
  <g id="Layers">
   <g id="India_Districts_selection">
    <polygon fill="#6EA97F" points="2564,646 2701,789 2753,892 2850,1098 3187,1412 3170,1950 2473,1950 2416,1904 2267,1812 2113,1738 1970,1652 1930,1727 748,1727 651,1681 565,1538 577,1389 508,1332 491,812 348,629 297,532 0,532 63,366 160,183 148,74 97,0 223,57 326,46 348,91 565,137 874,194 982,286 1131,355 1279,400 1393,612 1485,680 1565,886 1633,943 1913,966 1993,863 2199,783 2473,841 2576,669 "/>
   </g>
  </g>
 </g>
</svg>
