<?xml version="1.0" encoding="UTF-8"?>
<!DOCTYPE svg PUBLIC "-//W3C//DTD SVG 1.1//EN" "http://www.w3.org/Graphics/SVG/1.1/DTD/svg11.dtd">
<!-- Creator: CorelDRAW X8 -->
<svg xmlns="http://www.w3.org/2000/svg" xml:space="preserve" width="100%" height="100%" version="1.1" shape-rendering="geometricPrecision" text-rendering="geometricPrecision" image-rendering="optimizeQuality" fill-rule="evenodd" clip-rule="evenodd"
viewBox="0 0 1448 2534"
 xmlns:xlink="http://www.w3.org/1999/xlink">
 <g id="Layer_x0020_1">
  <metadata id="CorelCorpID_0Corel-Layer"/>
  <g id="Layers">
   <g id="India_Districts_selection">
    <polygon fill="#6EA97F" points="735,2534 638,2311 520,2088 468,1940 408,1910 431,1791 460,1702 416,1650 327,1583 319,1070 148,936 119,810 89,691 0,639 0,67 342,45 520,0 520,364 557,476 698,476 713,513 794,513 794,476 876,476 928,580 1010,654 1084,632 1210,617 1232,572 1307,572 1381,617 1411,691 1448,721 1440,966 1411,1026 1359,1145 1314,1249 1366,1338 1366,1464 1418,1524 1411,1858 1084,1739 913,1776 876,1932 950,2341 869,2475 "/>
   </g>
  </g>
 </g>
</svg>
