<?xml version="1.0" encoding="UTF-8"?>
<!DOCTYPE svg PUBLIC "-//W3C//DTD SVG 1.1//EN" "http://www.w3.org/Graphics/SVG/1.1/DTD/svg11.dtd">
<!-- Creator: CorelDRAW X8 -->
<svg xmlns="http://www.w3.org/2000/svg" xml:space="preserve" width="100%" height="100%" version="1.1" shape-rendering="geometricPrecision" text-rendering="geometricPrecision" image-rendering="optimizeQuality" fill-rule="evenodd" clip-rule="evenodd"
viewBox="0 0 9211 7352"
 xmlns:xlink="http://www.w3.org/1999/xlink">
 <g id="Layer_x0020_1">
  <metadata id="CorelCorpID_0Corel-Layer"/>
  <g id="Layers">
   <g id="India_Districts_selection">
    <polygon fill="#6EA97F" points="344,7244 301,6554 86,6252 194,5476 517,5174 667,4075 409,3579 194,3061 0,2242 387,1919 409,1250 882,1035 1377,992 1743,1466 2217,884 2690,0 3573,259 4111,1574 5079,1444 5294,474 6542,1250 7683,1207 8329,1078 9211,1035 8996,1229 9039,1595 9060,2458 8738,2458 8565,2846 7963,3298 7360,3730 6134,3816 5918,4549 5337,5174 4476,5692 3250,6252 2776,6209 2475,6877 1636,7201 1055,7352 "/>
   </g>
  </g>
 </g>
</svg>
