<?xml version="1.0" encoding="UTF-8"?>
<!DOCTYPE svg PUBLIC "-//W3C//DTD SVG 1.1//EN" "http://www.w3.org/Graphics/SVG/1.1/DTD/svg11.dtd">
<!-- Creator: CorelDRAW X8 -->
<svg xmlns="http://www.w3.org/2000/svg" xml:space="preserve" width="100%" height="100%" version="1.1" shape-rendering="geometricPrecision" text-rendering="geometricPrecision" image-rendering="optimizeQuality" fill-rule="evenodd" clip-rule="evenodd"
viewBox="0 0 2803 1782"
 xmlns:xlink="http://www.w3.org/1999/xlink">
 <g id="Layer_x0020_1">
  <metadata id="CorelCorpID_0Corel-Layer"/>
  <g id="Layers">
   <g id="India_Districts_selection">
    <polygon fill="#6EA97F" points="2119,329 2124,350 2202,324 2349,225 2604,251 2583,313 2756,308 2797,324 2803,491 2568,522 2610,763 2709,935 2557,1076 2197,1092 2093,1008 1952,1008 1842,1113 1853,1416 1769,1510 1780,1599 1686,1620 1576,1661 1127,1708 1007,1782 892,1677 616,1552 438,1442 78,1416 10,1484 0,1343 89,1113 89,512 224,465 355,423 444,340 558,178 825,26 976,0 1070,141 1195,120 1305,261 1540,277 1931,392 2062,366 "/>
   </g>
  </g>
 </g>
</svg>
