<?xml version="1.0" encoding="UTF-8"?>
<!DOCTYPE svg PUBLIC "-//W3C//DTD SVG 1.1//EN" "http://www.w3.org/Graphics/SVG/1.1/DTD/svg11.dtd">
<!-- Creator: CorelDRAW -->
<svg xmlns="http://www.w3.org/2000/svg" xml:space="preserve" width="100%" height="100%" style="shape-rendering:geometricPrecision; text-rendering:geometricPrecision; image-rendering:optimizeQuality; fill-rule:evenodd; clip-rule:evenodd"
viewBox="0 0 145456 100146"
 xmlns:xlink="http://www.w3.org/1999/xlink">
 <defs>
  <style type="text/css">
   <![CDATA[
    .fil0 {fill:#6EA97F}
   ]]>
  </style>
 </defs>
 <g id="Layer_x0020_1">
  <metadata id="CorelCorpID_0Corel-Layer"/>
  <polygon class="fil0" points="58194.1,17242.5 59395.3,17963.4 60055.9,18804.3 61677.6,21267.3 63479.1,24631.5 64560.2,25772.8 68583.9,28836.6 70025.2,29737.8 71526.8,30098.4 73328.3,29677.6 74950,29677.6 76331.5,29978 77352.4,29918.1 79994.5,30458.7 81616.1,30939.4 84439,32320.9 86060.2,32320.9 88102.4,32020.5 89003.1,31299.6 91225.2,30999.6 92126,31239.8 92846.9,31780.3 93327.2,32741.7 93987.8,34783.9 94888.6,35745.3 96209.8,36586.2 96990.6,36886.6 98252,37126.8 99693.3,37126.8 103056,38268.5 104618,38208.3 106119,37727.6 107981,38028 109122,38868.9 110323,41632.7 111464,42473.6 114827,42774 119392,45897.6 119872,47820.1 118311,51064.2 118611,51905.1 119632,53407.1 121313,55269.3 122755,57612.2 123896,59714.6 124496,60315.4 125277,60735.8 126238,60916.1 129361,60856.3 132604,62298 134165,63259.1 135186,63439.4 136147,63139 136748,62598.4 137829,60315.4 138790,60135.4 139811,60195.3 140411,60255.5 141552,61757.1 141793,62478 142933,62898.8 145456,62958.7 140291,66803.5 133324,71909.8 129301,77436.6 126358,86628 127079,92515 126719,97681.5 120953,100144 119392,99003.1 116749,97441.3 114287,95278.7 112485,94497.6 110143,93716.5 109302,93235.8 107681,92034.6 100354,85907.1 96870.5,84525.2 95309.1,83624 90084.3,79839.4 89483.5,78698 88822.8,77977.2 87922,77256.3 86840.9,76775.6 85640.2,75934.6 83297.6,72630.7 78373.2,67644.5 76931.9,67344.1 74529.5,65782.3 73328.3,65481.9 69485,65241.7 68343.7,65001.2 66542.1,63679.5 64980.7,63379.1 62938.6,62598.4 61437.4,62418.1 58494.5,60435.8 55311.4,57732.3 53990.6,57251.6 52248.8,56290.6 50086.6,54128 46183.1,52866.1 44441.3,52145.3 42579.5,50223.2 41618.9,49502 40237.4,49562.2 38195.7,49442.1 37294.9,49381.9 35793.3,49502 33331.1,49982.7 32250,49982.7 29487.4,48661 24382.7,48540.9 22100.4,48901.6 19878.3,47880.3 18977.6,46558.7 18857.5,46017.7 17896.5,44996.5 17235.8,43855.1 13692.5,42953.9 11710.6,42173.2 11350.4,41452.4 10750,39529.9 10029.1,38388.6 9308.66,37847.6 8527.95,37487.4 7026.38,37066.9 5945.28,37066.9 4744.49,36706.3 1921.65,34904.3 840.551,34363.4 360.236,34063 0,33342.1 600.394,31960.6 1741.34,30038.2 3242.91,25592.5 3963.78,24871.7 4684.25,24751.6 5585.04,24811.8 6305.91,23429.9 6485.83,21748 6125.59,18804.3 4744.49,16341.3 2822.44,14359.1 3663.39,11355.1 3182.68,9252.76 2222.05,8591.73 2401.97,7810.63 3302.76,7750.79 3843.7,7630.71 4444.09,8111.02 4984.65,8591.73 5164.57,9312.6 4924.41,10574.4 5285.04,11355.1 6125.59,11775.6 7446.85,12076 8467.72,11775.6 10329.5,10754.3 12191.3,10394.1 14293.3,8531.5 14893.7,7210.24 15674.4,6729.53 17656.3,6489.37 17896.5,8411.42 17836.6,9793.31 18437,10994.9 18316.9,12496.5 19337.8,12376.4 19818.5,11535.4 20539,10994.9 20418.9,9973.62 20058.7,9372.83 20118.9,8591.73 19398,7029.92 19998.4,4266.54 18677.2,4025.98 18737.4,3064.96 19698.4,2344.09 20719.3,1082.68 22040.6,601.969 22821.3,1.1811 24442.9,301.575 25103.1,241.339 28226.4,3125.2 28286.2,5468.11 28706.7,6248.82 30268.1,7390.16 31529.5,7870.87 33090.9,7390.16 34051.6,6729.53 34592.1,4927.17 34952.4,4326.38 35673.2,3905.91 36453.9,3905.91 37354.7,4446.85 38856.3,5828.35 41558.7,6549.21 43000,6909.84 45102,8111.02 46723.6,9492.91 49005.9,10394.1 53029.5,14719.3 54410.6,15320.1 56032.3,15680.7 56692.9,16401.6 "/>
 </g>
</svg>
