<?xml version="1.0" encoding="UTF-8"?>
<!DOCTYPE svg PUBLIC "-//W3C//DTD SVG 1.1//EN" "http://www.w3.org/Graphics/SVG/1.1/DTD/svg11.dtd">
<!-- Creator: CorelDRAW X8 -->
<svg xmlns="http://www.w3.org/2000/svg" xml:space="preserve" width="100%" height="100%" version="1.1" shape-rendering="geometricPrecision" text-rendering="geometricPrecision" image-rendering="optimizeQuality" fill-rule="evenodd" clip-rule="evenodd"
viewBox="0 0 2988 2083"
 xmlns:xlink="http://www.w3.org/1999/xlink">
 <g id="Layer_x0020_1">
  <metadata id="CorelCorpID_0Corel-Layer"/>
  <g id="Layers">
   <g id="India_Districts_selection">
    <polygon fill="#6EA97F" points="1719,2083 1664,2028 1591,1948 1518,1857 1378,1820 1293,1802 1219,1814 1158,1820 1036,1826 982,1869 957,1820 494,1466 37,770 0,696 30,421 116,250 329,128 683,43 1238,0 1256,43 1402,220 1543,366 1664,525 1780,684 1902,745 2097,770 2335,867 2585,996 2872,1222 2988,1331 2951,1533 2652,1735 2384,1875 2012,1930 1774,2016 "/>
   </g>
  </g>
 </g>
</svg>
