<?xml version="1.0" encoding="UTF-8"?>
<!DOCTYPE svg PUBLIC "-//W3C//DTD SVG 1.1//EN" "http://www.w3.org/Graphics/SVG/1.1/DTD/svg11.dtd">
<!-- Creator: CorelDRAW X8 -->
<svg xmlns="http://www.w3.org/2000/svg" xml:space="preserve" width="100%" height="100%" version="1.1" shape-rendering="geometricPrecision" text-rendering="geometricPrecision" image-rendering="optimizeQuality" fill-rule="evenodd" clip-rule="evenodd"
viewBox="0 0 3169 1631"
 xmlns:xlink="http://www.w3.org/1999/xlink">
 <g id="Layer_x0020_1">
  <metadata id="CorelCorpID_0Corel-Layer"/>
  <g id="Layers">
   <g id="India_Districts_selection">
    <polygon fill="#6EA97F" points="2382,1631 2284,1621 2182,1431 1993,1207 1793,1246 1589,1310 1516,1422 1414,1558 1205,1500 1040,1466 938,1495 778,1621 685,1621 642,1509 593,1402 530,1339 588,1256 501,1149 403,1095 365,881 296,725 233,691 83,672 39,725 0,643 58,560 122,506 335,424 627,414 846,346 1030,175 1108,58 1118,68 1444,88 1871,83 1968,83 2012,39 2036,0 2041,15 2173,54 2289,93 2391,151 2430,204 2464,214 2435,229 2396,326 2440,394 2566,385 2576,331 2634,273 2722,204 2824,229 2926,200 3018,248 3047,326 3120,472 3111,740 3154,794 3169,828 3106,1008 2941,1178 2829,1198 2761,1290 2717,1431 2605,1475 2518,1592 "/>
   </g>
  </g>
 </g>
</svg>
