<?xml version="1.0" encoding="UTF-8"?>
<!DOCTYPE svg PUBLIC "-//W3C//DTD SVG 1.1//EN" "http://www.w3.org/Graphics/SVG/1.1/DTD/svg11.dtd">
<!-- Creator: CorelDRAW X8 -->
<svg xmlns="http://www.w3.org/2000/svg" xml:space="preserve" width="100%" height="100%" version="1.1" shape-rendering="geometricPrecision" text-rendering="geometricPrecision" image-rendering="optimizeQuality" fill-rule="evenodd" clip-rule="evenodd"
viewBox="0 0 1665 1782"
 xmlns:xlink="http://www.w3.org/1999/xlink">
 <g id="Layer_x0020_1">
  <metadata id="CorelCorpID_0Corel-Layer"/>
  <g id="Layers">
   <g id="India_Districts_selection">
    <polygon fill="#6EA97F" points="574,1536 579,1494 605,1463 611,1369 611,1207 569,1087 459,935 407,857 324,794 277,721 198,721 188,674 209,522 167,470 89,397 0,329 10,324 99,230 308,235 386,183 412,104 438,89 611,84 684,167 772,26 814,0 846,26 903,57 929,89 1007,125 1028,84 1133,78 1133,125 1227,282 1242,418 1414,643 1534,773 1555,862 1628,935 1665,946 1639,1029 1566,1176 1477,1259 1472,1385 1467,1473 1430,1489 1388,1526 1388,1782 1300,1771 1200,1782 1101,1776 1080,1745 1023,1745 960,1729 898,1703 819,1672 752,1641 668,1656 621,1609 574,1536 "/>
   </g>
  </g>
 </g>
</svg>
