<?xml version="1.0" encoding="UTF-8"?>
<!DOCTYPE svg PUBLIC "-//W3C//DTD SVG 1.1//EN" "http://www.w3.org/Graphics/SVG/1.1/DTD/svg11.dtd">
<!-- Creator: CorelDRAW X8 -->
<svg xmlns="http://www.w3.org/2000/svg" xml:space="preserve" width="100%" height="100%" version="1.1" shape-rendering="geometricPrecision" text-rendering="geometricPrecision" image-rendering="optimizeQuality" fill-rule="evenodd" clip-rule="evenodd"
viewBox="0 0 2568 2384"
 xmlns:xlink="http://www.w3.org/1999/xlink">
 <g id="Layer_x0020_1">
  <metadata id="CorelCorpID_0Corel-Layer"/>
  <g id="Layers">
   <g id="India_Districts_selection">
    <polygon fill="#6EA97F" points="1110,2384 1110,2286 977,2188 823,2188 789,2104 614,2097 621,1790 258,1790 188,1650 0,1650 7,1503 105,1503 147,1440 405,1426 405,1517 593,1496 621,1167 516,1035 181,713 140,566 202,308 614,0 747,0 1054,7 1207,252 1312,217 1452,189 1682,203 1682,217 1703,315 1835,357 1863,433 1926,615 2052,636 2275,671 2470,706 2568,846 2470,979 2226,1146 2135,1251 2024,1370 1891,1489 1766,1545 1626,1552 1479,1643 1452,1811 1493,2020 1277,2384 "/>
   </g>
  </g>
 </g>
</svg>
