<?xml version="1.0" encoding="UTF-8"?>
<!DOCTYPE svg PUBLIC "-//W3C//DTD SVG 1.1//EN" "http://www.w3.org/Graphics/SVG/1.1/DTD/svg11.dtd">
<!-- Creator: CorelDRAW X8 -->
<svg xmlns="http://www.w3.org/2000/svg" xml:space="preserve" width="100%" height="100%" version="1.1" shape-rendering="geometricPrecision" text-rendering="geometricPrecision" image-rendering="optimizeQuality" fill-rule="evenodd" clip-rule="evenodd"
viewBox="0 0 3187 1664"
 xmlns:xlink="http://www.w3.org/1999/xlink">
 <g id="Layer_x0020_1">
  <metadata id="CorelCorpID_0Corel-Layer"/>
  <g id="Layers">
   <g id="India_Districts_selection">
    <polygon fill="#6EA97F" points="2893,1527 2873,1556 2853,1585 2844,1625 2819,1639 2770,1649 2736,1659 2696,1664 2643,1649 2643,1581 2618,1571 2608,1536 2564,1522 2505,1522 2500,1546 2432,1546 2397,1566 2290,1571 2226,1561 2201,1590 2108,1585 2093,1556 2084,1536 2069,1517 2044,1497 2035,1473 2025,1433 2005,1404 1986,1394 1951,1384 1932,1365 1932,1404 1863,1409 1829,1379 1794,1369 1785,1330 1765,1291 1765,1261 1740,1247 1731,1222 1740,918 1721,888 1716,854 1691,830 1667,815 1667,780 1647,766 1623,761 1618,741 1564,741 1554,761 1525,761 1358,766 1348,785 1265,795 1265,888 1240,888 1240,972 1211,982 1186,1026 946,1026 932,1055 917,1139 902,1149 897,1163 824,1168 780,1139 780,1124 657,1119 603,1144 588,1163 559,1168 554,1212 471,1212 456,1232 436,1276 412,1306 240,1320 201,1281 176,1291 162,1271 167,1271 167,1227 5,1099 0,908 196,810 206,682 333,560 515,496 672,496 814,250 789,113 809,0 829,0 951,74 1118,162 1177,304 1319,378 1407,432 1569,393 1868,285 2255,211 2638,201 2765,358 2750,412 2623,525 2603,623 2584,780 2662,830 2888,869 2991,859 2991,864 2991,928 3000,982 3049,1006 3108,1026 3172,1050 3187,1178 3187,1227 3089,1232 3049,1257 3020,1291 2976,1296 2976,1320 2942,1350 2927,1374 2897,1404 2893,1438 2868,1458 2888,1522 "/>
   </g>
  </g>
 </g>
</svg>
