<?xml version="1.0" encoding="UTF-8"?>
<!DOCTYPE svg PUBLIC "-//W3C//DTD SVG 1.1//EN" "http://www.w3.org/Graphics/SVG/1.1/DTD/svg11.dtd">
<!-- Creator: CorelDRAW X8 -->
<svg xmlns="http://www.w3.org/2000/svg" xml:space="preserve" width="100%" height="100%" version="1.1" shape-rendering="geometricPrecision" text-rendering="geometricPrecision" image-rendering="optimizeQuality" fill-rule="evenodd" clip-rule="evenodd"
viewBox="0 0 3134 1932"
 xmlns:xlink="http://www.w3.org/1999/xlink">
 <g id="Layer_x0020_1">
  <metadata id="CorelCorpID_0Corel-Layer"/>
  <g id="Layers">
   <g id="India_Districts_selection">
    <polygon fill="#6EA97F" points="2738,1479 2721,1445 2664,1456 2494,1621 2274,1643 2144,1796 1929,1847 1708,1887 1589,1841 1544,1853 1533,1870 1250,1875 1126,1892 1063,1926 928,1932 815,1739 786,1626 815,1575 945,1581 956,1598 1063,1592 1086,1462 1035,1388 905,1196 781,1156 543,1207 334,1315 158,1337 0,1269 17,1230 51,1184 107,1150 215,1116 294,1043 260,975 294,935 390,918 430,873 453,782 594,731 730,725 877,674 950,618 984,425 905,261 1041,159 1154,91 1205,57 1295,91 1386,85 1476,40 1561,23 1595,57 1725,85 1810,85 1833,159 1934,164 1985,130 2104,102 2217,85 2330,45 2432,0 2630,6 2608,159 2613,397 2641,567 2692,618 2794,635 2800,822 2856,895 2958,918 3077,992 3122,1009 3134,1077 3037,1173 2924,1258 2845,1354 "/>
   </g>
  </g>
 </g>
</svg>
