<?xml version="1.0" encoding="UTF-8"?>
<!DOCTYPE svg PUBLIC "-//W3C//DTD SVG 1.1//EN" "http://www.w3.org/Graphics/SVG/1.1/DTD/svg11.dtd">
<!-- Creator: CorelDRAW X8 -->
<svg xmlns="http://www.w3.org/2000/svg" xml:space="preserve" width="100%" height="100%" version="1.1" shape-rendering="geometricPrecision" text-rendering="geometricPrecision" image-rendering="optimizeQuality" fill-rule="evenodd" clip-rule="evenodd"
viewBox="0 0 2499 2685"
 xmlns:xlink="http://www.w3.org/1999/xlink">
 <g id="Layer_x0020_1">
  <metadata id="CorelCorpID_0Corel-Layer"/>
  <g id="Layers">
   <g id="India_Districts_selection">
    <polygon fill="#6EA97F" points="802,2685 707,2645 684,2480 605,2409 605,2189 503,2134 354,2157 86,2197 0,2079 8,1929 71,1842 118,1772 141,1606 236,1362 228,1260 149,1150 196,1142 252,968 307,748 377,677 330,559 369,551 432,457 542,299 668,236 825,189 1045,150 1218,110 1344,79 1658,63 1761,31 1973,0 2114,8 2169,71 2169,173 2114,260 2044,354 1949,449 1823,567 1713,685 1635,779 1580,890 1588,1024 1627,1102 1666,1197 1753,1331 1847,1394 1973,1425 2028,1480 2020,1559 2020,1653 1973,1740 1973,1811 2012,1882 2059,1921 2130,1953 2169,1937 2232,1882 2303,1882 2437,1882 2499,1960 2492,2071 2444,2126 2350,2165 2303,2205 2256,2299 2209,2362 2185,2425 2106,2464 2020,2449 1949,2401 1847,2386 1713,2401 1603,2433 1541,2480 1485,2527 1360,2551 1226,2551 998,2598 865,2622 802,2677 "/>
   </g>
  </g>
 </g>
</svg>
