<?xml version="1.0" encoding="UTF-8"?>
<!DOCTYPE svg PUBLIC "-//W3C//DTD SVG 1.1//EN" "http://www.w3.org/Graphics/SVG/1.1/DTD/svg11.dtd">
<!-- Creator: CorelDRAW X8 -->
<svg xmlns="http://www.w3.org/2000/svg" xml:space="preserve" width="100%" height="100%" version="1.1" shape-rendering="geometricPrecision" text-rendering="geometricPrecision" image-rendering="optimizeQuality" fill-rule="evenodd" clip-rule="evenodd"
viewBox="0 0 1796 2534"
 xmlns:xlink="http://www.w3.org/1999/xlink">
 <g id="Layer_x0020_1">
  <metadata id="CorelCorpID_0Corel-Layer"/>
  <g id="Layers">
   <g id="India_Districts_selection">
    <polygon fill="#6EA97F" points="0,372 74,357 557,193 1047,0 1121,134 1203,238 1388,349 1462,431 1433,639 1485,765 1425,788 1136,1040 1099,1241 1307,1427 1663,1531 1744,1739 1796,1813 1774,1917 1774,2044 1759,2222 1737,2401 1693,2497 1559,2534 1448,2430 1314,2296 1210,2282 1217,1836 1173,1665 972,1613 913,1464 371,1457 401,981 334,862 282,691 126,595 82,424 "/>
   </g>
  </g>
 </g>
</svg>
