<?xml version="1.0" encoding="UTF-8"?>
<!DOCTYPE svg PUBLIC "-//W3C//DTD SVG 1.1//EN" "http://www.w3.org/Graphics/SVG/1.1/DTD/svg11.dtd">
<!-- Creator: CorelDRAW X8 -->
<svg xmlns="http://www.w3.org/2000/svg" xml:space="preserve" width="100%" height="100%" version="1.1" shape-rendering="geometricPrecision" text-rendering="geometricPrecision" image-rendering="optimizeQuality" fill-rule="evenodd" clip-rule="evenodd"
viewBox="0 0 3037 1330"
 xmlns:xlink="http://www.w3.org/1999/xlink">
 <g id="Layer_x0020_1">
  <metadata id="CorelCorpID_0Corel-Layer"/>
  <g id="Layers">
   <g id="India_Districts_selection">
    <polygon fill="#6EA97F" points="3014,177 3019,187 3037,243 2958,411 2926,481 2856,597 2786,705 2776,873 2749,919 2735,985 2176,1003 1593,1111 1146,1274 904,1330 769,1255 554,1139 466,924 214,793 33,681 0,681 149,588 284,579 410,523 545,406 657,285 755,182 764,173 792,219 866,271 927,294 1025,308 1141,191 1328,201 1416,289 1481,266 1644,154 1794,145 1929,229 2003,243 2045,196 2311,191 2488,126 2544,19 2576,9 2651,0 2655,103 2674,154 2721,229 2884,229 2977,191 "/>
   </g>
  </g>
 </g>
</svg>
