<?xml version="1.0" encoding="UTF-8"?>
<!DOCTYPE svg PUBLIC "-//W3C//DTD SVG 1.1//EN" "http://www.w3.org/Graphics/SVG/1.1/DTD/svg11.dtd">
<!-- Creator: CorelDRAW X8 -->
<svg xmlns="http://www.w3.org/2000/svg" xml:space="preserve" width="100%" height="100%" version="1.1" shape-rendering="geometricPrecision" text-rendering="geometricPrecision" image-rendering="optimizeQuality" fill-rule="evenodd" clip-rule="evenodd"
viewBox="0 0 7815 6448"
 xmlns:xlink="http://www.w3.org/1999/xlink">
 <g id="Layer_x0020_1">
  <metadata id="CorelCorpID_0Corel-Layer"/>
  <g id="Layers">
   <g id="India_Districts_selection">
    <polygon fill="#6EA97F" points="566,6448 321,6108 396,5768 736,5635 736,5106 585,4954 340,4803 340,4122 415,4028 604,3687 359,3706 359,3309 0,3120 245,2761 849,2383 1397,2326 1359,1683 1284,1645 1303,1399 1321,1078 1605,1078 1756,927 2152,927 2171,1494 2681,1872 3190,2004 3360,2269 3870,2288 3908,2194 4738,2194 5002,2080 5078,1815 5135,1570 5455,1532 5682,1210 5927,927 6645,340 6871,227 7249,151 7362,76 7607,0 7815,38 7645,303 7192,851 6173,1778 6229,2080 5512,2685 4965,3177 4228,3990 3322,5030 2511,5370 1642,5881 793,6316 "/>
   </g>
  </g>
 </g>
</svg>
