<?xml version="1.0" encoding="UTF-8"?>
<!DOCTYPE svg PUBLIC "-//W3C//DTD SVG 1.1//EN" "http://www.w3.org/Graphics/SVG/1.1/DTD/svg11.dtd">
<!-- Creator: CorelDRAW X8 -->
<svg xmlns="http://www.w3.org/2000/svg" xml:space="preserve" width="100%" height="100%" version="1.1" shape-rendering="geometricPrecision" text-rendering="geometricPrecision" image-rendering="optimizeQuality" fill-rule="evenodd" clip-rule="evenodd"
viewBox="0 0 1622 2083"
 xmlns:xlink="http://www.w3.org/1999/xlink">
 <g id="Layer_x0020_1">
  <metadata id="CorelCorpID_0Corel-Layer"/>
  <g id="Layers">
   <g id="India_Districts_selection">
    <polygon fill="#6EA97F" points="1616,1240 1622,1405 1512,1411 1506,1447 1414,1454 1390,1374 1122,1374 1006,1417 915,1515 847,1692 774,1686 646,1759 817,1893 799,1930 726,2046 549,2052 543,2083 274,2077 213,1967 128,1930 116,1643 213,1594 213,1423 177,1374 189,1179 360,1179 384,1112 421,941 433,818 341,788 177,770 6,690 0,586 37,537 43,409 24,354 43,348 98,269 159,189 213,147 348,122 476,73 573,6 598,0 604,37 640,98 695,171 726,232 732,354 787,464 787,574 854,568 841,660 994,666 1043,599 1183,605 1177,568 1238,574 1299,660 1524,672 1518,678 1482,770 1433,770 1408,825 1317,837 1286,873 1286,965 1293,1008 1341,1038 1427,1081 1457,1112 1494,1124 1512,1167 1591,1191 1610,1234 "/>
   </g>
  </g>
 </g>
</svg>
