<?xml version="1.0" encoding="UTF-8"?>
<!DOCTYPE svg PUBLIC "-//W3C//DTD SVG 1.1//EN" "http://www.w3.org/Graphics/SVG/1.1/DTD/svg11.dtd">
<!-- Creator: CorelDRAW X8 -->
<svg xmlns="http://www.w3.org/2000/svg" xml:space="preserve" width="100%" height="100%" version="1.1" shape-rendering="geometricPrecision" text-rendering="geometricPrecision" image-rendering="optimizeQuality" fill-rule="evenodd" clip-rule="evenodd"
viewBox="0 0 3050 2685"
 xmlns:xlink="http://www.w3.org/1999/xlink">
 <g id="Layer_x0020_1">
  <metadata id="CorelCorpID_0Corel-Layer"/>
  <g id="Layers">
   <g id="India_Districts_selection">
    <polygon fill="#6EA97F" points="1564,874 1792,1000 2146,874 2319,268 2444,0 2531,63 2672,323 2814,622 2877,898 2947,1157 3050,1252 3034,1307 2940,1394 2924,1527 2751,1543 2578,1543 2515,1882 2602,1976 2602,2189 2523,2244 2523,2346 2444,2441 2201,2645 2028,2661 1682,2685 1635,2590 1706,2496 1572,2433 1478,2370 1352,2236 1218,2220 1140,2283 998,2370 951,2449 519,2519 417,2559 314,2630 134,2638 71,2638 63,2559 0,2346 0,2173 157,2016 409,1905 613,1842 668,1716 668,1535 700,1457 849,1362 1030,1394 1179,1535 1305,1653 1454,1614 1501,1504 1525,1315 1541,1118 1541,968 "/>
   </g>
  </g>
 </g>
</svg>
