<?xml version="1.0" encoding="UTF-8"?>
<!DOCTYPE svg PUBLIC "-//W3C//DTD SVG 1.1//EN" "http://www.w3.org/Graphics/SVG/1.1/DTD/svg11.dtd">
<!-- Creator: CorelDRAW X8 -->
<svg xmlns="http://www.w3.org/2000/svg" xml:space="preserve" width="100%" height="100%" version="1.1" shape-rendering="geometricPrecision" text-rendering="geometricPrecision" image-rendering="optimizeQuality" fill-rule="evenodd" clip-rule="evenodd"
viewBox="0 0 1485 2534"
 xmlns:xlink="http://www.w3.org/1999/xlink">
 <g id="Layer_x0020_1">
  <metadata id="CorelCorpID_0Corel-Layer"/>
  <g id="Layers">
   <g id="India_Districts_selection">
    <polygon fill="#6EA97F" points="1344,2334 1314,2349 1240,2408 1136,2460 1062,2519 913,2534 817,2505 757,2408 683,2311 534,2267 423,2274 408,2014 364,1962 230,1940 89,1917 111,1865 141,1799 200,1717 208,1642 126,1590 89,1516 74,1420 0,1367 0,1271 30,1263 74,1219 134,1152 193,1122 297,1115 341,1078 416,1026 386,699 371,505 334,438 327,334 304,230 282,193 438,156 527,119 594,37 609,0 735,7 846,97 943,171 935,275 995,305 1084,342 1143,297 1262,312 1358,327 1410,342 1403,513 1396,624 1448,669 1455,736 1485,803 1485,1055 1477,1152 1418,1189 1344,1278 1329,1427 1329,1583 1210,1672 1210,1739 1113,1776 1039,1836 943,1984 943,2103 1047,2170 1165,2200 1329,2222 "/>
   </g>
  </g>
 </g>
</svg>
