<?xml version="1.0" encoding="UTF-8"?>
<!DOCTYPE svg PUBLIC "-//W3C//DTD SVG 1.1//EN" "http://www.w3.org/Graphics/SVG/1.1/DTD/svg11.dtd">
<!-- Creator: CorelDRAW X8 -->
<svg xmlns="http://www.w3.org/2000/svg" xml:space="preserve" width="100%" height="100%" version="1.1" shape-rendering="geometricPrecision" text-rendering="geometricPrecision" image-rendering="optimizeQuality" fill-rule="evenodd" clip-rule="evenodd"
viewBox="0 0 2338 1481"
 xmlns:xlink="http://www.w3.org/1999/xlink">
 <g id="Layer_x0020_1">
  <metadata id="CorelCorpID_0Corel-Layer"/>
  <g id="Layers">
   <g id="India_Districts_selection">
    <polygon fill="#6EA97F" points="2338,747 2234,899 2199,925 2190,1016 2151,1059 2151,1198 2086,1190 1999,1111 1887,1103 1878,933 1848,925 1835,907 1791,907 1731,938 1722,973 1670,977 1652,999 1553,1003 1518,1029 1514,1125 1462,1151 1449,1172 1362,1185 1362,1155 1305,1151 1292,1181 1227,1177 1132,1203 1136,1285 1110,1329 1045,1411 1002,1424 959,1346 915,1346 898,1368 850,1468 729,1481 724,1428 685,1424 590,1324 525,1316 525,1294 455,1294 421,1259 338,1142 278,1111 278,1072 256,1072 182,968 182,864 213,855 213,751 182,725 17,725 0,716 17,699 30,625 48,556 78,512 130,473 173,456 243,452 291,430 373,408 447,382 507,339 594,334 677,321 733,282 781,252 859,274 946,313 1028,330 1119,373 1188,386 1240,404 1297,434 1371,425 1436,439 1466,478 1501,517 1548,534 1596,534 1631,495 1639,439 1639,378 1618,330 1600,278 1574,234 1557,204 1518,139 1622,69 1674,0 1735,13 1913,230 2091,491 2255,690 "/>
   </g>
  </g>
 </g>
</svg>
