<?xml version="1.0" encoding="UTF-8"?>
<!DOCTYPE svg PUBLIC "-//W3C//DTD SVG 1.1//EN" "http://www.w3.org/Graphics/SVG/1.1/DTD/svg11.dtd">
<!-- Creator: CorelDRAW X8 -->
<svg xmlns="http://www.w3.org/2000/svg" xml:space="preserve" width="100%" height="100%" version="1.1" shape-rendering="geometricPrecision" text-rendering="geometricPrecision" image-rendering="optimizeQuality" fill-rule="evenodd" clip-rule="evenodd"
viewBox="0 0 1946 1932"
 xmlns:xlink="http://www.w3.org/1999/xlink">
 <g id="Layer_x0020_1">
  <metadata id="CorelCorpID_0Corel-Layer"/>
  <g id="Layers">
   <g id="India_Districts_selection">
    <polygon fill="#6EA97F" points="1589,79 1623,113 1674,193 1680,346 1612,436 1584,493 1606,555 1934,567 1923,584 1889,618 1923,697 1929,1060 1889,1196 1855,1224 1884,1309 1946,1332 1917,1575 1759,1700 1589,1785 1425,1734 1369,1768 1437,1853 1437,1932 1358,1915 1346,1830 1256,1802 1058,1689 928,1592 815,1558 713,1530 639,1609 639,1689 407,1683 407,1649 424,1609 430,1490 537,1332 549,1173 509,1088 424,1065 288,1065 221,1009 141,935 51,839 68,731 85,725 85,640 57,567 0,527 11,96 28,62 141,57 283,91 339,147 549,40 752,68 815,34 837,0 894,68 1080,68 1233,227 1278,249 1363,221 1544,153 "/>
   </g>
  </g>
 </g>
</svg>
