<?xml version="1.0" encoding="UTF-8"?>
<!DOCTYPE svg PUBLIC "-//W3C//DTD SVG 1.1//EN" "http://www.w3.org/Graphics/SVG/1.1/DTD/svg11.dtd">
<!-- Creator: CorelDRAW X8 -->
<svg xmlns="http://www.w3.org/2000/svg" xml:space="preserve" width="100%" height="100%" version="1.1" shape-rendering="geometricPrecision" text-rendering="geometricPrecision" image-rendering="optimizeQuality" fill-rule="evenodd" clip-rule="evenodd"
viewBox="0 0 2331 1631"
 xmlns:xlink="http://www.w3.org/1999/xlink">
 <g id="Layer_x0020_1">
  <metadata id="CorelCorpID_0Corel-Layer"/>
  <g id="Layers">
   <g id="India_Districts_selection">
    <polygon fill="#6EA97F" points="2322,1478 2245,1478 2202,1502 2155,1449 2078,1430 2026,1531 1983,1535 1964,1588 1729,1598 1715,1574 1629,1468 1510,1502 1481,1459 1362,1435 1309,1459 1309,1574 1204,1583 1099,1631 1061,1593 932,1598 855,1545 812,1511 731,1545 645,1598 487,1602 430,1578 344,1555 377,1497 397,1440 363,1401 382,1358 354,1335 325,1311 334,1296 315,1129 334,942 368,851 115,880 62,899 24,818 24,579 0,517 158,521 220,502 387,464 449,402 459,316 526,268 607,177 726,86 798,38 798,10 975,0 1065,62 1080,143 1032,196 1008,268 1051,301 1128,330 1180,344 1099,445 1147,493 1147,660 1065,713 1051,765 1128,808 1123,871 1156,904 1209,880 1290,871 1371,866 1424,837 1472,813 1562,885 1739,1024 1868,1086 1892,1052 2140,1057 2245,1277 2260,1378 2331,1445 "/>
   </g>
  </g>
 </g>
</svg>
