<?xml version="1.0" encoding="UTF-8"?>
<!DOCTYPE svg PUBLIC "-//W3C//DTD SVG 1.1//EN" "http://www.w3.org/Graphics/SVG/1.1/DTD/svg11.dtd">
<!-- Creator: CorelDRAW X8 -->
<svg xmlns="http://www.w3.org/2000/svg" xml:space="preserve" width="100%" height="100%" version="1.1" shape-rendering="geometricPrecision" text-rendering="geometricPrecision" image-rendering="optimizeQuality" fill-rule="evenodd" clip-rule="evenodd"
viewBox="0 0 2049 2534"
 xmlns:xlink="http://www.w3.org/1999/xlink">
 <g id="Layer_x0020_1">
  <metadata id="CorelCorpID_0Corel-Layer"/>
  <g id="Layers">
   <g id="India_Districts_selection">
    <polygon fill="#6EA97F" points="0,1680 15,1598 67,1605 74,1576 163,1576 215,1546 260,1494 297,1449 290,1375 393,1308 483,1226 594,1137 661,1093 750,1033 779,988 802,899 846,803 950,654 1128,609 1210,602 1299,513 1344,401 1373,282 1492,268 1566,186 1566,223 1707,149 1826,104 1937,7 2019,0 2034,104 2049,104 2004,126 1908,149 1841,208 1796,260 1700,260 1655,349 1581,409 1566,468 1529,528 1381,557 1396,907 1321,1040 1232,1093 1240,1130 1173,1189 1188,1390 1210,1412 1210,1479 1247,1546 1299,1613 1299,1717 1440,1776 1492,1821 1611,1977 1626,1962 1626,1984 1655,2081 1596,2118 1440,2126 1403,2207 1366,2319 1314,2349 1277,2356 1210,2349 1158,2326 1143,2222 1106,2200 1091,2244 1047,2267 950,2274 950,2237 817,2237 809,2259 772,2274 809,2334 846,2378 876,2423 839,2460 809,2512 661,2497 624,2519 564,2534 393,2497 290,2467 230,2438 215,2319 193,2296 245,2230 260,2140 230,2111 223,2029 193,2029 193,1947 163,1910 119,1828 52,1754 "/>
   </g>
  </g>
 </g>
</svg>
