<?xml version="1.0" encoding="UTF-8"?>
<!DOCTYPE svg PUBLIC "-//W3C//DTD SVG 1.1//EN" "http://www.w3.org/Graphics/SVG/1.1/DTD/svg11.dtd">
<!-- Creator: CorelDRAW X8 -->
<svg xmlns="http://www.w3.org/2000/svg" xml:space="preserve" width="100%" height="100%" version="1.1" shape-rendering="geometricPrecision" text-rendering="geometricPrecision" image-rendering="optimizeQuality" fill-rule="evenodd" clip-rule="evenodd"
viewBox="0 0 1809 2835"
 xmlns:xlink="http://www.w3.org/1999/xlink">
 <g id="Layer_x0020_1">
  <metadata id="CorelCorpID_0Corel-Layer"/>
  <g id="Layers">
   <g id="India_Districts_selection">
    <polygon fill="#6EA97F" points="448,50 440,58 432,175 481,299 797,283 872,349 930,524 963,640 1004,599 963,732 1079,931 1179,1089 1237,1131 1311,1272 1403,1339 1477,1256 1585,1272 1652,1314 1668,1422 1718,1638 1735,1705 1785,1779 1793,1829 1776,1838 1710,1921 1710,2054 1751,2170 1785,2278 1809,2436 1793,2561 1735,2619 1635,2669 1419,2835 1361,2819 1145,2794 872,2669 872,2345 755,2220 407,2187 307,2087 216,1846 141,1705 33,1405 0,1206 166,1206 307,1064 257,931 249,649 141,557 83,499 0,249 166,83 340,0 "/>
   </g>
  </g>
 </g>
</svg>
