<?xml version="1.0" encoding="UTF-8"?>
<!DOCTYPE svg PUBLIC "-//W3C//DTD SVG 1.1//EN" "http://www.w3.org/Graphics/SVG/1.1/DTD/svg11.dtd">
<!-- Creator: CorelDRAW X8 -->
<svg xmlns="http://www.w3.org/2000/svg" xml:space="preserve" width="100%" height="100%" version="1.1" shape-rendering="geometricPrecision" text-rendering="geometricPrecision" image-rendering="optimizeQuality" fill-rule="evenodd" clip-rule="evenodd"
viewBox="0 0 1652 1932"
 xmlns:xlink="http://www.w3.org/1999/xlink">
 <g id="Layer_x0020_1">
  <metadata id="CorelCorpID_0Corel-Layer"/>
  <g id="Layers">
   <g id="India_Districts_selection">
    <polygon fill="#6EA97F" points="1635,1496 1601,1536 1505,1660 1267,1677 1193,1717 990,1779 967,1824 764,1841 639,1734 469,1779 266,1853 34,1932 34,1881 45,1841 74,1807 215,1734 266,1706 294,1621 345,1558 334,1434 266,1354 141,1269 107,1207 102,1014 91,873 51,839 0,816 34,793 34,731 91,708 204,601 266,555 379,453 322,408 221,334 204,300 215,272 226,176 221,159 272,130 469,119 554,125 588,176 673,153 679,51 764,6 899,0 894,136 837,170 837,357 1041,351 1052,385 1290,385 1278,425 1261,465 1239,521 1239,618 1273,663 1295,731 1335,822 1335,890 1363,952 1408,1031 1454,1077 1454,1139 1476,1179 1499,1252 1544,1303 1606,1343 1652,1343 1629,1417 1612,1490 "/>
   </g>
  </g>
 </g>
</svg>
