<?xml version="1.0" encoding="UTF-8"?>
<!DOCTYPE svg PUBLIC "-//W3C//DTD SVG 1.1//EN" "http://www.w3.org/Graphics/SVG/1.1/DTD/svg11.dtd">
<!-- Creator: CorelDRAW X8 -->
<svg xmlns="http://www.w3.org/2000/svg" xml:space="preserve" width="100%" height="100%" version="1.1" shape-rendering="geometricPrecision" text-rendering="geometricPrecision" image-rendering="optimizeQuality" fill-rule="evenodd" clip-rule="evenodd"
viewBox="0 0 5792 8455"
 xmlns:xlink="http://www.w3.org/1999/xlink">
 <g id="Layer_x0020_1">
  <metadata id="CorelCorpID_0Corel-Layer"/>
  <g id="Layers">
   <g id="India_Districts_selection">
    <polygon fill="#6EA97F" points="4752,719 4752,793 4926,1438 5148,1959 5643,2901 5594,4017 5247,4785 5198,5133 5223,5455 5445,5926 5693,6397 5767,6868 5742,7414 5792,8182 5742,8281 5594,8306 5470,8405 5124,8455 4950,8405 4876,8232 4827,8232 4703,7910 4777,7810 4802,7488 4604,7314 4332,7166 4035,7265 3985,7091 4084,6943 4134,6571 3812,6124 3589,6422 3515,6422 3317,6174 3094,6174 2970,6372 2747,6347 2624,6149 2376,6149 2277,5976 2104,6050 1881,6149 1856,5976 1782,5653 1881,5058 1708,4934 1658,4711 1658,4389 1411,3446 1114,2926 743,2380 495,1984 248,1339 0,669 0,248 718,0 1188,149 1584,322 1931,446 2376,422 2500,521 2896,570 3218,347 3366,719 3564,769 4084,595 "/>
   </g>
  </g>
 </g>
</svg>
