<?xml version="1.0" encoding="UTF-8"?>
<!DOCTYPE svg PUBLIC "-//W3C//DTD SVG 1.1//EN" "http://www.w3.org/Graphics/SVG/1.1/DTD/svg11.dtd">
<!-- Creator: CorelDRAW X8 -->
<svg xmlns="http://www.w3.org/2000/svg" xml:space="preserve" width="100%" height="100%" version="1.1" shape-rendering="geometricPrecision" text-rendering="geometricPrecision" image-rendering="optimizeQuality" fill-rule="evenodd" clip-rule="evenodd"
viewBox="0 0 3390 2474"
 xmlns:xlink="http://www.w3.org/1999/xlink">
 <g id="Layer_x0020_1">
  <metadata id="CorelCorpID_0Corel-Layer"/>
  <g id="Layers">
   <g id="India_Districts_selection">
    <polygon fill="#6EA97F" points="1948,1037 2021,1125 2274,1110 2274,1183 2455,1175 2528,1371 2955,1016 3172,1052 3172,1117 3165,1262 3100,1393 3100,1683 3172,1698 3172,1908 3230,2053 3353,2169 3390,2206 3332,2227 3187,2329 3085,2401 2231,2394 2231,2329 2006,2285 1919,2394 1651,2416 1601,2474 1412,2430 1333,2394 1296,2329 1166,2329 1173,1828 1072,1734 1043,1567 942,1596 811,1509 739,1444 645,1320 565,1299 340,936 0,116 196,65 253,0 536,0 587,73 1412,138 1420,319 1738,544 1861,653 1861,834 1948,907 "/>
   </g>
  </g>
 </g>
</svg>
