<?xml version="1.0" encoding="UTF-8"?>
<!DOCTYPE svg PUBLIC "-//W3C//DTD SVG 1.1//EN" "http://www.w3.org/Graphics/SVG/1.1/DTD/svg11.dtd">
<!-- Creator: CorelDRAW X8 -->
<svg xmlns="http://www.w3.org/2000/svg" xml:space="preserve" width="100%" height="100%" version="1.1" shape-rendering="geometricPrecision" text-rendering="geometricPrecision" image-rendering="optimizeQuality" fill-rule="evenodd" clip-rule="evenodd"
viewBox="0 0 3910 2233"
 xmlns:xlink="http://www.w3.org/1999/xlink">
 <g id="Layer_x0020_1">
  <metadata id="CorelCorpID_0Corel-Layer"/>
  <g id="Layers">
   <g id="India_Districts_selection">
    <polygon fill="#6EA97F" points="3079,1611 3086,1657 2994,1644 2975,1703 2863,1709 2837,1657 2785,1657 2713,1742 2694,1919 2615,1958 2595,2128 2504,2214 2327,2233 2321,2233 2262,2181 2269,2069 2079,1925 2033,1775 1883,1775 1700,1873 1608,1978 1595,2083 1451,2083 1360,2030 1216,1840 1138,1834 1072,1912 955,2030 824,2030 785,2089 582,2089 373,2043 124,2050 92,2030 0,1971 13,1808 65,1788 59,1559 105,1546 150,1415 307,1395 405,1323 673,1310 804,1277 915,1225 981,1113 1111,1087 1255,982 1262,753 1308,753 1360,681 1432,629 1589,596 1693,603 1726,557 1811,550 1870,504 1929,445 1955,367 1968,399 2112,399 2197,314 2340,308 2556,550 2602,675 2700,747 2929,733 2981,675 2981,557 3092,504 3164,399 3171,229 3275,65 3387,13 3792,0 3851,98 3910,210 3851,314 3805,465 3668,498 3373,504 3269,589 3288,733 3347,825 3282,845 3275,976 3223,982 3223,1126 3184,1120 3177,1343 3073,1382 "/>
   </g>
  </g>
 </g>
</svg>
