<?xml version="1.0" encoding="UTF-8"?>
<!DOCTYPE svg PUBLIC "-//W3C//DTD SVG 1.1//EN" "http://www.w3.org/Graphics/SVG/1.1/DTD/svg11.dtd">
<!-- Creator: CorelDRAW X8 -->
<svg xmlns="http://www.w3.org/2000/svg" xml:space="preserve" width="100%" height="100%" version="1.1" shape-rendering="geometricPrecision" text-rendering="geometricPrecision" image-rendering="optimizeQuality" fill-rule="evenodd" clip-rule="evenodd"
viewBox="0 0 3008 1681"
 xmlns:xlink="http://www.w3.org/1999/xlink">
 <g id="Layer_x0020_1">
  <metadata id="CorelCorpID_0Corel-Layer"/>
  <g id="Layers">
   <g id="India_Districts_selection">
    <polygon fill="#6EA97F" points="3004,799 2851,799 2831,853 2797,927 2767,971 2708,1070 2644,1099 2644,1070 2536,1070 2467,1030 2487,986 2467,946 2423,932 2359,907 2280,912 2275,1035 2245,1035 2201,996 2142,966 2102,1006 2024,981 1974,927 1866,927 1822,941 1714,1020 1733,1084 1689,1134 1674,1203 1718,1291 1723,1444 1679,1489 1654,1459 1615,1459 1590,1513 1492,1553 1438,1622 1344,1656 1339,1636 1236,1632 1187,1651 1167,1671 1024,1681 1000,1651 970,1651 955,1632 896,1617 857,1597 906,1602 867,1474 719,1272 507,1198 409,1203 359,1262 271,1222 64,1198 49,1129 25,946 15,828 158,715 256,646 182,513 79,419 34,281 0,212 5,108 172,104 246,69 355,74 473,0 832,5 950,138 1064,320 1280,389 1448,340 1709,527 1832,631 1979,646 2093,518 2088,360 2329,325 2373,537 2491,591 2580,611 2787,601 2866,660 3008,759 "/>
   </g>
  </g>
 </g>
</svg>
