<?xml version="1.0" encoding="UTF-8"?>
<!DOCTYPE svg PUBLIC "-//W3C//DTD SVG 1.1//EN" "http://www.w3.org/Graphics/SVG/1.1/DTD/svg11.dtd">
<!-- Creator: CorelDRAW X8 -->
<svg xmlns="http://www.w3.org/2000/svg" xml:space="preserve" width="100%" height="100%" version="1.1" shape-rendering="geometricPrecision" text-rendering="geometricPrecision" image-rendering="optimizeQuality" fill-rule="evenodd" clip-rule="evenodd"
viewBox="0 0 2140 1782"
 xmlns:xlink="http://www.w3.org/1999/xlink">
 <g id="Layer_x0020_1">
  <metadata id="CorelCorpID_0Corel-Layer"/>
  <g id="Layers">
   <g id="India_Districts_selection">
    <polygon fill="#6EA97F" points="2140,376 2140,402 2077,444 1967,528 1894,606 1837,648 1826,726 1774,784 1628,815 1571,831 1430,831 1456,883 1451,1097 1482,1165 1529,1149 1759,1123 1727,1202 1712,1369 1727,1520 1675,1614 1623,1583 1508,1588 1477,1557 1466,1447 1414,1442 1315,1463 1252,1484 1148,1494 1117,1452 898,1447 856,1526 720,1520 678,1625 605,1698 511,1776 355,1782 318,1755 250,1698 204,1661 130,1677 63,1630 52,1599 26,1567 0,1510 37,1494 256,1421 538,1176 658,977 825,747 934,439 1112,209 1336,188 1466,120 1659,0 1712,57 1733,131 1686,246 1686,324 1806,366 2134,381 "/>
   </g>
  </g>
 </g>
</svg>
