<?xml version="1.0" encoding="UTF-8"?>
<!DOCTYPE svg PUBLIC "-//W3C//DTD SVG 1.1//EN" "http://www.w3.org/Graphics/SVG/1.1/DTD/svg11.dtd">
<!-- Creator: CorelDRAW X8 -->
<svg xmlns="http://www.w3.org/2000/svg" xml:space="preserve" width="100%" height="100%" version="1.1" shape-rendering="geometricPrecision" text-rendering="geometricPrecision" image-rendering="optimizeQuality" fill-rule="evenodd" clip-rule="evenodd"
viewBox="0 0 8092 12018"
 xmlns:xlink="http://www.w3.org/1999/xlink">
 <g id="Layer_x0020_1">
  <metadata id="CorelCorpID_0Corel-Layer"/>
  <g id="Layers">
   <g id="India_Districts_selection">
    <path fill="#6EA97F" d="M3905 2643l211 141 387 -70 493 -71 317 247 387 71 316 211 211 106 0 176 141 247 211 141 528 35 176 -423 246 -35 141 176 246 -35 106 211 70 282 -211 423 70 846 -176 35 -1724 1375 -457 246 -317 353 0 669 247 -105 352 -529 351 -70 -105 810 -106 705 -457 1093 -457 458 -1900 1022 -1267 634 -176 -35 -70 -423 246 -564 528 -669 -35 -388 -528 -670 0 -247 -282 -281 -281 -987 -35 -1058 -422 -881 0 -387 351 -388 -35 -529 -809 -458 -70 -493 -282 70 -35 -705 106 -423 140 -211 247 -176 70 -247 422 0 211 -282 317 -106 352 -105 246 -141 141 -318 -71 -423 36 -70 281 -141 739 -212 246 -70 35 141 141 282 -70 705 -247 211 -281 282 -211 176 246 71 563 70 -35 247 281 458zm1513 6626l35 -141 0 -106 -70 -105 -70 -141 -176 -71 -106 -105 -105 0 -247 35 -70 70 -35 141 0 212 70 211 141 141 35 0 70 -35 141 -35 176 70 141 0 70 -141z"/>
   </g>
  </g>
 </g>
</svg>
