<?xml version="1.0" encoding="UTF-8"?>
<!DOCTYPE svg PUBLIC "-//W3C//DTD SVG 1.1//EN" "http://www.w3.org/Graphics/SVG/1.1/DTD/svg11.dtd">
<!-- Creator: CorelDRAW X8 -->
<svg xmlns="http://www.w3.org/2000/svg" xml:space="preserve" width="100%" height="100%" version="1.1" shape-rendering="geometricPrecision" text-rendering="geometricPrecision" image-rendering="optimizeQuality" fill-rule="evenodd" clip-rule="evenodd"
viewBox="0 0 1386 2233"
 xmlns:xlink="http://www.w3.org/1999/xlink">
 <g id="Layer_x0020_1">
  <metadata id="CorelCorpID_0Corel-Layer"/>
  <g id="Layers">
   <g id="India_Districts_selection">
    <polygon fill="#6EA97F" points="981,2233 896,2181 791,2135 569,2122 301,2115 177,2043 33,2011 0,1971 26,1906 39,1716 65,1546 124,1362 150,1126 235,897 346,694 484,603 608,537 713,439 778,308 811,203 883,92 948,52 1039,13 1144,13 1190,0 1209,196 1255,262 1268,354 1360,426 1308,838 1268,995 1281,1310 1386,1362 1360,1408 1268,1493 1229,1644 1203,2030 1000,2187 "/>
   </g>
  </g>
 </g>
</svg>
