<?xml version="1.0" encoding="UTF-8"?>
<!DOCTYPE svg PUBLIC "-//W3C//DTD SVG 1.1//EN" "http://www.w3.org/Graphics/SVG/1.1/DTD/svg11.dtd">
<!-- Creator: CorelDRAW X8 -->
<svg xmlns="http://www.w3.org/2000/svg" xml:space="preserve" width="100%" height="100%" version="1.1" shape-rendering="geometricPrecision" text-rendering="geometricPrecision" image-rendering="optimizeQuality" fill-rule="evenodd" clip-rule="evenodd"
viewBox="0 0 3034 1143"
 xmlns:xlink="http://www.w3.org/1999/xlink">
 <g id="Layer_x0020_1">
  <metadata id="CorelCorpID_0Corel-Layer"/>
  <g id="Layers">
   <g id="India_Districts_selection">
    <polygon fill="#6EA97F" points="3034,924 2983,966 2880,1026 2745,984 2512,914 2260,844 2023,770 1967,784 1813,938 1729,1092 1692,1124 1566,1143 1538,1120 1435,1068 1384,1003 1356,914 1352,779 1319,714 1077,700 923,756 783,765 713,821 732,919 629,1003 531,1050 471,1054 471,1026 308,998 196,942 135,863 0,812 0,756 33,663 117,574 214,574 336,602 391,523 447,518 555,513 704,448 788,387 858,280 834,117 862,28 872,23 1212,0 1328,93 1384,33 1515,51 1757,107 1999,238 2139,233 2135,187 2190,145 2386,261 2605,266 2619,224 2745,247 2703,303 2810,457 2890,635 2987,788 3034,896 "/>
   </g>
  </g>
 </g>
</svg>
