<?xml version="1.0" encoding="UTF-8"?>
<!DOCTYPE svg PUBLIC "-//W3C//DTD SVG 1.1//EN" "http://www.w3.org/Graphics/SVG/1.1/DTD/svg11.dtd">
<!-- Creator: CorelDRAW X8 -->
<svg xmlns="http://www.w3.org/2000/svg" xml:space="preserve" width="100%" height="100%" version="1.1" shape-rendering="geometricPrecision" text-rendering="geometricPrecision" image-rendering="optimizeQuality" fill-rule="evenodd" clip-rule="evenodd"
viewBox="0 0 1871 2534"
 xmlns:xlink="http://www.w3.org/1999/xlink">
 <g id="Layer_x0020_1">
  <metadata id="CorelCorpID_0Corel-Layer"/>
  <g id="Layers">
   <g id="India_Districts_selection">
    <polygon fill="#6EA97F" points="0,1858 37,1828 148,1769 267,1709 386,1657 431,1590 431,1531 327,1457 327,1345 379,1278 393,1234 416,1093 475,1040 475,936 468,795 379,788 341,721 327,297 312,282 282,164 312,141 401,126 445,119 475,67 542,15 572,7 668,0 727,7 742,82 779,97 794,141 869,178 950,178 1069,178 1151,156 1158,201 1165,275 1269,342 1314,275 1388,253 1418,230 1485,290 1589,275 1648,253 1685,193 1811,208 1819,268 1834,268 1848,379 1856,476 1804,565 1871,632 1856,691 1789,706 1744,758 1663,788 1618,825 1522,847 1492,966 1537,981 1596,1130 1589,1263 1551,1397 1485,1457 1425,1531 1306,1583 1255,1613 1217,1717 1247,1806 1336,1955 1425,2014 1522,2066 1544,2148 1559,2170 1507,2178 1470,2304 1440,2430 1306,2490 898,2482 876,2534 631,2527 542,2393 290,2334 37,2140 30,1858 "/>
   </g>
  </g>
 </g>
</svg>
