<?xml version="1.0" encoding="UTF-8"?>
<!DOCTYPE svg PUBLIC "-//W3C//DTD SVG 1.1//EN" "http://www.w3.org/Graphics/SVG/1.1/DTD/svg11.dtd">
<!-- Creator: CorelDRAW X8 -->
<svg xmlns="http://www.w3.org/2000/svg" xml:space="preserve" width="100%" height="100%" version="1.1" shape-rendering="geometricPrecision" text-rendering="geometricPrecision" image-rendering="optimizeQuality" fill-rule="evenodd" clip-rule="evenodd"
viewBox="0 0 2086 2083"
 xmlns:xlink="http://www.w3.org/1999/xlink">
 <g id="Layer_x0020_1">
  <metadata id="CorelCorpID_0Corel-Layer"/>
  <g id="Layers">
   <g id="India_Districts_selection">
    <polygon fill="#6EA97F" points="2019,73 2001,86 2031,122 2031,214 2001,257 2031,305 2080,311 2086,385 2062,409 2001,428 1989,464 1934,537 1934,568 1818,574 1787,629 1781,702 1818,702 1818,739 1769,788 1690,800 1690,812 1653,806 1574,806 1550,825 1513,843 1495,873 1476,910 1470,959 1458,989 1446,996 1446,1026 1428,1032 1360,1124 1330,1191 1318,1246 1299,1270 1244,1307 1202,1338 1135,1393 1074,1447 1013,1490 1013,1533 988,1564 964,1594 927,1612 872,1612 872,1631 836,1631 830,1680 824,1667 787,1716 769,1765 708,1844 695,1869 665,1893 647,1881 647,1918 604,1924 610,1961 549,2016 531,2052 494,2070 482,2083 342,2034 281,1973 238,1881 317,1796 360,1686 287,1649 189,1667 122,1521 134,1496 153,1423 183,1399 238,1356 293,1307 317,1264 336,1209 281,1173 275,1099 232,1044 146,1008 128,916 92,843 18,794 0,739 49,702 49,678 85,635 201,641 244,568 311,544 397,495 512,495 531,470 531,452 622,464 647,495 677,531 708,489 738,495 775,440 805,403 885,403 927,458 988,458 994,440 1043,440 1055,409 1165,403 1171,464 1208,458 1220,483 1281,476 1324,428 1360,397 1354,263 1415,165 1464,110 1489,67 1513,24 1684,18 1690,0 1806,0 1830,24 1885,24 1946,49 "/>
   </g>
  </g>
 </g>
</svg>
