<?xml version="1.0" encoding="UTF-8"?>
<!DOCTYPE svg PUBLIC "-//W3C//DTD SVG 1.1//EN" "http://www.w3.org/Graphics/SVG/1.1/DTD/svg11.dtd">
<!-- Creator: CorelDRAW X8 -->
<svg xmlns="http://www.w3.org/2000/svg" xml:space="preserve" width="100%" height="100%" version="1.1" shape-rendering="geometricPrecision" text-rendering="geometricPrecision" image-rendering="optimizeQuality" fill-rule="evenodd" clip-rule="evenodd"
viewBox="0 0 1613 1481"
 xmlns:xlink="http://www.w3.org/1999/xlink">
 <g id="Layer_x0020_1">
  <metadata id="CorelCorpID_0Corel-Layer"/>
  <g id="Layers">
   <g id="India_Districts_selection">
    <polygon fill="#6EA97F" points="0,912 74,829 126,747 182,656 195,560 299,430 386,373 455,382 477,326 499,252 538,204 529,174 707,165 733,104 768,61 846,0 846,22 958,35 989,56 1123,56 1123,208 1171,252 1171,517 1227,573 1275,582 1301,608 1353,582 1405,543 1505,530 1613,656 1518,721 1310,834 1188,873 1102,942 1106,1007 1149,1051 1305,1094 1375,1185 1175,1329 993,1363 742,1472 742,1481 624,1389 429,1220 304,1120 "/>
   </g>
  </g>
 </g>
</svg>
