<?xml version="1.0" encoding="UTF-8"?>
<!DOCTYPE svg PUBLIC "-//W3C//DTD SVG 1.1//EN" "http://www.w3.org/Graphics/SVG/1.1/DTD/svg11.dtd">
<!-- Creator: CorelDRAW X8 -->
<svg xmlns="http://www.w3.org/2000/svg" xml:space="preserve" width="100%" height="100%" version="1.1" shape-rendering="geometricPrecision" text-rendering="geometricPrecision" image-rendering="optimizeQuality" fill-rule="evenodd" clip-rule="evenodd"
viewBox="0 0 2416 1631"
 xmlns:xlink="http://www.w3.org/1999/xlink">
 <g id="Layer_x0020_1">
  <metadata id="CorelCorpID_0Corel-Layer"/>
  <g id="Layers">
   <g id="India_Districts_selection">
    <polygon fill="#6EA97F" points="1743,1602 1700,1631 1590,1545 1538,1478 1509,1387 1461,1311 1375,1282 1050,1234 950,1320 802,1325 716,1234 482,1095 263,1091 196,1052 167,866 124,861 72,789 5,780 5,770 0,612 57,464 148,316 181,172 201,91 291,91 520,0 893,91 1098,19 1518,81 2187,402 2397,569 2416,564 2397,689 2321,751 2120,890 2134,1048 1958,1081 1919,1138 1939,1258 1891,1401 1872,1473 "/>
   </g>
  </g>
 </g>
</svg>
