<?xml version="1.0" encoding="UTF-8"?>
<!DOCTYPE svg PUBLIC "-//W3C//DTD SVG 1.1//EN" "http://www.w3.org/Graphics/SVG/1.1/DTD/svg11.dtd">
<!-- Creator: CorelDRAW X8 -->
<svg xmlns="http://www.w3.org/2000/svg" xml:space="preserve" width="100%" height="100%" version="1.1" shape-rendering="geometricPrecision" text-rendering="geometricPrecision" image-rendering="optimizeQuality" fill-rule="evenodd" clip-rule="evenodd"
viewBox="0 0 2076 1782"
 xmlns:xlink="http://www.w3.org/1999/xlink">
 <g id="Layer_x0020_1">
  <metadata id="CorelCorpID_0Corel-Layer"/>
  <g id="Layers">
   <g id="India_Districts_selection">
    <polygon fill="#6EA97F" points="1805,1771 1721,1782 1596,1782 1565,1755 1424,1750 1408,1714 1137,1714 1033,1661 928,1630 845,1583 694,1594 652,1630 480,1641 469,1604 355,1599 334,1635 229,1641 52,1630 0,1583 5,1479 16,1437 31,1463 83,1458 89,1358 110,1238 193,1176 214,1061 245,1029 370,1014 501,987 595,867 600,721 600,617 678,533 741,502 803,543 855,564 1033,559 1111,428 1158,240 1288,110 1429,16 1486,0 1606,125 1638,235 1648,371 1784,371 1841,319 2003,256 2034,272 2055,381 2076,601 2008,820 2071,987 1966,1108 1930,1259 1888,1520 1810,1729 "/>
   </g>
  </g>
 </g>
</svg>
