<?xml version="1.0" encoding="UTF-8"?>
<!DOCTYPE svg PUBLIC "-//W3C//DTD SVG 1.1//EN" "http://www.w3.org/Graphics/SVG/1.1/DTD/svg11.dtd">
<!-- Creator: CorelDRAW X8 -->
<svg xmlns="http://www.w3.org/2000/svg" xml:space="preserve" width="100%" height="100%" version="1.1" shape-rendering="geometricPrecision" text-rendering="geometricPrecision" image-rendering="optimizeQuality" fill-rule="evenodd" clip-rule="evenodd"
viewBox="0 0 1951 1481"
 xmlns:xlink="http://www.w3.org/1999/xlink">
 <g id="Layer_x0020_1">
  <metadata id="CorelCorpID_0Corel-Layer"/>
  <g id="Layers">
   <g id="India_Districts_selection">
    <polygon fill="#6EA97F" points="945,1481 919,1463 915,1376 906,1311 850,1263 802,1263 698,1155 664,1090 646,1012 681,929 707,886 703,821 685,760 655,738 533,734 516,712 473,712 438,695 382,682 325,677 286,703 269,738 234,773 221,821 173,847 147,855 143,816 134,738 121,729 82,673 74,612 48,573 35,525 4,521 0,495 13,504 35,447 65,399 139,386 186,347 226,300 260,265 295,247 299,217 356,217 373,191 386,161 546,139 555,82 555,87 590,91 629,52 720,56 759,26 872,22 976,0 993,39 1002,91 1023,91 1019,182 1045,239 1049,287 1115,295 1149,330 1201,326 1232,352 1314,360 1327,391 1366,425 1427,452 1466,460 1483,473 1505,521 1548,534 1561,473 1761,469 1795,499 1817,499 1834,521 1878,530 1904,551 1908,604 1921,643 1951,643 1947,651 1938,729 1865,729 1865,751 1743,768 1730,795 1574,790 1557,808 1535,834 1513,851 1392,851 1392,877 1357,881 1357,955 1310,981 1318,1025 1340,1038 1388,1064 1440,1072 1448,1085 1470,1059 1518,1029 1652,1038 1687,1016 1704,1059 1730,1068 1730,1285 1752,1359 1717,1355 1700,1385 1592,1394 1583,1420 1344,1420 1318,1389 1227,1385 1227,1411 1162,1424 1158,1450 1058,1446 1032,1468 "/>
   </g>
  </g>
 </g>
</svg>
