<?xml version="1.0" encoding="UTF-8"?>
<!DOCTYPE svg PUBLIC "-//W3C//DTD SVG 1.1//EN" "http://www.w3.org/Graphics/SVG/1.1/DTD/svg11.dtd">
<!-- Creator: CorelDRAW X8 -->
<svg xmlns="http://www.w3.org/2000/svg" xml:space="preserve" width="100%" height="100%" version="1.1" shape-rendering="geometricPrecision" text-rendering="geometricPrecision" image-rendering="optimizeQuality" fill-rule="evenodd" clip-rule="evenodd"
viewBox="0 0 2340 1631"
 xmlns:xlink="http://www.w3.org/1999/xlink">
 <g id="Layer_x0020_1">
  <metadata id="CorelCorpID_0Corel-Layer"/>
  <g id="Layers">
   <g id="India_Districts_selection">
    <polygon fill="#6EA97F" points="2335,827 2340,866 2335,899 2330,957 2311,947 2297,957 2259,952 2244,938 2235,914 2206,890 2168,885 2144,875 2115,894 2072,928 2039,947 1996,966 1986,995 2005,1028 2010,1048 2001,1076 1967,1105 1948,1129 1929,1162 1924,1196 1896,1196 1881,1177 1824,1177 1814,1162 1776,1162 1743,1162 1695,1158 1638,1148 1580,1148 1504,1153 1404,1162 1385,1172 1347,1196 1337,1220 1370,1248 1399,1253 1418,1268 1456,1268 1475,1291 1485,1311 1485,1335 1490,1368 1471,1387 1452,1401 1428,1425 1385,1445 1332,1445 1289,1459 1270,1492 1256,1511 1232,1535 1218,1564 1022,1550 1022,1540 955,1535 898,1535 874,1511 855,1483 845,1459 831,1430 812,1411 788,1421 750,1430 721,1445 673,1454 654,1468 649,1526 630,1550 606,1574 563,1588 530,1593 506,1617 454,1617 449,1631 415,1631 387,1617 372,1593 344,1564 339,1526 334,1526 306,1511 291,1473 286,1435 272,1392 258,1378 229,1358 181,1349 181,1335 172,1301 167,1248 162,1234 167,1196 167,1162 177,1134 177,1110 167,1100 153,1081 110,1081 105,1071 81,1038 53,1024 43,1009 29,985 14,981 14,947 10,914 0,894 14,885 105,880 196,794 201,641 267,521 272,349 253,325 244,234 320,210 516,354 750,354 783,244 979,153 974,24 974,19 1017,19 1050,33 1060,43 1074,24 1189,29 1194,0 1246,5 1270,0 1270,24 1394,19 1428,24 1437,38 1518,38 1542,57 1580,77 1585,96 1619,105 1652,110 1671,115 1676,86 1733,86 1848,77 1896,91 1919,124 1934,143 1967,158 1972,206 1982,249 2025,306 2110,335 2153,359 2168,368 2182,392 2187,392 2187,407 2168,421 2168,459 2168,488 2144,507 2144,536 2144,569 2173,612 2196,622 2220,670 2225,694 2239,708 2249,746 2244,775 2249,794 2263,818 2292,827 2321,832 "/>
   </g>
  </g>
 </g>
</svg>
