<?xml version="1.0" encoding="UTF-8"?>
<!DOCTYPE svg PUBLIC "-//W3C//DTD SVG 1.1//EN" "http://www.w3.org/Graphics/SVG/1.1/DTD/svg11.dtd">
<!-- Creator: CorelDRAW X8 -->
<svg xmlns="http://www.w3.org/2000/svg" xml:space="preserve" width="100%" height="100%" version="1.1" shape-rendering="geometricPrecision" text-rendering="geometricPrecision" image-rendering="optimizeQuality" fill-rule="evenodd" clip-rule="evenodd"
viewBox="0 0 2284 1631"
 xmlns:xlink="http://www.w3.org/1999/xlink">
 <g id="Layer_x0020_1">
  <metadata id="CorelCorpID_0Corel-Layer"/>
  <g id="Layers">
   <g id="India_Districts_selection">
    <polygon fill="#6EA97F" points="1405,1593 1295,1602 1280,1621 1185,1631 965,1607 979,1531 870,1545 831,1454 798,1445 793,1373 621,1358 597,1325 239,1320 220,1282 110,1282 100,1224 96,1105 105,990 62,942 10,904 0,813 48,761 57,722 96,698 110,636 139,598 148,555 148,550 234,536 339,517 377,493 411,459 444,426 425,364 401,330 478,287 511,254 554,220 592,191 635,153 736,158 874,148 865,100 941,115 956,72 989,53 1008,0 1013,5 1137,19 1204,67 1300,77 1352,110 1653,124 1959,115 1978,163 2002,258 2284,292 2045,545 1653,837 1443,995 1314,1091 1328,1277 1462,1263 1629,1138 1701,1234 1543,1440 "/>
   </g>
  </g>
 </g>
</svg>
