<?xml version="1.0" encoding="UTF-8"?>
<!DOCTYPE svg PUBLIC "-//W3C//DTD SVG 1.1//EN" "http://www.w3.org/Graphics/SVG/1.1/DTD/svg11.dtd">
<!-- Creator: CorelDRAW X8 -->
<svg xmlns="http://www.w3.org/2000/svg" xml:space="preserve" width="100%" height="100%" version="1.1" shape-rendering="geometricPrecision" text-rendering="geometricPrecision" image-rendering="optimizeQuality" fill-rule="evenodd" clip-rule="evenodd"
viewBox="0 0 1788 1932"
 xmlns:xlink="http://www.w3.org/1999/xlink">
 <g id="Layer_x0020_1">
  <metadata id="CorelCorpID_0Corel-Layer"/>
  <g id="Layers">
   <g id="India_Districts_selection">
    <polygon fill="#6EA97F" points="1404,312 1404,346 1398,470 1494,680 1534,1020 1653,1196 1726,1468 1788,1915 1562,1887 1534,1932 1313,1734 1222,1575 1081,1507 951,1394 809,1400 787,1445 560,1434 521,1354 413,1332 385,1252 283,1252 238,1360 187,1456 0,1422 23,1213 113,1133 102,890 187,844 289,799 419,782 424,125 470,68 470,11 651,0 696,57 764,51 843,142 973,204 1092,300 1149,368 1313,312 "/>
   </g>
  </g>
 </g>
</svg>
