<?xml version="1.0" encoding="UTF-8"?>
<!DOCTYPE svg PUBLIC "-//W3C//DTD SVG 1.1//EN" "http://www.w3.org/Graphics/SVG/1.1/DTD/svg11.dtd">
<!-- Creator: CorelDRAW X8 -->
<svg xmlns="http://www.w3.org/2000/svg" xml:space="preserve" width="100%" height="100%" version="1.1" shape-rendering="geometricPrecision" text-rendering="geometricPrecision" image-rendering="optimizeQuality" fill-rule="evenodd" clip-rule="evenodd"
viewBox="0 0 2754 1782"
 xmlns:xlink="http://www.w3.org/1999/xlink">
 <g id="Layer_x0020_1">
  <metadata id="CorelCorpID_0Corel-Layer"/>
  <g id="Layers">
   <g id="India_Districts_selection">
    <polygon fill="#6EA97F" points="2013,1322 1971,1327 1914,1322 1893,1353 1862,1379 1846,1400 1825,1411 1799,1416 1768,1400 1752,1395 1726,1379 1690,1369 1659,1358 1643,1343 1638,1327 1612,1322 1591,1301 1591,1270 1575,1233 1497,1228 1455,1254 1445,1280 1419,1280 1377,1301 1335,1317 1299,1343 1293,1364 1278,1379 1273,1411 1158,1411 1111,1400 1095,1385 1064,1369 1033,1327 1007,1317 939,1327 819,1338 798,1358 777,1385 751,1400 715,1416 688,1442 642,1463 631,1473 605,1499 584,1552 610,1573 610,1604 574,1651 511,1651 475,1667 459,1714 422,1740 396,1750 370,1729 276,1729 261,1755 214,1782 177,1771 141,1761 125,1735 120,1703 125,1672 115,1630 99,1609 94,1578 63,1520 31,1510 0,1458 0,1416 0,1385 26,1358 26,1322 26,1280 52,1259 52,1238 94,1233 120,1217 146,1202 162,1170 188,1144 229,1134 276,1113 308,1097 318,1082 349,1071 370,1061 386,1040 402,1024 381,987 381,967 376,940 344,920 334,622 334,606 292,569 271,543 245,502 250,449 229,434 235,392 250,350 292,345 329,324 360,308 417,293 469,272 527,272 553,251 563,204 631,172 647,146 683,120 720,89 735,63 777,0 902,57 1147,125 1528,157 1685,172 1690,146 1779,131 1789,172 2091,162 2222,214 2337,319 2347,444 2300,517 2420,648 2728,637 2738,637 2754,669 2733,711 2712,726 2691,768 2665,820 2618,862 2550,878 2519,862 2477,831 2472,805 2436,794 2368,784 2232,789 2201,805 2164,846 2164,893 2144,930 2144,982 2133,1029 2118,1076 2102,1113 2081,1134 2065,1139 2055,1233 2045,1249 2018,1290 "/>
   </g>
  </g>
 </g>
</svg>
