<?xml version="1.0" encoding="UTF-8"?>
<!DOCTYPE svg PUBLIC "-//W3C//DTD SVG 1.1//EN" "http://www.w3.org/Graphics/SVG/1.1/DTD/svg11.dtd">
<!-- Creator: CorelDRAW X8 -->
<svg xmlns="http://www.w3.org/2000/svg" xml:space="preserve" width="100%" height="100%" version="1.1" shape-rendering="geometricPrecision" text-rendering="geometricPrecision" image-rendering="optimizeQuality" fill-rule="evenodd" clip-rule="evenodd"
viewBox="0 0 1859 2835"
 xmlns:xlink="http://www.w3.org/1999/xlink">
 <g id="Layer_x0020_1">
  <metadata id="CorelCorpID_0Corel-Layer"/>
  <g id="Layers">
   <g id="India_Districts_selection">
    <polygon fill="#6EA97F" points="1685,175 1685,225 1652,341 1660,499 1693,599 1685,657 1560,732 1544,765 1594,831 1668,898 1718,1014 1751,1147 1768,1239 1760,1297 1743,1405 1710,1397 1702,1663 1834,1696 1843,1838 1859,1838 1718,1987 1660,2095 1594,2137 1477,2203 1345,2303 1262,2478 1054,2569 847,2702 689,2761 523,2835 498,2827 465,2777 382,2727 282,2694 174,2669 149,2619 158,2536 183,2503 232,2370 199,2245 241,2129 307,2120 390,1962 423,1788 440,1729 448,1572 382,1513 291,1455 282,1347 232,1222 108,1181 91,1114 0,1039 25,998 75,831 100,682 108,682 232,657 357,599 581,599 656,532 689,449 755,358 813,249 847,133 1013,8 1195,0 1253,91 1370,125 1602,133 "/>
   </g>
  </g>
 </g>
</svg>
