<?xml version="1.0" encoding="UTF-8"?>
<!DOCTYPE svg PUBLIC "-//W3C//DTD SVG 1.1//EN" "http://www.w3.org/Graphics/SVG/1.1/DTD/svg11.dtd">
<!-- Creator: CorelDRAW X8 -->
<svg xmlns="http://www.w3.org/2000/svg" xml:space="preserve" width="100%" height="100%" version="1.1" shape-rendering="geometricPrecision" text-rendering="geometricPrecision" image-rendering="optimizeQuality" fill-rule="evenodd" clip-rule="evenodd"
viewBox="0 0 2573 1782"
 xmlns:xlink="http://www.w3.org/1999/xlink">
 <g id="Layer_x0020_1">
  <metadata id="CorelCorpID_0Corel-Layer"/>
  <g id="Layers">
   <g id="India_Districts_selection">
    <polygon fill="#6EA97F" points="303,731 339,752 391,763 407,784 433,784 454,810 585,799 605,778 647,763 741,768 746,789 830,752 882,690 971,653 992,606 1033,606 1054,632 1096,590 1091,455 1049,371 1065,308 1106,261 1086,204 1185,136 1227,120 1320,120 1373,167 1440,193 1477,157 1529,183 1571,219 1597,219 1602,104 1675,99 1733,125 1775,136 1790,172 1775,214 1832,251 1936,251 1936,277 1994,251 2046,162 2077,115 2103,52 2124,5 2260,0 2255,57 2281,193 2338,293 2380,355 2380,413 2458,486 2573,569 2573,763 2537,810 2443,825 2317,758 2239,763 2166,825 2109,888 2046,1034 2035,1102 2067,1123 2062,1191 2015,1233 1842,1233 1832,1207 1790,1207 1775,1379 1748,1452 1806,1531 1868,1604 1868,1656 1827,1724 1775,1755 1654,1761 1623,1682 1461,1698 1388,1782 1336,1740 1305,1698 1310,1625 1268,1620 1268,1583 1174,1583 1138,1526 1033,1489 919,1468 762,1468 694,1416 632,1411 574,1364 491,1353 480,1322 423,1249 381,1254 334,1233 324,1181 240,1134 183,1066 89,1071 99,1029 16,1040 10,1034 0,789 89,789 125,726 282,726 "/>
   </g>
  </g>
 </g>
</svg>
