<?xml version="1.0" encoding="UTF-8"?>
<!DOCTYPE svg PUBLIC "-//W3C//DTD SVG 1.1//EN" "http://www.w3.org/Graphics/SVG/1.1/DTD/svg11.dtd">
<!-- Creator: CorelDRAW X8 -->
<svg xmlns="http://www.w3.org/2000/svg" xml:space="preserve" width="100%" height="100%" version="1.1" shape-rendering="geometricPrecision" text-rendering="geometricPrecision" image-rendering="optimizeQuality" fill-rule="evenodd" clip-rule="evenodd"
viewBox="0 0 4774 2384"
 xmlns:xlink="http://www.w3.org/1999/xlink">
 <g id="Layer_x0020_1">
  <metadata id="CorelCorpID_0Corel-Layer"/>
  <g id="Layers">
   <g id="India_Districts_selection">
    <polygon fill="#6EA97F" points="1237,2384 901,2098 491,2061 535,1804 256,1562 0,1372 22,1262 242,946 395,917 600,631 871,601 974,594 1120,932 1355,924 1508,917 1874,741 2079,587 2336,572 2336,638 2467,587 2738,286 2738,139 3009,81 3163,81 3236,15 3317,0 3310,15 3405,95 3610,191 3866,315 4078,403 4217,550 4276,587 4759,572 4774,814 4627,1232 4357,1482 3983,1364 3434,1284 2658,1342 2167,1504 2197,1951 1955,2208 1230,2354 "/>
   </g>
  </g>
 </g>
</svg>
