<?xml version="1.0" encoding="UTF-8"?>
<!DOCTYPE svg PUBLIC "-//W3C//DTD SVG 1.1//EN" "http://www.w3.org/Graphics/SVG/1.1/DTD/svg11.dtd">
<!-- Creator: CorelDRAW X8 -->
<svg xmlns="http://www.w3.org/2000/svg" xml:space="preserve" width="100%" height="100%" version="1.1" shape-rendering="geometricPrecision" text-rendering="geometricPrecision" image-rendering="optimizeQuality" fill-rule="evenodd" clip-rule="evenodd"
viewBox="0 0 2680 2233"
 xmlns:xlink="http://www.w3.org/1999/xlink">
 <g id="Layer_x0020_1">
  <metadata id="CorelCorpID_0Corel-Layer"/>
  <g id="Layers">
   <g id="India_Districts_selection">
    <polygon fill="#6EA97F" points="2269,2089 2255,2089 2229,2069 2203,2030 2177,2011 2138,2004 2118,1991 2046,1991 2027,2011 2007,2024 1987,2030 1981,2043 1942,2076 1902,2083 1889,2089 1850,2122 1844,2128 1831,2148 1811,2161 1772,2161 1732,2155 1700,2168 1687,2181 1667,2200 1647,2207 1628,2214 1608,2227 1576,2233 1543,2227 1504,2214 1491,2174 1491,2155 1523,2148 1504,2128 1478,2115 1471,2096 1445,2115 1425,2135 1412,2148 1399,2161 1379,2155 1386,2043 1360,2030 1340,2030 1334,2043 1321,2063 1294,2076 1255,2069 1229,2037 1209,2011 1196,1978 1190,1912 1177,1899 1183,1880 1157,1847 1144,1847 1118,1834 1092,1821 1072,1788 1098,1768 1118,1755 1118,1729 1105,1716 1098,1709 1092,1690 1066,1663 1046,1644 1033,1618 1026,1559 1007,1532 961,1532 909,1519 883,1487 863,1447 824,1401 778,1362 771,1329 758,1297 739,1271 732,1244 713,1212 732,1185 752,1159 778,1153 817,1133 830,1126 863,1113 870,1087 863,1074 850,1054 843,1015 824,1009 778,1009 713,1009 680,1009 647,995 634,982 608,963 588,956 575,930 549,917 536,923 516,904 516,871 497,845 477,845 445,838 412,838 379,812 360,792 294,792 196,792 177,779 157,779 163,773 144,747 144,714 131,688 105,661 78,629 59,596 46,570 33,550 13,530 0,491 7,491 13,472 65,472 85,452 118,445 163,432 190,406 209,380 216,327 229,308 281,301 314,282 347,275 373,269 392,288 412,314 418,341 438,367 464,393 523,393 588,399 588,406 785,419 798,393 824,367 837,354 856,314 902,301 955,301 994,282 1020,262 1039,242 1059,223 1053,190 1053,164 1046,144 1026,124 987,124 968,111 935,105 909,72 915,46 955,26 974,13 1072,7 1151,0 1209,0 1268,13 1321,13 1353,13 1386,13 1399,33 1458,26 1471,46 1497,52 1484,85 1484,118 1510,144 1510,190 1464,223 1419,255 1419,295 1445,321 1497,341 1517,321 1530,334 1595,347 1602,373 1628,399 1674,452 1700,472 1759,517 1785,537 1837,544 1902,544 1948,563 2014,563 2040,583 2105,589 2151,616 2216,648 2249,642 2301,661 2308,707 2354,727 2419,760 2425,786 2425,819 2478,845 2517,806 2530,832 2589,871 2615,884 2635,891 2628,904 2674,937 2680,963 2654,976 2654,1041 2635,1041 2609,1054 2602,1074 2563,1081 2504,1094 2458,1100 2445,1133 2399,1153 2367,1192 2347,1205 2367,1238 2412,1244 2491,1257 2517,1257 2524,1257 2524,1290 2484,1290 2471,1290 2425,1310 2360,1310 2340,1323 2340,1362 2295,1388 2288,1356 2288,1310 2262,1297 2223,1271 2210,1251 2171,1257 2164,1290 2151,1329 2092,1356 2079,1329 2079,1303 2020,1284 1968,1264 1955,1244 1981,1218 1987,1205 1935,1205 1870,1212 1850,1212 1791,1212 1798,1264 1798,1297 1798,1329 1778,1375 1759,1382 1706,1369 1687,1388 1641,1408 1654,1447 1661,1487 1700,1506 1732,1519 1752,1532 1765,1591 1772,1611 1791,1644 1817,1670 1850,1716 1876,1735 1902,1768 1955,1814 2007,1814 2040,1821 2066,1794 2086,1775 2112,1755 2197,1755 2242,1742 2262,1716 2282,1690 2334,1683 2380,1690 2432,1709 2452,1729 2491,1735 2524,1749 2550,1755 2589,1794 2609,1814 2609,1853 2609,1866 2602,1873 2576,1866 2550,1899 2510,1939 2497,1952 2471,1971 2452,1991 2452,2017 2399,2024 2327,2030 2301,2030 2275,2069 2262,2076 "/>
   </g>
  </g>
 </g>
</svg>
