<?xml version="1.0" encoding="UTF-8"?>
<!DOCTYPE svg PUBLIC "-//W3C//DTD SVG 1.1//EN" "http://www.w3.org/Graphics/SVG/1.1/DTD/svg11.dtd">
<!-- Creator: CorelDRAW X8 -->
<svg xmlns="http://www.w3.org/2000/svg" xml:space="preserve" width="100%" height="100%" version="1.1" shape-rendering="geometricPrecision" text-rendering="geometricPrecision" image-rendering="optimizeQuality" fill-rule="evenodd" clip-rule="evenodd"
viewBox="0 0 4443 1645"
 xmlns:xlink="http://www.w3.org/1999/xlink">
 <g id="Layer_x0020_1">
  <metadata id="CorelCorpID_0Corel-Layer"/>
  <g id="Layers">
   <g id="India_Districts_selection">
    <polygon fill="#6EA97F" points="1370,61 1479,164 1670,348 1765,471 1840,601 2058,690 2228,792 2426,778 2603,765 2665,669 2726,696 2917,778 2971,833 3074,792 3223,792 3298,778 3387,703 3462,655 3510,580 3605,703 3714,744 3762,840 3844,853 3953,894 4007,963 4143,990 4239,1058 4355,1133 4443,1188 4389,1256 4314,1311 4287,1386 4116,1454 4089,1509 4021,1556 3980,1550 3898,1563 3769,1577 3632,1563 3605,1516 3523,1475 3394,1393 3305,1338 3183,1297 3067,1290 3067,1249 2937,1249 2876,1161 2726,1174 2447,1242 2113,1256 2024,1304 1826,1338 1690,1359 1676,1372 1676,1352 1465,1543 1213,1543 1179,1516 1022,1509 961,1543 811,1516 722,1536 586,1645 572,1604 75,1570 0,1516 109,1386 143,1181 102,949 177,785 184,642 279,573 395,444 416,280 450,198 470,96 681,82 770,41 906,34 1015,0 1206,34 "/>
   </g>
  </g>
 </g>
</svg>
