<?xml version="1.0" encoding="UTF-8"?>
<!DOCTYPE svg PUBLIC "-//W3C//DTD SVG 1.1//EN" "http://www.w3.org/Graphics/SVG/1.1/DTD/svg11.dtd">
<!-- Creator: CorelDRAW X8 -->
<svg xmlns="http://www.w3.org/2000/svg" xml:space="preserve" width="100%" height="100%" version="1.1" shape-rendering="geometricPrecision" text-rendering="geometricPrecision" image-rendering="optimizeQuality" fill-rule="evenodd" clip-rule="evenodd"
viewBox="0 0 3409 2986"
 xmlns:xlink="http://www.w3.org/1999/xlink">
 <g id="Layer_x0020_1">
  <metadata id="CorelCorpID_0Corel-Layer"/>
  <g id="Layers">
   <g id="India_Districts_selection">
    <polygon fill="#6EA97F" points="3409,464 3348,508 3182,814 3051,1173 3007,1541 2920,1821 2885,2093 2858,2390 2806,2522 2675,2557 2500,2504 2404,2373 2273,2364 2220,2434 2168,2583 2124,2767 2019,2881 1897,2986 1757,2925 1600,2793 1346,2574 1163,2592 935,2636 691,2671 682,2408 577,2390 551,2277 507,2145 428,1848 52,1760 0,1611 219,1401 245,1313 236,1112 184,954 210,937 236,779 236,692 673,692 778,464 927,201 1058,0 1198,88 1364,140 1477,219 1932,219 2281,350 2666,350 2858,315 3024,394 3243,394 "/>
   </g>
  </g>
 </g>
</svg>
