<?xml version="1.0" encoding="UTF-8"?>
<!DOCTYPE svg PUBLIC "-//W3C//DTD SVG 1.1//EN" "http://www.w3.org/Graphics/SVG/1.1/DTD/svg11.dtd">
<!-- Creator: CorelDRAW X8 -->
<svg xmlns="http://www.w3.org/2000/svg" xml:space="preserve" width="100%" height="100%" version="1.1" shape-rendering="geometricPrecision" text-rendering="geometricPrecision" image-rendering="optimizeQuality" fill-rule="evenodd" clip-rule="evenodd"
viewBox="0 0 3270 2685"
 xmlns:xlink="http://www.w3.org/1999/xlink">
 <g id="Layer_x0020_1">
  <metadata id="CorelCorpID_0Corel-Layer"/>
  <g id="Layers">
   <g id="India_Districts_selection">
    <polygon fill="#6EA97F" points="3270,1567 3215,1598 3152,1677 2955,1709 2806,1732 2704,1661 2562,1488 2397,1417 2146,1425 1957,1527 1784,1701 1682,1929 1485,2205 1226,2386 959,2441 668,2472 464,2527 259,2661 212,2685 212,2401 118,2354 47,2205 24,2023 8,1890 0,1835 16,1661 31,1567 118,1457 173,1220 252,1016 464,866 542,756 558,669 621,653 802,653 1030,472 1171,386 1281,339 1399,339 1438,157 1509,16 1548,0 1706,8 1823,118 1965,102 2185,197 2075,252 2028,378 2020,457 2185,551 2492,598 2515,811 2649,945 2822,1071 3105,1071 3160,1213 3230,1338 "/>
   </g>
  </g>
 </g>
</svg>
