<?xml version="1.0" encoding="UTF-8"?>
<!DOCTYPE svg PUBLIC "-//W3C//DTD SVG 1.1//EN" "http://www.w3.org/Graphics/SVG/1.1/DTD/svg11.dtd">
<!-- Creator: CorelDRAW X8 -->
<svg xmlns="http://www.w3.org/2000/svg" xml:space="preserve" width="100%" height="100%" version="1.1" shape-rendering="geometricPrecision" text-rendering="geometricPrecision" image-rendering="optimizeQuality" fill-rule="evenodd" clip-rule="evenodd"
viewBox="0 0 1772 1932"
 xmlns:xlink="http://www.w3.org/1999/xlink">
 <g id="Layer_x0020_1">
  <metadata id="CorelCorpID_0Corel-Layer"/>
  <g id="Layers">
   <g id="India_Districts_selection">
    <polygon fill="#6EA97F" points="1030,147 1030,164 1087,227 1138,272 1194,289 1200,261 1341,227 1432,210 1477,159 1557,159 1653,249 1732,419 1772,629 1692,714 1585,844 1585,901 1647,941 1641,1043 1630,1122 1534,1207 1443,1405 1426,1570 1404,1672 1364,1762 1228,1796 1070,1887 940,1932 758,1892 487,1711 328,1519 260,1479 232,1400 413,1207 453,980 425,929 306,924 283,907 419,652 442,584 391,572 328,465 192,436 34,380 11,397 0,351 23,300 28,210 40,147 79,102 119,125 136,153 294,159 385,68 538,79 640,62 719,51 730,40 798,34 798,11 843,0 866,34 1002,130 "/>
   </g>
  </g>
 </g>
</svg>
