<?xml version="1.0" encoding="UTF-8"?>
<!DOCTYPE svg PUBLIC "-//W3C//DTD SVG 1.1//EN" "http://www.w3.org/Graphics/SVG/1.1/DTD/svg11.dtd">
<!-- Creator: CorelDRAW X8 -->
<svg xmlns="http://www.w3.org/2000/svg" xml:space="preserve" width="100%" height="100%" version="1.1" shape-rendering="geometricPrecision" text-rendering="geometricPrecision" image-rendering="optimizeQuality" fill-rule="evenodd" clip-rule="evenodd"
viewBox="0 0 2500 2083"
 xmlns:xlink="http://www.w3.org/1999/xlink">
 <g id="Layer_x0020_1">
  <metadata id="CorelCorpID_0Corel-Layer"/>
  <g id="Layers">
   <g id="India_Districts_selection">
    <polygon fill="#6EA97F" points="2353,623 2311,635 2262,629 2103,721 1975,757 1969,898 1969,959 1890,1075 1835,1130 1738,1118 1689,1173 1664,1295 1658,1435 1664,1594 1622,1631 1579,1686 1543,1704 1475,1673 1305,1661 1213,1643 1177,1576 1043,1576 915,1667 890,1759 847,1838 799,1906 774,1967 713,2022 549,2016 457,2064 360,2083 280,2058 232,2003 213,1924 317,1851 421,1753 573,1692 579,1631 512,1576 408,1539 335,1570 244,1594 183,1612 67,1612 6,1606 0,1472 0,1405 55,1411 165,1405 195,1362 250,1319 329,1252 396,1215 396,1264 494,1258 512,1228 610,1130 732,1026 732,916 732,672 762,580 866,470 896,428 1104,421 1152,385 1396,366 1445,428 1585,409 1622,360 1622,232 1689,195 1939,147 2079,116 2280,6 2372,0 2396,153 2500,269 2500,464 2353,568 "/>
   </g>
  </g>
 </g>
</svg>
