<?xml version="1.0" encoding="UTF-8"?>
<!DOCTYPE svg PUBLIC "-//W3C//DTD SVG 1.1//EN" "http://www.w3.org/Graphics/SVG/1.1/DTD/svg11.dtd">
<!-- Creator: CorelDRAW X8 -->
<svg xmlns="http://www.w3.org/2000/svg" xml:space="preserve" width="100%" height="100%" version="1.1" shape-rendering="geometricPrecision" text-rendering="geometricPrecision" image-rendering="optimizeQuality" fill-rule="evenodd" clip-rule="evenodd"
viewBox="0 0 1311 2835"
 xmlns:xlink="http://www.w3.org/1999/xlink">
 <g id="Layer_x0020_1">
  <metadata id="CorelCorpID_0Corel-Layer"/>
  <g id="Layers">
   <g id="India_Districts_selection">
    <polygon fill="#6EA97F" points="1311,200 1311,233 1311,274 1287,308 1253,341 1237,391 1212,474 1212,524 1187,557 1162,574 1170,649 1212,665 1212,723 1187,773 1154,823 1137,848 1145,989 1170,1031 1237,1031 1278,1089 1237,1123 1212,1181 1137,1305 1096,1330 1038,1355 988,1405 971,1455 921,1530 913,1580 880,1671 830,1729 797,1788 706,1788 697,1763 631,1763 614,1788 614,1854 647,1896 681,1929 805,1937 855,2021 813,2120 822,2278 855,2303 838,2353 813,2386 755,2395 706,2470 639,2511 548,2594 481,2652 457,2702 349,2711 332,2736 232,2744 141,2835 25,2827 0,2761 8,2627 83,2619 183,2611 224,2544 224,2470 307,2411 315,2187 174,2087 141,1971 208,1854 199,1547 149,1488 91,1463 33,1463 17,1197 8,1106 191,1039 224,981 349,906 390,823 374,732 440,690 506,624 548,299 589,166 681,0 813,42 971,100 1071,175 1145,258 1212,200 1303,200 "/>
   </g>
  </g>
 </g>
</svg>
