<?xml version="1.0" encoding="UTF-8"?>
<!DOCTYPE svg PUBLIC "-//W3C//DTD SVG 1.1//EN" "http://www.w3.org/Graphics/SVG/1.1/DTD/svg11.dtd">
<!-- Creator: CorelDRAW X8 -->
<svg xmlns="http://www.w3.org/2000/svg" xml:space="preserve" width="100%" height="100%" version="1.1" shape-rendering="geometricPrecision" text-rendering="geometricPrecision" image-rendering="optimizeQuality" fill-rule="evenodd" clip-rule="evenodd"
viewBox="0 0 1579 1932"
 xmlns:xlink="http://www.w3.org/1999/xlink">
 <g id="Layer_x0020_1">
  <metadata id="CorelCorpID_0Corel-Layer"/>
  <g id="Layers">
   <g id="India_Districts_selection">
    <polygon fill="#6EA97F" points="1540,606 1551,635 1528,686 1528,742 1511,765 1500,901 1579,963 1574,1043 1551,1099 1528,1190 1449,1224 1438,1286 1353,1292 1302,1230 1302,1156 1228,1150 1183,1167 1155,1201 1115,1224 1109,1269 1036,1264 1036,1298 996,1309 951,1309 866,1292 781,1298 747,1349 758,1439 702,1468 679,1513 657,1553 628,1575 589,1598 589,1836 549,1858 521,1875 481,1898 436,1932 396,1847 283,1807 142,1813 62,1666 0,1604 0,1530 23,1530 34,1479 51,1462 62,1405 147,1286 147,1201 74,1150 74,1111 147,1088 108,1043 108,1014 153,997 147,975 232,980 232,1014 334,992 374,963 447,952 492,912 492,873 475,844 464,754 379,669 379,584 396,555 402,521 441,499 436,453 345,442 272,363 249,323 243,397 74,402 79,363 91,278 96,244 57,238 0,198 6,164 28,164 51,130 57,23 96,23 108,6 277,0 328,74 441,68 458,142 572,142 594,210 634,210 685,159 741,198 758,357 787,380 1200,374 1302,459 1370,516 1455,544 "/>
   </g>
  </g>
 </g>
</svg>
