<?xml version="1.0" encoding="UTF-8"?>
<!DOCTYPE svg PUBLIC "-//W3C//DTD SVG 1.1//EN" "http://www.w3.org/Graphics/SVG/1.1/DTD/svg11.dtd">
<!-- Creator: CorelDRAW X8 -->
<svg xmlns="http://www.w3.org/2000/svg" xml:space="preserve" width="100%" height="100%" version="1.1" shape-rendering="geometricPrecision" text-rendering="geometricPrecision" image-rendering="optimizeQuality" fill-rule="evenodd" clip-rule="evenodd"
viewBox="0 0 1631 1481"
 xmlns:xlink="http://www.w3.org/1999/xlink">
 <g id="Layer_x0020_1">
  <metadata id="CorelCorpID_0Corel-Layer"/>
  <g id="Layers">
   <g id="India_Districts_selection">
    <polygon fill="#6EA97F" points="950,1407 833,1428 729,1441 690,1472 568,1481 512,1398 451,1394 408,1333 330,1268 308,1203 321,1090 291,1038 169,1064 74,1033 147,933 104,851 17,829 0,703 126,560 178,512 199,439 217,269 247,195 286,135 386,148 460,178 499,274 564,317 655,408 703,378 703,308 746,252 724,4 768,13 902,4 1201,0 1206,48 1249,87 1301,117 1349,117 1405,74 1440,43 1631,48 1626,100 1600,143 1579,187 1531,247 1531,452 1487,517 1383,534 1366,577 1206,604 1175,638 1145,777 1180,829 1240,868 1318,868 1418,981 1505,1020 1500,1025 1414,1146 1240,1333 1084,1342 967,1389 "/>
   </g>
  </g>
 </g>
</svg>
