<?xml version="1.0" encoding="UTF-8"?>
<!DOCTYPE svg PUBLIC "-//W3C//DTD SVG 1.1//EN" "http://www.w3.org/Graphics/SVG/1.1/DTD/svg11.dtd">
<!-- Creator: CorelDRAW X8 -->
<svg xmlns="http://www.w3.org/2000/svg" xml:space="preserve" width="100%" height="100%" version="1.1" shape-rendering="geometricPrecision" text-rendering="geometricPrecision" image-rendering="optimizeQuality" fill-rule="evenodd" clip-rule="evenodd"
viewBox="0 0 1851 2233"
 xmlns:xlink="http://www.w3.org/1999/xlink">
 <g id="Layer_x0020_1">
  <metadata id="CorelCorpID_0Corel-Layer"/>
  <g id="Layers">
   <g id="India_Districts_selection">
    <polygon fill="#6EA97F" points="1851,517 1779,603 1760,655 1760,1205 1786,1264 1760,1375 1727,1454 1649,1519 1511,1546 1465,1572 1341,1611 1328,1775 1263,1873 1335,1939 1308,2011 1276,2076 1112,2083 1086,2056 680,2056 648,2089 654,2181 602,2207 589,2220 543,2233 491,2200 438,2155 379,2168 255,2168 190,2089 190,2030 105,1899 79,1801 0,1618 52,1611 65,1539 98,1460 177,1454 222,1401 249,1329 307,1290 307,1212 334,1172 347,1041 366,995 432,956 478,910 478,740 373,733 353,655 373,576 360,557 360,393 406,334 425,223 465,190 595,0 680,59 909,72 1047,39 1243,118 1459,288 1564,380 "/>
   </g>
  </g>
 </g>
</svg>
