<?xml version="1.0" encoding="UTF-8"?>
<!DOCTYPE svg PUBLIC "-//W3C//DTD SVG 1.1//EN" "http://www.w3.org/Graphics/SVG/1.1/DTD/svg11.dtd">
<!-- Creator: CorelDRAW X8 -->
<svg xmlns="http://www.w3.org/2000/svg" xml:space="preserve" width="100%" height="100%" version="1.1" shape-rendering="geometricPrecision" text-rendering="geometricPrecision" image-rendering="optimizeQuality" fill-rule="evenodd" clip-rule="evenodd"
viewBox="0 0 2047 1481"
 xmlns:xlink="http://www.w3.org/1999/xlink">
 <g id="Layer_x0020_1">
  <metadata id="CorelCorpID_0Corel-Layer"/>
  <g id="Layers">
   <g id="India_Districts_selection">
    <polygon fill="#6EA97F" points="2047,230 2030,269 2017,334 1947,330 1930,360 1904,412 1852,478 1813,517 1826,573 1843,625 1696,786 1639,803 1592,829 1548,868 1370,981 1331,1016 1318,1077 1284,1081 1284,1055 1106,1046 1071,1098 963,1107 950,1072 859,1094 833,1207 833,1272 794,1303 807,1394 763,1446 698,1446 672,1472 516,1481 520,1450 243,1446 221,1385 208,1316 260,1246 265,1085 213,1046 204,899 65,903 17,864 0,747 39,686 52,656 117,664 113,530 239,521 226,434 286,408 282,360 351,282 369,191 382,200 416,165 486,156 577,195 672,226 750,221 863,156 993,61 1102,48 1123,0 1184,82 1249,82 1288,13 1375,9 1435,43 1474,104 1509,152 1557,178 1657,174 1709,130 1826,35 1882,82 1930,148 1995,152 "/>
   </g>
  </g>
 </g>
</svg>
