<?xml version="1.0" encoding="UTF-8"?>
<!DOCTYPE svg PUBLIC "-//W3C//DTD SVG 1.1//EN" "http://www.w3.org/Graphics/SVG/1.1/DTD/svg11.dtd">
<!-- Creator: CorelDRAW X8 -->
<svg xmlns="http://www.w3.org/2000/svg" xml:space="preserve" width="100%" height="100%" version="1.1" shape-rendering="geometricPrecision" text-rendering="geometricPrecision" image-rendering="optimizeQuality" fill-rule="evenodd" clip-rule="evenodd"
viewBox="0 0 2499 1631"
 xmlns:xlink="http://www.w3.org/1999/xlink">
 <g id="Layer_x0020_1">
  <metadata id="CorelCorpID_0Corel-Layer"/>
  <g id="Layers">
   <g id="India_Districts_selection">
    <polygon fill="#6EA97F" points="1252,1631 1242,1602 1247,1378 1161,1282 913,1100 836,1062 774,1038 679,1000 549,1014 416,966 315,966 325,933 177,914 91,976 43,990 33,837 5,784 0,612 33,560 100,541 196,502 263,464 382,344 440,196 674,187 698,139 722,115 722,134 865,148 913,124 1056,81 1166,43 1281,5 1419,0 1539,96 1720,81 1835,134 1887,134 1892,153 2002,239 2270,354 2403,344 2475,387 2437,464 2437,722 2499,808 2485,818 2260,966 1921,1378 1663,1406 1319,1612 "/>
   </g>
  </g>
 </g>
</svg>
