<?xml version="1.0" encoding="UTF-8"?>
<!DOCTYPE svg PUBLIC "-//W3C//DTD SVG 1.1//EN" "http://www.w3.org/Graphics/SVG/1.1/DTD/svg11.dtd">
<!-- Creator: CorelDRAW X8 -->
<svg xmlns="http://www.w3.org/2000/svg" xml:space="preserve" width="100%" height="100%" version="1.1" shape-rendering="geometricPrecision" text-rendering="geometricPrecision" image-rendering="optimizeQuality" fill-rule="evenodd" clip-rule="evenodd"
viewBox="0 0 2203 2083"
 xmlns:xlink="http://www.w3.org/1999/xlink">
 <g id="Layer_x0020_1">
  <metadata id="CorelCorpID_0Corel-Layer"/>
  <g id="Layers">
   <g id="India_Districts_selection">
    <polygon fill="#6EA97F" points="2196,373 2203,379 2111,464 2135,550 2203,617 2196,770 2093,782 1812,1008 1782,1118 1775,1228 1861,1350 1928,1460 1977,1533 1965,1747 1940,1790 1910,1930 1806,1954 1714,2083 1611,2077 1568,1961 1434,1961 1159,1704 903,1686 805,1576 427,1417 256,1313 110,1215 0,1130 24,855 85,690 207,672 287,580 415,580 519,672 824,672 915,592 970,458 885,354 879,299 940,244 909,232 1043,195 1104,147 1318,159 1324,110 1446,104 1483,189 1507,159 1592,122 1684,12 1843,0 1934,110 2044,281 2172,311 2178,379 "/>
   </g>
  </g>
 </g>
</svg>
