<?xml version="1.0" encoding="UTF-8"?>
<!DOCTYPE svg PUBLIC "-//W3C//DTD SVG 1.1//EN" "http://www.w3.org/Graphics/SVG/1.1/DTD/svg11.dtd">
<!-- Creator: CorelDRAW X8 -->
<svg xmlns="http://www.w3.org/2000/svg" xml:space="preserve" width="100%" height="100%" version="1.1" shape-rendering="geometricPrecision" text-rendering="geometricPrecision" image-rendering="optimizeQuality" fill-rule="evenodd" clip-rule="evenodd"
viewBox="0 0 1603 2233"
 xmlns:xlink="http://www.w3.org/1999/xlink">
 <g id="Layer_x0020_1">
  <metadata id="CorelCorpID_0Corel-Layer"/>
  <g id="Layers">
   <g id="India_Districts_selection">
    <polygon fill="#6EA97F" points="1603,2233 1452,2142 1341,2128 1289,2096 1178,2076 1151,2043 1119,1899 1079,1814 1014,1742 955,1749 955,1683 805,1670 811,1605 720,1441 608,1349 543,1408 530,1480 438,1467 347,1460 249,1441 209,1441 170,1395 124,1329 59,1310 39,1179 20,1100 0,904 137,675 144,596 190,544 190,550 334,557 510,648 661,694 726,668 746,341 739,183 765,157 785,13 877,0 877,26 1027,144 1367,144 1472,190 1387,308 1256,504 1302,753 1459,891 1393,1244 1374,1434 1472,1755 1603,2037 "/>
   </g>
  </g>
 </g>
</svg>
