<?xml version="1.0" encoding="UTF-8"?>
<!DOCTYPE svg PUBLIC "-//W3C//DTD SVG 1.1//EN" "http://www.w3.org/Graphics/SVG/1.1/DTD/svg11.dtd">
<!-- Creator: CorelDRAW X8 -->
<svg xmlns="http://www.w3.org/2000/svg" xml:space="preserve" width="100%" height="100%" version="1.1" shape-rendering="geometricPrecision" text-rendering="geometricPrecision" image-rendering="optimizeQuality" fill-rule="evenodd" clip-rule="evenodd"
viewBox="0 0 2298 1932"
 xmlns:xlink="http://www.w3.org/1999/xlink">
 <g id="Layer_x0020_1">
  <metadata id="CorelCorpID_0Corel-Layer"/>
  <g id="Layers">
   <g id="India_Districts_selection">
    <polygon fill="#6EA97F" points="2060,1875 2049,1875 1992,1881 1970,1836 1873,1836 1845,1858 1788,1864 1771,1904 1743,1904 1737,1932 1670,1932 1664,1909 1664,1830 1687,1785 1692,1756 1720,1745 1732,1717 1704,1689 1607,1689 1590,1706 1500,1711 1460,1728 1449,1773 1432,1779 1421,1819 1387,1830 1330,1813 1307,1802 1285,1790 1251,1785 1177,1785 1132,1745 1109,1739 1098,1711 1058,1711 1013,1700 968,1672 928,1666 917,1683 894,1706 860,1700 855,1717 770,1734 685,1739 673,1779 628,1790 577,1768 543,1745 521,1739 498,1683 453,1638 385,1592 351,1570 317,1541 255,1513 255,1411 260,1349 306,1349 306,1298 255,1275 260,1224 260,1190 300,1133 306,1099 306,986 255,975 238,929 215,856 187,833 130,839 23,805 0,731 23,708 28,674 57,646 74,618 113,589 113,561 158,555 192,516 232,493 340,487 340,436 323,300 255,272 192,249 136,227 130,170 130,102 125,96 192,91 351,6 657,0 900,68 906,62 906,68 911,153 934,193 968,261 1013,295 1070,329 1092,351 1126,380 1149,419 1172,448 1183,504 1211,538 1273,578 1324,601 1370,618 1409,629 1454,640 1511,657 1522,708 1551,754 1596,782 1647,805 1726,810 1737,861 1692,890 1641,873 1641,901 1613,935 1579,963 1607,1043 1664,1054 1709,1082 1749,1133 1788,1156 1805,1207 1811,1258 1822,1269 1834,1315 1805,1354 1817,1456 1873,1513 1947,1502 1981,1456 1998,1400 2015,1360 2060,1343 2117,1337 2145,1383 2202,1422 2241,1462 2252,1485 2281,1485 2281,1507 2298,1536 2269,1575 2224,1598 2196,1621 2196,1689 2117,1706 2094,1723 2071,1779 2060,1864 "/>
   </g>
  </g>
 </g>
</svg>
