<?xml version="1.0" encoding="UTF-8"?>
<!DOCTYPE svg PUBLIC "-//W3C//DTD SVG 1.1//EN" "http://www.w3.org/Graphics/SVG/1.1/DTD/svg11.dtd">
<!-- Creator: CorelDRAW X8 -->
<svg xmlns="http://www.w3.org/2000/svg" xml:space="preserve" width="100%" height="100%" version="1.1" shape-rendering="geometricPrecision" text-rendering="geometricPrecision" image-rendering="optimizeQuality" fill-rule="evenodd" clip-rule="evenodd"
viewBox="0 0 1465 1481"
 xmlns:xlink="http://www.w3.org/1999/xlink">
 <g id="Layer_x0020_1">
  <metadata id="CorelCorpID_0Corel-Layer"/>
  <g id="Layers">
   <g id="India_Districts_selection">
    <polygon fill="#6EA97F" points="113,1151 117,1142 126,1116 160,1120 208,1111 221,1098 238,1098 251,1085 321,1068 338,1051 381,1038 381,1025 360,1003 355,981 347,960 342,938 342,899 360,886 360,851 351,816 334,812 308,795 295,773 247,716 221,677 199,664 165,625 117,599 91,573 78,573 35,547 0,543 0,452 17,408 43,378 74,352 108,339 130,326 160,326 199,308 212,300 243,300 234,282 412,282 425,265 459,221 468,208 494,204 498,182 498,174 516,178 537,165 568,156 594,156 598,148 646,148 685,130 711,113 750,96 737,78 737,43 771,39 815,35 858,26 889,9 932,4 941,0 958,30 984,43 1019,39 1066,65 1097,61 1127,61 1127,78 1166,69 1188,56 1209,43 1227,30 1244,9 1257,0 1305,9 1335,30 1370,30 1383,65 1413,78 1413,96 1430,96 1426,109 1439,330 1400,356 1417,439 1422,469 1448,538 1456,630 1465,660 1465,764 1465,829 1465,881 1435,903 1400,916 1348,916 1318,894 1287,899 1257,907 1227,929 1214,968 1205,1007 1192,1068 1192,1129 1192,1168 1209,1207 1214,1237 1231,1255 1240,1285 1274,1303 1261,1368 1257,1407 1253,1441 1248,1437 1183,1441 1179,1424 1118,1411 1079,1481 910,1481 906,1454 737,1441 667,1381 615,1320 589,1320 516,1459 399,1446 225,1372 178,1324 126,1294 113,1146 "/>
   </g>
  </g>
 </g>
</svg>
