<?xml version="1.0" encoding="UTF-8"?>
<!DOCTYPE svg PUBLIC "-//W3C//DTD SVG 1.1//EN" "http://www.w3.org/Graphics/SVG/1.1/DTD/svg11.dtd">
<!-- Creator: CorelDRAW X8 -->
<svg xmlns="http://www.w3.org/2000/svg" xml:space="preserve" width="100%" height="100%" version="1.1" shape-rendering="geometricPrecision" text-rendering="geometricPrecision" image-rendering="optimizeQuality" fill-rule="evenodd" clip-rule="evenodd"
viewBox="0 0 1780 2083"
 xmlns:xlink="http://www.w3.org/1999/xlink">
 <g id="Layer_x0020_1">
  <metadata id="CorelCorpID_0Corel-Layer"/>
  <g id="Layers">
   <g id="India_Districts_selection">
    <polygon fill="#6EA97F" points="1677,31 1683,61 1719,61 1707,92 1664,134 1671,208 1616,232 1603,269 1573,299 1579,446 1695,458 1695,495 1677,537 1628,537 1622,672 1664,727 1658,1087 1689,1105 1756,1099 1750,1222 1768,1234 1780,1289 1701,1368 1683,1429 1707,1429 1719,1502 1683,1576 1671,1612 1616,1631 1585,1625 1579,1655 1561,1692 1543,1735 1518,1765 1482,1753 1463,1722 1414,1735 1408,1747 1293,1759 1299,1741 1232,1735 1232,1753 1207,1771 1122,1777 1097,1728 1043,1735 1018,1735 1012,1710 957,1710 921,1728 878,1765 823,1802 713,1796 689,1814 689,1881 665,1881 573,1881 524,1851 524,1899 457,1893 360,1863 329,1832 305,1851 305,1887 323,1924 402,1936 396,2046 329,2052 280,2034 207,2052 128,2083 122,1887 104,1875 110,1753 177,1692 207,1692 213,1643 171,1612 152,1570 152,1515 201,1484 177,1454 79,1447 79,1386 146,1313 152,1234 226,1130 250,1075 104,989 18,977 0,892 18,861 18,580 55,544 61,519 73,452 152,470 195,440 195,421 268,385 274,385 348,391 415,391 463,428 494,458 549,464 579,501 640,501 652,531 780,537 774,550 854,556 866,531 1079,537 1104,562 1158,562 1189,586 1232,592 1250,605 1329,605 1360,580 1378,519 1341,446 1250,366 1256,324 1219,281 1213,208 1195,165 1189,79 1146,61 1146,0 1274,0 1347,0 1378,24 1402,98 1451,177 1500,171 1543,122 1597,49 "/>
   </g>
  </g>
 </g>
</svg>
