<?xml version="1.0" encoding="UTF-8"?>
<!DOCTYPE svg PUBLIC "-//W3C//DTD SVG 1.1//EN" "http://www.w3.org/Graphics/SVG/1.1/DTD/svg11.dtd">
<!-- Creator: CorelDRAW X8 -->
<svg xmlns="http://www.w3.org/2000/svg" xml:space="preserve" width="100%" height="100%" version="1.1" shape-rendering="geometricPrecision" text-rendering="geometricPrecision" image-rendering="optimizeQuality" fill-rule="evenodd" clip-rule="evenodd"
viewBox="0 0 4539 2471"
 xmlns:xlink="http://www.w3.org/1999/xlink">
 <g id="Layer_x0020_1">
  <metadata id="CorelCorpID_0Corel-Layer"/>
  <g id="Layers">
   <g id="India_Districts_selection">
    <polygon fill="#6EA97F" points="3989,1036 4250,1029 4257,1073 4337,1080 4438,1355 4264,1739 4243,1863 4337,2044 4539,2203 4416,2305 4315,2435 4170,2471 4004,2370 3873,2225 3671,2058 3555,1986 3345,2044 3178,2116 3026,2124 2896,2051 2686,1921 2498,1899 2353,1928 2201,1725 1846,1442 1542,1247 1376,1138 1216,935 1072,804 963,841 760,942 594,920 478,855 319,565 72,391 0,333 29,268 210,217 405,130 434,29 536,0 557,116 644,130 746,188 804,275 948,319 985,370 1173,341 1202,413 1376,457 1448,573 1434,739 1824,739 1926,826 2013,884 2114,891 2157,986 2244,1007 2259,1116 2700,1138 2751,1218 2802,1290 2838,1326 3287,1319 3432,1254 3598,1210 3844,1167 3960,1138 "/>
   </g>
  </g>
 </g>
</svg>
