<?xml version="1.0" encoding="UTF-8"?>
<!DOCTYPE svg PUBLIC "-//W3C//DTD SVG 1.1//EN" "http://www.w3.org/Graphics/SVG/1.1/DTD/svg11.dtd">
<!-- Creator: CorelDRAW X8 -->
<svg xmlns="http://www.w3.org/2000/svg" xml:space="preserve" width="100%" height="100%" version="1.1" shape-rendering="geometricPrecision" text-rendering="geometricPrecision" image-rendering="optimizeQuality" fill-rule="evenodd" clip-rule="evenodd"
viewBox="0 0 1656 2534"
 xmlns:xlink="http://www.w3.org/1999/xlink">
 <g id="Layer_x0020_1">
  <metadata id="CorelCorpID_0Corel-Layer"/>
  <g id="Layers">
   <g id="India_Districts_selection">
    <polygon fill="#6EA97F" points="1656,1286 1492,1293 1448,1211 1411,1211 1314,1167 950,1174 891,1241 720,1360 527,1501 468,1620 408,1903 505,1977 490,2155 386,2304 334,2438 230,2534 0,2074 59,1620 74,1130 290,825 468,409 676,342 906,409 1017,372 1114,82 1262,7 1359,0 1359,476 1433,520 1463,624 1485,728 1633,840 1641,1271 "/>
   </g>
  </g>
 </g>
</svg>
