<?xml version="1.0" encoding="UTF-8"?>
<!DOCTYPE svg PUBLIC "-//W3C//DTD SVG 1.1//EN" "http://www.w3.org/Graphics/SVG/1.1/DTD/svg11.dtd">
<!-- Creator: CorelDRAW X8 -->
<svg xmlns="http://www.w3.org/2000/svg" xml:space="preserve" width="100%" height="100%" version="1.1" shape-rendering="geometricPrecision" text-rendering="geometricPrecision" image-rendering="optimizeQuality" fill-rule="evenodd" clip-rule="evenodd"
viewBox="0 0 1862 1631"
 xmlns:xlink="http://www.w3.org/1999/xlink">
 <g id="Layer_x0020_1">
  <metadata id="CorelCorpID_0Corel-Layer"/>
  <g id="Layers">
   <g id="India_Districts_selection">
    <polygon fill="#6EA97F" points="1834,430 1834,521 1857,636 1862,808 1795,1043 1681,1196 1452,1263 1256,1368 1065,1373 922,1311 931,1464 879,1593 678,1488 559,1445 406,1612 320,1631 76,1430 119,1339 105,1205 181,1148 186,914 0,588 10,493 415,316 711,258 1041,29 1022,0 1065,10 1170,96 1284,158 1337,311 1442,292 1595,234 1705,277 1824,430 "/>
   </g>
  </g>
 </g>
</svg>
