<?xml version="1.0" encoding="UTF-8"?>
<!DOCTYPE svg PUBLIC "-//W3C//DTD SVG 1.1//EN" "http://www.w3.org/Graphics/SVG/1.1/DTD/svg11.dtd">
<!-- Creator: CorelDRAW X8 -->
<svg xmlns="http://www.w3.org/2000/svg" xml:space="preserve" width="100%" height="100%" version="1.1" shape-rendering="geometricPrecision" text-rendering="geometricPrecision" image-rendering="optimizeQuality" fill-rule="evenodd" clip-rule="evenodd"
viewBox="0 0 2859 1831"
 xmlns:xlink="http://www.w3.org/1999/xlink">
 <g id="Layer_x0020_1">
  <metadata id="CorelCorpID_0Corel-Layer"/>
  <g id="Layers">
   <g id="India_Districts_selection">
    <polygon fill="#6EA97F" points="2092,1745 2049,1681 1974,1606 1894,1547 1829,1531 1695,1493 1626,1455 1545,1461 1491,1391 1341,1289 1202,1262 993,1101 853,1053 724,967 628,972 456,800 284,596 97,387 0,193 123,81 123,59 129,59 236,27 284,0 445,32 440,54 606,199 751,322 1035,322 1234,226 1470,140 1545,70 1604,59 1652,118 1733,204 1744,193 1797,279 1851,371 1899,510 2012,575 2108,666 2221,671 2328,773 2484,827 2752,849 2784,924 2859,1112 2768,1214 2709,1262 2661,1380 2570,1488 2570,1595 2425,1702 2387,1772 2387,1778 2328,1783 2237,1831 2184,1745 2098,1745 "/>
   </g>
  </g>
 </g>
</svg>
