<?xml version="1.0" encoding="UTF-8"?>
<!DOCTYPE svg PUBLIC "-//W3C//DTD SVG 1.1//EN" "http://www.w3.org/Graphics/SVG/1.1/DTD/svg11.dtd">
<!-- Creator: CorelDRAW X8 -->
<svg xmlns="http://www.w3.org/2000/svg" xml:space="preserve" width="100%" height="100%" version="1.1" shape-rendering="geometricPrecision" text-rendering="geometricPrecision" image-rendering="optimizeQuality" fill-rule="evenodd" clip-rule="evenodd"
viewBox="0 0 2256 2083"
 xmlns:xlink="http://www.w3.org/1999/xlink">
 <g id="Layer_x0020_1">
  <metadata id="CorelCorpID_0Corel-Layer"/>
  <g id="Layers">
   <g id="India_Districts_selection">
    <polygon fill="#6EA97F" points="238,2083 232,2040 238,1899 238,1637 207,1435 110,1325 0,1179 49,1124 140,1105 159,1081 238,1008 250,867 280,818 238,739 250,654 311,660 366,678 415,757 463,757 543,702 549,611 579,580 610,531 402,428 341,458 262,421 104,293 116,275 85,189 61,140 116,92 256,116 390,165 433,177 463,92 506,31 555,0 677,37 726,49 774,98 768,159 860,183 890,232 933,171 1079,153 1171,153 1250,202 1305,220 1299,244 1384,373 1628,360 1658,458 1683,495 1701,611 1738,666 1768,794 1841,898 1945,934 2030,959 2061,1038 2146,1112 2207,1185 2238,1246 2256,1246 2225,1313 1988,1472 1841,1472 1719,1576 1549,1619 1475,1655 1335,1692 1219,1832 1079,1954 945,1851 921,1802 811,1777 658,1906 598,1973 421,1979 280,2028 "/>
   </g>
  </g>
 </g>
</svg>
