<?xml version="1.0" encoding="UTF-8"?>
<!DOCTYPE svg PUBLIC "-//W3C//DTD SVG 1.1//EN" "http://www.w3.org/Graphics/SVG/1.1/DTD/svg11.dtd">
<!-- Creator: CorelDRAW X8 -->
<svg xmlns="http://www.w3.org/2000/svg" xml:space="preserve" width="100%" height="100%" version="1.1" shape-rendering="geometricPrecision" text-rendering="geometricPrecision" image-rendering="optimizeQuality" fill-rule="evenodd" clip-rule="evenodd"
viewBox="0 0 2432 1785"
 xmlns:xlink="http://www.w3.org/1999/xlink">
 <g id="Layer_x0020_1">
  <metadata id="CorelCorpID_0Corel-Layer"/>
  <g id="Layers">
   <g id="India_Districts_selection">
    <polygon fill="#6EA97F" points="633,94 633,136 633,220 716,262 779,372 936,513 1260,660 1407,681 1538,686 1674,681 1752,811 1888,827 1961,969 2019,995 2144,1073 2327,1063 2327,1167 2427,1173 2416,1256 2432,1366 2364,1534 2285,1686 2165,1754 2040,1785 1846,1749 1710,1675 1600,1639 1480,1681 1386,1728 1318,1712 1250,1665 1208,1623 978,1607 879,1576 784,1539 586,1534 188,1555 21,1408 0,1256 58,1136 68,995 188,979 204,932 157,785 194,696 146,633 157,471 178,450 173,298 220,183 261,110 319,0 507,10 560,42 "/>
   </g>
  </g>
 </g>
</svg>
