<?xml version="1.0" encoding="UTF-8"?>
<!DOCTYPE svg PUBLIC "-//W3C//DTD SVG 1.1//EN" "http://www.w3.org/Graphics/SVG/1.1/DTD/svg11.dtd">
<!-- Creator: CorelDRAW X8 -->
<svg xmlns="http://www.w3.org/2000/svg" xml:space="preserve" width="100%" height="100%" version="1.1" shape-rendering="geometricPrecision" text-rendering="geometricPrecision" image-rendering="optimizeQuality" fill-rule="evenodd" clip-rule="evenodd"
viewBox="0 0 1621 1330"
 xmlns:xlink="http://www.w3.org/1999/xlink">
 <g id="Layer_x0020_1">
  <metadata id="CorelCorpID_0Corel-Layer"/>
  <g id="Layers">
   <g id="India_Districts_selection">
    <polygon fill="#6EA97F" points="1305,43 1344,86 1328,250 1395,304 1375,511 1465,558 1488,659 1621,796 1539,901 1453,893 1360,944 1352,1112 1395,1174 1363,1248 1258,1322 1204,1299 806,1279 767,1330 705,1310 693,1244 651,1209 670,1182 701,1061 643,998 577,909 608,858 627,784 588,722 514,694 421,651 390,601 347,542 242,546 199,480 179,406 35,378 0,339 31,234 179,156 273,31 506,4 752,0 865,51 904,113 1083,117 1087,144 1188,160 1247,90 "/>
   </g>
  </g>
 </g>
</svg>
