<?xml version="1.0" encoding="UTF-8"?>
<!DOCTYPE svg PUBLIC "-//W3C//DTD SVG 1.1//EN" "http://www.w3.org/Graphics/SVG/1.1/DTD/svg11.dtd">
<!-- Creator: CorelDRAW X8 -->
<svg xmlns="http://www.w3.org/2000/svg" xml:space="preserve" width="100%" height="100%" version="1.1" shape-rendering="geometricPrecision" text-rendering="geometricPrecision" image-rendering="optimizeQuality" fill-rule="evenodd" clip-rule="evenodd"
viewBox="0 0 4099 3287"
 xmlns:xlink="http://www.w3.org/1999/xlink">
 <g id="Layer_x0020_1">
  <metadata id="CorelCorpID_0Corel-Layer"/>
  <g id="Layers">
   <g id="India_Districts_selection">
    <polygon fill="#6EA97F" points="2579,655 2781,1022 2964,1340 3070,1658 3108,1880 3474,2044 3782,2130 3907,2400 4099,2660 4003,2844 3945,2998 3859,3239 3599,3191 3329,3152 3175,3191 2983,3200 2858,3258 2454,3287 2204,3142 1896,3123 1588,3113 1482,3065 1232,3075 1145,3065 1145,2882 356,2583 29,2458 0,2207 250,2111 520,2053 664,1995 856,1976 943,1870 1184,1494 1415,1147 1607,762 1703,549 1674,501 1713,463 1819,222 1905,10 1925,0 2030,39 2069,231 2213,366 2560,684 "/>
   </g>
  </g>
 </g>
</svg>
