<?xml version="1.0" encoding="UTF-8"?>
<!DOCTYPE svg PUBLIC "-//W3C//DTD SVG 1.1//EN" "http://www.w3.org/Graphics/SVG/1.1/DTD/svg11.dtd">
<!-- Creator: CorelDRAW X8 -->
<svg xmlns="http://www.w3.org/2000/svg" xml:space="preserve" width="100%" height="100%" version="1.1" shape-rendering="geometricPrecision" text-rendering="geometricPrecision" image-rendering="optimizeQuality" fill-rule="evenodd" clip-rule="evenodd"
viewBox="0 0 3390 1578"
 xmlns:xlink="http://www.w3.org/1999/xlink">
 <g id="Layer_x0020_1">
  <metadata id="CorelCorpID_0Corel-Layer"/>
  <g id="Layers">
   <g id="India_Districts_selection">
    <polygon fill="#6EA97F" points="2449,1547 2428,1531 2360,1526 2256,1526 2194,1505 2194,1484 2152,1469 2116,1458 2038,1427 1960,1432 1903,1411 1846,1411 1762,1380 1690,1328 1643,1312 1549,1297 1497,1250 1445,1234 1430,1255 1414,1302 1372,1297 1305,1312 1242,1297 1242,1255 1242,1208 1222,1177 1164,1130 1128,1125 1087,1109 1040,1099 1019,1073 951,1047 884,1042 821,1047 801,1078 769,1114 712,1130 608,1130 572,1156 546,1177 515,1213 468,1208 400,1203 333,1151 302,1109 265,1078 224,1021 192,984 166,948 156,922 146,838 114,828 73,807 26,786 16,734 0,682 57,661 83,635 146,646 172,641 203,583 203,542 198,495 192,427 265,432 296,427 380,422 442,422 431,437 400,474 421,500 489,526 556,552 556,583 582,620 655,583 671,531 681,490 728,484 743,510 801,542 832,557 832,620 842,661 899,625 899,578 920,557 1009,557 1066,536 1081,526 1139,526 1139,490 1128,484 1087,484 993,474 931,469 905,422 931,406 972,354 1035,328 1050,281 1113,276 1185,260 1237,250 1242,229 1279,214 1300,214 1305,125 1336,109 1326,78 1268,36 1279,10 1310,26 1383,26 1409,52 1445,57 1487,89 1544,73 1560,83 1612,78 1658,62 1705,57 1731,21 1736,0 1788,10 1799,42 1856,68 1908,73 1939,99 1944,135 1955,203 1986,219 2027,219 2064,203 2090,172 2152,161 2220,172 2251,182 2313,219 2360,219 2417,234 2459,245 2469,281 2516,286 2584,292 2594,292 2589,312 2620,344 2631,365 2672,427 2708,448 2755,479 2797,510 2828,578 2849,646 2870,661 2870,724 2901,776 2953,818 2979,844 3036,870 3083,891 3130,896 3171,937 3187,1031 3197,1099 3223,1135 3270,1161 3312,1193 3343,1213 3384,1239 3390,1239 3390,1255 3390,1281 3358,1302 3327,1344 3291,1390 3197,1416 3130,1364 3130,1338 3093,1333 3046,1318 2953,1307 2942,1370 2979,1385 2989,1448 2979,1489 2916,1474 2880,1448 2854,1432 2802,1411 2760,1416 2750,1448 2708,1484 2677,1531 2677,1573 2631,1578 2573,1573 2537,1547 2480,1547 "/>
   </g>
  </g>
 </g>
</svg>
