<?xml version="1.0" encoding="UTF-8"?>
<!DOCTYPE svg PUBLIC "-//W3C//DTD SVG 1.1//EN" "http://www.w3.org/Graphics/SVG/1.1/DTD/svg11.dtd">
<!-- Creator: CorelDRAW X8 -->
<svg xmlns="http://www.w3.org/2000/svg" xml:space="preserve" width="100%" height="100%" version="1.1" shape-rendering="geometricPrecision" text-rendering="geometricPrecision" image-rendering="optimizeQuality" fill-rule="evenodd" clip-rule="evenodd"
viewBox="0 0 1781 2384"
 xmlns:xlink="http://www.w3.org/1999/xlink">
 <g id="Layer_x0020_1">
  <metadata id="CorelCorpID_0Corel-Layer"/>
  <g id="Layers">
   <g id="India_Districts_selection">
    <polygon fill="#6EA97F" points="566,2384 482,2377 482,2328 433,2300 363,2258 258,2251 265,2160 230,2139 168,2062 119,1964 77,1922 0,1839 21,1811 21,1755 77,1762 189,1755 196,1650 189,1573 216,1545 244,1538 314,1538 335,1517 377,1496 384,1461 356,1426 363,1244 384,1216 377,965 293,895 216,825 209,790 237,727 258,629 237,580 237,112 258,70 314,0 384,35 503,105 510,287 552,329 796,419 1054,496 1278,510 1355,587 1480,783 1774,902 1781,993 1522,1000 1536,1265 1432,1370 1138,1468 971,1636 894,1713 789,1887 663,2097 559,2237 "/>
   </g>
  </g>
 </g>
</svg>
