<?xml version="1.0" encoding="UTF-8"?>
<!DOCTYPE svg PUBLIC "-//W3C//DTD SVG 1.1//EN" "http://www.w3.org/Graphics/SVG/1.1/DTD/svg11.dtd">
<!-- Creator: CorelDRAW X8 -->
<svg xmlns="http://www.w3.org/2000/svg" xml:space="preserve" width="100%" height="100%" version="1.1" shape-rendering="geometricPrecision" text-rendering="geometricPrecision" image-rendering="optimizeQuality" fill-rule="evenodd" clip-rule="evenodd"
viewBox="0 0 3337 2835"
 xmlns:xlink="http://www.w3.org/1999/xlink">
 <g id="Layer_x0020_1">
  <metadata id="CorelCorpID_0Corel-Layer"/>
  <g id="Layers">
   <g id="India_Districts_selection">
    <polygon fill="#6EA97F" points="2847,2761 2274,2752 2274,2802 2059,2802 1892,2835 1785,2694 1743,2536 1627,2470 1619,2345 1602,2320 1619,2312 1892,1871 1934,1663 1901,1588 1394,1497 1262,1372 1220,1222 921,1156 689,1056 498,1081 307,1214 257,1239 149,1214 141,998 8,998 0,890 249,698 266,0 606,225 872,266 1162,175 1394,266 1843,308 2366,333 2648,416 2706,399 2714,432 2698,607 2789,657 2764,732 2756,865 2855,923 2814,1114 2889,1289 2980,1339 3204,1339 3279,1488 3337,1696 3237,1846 3154,1962 3021,2004 2996,2162 2806,2195 2814,2303 2889,2478 2913,2627 2822,2736 "/>
   </g>
  </g>
 </g>
</svg>
