<?xml version="1.0" encoding="UTF-8"?>
<!DOCTYPE svg PUBLIC "-//W3C//DTD SVG 1.1//EN" "http://www.w3.org/Graphics/SVG/1.1/DTD/svg11.dtd">
<!-- Creator: CorelDRAW X8 -->
<svg xmlns="http://www.w3.org/2000/svg" xml:space="preserve" width="100%" height="100%" version="1.1" shape-rendering="geometricPrecision" text-rendering="geometricPrecision" image-rendering="optimizeQuality" fill-rule="evenodd" clip-rule="evenodd"
viewBox="0 0 1862 1179"
 xmlns:xlink="http://www.w3.org/1999/xlink">
 <g id="Layer_x0020_1">
  <metadata id="CorelCorpID_0Corel-Layer"/>
  <g id="Layers">
   <g id="India_Districts_selection">
    <polygon fill="#6EA97F" points="1081,35 1137,59 1354,52 1368,66 1410,80 1413,100 1486,114 1486,118 1489,211 1738,211 1741,232 1759,256 1759,329 1862,322 1862,325 1779,405 1734,515 1728,529 1586,529 1489,540 1455,581 1472,630 1489,674 1503,723 1586,768 1634,782 1603,847 1548,847 1538,865 1506,872 1489,906 1455,906 1413,854 1240,854 1220,837 1164,823 1157,816 1102,820 1075,844 1061,879 1047,941 1016,1000 936,1000 888,1031 784,1031 781,1020 739,1000 726,1041 705,1093 670,1117 515,1121 460,1179 418,1176 418,1159 373,1152 366,1138 314,1138 290,1159 256,1096 228,1017 183,958 159,958 131,1000 59,996 59,975 17,917 0,861 17,834 59,823 52,737 111,681 111,612 117,595 145,581 176,560 245,543 384,543 449,543 511,491 549,488 546,505 594,505 601,522 639,522 636,505 691,505 691,536 722,567 819,543 912,453 933,415 929,384 871,315 871,287 895,291 888,249 929,232 923,194 888,176 871,131 923,83 926,24 961,0 1016,0 1019,14 "/>
   </g>
  </g>
 </g>
</svg>
