<?xml version="1.0" encoding="UTF-8"?>
<!DOCTYPE svg PUBLIC "-//W3C//DTD SVG 1.1//EN" "http://www.w3.org/Graphics/SVG/1.1/DTD/svg11.dtd">
<!-- Creator: CorelDRAW X8 -->
<svg xmlns="http://www.w3.org/2000/svg" xml:space="preserve" width="100%" height="100%" version="1.1" shape-rendering="geometricPrecision" text-rendering="geometricPrecision" image-rendering="optimizeQuality" fill-rule="evenodd" clip-rule="evenodd"
viewBox="0 0 2545 1932"
 xmlns:xlink="http://www.w3.org/1999/xlink">
 <g id="Layer_x0020_1">
  <metadata id="CorelCorpID_0Corel-Layer"/>
  <g id="Layers">
   <g id="India_Districts_selection">
    <polygon fill="#6EA97F" points="2449,1864 2296,1858 1810,1932 1555,1915 1295,1802 899,1768 634,1604 294,1479 221,1371 192,680 0,436 23,278 181,142 419,34 503,0 696,244 973,153 1165,187 1307,391 1425,521 1657,510 1855,476 2048,521 2246,640 2325,669 2319,669 2545,1003 2545,1275 2506,1349 2483,1519 "/>
   </g>
  </g>
 </g>
</svg>
