<?xml version="1.0" encoding="UTF-8"?>
<!DOCTYPE svg PUBLIC "-//W3C//DTD SVG 1.1//EN" "http://www.w3.org/Graphics/SVG/1.1/DTD/svg11.dtd">
<!-- Creator: CorelDRAW X8 -->
<svg xmlns="http://www.w3.org/2000/svg" xml:space="preserve" width="100%" height="100%" version="1.1" shape-rendering="geometricPrecision" text-rendering="geometricPrecision" image-rendering="optimizeQuality" fill-rule="evenodd" clip-rule="evenodd"
viewBox="0 0 3671 2986"
 xmlns:xlink="http://www.w3.org/1999/xlink">
 <g id="Layer_x0020_1">
  <metadata id="CorelCorpID_0Corel-Layer"/>
  <g id="Layers">
   <g id="India_Districts_selection">
    <polygon fill="#6EA97F" points="2972,2557 2762,2653 2308,2758 2124,2890 1975,2986 1774,2986 1766,2960 1670,2916 1722,2679 1495,2496 1267,2128 1171,2058 874,1909 428,1909 87,1681 0,1471 481,1252 804,1060 1031,823 1110,534 1582,499 1818,333 2045,166 2107,18 2465,0 2753,9 2850,210 3077,403 3129,587 3234,674 3514,692 3540,849 3645,919 3671,1147 3418,1261 2954,1778 2920,2023 2885,2268 "/>
   </g>
  </g>
 </g>
</svg>
