<?xml version="1.0" encoding="UTF-8"?>
<!DOCTYPE svg PUBLIC "-//W3C//DTD SVG 1.1//EN" "http://www.w3.org/Graphics/SVG/1.1/DTD/svg11.dtd">
<!-- Creator: CorelDRAW X8 -->
<svg xmlns="http://www.w3.org/2000/svg" xml:space="preserve" width="100%" height="100%" version="1.1" shape-rendering="geometricPrecision" text-rendering="geometricPrecision" image-rendering="optimizeQuality" fill-rule="evenodd" clip-rule="evenodd"
viewBox="0 0 2325 2986"
 xmlns:xlink="http://www.w3.org/1999/xlink">
 <g id="Layer_x0020_1">
  <metadata id="CorelCorpID_0Corel-Layer"/>
  <g id="Layers">
   <g id="India_Districts_selection">
    <polygon fill="#6EA97F" points="2325,1191 2255,1480 2019,1716 1853,1865 1591,1961 1399,2207 1355,2373 1329,2496 1189,2697 1145,2942 1031,2960 865,2986 594,2968 236,2960 157,2942 87,2636 70,2382 96,2268 96,2172 52,2137 61,2049 87,2031 122,1970 87,1953 96,1891 44,1883 0,1839 9,1672 87,1646 184,1655 192,1629 236,1602 236,1532 175,1454 122,1401 122,849 61,841 61,771 87,753 96,674 122,630 122,455 87,429 87,289 157,228 227,193 455,193 726,219 804,193 892,158 962,114 1101,35 1101,0 1145,9 1198,61 1163,140 1110,228 1031,219 944,368 970,438 1110,569 1171,587 1206,517 1294,499 1285,473 1346,482 1337,578 1407,665 1469,665 1521,587 1626,578 1739,613 1871,727 1879,814 2063,814 2168,849 2168,911 2281,902 2281,1138 "/>
   </g>
  </g>
 </g>
</svg>
