<?xml version="1.0" encoding="UTF-8"?>
<!DOCTYPE svg PUBLIC "-//W3C//DTD SVG 1.1//EN" "http://www.w3.org/Graphics/SVG/1.1/DTD/svg11.dtd">
<!-- Creator: CorelDRAW X8 -->
<svg xmlns="http://www.w3.org/2000/svg" xml:space="preserve" width="100%" height="100%" version="1.1" shape-rendering="geometricPrecision" text-rendering="geometricPrecision" image-rendering="optimizeQuality" fill-rule="evenodd" clip-rule="evenodd"
viewBox="0 0 2902 2986"
 xmlns:xlink="http://www.w3.org/1999/xlink">
 <g id="Layer_x0020_1">
  <metadata id="CorelCorpID_0Corel-Layer"/>
  <g id="Layers">
   <g id="India_Districts_selection">
    <polygon fill="#6EA97F" points="2614,2907 2587,2942 2552,2977 2465,2977 2098,2986 1809,2968 1731,2898 1591,2846 1521,2688 1355,2592 1259,2417 1372,2242 1372,2119 1128,2119 1110,2145 1023,2145 1014,1848 962,1839 839,1646 691,1664 691,1734 734,1778 717,1830 664,1856 638,1909 524,1900 472,1839 411,1830 420,1769 350,1743 315,1646 358,1611 402,1454 393,1033 350,937 393,902 411,876 26,867 0,788 26,727 114,622 105,438 44,350 9,306 70,201 210,131 332,88 393,0 586,245 682,368 726,385 927,245 1329,473 1538,578 1687,587 1818,508 1967,368 2063,306 2054,210 2142,219 2299,219 2386,193 2509,158 2614,114 2753,166 2850,245 2841,333 2631,412 2491,552 2343,657 2369,762 2439,841 2544,867 2517,1024 2465,1191 2439,1243 2535,1313 2552,1392 2684,1427 2736,1559 2745,1672 2832,1734 2902,1786 2893,1953 2876,2014 2841,2189 2762,2355 2684,2364 2649,2478 2675,2609 2631,2758 2596,2785 2587,2872 "/>
   </g>
  </g>
 </g>
</svg>
