<?xml version="1.0" encoding="UTF-8"?>
<!DOCTYPE svg PUBLIC "-//W3C//DTD SVG 1.1//EN" "http://www.w3.org/Graphics/SVG/1.1/DTD/svg11.dtd">
<!-- Creator: CorelDRAW X8 -->
<svg xmlns="http://www.w3.org/2000/svg" xml:space="preserve" width="100%" height="100%" version="1.1" shape-rendering="geometricPrecision" text-rendering="geometricPrecision" image-rendering="optimizeQuality" fill-rule="evenodd" clip-rule="evenodd"
viewBox="0 0 3691 1797"
 xmlns:xlink="http://www.w3.org/1999/xlink">
 <g id="Layer_x0020_1">
  <metadata id="CorelCorpID_0Corel-Layer"/>
  <g id="Layers">
   <g id="India_Districts_selection">
    <polygon fill="#6EA97F" points="3674,748 3606,919 3691,1072 3691,1355 3674,1678 3594,1792 3351,1797 3142,1729 2926,1520 2785,1650 2621,1712 2230,1780 1885,1503 1721,1554 1692,1667 1432,1667 962,1769 509,1378 289,1151 130,709 40,357 0,215 419,147 792,198 1008,215 1251,198 1415,0 1562,391 1936,493 1953,556 2117,363 2275,244 2649,295 2813,459 3238,459 "/>
   </g>
  </g>
 </g>
</svg>
