<?xml version="1.0" encoding="UTF-8"?>
<!DOCTYPE svg PUBLIC "-//W3C//DTD SVG 1.1//EN" "http://www.w3.org/Graphics/SVG/1.1/DTD/svg11.dtd">
<!-- Creator: CorelDRAW X8 -->
<svg xmlns="http://www.w3.org/2000/svg" xml:space="preserve" width="100%" height="100%" version="1.1" shape-rendering="geometricPrecision" text-rendering="geometricPrecision" image-rendering="optimizeQuality" fill-rule="evenodd" clip-rule="evenodd"
viewBox="0 0 1808 2685"
 xmlns:xlink="http://www.w3.org/1999/xlink">
 <g id="Layer_x0020_1">
  <metadata id="CorelCorpID_0Corel-Layer"/>
  <g id="Layers">
   <g id="India_Districts_selection">
    <polygon fill="#6EA97F" points="1572,94 1627,173 1682,268 1729,378 1792,472 1792,598 1729,740 1596,874 1572,937 1588,1071 1635,1291 1761,1386 1808,1425 1658,1945 1470,1890 1265,1622 1148,1748 1163,2449 1234,2496 1218,2606 1045,2669 927,2685 747,2551 432,2606 369,2346 196,2291 47,2228 299,1866 314,1252 762,1260 739,1126 362,661 173,520 0,457 71,362 110,220 204,134 259,31 424,0 519,47 605,110 582,228 676,228 794,197 896,134 1045,126 1375,118 "/>
   </g>
  </g>
 </g>
</svg>
