<?xml version="1.0" encoding="UTF-8"?>
<!DOCTYPE svg PUBLIC "-//W3C//DTD SVG 1.1//EN" "http://www.w3.org/Graphics/SVG/1.1/DTD/svg11.dtd">
<!-- Creator: CorelDRAW X8 -->
<svg xmlns="http://www.w3.org/2000/svg" xml:space="preserve" width="100%" height="100%" version="1.1" shape-rendering="geometricPrecision" text-rendering="geometricPrecision" image-rendering="optimizeQuality" fill-rule="evenodd" clip-rule="evenodd"
viewBox="0 0 1823 2685"
 xmlns:xlink="http://www.w3.org/1999/xlink">
 <g id="Layer_x0020_1">
  <metadata id="CorelCorpID_0Corel-Layer"/>
  <g id="Layers">
   <g id="India_Districts_selection">
    <polygon fill="#6EA97F" points="1155,118 1195,228 1210,315 1226,402 1289,441 1383,472 1415,512 1454,598 1548,606 1564,677 1588,724 1619,803 1603,866 1438,866 1281,898 1250,953 1242,968 1226,1008 1195,1110 1218,1157 1273,1260 1265,1346 1313,1378 1478,1386 1564,1394 1823,1409 1737,1559 1674,1653 1627,1685 1588,1716 1580,1803 1360,1913 1297,1866 1155,1827 1037,1835 1014,1866 1006,2315 1069,2354 1092,2425 1100,2519 1077,2527 1061,2638 912,2669 747,2685 762,2622 723,2480 676,2331 652,2244 582,2205 503,2228 456,2268 362,2268 322,2299 259,2283 244,2236 220,2165 157,2118 102,2079 47,2055 47,2039 189,2031 157,1882 94,1811 0,1669 16,1417 63,1315 204,1315 236,1378 409,1370 487,1275 503,1142 527,1102 346,874 220,803 47,693 79,559 181,559 173,283 307,213 409,181 558,173 597,150 747,157 943,47 1124,8 1132,0 1132,39 "/>
   </g>
  </g>
 </g>
</svg>
