<?xml version="1.0" encoding="UTF-8"?>
<!DOCTYPE svg PUBLIC "-//W3C//DTD SVG 1.1//EN" "http://www.w3.org/Graphics/SVG/1.1/DTD/svg11.dtd">
<!-- Creator: CorelDRAW X8 -->
<svg xmlns="http://www.w3.org/2000/svg" xml:space="preserve" width="100%" height="100%" version="1.1" shape-rendering="geometricPrecision" text-rendering="geometricPrecision" image-rendering="optimizeQuality" fill-rule="evenodd" clip-rule="evenodd"
viewBox="0 0 3615 2685"
 xmlns:xlink="http://www.w3.org/1999/xlink">
 <g id="Layer_x0020_1">
  <metadata id="CorelCorpID_0Corel-Layer"/>
  <g id="Layers">
   <g id="India_Districts_selection">
    <polygon fill="#6EA97F" points="2044,2669 2036,2685 1957,2685 1926,2661 1918,2449 1509,2441 1509,2346 1541,2315 1627,2228 1706,2205 1745,2165 1745,2118 1603,2110 1556,2165 1383,2173 1352,2197 1273,2228 1273,2260 1218,2260 1195,2299 1053,2299 1053,2331 1022,2346 668,2047 409,1748 118,1331 0,1094 71,913 149,803 236,764 291,772 307,929 448,1016 542,1102 613,1220 1030,1228 1108,1102 1210,1079 1250,1134 1328,1181 1430,1173 1564,1079 1706,976 1847,961 1886,1031 2059,1008 2248,890 2523,842 2814,795 2987,512 3238,220 3301,142 3435,0 3435,378 3584,496 3592,567 3615,598 3608,638 3568,693 3537,764 3466,842 3435,913 3411,968 3403,1024 3466,1039 3490,1118 3450,1150 3450,1189 3411,1213 3411,1244 3411,1338 3388,1378 3380,1472 3309,1480 3207,1370 3112,1362 3097,1394 3128,1464 3199,1504 3199,1551 3293,1535 3403,1669 3553,1669 3560,1724 3600,1724 3592,1803 3560,1819 3560,1858 3537,1905 3521,2008 3498,2055 3042,2055 3010,2071 2924,2173 2845,2173 2806,2212 2798,2323 2735,2323 2743,2268 2696,2268 2625,2323 2617,2433 2547,2543 2421,2543 2271,2551 2248,2567 2067,2575 "/>
   </g>
  </g>
 </g>
</svg>
