<?xml version="1.0" encoding="UTF-8"?>
<!DOCTYPE svg PUBLIC "-//W3C//DTD SVG 1.1//EN" "http://www.w3.org/Graphics/SVG/1.1/DTD/svg11.dtd">
<!-- Creator: CorelDRAW X8 -->
<svg xmlns="http://www.w3.org/2000/svg" xml:space="preserve" width="100%" height="100%" version="1.1" shape-rendering="geometricPrecision" text-rendering="geometricPrecision" image-rendering="optimizeQuality" fill-rule="evenodd" clip-rule="evenodd"
viewBox="0 0 1878 2083"
 xmlns:xlink="http://www.w3.org/1999/xlink">
 <g id="Layer_x0020_1">
  <metadata id="CorelCorpID_0Corel-Layer"/>
  <g id="Layers">
   <g id="India_Districts_selection">
    <polygon fill="#6EA97F" points="1829,629 1817,678 1866,776 1878,886 1823,947 1768,959 1707,1093 1604,1264 1549,1325 1622,1356 1579,1472 1488,1631 1488,1790 1475,1924 1280,2083 1244,2046 1201,2009 1140,1881 1110,1802 1018,1673 933,1533 774,1509 658,1441 591,1368 598,1283 512,1215 354,1148 165,1130 152,1075 67,1020 61,953 6,934 43,934 6,861 0,812 61,776 85,751 91,763 341,788 457,788 549,861 604,916 713,904 787,861 811,715 774,647 762,550 713,397 726,171 787,116 829,0 982,134 1219,147 1354,257 1799,629 "/>
   </g>
  </g>
 </g>
</svg>
