<?xml version="1.0" encoding="UTF-8"?>
<!DOCTYPE svg PUBLIC "-//W3C//DTD SVG 1.1//EN" "http://www.w3.org/Graphics/SVG/1.1/DTD/svg11.dtd">
<!-- Creator: CorelDRAW X8 -->
<svg xmlns="http://www.w3.org/2000/svg" xml:space="preserve" width="100%" height="100%" version="1.1" shape-rendering="geometricPrecision" text-rendering="geometricPrecision" image-rendering="optimizeQuality" fill-rule="evenodd" clip-rule="evenodd"
viewBox="0 0 3404 2083"
 xmlns:xlink="http://www.w3.org/1999/xlink">
 <g id="Layer_x0020_1">
  <metadata id="CorelCorpID_0Corel-Layer"/>
  <g id="Layers">
   <g id="India_Districts_selection">
    <polygon fill="#6EA97F" points="3398,1014 3374,1020 3300,1026 3294,1051 3239,1075 3258,1154 3105,1154 3093,1124 3087,1026 2947,1026 2940,1075 2916,1093 2892,1130 2788,1118 2794,1087 2678,1087 2678,1118 2593,1130 2593,1148 2544,1167 2495,1197 2452,1222 2428,1258 2404,1295 2343,1295 2330,1319 2300,1338 2269,1362 2141,1362 2141,1338 2105,1325 2038,1295 1891,1301 1897,1435 1928,1435 1940,1472 2086,1441 2129,1478 2129,1527 2105,1539 2092,1673 2062,1710 2056,1741 1995,1741 1989,1704 1812,1716 1812,1735 1726,1741 1714,1680 1672,1673 1641,1637 1592,1631 1562,1680 1525,1698 1489,1741 1440,1777 1202,1771 1153,1741 1092,1741 1061,1710 1037,1710 988,1673 671,1673 659,1710 580,1716 531,1753 506,1796 464,1814 427,1851 409,1930 384,1954 378,2083 342,2083 311,2046 311,1545 293,1478 262,1417 226,1368 207,1313 183,1276 153,1234 12,1234 0,1093 329,989 854,947 1226,1002 1476,1081 1665,910 1794,537 1977,464 1970,385 1995,379 2068,318 2196,257 2251,195 2367,153 2410,122 2465,116 2501,67 2538,43 2574,24 2580,0 2721,6 2764,37 2806,49 2837,86 2879,98 2898,134 2947,153 2971,195 2989,232 3014,281 3038,336 3062,373 3062,391 3117,446 3172,483 3166,544 3166,617 3184,660 3215,751 3239,806 3264,843 3343,861 3361,916 3374,922 3404,965 "/>
   </g>
  </g>
 </g>
</svg>
