<?xml version="1.0" encoding="UTF-8"?>
<!DOCTYPE svg PUBLIC "-//W3C//DTD SVG 1.1//EN" "http://www.w3.org/Graphics/SVG/1.1/DTD/svg11.dtd">
<!-- Creator: CorelDRAW X8 -->
<svg xmlns="http://www.w3.org/2000/svg" xml:space="preserve" width="100%" height="100%" version="1.1" shape-rendering="geometricPrecision" text-rendering="geometricPrecision" image-rendering="optimizeQuality" fill-rule="evenodd" clip-rule="evenodd"
viewBox="0 0 2849 2083"
 xmlns:xlink="http://www.w3.org/1999/xlink">
 <g id="Layer_x0020_1">
  <metadata id="CorelCorpID_0Corel-Layer"/>
  <g id="Layers">
   <g id="India_Districts_selection">
    <polygon fill="#6EA97F" points="2599,1564 2556,1576 2294,1570 1763,1570 1647,1606 1275,1551 1226,1735 1123,1881 1208,1954 1104,2083 1037,2034 927,1918 860,1747 726,1539 549,1325 0,1099 0,1008 43,904 79,910 409,879 482,794 549,690 598,666 757,788 952,800 1031,837 1232,837 1409,825 1495,806 1592,794 1653,776 1751,623 1885,269 2123,147 2440,55 2575,0 2843,202 2849,489 2794,592 2825,739 2764,818 2758,928 2562,1240 2587,1515 "/>
   </g>
  </g>
 </g>
</svg>
