<?xml version="1.0" encoding="UTF-8"?>
<!DOCTYPE svg PUBLIC "-//W3C//DTD SVG 1.1//EN" "http://www.w3.org/Graphics/SVG/1.1/DTD/svg11.dtd">
<!-- Creator: CorelDRAW X8 -->
<svg xmlns="http://www.w3.org/2000/svg" xml:space="preserve" width="100%" height="100%" version="1.1" shape-rendering="geometricPrecision" text-rendering="geometricPrecision" image-rendering="optimizeQuality" fill-rule="evenodd" clip-rule="evenodd"
viewBox="0 0 2933 1631"
 xmlns:xlink="http://www.w3.org/1999/xlink">
 <g id="Layer_x0020_1">
  <metadata id="CorelCorpID_0Corel-Layer"/>
  <g id="Layers">
   <g id="India_Districts_selection">
    <polygon fill="#6EA97F" points="1663,1617 1443,1598 1328,1564 1252,1602 1085,1569 1042,1631 913,1574 827,1550 521,1545 487,1545 392,1488 291,1497 229,1502 320,1411 167,1291 29,1416 0,1430 5,1354 29,1306 86,1248 134,1229 158,1224 191,1201 253,1129 272,1062 392,985 640,985 640,947 674,942 731,1024 788,1019 951,894 994,832 1008,832 1008,784 1061,775 1108,713 1151,655 1209,607 1214,569 1233,545 1233,507 1257,469 1366,469 1376,430 1581,430 1577,469 1610,517 1830,512 1844,469 1992,469 2016,421 2069,430 2116,402 2116,364 2145,373 2159,325 2222,325 2260,268 2284,249 2346,244 2346,225 2408,215 2441,177 2446,134 2465,120 2460,77 2489,77 2480,24 2503,5 2575,0 2585,29 2666,77 2704,163 2723,263 2824,306 2867,368 2871,450 2933,488 2919,555 2890,603 2828,655 2761,703 2733,727 2714,818 2699,837 2675,780 2518,765 2489,837 2389,966 2284,1028 2198,1196 2131,1191 2045,1239 1992,1411 1925,1483 1830,1502 1787,1473 1706,1593 "/>
   </g>
  </g>
 </g>
</svg>
