<?xml version="1.0" encoding="UTF-8"?>
<!DOCTYPE svg PUBLIC "-//W3C//DTD SVG 1.1//EN" "http://www.w3.org/Graphics/SVG/1.1/DTD/svg11.dtd">
<!-- Creator: CorelDRAW X8 -->
<svg xmlns="http://www.w3.org/2000/svg" xml:space="preserve" width="100%" height="100%" version="1.1" shape-rendering="geometricPrecision" text-rendering="geometricPrecision" image-rendering="optimizeQuality" fill-rule="evenodd" clip-rule="evenodd"
viewBox="0 0 1502 2685"
 xmlns:xlink="http://www.w3.org/1999/xlink">
 <g id="Layer_x0020_1">
  <metadata id="CorelCorpID_0Corel-Layer"/>
  <g id="Layers">
   <g id="India_Districts_selection">
    <polygon fill="#6EA97F" points="1282,2606 1235,2630 1093,2661 897,2685 716,2590 598,2386 527,2291 535,2291 503,2031 488,1937 173,1693 87,1559 24,1370 0,1181 181,905 378,811 645,583 771,417 794,142 739,110 716,79 787,63 865,63 991,39 1117,0 1219,150 1266,252 1227,386 983,661 763,968 645,1134 661,1661 818,1732 1030,1732 1502,2063 1439,2181 1329,2362 1282,2598 "/>
   </g>
  </g>
 </g>
</svg>
