<?xml version="1.0" encoding="UTF-8"?>
<!DOCTYPE svg PUBLIC "-//W3C//DTD SVG 1.1//EN" "http://www.w3.org/Graphics/SVG/1.1/DTD/svg11.dtd">
<!-- Creator: CorelDRAW X8 -->
<svg xmlns="http://www.w3.org/2000/svg" xml:space="preserve" width="100%" height="100%" version="1.1" shape-rendering="geometricPrecision" text-rendering="geometricPrecision" image-rendering="optimizeQuality" fill-rule="evenodd" clip-rule="evenodd"
viewBox="0 0 776 2911"
 xmlns:xlink="http://www.w3.org/1999/xlink">
 <g id="Layer_x0020_1">
  <metadata id="CorelCorpID_0Corel-Layer"/>
  <g id="Layers">
   <g id="India_Districts_selection">
    <path fill="#6EA97F" d="M605 1161l60 8 43 0 51 -8 0 350 17 589 0 538 -26 162 -93 94 -256 17 -51 -128 -26 -94 -34 -111 -26 -256 60 -26 -17 -85 51 -77 34 -68 26 -52 17 -85 25 -68 -76 -51 -77 -94 0 -453 77 -51 51 -60 8 -34 43 -60 34 0 -8 43 0 26 17 17 34 17 42 0zm103 -1161l25 68 26 367 0 248 0 247 -26 0 -34 0 -34 -76 -68 -9 -282 9 -119 128 -94 0 -25 68 -77 17 0 -51 9 -197 127 -145 0 -94 43 -34 -8 -51 -9 -94 9 9 34 -86 93 9 77 -43 9 -68 42 -26 94 0 111 -153 17 17 17 -34 43 -26z"/>
   </g>
  </g>
 </g>
</svg>
