<?xml version="1.0" encoding="UTF-8"?>
<!DOCTYPE svg PUBLIC "-//W3C//DTD SVG 1.1//EN" "http://www.w3.org/Graphics/SVG/1.1/DTD/svg11.dtd">
<!-- Creator: CorelDRAW X8 -->
<svg xmlns="http://www.w3.org/2000/svg" xml:space="preserve" width="100%" height="100%" version="1.1" shape-rendering="geometricPrecision" text-rendering="geometricPrecision" image-rendering="optimizeQuality" fill-rule="evenodd" clip-rule="evenodd"
viewBox="0 0 2747 2233"
 xmlns:xlink="http://www.w3.org/1999/xlink">
 <g id="Layer_x0020_1">
  <metadata id="CorelCorpID_0Corel-Layer"/>
  <g id="Layers">
   <g id="India_Districts_selection">
    <polygon fill="#6EA97F" points="2747,956 2747,1015 2702,1061 2617,1133 2479,1140 2375,1081 2257,982 2080,1015 1936,891 1773,904 1662,1054 1550,1100 1406,1094 1321,1185 1191,1166 1053,1290 975,1401 837,1454 877,1978 811,2069 811,2187 726,2233 576,2083 471,2011 406,1853 288,1808 65,1781 0,1663 52,1500 124,1421 216,1297 288,1166 275,950 406,773 399,648 517,583 621,524 608,386 615,367 621,373 739,334 968,308 1073,354 1223,288 1433,131 1557,183 1681,327 1897,314 1910,393 2113,393 2165,275 2132,65 2237,7 2368,0 2375,13 2368,170 2466,236 2558,327 2571,851 2630,878 2734,950 "/>
   </g>
  </g>
 </g>
</svg>
