<?xml version="1.0" encoding="UTF-8"?>
<!DOCTYPE svg PUBLIC "-//W3C//DTD SVG 1.1//EN" "http://www.w3.org/Graphics/SVG/1.1/DTD/svg11.dtd">
<!-- Creator: CorelDRAW X8 -->
<svg xmlns="http://www.w3.org/2000/svg" xml:space="preserve" width="100%" height="100%" version="1.1" shape-rendering="geometricPrecision" text-rendering="geometricPrecision" image-rendering="optimizeQuality" fill-rule="evenodd" clip-rule="evenodd"
viewBox="0 0 1987 2233"
 xmlns:xlink="http://www.w3.org/1999/xlink">
 <g id="Layer_x0020_1">
  <metadata id="CorelCorpID_0Corel-Layer"/>
  <g id="Layers">
   <g id="India_Districts_selection">
    <polygon fill="#6EA97F" points="1987,1454 1713,1447 1654,1532 1654,1657 1589,1801 1517,1978 1451,2128 1353,2233 1255,2161 1124,2069 981,1893 771,1880 562,1559 549,1382 484,1231 346,950 203,864 33,832 7,701 0,701 92,576 157,504 255,399 804,393 817,190 896,111 1262,124 1360,7 1464,0 1530,111 1536,530 1785,786 1929,976 1929,1041 1987,1081 "/>
   </g>
  </g>
 </g>
</svg>
