<?xml version="1.0" encoding="UTF-8"?>
<!DOCTYPE svg PUBLIC "-//W3C//DTD SVG 1.1//EN" "http://www.w3.org/Graphics/SVG/1.1/DTD/svg11.dtd">
<!-- Creator: CorelDRAW X8 -->
<svg xmlns="http://www.w3.org/2000/svg" xml:space="preserve" width="100%" height="100%" version="1.1" shape-rendering="geometricPrecision" text-rendering="geometricPrecision" image-rendering="optimizeQuality" fill-rule="evenodd" clip-rule="evenodd"
viewBox="0 0 1706 2534"
 xmlns:xlink="http://www.w3.org/1999/xlink">
 <g id="Layer_x0020_1">
  <metadata id="CorelCorpID_0Corel-Layer"/>
  <g id="Layers">
   <g id="India_Districts_selection">
    <polygon fill="#6EA97F" points="660,2453 623,2363 616,2349 601,2319 579,2296 534,2296 453,2289 453,2252 475,2185 482,2155 475,2111 490,2014 482,1977 438,1955 401,1947 371,1932 364,1880 349,1880 304,1880 260,1873 230,1858 200,1843 178,1858 148,1865 96,1858 67,1828 67,1791 89,1754 126,1747 156,1739 200,1732 245,1717 260,1687 260,1642 245,1553 223,1546 200,1516 148,1457 141,1405 104,1367 141,1301 185,1271 237,1256 223,1226 193,1174 185,1100 200,1033 208,1003 193,966 178,944 148,929 156,922 163,892 156,862 141,758 104,736 67,706 30,661 22,595 30,543 45,491 45,446 89,386 111,349 163,349 185,334 178,260 134,230 104,208 67,164 37,164 0,126 0,45 22,0 30,22 82,22 141,45 163,59 223,82 267,104 289,149 312,156 326,193 371,238 378,260 401,297 415,327 453,342 482,357 519,394 527,431 564,483 594,513 645,513 690,513 727,476 764,461 816,483 875,483 935,483 979,505 1024,520 1083,543 1128,572 1157,580 1217,609 1246,647 1284,669 1343,676 1395,684 1454,713 1491,765 1528,795 1565,818 1603,825 1617,884 1625,988 1625,1040 1647,1070 1692,1078 1706,1122 1692,1145 1551,1219 1506,1234 1506,1159 1447,1100 1402,1085 1165,1174 1039,1249 1039,1375 1068,1472 957,1516 979,1605 1046,1613 1165,1650 1276,1739 1284,1895 1098,1917 1068,1969 1068,2029 1150,2059 1150,2155 1135,2230 1016,2430 905,2430 824,2519 794,2534 "/>
   </g>
  </g>
 </g>
</svg>
