<?xml version="1.0" encoding="UTF-8"?>
<!DOCTYPE svg PUBLIC "-//W3C//DTD SVG 1.1//EN" "http://www.w3.org/Graphics/SVG/1.1/DTD/svg11.dtd">
<!-- Creator: CorelDRAW X8 -->
<svg xmlns="http://www.w3.org/2000/svg" xml:space="preserve" width="100%" height="100%" version="1.1" shape-rendering="geometricPrecision" text-rendering="geometricPrecision" image-rendering="optimizeQuality" fill-rule="evenodd" clip-rule="evenodd"
viewBox="0 0 2749 1932"
 xmlns:xlink="http://www.w3.org/1999/xlink">
 <g id="Layer_x0020_1">
  <metadata id="CorelCorpID_0Corel-Layer"/>
  <g id="Layers">
   <g id="India_Districts_selection">
    <polygon fill="#6EA97F" points="1442,1932 1114,1921 1114,1904 1024,1904 1024,1813 996,1762 894,1728 798,1655 815,1615 848,1524 820,1462 730,1462 701,1519 379,1524 272,1394 209,1286 181,1241 62,1122 0,1048 6,941 45,929 62,839 232,856 255,878 622,867 781,708 1114,714 1148,663 1227,646 1290,618 1318,561 1397,504 1482,374 1499,295 1408,204 1403,96 1442,68 1471,45 1516,11 1550,0 1555,40 1612,91 1652,142 1686,153 1691,272 1736,300 1799,346 1833,419 1861,493 1895,555 1957,635 1991,680 2285,680 2393,754 2432,799 2477,844 2602,856 2698,890 2743,941 2749,969 2749,963 2687,1009 2613,1060 2511,1077 2398,1082 2319,1139 2223,1173 2121,1196 2059,1224 1968,1235 1917,1252 1850,1303 1804,1360 1782,1445 1765,1541 1720,1604 1669,1689 1629,1756 1589,1813 1544,1841 1499,1870 1442,1926 "/>
   </g>
  </g>
 </g>
</svg>
