<?xml version="1.0" encoding="UTF-8"?>
<!DOCTYPE svg PUBLIC "-//W3C//DTD SVG 1.1//EN" "http://www.w3.org/Graphics/SVG/1.1/DTD/svg11.dtd">
<!-- Creator: CorelDRAW X8 -->
<svg xmlns="http://www.w3.org/2000/svg" xml:space="preserve" width="100%" height="100%" version="1.1" shape-rendering="geometricPrecision" text-rendering="geometricPrecision" image-rendering="optimizeQuality" fill-rule="evenodd" clip-rule="evenodd"
viewBox="0 0 2032 2083"
 xmlns:xlink="http://www.w3.org/1999/xlink">
 <g id="Layer_x0020_1">
  <metadata id="CorelCorpID_0Corel-Layer"/>
  <g id="Layers">
   <g id="India_Districts_selection">
    <polygon fill="#6EA97F" points="2013,666 2007,782 2032,928 2026,1124 1940,1197 1775,1197 1739,1142 1617,1142 1580,1203 1391,1173 1300,1325 1300,1625 1263,1649 1220,1735 1190,1832 1171,2083 970,1991 866,1991 824,1936 683,1924 659,1838 494,1783 390,1728 360,1631 415,1539 519,1423 470,1331 232,1276 104,1209 0,1142 55,1130 128,1099 128,1002 85,941 37,806 6,702 55,654 153,556 171,421 262,250 360,122 427,0 677,165 946,257 1391,263 1519,183 1672,244 1806,556 "/>
   </g>
  </g>
 </g>
</svg>
