<?xml version="1.0" encoding="UTF-8"?>
<!DOCTYPE svg PUBLIC "-//W3C//DTD SVG 1.1//EN" "http://www.w3.org/Graphics/SVG/1.1/DTD/svg11.dtd">
<!-- Creator: CorelDRAW X8 -->
<svg xmlns="http://www.w3.org/2000/svg" xml:space="preserve" width="100%" height="100%" version="1.1" shape-rendering="geometricPrecision" text-rendering="geometricPrecision" image-rendering="optimizeQuality" fill-rule="evenodd" clip-rule="evenodd"
viewBox="0 0 1308 2233"
 xmlns:xlink="http://www.w3.org/1999/xlink">
 <g id="Layer_x0020_1">
  <metadata id="CorelCorpID_0Corel-Layer"/>
  <g id="Layers">
   <g id="India_Districts_selection">
    <polygon fill="#6EA97F" points="52,1329 52,1303 59,1264 72,1212 39,1198 33,1172 20,1153 13,1133 0,1100 0,1067 0,1009 13,963 20,923 33,891 59,871 78,864 111,864 137,878 177,878 209,871 235,851 235,806 235,747 235,661 229,635 216,557 196,498 196,472 177,406 209,380 203,190 203,177 216,177 216,164 268,164 294,144 373,131 399,151 445,151 464,138 503,144 536,151 575,151 588,144 595,124 601,98 621,85 621,72 634,52 654,33 680,33 732,33 771,39 798,26 850,13 909,7 935,7 954,0 961,0 968,144 928,216 948,288 1033,347 1026,478 974,517 974,557 948,596 889,603 843,609 837,694 856,727 928,733 935,845 896,904 811,923 817,1094 974,1107 1033,1185 1033,1277 1072,1290 1144,1316 1209,1343 1294,1362 1308,1434 1242,1467 1203,1546 1170,1598 1098,1618 941,1618 922,1572 830,1585 706,1670 654,1749 595,1925 575,1971 654,2030 634,2109 595,2161 569,2220 366,2233 307,2220 222,2181 196,2030 190,1919 131,1853 150,1755 209,1657 229,1493 144,1388 "/>
   </g>
  </g>
 </g>
</svg>
