<?xml version="1.0" encoding="UTF-8"?>
<!DOCTYPE svg PUBLIC "-//W3C//DTD SVG 1.1//EN" "http://www.w3.org/Graphics/SVG/1.1/DTD/svg11.dtd">
<!-- Creator: CorelDRAW X8 -->
<svg xmlns="http://www.w3.org/2000/svg" xml:space="preserve" width="100%" height="100%" version="1.1" shape-rendering="geometricPrecision" text-rendering="geometricPrecision" image-rendering="optimizeQuality" fill-rule="evenodd" clip-rule="evenodd"
viewBox="0 0 1704 1932"
 xmlns:xlink="http://www.w3.org/1999/xlink">
 <g id="Layer_x0020_1">
  <metadata id="CorelCorpID_0Corel-Layer"/>
  <g id="Layers">
   <g id="India_Districts_selection">
    <polygon fill="#6EA97F" points="1664,612 1647,776 1681,799 1681,878 1675,912 1704,992 1624,992 1545,1048 1534,1094 1421,1105 1370,1196 1251,1292 1138,1298 1024,1247 894,1320 843,1479 821,1672 787,1751 781,1909 713,1921 651,1932 589,1881 555,1853 526,1807 509,1632 413,1626 379,1711 317,1717 255,1643 192,1592 119,1564 130,1439 232,1417 221,1315 153,1286 164,1167 277,1128 289,861 238,816 164,720 0,657 6,510 119,414 125,74 192,40 340,0 419,51 560,164 651,266 764,334 860,312 928,221 1019,147 1262,346 1607,612 "/>
   </g>
  </g>
 </g>
</svg>
