<?xml version="1.0" encoding="UTF-8"?>
<!DOCTYPE svg PUBLIC "-//W3C//DTD SVG 1.1//EN" "http://www.w3.org/Graphics/SVG/1.1/DTD/svg11.dtd">
<!-- Creator: CorelDRAW X8 -->
<svg xmlns="http://www.w3.org/2000/svg" xml:space="preserve" width="100%" height="100%" version="1.1" shape-rendering="geometricPrecision" text-rendering="geometricPrecision" image-rendering="optimizeQuality" fill-rule="evenodd" clip-rule="evenodd"
viewBox="0 0 2119 2233"
 xmlns:xlink="http://www.w3.org/1999/xlink">
 <g id="Layer_x0020_1">
  <metadata id="CorelCorpID_0Corel-Layer"/>
  <g id="Layers">
   <g id="India_Districts_selection">
    <polygon fill="#6EA97F" points="386,2233 379,2220 366,2174 314,2142 262,2109 216,2030 196,1978 216,1919 249,1899 314,1873 347,1834 386,1801 406,1722 412,1644 379,1565 353,1552 366,1487 419,1474 451,1454 497,1441 517,1408 556,1401 563,1369 530,1329 556,1277 549,1225 543,1159 530,1159 530,1126 458,1120 438,1153 406,1166 347,1172 314,1140 294,1153 249,1166 222,1205 164,1166 164,1120 150,1054 124,1009 92,943 65,897 46,845 26,819 0,773 0,733 59,688 105,714 157,688 190,648 242,642 255,681 321,694 432,681 510,668 510,609 471,557 471,491 458,472 347,458 340,393 392,386 386,347 425,308 425,269 425,216 458,183 484,138 530,144 530,183 628,183 654,157 680,138 720,118 720,138 739,131 778,111 792,72 818,46 831,20 857,0 903,7 942,13 975,26 1001,26 1014,39 1105,46 1132,65 1145,111 1151,157 1132,190 1105,255 1112,314 1138,367 1223,445 1262,445 1302,485 1308,537 1308,603 1334,616 1328,616 1328,629 1374,661 1413,668 1419,701 1439,727 1459,747 1485,766 1544,760 1570,773 1596,812 1629,812 1648,825 1688,845 1727,864 1747,871 1668,956 1603,1041 1576,1153 1590,1185 1662,1205 1760,1179 1910,1094 2002,1035 2119,1035 2106,1140 1890,1212 1537,1369 1328,1500 1217,1631 1138,1762 1105,1814 1047,1801 975,1821 949,1847 837,1860 778,1899 576,2063 510,2135 445,2227 "/>
   </g>
  </g>
 </g>
</svg>
