<?xml version="1.0" encoding="UTF-8"?>
<!DOCTYPE svg PUBLIC "-//W3C//DTD SVG 1.1//EN" "http://www.w3.org/Graphics/SVG/1.1/DTD/svg11.dtd">
<!-- Creator: CorelDRAW X8 -->
<svg xmlns="http://www.w3.org/2000/svg" xml:space="preserve" width="100%" height="100%" version="1.1" shape-rendering="geometricPrecision" text-rendering="geometricPrecision" image-rendering="optimizeQuality" fill-rule="evenodd" clip-rule="evenodd"
viewBox="0 0 2466 2233"
 xmlns:xlink="http://www.w3.org/1999/xlink">
 <g id="Layer_x0020_1">
  <metadata id="CorelCorpID_0Corel-Layer"/>
  <g id="Layers">
   <g id="India_Districts_selection">
    <polygon fill="#6EA97F" points="1721,1585 1694,1591 1642,1605 1551,1657 1420,1670 1387,1722 1335,1722 1047,1729 1027,1906 1014,1978 981,2050 949,2115 916,2233 779,2207 779,2128 687,1965 635,1906 536,1958 458,1984 412,1945 196,1899 105,1827 13,1696 0,1657 39,1585 190,1474 190,1362 281,1257 334,1140 393,1081 484,982 543,956 628,891 765,661 942,465 1014,491 1079,537 1138,616 1204,609 1236,524 1328,530 1348,701 1374,747 1407,779 1472,825 1531,812 1603,806 1603,648 1636,570 1662,380 1714,223 1838,151 1950,203 2061,190 2179,98 2231,7 2316,0 2342,26 2434,79 2466,203 2460,275 2368,386 2342,458 2303,544 2251,603 2172,655 2139,688 2192,753 2185,891 2120,891 2067,943 2035,943 1969,1009 1865,1126 1753,1185 1721,1271 1799,1428 "/>
   </g>
  </g>
 </g>
</svg>
