<?xml version="1.0" encoding="UTF-8"?>
<!DOCTYPE svg PUBLIC "-//W3C//DTD SVG 1.1//EN" "http://www.w3.org/Graphics/SVG/1.1/DTD/svg11.dtd">
<!-- Creator: CorelDRAW X8 -->
<svg xmlns="http://www.w3.org/2000/svg" xml:space="preserve" width="100%" height="100%" version="1.1" shape-rendering="geometricPrecision" text-rendering="geometricPrecision" image-rendering="optimizeQuality" fill-rule="evenodd" clip-rule="evenodd"
viewBox="0 0 3805 1631"
 xmlns:xlink="http://www.w3.org/1999/xlink">
 <g id="Layer_x0020_1">
  <metadata id="CorelCorpID_0Corel-Layer"/>
  <g id="Layers">
   <g id="India_Districts_selection">
    <polygon fill="#6EA97F" points="3583,64 3659,99 3694,193 3700,327 3805,438 3653,497 3525,526 3455,555 3537,614 3519,713 3356,713 3338,690 3204,637 3006,631 2883,690 2772,760 2614,824 2469,813 2399,883 2375,959 2171,959 2171,1046 1990,1052 1949,1076 1751,1076 1599,1163 1512,1216 1371,1222 1278,1298 1126,1368 905,1362 823,1438 595,1438 560,1403 461,1415 350,1444 344,1590 321,1631 298,1578 187,1578 99,1584 93,1456 88,1403 163,1327 210,1245 140,1146 88,1058 82,965 58,871 47,748 0,631 70,585 76,491 47,427 123,403 228,362 391,345 508,316 642,257 712,152 776,105 899,70 1132,0 1307,35 1371,82 1471,111 1599,193 1692,310 1832,351 1978,351 2083,304 2282,199 2422,134 2504,134 2579,134 2655,170 2807,175 3105,170 3280,146 3361,111 3537,82 "/>
   </g>
  </g>
 </g>
</svg>
