<?xml version="1.0" encoding="UTF-8"?>
<!DOCTYPE svg PUBLIC "-//W3C//DTD SVG 1.1//EN" "http://www.w3.org/Graphics/SVG/1.1/DTD/svg11.dtd">
<!-- Creator: CorelDRAW X8 -->
<svg xmlns="http://www.w3.org/2000/svg" xml:space="preserve" width="100%" height="100%" version="1.1" shape-rendering="geometricPrecision" text-rendering="geometricPrecision" image-rendering="optimizeQuality" fill-rule="evenodd" clip-rule="evenodd"
viewBox="0 0 1383 1782"
 xmlns:xlink="http://www.w3.org/1999/xlink">
 <g id="Layer_x0020_1">
  <metadata id="CorelCorpID_0Corel-Layer"/>
  <g id="Layers">
   <g id="India_Districts_selection">
    <polygon fill="#6EA97F" points="725,1771 558,1782 558,1667 532,1625 522,1594 125,1594 120,1442 157,1405 266,1353 266,1024 157,1014 157,961 183,951 172,914 251,820 297,805 303,679 261,617 157,580 0,449 16,381 89,376 120,340 125,261 204,230 313,199 360,157 433,146 449,131 522,141 538,178 590,172 668,230 736,172 736,94 856,0 934,16 986,31 1007,5 1101,5 1122,31 1185,37 1190,31 1200,57 1232,115 1300,146 1326,183 1373,183 1383,303 1373,543 1310,857 1206,1165 981,1526 "/>
   </g>
  </g>
 </g>
</svg>
