<?xml version="1.0" encoding="UTF-8"?>
<!DOCTYPE svg PUBLIC "-//W3C//DTD SVG 1.1//EN" "http://www.w3.org/Graphics/SVG/1.1/DTD/svg11.dtd">
<!-- Creator: CorelDRAW X8 -->
<svg xmlns="http://www.w3.org/2000/svg" xml:space="preserve" width="100%" height="100%" version="1.1" shape-rendering="geometricPrecision" text-rendering="geometricPrecision" image-rendering="optimizeQuality" fill-rule="evenodd" clip-rule="evenodd"
viewBox="0 0 3773 2685"
 xmlns:xlink="http://www.w3.org/1999/xlink">
 <g id="Layer_x0020_1">
  <metadata id="CorelCorpID_0Corel-Layer"/>
  <g id="Layers">
   <g id="India_Districts_selection">
    <polygon fill="#6EA97F" points="2059,2685 2036,2622 1988,2512 1926,2338 1839,2181 1745,2047 1556,1945 1548,1779 1485,1740 1344,1724 1328,1590 1265,1520 1108,1504 1092,1433 904,1409 896,1472 794,1504 652,1449 456,1417 338,1307 385,1252 377,1087 228,1063 228,890 102,811 118,740 173,677 173,598 134,543 0,386 79,307 102,228 118,165 181,63 189,8 196,8 417,0 597,63 652,252 786,394 1022,339 1258,276 1360,268 1556,488 1643,433 1643,409 1784,472 1996,591 2138,732 2169,811 2169,905 2106,992 2099,1063 2091,1173 2138,1205 2130,1283 2295,1331 2421,1346 2570,1488 2594,1567 2727,1590 2790,1740 2861,1724 2924,1709 3073,1709 3097,1756 3270,1764 3277,1716 3348,1709 3372,1756 3608,1779 3773,1795 3733,1811 3733,1984 3450,2409 3073,2449 2774,2614 2381,2504 2209,2559 2099,2669 "/>
   </g>
  </g>
 </g>
</svg>
