<?xml version="1.0" encoding="UTF-8"?>
<!DOCTYPE svg PUBLIC "-//W3C//DTD SVG 1.1//EN" "http://www.w3.org/Graphics/SVG/1.1/DTD/svg11.dtd">
<!-- Creator: CorelDRAW X8 -->
<svg xmlns="http://www.w3.org/2000/svg" xml:space="preserve" width="100%" height="100%" version="1.1" shape-rendering="geometricPrecision" text-rendering="geometricPrecision" image-rendering="optimizeQuality" fill-rule="evenodd" clip-rule="evenodd"
viewBox="0 0 3249 1982"
 xmlns:xlink="http://www.w3.org/1999/xlink">
 <g id="Layer_x0020_1">
  <metadata id="CorelCorpID_0Corel-Layer"/>
  <g id="Layers">
   <g id="India_Districts_selection">
    <polygon fill="#6EA97F" points="1659,256 1677,279 1677,320 1677,355 1694,372 1717,349 1793,325 1828,325 1874,343 1915,355 1955,372 2013,389 2065,384 2118,366 2164,343 2222,314 2257,320 2309,320 2390,331 2408,325 2414,296 2379,267 2379,238 2379,209 2396,198 2460,203 2495,221 2518,238 2593,302 2622,314 2634,355 2657,372 2692,395 2721,395 2744,378 2756,366 2808,360 2849,360 2895,389 2913,436 2947,453 2982,494 3005,500 3029,506 3046,517 3046,558 3040,575 3017,610 3000,651 2988,692 2988,732 3005,761 3017,790 3017,825 3040,854 3092,866 3145,872 3191,878 3208,878 3203,895 3179,982 3214,1133 3226,1203 3249,1314 3104,1279 3046,1261 3005,1261 2669,1238 2338,1273 2071,1261 1862,1337 1717,1482 1532,1604 1334,1790 1288,1941 1276,1935 1207,1982 1160,1883 1056,1622 656,1610 603,1447 278,1436 168,1343 238,1104 0,936 145,779 215,680 238,703 377,703 377,325 534,186 719,250 975,262 1102,180 1131,47 1450,0 1445,41 1474,70 1503,87 1532,99 1572,116 1613,151 1619,174 1630,203 1642,227 "/>
   </g>
  </g>
 </g>
</svg>
