<?xml version="1.0" encoding="UTF-8"?>
<!DOCTYPE svg PUBLIC "-//W3C//DTD SVG 1.1//EN" "http://www.w3.org/Graphics/SVG/1.1/DTD/svg11.dtd">
<!-- Creator: CorelDRAW X8 -->
<svg xmlns="http://www.w3.org/2000/svg" xml:space="preserve" width="100%" height="100%" version="1.1" shape-rendering="geometricPrecision" text-rendering="geometricPrecision" image-rendering="optimizeQuality" fill-rule="evenodd" clip-rule="evenodd"
viewBox="0 0 2641 2233"
 xmlns:xlink="http://www.w3.org/1999/xlink">
 <g id="Layer_x0020_1">
  <metadata id="CorelCorpID_0Corel-Layer"/>
  <g id="Layers">
   <g id="India_Districts_selection">
    <polygon fill="#6EA97F" points="2602,1650 2582,1650 2458,1631 2393,1670 2184,1742 2014,1781 1929,1735 1857,1729 1785,1768 1667,1781 1589,1814 1602,1906 1589,1952 1549,1971 1510,1978 1451,2030 1399,2089 1203,2083 1138,2109 1046,2168 1000,2220 981,2233 798,2181 798,2056 791,1814 732,1755 530,1605 490,1480 360,1362 203,1343 124,1244 0,1179 39,1159 39,858 111,891 255,897 248,838 216,753 275,701 340,733 392,779 464,779 530,760 582,714 654,694 686,635 693,498 634,452 608,406 615,327 628,275 654,255 660,170 791,177 817,223 843,229 928,118 955,7 1020,13 1111,0 1177,59 1255,144 1334,138 1379,164 1425,223 1497,255 1543,327 1576,373 1576,491 1589,557 1687,622 1732,655 1896,668 1987,733 1994,832 1981,963 1889,1094 1870,1172 2040,1179 2197,1140 2301,1107 2321,1061 2432,1054 2465,1107 2537,1041 2609,1048 2641,1192 2602,1244 "/>
   </g>
  </g>
 </g>
</svg>
