<?xml version="1.0" encoding="UTF-8"?>
<!DOCTYPE svg PUBLIC "-//W3C//DTD SVG 1.1//EN" "http://www.w3.org/Graphics/SVG/1.1/DTD/svg11.dtd">
<!-- Creator: CorelDRAW X8 -->
<svg xmlns="http://www.w3.org/2000/svg" xml:space="preserve" width="100%" height="100%" version="1.1" shape-rendering="geometricPrecision" text-rendering="geometricPrecision" image-rendering="optimizeQuality" fill-rule="evenodd" clip-rule="evenodd"
viewBox="0 0 2714 1330"
 xmlns:xlink="http://www.w3.org/1999/xlink">
 <g id="Layer_x0020_1">
  <metadata id="CorelCorpID_0Corel-Layer"/>
  <g id="Layers">
   <g id="India_Districts_selection">
    <polygon fill="#6EA97F" points="1407,1330 1261,1259 1190,1230 1103,1176 974,1184 862,1084 687,988 574,834 495,721 383,692 191,692 108,646 0,504 79,334 121,213 229,200 300,142 641,154 691,158 887,359 1157,354 1182,296 1619,304 1652,63 1661,21 1740,13 1848,0 1848,17 2035,21 2077,113 2164,188 2227,246 2605,304 2668,317 2697,409 2714,488 2664,521 2605,655 2472,1009 2198,1276 1835,1163 1502,1167 "/>
   </g>
  </g>
 </g>
</svg>
