<?xml version="1.0" encoding="UTF-8"?>
<!DOCTYPE svg PUBLIC "-//W3C//DTD SVG 1.1//EN" "http://www.w3.org/Graphics/SVG/1.1/DTD/svg11.dtd">
<!-- Creator: CorelDRAW X8 -->
<svg xmlns="http://www.w3.org/2000/svg" xml:space="preserve" width="100%" height="100%" version="1.1" shape-rendering="geometricPrecision" text-rendering="geometricPrecision" image-rendering="optimizeQuality" fill-rule="evenodd" clip-rule="evenodd"
viewBox="0 0 2117 2083"
 xmlns:xlink="http://www.w3.org/1999/xlink">
 <g id="Layer_x0020_1">
  <metadata id="CorelCorpID_0Corel-Layer"/>
  <g id="Layers">
   <g id="India_Districts_selection">
    <polygon fill="#6EA97F" points="2117,849 2081,904 2068,1038 1995,1063 1855,1142 1836,1203 1861,1234 1867,1362 1836,1423 1794,1435 1684,1447 1623,1496 1452,1502 1415,1539 1348,1576 1330,1649 1275,1686 1275,1777 1239,1851 1251,1881 1239,1924 1001,1942 872,2009 744,2083 519,2083 513,1936 708,1802 708,1545 574,1386 537,1185 415,1191 146,1338 0,1368 0,1313 0,1209 31,1154 43,1093 85,1038 159,971 305,965 342,934 360,849 482,690 555,617 574,519 604,470 586,415 561,379 470,336 482,281 488,189 525,153 561,128 561,0 696,49 915,55 1031,189 994,226 1007,293 1147,373 1184,403 1330,397 1574,434 1800,458 1861,568 2019,623 2099,666 2099,751 2044,794 "/>
   </g>
  </g>
 </g>
</svg>
