<?xml version="1.0" encoding="UTF-8"?>
<!DOCTYPE svg PUBLIC "-//W3C//DTD SVG 1.1//EN" "http://www.w3.org/Graphics/SVG/1.1/DTD/svg11.dtd">
<!-- Creator: CorelDRAW X8 -->
<svg xmlns="http://www.w3.org/2000/svg" xml:space="preserve" width="100%" height="100%" version="1.1" shape-rendering="geometricPrecision" text-rendering="geometricPrecision" image-rendering="optimizeQuality" fill-rule="evenodd" clip-rule="evenodd"
viewBox="0 0 2341 2083"
 xmlns:xlink="http://www.w3.org/1999/xlink">
 <g id="Layer_x0020_1">
  <metadata id="CorelCorpID_0Corel-Layer"/>
  <g id="Layers">
   <g id="India_Districts_selection">
    <polygon fill="#6EA97F" points="2341,1502 2268,1600 2122,1649 1969,1728 1829,1954 1591,2052 1469,2083 1414,2052 1207,1838 957,1838 884,1753 854,1796 768,1838 500,1802 512,1686 622,1606 701,1478 811,1283 488,1264 152,1252 98,1209 104,1093 37,965 0,898 49,770 73,715 116,629 317,586 530,580 555,507 518,403 488,342 463,257 518,263 628,220 628,116 744,116 780,153 854,257 927,336 957,305 1073,183 1189,140 1305,43 1396,0 1610,43 1738,104 1750,257 1713,299 1725,403 2231,409 2207,440 2207,629 2274,739 2292,1441 "/>
   </g>
  </g>
 </g>
</svg>
