<?xml version="1.0" encoding="UTF-8"?>
<!DOCTYPE svg PUBLIC "-//W3C//DTD SVG 1.1//EN" "http://www.w3.org/Graphics/SVG/1.1/DTD/svg11.dtd">
<!-- Creator: CorelDRAW X8 -->
<svg xmlns="http://www.w3.org/2000/svg" xml:space="preserve" width="100%" height="100%" version="1.1" shape-rendering="geometricPrecision" text-rendering="geometricPrecision" image-rendering="optimizeQuality" fill-rule="evenodd" clip-rule="evenodd"
viewBox="0 0 2247 1932"
 xmlns:xlink="http://www.w3.org/1999/xlink">
 <g id="Layer_x0020_1">
  <metadata id="CorelCorpID_0Corel-Layer"/>
  <g id="Layers">
   <g id="India_Districts_selection">
    <polygon fill="#6EA97F" points="0,1626 62,1558 164,1400 147,1309 170,1252 215,1167 215,1020 226,918 266,776 294,669 294,606 357,499 396,493 458,402 549,317 566,244 623,164 662,68 645,11 691,0 855,11 996,68 1126,193 1421,340 1551,408 1551,453 1726,493 1823,595 2043,771 2151,918 2247,1048 2179,1150 2140,1218 2094,1235 2049,1303 2004,1354 1800,1377 1670,1354 1579,1337 1472,1337 1449,1354 1200,1366 1194,1411 1126,1434 985,1536 894,1587 872,1700 877,1762 775,1881 691,1932 521,1932 379,1790 340,1751 238,1717 136,1672 74,1649 "/>
   </g>
  </g>
 </g>
</svg>
