<?xml version="1.0" encoding="UTF-8"?>
<!DOCTYPE svg PUBLIC "-//W3C//DTD SVG 1.1//EN" "http://www.w3.org/Graphics/SVG/1.1/DTD/svg11.dtd">
<!-- Creator: CorelDRAW X8 -->
<svg xmlns="http://www.w3.org/2000/svg" xml:space="preserve" width="100%" height="100%" version="1.1" shape-rendering="geometricPrecision" text-rendering="geometricPrecision" image-rendering="optimizeQuality" fill-rule="evenodd" clip-rule="evenodd"
viewBox="0 0 2275 2384"
 xmlns:xlink="http://www.w3.org/1999/xlink">
 <g id="Layer_x0020_1">
  <metadata id="CorelCorpID_0Corel-Layer"/>
  <g id="Layers">
   <g id="India_Districts_selection">
    <polygon fill="#6EA97F" points="1912,2272 1877,2314 1786,2342 1717,2384 1619,2370 1535,2335 1396,2279 1319,2244 1305,2216 1305,2118 1256,1999 1312,1964 1347,1845 1326,1664 1298,1608 1117,1468 803,1454 719,1412 684,1342 635,1356 509,1433 384,1440 300,1391 314,1321 265,1286 258,1021 188,993 84,923 84,797 126,776 105,629 0,601 7,468 98,468 195,377 321,301 447,259 551,203 635,119 705,56 803,0 928,0 1033,147 1110,287 1172,391 1256,419 1340,391 1396,343 1451,315 1577,301 1668,350 1745,357 1773,336 1793,405 1786,566 1738,622 1752,748 1961,846 2163,867 2275,909 2261,1056 2212,1265 2184,1349 1975,1349 1961,1594 2003,1650 2003,1852 1884,1922 1898,2265 "/>
   </g>
  </g>
 </g>
</svg>
