<?xml version="1.0" encoding="UTF-8"?>
<!DOCTYPE svg PUBLIC "-//W3C//DTD SVG 1.1//EN" "http://www.w3.org/Graphics/SVG/1.1/DTD/svg11.dtd">
<!-- Creator: CorelDRAW X8 -->
<svg xmlns="http://www.w3.org/2000/svg" xml:space="preserve" width="100%" height="100%" version="1.1" shape-rendering="geometricPrecision" text-rendering="geometricPrecision" image-rendering="optimizeQuality" fill-rule="evenodd" clip-rule="evenodd"
viewBox="0 0 876 1481"
 xmlns:xlink="http://www.w3.org/1999/xlink">
 <g id="Layer_x0020_1">
  <metadata id="CorelCorpID_0Corel-Layer"/>
  <g id="Layers">
   <g id="India_Districts_selection">
    <polygon fill="#6EA97F" points="611,1450 351,1481 273,1433 208,1394 191,1394 234,1381 147,1272 78,1103 52,994 39,942 0,842 13,738 13,734 17,682 69,530 65,291 35,104 69,69 160,0 160,122 230,148 317,208 369,330 460,439 538,551 590,590 577,604 642,729 729,842 729,986 828,1042 867,1072 876,1233 807,1276 "/>
   </g>
  </g>
 </g>
</svg>
