<?xml version="1.0" encoding="UTF-8"?>
<!DOCTYPE svg PUBLIC "-//W3C//DTD SVG 1.1//EN" "http://www.w3.org/Graphics/SVG/1.1/DTD/svg11.dtd">
<!-- Creator: CorelDRAW X8 -->
<svg xmlns="http://www.w3.org/2000/svg" xml:space="preserve" width="100%" height="100%" version="1.1" shape-rendering="geometricPrecision" text-rendering="geometricPrecision" image-rendering="optimizeQuality" fill-rule="evenodd" clip-rule="evenodd"
viewBox="0 0 2325 2384"
 xmlns:xlink="http://www.w3.org/1999/xlink">
 <g id="Layer_x0020_1">
  <metadata id="CorelCorpID_0Corel-Layer"/>
  <g id="Layers">
   <g id="India_Districts_selection">
    <polygon fill="#6EA97F" points="2277,629 2297,734 2325,713 2284,839 2318,1070 2221,1216 2102,1307 1892,1391 1739,1398 1662,1405 1585,1524 1418,1482 1271,1482 1159,1608 1103,1741 1110,1818 1089,1811 901,1825 622,2055 594,2167 517,2223 412,2265 384,2335 182,2384 84,2384 98,2237 168,1908 196,1608 223,1461 154,1223 70,1098 0,965 56,846 175,790 321,699 447,510 531,440 601,175 733,0 803,84 894,238 999,405 1020,482 1096,769 1236,825 1362,839 1501,818 1655,671 1795,636 1976,475 2074,482 2242,636 "/>
   </g>
  </g>
 </g>
</svg>
