<?xml version="1.0" encoding="UTF-8"?>
<!DOCTYPE svg PUBLIC "-//W3C//DTD SVG 1.1//EN" "http://www.w3.org/Graphics/SVG/1.1/DTD/svg11.dtd">
<!-- Creator: CorelDRAW X8 -->
<svg xmlns="http://www.w3.org/2000/svg" xml:space="preserve" width="100%" height="100%" version="1.1" shape-rendering="geometricPrecision" text-rendering="geometricPrecision" image-rendering="optimizeQuality" fill-rule="evenodd" clip-rule="evenodd"
viewBox="0 0 3478 2233"
 xmlns:xlink="http://www.w3.org/1999/xlink">
 <g id="Layer_x0020_1">
  <metadata id="CorelCorpID_0Corel-Layer"/>
  <g id="Layers">
   <g id="India_Districts_selection">
    <polygon fill="#6EA97F" points="2733,52 2667,255 2622,301 2863,301 2922,472 3040,616 3125,688 3288,714 3334,851 3295,1107 3334,1192 3471,1271 3478,1388 3321,1408 3243,1493 3164,1591 3158,2037 3158,2069 2667,2076 2367,2089 2340,2200 2105,2233 1935,2128 1759,2056 1549,1991 1281,1939 1046,1873 824,1834 745,1781 549,1735 451,1716 464,1447 366,1146 216,937 85,786 7,472 0,399 177,380 811,393 824,295 1046,308 1340,308 1621,295 1654,151 2380,164 2491,105 2563,0 2733,13 "/>
   </g>
  </g>
 </g>
</svg>
