<?xml version="1.0" encoding="UTF-8"?>
<!DOCTYPE svg PUBLIC "-//W3C//DTD SVG 1.1//EN" "http://www.w3.org/Graphics/SVG/1.1/DTD/svg11.dtd">
<!-- Creator: CorelDRAW X8 -->
<svg xmlns="http://www.w3.org/2000/svg" xml:space="preserve" width="100%" height="100%" version="1.1" shape-rendering="geometricPrecision" text-rendering="geometricPrecision" image-rendering="optimizeQuality" fill-rule="evenodd" clip-rule="evenodd"
viewBox="0 0 2146 2083"
 xmlns:xlink="http://www.w3.org/1999/xlink">
 <g id="Layer_x0020_1">
  <metadata id="CorelCorpID_0Corel-Layer"/>
  <g id="Layers">
   <g id="India_Districts_selection">
    <polygon fill="#6EA97F" points="1408,6 1396,55 1439,116 1573,171 1756,244 1866,342 2085,476 2146,580 2140,641 2049,690 1994,715 1957,806 1658,831 1567,953 1421,1075 1402,1154 1433,1246 1500,1344 1463,1399 1396,1490 896,1515 701,1643 604,1771 610,1997 476,2046 244,2083 238,2058 152,1625 104,1215 6,1051 0,886 122,757 341,727 512,647 683,550 787,440 878,244 951,98 1110,18 1335,0 "/>
   </g>
  </g>
 </g>
</svg>
