<?xml version="1.0" encoding="UTF-8"?>
<!DOCTYPE svg PUBLIC "-//W3C//DTD SVG 1.1//EN" "http://www.w3.org/Graphics/SVG/1.1/DTD/svg11.dtd">
<!-- Creator: CorelDRAW X8 -->
<svg xmlns="http://www.w3.org/2000/svg" xml:space="preserve" width="100%" height="100%" version="1.1" shape-rendering="geometricPrecision" text-rendering="geometricPrecision" image-rendering="optimizeQuality" fill-rule="evenodd" clip-rule="evenodd"
viewBox="0 0 3638 2050"
 xmlns:xlink="http://www.w3.org/1999/xlink">
 <g id="Layer_x0020_1">
  <metadata id="CorelCorpID_0Corel-Layer"/>
  <g id="Layers">
   <g id="India_Districts_selection">
    <polygon fill="#6EA97F" points="3638,1395 3620,1455 3578,1479 3560,1527 3464,1515 3476,1569 3320,1581 3200,1575 3146,1617 3098,1653 3050,1695 3008,1737 2918,1785 2948,1821 2966,1899 2930,1936 2888,1978 2840,2008 2720,2032 2612,2050 2612,1954 2576,1851 2546,1779 2504,1761 2432,1701 2420,1635 2324,1641 2137,1635 2029,1671 2023,1701 1975,1725 1855,1749 1765,1797 1705,1857 1621,1942 1435,1905 1399,1851 1399,1761 1327,1707 1243,1677 1237,1581 1285,1479 1321,1407 1249,1358 1237,1274 1165,1304 961,1268 931,1178 901,1136 865,1052 847,998 805,938 744,920 696,878 630,860 594,799 486,751 426,721 312,709 210,625 180,553 174,421 66,409 6,331 0,150 66,78 66,42 102,48 192,48 216,102 252,126 342,198 492,204 564,210 612,240 660,258 775,295 841,270 865,192 901,180 919,84 997,54 1183,36 1225,0 1417,6 1477,66 1447,120 1393,144 1381,204 1333,295 1333,451 1351,499 1483,499 1495,439 1555,445 1585,361 1705,349 1759,301 1957,307 2005,397 2119,391 2137,391 2137,499 2179,595 2287,643 2336,775 2378,908 2414,980 2462,1160 2540,1244 2738,1274 2876,1244 2930,1184 3020,1112 3224,1118 3356,1148 3494,1208 3602,1298 "/>
   </g>
  </g>
 </g>
</svg>
