<?xml version="1.0" encoding="UTF-8"?>
<!DOCTYPE svg PUBLIC "-//W3C//DTD SVG 1.1//EN" "http://www.w3.org/Graphics/SVG/1.1/DTD/svg11.dtd">
<!-- Creator: CorelDRAW X8 -->
<svg xmlns="http://www.w3.org/2000/svg" xml:space="preserve" width="100%" height="100%" version="1.1" shape-rendering="geometricPrecision" text-rendering="geometricPrecision" image-rendering="optimizeQuality" fill-rule="evenodd" clip-rule="evenodd"
viewBox="0 0 3056 1631"
 xmlns:xlink="http://www.w3.org/1999/xlink">
 <g id="Layer_x0020_1">
  <metadata id="CorelCorpID_0Corel-Layer"/>
  <g id="Layers">
   <g id="India_Districts_selection">
    <polygon fill="#6EA97F" points="3056,1009 3046,1095 2879,1234 2879,1392 2808,1588 2789,1631 2430,1387 2077,1387 1939,1253 1628,1210 1490,1306 1356,1468 1342,1416 1031,1335 907,1009 759,842 597,789 540,574 458,464 258,450 162,450 0,421 24,206 105,57 177,177 420,96 621,14 812,0 1070,124 1356,191 1666,220 1762,148 1939,191 1996,273 2130,397 2225,287 2344,177 2660,163 2851,234 2874,407 2946,560 2865,708 2932,832 "/>
   </g>
  </g>
 </g>
</svg>
