<?xml version="1.0" encoding="UTF-8"?>
<!DOCTYPE svg PUBLIC "-//W3C//DTD SVG 1.1//EN" "http://www.w3.org/Graphics/SVG/1.1/DTD/svg11.dtd">
<!-- Creator: CorelDRAW X8 -->
<svg xmlns="http://www.w3.org/2000/svg" xml:space="preserve" width="100%" height="100%" version="1.1" shape-rendering="geometricPrecision" text-rendering="geometricPrecision" image-rendering="optimizeQuality" fill-rule="evenodd" clip-rule="evenodd"
viewBox="0 0 1019 1932"
 xmlns:xlink="http://www.w3.org/1999/xlink">
 <g id="Layer_x0020_1">
  <metadata id="CorelCorpID_0Corel-Layer"/>
  <g id="Layers">
   <g id="India_Districts_selection">
    <polygon fill="#6EA97F" points="736,618 741,629 724,680 747,742 753,844 753,929 719,958 707,986 696,1043 707,1082 724,1167 770,1230 798,1292 889,1303 934,1315 968,1337 973,1541 1002,1592 1019,1643 951,1689 934,1717 877,1734 855,1739 838,1785 781,1807 736,1853 702,1870 690,1921 685,1932 657,1921 413,1881 147,1807 158,1485 79,1377 85,1298 119,1235 68,929 6,856 51,646 45,482 0,317 357,244 475,119 464,0 572,0 589,28 611,57 623,96 651,130 673,176 685,227 685,589 707,618 730,618 "/>
   </g>
  </g>
 </g>
</svg>
