<?xml version="1.0" encoding="UTF-8"?>
<!DOCTYPE svg PUBLIC "-//W3C//DTD SVG 1.1//EN" "http://www.w3.org/Graphics/SVG/1.1/DTD/svg11.dtd">
<!-- Creator: CorelDRAW X8 -->
<svg xmlns="http://www.w3.org/2000/svg" xml:space="preserve" width="100%" height="100%" version="1.1" shape-rendering="geometricPrecision" text-rendering="geometricPrecision" image-rendering="optimizeQuality" fill-rule="evenodd" clip-rule="evenodd"
viewBox="0 0 3390 1651"
 xmlns:xlink="http://www.w3.org/1999/xlink">
 <g id="Layer_x0020_1">
  <metadata id="CorelCorpID_0Corel-Layer"/>
  <g id="Layers">
   <g id="India_Districts_selection">
    <polygon fill="#6EA97F" points="3390,1432 3353,1458 3036,1474 3005,1521 2901,1531 2802,1401 2693,1396 2610,1302 2547,1364 2495,1458 2391,1458 2319,1515 2303,1562 2225,1583 1846,1609 1638,1651 1560,1594 1430,1463 1326,1557 1055,1599 983,1458 873,1458 795,1578 665,1583 390,1578 234,1401 109,1161 26,1057 0,922 161,797 348,599 359,641 593,630 899,542 967,463 962,422 1029,422 1206,411 1305,344 1409,297 1846,234 1892,151 2027,68 2116,0 2241,21 2371,151 2464,214 2594,281 2532,375 2579,469 2890,448 2948,661 2994,838 2979,922 3109,1021 3161,1125 3213,1213 3286,1307 3327,1396 "/>
   </g>
  </g>
 </g>
</svg>
