<?xml version="1.0" encoding="UTF-8"?>
<!DOCTYPE svg PUBLIC "-//W3C//DTD SVG 1.1//EN" "http://www.w3.org/Graphics/SVG/1.1/DTD/svg11.dtd">
<!-- Creator: CorelDRAW X8 -->
<svg xmlns="http://www.w3.org/2000/svg" xml:space="preserve" width="100%" height="100%" version="1.1" shape-rendering="geometricPrecision" text-rendering="geometricPrecision" image-rendering="optimizeQuality" fill-rule="evenodd" clip-rule="evenodd"
viewBox="0 0 2308 1932"
 xmlns:xlink="http://www.w3.org/1999/xlink">
 <g id="Layer_x0020_1">
  <metadata id="CorelCorpID_0Corel-Layer"/>
  <g id="Layers">
   <g id="India_Districts_selection">
    <polygon fill="#6EA97F" points="1589,113 1589,119 1527,221 1244,374 1126,476 1137,578 1256,674 1471,742 1538,822 1748,833 2076,816 2132,907 2172,1184 2285,1411 2308,1468 2279,1558 2206,1632 2138,1689 2036,1694 1991,1745 1872,1739 1680,1785 1589,1847 1527,1932 1471,1932 1442,1932 1307,1847 1188,1723 1137,1621 701,1638 492,1626 396,1762 68,1762 0,1717 34,1711 40,1445 141,1298 204,867 464,578 537,425 537,244 594,164 594,85 724,74 735,17 1092,0 1205,147 "/>
   </g>
  </g>
 </g>
</svg>
