<?xml version="1.0" encoding="UTF-8"?>
<!DOCTYPE svg PUBLIC "-//W3C//DTD SVG 1.1//EN" "http://www.w3.org/Graphics/SVG/1.1/DTD/svg11.dtd">
<!-- Creator: CorelDRAW X8 -->
<svg xmlns="http://www.w3.org/2000/svg" xml:space="preserve" width="100%" height="100%" version="1.1" shape-rendering="geometricPrecision" text-rendering="geometricPrecision" image-rendering="optimizeQuality" fill-rule="evenodd" clip-rule="evenodd"
viewBox="0 0 1585 2083"
 xmlns:xlink="http://www.w3.org/1999/xlink">
 <g id="Layer_x0020_1">
  <metadata id="CorelCorpID_0Corel-Layer"/>
  <g id="Layers">
   <g id="India_Districts_selection">
    <polygon fill="#6EA97F" points="1524,1991 1488,2022 1402,2022 1341,1991 1177,2016 1128,2052 1030,2046 1018,2083 976,2083 969,2052 921,2028 896,1973 835,1973 780,1936 695,1918 671,1936 646,1967 616,1997 579,2022 537,2040 476,2052 469,2022 421,2022 366,2034 280,1985 219,1991 171,1973 134,1906 165,1851 152,1759 183,1637 250,1631 311,1594 372,1527 390,1423 341,1374 305,1307 293,1246 244,1215 213,1167 171,1112 140,1051 140,928 171,892 189,831 195,788 195,672 165,641 134,605 98,574 43,550 0,501 24,299 49,293 61,232 67,195 104,134 146,79 201,43 238,12 262,0 372,92 537,92 921,86 1061,202 1122,238 1225,177 1354,110 1372,110 1390,226 1366,269 1329,293 1329,360 1305,403 1286,464 1268,513 1262,623 1274,745 1299,818 1329,873 1378,892 1433,904 1457,965 1500,1008 1543,1032 1567,1081 1573,1148 1579,1252 1585,1307 1524,1356 1469,1380 1402,1380 1323,1405 1317,1466 1317,1521 1372,1582 1414,1612 1475,1631 1494,1661 1494,1710 1518,1753 1536,1820 1543,1912 1518,1973 1518,1991 "/>
   </g>
  </g>
 </g>
</svg>
