<?xml version="1.0" encoding="UTF-8"?>
<!DOCTYPE svg PUBLIC "-//W3C//DTD SVG 1.1//EN" "http://www.w3.org/Graphics/SVG/1.1/DTD/svg11.dtd">
<!-- Creator: CorelDRAW X8 -->
<svg xmlns="http://www.w3.org/2000/svg" xml:space="preserve" width="100%" height="100%" version="1.1" shape-rendering="geometricPrecision" text-rendering="geometricPrecision" image-rendering="optimizeQuality" fill-rule="evenodd" clip-rule="evenodd"
viewBox="0 0 1148 1782"
 xmlns:xlink="http://www.w3.org/1999/xlink">
 <g id="Layer_x0020_1">
  <metadata id="CorelCorpID_0Corel-Layer"/>
  <g id="Layers">
   <g id="India_Districts_selection">
    <polygon fill="#6EA97F" points="631,10 647,89 652,371 689,491 736,549 762,669 918,758 1033,862 1070,914 1028,967 929,1076 903,1118 976,1181 1138,1228 1148,1296 1070,1306 945,1358 798,1374 725,1442 689,1531 731,1588 767,1614 736,1651 715,1693 720,1750 663,1755 595,1782 600,1635 548,1546 417,1489 324,1463 193,1385 136,1353 104,1338 99,1066 52,1019 0,982 5,904 0,899 47,893 120,946 219,935 245,883 313,820 376,752 412,752 407,658 350,669 256,637 104,627 57,564 21,549 57,512 120,549 167,559 204,491 130,439 78,366 89,204 110,204 193,146 245,10 386,5 491,26 626,0 631,0 "/>
   </g>
  </g>
 </g>
</svg>
