<?xml version="1.0" encoding="UTF-8"?>
<!DOCTYPE svg PUBLIC "-//W3C//DTD SVG 1.1//EN" "http://www.w3.org/Graphics/SVG/1.1/DTD/svg11.dtd">
<!-- Creator: CorelDRAW X8 -->
<svg xmlns="http://www.w3.org/2000/svg" xml:space="preserve" width="100%" height="100%" version="1.1" shape-rendering="geometricPrecision" text-rendering="geometricPrecision" image-rendering="optimizeQuality" fill-rule="evenodd" clip-rule="evenodd"
viewBox="0 0 2014 1782"
 xmlns:xlink="http://www.w3.org/1999/xlink">
 <g id="Layer_x0020_1">
  <metadata id="CorelCorpID_0Corel-Layer"/>
  <g id="Layers">
   <g id="India_Districts_selection">
    <polygon fill="#6EA97F" points="1566,449 1571,533 1602,637 1665,742 1706,799 1712,846 1753,867 1753,904 1665,967 1670,1029 1706,1040 1753,1034 1753,1003 1847,998 1847,1155 1889,1233 1973,1327 2009,1358 2014,1400 1993,1416 1967,1442 1920,1494 1957,1515 1978,1557 1999,1609 1973,1630 1915,1604 1879,1578 1879,1609 1800,1604 1764,1641 1764,1667 1769,1677 1706,1735 1639,1750 1613,1719 1618,1672 1571,1604 1539,1609 1461,1635 1331,1630 1268,1599 1143,1604 1138,1625 903,1625 872,1641 825,1614 772,1599 731,1625 673,1703 584,1729 538,1735 517,1782 464,1776 496,1682 564,1594 553,1515 402,1489 266,1552 219,1536 120,1327 115,1259 162,1186 240,1139 230,1082 172,1040 157,893 52,873 21,893 5,987 0,831 42,831 63,805 57,737 99,721 120,669 157,637 188,627 214,575 261,522 334,444 365,413 397,397 417,361 480,303 475,261 522,256 522,219 543,230 574,209 584,183 647,99 668,47 705,0 741,57 783,110 814,162 835,183 835,235 856,240 861,293 877,308 866,371 835,413 851,428 856,507 898,528 965,543 1075,569 1112,559 1143,543 1232,549 1252,517 1279,491 1258,470 1237,439 1211,397 1237,392 1242,376 1331,371 1326,397 1393,392 1419,381 1430,350 1456,366 1461,428 1498,449 1539,449 "/>
   </g>
  </g>
 </g>
</svg>
