<?xml version="1.0" encoding="UTF-8"?>
<!DOCTYPE svg PUBLIC "-//W3C//DTD SVG 1.1//EN" "http://www.w3.org/Graphics/SVG/1.1/DTD/svg11.dtd">
<!-- Creator: CorelDRAW X8 -->
<svg xmlns="http://www.w3.org/2000/svg" xml:space="preserve" width="100%" height="100%" version="1.1" shape-rendering="geometricPrecision" text-rendering="geometricPrecision" image-rendering="optimizeQuality" fill-rule="evenodd" clip-rule="evenodd"
viewBox="0 0 1464 2233"
 xmlns:xlink="http://www.w3.org/1999/xlink">
 <g id="Layer_x0020_1">
  <metadata id="CorelCorpID_0Corel-Layer"/>
  <g id="Layers">
   <g id="India_Districts_selection">
    <polygon fill="#6EA97F" points="1085,2227 1026,2233 961,2227 915,2194 896,2187 856,2161 798,2142 765,2135 680,2109 654,2128 601,2161 569,2161 523,2161 484,2187 418,2187 333,2187 281,2174 209,2161 177,2115 144,2069 124,2004 92,1978 72,1886 85,1860 111,1808 163,1781 209,1749 242,1735 242,1690 248,1605 281,1605 327,1552 347,1552 340,1519 333,1480 294,1474 281,1454 222,1441 183,1447 163,1467 118,1467 65,1467 33,1441 7,1329 0,1316 0,1284 39,1231 59,1185 59,1120 92,1087 105,1048 98,995 92,943 98,910 124,864 131,845 144,753 163,753 183,727 196,688 209,648 222,596 222,544 242,511 248,458 281,419 307,406 451,399 516,406 549,419 556,445 595,478 634,491 700,478 745,439 771,380 791,341 811,327 830,282 817,255 935,223 987,144 1190,144 1301,26 1301,0 1327,0 1373,0 1406,20 1406,46 1419,65 1425,118 1451,131 1451,190 1445,262 1425,295 1406,334 1419,380 1432,413 1445,439 1438,472 1393,511 1366,537 1327,544 1321,596 1347,635 1360,832 1353,1087 1419,1120 1412,1146 1347,1133 1281,1153 1255,1192 1249,1277 1262,1310 1288,1323 1294,1362 1262,1369 1275,1441 1301,1454 1308,1487 1366,1487 1327,1500 1366,1539 1399,1559 1432,1585 1451,1598 1458,1591 1464,1605 1425,1631 1399,1663 1366,1677 1340,1709 1301,1722 1321,1755 1301,1762 1268,1781 1236,1808 1157,1814 1124,1814 1111,1932 1131,1958 1144,1958 1138,2004 1092,2011 1098,2076 1092,2115 1092,2161 1066,2168 1079,2220 "/>
   </g>
  </g>
 </g>
</svg>
