<?xml version="1.0" encoding="UTF-8"?>
<!DOCTYPE svg PUBLIC "-//W3C//DTD SVG 1.1//EN" "http://www.w3.org/Graphics/SVG/1.1/DTD/svg11.dtd">
<!-- Creator: CorelDRAW X8 -->
<svg xmlns="http://www.w3.org/2000/svg" xml:space="preserve" width="100%" height="100%" version="1.1" shape-rendering="geometricPrecision" text-rendering="geometricPrecision" image-rendering="optimizeQuality" fill-rule="evenodd" clip-rule="evenodd"
viewBox="0 0 2084 1330"
 xmlns:xlink="http://www.w3.org/1999/xlink">
 <g id="Layer_x0020_1">
  <metadata id="CorelCorpID_0Corel-Layer"/>
  <g id="Layers">
   <g id="India_Districts_selection">
    <polygon fill="#6EA97F" points="2034,991 1995,1010 1983,1041 1964,1026 1878,1154 1796,1154 1757,1174 1749,1232 1691,1268 1613,1264 1582,1330 1508,1314 1488,1186 1438,1139 1426,1096 1352,1092 1340,1069 1184,889 1048,905 1005,952 639,952 627,905 542,831 242,839 214,823 4,593 0,538 27,515 113,515 121,538 195,550 199,573 261,581 351,488 600,484 655,445 686,363 709,296 775,328 779,347 947,347 1025,293 1145,293 1200,203 1220,98 1243,43 1286,8 1375,0 1387,16 1473,35 1508,59 1781,59 1851,144 1901,144 1932,90 1983,78 1999,51 2084,51 2061,105 1979,339 1932,523 1921,749 1979,846 "/>
   </g>
  </g>
 </g>
</svg>
