<?xml version="1.0" encoding="UTF-8"?>
<!DOCTYPE svg PUBLIC "-//W3C//DTD SVG 1.1//EN" "http://www.w3.org/Graphics/SVG/1.1/DTD/svg11.dtd">
<!-- Creator: CorelDRAW X8 -->
<svg xmlns="http://www.w3.org/2000/svg" xml:space="preserve" width="100%" height="100%" version="1.1" shape-rendering="geometricPrecision" text-rendering="geometricPrecision" image-rendering="optimizeQuality" fill-rule="evenodd" clip-rule="evenodd"
viewBox="0 0 2203 2986"
 xmlns:xlink="http://www.w3.org/1999/xlink">
 <g id="Layer_x0020_1">
  <metadata id="CorelCorpID_0Corel-Layer"/>
  <g id="Layers">
   <g id="India_Districts_selection">
    <polygon fill="#6EA97F" points="2194,306 2203,403 2124,464 1975,482 1836,517 1731,604 1678,683 1687,788 1661,841 1626,867 1626,1007 1565,1103 1538,1200 1425,1331 1399,1392 1469,1445 1469,1760 1495,1821 1521,1830 1521,1926 1442,1988 1364,2058 1311,2102 1381,2145 1399,2242 1364,2294 1364,2539 1302,2601 1189,2644 1171,2671 1163,2653 1084,2697 1023,2732 962,2723 944,2758 874,2793 848,2855 760,2907 717,2925 656,2933 629,2986 437,2977 428,2960 367,2960 358,2916 332,2881 245,2881 262,2837 227,2811 219,2644 262,2539 210,2452 79,2443 44,2408 0,2355 0,2294 26,2259 96,2259 105,2294 201,2285 236,2233 288,2163 323,2075 332,2014 385,1944 402,1883 455,1830 516,1804 559,1778 647,1646 664,1585 717,1550 664,1489 594,1489 568,1445 568,1296 577,1261 612,1208 647,1165 647,1103 594,1077 586,1007 621,989 647,954 647,893 664,806 691,753 717,727 743,683 752,639 743,604 813,525 883,517 962,482 1023,420 1128,377 1145,333 1206,263 1233,184 1294,114 1294,61 1311,18 1364,0 1355,18 1460,79 1495,70 1495,18 1556,26 1739,158 1914,175 1975,280 "/>
   </g>
  </g>
 </g>
</svg>
