<?xml version="1.0" encoding="UTF-8"?>
<!DOCTYPE svg PUBLIC "-//W3C//DTD SVG 1.1//EN" "http://www.w3.org/Graphics/SVG/1.1/DTD/svg11.dtd">
<!-- Creator: CorelDRAW X8 -->
<svg xmlns="http://www.w3.org/2000/svg" xml:space="preserve" width="100%" height="100%" version="1.1" shape-rendering="geometricPrecision" text-rendering="geometricPrecision" image-rendering="optimizeQuality" fill-rule="evenodd" clip-rule="evenodd"
viewBox="0 0 1979 1330"
 xmlns:xlink="http://www.w3.org/1999/xlink">
 <g id="Layer_x0020_1">
  <metadata id="CorelCorpID_0Corel-Layer"/>
  <g id="Layers">
   <g id="India_Districts_selection">
    <polygon fill="#6EA97F" points="1979,1143 1971,1166 1909,1221 1878,1275 1815,1303 1765,1268 1726,1264 1632,1205 1582,1201 1574,1318 1488,1330 1476,1299 1325,1295 1317,1268 1118,1264 1099,1240 1001,1193 565,1197 292,1213 257,1084 70,952 19,753 0,550 277,355 709,51 1052,0 1040,152 1032,332 1165,445 1239,527 1383,597 1512,675 1582,722 1609,788 1683,788 1765,885 1897,1041 1963,1143 "/>
   </g>
  </g>
 </g>
</svg>
