<?xml version="1.0" encoding="UTF-8"?>
<!DOCTYPE svg PUBLIC "-//W3C//DTD SVG 1.1//EN" "http://www.w3.org/Graphics/SVG/1.1/DTD/svg11.dtd">
<!-- Creator: CorelDRAW X8 -->
<svg xmlns="http://www.w3.org/2000/svg" xml:space="preserve" width="100%" height="100%" version="1.1" shape-rendering="geometricPrecision" text-rendering="geometricPrecision" image-rendering="optimizeQuality" fill-rule="evenodd" clip-rule="evenodd"
viewBox="0 0 2975 1782"
 xmlns:xlink="http://www.w3.org/1999/xlink">
 <g id="Layer_x0020_1">
  <metadata id="CorelCorpID_0Corel-Layer"/>
  <g id="Layers">
   <g id="India_Districts_selection">
    <polygon fill="#6EA97F" points="616,1782 584,1766 527,1735 480,1708 449,1693 397,1693 360,1630 318,1620 240,1625 193,1599 167,1567 141,1531 130,1484 73,1468 0,1421 0,1400 110,1385 136,1358 245,1364 250,1338 324,1322 324,1296 428,1301 459,1332 725,1332 731,1301 856,1296 871,1259 908,1264 882,1186 882,940 856,930 840,883 798,904 647,899 595,930 574,961 564,946 506,935 449,909 423,888 417,841 470,815 470,731 506,726 511,700 647,700 668,679 694,648 710,632 882,632 903,606 1038,585 1038,564 1117,559 1127,475 1132,465 1258,475 1336,470 1357,423 1419,434 1435,397 1539,397 1571,345 1639,334 1722,324 1753,313 1858,313 1926,266 1962,230 1988,193 2004,172 2020,125 2035,104 2040,78 2114,47 2150,37 2187,10 2343,0 2385,42 2411,63 2458,110 2500,157 2531,204 2552,246 2552,282 2583,313 2604,387 2625,460 2656,502 2719,543 2781,590 2813,648 2860,679 2933,711 2975,737 2975,899 2933,899 2823,899 2771,951 2703,961 2661,920 2599,878 2583,862 2557,873 2474,893 2421,893 2395,857 2327,825 2270,825 2249,846 2207,888 2166,909 2134,930 2129,972 2103,1014 2061,1019 2072,1071 2030,1097 1978,1097 1947,1123 1900,1129 1873,1202 1832,1202 1821,1160 1800,1123 1738,1134 1722,1165 1712,1186 1602,1191 1529,1202 1513,1249 1550,1296 1555,1343 1545,1390 1472,1432 1461,1442 1252,1437 1091,1458 997,1557 767,1625 "/>
   </g>
  </g>
 </g>
</svg>
