<?xml version="1.0" encoding="UTF-8"?>
<!DOCTYPE svg PUBLIC "-//W3C//DTD SVG 1.1//EN" "http://www.w3.org/Graphics/SVG/1.1/DTD/svg11.dtd">
<!-- Creator: CorelDRAW X8 -->
<svg xmlns="http://www.w3.org/2000/svg" xml:space="preserve" width="100%" height="100%" version="1.1" shape-rendering="geometricPrecision" text-rendering="geometricPrecision" image-rendering="optimizeQuality" fill-rule="evenodd" clip-rule="evenodd"
viewBox="0 0 1791 2233"
 xmlns:xlink="http://www.w3.org/1999/xlink">
 <g id="Layer_x0020_1">
  <metadata id="CorelCorpID_0Corel-Layer"/>
  <g id="Layers">
   <g id="India_Districts_selection">
    <polygon fill="#6EA97F" points="1294,118 1281,157 1294,196 1360,275 1445,314 1530,334 1647,308 1772,308 1791,347 1732,399 1732,537 1706,570 1608,570 1602,583 1484,596 1451,609 1386,609 1353,655 1340,694 1360,766 1412,845 1451,950 1478,1002 1510,1061 1497,1067 1458,1107 1438,1290 1340,1349 1327,1500 1190,1513 1151,1598 1170,1663 1079,1690 1007,1735 961,1853 863,1932 798,1965 732,1971 706,2043 654,2109 569,2161 484,2194 405,2233 320,2161 235,2056 124,1991 13,1991 13,1919 0,1814 52,1768 92,1742 196,1663 209,1572 242,1487 209,1382 190,1271 209,1192 209,1133 105,1094 105,1048 157,976 85,897 20,871 20,812 85,766 157,701 170,622 196,524 288,498 347,426 418,399 445,308 484,249 562,236 667,131 713,0 765,7 948,170 1209,157 1249,144 "/>
   </g>
  </g>
 </g>
</svg>
