<?xml version="1.0" encoding="UTF-8"?>
<!DOCTYPE svg PUBLIC "-//W3C//DTD SVG 1.1//EN" "http://www.w3.org/Graphics/SVG/1.1/DTD/svg11.dtd">
<!-- Creator: CorelDRAW X8 -->
<svg xmlns="http://www.w3.org/2000/svg" xml:space="preserve" width="100%" height="100%" version="1.1" shape-rendering="geometricPrecision" text-rendering="geometricPrecision" image-rendering="optimizeQuality" fill-rule="evenodd" clip-rule="evenodd"
viewBox="0 0 9696 5595"
 xmlns:xlink="http://www.w3.org/1999/xlink">
 <g id="Layer_x0020_1">
  <metadata id="CorelCorpID_0Corel-Layer"/>
  <g id="Layers">
   <g id="India_Districts_selection">
    <polygon fill="#6EA97F" points="5028,5447 4995,5250 4897,4676 4995,4184 4930,3987 4520,3938 4340,4003 4013,4069 3489,4266 3276,4217 2801,4102 2555,3806 2031,3150 1228,3117 835,2871 360,2855 0,2379 491,1739 2686,656 3718,164 3783,0 4193,82 5159,98 5601,213 5896,558 7387,492 7665,656 8386,722 8599,558 9074,673 9221,968 9532,1198 9581,1591 9696,1936 9434,2412 9156,2707 9418,2855 9647,2953 9237,3577 8664,4003 8910,4331 9172,4709 8320,5431 7927,5595 7747,5365 7567,5234 7403,5234 7190,5053 7010,4873 6748,4873 6617,4922 6502,4955 5847,5070 5651,5185 5143,5365 "/>
   </g>
  </g>
 </g>
</svg>
