<?xml version="1.0" encoding="UTF-8"?>
<!DOCTYPE svg PUBLIC "-//W3C//DTD SVG 1.1//EN" "http://www.w3.org/Graphics/SVG/1.1/DTD/svg11.dtd">
<!-- Creator: CorelDRAW X8 -->
<svg xmlns="http://www.w3.org/2000/svg" xml:space="preserve" width="100%" height="100%" version="1.1" shape-rendering="geometricPrecision" text-rendering="geometricPrecision" image-rendering="optimizeQuality" fill-rule="evenodd" clip-rule="evenodd"
viewBox="0 0 2811 2233"
 xmlns:xlink="http://www.w3.org/1999/xlink">
 <g id="Layer_x0020_1">
  <metadata id="CorelCorpID_0Corel-Layer"/>
  <g id="Layers">
   <g id="India_Districts_selection">
    <polygon fill="#6EA97F" points="2582,458 2680,701 2811,1218 2785,1827 2792,1991 2772,2004 2334,2233 2138,2174 1948,2069 1778,2050 1419,2194 811,2135 582,2069 628,1919 654,1644 628,1310 425,1244 346,923 170,694 0,596 46,517 216,301 163,295 294,210 353,111 634,0 896,242 1438,452 1719,576 1994,642 2295,498 2497,472 "/>
   </g>
  </g>
 </g>
</svg>
