<?xml version="1.0" encoding="UTF-8"?>
<!DOCTYPE svg PUBLIC "-//W3C//DTD SVG 1.1//EN" "http://www.w3.org/Graphics/SVG/1.1/DTD/svg11.dtd">
<!-- Creator: CorelDRAW X8 -->
<svg xmlns="http://www.w3.org/2000/svg" xml:space="preserve" width="100%" height="100%" version="1.1" shape-rendering="geometricPrecision" text-rendering="geometricPrecision" image-rendering="optimizeQuality" fill-rule="evenodd" clip-rule="evenodd"
viewBox="0 0 1745 2083"
 xmlns:xlink="http://www.w3.org/1999/xlink">
 <g id="Layer_x0020_1">
  <metadata id="CorelCorpID_0Corel-Layer"/>
  <g id="Layers">
   <g id="India_Districts_selection">
    <polygon fill="#6EA97F" points="1745,1252 1714,1252 1604,1307 1446,1380 1287,1411 1147,1386 1092,1325 982,1252 787,1283 744,1319 647,1411 537,1502 427,1564 348,1704 275,1912 250,2028 207,2083 122,2077 73,2016 43,1924 6,1759 6,1619 0,1527 61,1460 128,1356 140,1270 116,1191 55,1191 159,1032 159,965 201,867 110,776 171,727 171,605 409,592 427,324 458,311 482,232 641,110 732,49 775,6 830,18 933,0 970,49 976,128 1013,171 1251,208 1348,269 1354,385 1403,470 1495,531 1489,617 1421,708 1385,788 1354,849 1525,873 1672,898 1720,953 "/>
   </g>
  </g>
 </g>
</svg>
