<?xml version="1.0" encoding="UTF-8"?>
<!DOCTYPE svg PUBLIC "-//W3C//DTD SVG 1.1//EN" "http://www.w3.org/Graphics/SVG/1.1/DTD/svg11.dtd">
<!-- Creator: CorelDRAW X8 -->
<svg xmlns="http://www.w3.org/2000/svg" xml:space="preserve" width="100%" height="100%" version="1.1" shape-rendering="geometricPrecision" text-rendering="geometricPrecision" image-rendering="optimizeQuality" fill-rule="evenodd" clip-rule="evenodd"
viewBox="0 0 2116 1481"
 xmlns:xlink="http://www.w3.org/1999/xlink">
 <g id="Layer_x0020_1">
  <metadata id="CorelCorpID_0Corel-Layer"/>
  <g id="Layers">
   <g id="India_Districts_selection">
    <polygon fill="#6EA97F" points="2012,1428 1969,1433 1956,1463 1917,1454 1908,1481 1852,1472 1856,1433 1852,1428 1856,1420 1743,1420 1717,1420 1713,1324 1661,1281 1648,1259 1574,1255 1540,1220 1453,1220 1453,1246 1344,1237 1301,1207 1297,1133 1223,1138 1158,1220 1102,1181 1102,1125 1036,1103 976,1072 924,1059 898,1098 863,1116 863,1133 746,1138 729,1098 525,1094 481,1138 460,1172 425,1177 338,1233 299,1281 217,1172 182,1138 87,1098 87,1029 52,981 26,938 26,894 9,877 0,738 43,699 43,673 100,638 152,547 143,308 243,287 269,243 282,204 330,165 360,109 425,109 455,69 503,26 568,13 598,0 672,30 746,56 859,91 932,109 1015,126 1054,152 1132,152 1193,174 1275,187 1297,213 1444,200 1479,239 1522,326 1583,352 1626,399 1683,447 1717,473 1865,460 1938,369 1991,365 2047,386 2095,417 2116,430 2103,504 2047,569 2047,604 1999,625 2012,699 1908,703 1917,812 1860,803 1852,829 1821,877 1834,973 1873,1003 1982,999 1991,1116 2034,1151 2030,1276 1991,1333 1999,1385 "/>
   </g>
  </g>
 </g>
</svg>
