<?xml version="1.0" encoding="UTF-8"?>
<!DOCTYPE svg PUBLIC "-//W3C//DTD SVG 1.1//EN" "http://www.w3.org/Graphics/SVG/1.1/DTD/svg11.dtd">
<!-- Creator: CorelDRAW X8 -->
<svg xmlns="http://www.w3.org/2000/svg" xml:space="preserve" width="100%" height="100%" version="1.1" shape-rendering="geometricPrecision" text-rendering="geometricPrecision" image-rendering="optimizeQuality" fill-rule="evenodd" clip-rule="evenodd"
viewBox="0 0 2453 1782"
 xmlns:xlink="http://www.w3.org/1999/xlink">
 <g id="Layer_x0020_1">
  <metadata id="CorelCorpID_0Corel-Layer"/>
  <g id="Layers">
   <g id="India_Districts_selection">
    <polygon fill="#6EA97F" points="2453,580 2421,606 2333,611 2327,684 2312,721 2286,773 2150,768 2150,789 2067,794 2061,773 2014,773 1999,711 1952,674 1915,643 1873,632 1842,664 1832,690 1753,684 1748,784 1722,810 1701,820 1660,862 1618,867 1602,883 1498,920 1378,987 1352,1024 1372,1076 1346,1097 1315,1129 1372,1217 1352,1254 1268,1249 1315,1311 1352,1343 1299,1437 1252,1489 1205,1520 1174,1541 1117,1489 945,1473 918,1452 835,1447 835,1468 793,1473 736,1510 689,1573 626,1635 558,1719 558,1771 522,1782 470,1708 407,1672 402,1651 371,1656 371,1630 256,1635 230,1609 209,1594 209,1327 235,1207 167,1129 84,1092 57,1061 31,967 0,909 68,862 78,810 177,700 433,684 485,601 506,455 584,387 579,261 658,199 668,141 684,146 819,141 892,99 960,68 997,94 1065,146 1174,141 1205,172 1299,131 1383,120 1388,21 1435,5 1534,21 1560,57 1660,31 1738,125 1748,146 1952,136 1962,89 1999,84 2046,0 2114,16 2155,63 2192,42 2254,37 2244,89 2228,204 2275,293 2281,428 2401,543 "/>
   </g>
  </g>
 </g>
</svg>
