<?xml version="1.0" encoding="UTF-8"?>
<!DOCTYPE svg PUBLIC "-//W3C//DTD SVG 1.1//EN" "http://www.w3.org/Graphics/SVG/1.1/DTD/svg11.dtd">
<!-- Creator: CorelDRAW X8 -->
<svg xmlns="http://www.w3.org/2000/svg" xml:space="preserve" width="100%" height="100%" version="1.1" shape-rendering="geometricPrecision" text-rendering="geometricPrecision" image-rendering="optimizeQuality" fill-rule="evenodd" clip-rule="evenodd"
viewBox="0 0 1991 1932"
 xmlns:xlink="http://www.w3.org/1999/xlink">
 <g id="Layer_x0020_1">
  <metadata id="CorelCorpID_0Corel-Layer"/>
  <g id="Layers">
   <g id="India_Districts_selection">
    <polygon fill="#6EA97F" points="1951,680 1940,1031 1980,1065 1991,1320 1934,1388 1912,1496 1861,1564 1850,1638 1793,1739 1714,1768 1708,1841 1476,1841 1448,1807 1397,1813 1380,1836 1256,1824 1199,1892 1103,1892 1097,1926 1018,1932 984,1875 979,1581 950,1513 724,1507 650,1422 328,1422 260,1388 187,1366 187,1315 96,1190 130,1133 158,1065 130,1009 124,958 243,946 243,912 305,816 215,703 40,538 102,504 107,425 57,425 0,368 74,351 124,329 130,283 187,215 215,119 226,34 368,34 368,0 786,6 837,51 933,363 1058,374 1273,431 1482,448 1606,567 1725,674 "/>
   </g>
  </g>
 </g>
</svg>
