<?xml version="1.0" encoding="UTF-8"?>
<!DOCTYPE svg PUBLIC "-//W3C//DTD SVG 1.1//EN" "http://www.w3.org/Graphics/SVG/1.1/DTD/svg11.dtd">
<!-- Creator: CorelDRAW X8 -->
<svg xmlns="http://www.w3.org/2000/svg" xml:space="preserve" width="100%" height="100%" version="1.1" shape-rendering="geometricPrecision" text-rendering="geometricPrecision" image-rendering="optimizeQuality" fill-rule="evenodd" clip-rule="evenodd"
viewBox="0 0 2883 1997"
 xmlns:xlink="http://www.w3.org/1999/xlink">
 <g id="Layer_x0020_1">
  <metadata id="CorelCorpID_0Corel-Layer"/>
  <g id="Layers">
   <g id="India_Districts_selection">
    <polygon fill="#6EA97F" points="2883,1136 2831,1136 2784,1224 2749,1282 2714,1376 2714,1499 2696,1522 2690,1651 2731,1704 2696,1780 2737,1891 2720,1932 2620,1944 2620,1997 2556,1985 2515,1885 2427,1833 2269,1833 2205,1780 2187,1803 2182,1803 2094,1739 2158,1686 2158,1587 2065,1540 1883,1470 1807,1341 1544,1317 1246,1265 1076,1276 1029,1241 866,1148 848,1066 895,1019 760,861 497,855 333,796 333,808 310,773 135,755 94,726 0,697 35,609 228,416 509,211 737,117 959,70 971,0 1035,35 1100,29 1269,146 1380,234 1556,334 1661,433 1954,463 2088,509 2217,580 2427,667 2573,697 2673,726 2673,790 2696,913 2731,954 2761,954 2843,1060 "/>
   </g>
  </g>
 </g>
</svg>
