<?xml version="1.0" encoding="UTF-8"?>
<!DOCTYPE svg PUBLIC "-//W3C//DTD SVG 1.1//EN" "http://www.w3.org/Graphics/SVG/1.1/DTD/svg11.dtd">
<!-- Creator: CorelDRAW X8 -->
<svg xmlns="http://www.w3.org/2000/svg" xml:space="preserve" width="100%" height="100%" version="1.1" shape-rendering="geometricPrecision" text-rendering="geometricPrecision" image-rendering="optimizeQuality" fill-rule="evenodd" clip-rule="evenodd"
viewBox="0 0 2817 2083"
 xmlns:xlink="http://www.w3.org/1999/xlink">
 <g id="Layer_x0020_1">
  <metadata id="CorelCorpID_0Corel-Layer"/>
  <g id="Layers">
   <g id="India_Districts_selection">
    <polygon fill="#6EA97F" points="293,1631 128,1478 73,1338 73,1124 0,1112 0,818 61,690 79,544 201,525 366,391 482,275 604,220 756,122 823,12 1006,37 1024,153 1610,159 1640,92 1707,0 1750,86 2049,61 2067,159 2110,220 2134,385 2585,428 2799,867 2817,1368 2128,1704 2024,2083 1189,2083 494,1570 "/>
   </g>
  </g>
 </g>
</svg>
