<?xml version="1.0" encoding="UTF-8"?>
<!DOCTYPE svg PUBLIC "-//W3C//DTD SVG 1.1//EN" "http://www.w3.org/Graphics/SVG/1.1/DTD/svg11.dtd">
<!-- Creator: CorelDRAW X8 -->
<svg xmlns="http://www.w3.org/2000/svg" xml:space="preserve" width="100%" height="100%" version="1.1" shape-rendering="geometricPrecision" text-rendering="geometricPrecision" image-rendering="optimizeQuality" fill-rule="evenodd" clip-rule="evenodd"
viewBox="0 0 2536 1330"
 xmlns:xlink="http://www.w3.org/1999/xlink">
 <g id="Layer_x0020_1">
  <metadata id="CorelCorpID_0Corel-Layer"/>
  <g id="Layers">
   <g id="India_Districts_selection">
    <polygon fill="#6EA97F" points="1734,156 1932,183 2018,218 2061,160 2158,156 2357,226 2501,421 2536,546 2470,538 2307,530 2268,597 2174,601 2186,858 2112,936 1936,1026 1714,959 1535,932 1461,1006 1383,1186 1266,1322 1087,1330 943,1307 838,1225 764,1244 592,1131 421,1049 269,1229 199,1232 199,1213 51,1143 0,1131 12,1045 66,901 97,714 125,608 195,527 152,406 199,250 183,98 168,20 148,8 156,0 203,31 296,16 440,133 464,172 612,160 690,343 814,429 927,429 1056,351 1079,211 1138,207 1212,285 1317,199 1461,324 1601,332 1745,211 "/>
   </g>
  </g>
 </g>
</svg>
