<?xml version="1.0" encoding="UTF-8"?>
<!DOCTYPE svg PUBLIC "-//W3C//DTD SVG 1.1//EN" "http://www.w3.org/Graphics/SVG/1.1/DTD/svg11.dtd">
<!-- Creator: CorelDRAW X8 -->
<svg xmlns="http://www.w3.org/2000/svg" xml:space="preserve" width="100%" height="100%" version="1.1" shape-rendering="geometricPrecision" text-rendering="geometricPrecision" image-rendering="optimizeQuality" fill-rule="evenodd" clip-rule="evenodd"
viewBox="0 0 2349 1932"
 xmlns:xlink="http://www.w3.org/1999/xlink">
 <g id="Layer_x0020_1">
  <metadata id="CorelCorpID_0Corel-Layer"/>
  <g id="Layers">
   <g id="India_Districts_selection">
    <polygon fill="#6EA97F" points="1008,6 1002,62 917,62 877,113 866,204 838,210 832,261 945,340 1064,351 1240,159 1313,221 1392,340 1404,459 1670,476 1687,436 1840,448 1845,538 2038,538 2043,561 2111,567 2140,635 2315,646 2338,708 2349,941 2287,997 2292,1014 2236,1020 2094,1014 2032,1094 1975,1201 1947,1286 1913,1354 1840,1405 1772,1411 1772,1201 1704,1105 1534,1105 1483,1077 1432,1088 1443,1173 1472,1218 1455,1252 1432,1479 1574,1479 1641,1513 1653,1604 1692,1689 1630,1779 1387,1785 1347,1853 1307,1932 1200,1898 1070,1892 900,1689 725,1672 685,1706 617,1711 560,1621 498,1621 504,1479 419,1490 283,1485 283,1422 175,1383 0,1383 23,1292 51,1133 221,1145 345,1218 419,1116 447,1054 509,980 640,912 736,907 787,816 747,731 809,635 821,561 764,482 645,442 640,329 668,272 702,187 713,91 764,11 900,0 "/>
   </g>
  </g>
 </g>
</svg>
