<?xml version="1.0" encoding="UTF-8"?>
<!DOCTYPE svg PUBLIC "-//W3C//DTD SVG 1.1//EN" "http://www.w3.org/Graphics/SVG/1.1/DTD/svg11.dtd">
<!-- Creator: CorelDRAW X8 -->
<svg xmlns="http://www.w3.org/2000/svg" xml:space="preserve" width="100%" height="100%" version="1.1" shape-rendering="geometricPrecision" text-rendering="geometricPrecision" image-rendering="optimizeQuality" fill-rule="evenodd" clip-rule="evenodd"
viewBox="0 0 4050 3739"
 xmlns:xlink="http://www.w3.org/1999/xlink">
 <g id="Layer_x0020_1">
  <metadata id="CorelCorpID_0Corel-Layer"/>
  <g id="Layers">
   <g id="India_Districts_selection">
    <polygon fill="#6EA97F" points="985,1853 1456,1864 1488,1973 1707,1973 1806,1853 1817,1316 2200,1009 2419,800 2452,702 2561,581 2583,219 2660,186 2627,22 2889,33 3404,0 3743,22 3907,22 3907,33 3973,175 4050,318 4006,625 3907,713 3885,921 3940,1009 3951,1206 3688,1053 3349,1031 3294,1184 3229,1272 3021,1447 2955,1590 2747,1721 2802,1842 2857,2006 2419,2028 2309,2094 2309,2478 1959,2587 1773,2840 1784,3125 1806,3256 1685,3267 1565,3344 1510,3486 1510,3640 1423,3739 1248,3739 1127,3706 1029,3552 974,3333 963,3234 865,3234 722,3322 591,3366 514,3366 383,3322 241,3234 197,3168 230,3026 274,2883 328,2719 405,2544 230,2401 33,2259 0,2248 33,2160 88,2061 230,1984 383,1853 536,1864 "/>
   </g>
  </g>
 </g>
</svg>
