<?xml version="1.0" encoding="UTF-8"?>
<!DOCTYPE svg PUBLIC "-//W3C//DTD SVG 1.1//EN" "http://www.w3.org/Graphics/SVG/1.1/DTD/svg11.dtd">
<!-- Creator: CorelDRAW X8 -->
<svg xmlns="http://www.w3.org/2000/svg" xml:space="preserve" width="100%" height="100%" version="1.1" shape-rendering="geometricPrecision" text-rendering="geometricPrecision" image-rendering="optimizeQuality" fill-rule="evenodd" clip-rule="evenodd"
viewBox="0 0 1704 1932"
 xmlns:xlink="http://www.w3.org/1999/xlink">
 <g id="Layer_x0020_1">
  <metadata id="CorelCorpID_0Corel-Layer"/>
  <g id="Layers">
   <g id="India_Districts_selection">
    <polygon fill="#6EA97F" points="0,1088 51,1037 85,1014 153,1003 209,918 226,861 334,827 413,714 402,533 447,453 481,385 526,289 560,176 781,170 838,96 911,45 962,0 1013,62 1041,119 1217,130 1262,204 1257,351 1217,391 1228,459 1381,612 1523,708 1704,844 1596,952 1545,1088 1579,1116 1591,1315 1568,1417 1466,1496 1460,1564 1494,1638 1426,1728 1347,1785 1285,1864 1285,1858 1166,1824 1104,1904 1064,1926 945,1932 906,1864 792,1847 651,1779 634,1672 583,1632 419,1558 374,1507 317,1400 153,1394 113,1218 "/>
   </g>
  </g>
 </g>
</svg>
