<?xml version="1.0" encoding="UTF-8"?>
<!DOCTYPE svg PUBLIC "-//W3C//DTD SVG 1.1//EN" "http://www.w3.org/Graphics/SVG/1.1/DTD/svg11.dtd">
<!-- Creator: CorelDRAW X8 -->
<svg xmlns="http://www.w3.org/2000/svg" xml:space="preserve" width="100%" height="100%" version="1.1" shape-rendering="geometricPrecision" text-rendering="geometricPrecision" image-rendering="optimizeQuality" fill-rule="evenodd" clip-rule="evenodd"
viewBox="0 0 2252 1932"
 xmlns:xlink="http://www.w3.org/1999/xlink">
 <g id="Layer_x0020_1">
  <metadata id="CorelCorpID_0Corel-Layer"/>
  <g id="Layers">
   <g id="India_Districts_selection">
    <polygon fill="#6EA97F" points="1205,17 1239,79 1273,142 1307,210 1319,283 1353,317 1392,340 1432,408 1466,504 1466,578 1494,629 1568,646 1613,629 1653,612 1704,584 1704,555 1749,550 1771,527 1828,527 1868,572 1936,612 1981,657 2037,686 2049,714 2071,720 2077,742 2122,754 2145,827 2156,839 2162,1122 2190,1167 2247,1173 2252,1269 2252,1337 2213,1371 2202,1462 2185,1490 2156,1541 2156,1615 2219,1666 2219,1706 2196,1745 2111,1779 2037,1819 1964,1864 1936,1881 1828,1881 1777,1932 1630,1932 1573,1734 1539,1683 1568,1632 1585,1547 1585,1439 1551,1405 1568,1366 1517,1332 1505,1275 1443,1269 1358,1286 1353,1332 1319,1349 1296,1349 1290,1388 1279,1411 1251,1417 1239,1451 1205,1473 1149,1507 1109,1530 1081,1581 1036,1581 990,1536 956,1490 990,1490 996,1434 1013,1366 1030,1286 1064,1286 1092,1241 1087,1179 1053,1156 996,1150 968,1156 939,1139 866,1196 832,1201 838,1241 838,1315 826,1360 770,1366 736,1400 673,1417 628,1456 600,1473 572,1473 521,1473 509,1524 481,1564 470,1621 300,1615 306,1400 260,1354 232,1343 181,1332 141,1366 108,1383 68,1383 34,1383 6,1371 0,1332 17,1269 34,1218 17,1207 17,1156 34,1043 96,1009 141,975 181,918 215,878 232,833 300,827 340,805 385,810 424,822 447,878 458,924 487,952 509,980 549,1020 572,1060 600,1060 628,1009 673,969 702,901 736,850 753,805 775,765 849,754 911,737 973,725 990,686 1036,640 1041,606 1081,538 1109,487 1064,453 1030,425 1024,300 1030,102 1047,0 1138,0 1200,11 "/>
   </g>
  </g>
 </g>
</svg>
