<?xml version="1.0" encoding="UTF-8"?>
<!DOCTYPE svg PUBLIC "-//W3C//DTD SVG 1.1//EN" "http://www.w3.org/Graphics/SVG/1.1/DTD/svg11.dtd">
<!-- Creator: CorelDRAW X8 -->
<svg xmlns="http://www.w3.org/2000/svg" xml:space="preserve" width="100%" height="100%" version="1.1" shape-rendering="geometricPrecision" text-rendering="geometricPrecision" image-rendering="optimizeQuality" fill-rule="evenodd" clip-rule="evenodd"
viewBox="0 0 1829 2083"
 xmlns:xlink="http://www.w3.org/1999/xlink">
 <g id="Layer_x0020_1">
  <metadata id="CorelCorpID_0Corel-Layer"/>
  <g id="Layers">
   <g id="India_Districts_selection">
    <polygon fill="#6EA97F" points="1829,1625 1829,1680 1817,1759 1695,1765 1610,1790 1506,1765 1414,1771 1421,1844 1244,1857 1189,1936 1311,1997 1280,2058 957,2040 951,1997 787,2003 787,2040 738,2083 616,2040 372,2052 329,2022 183,1912 195,1832 207,1808 232,1747 238,1490 287,1362 293,1246 244,1203 244,1148 305,1093 305,977 262,941 262,727 219,708 213,525 49,531 49,428 18,342 0,263 73,226 366,202 482,43 524,0 598,12 805,55 847,140 854,244 915,287 915,428 884,470 902,623 969,727 1128,733 1177,733 1189,763 1177,1252 1000,1399 1000,1472 1097,1478 1104,1631 1183,1643 1219,1631 1354,1533 1494,1515 1671,1588 "/>
   </g>
  </g>
 </g>
</svg>
