<?xml version="1.0" encoding="UTF-8"?>
<!DOCTYPE svg PUBLIC "-//W3C//DTD SVG 1.1//EN" "http://www.w3.org/Graphics/SVG/1.1/DTD/svg11.dtd">
<!-- Creator: CorelDRAW X8 -->
<svg xmlns="http://www.w3.org/2000/svg" xml:space="preserve" width="100%" height="100%" version="1.1" shape-rendering="geometricPrecision" text-rendering="geometricPrecision" image-rendering="optimizeQuality" fill-rule="evenodd" clip-rule="evenodd"
viewBox="0 0 2326 1782"
 xmlns:xlink="http://www.w3.org/1999/xlink">
 <g id="Layer_x0020_1">
  <metadata id="CorelCorpID_0Corel-Layer"/>
  <g id="Layers">
   <g id="India_Districts_selection">
    <polygon fill="#6EA97F" points="1904,1782 1857,1776 1779,1782 1695,1735 1591,1693 1486,1635 1361,1583 1215,1489 934,1479 814,1661 777,1526 647,1526 548,1520 454,1479 381,1489 276,1510 130,1494 78,1447 21,1317 0,1270 42,1139 193,1108 297,1076 303,977 438,899 600,909 595,763 694,674 657,522 704,439 777,345 949,251 960,225 1048,209 1304,193 1361,178 1366,146 1419,104 1486,104 1523,47 1565,0 1622,63 1695,68 1763,157 1836,152 1852,115 2071,104 2097,89 2149,125 2258,152 2326,204 2279,240 2154,522 2008,721 1862,1034 1810,1322 1914,1447 1977,1546 1935,1635 "/>
   </g>
  </g>
 </g>
</svg>
