<?xml version="1.0" encoding="UTF-8"?>
<!DOCTYPE svg PUBLIC "-//W3C//DTD SVG 1.1//EN" "http://www.w3.org/Graphics/SVG/1.1/DTD/svg11.dtd">
<!-- Creator: CorelDRAW X8 -->
<svg xmlns="http://www.w3.org/2000/svg" xml:space="preserve" width="100%" height="100%" version="1.1" shape-rendering="geometricPrecision" text-rendering="geometricPrecision" image-rendering="optimizeQuality" fill-rule="evenodd" clip-rule="evenodd"
viewBox="0 0 4040 2233"
 xmlns:xlink="http://www.w3.org/1999/xlink">
 <g id="Layer_x0020_1">
  <metadata id="CorelCorpID_0Corel-Layer"/>
  <g id="Layers">
   <g id="India_Districts_selection">
    <polygon fill="#6EA97F" points="4008,1015 3962,995 3955,989 3798,956 3570,1054 3393,1140 3145,1198 2896,1244 2674,1244 2504,1238 2321,1140 2190,1009 2053,963 1922,1028 1791,1113 1647,1198 1595,1257 1719,1329 1752,1401 1765,1519 1726,1618 1667,1703 1569,1729 1425,1749 1314,1663 1157,1618 1046,1572 896,1578 850,1677 798,1873 798,2056 785,2187 582,2233 418,2227 288,2181 118,2181 52,2220 39,2227 20,2102 0,1834 183,1598 516,1487 516,1126 615,1061 1033,1041 987,884 928,773 1131,648 1190,511 1386,347 1451,255 1504,111 1824,138 2079,275 2262,308 2419,269 2648,177 2726,0 2850,13 2909,157 3145,314 3458,314 3661,419 3726,472 3883,727 4040,851 "/>
   </g>
  </g>
 </g>
</svg>
