<?xml version="1.0" encoding="UTF-8"?>
<!DOCTYPE svg PUBLIC "-//W3C//DTD SVG 1.1//EN" "http://www.w3.org/Graphics/SVG/1.1/DTD/svg11.dtd">
<!-- Creator: CorelDRAW X8 -->
<svg xmlns="http://www.w3.org/2000/svg" xml:space="preserve" width="100%" height="100%" version="1.1" shape-rendering="geometricPrecision" text-rendering="geometricPrecision" image-rendering="optimizeQuality" fill-rule="evenodd" clip-rule="evenodd"
viewBox="0 0 1232 1631"
 xmlns:xlink="http://www.w3.org/1999/xlink">
 <g id="Layer_x0020_1">
  <metadata id="CorelCorpID_0Corel-Layer"/>
  <g id="Layers">
   <g id="India_Districts_selection">
    <polygon fill="#6EA97F" points="793,67 807,96 898,134 950,172 993,225 1074,268 1122,320 1232,378 1060,655 850,1114 831,1631 363,1607 5,1473 0,1354 29,1287 48,1234 48,1119 105,1071 186,1000 181,952 215,923 234,842 234,837 287,823 282,741 258,732 239,713 263,665 301,560 301,421 248,330 272,215 301,86 339,0 392,77 444,115 477,72 673,53 "/>
   </g>
  </g>
 </g>
</svg>
