<?xml version="1.0" encoding="UTF-8"?>
<!DOCTYPE svg PUBLIC "-//W3C//DTD SVG 1.1//EN" "http://www.w3.org/Graphics/SVG/1.1/DTD/svg11.dtd">
<!-- Creator: CorelDRAW X8 -->
<svg xmlns="http://www.w3.org/2000/svg" xml:space="preserve" width="100%" height="100%" version="1.1" shape-rendering="geometricPrecision" text-rendering="geometricPrecision" image-rendering="optimizeQuality" fill-rule="evenodd" clip-rule="evenodd"
viewBox="0 0 1866 2083"
 xmlns:xlink="http://www.w3.org/1999/xlink">
 <g id="Layer_x0020_1">
  <metadata id="CorelCorpID_0Corel-Layer"/>
  <g id="Layers">
   <g id="India_Districts_selection">
    <polygon fill="#6EA97F" points="1847,892 1811,941 1683,1075 1640,1185 1646,1484 1640,1619 1500,1741 1378,1857 1360,1899 1238,1906 1238,1844 1152,1893 1061,1973 988,2028 957,2077 823,2083 756,2077 750,1991 579,1838 390,1814 335,1704 378,1502 384,1441 183,1167 91,855 61,672 18,428 0,269 165,147 329,238 476,128 579,73 598,0 695,6 787,134 787,232 610,287 506,440 524,513 768,513 768,599 726,605 726,684 890,690 908,647 951,654 1225,849 1482,855 1549,721 1561,666 1573,641 1597,531 1683,434 1853,531 1866,599 1805,757 1811,892 "/>
   </g>
  </g>
 </g>
</svg>
