<?xml version="1.0" encoding="UTF-8"?>
<!DOCTYPE svg PUBLIC "-//W3C//DTD SVG 1.1//EN" "http://www.w3.org/Graphics/SVG/1.1/DTD/svg11.dtd">
<!-- Creator: CorelDRAW X8 -->
<svg xmlns="http://www.w3.org/2000/svg" xml:space="preserve" width="100%" height="100%" version="1.1" shape-rendering="geometricPrecision" text-rendering="geometricPrecision" image-rendering="optimizeQuality" fill-rule="evenodd" clip-rule="evenodd"
viewBox="0 0 10372 7201"
 xmlns:xlink="http://www.w3.org/1999/xlink">
 <g id="Layer_x0020_1">
  <metadata id="CorelCorpID_0Corel-Layer"/>
  <g id="Layers">
   <g id="India_Districts_selection">
    <polygon fill="#6EA97F" points="9676,253 9739,1204 9887,1711 10034,2154 10203,2323 10372,2619 10203,2914 9739,3337 9760,4920 9465,5364 9486,5913 8011,5934 7526,5913 7020,6335 6535,6589 6345,6905 6282,7201 6071,7117 4385,7095 4237,6884 3900,6948 2804,6884 2024,7053 1581,6589 548,5913 0,5322 169,4456 906,4371 843,3907 1265,3590 1391,2809 1328,2091 1918,1711 2129,1288 1729,971 1750,507 3331,486 3542,971 3879,1352 4891,1415 5418,1626 5860,1711 5797,655 6683,486 6683,106 7463,106 7884,317 8158,0 8980,127 9613,253 "/>
   </g>
  </g>
 </g>
</svg>
