<?xml version="1.0" encoding="UTF-8"?>
<!DOCTYPE svg PUBLIC "-//W3C//DTD SVG 1.1//EN" "http://www.w3.org/Graphics/SVG/1.1/DTD/svg11.dtd">
<!-- Creator: CorelDRAW X8 -->
<svg xmlns="http://www.w3.org/2000/svg" xml:space="preserve" width="100%" height="100%" version="1.1" shape-rendering="geometricPrecision" text-rendering="geometricPrecision" image-rendering="optimizeQuality" fill-rule="evenodd" clip-rule="evenodd"
viewBox="0 0 1915 1782"
 xmlns:xlink="http://www.w3.org/1999/xlink">
 <g id="Layer_x0020_1">
  <metadata id="CorelCorpID_0Corel-Layer"/>
  <g id="Layers">
   <g id="India_Districts_selection">
    <polygon fill="#6EA97F" points="1608,679 1592,695 1634,737 1675,752 1675,794 1717,825 1733,904 1795,940 1868,1024 1910,1066 1900,1097 1837,1155 1900,1264 1915,1311 1895,1395 1811,1468 1769,1479 1623,1400 1498,1405 1446,1447 1300,1510 1200,1536 1049,1552 924,1578 856,1573 783,1672 736,1761 699,1782 694,1766 574,1693 449,1656 386,1588 193,1573 63,1588 16,1578 0,1447 125,1301 157,1238 84,1129 73,1055 162,1014 209,1003 256,940 240,820 157,737 151,449 94,387 84,287 110,277 110,141 146,152 298,73 360,5 371,10 444,0 433,37 517,31 569,94 647,136 658,183 699,204 736,199 788,266 799,293 877,303 929,345 981,350 1044,397 1185,397 1289,413 1383,449 1420,496 1498,502 1498,538 1534,538 1534,606 1561,643 "/>
   </g>
  </g>
 </g>
</svg>
