<?xml version="1.0" encoding="UTF-8"?>
<!DOCTYPE svg PUBLIC "-//W3C//DTD SVG 1.1//EN" "http://www.w3.org/Graphics/SVG/1.1/DTD/svg11.dtd">
<!-- Creator: CorelDRAW X8 -->
<svg xmlns="http://www.w3.org/2000/svg" xml:space="preserve" width="100%" height="100%" version="1.1" shape-rendering="geometricPrecision" text-rendering="geometricPrecision" image-rendering="optimizeQuality" fill-rule="evenodd" clip-rule="evenodd"
viewBox="0 0 2959 2083"
 xmlns:xlink="http://www.w3.org/1999/xlink">
 <g id="Layer_x0020_1">
  <metadata id="CorelCorpID_0Corel-Layer"/>
  <g id="Layers">
   <g id="India_Districts_selection">
    <polygon fill="#6EA97F" points="2959,818 2880,959 2727,1026 2599,1167 2483,1289 2404,1295 2416,1423 2483,1460 2495,1667 2440,1716 2331,1722 2264,1741 1977,1857 1849,1973 1733,2058 1629,2083 1623,2009 1483,1973 1354,1783 1257,1655 1074,1667 970,1796 879,1832 854,1875 805,1777 671,1783 665,1832 421,1820 354,1881 201,1918 122,1881 24,1832 0,1777 31,1790 55,1472 92,1350 146,1240 195,1209 195,831 311,641 543,684 592,605 750,605 793,672 1001,672 1110,586 1117,336 1080,153 1092,0 1098,6 1891,379 2508,483 2837,739 "/>
   </g>
  </g>
 </g>
</svg>
