<?xml version="1.0" encoding="UTF-8"?>
<!DOCTYPE svg PUBLIC "-//W3C//DTD SVG 1.1//EN" "http://www.w3.org/Graphics/SVG/1.1/DTD/svg11.dtd">
<!-- Creator: CorelDRAW X8 -->
<svg xmlns="http://www.w3.org/2000/svg" xml:space="preserve" width="100%" height="100%" version="1.1" shape-rendering="geometricPrecision" text-rendering="geometricPrecision" image-rendering="optimizeQuality" fill-rule="evenodd" clip-rule="evenodd"
viewBox="0 0 1926 2384"
 xmlns:xlink="http://www.w3.org/1999/xlink">
 <g id="Layer_x0020_1">
  <metadata id="CorelCorpID_0Corel-Layer"/>
  <g id="Layers">
   <g id="India_Districts_selection">
    <polygon fill="#6EA97F" points="1305,461 1277,461 1249,608 1179,629 1165,818 1277,937 1479,1139 1521,1216 1633,1405 1814,1615 1926,1615 1912,1880 1800,1922 1689,1964 1563,1999 1535,2048 1535,2146 1396,2195 1368,2328 1333,2384 1319,2370 1172,2237 1026,2104 830,1908 565,1839 461,1908 461,1922 391,1852 244,1762 167,1671 91,1524 84,1377 70,1195 28,1105 0,1021 0,874 28,776 35,692 42,608 35,601 98,580 356,573 356,629 544,629 607,580 649,426 719,322 789,182 830,70 879,0 1012,98 1144,189 1263,287 "/>
   </g>
  </g>
 </g>
</svg>
