<?xml version="1.0" encoding="UTF-8"?>
<!DOCTYPE svg PUBLIC "-//W3C//DTD SVG 1.1//EN" "http://www.w3.org/Graphics/SVG/1.1/DTD/svg11.dtd">
<!-- Creator: CorelDRAW X8 -->
<svg xmlns="http://www.w3.org/2000/svg" xml:space="preserve" width="100%" height="100%" version="1.1" shape-rendering="geometricPrecision" text-rendering="geometricPrecision" image-rendering="optimizeQuality" fill-rule="evenodd" clip-rule="evenodd"
viewBox="0 0 1897 2083"
 xmlns:xlink="http://www.w3.org/1999/xlink">
 <g id="Layer_x0020_1">
  <metadata id="CorelCorpID_0Corel-Layer"/>
  <g id="Layers">
   <g id="India_Districts_selection">
    <polygon fill="#6EA97F" points="1897,1331 1824,1338 1721,1319 1507,1380 1397,1539 1324,1741 1098,1869 885,1936 665,1973 641,2083 604,2040 488,2003 482,1899 439,1790 336,1802 305,1857 214,1893 153,1832 55,1686 24,1521 55,1344 104,1252 183,1173 244,1093 311,989 305,855 287,733 232,635 140,440 43,318 0,244 73,195 67,67 128,6 128,0 159,18 250,43 342,79 476,79 567,79 555,220 580,360 1025,708 1428,849 1696,934 1849,1069 1891,1295 "/>
   </g>
  </g>
 </g>
</svg>
