<?xml version="1.0" encoding="UTF-8"?>
<!DOCTYPE svg PUBLIC "-//W3C//DTD SVG 1.1//EN" "http://www.w3.org/Graphics/SVG/1.1/DTD/svg11.dtd">
<!-- Creator: CorelDRAW X8 -->
<svg xmlns="http://www.w3.org/2000/svg" xml:space="preserve" width="100%" height="100%" version="1.1" shape-rendering="geometricPrecision" text-rendering="geometricPrecision" image-rendering="optimizeQuality" fill-rule="evenodd" clip-rule="evenodd"
viewBox="0 0 2798 2685"
 xmlns:xlink="http://www.w3.org/1999/xlink">
 <g id="Layer_x0020_1">
  <metadata id="CorelCorpID_0Corel-Layer"/>
  <g id="Layers">
   <g id="India_Districts_selection">
    <polygon fill="#6EA97F" points="1698,2630 1674,2614 1580,2661 1478,2677 1423,2638 1360,2622 1226,2685 1148,2677 1124,2590 1148,2488 1179,2370 1171,2283 1116,2134 1061,2023 857,1874 833,1764 723,1606 479,1622 409,1740 110,1535 0,1449 134,1441 181,1307 275,1205 307,1031 141,898 181,811 307,433 424,260 700,79 888,39 920,150 1265,142 1423,110 1485,0 1509,39 1611,87 1753,87 1792,47 1902,47 1894,110 1965,157 1973,283 2130,268 2169,236 2256,244 2248,205 2381,205 2405,150 2499,150 2594,94 2782,94 2798,417 2657,504 2578,551 2492,591 2413,614 2130,583 1886,583 1808,622 1737,693 1737,835 1776,866 1776,1047 1745,1087 1737,1173 1706,1197 1713,1268 1776,1275 1776,1850 1823,1905 1894,1984 1894,2063 1847,2086 1839,2118 1737,2118 1651,2142 1651,2315 1698,2362 1745,2370 1737,2433 1776,2449 1737,2519 1713,2535 "/>
   </g>
  </g>
 </g>
</svg>
