<?xml version="1.0" encoding="UTF-8"?>
<!DOCTYPE svg PUBLIC "-//W3C//DTD SVG 1.1//EN" "http://www.w3.org/Graphics/SVG/1.1/DTD/svg11.dtd">
<!-- Creator: CorelDRAW X8 -->
<svg xmlns="http://www.w3.org/2000/svg" xml:space="preserve" width="100%" height="100%" version="1.1" shape-rendering="geometricPrecision" text-rendering="geometricPrecision" image-rendering="optimizeQuality" fill-rule="evenodd" clip-rule="evenodd"
viewBox="0 0 1418 2384"
 xmlns:xlink="http://www.w3.org/1999/xlink">
 <g id="Layer_x0020_1">
  <metadata id="CorelCorpID_0Corel-Layer"/>
  <g id="Layers">
   <g id="India_Districts_selection">
    <polygon fill="#6EA97F" points="733,2370 747,2097 698,2048 698,1943 656,1866 698,1783 740,1692 761,1643 768,1440 740,1412 712,1349 649,1314 594,1314 573,1349 468,1363 405,1384 342,1321 300,1237 230,1237 230,1272 161,1272 154,1237 35,1237 0,1146 0,846 63,832 161,650 216,496 719,266 922,56 929,0 957,7 1054,84 1096,154 1124,315 1096,447 1027,531 1013,580 1020,636 1061,692 1138,727 1222,762 1292,846 1320,1000 1334,1139 1348,1272 1348,1419 1369,1552 1397,1699 1418,1797 1404,1887 1376,1999 1327,2097 1292,2160 1243,2230 1082,2132 978,2188 852,2384 782,2384 "/>
   </g>
  </g>
 </g>
</svg>
