<?xml version="1.0" encoding="UTF-8"?>
<!DOCTYPE svg PUBLIC "-//W3C//DTD SVG 1.1//EN" "http://www.w3.org/Graphics/SVG/1.1/DTD/svg11.dtd">
<!-- Creator: CorelDRAW X8 -->
<svg xmlns="http://www.w3.org/2000/svg" xml:space="preserve" width="100%" height="100%" version="1.1" shape-rendering="geometricPrecision" text-rendering="geometricPrecision" image-rendering="optimizeQuality" fill-rule="evenodd" clip-rule="evenodd"
viewBox="0 0 1825 1782"
 xmlns:xlink="http://www.w3.org/1999/xlink">
 <g id="Layer_x0020_1">
  <metadata id="CorelCorpID_0Corel-Layer"/>
  <g id="Layers">
   <g id="India_Districts_selection">
    <polygon fill="#6EA97F" points="1784,1144 1638,1066 1387,1223 1314,1782 1241,1755 1038,1729 996,1661 928,1620 824,1541 793,1458 600,1416 579,1338 490,1311 318,1358 156,1374 209,1149 0,867 136,397 386,0 553,37 688,37 793,37 834,115 1007,141 1153,183 1278,251 1366,366 1533,423 1679,512 1737,627 1763,637 1805,747 1825,930 1784,1097 "/>
   </g>
  </g>
 </g>
</svg>
