<?xml version="1.0" encoding="UTF-8"?>
<!DOCTYPE svg PUBLIC "-//W3C//DTD SVG 1.1//EN" "http://www.w3.org/Graphics/SVG/1.1/DTD/svg11.dtd">
<!-- Creator: CorelDRAW X8 -->
<svg xmlns="http://www.w3.org/2000/svg" xml:space="preserve" width="100%" height="100%" version="1.1" shape-rendering="geometricPrecision" text-rendering="geometricPrecision" image-rendering="optimizeQuality" fill-rule="evenodd" clip-rule="evenodd"
viewBox="0 0 3691 1729"
 xmlns:xlink="http://www.w3.org/1999/xlink">
 <g id="Layer_x0020_1">
  <metadata id="CorelCorpID_0Corel-Layer"/>
  <g id="Layers">
   <g id="India_Districts_selection">
    <polygon fill="#6EA97F" points="3685,601 3691,845 3634,885 3572,896 3543,924 3459,924 3430,1004 3425,1236 3300,1293 3238,1355 3119,1333 3045,1151 2926,1162 2909,1287 2825,1316 2581,1338 2592,1304 2377,1287 2298,1338 2202,1412 2117,1474 2123,1508 1998,1542 1913,1644 1851,1724 1772,1729 1698,1610 1664,1497 1613,1463 1500,1463 1308,1463 1274,1463 1268,1423 1217,1429 1211,1355 1104,1355 1087,1327 974,1191 877,1185 804,1123 742,1009 696,958 657,936 611,902 606,709 509,663 238,669 181,709 79,771 0,703 34,612 74,539 125,505 136,493 181,471 226,459 255,437 328,391 447,346 515,301 668,284 696,238 792,221 894,329 940,374 1087,369 1121,284 1370,301 1432,369 1506,465 1511,590 1574,714 1636,765 1709,748 1760,652 2004,675 2072,686 2213,629 2242,459 2191,414 2202,335 2360,335 2377,267 2462,221 2570,301 2694,295 2723,159 2723,0 2825,11 2932,45 3006,164 3136,232 3226,323 3402,391 3492,448 3555,522 3617,561 3628,607 "/>
   </g>
  </g>
 </g>
</svg>
