<?xml version="1.0" encoding="UTF-8"?>
<!DOCTYPE svg PUBLIC "-//W3C//DTD SVG 1.1//EN" "http://www.w3.org/Graphics/SVG/1.1/DTD/svg11.dtd">
<!-- Creator: CorelDRAW X8 -->
<svg xmlns="http://www.w3.org/2000/svg" xml:space="preserve" width="100%" height="100%" version="1.1" shape-rendering="geometricPrecision" text-rendering="geometricPrecision" image-rendering="optimizeQuality" fill-rule="evenodd" clip-rule="evenodd"
viewBox="0 0 4679 6147"
 xmlns:xlink="http://www.w3.org/1999/xlink">
 <g id="Layer_x0020_1">
  <metadata id="CorelCorpID_0Corel-Layer"/>
  <g id="Layers">
   <g id="India_Districts_selection">
    <polygon fill="#6EA97F" points="4391,5408 4373,5426 4031,5570 3761,5660 3455,5751 3203,5859 2825,6057 2573,6147 2393,6129 2267,6075 2141,6003 2034,5931 1944,5931 1908,5841 1908,5715 2106,5588 2195,5498 2213,5426 2177,5354 2141,5336 2303,5174 2465,5138 2699,5102 2735,5012 2825,4867 2969,4885 3203,4849 3203,4579 3023,4363 2969,4218 2843,4200 2789,4128 2411,4146 2375,4020 2357,3948 2357,3714 2339,3281 2393,3191 2411,3083 2357,3011 2375,2938 2285,2830 2016,2794 1998,2686 1962,2560 1800,2488 1638,2614 1548,2614 1368,2614 1278,2452 1260,2289 1170,2199 1044,2145 900,2073 810,1983 774,1947 684,1803 504,1695 540,1622 450,1478 288,1406 126,1226 18,1118 0,883 126,739 576,667 828,252 990,0 1080,36 1530,36 1710,90 1890,216 1998,361 2141,523 2393,487 2519,541 2699,685 2861,793 2987,811 3203,937 3311,991 3437,1064 3599,1046 3599,1424 3617,1658 3671,1839 3725,1947 3779,2091 3977,2344 4103,2434 4211,2560 4265,2668 4337,2704 4391,2848 4445,2920 4445,3173 4571,3353 4679,3569 4553,3714 4499,3840 4445,3912 4373,4038 4409,4182 4481,4345 4499,4489 4535,4633 4499,4831 4499,4993 4409,5156 4373,5264 "/>
   </g>
  </g>
 </g>
</svg>
