<?xml version="1.0" encoding="UTF-8"?>
<!DOCTYPE svg PUBLIC "-//W3C//DTD SVG 1.1//EN" "http://www.w3.org/Graphics/SVG/1.1/DTD/svg11.dtd">
<!-- Creator: CorelDRAW X8 -->
<svg xmlns="http://www.w3.org/2000/svg" xml:space="preserve" width="100%" height="100%" version="1.1" shape-rendering="geometricPrecision" text-rendering="geometricPrecision" image-rendering="optimizeQuality" fill-rule="evenodd" clip-rule="evenodd"
viewBox="0 0 2049 2083"
 xmlns:xlink="http://www.w3.org/1999/xlink">
 <g id="Layer_x0020_1">
  <metadata id="CorelCorpID_0Corel-Layer"/>
  <g id="Layers">
   <g id="India_Districts_selection">
    <polygon fill="#6EA97F" points="2006,55 2006,110 2042,220 2049,409 1957,556 1988,611 1908,757 1847,818 1823,941 1689,1038 1701,1081 1719,1136 1616,1264 1433,1264 1354,1258 1335,1374 1274,1386 1268,1588 1177,1643 1030,1759 951,1814 805,1820 573,1985 305,2052 85,2083 37,2052 85,1820 79,1338 49,1301 49,1112 0,1087 6,922 177,934 201,983 323,1026 524,867 506,733 219,715 110,635 98,483 360,489 555,269 921,263 988,116 1213,305 1299,287 1445,128 1555,171 1744,269 1793,147 1780,0 1921,61 "/>
   </g>
  </g>
 </g>
</svg>
