<?xml version="1.0" encoding="UTF-8"?>
<!DOCTYPE svg PUBLIC "-//W3C//DTD SVG 1.1//EN" "http://www.w3.org/Graphics/SVG/1.1/DTD/svg11.dtd">
<!-- Creator: CorelDRAW X8 -->
<svg xmlns="http://www.w3.org/2000/svg" xml:space="preserve" width="100%" height="100%" version="1.1" shape-rendering="geometricPrecision" text-rendering="geometricPrecision" image-rendering="optimizeQuality" fill-rule="evenodd" clip-rule="evenodd"
viewBox="0 0 2038 1179"
 xmlns:xlink="http://www.w3.org/1999/xlink">
 <g id="Layer_x0020_1">
  <metadata id="CorelCorpID_0Corel-Layer"/>
  <g id="Layers">
   <g id="India_Districts_selection">
    <polygon fill="#6EA97F" points="684,1148 660,1121 625,1086 618,1062 591,1069 549,1020 511,965 515,917 491,885 497,865 497,809 484,802 484,782 463,768 408,716 252,716 252,702 107,699 97,688 59,668 3,619 0,346 21,332 45,311 117,311 162,339 200,360 225,398 273,353 328,336 370,318 387,256 418,173 439,138 497,145 529,118 567,118 618,131 760,118 760,114 777,125 795,149 888,145 888,163 912,159 912,173 960,204 1002,259 1033,252 1033,211 1085,145 1133,97 1168,48 1213,21 1247,17 1247,0 1313,3 1334,21 1465,35 1510,73 1524,62 1527,80 1565,142 1541,166 1544,183 1568,190 1572,214 1606,242 1651,301 1658,353 1703,380 1765,380 1779,367 1886,363 1931,398 1931,429 1904,457 1866,460 1852,491 1886,536 1924,550 1931,581 2018,591 2018,605 2038,633 2024,664 2000,688 1973,713 1938,747 1917,775 1828,764 1810,754 1800,733 1762,740 1741,723 1648,726 1610,761 1575,799 1551,820 1544,889 1541,910 1472,906 1461,993 1413,1013 1406,1051 1375,1051 1375,1038 1358,1038 1323,1083 1302,1110 1254,1117 1251,1131 1182,1131 1168,1152 1088,1155 1050,1173 1043,1179 992,1159 950,1145 909,1141 895,1128 812,1128 808,1141 684,1141 "/>
   </g>
  </g>
 </g>
</svg>
