<?xml version="1.0" encoding="UTF-8"?>
<!DOCTYPE svg PUBLIC "-//W3C//DTD SVG 1.1//EN" "http://www.w3.org/Graphics/SVG/1.1/DTD/svg11.dtd">
<!-- Creator: CorelDRAW X8 -->
<svg xmlns="http://www.w3.org/2000/svg" xml:space="preserve" width="100%" height="100%" version="1.1" shape-rendering="geometricPrecision" text-rendering="geometricPrecision" image-rendering="optimizeQuality" fill-rule="evenodd" clip-rule="evenodd"
viewBox="0 0 1805 1782"
 xmlns:xlink="http://www.w3.org/1999/xlink">
 <g id="Layer_x0020_1">
  <metadata id="CorelCorpID_0Corel-Layer"/>
  <g id="Layers">
   <g id="India_Districts_selection">
    <polygon fill="#6EA97F" points="1758,287 1721,293 1700,308 1643,308 1559,387 1476,397 1460,481 1439,486 1413,428 1361,423 1330,460 1320,554 1340,606 1335,622 1330,664 1356,690 1403,726 1450,737 1466,778 1523,805 1559,820 1570,888 1591,899 1638,940 1705,987 1747,982 1805,998 1799,1014 1784,1034 1805,1102 1805,1223 1768,1275 1768,1332 1726,1332 1726,1322 1659,1311 1612,1327 1606,1374 1575,1400 1570,1468 1544,1510 1471,1515 1419,1473 1361,1473 1335,1531 1293,1531 1257,1494 1179,1505 1106,1515 1017,1541 981,1604 944,1677 934,1724 934,1771 871,1755 819,1750 767,1761 688,1782 589,1755 563,1714 522,1714 464,1714 407,1724 376,1729 370,1698 370,1672 381,1635 370,1594 370,1557 329,1536 292,1515 219,1515 209,1489 167,1463 99,1452 5,1447 0,1442 42,1411 130,1280 240,1343 261,1332 318,1270 402,1270 485,1129 495,1071 495,1003 438,977 438,935 454,904 589,888 584,773 506,711 422,684 376,679 360,611 433,585 417,512 412,423 506,371 673,303 704,319 751,355 751,413 782,402 881,345 960,256 1027,172 1100,172 1116,157 1210,152 1241,73 1283,26 1387,21 1387,42 1439,47 1450,26 1481,21 1507,78 1559,99 1659,57 1737,21 1752,0 1758,16 1758,73 1789,89 1799,167 1763,235 "/>
   </g>
  </g>
 </g>
</svg>
