<?xml version="1.0" encoding="UTF-8"?>
<!DOCTYPE svg PUBLIC "-//W3C//DTD SVG 1.1//EN" "http://www.w3.org/Graphics/SVG/1.1/DTD/svg11.dtd">
<!-- Creator: CorelDRAW X8 -->
<svg xmlns="http://www.w3.org/2000/svg" xml:space="preserve" width="100%" height="100%" version="1.1" shape-rendering="geometricPrecision" text-rendering="geometricPrecision" image-rendering="optimizeQuality" fill-rule="evenodd" clip-rule="evenodd"
viewBox="0 0 1752 2233"
 xmlns:xlink="http://www.w3.org/1999/xlink">
 <g id="Layer_x0020_1">
  <metadata id="CorelCorpID_0Corel-Layer"/>
  <g id="Layers">
   <g id="India_Districts_selection">
    <polygon fill="#6EA97F" points="1569,1454 1517,1454 1484,1487 1458,1519 1451,1598 1419,1637 1340,1729 1268,1735 1229,1794 1190,1834 1236,1847 1223,1893 1164,1939 1118,1958 1111,2030 928,2063 902,2109 804,2128 686,2155 628,2220 523,2233 451,2200 314,2102 177,1971 92,1814 72,1709 72,1650 39,1559 13,1467 0,1343 26,1198 98,1192 150,1166 301,1067 379,1087 556,1113 654,1041 798,943 850,799 902,766 922,688 955,675 1079,557 1098,504 1118,432 1144,334 1190,308 1229,275 1151,223 1124,177 1131,131 1170,79 1190,59 1196,20 1236,7 1275,0 1308,52 1366,59 1399,59 1393,79 1517,203 1484,282 1353,478 1373,740 1438,858 1628,1002 1556,1067 1556,1153 1595,1205 1654,1212 1752,1264 1746,1329 1752,1395 1700,1447 1680,1434 1615,1421 1569,1454 "/>
   </g>
  </g>
 </g>
</svg>
