<?xml version="1.0" encoding="UTF-8"?>
<!DOCTYPE svg PUBLIC "-//W3C//DTD SVG 1.1//EN" "http://www.w3.org/Graphics/SVG/1.1/DTD/svg11.dtd">
<!-- Creator: CorelDRAW X8 -->
<svg xmlns="http://www.w3.org/2000/svg" xml:space="preserve" width="100%" height="100%" version="1.1" shape-rendering="geometricPrecision" text-rendering="geometricPrecision" image-rendering="optimizeQuality" fill-rule="evenodd" clip-rule="evenodd"
viewBox="0 0 1683 2384"
 xmlns:xlink="http://www.w3.org/1999/xlink">
 <g id="Layer_x0020_1">
  <metadata id="CorelCorpID_0Corel-Layer"/>
  <g id="Layers">
   <g id="India_Districts_selection">
    <polygon fill="#6EA97F" points="1683,1929 1599,2041 1418,2195 1075,2321 782,2384 775,2356 754,2300 733,2237 712,2181 656,2076 601,1978 594,1936 517,1866 454,1832 377,1839 363,1783 272,1790 279,1762 196,1762 203,1734 147,1748 98,1713 35,1713 77,1657 147,1566 140,1489 35,1384 0,1251 7,1153 63,1077 70,937 70,811 28,741 70,643 105,545 105,461 196,384 209,273 258,140 342,28 377,0 384,7 524,14 566,35 635,119 705,105 803,63 866,63 887,119 985,161 978,182 1054,189 1054,210 1131,210 1208,280 1264,322 1397,308 1404,398 1362,447 1152,468 1145,489 1110,489 1068,510 1075,552 1117,608 1075,657 1047,699 1061,776 1075,804 1082,853 1110,888 1159,888 1194,944 1236,1000 1285,1084 1299,1105 1299,1419 1278,1447 1257,1468 1229,1517 1257,1538 1257,1594 1278,1629 1306,1671 1299,1727 1334,1769 1327,1887 1397,1936 1432,1957 1571,1950 1585,1936 "/>
   </g>
  </g>
 </g>
</svg>
