<?xml version="1.0" encoding="UTF-8"?>
<!DOCTYPE svg PUBLIC "-//W3C//DTD SVG 1.1//EN" "http://www.w3.org/Graphics/SVG/1.1/DTD/svg11.dtd">
<!-- Creator: CorelDRAW X8 -->
<svg xmlns="http://www.w3.org/2000/svg" xml:space="preserve" width="100%" height="100%" version="1.1" shape-rendering="geometricPrecision" text-rendering="geometricPrecision" image-rendering="optimizeQuality" fill-rule="evenodd" clip-rule="evenodd"
viewBox="0 0 1595 1179"
 xmlns:xlink="http://www.w3.org/1999/xlink">
 <g id="Layer_x0020_1">
  <metadata id="CorelCorpID_0Corel-Layer"/>
  <g id="Layers">
   <g id="India_Districts_selection">
    <polygon fill="#6EA97F" points="1005,1176 960,1179 887,1169 846,1134 822,1083 777,1031 739,968 670,955 611,1003 584,1013 556,993 525,930 501,879 452,865 390,827 259,813 83,723 28,643 0,502 28,436 104,377 169,339 204,436 376,325 684,301 832,235 991,38 1046,24 1181,59 1219,0 1253,14 1250,100 1215,228 1298,266 1395,159 1523,329 1485,446 1488,585 1595,640 1595,674 1554,702 1523,744 1540,823 1530,892 1461,955 1457,1017 1374,1072 1226,1083 1098,1069 1025,1083 981,1138 991,1166 "/>
   </g>
  </g>
 </g>
</svg>
