<?xml version="1.0" encoding="UTF-8"?>
<!DOCTYPE svg PUBLIC "-//W3C//DTD SVG 1.1//EN" "http://www.w3.org/Graphics/SVG/1.1/DTD/svg11.dtd">
<!-- Creator: CorelDRAW X8 -->
<svg xmlns="http://www.w3.org/2000/svg" xml:space="preserve" width="100%" height="100%" version="1.1" shape-rendering="geometricPrecision" text-rendering="geometricPrecision" image-rendering="optimizeQuality" fill-rule="evenodd" clip-rule="evenodd"
viewBox="0 0 2610 2083"
 xmlns:xlink="http://www.w3.org/1999/xlink">
 <g id="Layer_x0020_1">
  <metadata id="CorelCorpID_0Corel-Layer"/>
  <g id="Layers">
   <g id="India_Districts_selection">
    <polygon fill="#6EA97F" points="2341,708 2347,739 2353,806 2610,806 2506,989 2555,1075 2518,1099 2353,1105 2347,1252 2305,1283 2274,1319 2274,1466 2311,1460 2311,1539 2353,1576 2317,1667 2171,1680 2030,1686 1945,1753 1896,1863 1707,1863 1604,1924 1494,1924 1463,1997 1305,1997 1317,2034 1213,2028 1177,2070 988,2083 976,1936 902,1881 908,1814 774,1814 738,1857 567,1851 457,1802 427,1759 433,1747 530,1551 689,1478 665,1289 451,1234 287,1185 98,1105 6,1081 0,855 116,843 262,745 311,672 232,635 262,483 427,470 506,336 598,269 695,238 835,220 835,18 1030,0 1049,31 1360,73 1372,599 1414,666 1518,696 1524,776 1738,776 1732,806 2097,812 2134,745 2183,702 "/>
   </g>
  </g>
 </g>
</svg>
