<?xml version="1.0" encoding="UTF-8"?>
<!DOCTYPE svg PUBLIC "-//W3C//DTD SVG 1.1//EN" "http://www.w3.org/Graphics/SVG/1.1/DTD/svg11.dtd">
<!-- Creator: CorelDRAW X8 -->
<svg xmlns="http://www.w3.org/2000/svg" xml:space="preserve" width="100%" height="100%" version="1.1" shape-rendering="geometricPrecision" text-rendering="geometricPrecision" image-rendering="optimizeQuality" fill-rule="evenodd" clip-rule="evenodd"
viewBox="0 0 2046 2384"
 xmlns:xlink="http://www.w3.org/1999/xlink">
 <g id="Layer_x0020_1">
  <metadata id="CorelCorpID_0Corel-Layer"/>
  <g id="Layers">
   <g id="India_Districts_selection">
    <polygon fill="#6EA97F" points="1892,629 1871,678 2039,776 2046,895 1976,1070 1746,1398 1487,1678 1432,1894 1243,2027 810,2258 223,2384 216,2384 203,2076 77,1859 0,1769 14,1692 7,1601 0,1405 7,1258 105,1153 265,1167 482,1153 594,1125 615,1063 635,895 705,692 615,615 566,510 622,377 684,224 754,91 880,98 1020,133 1054,112 1110,42 1264,0 1285,28 1348,140 1383,287 1418,398 1446,489 1557,573 1634,629 1788,643 "/>
   </g>
  </g>
 </g>
</svg>
