<?xml version="1.0" encoding="UTF-8"?>
<!DOCTYPE svg PUBLIC "-//W3C//DTD SVG 1.1//EN" "http://www.w3.org/Graphics/SVG/1.1/DTD/svg11.dtd">
<!-- Creator: CorelDRAW X8 -->
<svg xmlns="http://www.w3.org/2000/svg" xml:space="preserve" width="100%" height="100%" version="1.1" shape-rendering="geometricPrecision" text-rendering="geometricPrecision" image-rendering="optimizeQuality" fill-rule="evenodd" clip-rule="evenodd"
viewBox="0 0 1232 1631"
 xmlns:xlink="http://www.w3.org/1999/xlink">
 <g id="Layer_x0020_1">
  <metadata id="CorelCorpID_0Corel-Layer"/>
  <g id="Layers">
   <g id="India_Districts_selection">
    <polygon fill="#6EA97F" points="435,0 458,38 540,33 626,91 683,120 821,120 1008,110 1065,148 1136,187 1232,206 1227,316 1208,464 1170,541 1074,684 1098,914 1170,1062 1151,1191 1098,1349 1151,1449 1113,1588 1089,1588 1041,1631 974,1631 817,1521 540,1373 329,1301 287,1258 205,1210 96,1229 0,1158 43,1110 134,995 124,737 272,584 272,478 291,196 253,96 258,48 282,43 291,0 329,5 "/>
   </g>
  </g>
 </g>
</svg>
