<?xml version="1.0" encoding="UTF-8"?>
<!DOCTYPE svg PUBLIC "-//W3C//DTD SVG 1.1//EN" "http://www.w3.org/Graphics/SVG/1.1/DTD/svg11.dtd">
<!-- Creator: CorelDRAW X8 -->
<svg xmlns="http://www.w3.org/2000/svg" xml:space="preserve" width="100%" height="100%" version="1.1" shape-rendering="geometricPrecision" text-rendering="geometricPrecision" image-rendering="optimizeQuality" fill-rule="evenodd" clip-rule="evenodd"
viewBox="0 0 1939 2083"
 xmlns:xlink="http://www.w3.org/1999/xlink">
 <g id="Layer_x0020_1">
  <metadata id="CorelCorpID_0Corel-Layer"/>
  <g id="Layers">
   <g id="India_Districts_selection">
    <polygon fill="#6EA97F" points="451,1857 451,1838 457,1783 445,1722 427,1704 396,1698 396,1680 402,1625 415,1600 415,1557 408,1521 402,1502 360,1490 317,1478 305,1460 280,1447 262,1417 244,1399 219,1393 213,1411 140,1405 116,1386 98,1350 104,1344 116,1325 110,1289 98,1276 79,1264 55,1246 12,1228 0,1222 6,1215 24,1197 61,1179 85,1160 104,1136 110,1112 128,1093 159,1075 171,1038 189,1026 238,1020 268,1014 268,996 341,989 341,977 360,977 378,910 390,879 396,861 329,861 305,831 323,800 348,782 360,721 366,721 415,721 445,696 506,690 555,666 610,666 634,635 658,599 665,580 701,556 738,489 719,464 713,385 738,311 744,299 756,305 787,318 823,336 872,373 878,391 890,434 915,428 927,446 957,464 988,483 1000,501 1024,501 1036,513 1036,525 1030,550 1030,586 1061,599 1085,599 1091,611 1122,617 1146,592 1183,544 1207,519 1299,507 1329,513 1347,531 1384,531 1414,550 1457,556 1488,562 1506,531 1530,525 1567,495 1603,483 1634,452 1652,409 1634,391 1616,373 1579,354 1555,330 1518,318 1451,324 1445,299 1402,287 1366,287 1329,269 1311,244 1280,238 1250,214 1250,153 1280,134 1305,122 1305,86 1323,73 1323,49 1408,37 1414,31 1579,18 1707,18 1750,18 1750,0 1799,6 1805,12 1847,24 1878,49 1908,79 1908,98 1872,98 1896,195 1939,226 1933,269 1896,293 1896,464 1829,519 1829,586 1756,611 1732,678 1713,757 1683,855 1597,849 1360,843 1347,825 1305,837 1274,904 1256,977 1225,1026 1171,1081 1158,1179 1183,1270 1280,1276 1286,1344 1280,1411 1219,1435 1030,1612 1012,1692 854,1692 847,1790 805,1832 793,1979 768,2009 671,2046 640,2083 555,2083 549,1997 530,1930 457,1857 "/>
   </g>
  </g>
 </g>
</svg>
