<?xml version="1.0" encoding="UTF-8"?>
<!DOCTYPE svg PUBLIC "-//W3C//DTD SVG 1.1//EN" "http://www.w3.org/Graphics/SVG/1.1/DTD/svg11.dtd">
<!-- Creator: CorelDRAW X8 -->
<svg xmlns="http://www.w3.org/2000/svg" xml:space="preserve" width="100%" height="100%" version="1.1" shape-rendering="geometricPrecision" text-rendering="geometricPrecision" image-rendering="optimizeQuality" fill-rule="evenodd" clip-rule="evenodd"
viewBox="0 0 3114 2233"
 xmlns:xlink="http://www.w3.org/1999/xlink">
 <g id="Layer_x0020_1">
  <metadata id="CorelCorpID_0Corel-Layer"/>
  <g id="Layers">
   <g id="India_Districts_selection">
    <polygon fill="#6EA97F" points="1387,1991 1315,1952 1282,1893 1223,1860 1138,1912 1086,1965 1027,1984 949,1997 935,2043 903,2109 863,2148 837,2227 759,2233 706,2181 667,2142 654,2050 621,2043 549,2063 491,2089 445,2128 399,2194 327,2187 255,2142 235,2004 209,2004 144,1971 59,1971 7,1899 0,1814 105,1768 177,1703 242,1618 340,1526 386,1467 438,1388 464,1329 484,1277 523,1251 595,1238 654,1179 713,1153 739,1094 752,1035 850,1015 1073,1028 1171,989 1334,982 1518,943 1622,871 1668,806 1747,720 1832,668 1962,629 2080,616 2132,544 2165,485 2198,439 2159,386 2106,360 2021,327 1962,262 1917,203 1904,183 1930,170 2061,20 2211,0 2355,72 2453,314 2512,445 2623,472 2715,439 2852,426 2963,550 3094,779 3114,1107 2617,1198 2002,1428 1544,1696 "/>
   </g>
  </g>
 </g>
</svg>
