<?xml version="1.0" encoding="UTF-8"?>
<!DOCTYPE svg PUBLIC "-//W3C//DTD SVG 1.1//EN" "http://www.w3.org/Graphics/SVG/1.1/DTD/svg11.dtd">
<!-- Creator: CorelDRAW X8 -->
<svg xmlns="http://www.w3.org/2000/svg" xml:space="preserve" width="100%" height="100%" version="1.1" shape-rendering="geometricPrecision" text-rendering="geometricPrecision" image-rendering="optimizeQuality" fill-rule="evenodd" clip-rule="evenodd"
viewBox="0 0 2165 2233"
 xmlns:xlink="http://www.w3.org/1999/xlink">
 <g id="Layer_x0020_1">
  <metadata id="CorelCorpID_0Corel-Layer"/>
  <g id="Layers">
   <g id="India_Districts_selection">
    <polygon fill="#6EA97F" points="1060,2233 936,2227 759,2227 628,2181 504,2148 464,2122 484,1827 425,1808 412,1605 288,1546 164,1310 164,1054 85,969 0,694 0,399 124,111 321,0 412,33 759,118 844,236 994,485 1223,609 1459,576 1636,544 1701,504 1819,616 2008,701 2159,878 2165,884 2152,884 2028,995 1943,1277 1865,1559 1681,1840 1289,1591 1060,1474 1014,1591 1079,1912 "/>
   </g>
  </g>
 </g>
</svg>
