<?xml version="1.0" encoding="UTF-8"?>
<!DOCTYPE svg PUBLIC "-//W3C//DTD SVG 1.1//EN" "http://www.w3.org/Graphics/SVG/1.1/DTD/svg11.dtd">
<!-- Creator: CorelDRAW X8 -->
<svg xmlns="http://www.w3.org/2000/svg" xml:space="preserve" width="100%" height="100%" version="1.1" shape-rendering="geometricPrecision" text-rendering="geometricPrecision" image-rendering="optimizeQuality" fill-rule="evenodd" clip-rule="evenodd"
viewBox="0 0 2695 2384"
 xmlns:xlink="http://www.w3.org/1999/xlink">
 <g id="Layer_x0020_1">
  <metadata id="CorelCorpID_0Corel-Layer"/>
  <g id="Layers">
   <g id="India_Districts_selection">
    <path fill="#6EA97F" d="M133 2223l-133 28 0 -49 21 -7 7 -42 14 -70 28 -56 21 -35 56 -28 28 -21 111 -7 56 14 -21 84 -42 98 -83 84 -63 7zm2059 -2223l42 35 77 -14 21 35 -21 -14 7 70 -112 28 -62 63 -28 49 -42 49 42 49 28 34 34 98 56 63 -7 98 119 7 21 56 7 119 42 91 56 14 -7 35 -56 63 -28 125 0 308 35 56 28 56 35 35 35 7 49 21 20 -35 112 0 0 251 -49 49 -63 28 -48 56 41 77 35 70 35 56 28 63 7 0 -98 119 -188 14 -42 -35 -77 -56 -56 -63 -76 -35 -63 -112 -35 -49 -196 14 -28 -35 -111 -21 -70 -28 -105 7 -49 -35 -104 -21 -105 -28 -140 -42 -98 -27 -104 -49 -14 -91 -77 7 -98 84 -105 42 -125 62 0 -76 -49 -7 7 -98 49 -84 160 -7 0 -42 84 -98 7 -56 84 -21 42 -35 -7 -105 -77 -14 -35 -70 42 -55 -7 -126 -35 -49 35 -42 77 -28 160 -7 28 -42 140 0 0 -28 98 -14 42 -56 69 -91 28 0 7 28 56 0 14 -70 98 -42 28 -174 132 7 7 -42 14 -133 49 -42 70 -77 77 -70 181 -7z"/>
   </g>
  </g>
 </g>
</svg>
