<?xml version="1.0" encoding="UTF-8"?>
<!DOCTYPE svg PUBLIC "-//W3C//DTD SVG 1.1//EN" "http://www.w3.org/Graphics/SVG/1.1/DTD/svg11.dtd">
<!-- Creator: CorelDRAW X8 -->
<svg xmlns="http://www.w3.org/2000/svg" xml:space="preserve" width="100%" height="100%" version="1.1" shape-rendering="geometricPrecision" text-rendering="geometricPrecision" image-rendering="optimizeQuality" fill-rule="evenodd" clip-rule="evenodd"
viewBox="0 0 4461 4792"
 xmlns:xlink="http://www.w3.org/1999/xlink">
 <g id="Layer_x0020_1">
  <metadata id="CorelCorpID_0Corel-Layer"/>
  <g id="Layers">
   <g id="India_Districts_selection">
    <polygon fill="#6EA97F" points="4461,2600 4251,2698 3970,2839 3774,2979 3549,3148 3381,3345 3367,3485 3437,3598 3465,3710 3353,3781 3283,3907 3171,4005 3072,4076 2890,4076 2848,4019 2806,3949 2736,3865 2624,3865 2539,3935 2427,4048 2413,4230 2343,4469 2245,4666 2161,4792 2020,4539 1824,4315 1824,3738 1670,3556 1613,3092 1431,2839 1249,2642 1193,2305 1080,2206 744,2249 645,2333 351,2431 70,2319 0,2249 112,2206 491,1841 673,1532 898,1532 1193,1448 1221,1223 1712,1223 1908,942 2161,717 2315,576 2708,576 2890,661 3086,562 3353,548 3381,394 3774,14 4097,0 3998,337 3984,520 3592,843 3353,970 3241,1279 3409,1405 3606,1518 3662,1743 3704,1939 3816,2080 3858,2249 4223,2277 4419,2473 "/>
   </g>
  </g>
 </g>
</svg>
