<?xml version="1.0" encoding="UTF-8"?>
<!DOCTYPE svg PUBLIC "-//W3C//DTD SVG 1.1//EN" "http://www.w3.org/Graphics/SVG/1.1/DTD/svg11.dtd">
<!-- Creator: CorelDRAW X8 -->
<svg xmlns="http://www.w3.org/2000/svg" xml:space="preserve" width="100%" height="100%" version="1.1" shape-rendering="geometricPrecision" text-rendering="geometricPrecision" image-rendering="optimizeQuality" fill-rule="evenodd" clip-rule="evenodd"
viewBox="0 0 2885 2986"
 xmlns:xlink="http://www.w3.org/1999/xlink">
 <g id="Layer_x0020_1">
  <metadata id="CorelCorpID_0Corel-Layer"/>
  <g id="Layers">
   <g id="India_Districts_selection">
    <polygon fill="#6EA97F" points="2649,149 2631,306 2640,403 2797,508 2815,744 2762,849 2710,1024 2587,1165 2334,1226 2378,1462 2552,1813 2718,1856 2832,2224 2885,2408 2596,2504 2378,2487 2177,2539 2072,2671 1993,2846 1818,2863 1739,2749 1774,2671 1687,2539 1451,2539 1399,2609 1119,2566 1145,2916 1119,2986 691,2986 507,2960 402,2828 393,2636 227,2461 157,2312 0,2172 17,2154 52,2102 157,1883 157,1366 131,928 70,832 402,613 927,543 1652,0 2456,79 2622,140 "/>
   </g>
  </g>
 </g>
</svg>
