<?xml version="1.0" encoding="UTF-8"?>
<!DOCTYPE svg PUBLIC "-//W3C//DTD SVG 1.1//EN" "http://www.w3.org/Graphics/SVG/1.1/DTD/svg11.dtd">
<!-- Creator: CorelDRAW X8 -->
<svg xmlns="http://www.w3.org/2000/svg" xml:space="preserve" width="100%" height="100%" version="1.1" shape-rendering="geometricPrecision" text-rendering="geometricPrecision" image-rendering="optimizeQuality" fill-rule="evenodd" clip-rule="evenodd"
viewBox="0 0 1719 1631"
 xmlns:xlink="http://www.w3.org/1999/xlink">
 <g id="Layer_x0020_1">
  <metadata id="CorelCorpID_0Corel-Layer"/>
  <g id="Layers">
   <g id="India_Districts_selection">
    <polygon fill="#6EA97F" points="0,995 5,899 5,784 72,670 100,588 48,564 91,517 162,392 205,297 248,292 286,244 282,167 244,96 253,57 358,57 430,0 649,29 898,91 888,153 797,239 711,531 793,598 941,636 1041,703 1179,885 1399,952 1471,1024 1466,1253 1514,1272 1671,1387 1671,1502 1714,1511 1719,1569 1547,1583 1418,1621 1418,1631 1375,1602 1213,1598 960,1406 711,1392 525,1248 282,1177 177,1052 "/>
   </g>
  </g>
 </g>
</svg>
