<?xml version="1.0" encoding="UTF-8"?>
<!DOCTYPE svg PUBLIC "-//W3C//DTD SVG 1.1//EN" "http://www.w3.org/Graphics/SVG/1.1/DTD/svg11.dtd">
<!-- Creator: CorelDRAW X8 -->
<svg xmlns="http://www.w3.org/2000/svg" xml:space="preserve" width="100%" height="100%" version="1.1" shape-rendering="geometricPrecision" text-rendering="geometricPrecision" image-rendering="optimizeQuality" fill-rule="evenodd" clip-rule="evenodd"
viewBox="0 0 3179 1932"
 xmlns:xlink="http://www.w3.org/1999/xlink">
 <g id="Layer_x0020_1">
  <metadata id="CorelCorpID_0Corel-Layer"/>
  <g id="Layers">
   <g id="India_Districts_selection">
    <polygon fill="#6EA97F" points="3179,181 3088,295 3003,555 2828,544 2755,640 2670,810 2641,1099 2528,1292 2483,1439 2438,1802 2370,1875 2296,1932 2291,1926 2098,1830 1793,1626 1652,1445 1539,1400 1431,1400 1171,1428 1001,1445 882,1502 786,1558 735,1530 605,1417 255,1422 102,1422 0,1337 85,1298 187,1258 283,1196 339,1128 373,1043 447,1037 515,997 634,912 684,771 769,714 877,691 848,612 894,521 1052,499 1069,329 1182,266 1205,51 1250,6 1403,0 1454,62 1669,57 1759,23 1923,142 2008,147 2025,119 2093,113 2104,142 2189,204 2330,198 2387,249 2483,187 2500,91 2574,85 2664,40 2738,17 2811,91 2964,79 2998,159 3105,142 "/>
   </g>
  </g>
 </g>
</svg>
