<?xml version="1.0" encoding="UTF-8"?>
<!DOCTYPE svg PUBLIC "-//W3C//DTD SVG 1.1//EN" "http://www.w3.org/Graphics/SVG/1.1/DTD/svg11.dtd">
<!-- Creator: CorelDRAW X8 -->
<svg xmlns="http://www.w3.org/2000/svg" xml:space="preserve" width="100%" height="100%" version="1.1" shape-rendering="geometricPrecision" text-rendering="geometricPrecision" image-rendering="optimizeQuality" fill-rule="evenodd" clip-rule="evenodd"
viewBox="0 0 2149 1782"
 xmlns:xlink="http://www.w3.org/1999/xlink">
 <g id="Layer_x0020_1">
  <metadata id="CorelCorpID_0Corel-Layer"/>
  <g id="Layers">
   <g id="India_Districts_selection">
    <polygon fill="#6EA97F" points="1977,1562 1966,1567 1914,1578 1872,1599 1820,1604 1768,1609 1721,1620 1721,1661 1737,1682 1695,1703 1664,1724 1612,1745 1554,1745 1549,1755 1518,1755 1476,1766 1455,1782 1413,1776 1387,1745 1372,1714 1320,1646 1293,1625 1236,1594 1210,1573 1189,1536 1153,1526 1106,1526 1080,1499 1059,1468 1043,1442 1022,1421 1007,1395 970,1379 960,1379 939,1348 881,1317 834,1301 798,1275 767,1217 741,1212 725,1176 678,1144 636,1092 574,1024 532,972 501,967 443,925 433,857 391,831 360,805 308,773 250,758 193,747 172,747 130,731 110,700 78,674 57,658 37,653 31,627 0,590 0,569 125,559 136,533 172,522 219,512 245,496 240,449 266,423 266,397 276,397 282,355 339,345 360,324 365,293 376,261 376,251 449,313 636,366 949,392 1142,361 1163,246 1247,219 1393,167 1518,172 1700,5 1805,0 1904,63 1977,152 2055,214 2044,219 2013,246 1977,266 1945,308 1919,350 1914,376 1909,418 1893,423 1872,569 1904,601 1940,617 1966,643 1987,664 2008,690 2013,768 2008,799 1992,841 1971,867 1971,951 1998,998 2024,1034 2044,1071 2081,1092 2091,1134 2112,1181 2149,1217 2138,1290 2091,1338 2050,1364 2003,1369 1982,1452 1987,1515 1966,1557 "/>
   </g>
  </g>
 </g>
</svg>
