<?xml version="1.0" encoding="UTF-8"?>
<!DOCTYPE svg PUBLIC "-//W3C//DTD SVG 1.1//EN" "http://www.w3.org/Graphics/SVG/1.1/DTD/svg11.dtd">
<!-- Creator: CorelDRAW X8 -->
<svg xmlns="http://www.w3.org/2000/svg" xml:space="preserve" width="100%" height="100%" version="1.1" shape-rendering="geometricPrecision" text-rendering="geometricPrecision" image-rendering="optimizeQuality" fill-rule="evenodd" clip-rule="evenodd"
viewBox="0 0 6966 4391"
 xmlns:xlink="http://www.w3.org/1999/xlink">
 <g id="Layer_x0020_1">
  <metadata id="CorelCorpID_0Corel-Layer"/>
  <g id="Layers">
   <g id="India_Districts_selection">
    <polygon fill="#6EA97F" points="6516,4391 6452,3978 6311,3837 5848,3682 5308,3760 5115,3850 5000,3579 4781,3541 4781,3309 4846,3180 4781,3116 4768,3013 4409,3026 4357,2974 4062,2961 4023,3077 3715,3051 3702,3129 3483,3129 3432,3000 3342,2755 3059,2845 2841,2833 2918,3103 2866,3360 2352,3335 2224,3541 1992,3515 1954,3399 1632,3425 1594,3335 1452,3348 1388,3180 1350,2807 1568,2382 1697,2073 1555,1893 1208,1867 1093,2021 784,2099 566,2073 308,2266 219,2240 64,2150 0,2099 26,2099 26,1828 180,1700 77,1429 193,1365 321,1107 553,798 758,811 1131,734 1607,695 1915,605 2339,425 2506,296 2879,270 3329,502 3457,476 3702,245 3779,0 3907,26 4229,64 4447,348 4576,670 4871,811 5218,824 5617,1017 5732,1197 6105,1506 6349,1751 6529,1841 6671,2176 6825,2472 6966,2691 6966,3657 6812,3978 6645,4275 "/>
   </g>
  </g>
 </g>
</svg>
