<?xml version="1.0" encoding="UTF-8"?>
<!DOCTYPE svg PUBLIC "-//W3C//DTD SVG 1.1//EN" "http://www.w3.org/Graphics/SVG/1.1/DTD/svg11.dtd">
<!-- Creator: CorelDRAW X8 -->
<svg xmlns="http://www.w3.org/2000/svg" xml:space="preserve" width="100%" height="100%" version="1.1" shape-rendering="geometricPrecision" text-rendering="geometricPrecision" image-rendering="optimizeQuality" fill-rule="evenodd" clip-rule="evenodd"
viewBox="0 0 1769 1481"
 xmlns:xlink="http://www.w3.org/1999/xlink">
 <g id="Layer_x0020_1">
  <metadata id="CorelCorpID_0Corel-Layer"/>
  <g id="Layers">
   <g id="India_Districts_selection">
    <polygon fill="#6EA97F" points="1453,1059 1409,1068 1288,1138 1188,1194 1093,1276 1128,1355 1088,1481 1006,1476 958,1381 807,1376 785,1411 585,1394 464,1368 369,1316 351,1194 334,1072 208,1012 199,851 78,755 78,530 30,495 0,404 56,347 91,326 130,291 134,152 252,156 260,122 304,78 364,87 421,135 481,191 507,278 577,282 581,304 698,295 698,269 893,278 932,200 954,152 958,43 1088,39 1132,0 1271,87 1292,195 1349,247 1509,308 1592,373 1756,573 1769,634 1570,630 1566,899 1453,1059 "/>
   </g>
  </g>
 </g>
</svg>
