<?xml version="1.0" encoding="UTF-8"?>
<!DOCTYPE svg PUBLIC "-//W3C//DTD SVG 1.1//EN" "http://www.w3.org/Graphics/SVG/1.1/DTD/svg11.dtd">
<!-- Creator: CorelDRAW X8 -->
<svg xmlns="http://www.w3.org/2000/svg" xml:space="preserve" width="100%" height="100%" version="1.1" shape-rendering="geometricPrecision" text-rendering="geometricPrecision" image-rendering="optimizeQuality" fill-rule="evenodd" clip-rule="evenodd"
viewBox="0 0 2207 2083"
 xmlns:xlink="http://www.w3.org/1999/xlink">
 <g id="Layer_x0020_1">
  <metadata id="CorelCorpID_0Corel-Layer"/>
  <g id="Layers">
   <g id="India_Districts_selection">
    <polygon fill="#6EA97F" points="2110,1325 2116,1350 2207,1435 2164,1496 2073,1539 2024,1521 1939,1570 1921,1631 1951,1692 2006,1771 1969,1838 1933,1906 1933,1942 1927,2022 1713,2016 1671,2083 1414,1961 1079,1686 902,1551 811,1594 701,1655 549,1667 390,1680 293,1722 226,1661 238,1539 79,1460 110,1362 268,1252 268,928 183,843 335,641 238,617 85,562 0,495 49,354 134,257 116,110 262,92 433,110 561,86 628,55 707,18 908,0 1030,24 1195,116 1335,195 1408,238 1494,287 1616,305 1719,324 1762,354 1780,464 1780,544 1786,599 1847,605 1921,580 1994,580 2018,654 2006,727 1945,818 1896,879 1896,959 1896,1087 1933,1234 1957,1319 2000,1368 2073,1374 "/>
   </g>
  </g>
 </g>
</svg>
