<?xml version="1.0" encoding="UTF-8"?>
<!DOCTYPE svg PUBLIC "-//W3C//DTD SVG 1.1//EN" "http://www.w3.org/Graphics/SVG/1.1/DTD/svg11.dtd">
<!-- Creator: CorelDRAW X8 -->
<svg xmlns="http://www.w3.org/2000/svg" xml:space="preserve" width="100%" height="100%" version="1.1" shape-rendering="geometricPrecision" text-rendering="geometricPrecision" image-rendering="optimizeQuality" fill-rule="evenodd" clip-rule="evenodd"
viewBox="0 0 2158 1481"
 xmlns:xlink="http://www.w3.org/1999/xlink">
 <g id="Layer_x0020_1">
  <metadata id="CorelCorpID_0Corel-Layer"/>
  <g id="Layers">
   <g id="India_Districts_selection">
    <polygon fill="#6EA97F" points="2158,308 2119,369 2102,391 2072,421 2037,447 2020,473 1955,499 1946,543 1920,564 1864,564 1816,582 1764,599 1734,617 1699,634 1660,638 1643,677 1643,716 1660,734 1656,782 1677,821 1703,842 1738,877 1738,894 1747,1177 1777,1194 1786,1220 1781,1237 1803,1276 1790,1294 1773,1307 1751,1320 1725,1329 1712,1342 1682,1359 1643,1376 1599,1389 1573,1411 1560,1446 1534,1459 1513,1476 1465,1481 1448,1454 1430,1437 1383,1411 1287,1381 1235,1316 1222,1263 1214,1211 1179,1190 1162,1172 1136,1129 1079,1116 949,1125 884,1125 875,1159 858,1155 815,1151 776,1142 771,1116 728,1094 702,1072 607,1072 598,1055 559,1051 412,1055 412,1029 390,1029 325,1029 316,1064 191,1055 173,1077 160,1064 121,1051 74,1051 69,1051 69,1038 0,899 35,877 74,873 100,860 126,864 169,864 178,847 247,847 243,795 243,755 273,742 312,738 329,721 386,721 420,703 442,686 485,682 524,673 542,664 568,643 602,630 615,604 633,582 654,556 689,551 741,543 750,521 867,530 871,543 893,564 906,564 915,551 971,547 980,534 1032,521 1045,504 1071,486 1092,473 1144,473 1218,460 1274,447 1348,439 1344,399 1357,386 1391,347 1391,308 1404,291 1426,265 1435,213 1456,178 1448,117 1448,78 1478,30 1487,4 1729,0 1751,30 1816,52 1868,122 2085,278 "/>
   </g>
  </g>
 </g>
</svg>
