<?xml version="1.0" encoding="UTF-8"?>
<!DOCTYPE svg PUBLIC "-//W3C//DTD SVG 1.1//EN" "http://www.w3.org/Graphics/SVG/1.1/DTD/svg11.dtd">
<!-- Creator: CorelDRAW X8 -->
<svg xmlns="http://www.w3.org/2000/svg" xml:space="preserve" width="100%" height="100%" version="1.1" shape-rendering="geometricPrecision" text-rendering="geometricPrecision" image-rendering="optimizeQuality" fill-rule="evenodd" clip-rule="evenodd"
viewBox="0 0 1943 1481"
 xmlns:xlink="http://www.w3.org/1999/xlink">
 <g id="Layer_x0020_1">
  <metadata id="CorelCorpID_0Corel-Layer"/>
  <g id="Layers">
   <g id="India_Districts_selection">
    <polygon fill="#6EA97F" points="1943,230 1938,269 1882,313 1886,395 1830,443 1817,543 1782,604 1609,612 1535,690 1531,725 1483,755 1505,799 1522,860 1540,886 1600,907 1644,964 1626,1046 1631,1233 1500,1246 1457,1233 1422,1233 1396,1255 1344,1250 1323,1281 1297,1355 1284,1411 1245,1424 1197,1441 1154,1481 1132,1446 1097,1428 1058,1402 980,1402 980,1359 1002,1337 1010,1303 889,1298 837,1276 807,1246 768,1220 763,1168 720,1159 685,1125 642,1111 564,1098 516,1085 503,1107 455,1103 408,1129 321,1190 278,1177 299,1142 343,1072 360,1033 286,1016 239,1020 226,994 195,986 204,903 178,855 147,834 95,808 35,760 0,729 65,573 260,452 390,274 516,152 711,48 729,82 746,104 755,126 798,156 846,148 880,174 924,213 950,226 1054,226 1115,169 1162,122 1193,52 1284,61 1310,4 1457,9 1479,39 1544,30 1587,17 1652,0 1687,4 1696,78 1717,100 1795,96 1826,117 1856,61 1873,74 1891,91 1882,113 1899,135 1886,169 1869,204 1917,217 "/>
   </g>
  </g>
 </g>
</svg>
