<?xml version="1.0" encoding="UTF-8"?>
<!DOCTYPE svg PUBLIC "-//W3C//DTD SVG 1.1//EN" "http://www.w3.org/Graphics/SVG/1.1/DTD/svg11.dtd">
<!-- Creator: CorelDRAW X8 -->
<svg xmlns="http://www.w3.org/2000/svg" xml:space="preserve" width="100%" height="100%" version="1.1" shape-rendering="geometricPrecision" text-rendering="geometricPrecision" image-rendering="optimizeQuality" fill-rule="evenodd" clip-rule="evenodd"
viewBox="0 0 1301 1932"
 xmlns:xlink="http://www.w3.org/1999/xlink">
 <g id="Layer_x0020_1">
  <metadata id="CorelCorpID_0Corel-Layer"/>
  <g id="Layers">
   <g id="India_Districts_selection">
    <polygon fill="#6EA97F" points="1148,221 1205,244 1244,244 1273,278 1301,317 1301,397 1267,425 1250,459 1222,510 1143,589 1069,674 1058,742 1080,776 1126,805 1148,776 1154,776 1222,827 1250,884 1256,912 1295,941 1250,997 1250,1071 1227,1122 1193,1150 1171,1196 1165,1252 1148,1281 1114,1360 1114,1638 1092,1694 1086,1773 1058,1785 1035,1796 1035,1790 996,1768 928,1813 888,1841 843,1858 560,1847 560,1824 464,1824 453,1853 430,1887 373,1932 283,1932 232,1921 107,1875 68,1762 51,1632 34,1462 17,1377 0,1366 17,1337 45,1275 62,1213 68,1133 91,1043 141,952 164,907 204,844 255,782 277,708 322,652 345,612 379,606 419,635 469,674 509,697 571,703 656,708 724,674 764,612 775,561 826,465 848,397 894,346 962,300 979,261 956,198 939,136 945,74 979,40 1035,0 1035,68 1086,113 1114,147 "/>
   </g>
  </g>
 </g>
</svg>
