<?xml version="1.0" encoding="UTF-8"?>
<!DOCTYPE svg PUBLIC "-//W3C//DTD SVG 1.1//EN" "http://www.w3.org/Graphics/SVG/1.1/DTD/svg11.dtd">
<!-- Creator: CorelDRAW X8 -->
<svg xmlns="http://www.w3.org/2000/svg" xml:space="preserve" width="100%" height="100%" version="1.1" shape-rendering="geometricPrecision" text-rendering="geometricPrecision" image-rendering="optimizeQuality" fill-rule="evenodd" clip-rule="evenodd"
viewBox="0 0 3414 2083"
 xmlns:xlink="http://www.w3.org/1999/xlink">
 <g id="Layer_x0020_1">
  <metadata id="CorelCorpID_0Corel-Layer"/>
  <g id="Layers">
   <g id="India_Districts_selection">
    <polygon fill="#6EA97F" points="2073,2083 1921,2064 1689,2040 1664,1997 1597,2003 1591,2046 1421,2040 1402,1991 1256,1997 1189,2016 1122,2028 1061,1881 933,1863 908,1783 762,1649 640,1625 488,1582 488,1509 445,1478 451,1374 463,1301 524,1222 518,1130 494,1051 354,910 152,800 12,739 0,507 67,403 146,330 220,360 256,531 311,507 384,409 573,544 628,580 963,574 1128,629 1195,574 1195,519 1415,513 1433,568 1872,592 1908,507 1750,428 1823,318 2067,299 2055,202 2183,195 2329,226 2445,195 2603,183 2628,73 2628,0 2695,18 2744,165 2872,287 3378,379 3414,452 3372,660 3091,1099 2817,1209 2683,1338 2640,1588 2262,1783 2195,2034 "/>
   </g>
  </g>
 </g>
</svg>
