<?xml version="1.0" encoding="UTF-8"?>
<!DOCTYPE svg PUBLIC "-//W3C//DTD SVG 1.1//EN" "http://www.w3.org/Graphics/SVG/1.1/DTD/svg11.dtd">
<!-- Creator: CorelDRAW X8 -->
<svg xmlns="http://www.w3.org/2000/svg" xml:space="preserve" width="100%" height="100%" version="1.1" shape-rendering="geometricPrecision" text-rendering="geometricPrecision" image-rendering="optimizeQuality" fill-rule="evenodd" clip-rule="evenodd"
viewBox="0 0 3992 2643"
 xmlns:xlink="http://www.w3.org/1999/xlink">
 <g id="Layer_x0020_1">
  <metadata id="CorelCorpID_0Corel-Layer"/>
  <g id="Layers">
   <g id="India_Districts_selection">
    <polygon fill="#6EA97F" points="1331,2534 990,1937 982,1837 874,1821 642,1651 433,1604 371,1713 116,1720 8,1658 0,1403 147,1232 147,1000 85,914 85,635 77,349 209,294 797,294 859,465 1044,457 1068,372 1307,364 1284,0 1377,132 1640,139 1756,201 1787,318 2336,403 2576,403 2607,403 2924,728 2963,868 2893,953 2893,1023 3133,1062 3187,1139 3319,1124 3357,1054 3628,1023 3698,1108 3798,1170 3814,1248 3860,1271 3883,1527 3992,1643 3945,1658 3860,2147 3953,2294 3868,2526 3442,2643 3404,2557 3203,2550 2878,2480 2700,2216 2499,1821 2359,1899 2367,2100 2197,2325 1702,2480 1331,2480 "/>
   </g>
  </g>
 </g>
</svg>
