<?xml version="1.0" encoding="UTF-8"?>
<!DOCTYPE svg PUBLIC "-//W3C//DTD SVG 1.1//EN" "http://www.w3.org/Graphics/SVG/1.1/DTD/svg11.dtd">
<!-- Creator: CorelDRAW X8 -->
<svg xmlns="http://www.w3.org/2000/svg" xml:space="preserve" width="100%" height="100%" version="1.1" shape-rendering="geometricPrecision" text-rendering="geometricPrecision" image-rendering="optimizeQuality" fill-rule="evenodd" clip-rule="evenodd"
viewBox="0 0 1948 1179"
 xmlns:xlink="http://www.w3.org/1999/xlink">
 <g id="Layer_x0020_1">
  <metadata id="CorelCorpID_0Corel-Layer"/>
  <g id="Layers">
   <g id="India_Districts_selection">
    <polygon fill="#6EA97F" points="1948,1020 1710,1020 1033,1086 701,1179 93,1090 0,1072 17,827 69,823 86,799 155,782 152,692 207,612 231,543 235,450 301,360 273,356 304,325 549,315 560,349 947,353 985,308 1030,270 1099,159 1126,83 1188,14 1344,0 1344,86 1382,111 1392,329 1406,484 1558,515 1644,598 1714,633 1772,681 1869,751 1907,844 1935,906 "/>
   </g>
  </g>
 </g>
</svg>
