<?xml version="1.0" encoding="UTF-8"?>
<!DOCTYPE svg PUBLIC "-//W3C//DTD SVG 1.1//EN" "http://www.w3.org/Graphics/SVG/1.1/DTD/svg11.dtd">
<!-- Creator: CorelDRAW X8 -->
<svg xmlns="http://www.w3.org/2000/svg" xml:space="preserve" width="100%" height="100%" version="1.1" shape-rendering="geometricPrecision" text-rendering="geometricPrecision" image-rendering="optimizeQuality" fill-rule="evenodd" clip-rule="evenodd"
viewBox="0 0 4089 2384"
 xmlns:xlink="http://www.w3.org/1999/xlink">
 <g id="Layer_x0020_1">
  <metadata id="CorelCorpID_0Corel-Layer"/>
  <g id="Layers">
   <g id="India_Districts_selection">
    <polygon fill="#6EA97F" points="4089,391 3964,468 3803,587 3587,734 3475,825 3475,818 3350,916 3140,1035 2959,1146 2729,1230 2512,1293 2324,1328 2205,1426 2045,1573 1968,1713 1842,1887 1752,1950 1640,2027 1486,2125 1326,2195 1158,2265 970,2356 914,2384 886,2286 733,2146 461,2118 433,1992 349,1887 321,1734 272,1566 126,1482 0,1384 84,1153 258,1056 558,818 565,671 649,419 642,308 872,301 893,175 1061,161 1158,105 1256,21 1458,84 1640,287 1710,440 1856,433 1905,329 1989,238 2080,182 2191,49 2338,0 2484,7 2526,140 2673,245 2798,245 2910,315 3140,294 3245,245 3385,175 3726,98 3978,168 4047,217 4061,322 "/>
   </g>
  </g>
 </g>
</svg>
