<?xml version="1.0" encoding="UTF-8"?>
<!DOCTYPE svg PUBLIC "-//W3C//DTD SVG 1.1//EN" "http://www.w3.org/Graphics/SVG/1.1/DTD/svg11.dtd">
<!-- Creator: CorelDRAW X8 -->
<svg xmlns="http://www.w3.org/2000/svg" xml:space="preserve" width="100%" height="100%" version="1.1" shape-rendering="geometricPrecision" text-rendering="geometricPrecision" image-rendering="optimizeQuality" fill-rule="evenodd" clip-rule="evenodd"
viewBox="0 0 3685 2835"
 xmlns:xlink="http://www.w3.org/1999/xlink">
 <g id="Layer_x0020_1">
  <metadata id="CorelCorpID_0Corel-Layer"/>
  <g id="Layers">
   <g id="India_Districts_selection">
    <polygon fill="#6EA97F" points="3685,2029 3611,2037 3378,2137 3212,2253 3129,2436 3071,2694 2905,2777 2739,2835 2565,2810 2357,2744 2191,2661 2083,2553 2108,2411 2108,2245 2108,2104 2034,1979 1868,1929 1685,1971 1635,2079 1527,2137 1419,2112 1394,1896 1345,1638 1270,1389 1204,1314 1054,1305 955,1247 855,1172 822,1197 789,956 714,815 647,674 349,674 166,540 17,391 0,216 58,175 91,83 506,125 689,175 1137,225 1403,116 1527,133 1668,208 1809,249 2133,83 2241,0 2341,50 2449,225 2540,316 2656,349 2938,399 3212,416 3254,565 3262,748 3237,823 3030,1023 3088,1164 3436,1247 3511,1530 3544,1655 3577,1763 3677,1779 "/>
   </g>
  </g>
 </g>
</svg>
