<?xml version="1.0" encoding="UTF-8"?>
<!DOCTYPE svg PUBLIC "-//W3C//DTD SVG 1.1//EN" "http://www.w3.org/Graphics/SVG/1.1/DTD/svg11.dtd">
<!-- Creator: CorelDRAW X8 -->
<svg xmlns="http://www.w3.org/2000/svg" xml:space="preserve" width="100%" height="100%" version="1.1" shape-rendering="geometricPrecision" text-rendering="geometricPrecision" image-rendering="optimizeQuality" fill-rule="evenodd" clip-rule="evenodd"
viewBox="0 0 2730 2534"
 xmlns:xlink="http://www.w3.org/1999/xlink">
 <g id="Layer_x0020_1">
  <metadata id="CorelCorpID_0Corel-Layer"/>
  <g id="Layers">
   <g id="India_Districts_selection">
    <polygon fill="#6EA97F" points="15,1367 0,1115 111,966 341,818 913,788 994,684 1039,617 957,505 920,401 950,312 1113,164 1217,30 1565,0 1558,7 1565,89 1610,141 1870,149 2114,134 2203,111 2263,156 2300,223 2344,275 2337,379 2396,453 2522,528 2522,580 2448,595 2359,632 2263,676 2181,736 2181,870 2203,929 2404,1011 2634,1182 2730,1286 2715,1531 2612,1717 2582,2074 2552,2349 2582,2460 2456,2512 2322,2534 2137,2430 1936,2401 1758,2319 1373,1999 1113,1776 1157,1694 1365,1486 1439,1256 1350,1211 1068,1249 824,1211 438,1234 364,1301 193,1338 "/>
   </g>
  </g>
 </g>
</svg>
