<?xml version="1.0" encoding="UTF-8"?>
<!DOCTYPE svg PUBLIC "-//W3C//DTD SVG 1.1//EN" "http://www.w3.org/Graphics/SVG/1.1/DTD/svg11.dtd">
<!-- Creator: CorelDRAW X8 -->
<svg xmlns="http://www.w3.org/2000/svg" xml:space="preserve" width="100%" height="100%" version="1.1" shape-rendering="geometricPrecision" text-rendering="geometricPrecision" image-rendering="optimizeQuality" fill-rule="evenodd" clip-rule="evenodd"
viewBox="0 0 2000 2083"
 xmlns:xlink="http://www.w3.org/1999/xlink">
 <g id="Layer_x0020_1">
  <metadata id="CorelCorpID_0Corel-Layer"/>
  <g id="Layers">
   <g id="India_Districts_selection">
    <polygon fill="#6EA97F" points="1963,1289 2000,1399 1969,1502 1890,1551 1811,1557 1756,1631 1677,1661 1628,1704 1561,1753 1530,1832 1488,1930 1433,2009 1347,2077 1335,2083 1335,2077 1225,1991 1030,1985 976,1942 847,1857 829,1783 835,1637 793,1582 738,1490 658,1454 598,1380 537,1350 445,1362 348,1258 268,1185 159,1197 79,1185 79,1179 49,1069 0,1026 24,904 91,825 219,776 183,739 183,641 140,476 165,360 183,275 201,238 366,214 512,208 579,98 707,116 787,140 799,86 878,0 945,61 1079,61 1146,61 1146,73 1225,122 1335,202 1421,299 1567,299 1664,409 1707,501 1799,550 1817,562 1762,672 1732,825 1762,996 1817,1051 1841,1130 1847,1240 1878,1307 1939,1313 "/>
   </g>
  </g>
 </g>
</svg>
