<?xml version="1.0" encoding="UTF-8"?>
<!DOCTYPE svg PUBLIC "-//W3C//DTD SVG 1.1//EN" "http://www.w3.org/Graphics/SVG/1.1/DTD/svg11.dtd">
<!-- Creator: CorelDRAW X8 -->
<svg xmlns="http://www.w3.org/2000/svg" xml:space="preserve" width="100%" height="100%" version="1.1" shape-rendering="geometricPrecision" text-rendering="geometricPrecision" image-rendering="optimizeQuality" fill-rule="evenodd" clip-rule="evenodd"
viewBox="0 0 5557 5244"
 xmlns:xlink="http://www.w3.org/1999/xlink">
 <g id="Layer_x0020_1">
  <metadata id="CorelCorpID_0Corel-Layer"/>
  <g id="Layers">
   <g id="India_Districts_selection">
    <polygon fill="#6EA97F" points="4283,554 4222,569 4222,861 4406,1338 4559,1784 4744,2061 5005,2445 5220,2814 5373,3460 5388,3691 5419,3845 5527,3921 5465,4352 5527,4583 5542,4690 5557,4860 5450,5059 5189,5244 4713,5229 4621,5044 4483,4829 4206,4813 3961,4706 3638,4613 3208,4583 3040,4660 2809,4783 2579,4660 2533,4460 2333,4383 2195,4229 2057,4306 1796,4260 1673,4183 1704,4168 1612,3599 1689,3306 1259,3229 906,3045 691,2937 476,2707 230,2599 15,2507 0,2291 200,2199 553,1861 399,1692 353,1353 476,1246 537,815 568,846 829,815 1228,400 1504,477 1474,815 1581,861 1858,554 2042,554 2057,984 2257,984 2809,846 2994,661 3009,154 3116,92 3316,0 3654,15 3776,185 4145,169 4176,446 "/>
   </g>
  </g>
 </g>
</svg>
