<?xml version="1.0" encoding="UTF-8"?>
<!DOCTYPE svg PUBLIC "-//W3C//DTD SVG 1.1//EN" "http://www.w3.org/Graphics/SVG/1.1/DTD/svg11.dtd">
<!-- Creator: CorelDRAW X8 -->
<svg xmlns="http://www.w3.org/2000/svg" xml:space="preserve" width="100%" height="100%" version="1.1" shape-rendering="geometricPrecision" text-rendering="geometricPrecision" image-rendering="optimizeQuality" fill-rule="evenodd" clip-rule="evenodd"
viewBox="0 0 2231 2083"
 xmlns:xlink="http://www.w3.org/1999/xlink">
 <g id="Layer_x0020_1">
  <metadata id="CorelCorpID_0Corel-Layer"/>
  <g id="Layers">
   <g id="India_Districts_selection">
    <polygon fill="#6EA97F" points="2036,1631 1725,1777 1445,2016 1171,2016 750,2003 634,2083 378,2003 85,1893 0,1875 18,1783 140,1570 219,1417 348,1087 384,806 348,666 274,519 518,324 671,299 945,342 1049,281 1323,299 1384,342 1841,342 2213,0 2231,257 2201,672 2097,861 2061,1063 2061,1423 "/>
   </g>
  </g>
 </g>
</svg>
