<?xml version="1.0" encoding="UTF-8"?>
<!DOCTYPE svg PUBLIC "-//W3C//DTD SVG 1.1//EN" "http://www.w3.org/Graphics/SVG/1.1/DTD/svg11.dtd">
<!-- Creator: CorelDRAW X8 -->
<svg xmlns="http://www.w3.org/2000/svg" xml:space="preserve" width="100%" height="100%" version="1.1" shape-rendering="geometricPrecision" text-rendering="geometricPrecision" image-rendering="optimizeQuality" fill-rule="evenodd" clip-rule="evenodd"
viewBox="0 0 2373 2083"
 xmlns:xlink="http://www.w3.org/1999/xlink">
 <g id="Layer_x0020_1">
  <metadata id="CorelCorpID_0Corel-Layer"/>
  <g id="Layers">
   <g id="India_Districts_selection">
    <polygon fill="#6EA97F" points="2081,2058 2007,2058 1824,1985 1556,2003 1379,1863 1165,1863 1001,1924 830,1979 616,2052 537,2083 329,2058 311,1967 232,1887 165,1741 177,1466 6,1368 0,1240 24,1124 110,1075 201,879 299,715 372,599 494,379 628,195 665,98 757,110 1104,104 1336,104 1348,0 1403,31 1495,165 1684,342 1830,354 1983,458 2196,483 2349,611 2373,623 2203,776 2013,941 1897,1136 1812,1222 1824,1331 1977,1502 2111,1698 2044,1753 2062,1906 "/>
   </g>
  </g>
 </g>
</svg>
