<?xml version="1.0" encoding="UTF-8"?>
<!DOCTYPE svg PUBLIC "-//W3C//DTD SVG 1.1//EN" "http://www.w3.org/Graphics/SVG/1.1/DTD/svg11.dtd">
<!-- Creator: CorelDRAW X8 -->
<svg xmlns="http://www.w3.org/2000/svg" xml:space="preserve" width="100%" height="100%" version="1.1" shape-rendering="geometricPrecision" text-rendering="geometricPrecision" image-rendering="optimizeQuality" fill-rule="evenodd" clip-rule="evenodd"
viewBox="0 0 2428 2384"
 xmlns:xlink="http://www.w3.org/1999/xlink">
 <g id="Layer_x0020_1">
  <metadata id="CorelCorpID_0Corel-Layer"/>
  <g id="Layers">
   <g id="India_Districts_selection">
    <polygon fill="#6EA97F" points="691,182 726,287 1075,287 1410,308 1584,454 1696,587 1647,664 1535,776 1710,902 1661,1077 1745,1146 1982,1153 2024,1272 2317,1279 2387,1475 2428,1545 1668,2055 1075,2384 586,1922 398,1664 272,1720 265,1727 216,1685 77,1573 21,1321 0,1167 28,1098 181,944 251,783 251,629 181,524 126,398 63,294 0,210 28,203 119,49 202,0 195,63 419,126 482,168 "/>
   </g>
  </g>
 </g>
</svg>
