<?xml version="1.0" encoding="UTF-8"?>
<!DOCTYPE svg PUBLIC "-//W3C//DTD SVG 1.1//EN" "http://www.w3.org/Graphics/SVG/1.1/DTD/svg11.dtd">
<!-- Creator: CorelDRAW X8 -->
<svg xmlns="http://www.w3.org/2000/svg" xml:space="preserve" width="100%" height="100%" version="1.1" shape-rendering="geometricPrecision" text-rendering="geometricPrecision" image-rendering="optimizeQuality" fill-rule="evenodd" clip-rule="evenodd"
viewBox="0 0 1882 1481"
 xmlns:xlink="http://www.w3.org/1999/xlink">
 <g id="Layer_x0020_1">
  <metadata id="CorelCorpID_0Corel-Layer"/>
  <g id="Layers">
   <g id="India_Districts_selection">
    <polygon fill="#6EA97F" points="1817,630 1882,938 1730,1407 1704,1481 1362,1450 1310,1372 1158,1211 989,1185 945,1389 759,1363 733,1129 668,1059 516,1077 442,1007 221,1007 0,894 82,777 108,664 178,547 213,465 356,252 464,65 486,0 616,13 854,13 854,213 889,360 1015,404 1071,360 1106,191 1188,234 1188,330 1245,395 1396,399 1405,556 1561,573 1574,617 "/>
   </g>
  </g>
 </g>
</svg>
