<?xml version="1.0" encoding="UTF-8"?>
<!DOCTYPE svg PUBLIC "-//W3C//DTD SVG 1.1//EN" "http://www.w3.org/Graphics/SVG/1.1/DTD/svg11.dtd">
<!-- Creator: CorelDRAW X8 -->
<svg xmlns="http://www.w3.org/2000/svg" xml:space="preserve" width="100%" height="100%" version="1.1" shape-rendering="geometricPrecision" text-rendering="geometricPrecision" image-rendering="optimizeQuality" fill-rule="evenodd" clip-rule="evenodd"
viewBox="0 0 7901 4943"
 xmlns:xlink="http://www.w3.org/1999/xlink">
 <g id="Layer_x0020_1">
  <metadata id="CorelCorpID_0Corel-Layer"/>
  <g id="Layers">
   <g id="India_Districts_selection">
    <polygon fill="#6EA97F" points="7047,1189 7524,1870 7843,2116 7901,2435 7857,2740 7655,3059 7481,3334 6729,3363 6381,3377 6280,3348 6237,3653 5831,3827 5513,3928 5383,3972 5282,3957 5325,4146 5094,4189 4833,4305 4819,4436 4790,4639 4399,4943 4370,4856 3733,4494 2127,4407 1476,4378 680,3972 130,3508 275,3015 449,2435 174,1812 0,1334 232,1000 1375,1421 3053,2261 3907,1739 4992,449 5658,0 5976,362 6135,971 6656,1290 "/>
   </g>
  </g>
 </g>
</svg>
