<?xml version="1.0" encoding="UTF-8"?>
<!DOCTYPE svg PUBLIC "-//W3C//DTD SVG 1.1//EN" "http://www.w3.org/Graphics/SVG/1.1/DTD/svg11.dtd">
<!-- Creator: CorelDRAW X8 -->
<svg xmlns="http://www.w3.org/2000/svg" xml:space="preserve" width="100%" height="100%" version="1.1" shape-rendering="geometricPrecision" text-rendering="geometricPrecision" image-rendering="optimizeQuality" fill-rule="evenodd" clip-rule="evenodd"
viewBox="0 0 2169 2685"
 xmlns:xlink="http://www.w3.org/1999/xlink">
 <g id="Layer_x0020_1">
  <metadata id="CorelCorpID_0Corel-Layer"/>
  <g id="Layers">
   <g id="India_Districts_selection">
    <polygon fill="#6EA97F" points="0,1071 24,953 252,905 417,842 495,787 692,748 652,709 550,677 645,512 762,441 857,323 912,236 1022,205 1187,307 1313,331 1430,228 1478,142 1485,16 1493,8 1706,0 1871,63 1933,197 1933,315 1871,457 1800,653 1863,724 1847,850 1745,976 1698,1205 1690,1457 1698,1669 1745,1724 1941,1716 2059,1795 2154,1882 2169,2008 2099,2181 2004,2260 1886,2409 1816,2590 1808,2685 1713,2551 1666,2464 1729,2362 1674,2252 1658,2126 1517,2079 1297,2086 1210,2165 1140,2244 1045,2157 1006,2094 872,2063 762,1968 739,1890 786,1740 817,1567 652,1370 440,1236 212,1055 "/>
   </g>
  </g>
 </g>
</svg>
