<?xml version="1.0" encoding="UTF-8"?>
<!DOCTYPE svg PUBLIC "-//W3C//DTD SVG 1.1//EN" "http://www.w3.org/Graphics/SVG/1.1/DTD/svg11.dtd">
<!-- Creator: CorelDRAW X8 -->
<svg xmlns="http://www.w3.org/2000/svg" xml:space="preserve" width="100%" height="100%" version="1.1" shape-rendering="geometricPrecision" text-rendering="geometricPrecision" image-rendering="optimizeQuality" fill-rule="evenodd" clip-rule="evenodd"
viewBox="0 0 1647 2534"
 xmlns:xlink="http://www.w3.org/1999/xlink">
 <g id="Layer_x0020_1">
  <metadata id="CorelCorpID_0Corel-Layer"/>
  <g id="Layers">
   <g id="India_Districts_selection">
    <polygon fill="#6EA97F" points="1647,1917 1632,1917 1625,1977 1439,2014 1439,2081 1291,2178 1143,2415 1002,2519 742,2534 734,2036 742,1917 586,1917 490,2014 230,2029 200,1955 0,1925 15,1895 15,1717 22,1509 126,1323 82,1130 104,892 237,691 378,498 497,334 638,97 697,0 742,45 801,334 861,907 920,1345 1054,1724 1491,1880 "/>
   </g>
  </g>
 </g>
</svg>
