<?xml version="1.0" encoding="UTF-8"?>
<!DOCTYPE svg PUBLIC "-//W3C//DTD SVG 1.1//EN" "http://www.w3.org/Graphics/SVG/1.1/DTD/svg11.dtd">
<!-- Creator: CorelDRAW X8 -->
<svg xmlns="http://www.w3.org/2000/svg" xml:space="preserve" width="100%" height="100%" version="1.1" shape-rendering="geometricPrecision" text-rendering="geometricPrecision" image-rendering="optimizeQuality" fill-rule="evenodd" clip-rule="evenodd"
viewBox="0 0 3071 2534"
 xmlns:xlink="http://www.w3.org/1999/xlink">
 <g id="Layer_x0020_1">
  <metadata id="CorelCorpID_0Corel-Layer"/>
  <g id="Layers">
   <g id="India_Districts_selection">
    <polygon fill="#6EA97F" points="2545,438 2567,639 2582,825 2671,1033 2923,1182 2923,1315 3071,1390 3064,1665 2916,1880 2893,2118 2597,2415 2233,2534 2114,2453 1988,1984 1810,1665 1684,1665 1662,1516 1551,1330 1447,1382 1246,1360 1083,1390 875,1553 764,1427 594,1375 334,1211 185,1078 59,847 0,676 15,394 237,216 579,45 623,0 846,164 935,216 1224,208 1833,216 2040,342 2255,379 2255,446 2463,498 "/>
   </g>
  </g>
 </g>
</svg>
