<?xml version="1.0" encoding="UTF-8"?>
<!DOCTYPE svg PUBLIC "-//W3C//DTD SVG 1.1//EN" "http://www.w3.org/Graphics/SVG/1.1/DTD/svg11.dtd">
<!-- Creator: CorelDRAW X8 -->
<svg xmlns="http://www.w3.org/2000/svg" xml:space="preserve" width="100%" height="100%" version="1.1" shape-rendering="geometricPrecision" text-rendering="geometricPrecision" image-rendering="optimizeQuality" fill-rule="evenodd" clip-rule="evenodd"
viewBox="0 0 2787 3902"
 xmlns:xlink="http://www.w3.org/1999/xlink">
 <g id="Layer_x0020_1">
  <metadata id="CorelCorpID_0Corel-Layer"/>
  <g id="Layers">
   <g id="India_Districts_selection">
    <polygon fill="#6EA97F" points="1965,1076 2045,1190 2033,1282 2148,1362 2262,1419 2262,1442 2273,1911 2239,1991 2216,2243 2433,2449 2593,2586 2685,2643 2787,2643 2787,3204 2719,3296 2730,3433 2662,3479 2662,3902 2353,3662 1588,2437 994,1682 434,824 0,458 57,423 57,355 331,355 377,286 491,286 491,229 628,172 697,126 1028,114 1108,0 1394,11 1394,103 1314,172 1165,229 994,389 937,458 937,641 1725,652 1736,1053 1805,1099 1953,1099 "/>
   </g>
  </g>
 </g>
</svg>
