<?xml version="1.0" encoding="UTF-8"?>
<!DOCTYPE svg PUBLIC "-//W3C//DTD SVG 1.1//EN" "http://www.w3.org/Graphics/SVG/1.1/DTD/svg11.dtd">
<!-- Creator: CorelDRAW X8 -->
<svg xmlns="http://www.w3.org/2000/svg" xml:space="preserve" width="100%" height="100%" version="1.1" shape-rendering="geometricPrecision" text-rendering="geometricPrecision" image-rendering="optimizeQuality" fill-rule="evenodd" clip-rule="evenodd"
viewBox="0 0 1290 1330"
 xmlns:xlink="http://www.w3.org/1999/xlink">
 <g id="Layer_x0020_1">
  <metadata id="CorelCorpID_0Corel-Layer"/>
  <g id="Layers">
   <g id="India_Districts_selection">
    <polygon fill="#6EA97F" points="1290,351 1243,406 1196,456 1126,573 962,710 955,772 881,842 877,917 771,995 779,1096 787,1092 768,1131 682,1217 639,1236 561,1275 464,1299 425,1326 374,1330 370,1287 296,1213 199,1151 51,1158 8,1119 0,952 8,749 51,566 129,472 136,367 90,312 144,160 175,90 214,94 265,86 284,59 343,55 374,101 479,121 542,113 694,117 740,59 826,31 881,12 1095,0 1161,47 1169,148 1130,183 1177,215 1169,300 1251,312 "/>
   </g>
  </g>
 </g>
</svg>
