<?xml version="1.0" encoding="UTF-8"?>
<!DOCTYPE svg PUBLIC "-//W3C//DTD SVG 1.1//EN" "http://www.w3.org/Graphics/SVG/1.1/DTD/svg11.dtd">
<!-- Creator: CorelDRAW X8 -->
<svg xmlns="http://www.w3.org/2000/svg" xml:space="preserve" width="100%" height="100%" version="1.1" shape-rendering="geometricPrecision" text-rendering="geometricPrecision" image-rendering="optimizeQuality" fill-rule="evenodd" clip-rule="evenodd"
viewBox="0 0 2122 2083"
 xmlns:xlink="http://www.w3.org/1999/xlink">
 <g id="Layer_x0020_1">
  <metadata id="CorelCorpID_0Corel-Layer"/>
  <g id="Layers">
   <g id="India_Districts_selection">
    <polygon fill="#6EA97F" points="2122,1105 2116,1112 2049,1154 1975,1167 1921,1191 1896,1258 1872,1276 1872,1325 1841,1393 1756,1399 1756,1484 1774,1637 1725,1680 1573,1680 1543,1698 1506,1686 1463,1649 1421,1649 1366,1655 1311,1692 1274,1704 1262,1735 1238,1796 1207,1826 1177,1851 1122,1863 1012,1844 988,1869 921,1875 829,1881 756,1930 701,1954 610,1967 524,1967 469,2022 311,2034 280,2083 250,2064 201,2028 159,2003 110,1942 165,1924 85,1924 79,1887 37,1869 18,1765 67,1759 61,1704 24,1686 0,1643 12,1533 49,1478 140,1447 226,1466 238,1429 146,1386 152,1032 134,770 98,715 104,641 165,629 201,605 262,544 274,507 250,464 232,415 219,360 244,299 268,263 274,165 274,79 311,98 341,98 360,147 421,159 421,128 476,128 482,92 677,98 683,73 719,43 768,37 793,0 1207,6 1219,24 1238,37 1238,73 1201,98 1171,147 1171,238 1134,250 1116,287 1122,421 1097,428 1085,678 1116,666 1128,757 1146,788 1225,843 1274,861 1293,886 1683,886 1689,861 1780,849 1860,861 1914,886 2000,928 2049,1002 2097,1051 2122,1105 "/>
   </g>
  </g>
 </g>
</svg>
