<?xml version="1.0" encoding="UTF-8"?>
<!DOCTYPE svg PUBLIC "-//W3C//DTD SVG 1.1//EN" "http://www.w3.org/Graphics/SVG/1.1/DTD/svg11.dtd">
<!-- Creator: CorelDRAW X8 -->
<svg xmlns="http://www.w3.org/2000/svg" xml:space="preserve" width="100%" height="100%" version="1.1" shape-rendering="geometricPrecision" text-rendering="geometricPrecision" image-rendering="optimizeQuality" fill-rule="evenodd" clip-rule="evenodd"
viewBox="0 0 2190 1932"
 xmlns:xlink="http://www.w3.org/1999/xlink">
 <g id="Layer_x0020_1">
  <metadata id="CorelCorpID_0Corel-Layer"/>
  <g id="Layers">
   <g id="India_Districts_selection">
    <polygon fill="#6EA97F" points="640,57 657,102 798,306 928,408 1262,476 1324,533 1443,493 1596,419 1675,510 1811,754 1817,878 1981,907 2021,1014 2060,1088 2106,1207 2111,1405 2145,1524 2162,1756 2190,1785 2060,1813 1919,1875 1675,1915 1472,1932 1415,1836 821,1858 821,1864 770,1841 651,1660 487,1479 419,1332 430,1054 368,912 243,708 136,487 0,289 68,193 187,0 323,6 408,136 549,62 "/>
   </g>
  </g>
 </g>
</svg>
