<?xml version="1.0" encoding="UTF-8"?>
<!DOCTYPE svg PUBLIC "-//W3C//DTD SVG 1.1//EN" "http://www.w3.org/Graphics/SVG/1.1/DTD/svg11.dtd">
<!-- Creator: CorelDRAW X8 -->
<svg xmlns="http://www.w3.org/2000/svg" xml:space="preserve" width="100%" height="100%" version="1.1" shape-rendering="geometricPrecision" text-rendering="geometricPrecision" image-rendering="optimizeQuality" fill-rule="evenodd" clip-rule="evenodd"
viewBox="0 0 2630 2233"
 xmlns:xlink="http://www.w3.org/1999/xlink">
 <g id="Layer_x0020_1">
  <metadata id="CorelCorpID_0Corel-Layer"/>
  <g id="Layers">
   <g id="India_Districts_selection">
    <polygon fill="#6EA97F" points="844,2161 805,2181 752,2207 700,2233 661,2227 621,2187 608,2122 595,2030 576,1997 536,1978 497,1971 438,1939 399,1906 373,1840 360,1775 314,1729 281,1618 249,1578 196,1546 131,1546 0,1467 46,1447 105,1375 131,1323 124,1002 157,956 484,976 536,891 517,760 432,727 432,714 445,661 484,648 530,596 595,570 615,517 641,517 700,498 720,465 792,419 778,367 792,367 857,360 877,386 922,413 1007,386 1034,347 1086,347 1125,327 1164,301 1197,295 1204,314 1321,327 1374,341 1426,360 1485,360 1511,308 1531,282 1544,242 1563,210 1576,164 1616,131 1675,92 1760,59 1812,26 1858,0 1917,0 1949,33 1976,52 2034,59 2106,79 2172,111 2204,124 2270,138 2401,144 2440,138 2466,98 2486,79 2492,52 2512,79 2538,85 2538,138 2558,164 2584,190 2584,282 2623,314 2630,373 2630,406 2571,419 2545,445 2486,511 2440,530 2414,537 2342,550 2303,557 2289,576 2250,583 2211,603 2178,629 2113,642 2093,701 2080,733 2054,779 2047,779 1989,766 1897,766 1877,871 1871,1067 1877,1198 1910,1225 1956,1257 1923,1316 1884,1382 1884,1421 1838,1460 1819,1500 1753,1513 1688,1532 1622,1539 1590,1585 1576,1631 1544,1683 1511,1749 1465,1788 1439,1840 1406,1840 1387,1801 1348,1762 1328,1729 1295,1703 1282,1657 1262,1605 1223,1591 1171,1585 1132,1605 1066,1611 1047,1657 1014,1696 975,1755 929,1788 863,1827 844,1939 850,1991 863,1997 844,2056 824,2122 837,2161 "/>
   </g>
  </g>
 </g>
</svg>
