<?xml version="1.0" encoding="UTF-8"?>
<!DOCTYPE svg PUBLIC "-//W3C//DTD SVG 1.1//EN" "http://www.w3.org/Graphics/SVG/1.1/DTD/svg11.dtd">
<!-- Creator: CorelDRAW X8 -->
<svg xmlns="http://www.w3.org/2000/svg" xml:space="preserve" width="100%" height="100%" version="1.1" shape-rendering="geometricPrecision" text-rendering="geometricPrecision" image-rendering="optimizeQuality" fill-rule="evenodd" clip-rule="evenodd"
viewBox="0 0 2342 1932"
 xmlns:xlink="http://www.w3.org/1999/xlink">
 <g id="Layer_x0020_1">
  <metadata id="CorelCorpID_0Corel-Layer"/>
  <g id="Layers">
   <g id="India_Districts_selection">
    <polygon fill="#6EA97F" points="2319,963 2308,997 2342,1060 2274,1156 2274,1377 2183,1530 2098,1575 2048,1700 2042,1819 1974,1881 1906,1926 1770,1932 1736,1824 1674,1756 1601,1807 1386,1790 1358,1819 1233,1819 1126,1717 1029,1689 798,1604 605,1468 469,1360 334,1145 226,918 136,737 91,584 96,470 0,351 6,142 11,85 28,85 96,0 334,17 351,57 560,79 662,187 769,176 854,79 865,17 1097,11 1199,221 1386,340 1471,368 1510,380 1516,261 1572,295 1635,340 1708,385 1736,465 1753,516 1827,538 1861,499 1968,504 2031,459 2115,431 2195,476 2217,572 2274,742 2313,901 2302,969 "/>
   </g>
  </g>
 </g>
</svg>
