<?xml version="1.0" encoding="UTF-8"?>
<!DOCTYPE svg PUBLIC "-//W3C//DTD SVG 1.1//EN" "http://www.w3.org/Graphics/SVG/1.1/DTD/svg11.dtd">
<!-- Creator: CorelDRAW X8 -->
<svg xmlns="http://www.w3.org/2000/svg" xml:space="preserve" width="100%" height="100%" version="1.1" shape-rendering="geometricPrecision" text-rendering="geometricPrecision" image-rendering="optimizeQuality" fill-rule="evenodd" clip-rule="evenodd"
viewBox="0 0 2198 1631"
 xmlns:xlink="http://www.w3.org/1999/xlink">
 <g id="Layer_x0020_1">
  <metadata id="CorelCorpID_0Corel-Layer"/>
  <g id="Layers">
   <g id="India_Districts_selection">
    <polygon fill="#6EA97F" points="2150,1091 2093,1095 2078,1119 2035,1119 2016,1138 1964,1143 1930,1172 1887,1201 1878,1248 1811,1248 1801,1215 1624,1215 1605,1244 1553,1239 1562,1287 1514,1320 1510,1349 1452,1349 1448,1320 1314,1315 1290,1282 1247,1287 1218,1311 1166,1349 1147,1373 1118,1397 1042,1416 1027,1468 1003,1516 979,1526 956,1545 893,1564 860,1588 855,1631 463,1621 440,1593 358,1598 315,1578 268,1564 248,1411 210,1416 201,1378 162,1387 91,1363 110,1363 86,1277 5,1258 0,1158 67,1119 153,1124 172,1172 239,1158 239,1028 201,1000 196,813 239,770 234,617 220,593 205,545 167,483 81,474 53,430 19,397 48,325 96,282 158,254 196,206 201,139 234,96 277,57 291,5 354,0 392,19 397,81 430,96 454,72 487,72 526,129 540,91 631,86 645,57 693,38 698,38 760,96 784,163 812,177 850,201 917,230 975,210 989,167 1094,158 1204,139 1204,115 1247,120 1276,96 1295,72 1343,81 1395,115 1428,124 1428,148 1386,191 1390,301 1428,349 1495,359 1495,435 1519,483 1581,536 1648,541 1686,560 1753,588 1777,627 1815,636 1844,665 1882,674 1906,713 1921,741 1940,794 1959,823 1978,875 2102,899 2145,880 2155,933 2198,961 2174,1009 2145,1067 "/>
   </g>
  </g>
 </g>
</svg>
