<?xml version="1.0" encoding="UTF-8"?>
<!DOCTYPE svg PUBLIC "-//W3C//DTD SVG 1.1//EN" "http://www.w3.org/Graphics/SVG/1.1/DTD/svg11.dtd">
<!-- Creator: CorelDRAW X8 -->
<svg xmlns="http://www.w3.org/2000/svg" xml:space="preserve" width="100%" height="100%" version="1.1" shape-rendering="geometricPrecision" text-rendering="geometricPrecision" image-rendering="optimizeQuality" fill-rule="evenodd" clip-rule="evenodd"
viewBox="0 0 2197 1782"
 xmlns:xlink="http://www.w3.org/1999/xlink">
 <g id="Layer_x0020_1">
  <metadata id="CorelCorpID_0Corel-Layer"/>
  <g id="Layers">
   <g id="India_Districts_selection">
    <polygon fill="#6EA97F" points="1013,1698 877,1745 752,1766 658,1766 585,1782 449,1620 224,1604 261,1531 423,1296 454,799 94,408 0,146 5,0 183,68 350,230 491,329 611,303 699,261 804,272 903,329 1086,308 1221,188 1326,120 1456,73 1623,89 1738,120 1848,146 1915,146 1983,136 2072,256 2161,481 2197,517 2056,632 1983,721 1618,742 1487,747 1331,716 1206,982 1127,1186 1091,1327 1018,1505 1023,1515 1007,1515 981,1646 "/>
   </g>
  </g>
 </g>
</svg>
