<?xml version="1.0" encoding="UTF-8"?>
<!DOCTYPE svg PUBLIC "-//W3C//DTD SVG 1.1//EN" "http://www.w3.org/Graphics/SVG/1.1/DTD/svg11.dtd">
<!-- Creator: CorelDRAW X8 -->
<svg xmlns="http://www.w3.org/2000/svg" xml:space="preserve" width="100%" height="100%" version="1.1" shape-rendering="geometricPrecision" text-rendering="geometricPrecision" image-rendering="optimizeQuality" fill-rule="evenodd" clip-rule="evenodd"
viewBox="0 0 1054 1782"
 xmlns:xlink="http://www.w3.org/1999/xlink">
 <g id="Layer_x0020_1">
  <metadata id="CorelCorpID_0Corel-Layer"/>
  <g id="Layers">
   <g id="India_Districts_selection">
    <polygon fill="#6EA97F" points="950,1703 898,1735 835,1755 720,1776 569,1761 433,1782 433,1766 271,1656 219,1661 235,1609 235,1437 282,1432 282,1400 240,1390 198,1364 209,1139 167,1123 130,1071 104,1024 63,977 63,930 99,920 110,867 130,852 136,721 110,721 31,627 5,617 0,522 83,522 162,470 204,408 204,272 303,240 407,141 438,26 444,0 475,31 600,57 616,120 652,178 746,172 783,230 809,272 892,308 955,329 992,387 971,449 945,496 1007,575 1054,627 1028,731 960,846 950,967 965,1061 861,1196 798,1290 746,1343 814,1432 950,1520 "/>
   </g>
  </g>
 </g>
</svg>
