<?xml version="1.0" encoding="UTF-8"?>
<!DOCTYPE svg PUBLIC "-//W3C//DTD SVG 1.1//EN" "http://www.w3.org/Graphics/SVG/1.1/DTD/svg11.dtd">
<!-- Creator: CorelDRAW X8 -->
<svg xmlns="http://www.w3.org/2000/svg" xml:space="preserve" width="100%" height="100%" version="1.1" shape-rendering="geometricPrecision" text-rendering="geometricPrecision" image-rendering="optimizeQuality" fill-rule="evenodd" clip-rule="evenodd"
viewBox="0 0 6541 3938"
 xmlns:xlink="http://www.w3.org/1999/xlink">
 <g id="Layer_x0020_1">
  <metadata id="CorelCorpID_0Corel-Layer"/>
  <g id="Layers">
   <g id="India_Districts_selection">
    <polygon fill="#6EA97F" points="543,2903 522,2700 320,2508 139,2412 53,2284 0,1932 64,1537 320,1441 320,1227 107,950 75,832 266,630 724,534 906,448 1151,555 1694,534 1800,438 1971,576 2216,747 2621,832 3249,854 3377,939 3835,939 4155,459 4325,267 5476,267 5518,320 5668,438 5998,395 6179,470 6296,277 6541,0 6520,747 6222,1035 6104,1291 6083,2028 6030,2156 6030,2572 5849,2828 5785,3084 5955,3180 5945,3650 5774,3810 5273,3938 5092,3938 5082,3543 4911,3543 4656,3821 4549,3778 4592,3468 4325,3404 3963,3778 3729,3821 3228,3308 2951,3106 2653,3266 2504,3308 2259,2903 1939,3010 1811,2903 1460,2881 1257,2849 724,2881 "/>
   </g>
  </g>
 </g>
</svg>
