<?xml version="1.0" encoding="UTF-8"?>
<!DOCTYPE svg PUBLIC "-//W3C//DTD SVG 1.1//EN" "http://www.w3.org/Graphics/SVG/1.1/DTD/svg11.dtd">
<!-- Creator: CorelDRAW X8 -->
<svg xmlns="http://www.w3.org/2000/svg" xml:space="preserve" width="100%" height="100%" version="1.1" shape-rendering="geometricPrecision" text-rendering="geometricPrecision" image-rendering="optimizeQuality" fill-rule="evenodd" clip-rule="evenodd"
viewBox="0 0 2395 2384"
 xmlns:xlink="http://www.w3.org/1999/xlink">
 <g id="Layer_x0020_1">
  <metadata id="CorelCorpID_0Corel-Layer"/>
  <g id="Layers">
   <g id="India_Districts_selection">
    <polygon fill="#6EA97F" points="1571,2300 1390,2384 1243,2370 1068,2125 859,2104 866,1929 803,1852 663,1859 580,1804 517,1734 182,1741 182,1433 49,1433 0,1370 42,1349 28,1181 91,1125 838,1118 887,1167 1187,1153 1243,1042 1299,909 1166,790 1285,601 1306,301 1536,231 1613,175 1871,126 2011,0 2039,84 2207,245 2395,391 2395,944 2346,1007 2339,1398 2395,1468 2388,1559 2290,1594 2242,1643 2102,1650 2039,1657 1969,1720 1983,1880 1976,2125 1725,2132 1606,2118 1599,2244 1564,2293 "/>
   </g>
  </g>
 </g>
</svg>
