<?xml version="1.0" encoding="UTF-8"?>
<!DOCTYPE svg PUBLIC "-//W3C//DTD SVG 1.1//EN" "http://www.w3.org/Graphics/SVG/1.1/DTD/svg11.dtd">
<!-- Creator: CorelDRAW X8 -->
<svg xmlns="http://www.w3.org/2000/svg" xml:space="preserve" width="100%" height="100%" version="1.1" shape-rendering="geometricPrecision" text-rendering="geometricPrecision" image-rendering="optimizeQuality" fill-rule="evenodd" clip-rule="evenodd"
viewBox="0 0 2547 1782"
 xmlns:xlink="http://www.w3.org/1999/xlink">
 <g id="Layer_x0020_1">
  <metadata id="CorelCorpID_0Corel-Layer"/>
  <g id="Layers">
   <g id="India_Districts_selection">
    <polygon fill="#6EA97F" points="2484,272 2500,282 2547,366 2526,470 2505,507 2484,596 2432,669 2343,721 2218,778 2129,836 2035,873 1941,951 1926,1029 1967,1129 2014,1160 2014,1317 1613,1332 1613,1442 1712,1468 1748,1510 1738,1588 1795,1646 1795,1693 1769,1782 1586,1755 1555,1708 1498,1672 1451,1708 1388,1714 1346,1766 1284,1740 1195,1672 1112,1588 1091,1567 1112,1541 1159,1306 1159,1207 1075,1217 1002,1176 898,1165 835,1108 804,1066 720,1082 590,1113 506,1087 491,987 464,930 292,925 214,925 177,977 0,977 0,831 21,810 68,731 110,684 130,637 209,601 266,564 329,491 391,465 417,418 438,355 475,287 527,209 558,172 569,104 595,52 642,5 788,5 965,5 981,0 981,5 1007,47 1044,89 1075,125 1091,162 1122,214 1294,225 1336,167 1456,183 1654,172 1722,141 1847,141 1853,99 1962,89 2046,120 2067,188 2108,209 2108,334 2207,361 2281,355 2343,329 2437,313 2479,282 "/>
   </g>
  </g>
 </g>
</svg>
