<?xml version="1.0" encoding="UTF-8"?>
<!DOCTYPE svg PUBLIC "-//W3C//DTD SVG 1.1//EN" "http://www.w3.org/Graphics/SVG/1.1/DTD/svg11.dtd">
<!-- Creator: CorelDRAW X8 -->
<svg xmlns="http://www.w3.org/2000/svg" xml:space="preserve" width="100%" height="100%" version="1.1" shape-rendering="geometricPrecision" text-rendering="geometricPrecision" image-rendering="optimizeQuality" fill-rule="evenodd" clip-rule="evenodd"
viewBox="0 0 1523 1932"
 xmlns:xlink="http://www.w3.org/1999/xlink">
 <g id="Layer_x0020_1">
  <metadata id="CorelCorpID_0Corel-Layer"/>
  <g id="Layers">
   <g id="India_Districts_selection">
    <polygon fill="#6EA97F" points="1240,102 1291,136 1324,176 1302,244 1285,334 1330,351 1364,459 1449,623 1523,788 1477,805 1392,912 1358,1190 1330,1371 1330,1632 1257,1836 843,1932 719,1870 628,1734 594,1462 458,1473 391,1694 334,1802 232,1779 119,1422 0,1190 91,1111 136,986 226,861 238,708 153,640 204,397 255,295 425,164 572,68 623,6 945,0 1024,40 1058,40 1098,113 "/>
   </g>
  </g>
 </g>
</svg>
