<?xml version="1.0" encoding="UTF-8"?>
<!DOCTYPE svg PUBLIC "-//W3C//DTD SVG 1.1//EN" "http://www.w3.org/Graphics/SVG/1.1/DTD/svg11.dtd">
<!-- Creator: CorelDRAW X8 -->
<svg xmlns="http://www.w3.org/2000/svg" xml:space="preserve" width="100%" height="100%" version="1.1" shape-rendering="geometricPrecision" text-rendering="geometricPrecision" image-rendering="optimizeQuality" fill-rule="evenodd" clip-rule="evenodd"
viewBox="0 0 13738 7954"
 xmlns:xlink="http://www.w3.org/1999/xlink">
 <g id="Layer_x0020_1">
  <metadata id="CorelCorpID_0Corel-Layer"/>
  <g id="Layers">
   <g id="India_Districts_selection">
    <polygon fill="#6EA97F" points="2165,1773 2375,1726 3027,1726 3725,1563 3842,1260 4261,1166 4494,980 4703,956 5099,1446 5425,1423 5798,1330 6147,886 6403,560 6589,490 6915,513 7102,723 7963,583 8499,536 8778,490 8918,397 9500,373 9733,327 10198,280 10501,140 10734,0 11060,0 11013,210 11106,1586 11363,2286 12597,3195 13738,3802 13714,4455 13295,4991 12760,5155 11595,5271 10431,3989 9872,3312 9104,3289 8243,3405 7078,3639 5844,3639 2724,5901 605,7954 536,6857 326,6717 47,6648 23,5038 0,4782 47,4782 396,4782 745,4735 885,4595 1071,4478 1374,4385 1746,4338 2026,4385 2212,4502 2445,4548 2654,4432 2748,4268 2864,4105 3004,3849 3120,3732 3376,3639 3493,3475 3539,3172 3353,2962 2980,2939 2794,2939 2631,3102 2515,3149 2305,3056 2189,2939 2072,2776 2096,2566 2212,2332 2212,2076 2235,1843 "/>
   </g>
  </g>
 </g>
</svg>
