<?xml version="1.0" encoding="UTF-8"?>
<!DOCTYPE svg PUBLIC "-//W3C//DTD SVG 1.1//EN" "http://www.w3.org/Graphics/SVG/1.1/DTD/svg11.dtd">
<!-- Creator: CorelDRAW X8 -->
<svg xmlns="http://www.w3.org/2000/svg" xml:space="preserve" width="100%" height="100%" version="1.1" shape-rendering="geometricPrecision" text-rendering="geometricPrecision" image-rendering="optimizeQuality" fill-rule="evenodd" clip-rule="evenodd"
viewBox="0 0 1548 1631"
 xmlns:xlink="http://www.w3.org/1999/xlink">
 <g id="Layer_x0020_1">
  <metadata id="CorelCorpID_0Corel-Layer"/>
  <g id="Layers">
   <g id="India_Districts_selection">
    <polygon fill="#6EA97F" points="1261,163 1237,292 1204,421 1214,517 1113,598 1128,665 1156,741 1199,756 1233,756 1223,918 1271,985 1343,1038 1309,1105 1261,1091 1204,1057 1166,1095 1204,1105 1247,1167 1390,1181 1486,1210 1543,1201 1548,1291 1515,1291 1452,1358 1381,1416 1362,1468 1261,1478 1190,1430 1080,1435 1027,1464 1046,1569 1018,1631 917,1631 913,1588 803,1598 741,1521 674,1497 573,1578 497,1612 440,1588 325,1598 268,1621 201,1555 196,1473 53,1459 0,1373 24,1306 115,1148 201,1067 205,780 263,737 272,655 325,660 373,641 382,584 325,474 287,440 201,435 196,187 239,139 315,239 382,263 440,67 478,48 540,134 698,282 889,172 1132,10 1147,0 1151,0 1261,100 "/>
   </g>
  </g>
 </g>
</svg>
