<?xml version="1.0" encoding="UTF-8"?>
<!DOCTYPE svg PUBLIC "-//W3C//DTD SVG 1.1//EN" "http://www.w3.org/Graphics/SVG/1.1/DTD/svg11.dtd">
<!-- Creator: CorelDRAW X8 -->
<svg xmlns="http://www.w3.org/2000/svg" xml:space="preserve" width="100%" height="100%" version="1.1" shape-rendering="geometricPrecision" text-rendering="geometricPrecision" image-rendering="optimizeQuality" fill-rule="evenodd" clip-rule="evenodd"
viewBox="0 0 3636 1955"
 xmlns:xlink="http://www.w3.org/1999/xlink">
 <g id="Layer_x0020_1">
  <metadata id="CorelCorpID_0Corel-Layer"/>
  <g id="Layers">
   <g id="India_Districts_selection">
    <polygon fill="#6EA97F" points="6,963 0,952 74,780 103,648 183,453 303,195 452,224 578,218 933,201 1002,115 1140,0 1300,149 1678,350 2428,332 2794,573 3224,567 3550,653 3596,631 3625,676 3636,906 3636,1169 3613,1221 3608,1227 3327,1318 2892,1313 2794,1146 2617,1146 2525,1118 2462,1141 2371,1192 2147,1164 2119,1129 1787,1112 1775,1055 1609,1055 1432,1009 1122,1026 1082,1404 1054,1439 1077,1519 1157,1622 1197,1720 1162,1737 1105,1892 1059,1955 910,1909 836,1794 773,1370 384,1083 172,969 "/>
   </g>
  </g>
 </g>
</svg>
