<?xml version="1.0" encoding="UTF-8"?>
<!DOCTYPE svg PUBLIC "-//W3C//DTD SVG 1.1//EN" "http://www.w3.org/Graphics/SVG/1.1/DTD/svg11.dtd">
<!-- Creator: CorelDRAW X8 -->
<svg xmlns="http://www.w3.org/2000/svg" xml:space="preserve" width="100%" height="100%" version="1.1" shape-rendering="geometricPrecision" text-rendering="geometricPrecision" image-rendering="optimizeQuality" fill-rule="evenodd" clip-rule="evenodd"
viewBox="0 0 2576 1782"
 xmlns:xlink="http://www.w3.org/1999/xlink">
 <g id="Layer_x0020_1">
  <metadata id="CorelCorpID_0Corel-Layer"/>
  <g id="Layers">
   <g id="India_Districts_selection">
    <polygon fill="#6EA97F" points="1455,1233 1419,1223 1387,1233 1262,1317 1132,1437 1064,1546 1059,1620 970,1750 902,1776 761,1782 741,1735 699,1682 636,1630 615,1573 548,1552 480,1526 422,1447 402,1358 370,1317 360,1233 344,1207 323,1134 141,1144 78,1050 99,1008 99,831 0,664 68,622 136,549 167,533 167,538 334,502 449,439 642,371 730,298 814,235 986,178 1106,188 1189,120 1356,120 1382,37 1445,0 1580,89 1685,120 1857,146 1862,152 1867,219 1951,324 2138,387 2514,397 2576,481 2524,512 2373,575 2337,752 2389,810 2389,1024 2331,1082 2039,1087 1898,1034 1805,1076 1549,1134 "/>
   </g>
  </g>
 </g>
</svg>
