<?xml version="1.0" encoding="UTF-8"?>
<!DOCTYPE svg PUBLIC "-//W3C//DTD SVG 1.1//EN" "http://www.w3.org/Graphics/SVG/1.1/DTD/svg11.dtd">
<!-- Creator: CorelDRAW X8 -->
<svg xmlns="http://www.w3.org/2000/svg" xml:space="preserve" width="100%" height="100%" version="1.1" shape-rendering="geometricPrecision" text-rendering="geometricPrecision" image-rendering="optimizeQuality" fill-rule="evenodd" clip-rule="evenodd"
viewBox="0 0 2098 1782"
 xmlns:xlink="http://www.w3.org/1999/xlink">
 <g id="Layer_x0020_1">
  <metadata id="CorelCorpID_0Corel-Layer"/>
  <g id="Layers">
   <g id="India_Districts_selection">
    <polygon fill="#6EA97F" points="2093,1405 2098,1416 2087,1442 2072,1463 2040,1499 2004,1505 1868,1499 1800,1489 1769,1473 1701,1442 1628,1426 1566,1416 1545,1395 1508,1364 1446,1358 1399,1390 1346,1421 1258,1452 1200,1494 1159,1531 1148,1573 1122,1609 1112,1651 1096,1677 1070,1724 1002,1724 950,1708 898,1698 778,1682 772,1661 736,1672 694,1693 658,1714 605,1714 579,1761 491,1782 444,1755 423,1729 355,1735 344,1740 339,1729 303,1672 303,1442 266,1416 209,1405 115,1395 84,1327 26,1254 10,1155 0,1118 10,1055 21,1019 57,993 57,899 52,778 26,711 52,653 42,637 47,538 68,517 78,455 110,428 146,413 167,376 209,345 266,340 277,308 538,308 579,340 595,340 621,361 673,366 710,392 903,392 945,361 976,329 1007,313 1028,277 1070,277 1096,308 1127,313 1138,361 1211,361 1211,345 1357,334 1357,361 1409,366 1414,340 1435,308 1446,199 1466,188 1466,146 1430,120 1310,146 1299,115 1279,115 1273,10 1393,5 1446,26 1477,37 1477,57 1581,57 1607,37 1633,21 1639,0 1680,0 1686,5 1696,162 1790,172 1868,167 1842,193 1884,225 1941,230 1957,256 1999,256 2004,298 1978,308 1967,371 1952,371 1936,408 1894,423 1889,449 1863,470 1863,491 1832,538 1826,627 1863,632 1863,690 1910,705 1915,852 1915,940 1931,956 1936,956 1936,1014 1910,1045 1884,1082 1832,1087 1785,1129 1753,1165 1753,1212 1790,1249 1847,1270 1889,1290 1936,1301 1983,1311 1993,1343 2046,1369 2077,1369 2087,1416 "/>
   </g>
  </g>
 </g>
</svg>
