<?xml version="1.0" encoding="UTF-8"?>
<!DOCTYPE svg PUBLIC "-//W3C//DTD SVG 1.1//EN" "http://www.w3.org/Graphics/SVG/1.1/DTD/svg11.dtd">
<!-- Creator: CorelDRAW X8 -->
<svg xmlns="http://www.w3.org/2000/svg" xml:space="preserve" width="100%" height="100%" version="1.1" shape-rendering="geometricPrecision" text-rendering="geometricPrecision" image-rendering="optimizeQuality" fill-rule="evenodd" clip-rule="evenodd"
viewBox="0 0 2151 2835"
 xmlns:xlink="http://www.w3.org/1999/xlink">
 <g id="Layer_x0020_1">
  <metadata id="CorelCorpID_0Corel-Layer"/>
  <g id="Layers">
   <g id="India_Districts_selection">
    <polygon fill="#6EA97F" points="1861,283 1885,316 1885,457 1902,549 1960,640 2010,657 2126,807 2151,931 2010,931 1778,1073 1445,1222 1204,1389 1179,1497 1238,1613 1296,1721 1296,1871 1130,2045 1088,2420 1005,2736 972,2794 822,2794 797,2819 581,2835 532,2802 424,2719 440,2544 382,2470 399,2386 349,2328 316,2278 324,2195 282,2162 316,2079 349,2054 390,2004 390,1530 365,1497 282,1364 216,1280 166,1206 91,1189 50,1139 42,1064 17,1023 0,906 42,848 108,773 42,690 33,624 91,590 150,590 158,557 473,524 548,457 532,358 565,341 839,358 872,299 1022,241 1080,233 1113,158 1188,116 1196,50 1263,42 1263,17 1454,0 1470,50 1537,58 1545,91 1645,75 1703,158 1728,233 1769,283 "/>
   </g>
  </g>
 </g>
</svg>
