<?xml version="1.0" encoding="UTF-8"?>
<!DOCTYPE svg PUBLIC "-//W3C//DTD SVG 1.1//EN" "http://www.w3.org/Graphics/SVG/1.1/DTD/svg11.dtd">
<!-- Creator: CorelDRAW X8 -->
<svg xmlns="http://www.w3.org/2000/svg" xml:space="preserve" width="100%" height="100%" version="1.1" shape-rendering="geometricPrecision" text-rendering="geometricPrecision" image-rendering="optimizeQuality" fill-rule="evenodd" clip-rule="evenodd"
viewBox="0 0 1385 1631"
 xmlns:xlink="http://www.w3.org/1999/xlink">
 <g id="Layer_x0020_1">
  <metadata id="CorelCorpID_0Corel-Layer"/>
  <g id="Layers">
   <g id="India_Districts_selection">
    <polygon fill="#6EA97F" points="640,1626 640,1545 597,1535 597,1502 578,1464 578,1248 559,1229 559,1143 540,1100 473,1028 435,1028 415,985 415,942 368,894 334,861 244,856 229,818 196,780 201,651 143,651 86,536 0,454 5,440 43,397 53,364 81,344 115,297 124,244 138,172 158,120 153,38 158,10 301,0 310,38 368,33 363,48 439,53 482,77 544,163 611,244 673,311 745,306 788,330 893,325 941,383 1065,411 1127,464 1208,488 1261,545 1299,603 1299,641 1280,646 1280,761 1304,784 1304,818 1375,818 1380,938 1385,966 1313,985 1299,1009 1261,1028 1222,1052 1189,1086 1194,1110 1165,1119 1136,1143 1113,1162 1084,1181 1089,1258 1156,1325 1146,1382 1079,1478 1027,1516 1003,1559 960,1578 902,1593 874,1631 "/>
   </g>
  </g>
 </g>
</svg>
