<?xml version="1.0" encoding="UTF-8"?>
<!DOCTYPE svg PUBLIC "-//W3C//DTD SVG 1.1//EN" "http://www.w3.org/Graphics/SVG/1.1/DTD/svg11.dtd">
<!-- Creator: CorelDRAW X8 -->
<svg xmlns="http://www.w3.org/2000/svg" xml:space="preserve" width="100%" height="100%" version="1.1" shape-rendering="geometricPrecision" text-rendering="geometricPrecision" image-rendering="optimizeQuality" fill-rule="evenodd" clip-rule="evenodd"
viewBox="0 0 2312 2083"
 xmlns:xlink="http://www.w3.org/1999/xlink">
 <g id="Layer_x0020_1">
  <metadata id="CorelCorpID_0Corel-Layer"/>
  <g id="Layers">
   <g id="India_Districts_selection">
    <polygon fill="#6EA97F" points="2135,263 2135,409 2215,458 2215,605 2172,647 2203,996 2306,1057 2312,1069 2282,1081 2233,1118 2203,1148 2105,1167 2074,1203 2074,1484 2099,1484 2148,1625 2117,1643 2062,1649 2013,1655 2013,1619 1885,1606 1702,1753 1629,1808 1592,1875 1605,1948 1647,1967 1641,2083 1586,2046 1544,2022 1452,2016 1415,1942 1342,1851 1312,1851 1281,1808 1257,1698 1257,1637 1171,1612 1037,1588 842,1509 720,1435 604,1399 336,1368 238,1283 73,1185 0,1130 18,1093 67,1075 128,1032 226,1008 348,1014 451,898 482,678 555,617 628,641 653,696 714,727 781,666 811,281 909,244 1019,244 1159,140 1214,67 1269,0 1318,79 1373,128 1458,116 1531,147 1617,183 1678,208 1745,226 1812,226 1830,257 1934,263 2044,257 "/>
   </g>
  </g>
 </g>
</svg>
