<?xml version="1.0" encoding="UTF-8"?>
<!DOCTYPE svg PUBLIC "-//W3C//DTD SVG 1.1//EN" "http://www.w3.org/Graphics/SVG/1.1/DTD/svg11.dtd">
<!-- Creator: CorelDRAW X8 -->
<svg xmlns="http://www.w3.org/2000/svg" xml:space="preserve" width="100%" height="100%" version="1.1" shape-rendering="geometricPrecision" text-rendering="geometricPrecision" image-rendering="optimizeQuality" fill-rule="evenodd" clip-rule="evenodd"
viewBox="0 0 2076 1782"
 xmlns:xlink="http://www.w3.org/1999/xlink">
 <g id="Layer_x0020_1">
  <metadata id="CorelCorpID_0Corel-Layer"/>
  <g id="Layers">
   <g id="India_Districts_selection">
    <polygon fill="#6EA97F" points="1007,1782 934,1782 887,1766 871,1703 840,1656 793,1594 741,1567 704,1505 662,1473 574,1479 464,1473 355,1468 292,1442 219,1416 172,1400 104,1338 94,1290 94,1228 89,1092 63,1050 57,982 37,909 0,873 5,768 31,737 31,695 63,674 57,627 31,601 21,564 73,569 130,569 167,590 224,601 271,590 271,554 303,502 344,465 360,434 396,428 449,455 480,465 511,496 579,512 589,465 579,408 542,387 553,324 647,334 694,350 730,355 735,381 798,439 897,408 928,361 960,319 996,298 996,272 991,256 1038,266 1059,251 1106,235 1153,235 1163,219 1220,219 1236,199 1257,183 1314,172 1330,146 1413,172 1424,172 1476,125 1445,104 1403,68 1424,21 1445,0 1460,10 1518,37 1559,57 1575,73 1596,94 1601,146 1591,167 1580,178 1601,225 1638,251 1737,266 1747,235 1779,240 1805,272 1831,308 1867,329 1878,355 1945,366 2003,387 2003,413 2018,460 2018,517 1998,554 1992,627 1987,658 2029,664 2060,690 2076,773 2065,852 2060,878 2024,888 1909,967 1799,1076 1763,1233 1695,1338 1544,1343 1507,1327 1450,1296 1398,1322 1335,1390 1335,1479 1330,1599 1252,1698 1142,1719 1038,1729 1007,1761 "/>
   </g>
  </g>
 </g>
</svg>
