<?xml version="1.0" encoding="UTF-8"?>
<!DOCTYPE svg PUBLIC "-//W3C//DTD SVG 1.1//EN" "http://www.w3.org/Graphics/SVG/1.1/DTD/svg11.dtd">
<!-- Creator: CorelDRAW X8 -->
<svg xmlns="http://www.w3.org/2000/svg" xml:space="preserve" width="100%" height="100%" version="1.1" shape-rendering="geometricPrecision" text-rendering="geometricPrecision" image-rendering="optimizeQuality" fill-rule="evenodd" clip-rule="evenodd"
viewBox="0 0 3992 2067"
 xmlns:xlink="http://www.w3.org/1999/xlink">
 <g id="Layer_x0020_1">
  <metadata id="CorelCorpID_0Corel-Layer"/>
  <g id="Layers">
   <g id="India_Districts_selection">
    <polygon fill="#6EA97F" points="3943,1006 3949,1092 3992,1147 3979,1202 3949,1196 3863,1294 3808,1337 3569,1582 3563,1582 3502,1601 3465,1552 3141,1558 3141,1582 3055,1588 3061,1711 2963,1772 2822,1907 2792,1907 2737,1913 2730,1871 2669,1834 2608,1760 2522,1705 2351,1637 2259,1552 2137,1484 2069,1368 1959,1337 1861,1325 1861,1484 1831,1607 1714,1619 1610,1539 1524,1582 1512,1650 1359,1650 1347,1723 1396,1766 1365,1938 1237,1987 1169,1981 931,1956 882,2048 808,2067 753,2018 692,1895 686,1779 618,1687 551,1619 312,1601 276,1687 135,1687 98,1644 0,1539 73,1398 110,1312 104,1043 43,1012 37,699 67,650 110,656 202,521 202,215 165,172 171,43 202,12 361,0 508,86 563,86 1035,98 1169,135 1371,221 1439,123 1702,172 1818,123 1996,166 2345,196 2388,202 2431,343 2369,466 2382,534 2541,576 2773,822 2865,822 2914,668 3049,632 3165,718 3349,767 3392,889 3539,1018 3771,1079 3894,1036 "/>
   </g>
  </g>
 </g>
</svg>
