<?xml version="1.0" encoding="UTF-8"?>
<!DOCTYPE svg PUBLIC "-//W3C//DTD SVG 1.1//EN" "http://www.w3.org/Graphics/SVG/1.1/DTD/svg11.dtd">
<!-- Creator: CorelDRAW X8 -->
<svg xmlns="http://www.w3.org/2000/svg" xml:space="preserve" width="100%" height="100%" version="1.1" shape-rendering="geometricPrecision" text-rendering="geometricPrecision" image-rendering="optimizeQuality" fill-rule="evenodd" clip-rule="evenodd"
viewBox="0 0 1819 2233"
 xmlns:xlink="http://www.w3.org/1999/xlink">
 <g id="Layer_x0020_1">
  <metadata id="CorelCorpID_0Corel-Layer"/>
  <g id="Layers">
   <g id="India_Districts_selection">
    <polygon fill="#6EA97F" points="1714,792 1707,792 1603,792 1518,792 1491,819 1472,851 1472,891 1452,910 1419,956 1400,995 1387,1035 1374,1061 1334,1074 1302,1120 1262,1140 1217,1159 1204,1192 1184,1218 1158,1264 1145,1271 1145,1356 1243,1356 1269,1329 1315,1329 1413,1336 1433,1362 1439,1421 1491,1441 1563,1421 1609,1415 1629,1434 1668,1467 1727,1474 1773,1500 1819,1493 1819,1552 1792,1690 1773,1716 1747,1729 1707,1762 1707,1781 1681,1801 1675,1827 1675,1893 1655,1919 1635,1945 1544,1952 1413,1939 1361,1965 1315,1971 1282,1991 1243,2017 1243,2043 1217,2069 1217,2148 1197,2155 1184,2187 1151,2187 1105,2200 1092,2227 1060,2233 981,2227 922,2233 909,2207 877,2187 824,2174 831,2155 792,2155 720,2135 700,2089 687,2056 635,2037 563,2030 523,2017 432,2024 386,1984 379,1912 347,1880 334,1840 301,1821 275,1788 249,1788 255,1749 235,1716 222,1709 209,1677 150,1657 131,1631 111,1591 92,1519 78,1487 78,1434 78,1388 39,1362 0,1316 0,1303 26,1271 46,1238 59,1212 92,1198 111,1185 150,1166 164,1153 249,1146 249,1126 321,1120 321,1081 353,1054 373,1015 379,963 386,917 373,897 392,845 425,819 438,792 497,786 556,766 641,779 674,766 713,753 752,766 798,766 831,773 857,747 890,720 916,694 942,648 968,629 994,596 1020,563 1020,524 1066,491 1099,478 1099,432 1119,413 1119,321 1105,314 1073,236 1053,210 1007,223 962,269 942,288 896,308 890,269 857,255 863,255 863,164 883,157 890,59 981,52 988,33 1164,26 1197,26 1210,0 1269,0 1269,26 1302,26 1321,46 1321,79 1348,98 1374,124 1380,157 1400,196 1393,524 1400,550 1426,563 1426,596 1446,635 1459,681 1491,694 1531,720 1603,714 1609,675 1629,694 1662,707 1688,720 1707,753 "/>
   </g>
  </g>
 </g>
</svg>
