<?xml version="1.0" encoding="UTF-8"?>
<!DOCTYPE svg PUBLIC "-//W3C//DTD SVG 1.1//EN" "http://www.w3.org/Graphics/SVG/1.1/DTD/svg11.dtd">
<!-- Creator: CorelDRAW X8 -->
<svg xmlns="http://www.w3.org/2000/svg" xml:space="preserve" width="100%" height="100%" version="1.1" shape-rendering="geometricPrecision" text-rendering="geometricPrecision" image-rendering="optimizeQuality" fill-rule="evenodd" clip-rule="evenodd"
viewBox="0 0 5435 6147"
 xmlns:xlink="http://www.w3.org/1999/xlink">
 <g id="Layer_x0020_1">
  <metadata id="CorelCorpID_0Corel-Layer"/>
  <g id="Layers">
   <g id="India_Districts_selection">
    <polygon fill="#6EA97F" points="3923,5426 3779,5624 3473,5751 3221,5823 2861,5859 2627,5949 2411,6003 2106,6039 1854,6093 1494,6129 1242,6147 900,6147 756,6147 540,6093 558,5931 0,5102 270,4417 288,3750 126,3263 396,3065 414,2920 432,2830 612,2758 774,2722 738,2596 810,2596 900,2578 1116,2488 1404,2380 1440,2163 1512,2181 1746,2163 2267,2163 2393,1965 2519,1749 2555,1532 2519,1316 2303,1136 1962,667 2321,559 2717,162 3239,18 3545,0 3653,234 3833,451 3815,847 3743,1082 3761,1713 3761,1893 3617,2109 3653,2253 3923,2488 4067,2758 4103,2866 4643,2902 4805,3047 4823,3173 4751,3353 5075,3551 5291,3786 5381,3912 5435,4146 5219,4236 5147,4345 4301,4345 3959,4615 3653,4831 3599,4957 3707,5120 "/>
   </g>
  </g>
 </g>
</svg>
