<?xml version="1.0" encoding="UTF-8"?>
<!DOCTYPE svg PUBLIC "-//W3C//DTD SVG 1.1//EN" "http://www.w3.org/Graphics/SVG/1.1/DTD/svg11.dtd">
<!-- Creator: CorelDRAW X8 -->
<svg xmlns="http://www.w3.org/2000/svg" xml:space="preserve" width="100%" height="100%" version="1.1" shape-rendering="geometricPrecision" text-rendering="geometricPrecision" image-rendering="optimizeQuality" fill-rule="evenodd" clip-rule="evenodd"
viewBox="0 0 8357 5733"
 xmlns:xlink="http://www.w3.org/1999/xlink">
 <g id="Layer_x0020_1">
  <metadata id="CorelCorpID_0Corel-Layer"/>
  <g id="Layers">
   <g id="India_Districts_selection">
    <polygon fill="#6EA97F" points="6914,5733 6679,5632 6478,5581 6360,5413 6159,5161 5991,5127 5706,5060 5370,4993 5370,4892 5471,4774 5320,4589 5202,4606 4917,4539 4850,4438 4732,4220 4716,4035 4565,4051 4497,3867 4447,3564 4212,3396 4112,3160 3759,3093 3591,3211 3037,3160 2836,3043 1712,3076 1494,2824 1158,2740 420,2723 117,2673 201,2421 0,1933 84,1614 420,1194 1460,1025 1997,1126 2282,908 2668,689 3289,841 3726,773 4044,387 4028,0 4179,151 4397,387 4615,488 4749,672 4699,773 4951,925 5051,1110 5102,1177 5236,1294 5437,1412 5588,1463 5723,1597 5756,1816 5874,2051 6125,2034 6226,2034 6444,1849 6679,1950 6713,2118 6746,2286 7132,2337 7216,2471 7216,2572 7283,2656 7250,2807 7199,2925 7199,3530 7199,3850 7250,3951 7283,4102 7803,4085 7871,4169 8038,4220 8106,4404 8357,4707 8341,5060 8055,5111 7854,5094 7720,5279 7669,5413 7350,5447 7132,5497 "/>
   </g>
  </g>
 </g>
</svg>
