<?xml version="1.0" encoding="UTF-8"?>
<!DOCTYPE svg PUBLIC "-//W3C//DTD SVG 1.1//EN" "http://www.w3.org/Graphics/SVG/1.1/DTD/svg11.dtd">
<!-- Creator: CorelDRAW X8 -->
<svg xmlns="http://www.w3.org/2000/svg" xml:space="preserve" width="100%" height="100%" version="1.1" shape-rendering="geometricPrecision" text-rendering="geometricPrecision" image-rendering="optimizeQuality" fill-rule="evenodd" clip-rule="evenodd"
viewBox="0 0 5789 8104"
 xmlns:xlink="http://www.w3.org/1999/xlink">
 <g id="Layer_x0020_1">
  <metadata id="CorelCorpID_0Corel-Layer"/>
  <g id="Layers">
   <g id="India_Districts_selection">
    <polygon fill="#6EA97F" points="5789,4325 5077,5015 1684,7676 1091,8104 996,7605 925,7272 759,6773 641,6322 569,5823 380,5442 261,5086 261,4658 214,4230 119,3660 0,3327 332,3066 949,2638 1423,2305 1851,2020 2681,1735 3179,1473 3464,1355 3535,1141 3393,808 3393,475 3630,285 4152,190 4958,0 4982,333 5006,2543 5409,2638 5694,2828 "/>
   </g>
  </g>
 </g>
</svg>
