<?xml version="1.0" encoding="UTF-8"?>
<!DOCTYPE svg PUBLIC "-//W3C//DTD SVG 1.1//EN" "http://www.w3.org/Graphics/SVG/1.1/DTD/svg11.dtd">
<!-- Creator: CorelDRAW X8 -->
<svg xmlns="http://www.w3.org/2000/svg" xml:space="preserve" width="100%" height="100%" version="1.1" shape-rendering="geometricPrecision" text-rendering="geometricPrecision" image-rendering="optimizeQuality" fill-rule="evenodd" clip-rule="evenodd"
viewBox="0 0 2455 3438"
 xmlns:xlink="http://www.w3.org/1999/xlink">
 <g id="Layer_x0020_1">
  <metadata id="CorelCorpID_0Corel-Layer"/>
  <g id="Layers">
   <g id="India_Districts_selection">
    <polygon fill="#6EA97F" points="121,1472 121,1381 91,1381 70,1321 70,1038 0,988 30,927 141,817 161,726 211,635 211,514 242,494 272,444 262,353 312,272 403,202 523,161 664,151 735,91 725,0 735,0 1037,0 1328,302 1479,302 1530,252 1771,262 1872,282 1902,262 2184,252 2184,282 2315,282 2385,302 2455,363 2445,373 2415,433 2415,494 2385,554 2345,554 2315,585 2244,585 2123,615 2123,685 1993,817 1932,847 1932,817 1821,817 1721,887 1550,978 1479,978 1369,978 1308,827 1258,827 1137,847 1037,978 966,988 865,1129 855,1179 976,1270 1107,1381 1087,1502 1268,1512 1429,1653 1469,1784 1479,1946 1429,2137 1489,2208 1540,2490 1509,2550 1499,2631 1580,2722 1560,3024 1811,3105 2043,3135 2143,3165 2164,3286 2113,3357 1832,3337 1771,3438 1691,3387 1550,3306 1459,3387 1399,3387 1348,3236 1167,3115 1057,3115 1016,3054 845,3054 714,2933 694,2933 694,2873 886,2873 916,2853 916,2813 996,2802 1026,2762 1026,2621 1047,2601 1047,2480 1077,2470 1057,2339 956,2339 956,2278 936,2228 886,2167 845,2137 845,2077 785,2077 785,1976 765,1855 714,1855 674,1825 674,1704 604,1663 594,1593 543,1573 493,1563 433,1502 302,1492 302,1472 121,1472 "/>
   </g>
  </g>
 </g>
</svg>
