<?xml version="1.0" encoding="UTF-8"?>
<!DOCTYPE svg PUBLIC "-//W3C//DTD SVG 1.1//EN" "http://www.w3.org/Graphics/SVG/1.1/DTD/svg11.dtd">
<!-- Creator: CorelDRAW X8 -->
<svg xmlns="http://www.w3.org/2000/svg" xml:space="preserve" width="100%" height="100%" version="1.1" shape-rendering="geometricPrecision" text-rendering="geometricPrecision" image-rendering="optimizeQuality" fill-rule="evenodd" clip-rule="evenodd"
viewBox="0 0 7153 2319"
 xmlns:xlink="http://www.w3.org/1999/xlink">
 <g id="Layer_x0020_1">
  <metadata id="CorelCorpID_0Corel-Layer"/>
  <g id="Layers">
   <g id="India_Districts_selection">
    <polygon fill="#6EA97F" points="6846,2319 6802,2242 6769,2187 6550,2088 6341,2066 6166,2011 5782,2011 5463,2000 5244,1967 4970,2011 4739,2022 4619,1824 4597,1802 4487,1659 4279,1681 4213,1901 4169,2099 3960,2187 3763,2187 3598,2110 3357,2033 3127,1978 2918,1879 2732,1725 2611,1539 2315,1429 1975,1341 1700,1374 1470,1616 1174,1769 900,1901 658,1967 450,2000 241,2000 11,1846 0,1846 33,1692 66,813 274,714 625,659 1558,604 1898,495 2326,429 2545,275 2732,88 3258,0 3609,33 3873,308 4355,626 4553,835 4926,758 5442,791 5595,758 5661,857 6440,868 6593,923 6890,1143 7153,1352 7043,1627 6945,1879 6890,2099 "/>
   </g>
  </g>
 </g>
</svg>
