<?xml version="1.0" encoding="UTF-8"?>
<!DOCTYPE svg PUBLIC "-//W3C//DTD SVG 1.1//EN" "http://www.w3.org/Graphics/SVG/1.1/DTD/svg11.dtd">
<!-- Creator: CorelDRAW X8 -->
<svg xmlns="http://www.w3.org/2000/svg" xml:space="preserve" width="100%" height="100%" version="1.1" shape-rendering="geometricPrecision" text-rendering="geometricPrecision" image-rendering="optimizeQuality" fill-rule="evenodd" clip-rule="evenodd"
viewBox="0 0 8777 10061"
 xmlns:xlink="http://www.w3.org/1999/xlink">
 <g id="Layer_x0020_1">
  <metadata id="CorelCorpID_0Corel-Layer"/>
  <g id="Layers">
   <g id="India_Districts_selection">
    <polygon fill="#6EA97F" points="7363,3423 7658,3423 7864,3570 8218,3747 8512,3865 8600,4131 8600,4278 8777,4337 8748,5813 8659,6255 8453,6403 8188,6639 8188,6963 8188,7347 7923,7730 7717,8025 7246,8084 6715,8055 6215,7996 5596,8143 5154,8409 4654,8468 4065,8911 3152,9412 1944,10061 1914,9678 2032,9412 2209,8999 2209,8586 2356,8084 2238,7760 2180,7347 2032,6963 1914,6609 2091,6285 2209,6078 2356,5753 2680,5429 2415,4898 2091,4426 2091,3806 1973,3629 1826,3216 1679,3157 1502,2891 1237,2567 913,2360 412,1711 295,1328 147,1033 29,620 0,413 59,384 589,207 972,266 1649,0 1914,0 2415,177 2945,266 3299,472 3652,767 3947,915 4153,1092 4271,1534 4182,1859 3947,2242 3829,2449 3888,2655 3976,2832 4153,3187 4300,3452 4595,3659 4713,3895 4624,4131 4948,4396 5272,4514 5478,4337 5567,4337 5920,4426 6244,4455 6391,4219 7128,4101 7334,4013 7334,3688 "/>
   </g>
  </g>
 </g>
</svg>
