<?xml version="1.0" encoding="UTF-8"?>
<!DOCTYPE svg PUBLIC "-//W3C//DTD SVG 1.1//EN" "http://www.w3.org/Graphics/SVG/1.1/DTD/svg11.dtd">
<!-- Creator: CorelDRAW X8 -->
<svg xmlns="http://www.w3.org/2000/svg" xml:space="preserve" width="100%" height="100%" version="1.1" shape-rendering="geometricPrecision" text-rendering="geometricPrecision" image-rendering="optimizeQuality" fill-rule="evenodd" clip-rule="evenodd"
viewBox="0 0 2465 2384"
 xmlns:xlink="http://www.w3.org/1999/xlink">
 <g id="Layer_x0020_1">
  <metadata id="CorelCorpID_0Corel-Layer"/>
  <g id="Layers">
   <g id="India_Districts_selection">
    <polygon fill="#6EA97F" points="1299,119 1285,147 1376,287 1487,405 1627,538 1690,657 1739,804 1767,930 1899,1021 2039,1049 2193,1146 2353,1265 2430,1412 2465,1433 2458,1440 2423,1866 2346,1936 2277,1901 2256,1845 2165,1811 2088,1880 2053,2125 1934,2258 1795,2251 1690,2272 1620,2321 1571,2342 1543,2384 1515,2363 1348,2237 1271,2244 1236,2223 1243,2188 1278,2167 1320,2104 1355,2062 1355,1971 1313,1915 1243,1804 866,1622 796,1573 726,1412 670,1209 552,1091 454,979 307,846 216,755 154,636 98,510 84,384 49,266 0,231 49,154 119,105 196,14 258,42 300,98 391,112 489,0 594,77 705,217 887,357 971,280 1054,168 1159,112 "/>
   </g>
  </g>
 </g>
</svg>
