<?xml version="1.0" encoding="UTF-8"?>
<!DOCTYPE svg PUBLIC "-//W3C//DTD SVG 1.1//EN" "http://www.w3.org/Graphics/SVG/1.1/DTD/svg11.dtd">
<!-- Creator: CorelDRAW X8 -->
<svg xmlns="http://www.w3.org/2000/svg" xml:space="preserve" width="100%" height="100%" version="1.1" shape-rendering="geometricPrecision" text-rendering="geometricPrecision" image-rendering="optimizeQuality" fill-rule="evenodd" clip-rule="evenodd"
viewBox="0 0 2890 2083"
 xmlns:xlink="http://www.w3.org/1999/xlink">
 <g id="Layer_x0020_1">
  <metadata id="CorelCorpID_0Corel-Layer"/>
  <g id="Layers">
   <g id="India_Districts_selection">
    <polygon fill="#6EA97F" points="2884,1197 2780,1374 2689,1570 2677,1704 2536,1838 2469,1961 2372,2083 2164,2040 2042,1973 1939,1906 1616,1918 1372,1918 1274,1875 1128,1777 988,1783 945,1716 762,1722 695,1716 677,1796 634,1802 530,1814 488,1673 415,1588 366,1515 189,1460 73,1368 0,1344 12,928 79,837 152,763 280,745 311,788 390,843 561,873 701,941 829,971 811,1099 1000,1209 1116,1197 1305,1160 1305,1069 1402,928 1518,855 1567,763 1756,745 1890,617 1921,440 1829,330 1835,269 1890,165 2073,0 2146,92 2390,366 2530,531 2457,684 2445,837 2475,977 2506,1032 2506,1081 2707,1093 2890,1112 "/>
   </g>
  </g>
 </g>
</svg>
