<?xml version="1.0" encoding="UTF-8"?>
<!DOCTYPE svg PUBLIC "-//W3C//DTD SVG 1.1//EN" "http://www.w3.org/Graphics/SVG/1.1/DTD/svg11.dtd">
<!-- Creator: CorelDRAW X8 -->
<svg xmlns="http://www.w3.org/2000/svg" xml:space="preserve" width="100%" height="100%" version="1.1" shape-rendering="geometricPrecision" text-rendering="geometricPrecision" image-rendering="optimizeQuality" fill-rule="evenodd" clip-rule="evenodd"
viewBox="0 0 3336 2384"
 xmlns:xlink="http://www.w3.org/1999/xlink">
 <g id="Layer_x0020_1">
  <metadata id="CorelCorpID_0Corel-Layer"/>
  <g id="Layers">
   <g id="India_Districts_selection">
    <polygon fill="#6EA97F" points="3336,1405 3301,1454 3203,1510 3217,1587 3266,1706 3057,1720 2973,1873 2680,1852 2687,1908 2568,1922 2435,1804 2254,1734 2170,1720 1982,1790 1389,1790 1263,1873 1249,2076 1082,2286 998,2314 830,2384 523,2384 440,2244 405,2146 398,1950 314,1950 286,1608 251,1524 244,1265 154,1188 0,972 0,944 161,783 265,587 398,419 433,322 530,238 705,168 935,182 1005,182 1096,105 1291,98 1396,238 1514,252 1633,168 1717,63 1996,98 2184,77 2477,91 2603,0 2777,210 2882,210 2847,447 2910,517 2931,671 3126,685 3196,699 3161,825 3063,965 3029,1091 3133,1160 3280,1293 "/>
   </g>
  </g>
 </g>
</svg>
