<?xml version="1.0" encoding="UTF-8"?>
<!DOCTYPE svg PUBLIC "-//W3C//DTD SVG 1.1//EN" "http://www.w3.org/Graphics/SVG/1.1/DTD/svg11.dtd">
<!-- Creator: CorelDRAW X8 -->
<svg xmlns="http://www.w3.org/2000/svg" xml:space="preserve" width="100%" height="100%" version="1.1" shape-rendering="geometricPrecision" text-rendering="geometricPrecision" image-rendering="optimizeQuality" fill-rule="evenodd" clip-rule="evenodd"
viewBox="0 0 1623 1631"
 xmlns:xlink="http://www.w3.org/1999/xlink">
 <g id="Layer_x0020_1">
  <metadata id="CorelCorpID_0Corel-Layer"/>
  <g id="Layers">
   <g id="India_Districts_selection">
    <polygon fill="#6EA97F" points="0,1344 0,1335 10,1172 19,1067 76,976 224,961 267,918 244,885 172,832 172,765 263,756 272,631 201,593 153,555 138,521 191,459 272,445 415,459 583,450 678,387 683,316 759,244 774,167 750,81 788,33 831,0 831,29 979,62 1299,29 1280,100 1261,407 1237,521 1332,574 1533,612 1623,674 1609,827 1509,942 1284,1196 1280,1272 1370,1358 1399,1406 1342,1445 1175,1349 1017,1354 874,1454 864,1583 864,1631 721,1588 602,1564 439,1468 329,1459 277,1478 234,1445 158,1358 62,1339 "/>
   </g>
  </g>
 </g>
</svg>
