<?xml version="1.0" encoding="UTF-8"?>
<!DOCTYPE svg PUBLIC "-//W3C//DTD SVG 1.1//EN" "http://www.w3.org/Graphics/SVG/1.1/DTD/svg11.dtd">
<!-- Creator: CorelDRAW X8 -->
<svg xmlns="http://www.w3.org/2000/svg" xml:space="preserve" width="100%" height="100%" version="1.1" shape-rendering="geometricPrecision" text-rendering="geometricPrecision" image-rendering="optimizeQuality" fill-rule="evenodd" clip-rule="evenodd"
viewBox="0 0 1710 1330"
 xmlns:xlink="http://www.w3.org/1999/xlink">
 <g id="Layer_x0020_1">
  <metadata id="CorelCorpID_0Corel-Layer"/>
  <g id="Layers">
   <g id="India_Districts_selection">
    <polygon fill="#6EA97F" points="1675,495 1640,495 1613,601 1570,686 1539,749 1496,823 1504,991 1434,1092 1336,1123 1321,1178 1266,1256 1208,1264 1177,1283 1126,1330 1025,1326 994,1279 935,1291 705,1275 670,1256 436,1264 121,1264 90,1268 58,1205 0,1096 101,1065 226,1018 339,991 503,870 573,819 581,764 612,698 729,628 709,511 752,390 845,324 869,281 857,152 760,125 736,90 779,20 818,0 881,23 1064,51 1223,94 1340,183 1516,183 1531,199 1621,234 1675,281 1710,390 1687,452 "/>
   </g>
  </g>
 </g>
</svg>
