<?xml version="1.0" encoding="UTF-8"?>
<!DOCTYPE svg PUBLIC "-//W3C//DTD SVG 1.1//EN" "http://www.w3.org/Graphics/SVG/1.1/DTD/svg11.dtd">
<!-- Creator: CorelDRAW X8 -->
<svg xmlns="http://www.w3.org/2000/svg" xml:space="preserve" width="100%" height="100%" version="1.1" shape-rendering="geometricPrecision" text-rendering="geometricPrecision" image-rendering="optimizeQuality" fill-rule="evenodd" clip-rule="evenodd"
viewBox="0 0 2640 2835"
 xmlns:xlink="http://www.w3.org/1999/xlink">
 <g id="Layer_x0020_1">
  <metadata id="CorelCorpID_0Corel-Layer"/>
  <g id="Layers">
   <g id="India_Districts_selection">
    <polygon fill="#6EA97F" points="2158,2835 1627,2802 1486,2611 1345,2594 1353,2677 1038,2669 921,2819 573,2810 589,2594 440,2603 440,2353 315,2104 307,1804 224,1671 91,1505 17,1364 0,1280 183,1222 523,1189 830,1131 1129,915 1353,599 1469,333 1668,133 1892,17 2183,0 2374,83 2540,283 2640,358 2125,1006 1984,1147 2017,1389 2158,1488 2200,1979 2216,2237 2133,2370 2166,2544 2274,2619 2266,2752 "/>
   </g>
  </g>
 </g>
</svg>
