<?xml version="1.0" encoding="UTF-8"?>
<!DOCTYPE svg PUBLIC "-//W3C//DTD SVG 1.1//EN" "http://www.w3.org/Graphics/SVG/1.1/DTD/svg11.dtd">
<!-- Creator: CorelDRAW X8 -->
<svg xmlns="http://www.w3.org/2000/svg" xml:space="preserve" width="100%" height="100%" version="1.1" shape-rendering="geometricPrecision" text-rendering="geometricPrecision" image-rendering="optimizeQuality" fill-rule="evenodd" clip-rule="evenodd"
viewBox="0 0 2733 1744"
 xmlns:xlink="http://www.w3.org/1999/xlink">
 <g id="Layer_x0020_1">
  <metadata id="CorelCorpID_0Corel-Layer"/>
  <g id="Layers">
   <g id="India_Districts_selection">
    <polygon fill="#6EA97F" points="2018,1703 1997,1652 1967,1575 1558,1555 1476,1503 1246,1509 1206,1565 1134,1478 991,1488 971,1529 802,1519 756,1560 644,1565 485,1457 332,1422 179,1166 66,1105 36,741 82,695 77,547 0,496 5,61 46,20 87,0 87,31 204,41 347,77 414,138 439,276 455,368 587,332 679,297 787,327 1078,430 1287,455 1456,568 1502,670 1716,660 1732,639 1732,649 1824,649 1829,695 1982,711 2105,767 2135,828 2135,936 2212,931 2324,941 2426,900 2467,972 2524,1007 2600,1043 2718,1069 2733,1069 2728,1222 2713,1232 2626,1289 2534,1319 2432,1324 2396,1370 2294,1355 2243,1416 2289,1493 2263,1739 2202,1744 2186,1688 2023,1698 "/>
   </g>
  </g>
 </g>
</svg>
