<?xml version="1.0" encoding="UTF-8"?>
<!DOCTYPE svg PUBLIC "-//W3C//DTD SVG 1.1//EN" "http://www.w3.org/Graphics/SVG/1.1/DTD/svg11.dtd">
<!-- Creator: CorelDRAW X8 -->
<svg xmlns="http://www.w3.org/2000/svg" xml:space="preserve" width="100%" height="100%" version="1.1" shape-rendering="geometricPrecision" text-rendering="geometricPrecision" image-rendering="optimizeQuality" fill-rule="evenodd" clip-rule="evenodd"
viewBox="0 0 2537 2233"
 xmlns:xlink="http://www.w3.org/1999/xlink">
 <g id="Layer_x0020_1">
  <metadata id="CorelCorpID_0Corel-Layer"/>
  <g id="Layers">
   <g id="India_Districts_selection">
    <polygon fill="#6EA97F" points="2393,956 2262,1120 2053,1218 1706,1546 1432,1781 1131,1932 1000,2050 758,2142 628,2233 601,2174 634,1952 595,1821 445,1794 366,1735 268,1605 216,1447 0,1454 33,1408 92,1231 92,1192 255,1198 405,1198 451,1133 601,1054 765,976 1085,982 1196,910 1229,779 1177,661 1203,517 1229,269 1308,59 1366,0 1464,65 1608,164 1850,426 2255,609 2445,773 2537,923 "/>
   </g>
  </g>
 </g>
</svg>
