<?xml version="1.0" encoding="UTF-8"?>
<!DOCTYPE svg PUBLIC "-//W3C//DTD SVG 1.1//EN" "http://www.w3.org/Graphics/SVG/1.1/DTD/svg11.dtd">
<!-- Creator: CorelDRAW X8 -->
<svg xmlns="http://www.w3.org/2000/svg" xml:space="preserve" width="100%" height="100%" version="1.1" shape-rendering="geometricPrecision" text-rendering="geometricPrecision" image-rendering="optimizeQuality" fill-rule="evenodd" clip-rule="evenodd"
viewBox="0 0 2157 2233"
 xmlns:xlink="http://www.w3.org/1999/xlink">
 <g id="Layer_x0020_1">
  <metadata id="CorelCorpID_0Corel-Layer"/>
  <g id="Layers">
   <g id="India_Districts_selection">
    <polygon fill="#6EA97F" points="2157,1048 2151,1074 1961,1179 1876,1284 1831,1375 1870,1539 1759,1637 1765,1801 1589,1788 1438,1873 1432,1984 1314,2017 1144,2056 1092,2227 961,2233 824,2207 739,2135 693,2030 451,2043 379,2135 320,2122 242,2096 98,2069 65,2011 7,1971 0,1932 0,1847 7,1696 26,1591 150,1539 203,1487 235,1415 209,1343 183,1179 144,1113 163,1041 118,806 124,603 190,373 275,216 405,183 575,164 726,124 791,52 902,0 1007,59 1124,242 1138,275 1000,419 876,517 896,616 961,694 1053,871 1170,1009 1379,1009 1471,1009 1530,917 1615,917 1667,1022 1870,989 1948,923 2046,1015 2105,1061 "/>
   </g>
  </g>
 </g>
</svg>
