<?xml version="1.0" encoding="UTF-8"?>
<!DOCTYPE svg PUBLIC "-//W3C//DTD SVG 1.1//EN" "http://www.w3.org/Graphics/SVG/1.1/DTD/svg11.dtd">
<!-- Creator: CorelDRAW X8 -->
<svg xmlns="http://www.w3.org/2000/svg" xml:space="preserve" width="100%" height="100%" version="1.1" shape-rendering="geometricPrecision" text-rendering="geometricPrecision" image-rendering="optimizeQuality" fill-rule="evenodd" clip-rule="evenodd"
viewBox="0 0 2733 1699"
 xmlns:xlink="http://www.w3.org/1999/xlink">
 <g id="Layer_x0020_1">
  <metadata id="CorelCorpID_0Corel-Layer"/>
  <g id="Layers">
   <g id="India_Districts_selection">
    <polygon fill="#6EA97F" points="2678,1605 2509,1615 2504,1669 2444,1674 2419,1615 2370,1615 2340,1659 2265,1699 2116,1684 2071,1625 2061,1535 2016,1495 1912,1470 1802,1410 1782,1350 1623,1181 1528,1176 1523,987 1444,837 1329,837 1319,887 1205,887 1200,872 1135,887 1125,932 1070,922 1060,882 996,887 981,1042 1011,1066 1006,1156 946,1166 876,1191 851,1296 707,1296 672,1380 642,1440 568,1460 538,1475 483,1450 428,1420 329,1385 229,1385 70,1345 30,1311 0,1266 45,1211 224,1071 294,1037 334,1002 343,912 329,802 309,728 274,653 279,558 324,498 403,458 493,434 617,434 697,424 752,344 762,279 787,184 792,110 826,45 901,10 996,0 1095,20 1175,110 1225,145 1279,125 1394,135 1563,234 1693,264 1842,304 1847,389 2086,553 2151,548 2160,728 2126,723 2126,877 2141,907 2250,982 2245,1037 2275,1071 2270,1126 2454,1136 2589,1181 2584,1331 2668,1410 2733,1410 2728,1505 2728,1580 2678,1590 "/>
   </g>
  </g>
 </g>
</svg>
