<?xml version="1.0" encoding="UTF-8"?>
<!DOCTYPE svg PUBLIC "-//W3C//DTD SVG 1.1//EN" "http://www.w3.org/Graphics/SVG/1.1/DTD/svg11.dtd">
<!-- Creator: CorelDRAW X8 -->
<svg xmlns="http://www.w3.org/2000/svg" xml:space="preserve" width="100%" height="100%" version="1.1" shape-rendering="geometricPrecision" text-rendering="geometricPrecision" image-rendering="optimizeQuality" fill-rule="evenodd" clip-rule="evenodd"
viewBox="0 0 2090 1481"
 xmlns:xlink="http://www.w3.org/1999/xlink">
 <g id="Layer_x0020_1">
  <metadata id="CorelCorpID_0Corel-Layer"/>
  <g id="Layers">
   <g id="India_Districts_selection">
    <polygon fill="#6EA97F" points="0,1476 22,1337 39,1285 152,1177 165,1098 273,1029 473,973 494,886 529,773 577,630 620,569 603,473 655,447 677,373 811,317 833,365 928,339 993,300 1036,252 1049,182 1149,200 1279,82 1331,9 1422,35 1422,122 1596,100 1639,69 1730,65 1743,26 1882,26 1930,117 2060,0 2069,13 2090,9 2069,113 2043,204 1960,274 1973,369 2008,443 2038,569 2034,790 1999,829 1917,877 1726,877 1709,973 1756,1051 1748,1203 1535,1194 1154,1363 937,1481 "/>
   </g>
  </g>
 </g>
</svg>
