<?xml version="1.0" encoding="UTF-8"?>
<!DOCTYPE svg PUBLIC "-//W3C//DTD SVG 1.1//EN" "http://www.w3.org/Graphics/SVG/1.1/DTD/svg11.dtd">
<!-- Creator: CorelDRAW X8 -->
<svg xmlns="http://www.w3.org/2000/svg" xml:space="preserve" width="100%" height="100%" version="1.1" shape-rendering="geometricPrecision" text-rendering="geometricPrecision" image-rendering="optimizeQuality" fill-rule="evenodd" clip-rule="evenodd"
viewBox="0 0 1662 2534"
 xmlns:xlink="http://www.w3.org/1999/xlink">
 <g id="Layer_x0020_1">
  <metadata id="CorelCorpID_0Corel-Layer"/>
  <g id="Layers">
   <g id="India_Districts_selection">
    <polygon fill="#6EA97F" points="1321,119 1283,156 1283,253 1328,260 1328,327 1350,327 1343,505 1432,543 1513,572 1573,617 1580,647 1662,654 1662,832 1603,914 1528,1026 1447,1063 1395,1085 1402,1174 1447,1182 1469,1226 1410,1323 1350,1338 1313,1405 1328,1494 1439,1509 1536,1509 1573,1531 1580,1732 1513,1799 1432,1851 1447,1955 1551,2014 1640,2118 1632,2304 1521,2356 1054,2512 935,2534 927,2371 883,2267 727,2267 727,2074 668,2059 653,1925 556,1880 556,1858 475,1858 371,1747 275,1747 260,1761 178,1761 111,1732 111,1568 297,1553 334,1524 289,1479 171,1405 200,1338 223,1301 326,1256 386,1174 245,1152 148,1130 156,1063 200,1018 297,959 267,922 200,840 89,773 0,721 111,595 415,587 438,624 542,602 556,483 668,446 675,342 638,327 653,268 697,238 868,223 898,186 927,126 957,89 1061,89 1061,171 1113,238 1172,164 1172,22 1217,0 1254,74 1321,74 "/>
   </g>
  </g>
 </g>
</svg>
