<?xml version="1.0" encoding="UTF-8"?>
<!DOCTYPE svg PUBLIC "-//W3C//DTD SVG 1.1//EN" "http://www.w3.org/Graphics/SVG/1.1/DTD/svg11.dtd">
<!-- Creator: CorelDRAW X8 -->
<svg xmlns="http://www.w3.org/2000/svg" xml:space="preserve" width="100%" height="100%" version="1.1" shape-rendering="geometricPrecision" text-rendering="geometricPrecision" image-rendering="optimizeQuality" fill-rule="evenodd" clip-rule="evenodd"
viewBox="0 0 1878 1782"
 xmlns:xlink="http://www.w3.org/1999/xlink">
 <g id="Layer_x0020_1">
  <metadata id="CorelCorpID_0Corel-Layer"/>
  <g id="Layers">
   <g id="India_Districts_selection">
    <polygon fill="#6EA97F" points="876,209 965,261 1085,246 1095,188 1252,183 1497,178 1497,162 1539,178 1601,230 1695,261 1726,303 1763,345 1789,423 1846,418 1841,460 1878,559 1857,825 1857,925 1721,1076 1726,1322 1638,1432 1601,1479 1366,1546 1304,1635 1127,1641 986,1698 798,1729 720,1750 579,1782 443,1708 396,1682 402,1557 292,1447 224,1343 167,1196 68,1034 42,888 42,664 37,496 10,392 0,246 0,141 57,78 125,21 125,0 177,10 276,31 318,63 428,84 548,115 683,141 788,172 "/>
   </g>
  </g>
 </g>
</svg>
