<?xml version="1.0" encoding="UTF-8"?>
<!DOCTYPE svg PUBLIC "-//W3C//DTD SVG 1.1//EN" "http://www.w3.org/Graphics/SVG/1.1/DTD/svg11.dtd">
<!-- Creator: CorelDRAW X8 -->
<svg xmlns="http://www.w3.org/2000/svg" xml:space="preserve" width="100%" height="100%" version="1.1" shape-rendering="geometricPrecision" text-rendering="geometricPrecision" image-rendering="optimizeQuality" fill-rule="evenodd" clip-rule="evenodd"
viewBox="0 0 2229 1932"
 xmlns:xlink="http://www.w3.org/1999/xlink">
 <g id="Layer_x0020_1">
  <metadata id="CorelCorpID_0Corel-Layer"/>
  <g id="Layers">
   <g id="India_Districts_selection">
    <polygon fill="#6EA97F" points="1165,1575 1154,1553 1109,1502 1018,1468 899,1462 854,1417 815,1371 713,1298 430,1298 396,1258 339,1184 305,1122 277,1048 243,975 187,935 141,907 136,793 107,782 68,731 11,686 0,612 40,567 96,538 147,510 164,482 260,459 266,482 328,516 413,544 509,521 588,578 673,595 707,459 798,425 933,419 956,317 1063,317 1075,283 1182,283 1239,204 1454,193 1454,23 1533,0 1731,6 1770,57 1872,295 1793,533 1821,878 1748,1009 1680,1116 1720,1252 1838,1439 2014,1485 2076,1439 2121,1519 2144,1558 2178,1609 2200,1672 2229,1739 2229,1807 2217,1881 2166,1932 2110,1926 2053,1904 2014,1858 1968,1813 1889,1790 1804,1802 1731,1768 1669,1745 1584,1728 1471,1677 1369,1655 1261,1604 "/>
   </g>
  </g>
 </g>
</svg>
