<?xml version="1.0" encoding="UTF-8"?>
<!DOCTYPE svg PUBLIC "-//W3C//DTD SVG 1.1//EN" "http://www.w3.org/Graphics/SVG/1.1/DTD/svg11.dtd">
<!-- Creator: CorelDRAW X8 -->
<svg xmlns="http://www.w3.org/2000/svg" xml:space="preserve" width="100%" height="100%" version="1.1" shape-rendering="geometricPrecision" text-rendering="geometricPrecision" image-rendering="optimizeQuality" fill-rule="evenodd" clip-rule="evenodd"
viewBox="0 0 5463 4642"
 xmlns:xlink="http://www.w3.org/1999/xlink">
 <g id="Layer_x0020_1">
  <metadata id="CorelCorpID_0Corel-Layer"/>
  <g id="Layers">
   <g id="India_Districts_selection">
    <polygon fill="#6EA97F" points="2663,4084 2582,3880 2269,3635 2079,3376 1631,2886 1712,2695 1671,2110 1549,1688 1155,1565 788,1565 82,1552 122,1416 0,749 136,708 421,517 666,354 870,231 1141,150 1400,68 1699,0 2310,41 2487,177 2663,54 2908,123 3207,313 3424,204 3791,14 4213,41 4430,191 4389,504 4892,830 5232,1021 5463,1184 5422,1293 5313,1470 5164,1715 5041,1892 4892,2083 4756,2301 4729,2546 4783,2736 4675,2927 4661,3144 4661,3321 4593,3526 4511,3703 4525,3934 4647,4111 4661,4302 4566,4451 4376,4506 4321,4397 4158,4329 3954,4315 3723,4342 3615,4424 3615,4574 3547,4642 3465,4547 3424,4465 3234,4438 3098,4302 3017,4193 2881,4097 "/>
   </g>
  </g>
 </g>
</svg>
