<?xml version="1.0" encoding="UTF-8"?>
<!DOCTYPE svg PUBLIC "-//W3C//DTD SVG 1.1//EN" "http://www.w3.org/Graphics/SVG/1.1/DTD/svg11.dtd">
<!-- Creator: CorelDRAW X8 -->
<svg xmlns="http://www.w3.org/2000/svg" xml:space="preserve" width="100%" height="100%" version="1.1" shape-rendering="geometricPrecision" text-rendering="geometricPrecision" image-rendering="optimizeQuality" fill-rule="evenodd" clip-rule="evenodd"
viewBox="0 0 2664 1631"
 xmlns:xlink="http://www.w3.org/1999/xlink">
 <g id="Layer_x0020_1">
  <metadata id="CorelCorpID_0Corel-Layer"/>
  <g id="Layers">
   <g id="India_Districts_selection">
    <polygon fill="#6EA97F" points="2139,0 2368,139 2574,139 2540,201 2526,297 2664,469 2617,732 2416,933 2134,957 2063,1095 1881,1201 1733,1421 1733,1550 1452,1612 1280,1631 993,1464 1017,1272 826,1220 606,1124 353,1071 234,995 191,928 215,928 205,761 14,651 0,617 210,483 583,335 788,153 988,53 1194,282 1409,234 1471,14 1891,48 "/>
   </g>
  </g>
 </g>
</svg>
