<?xml version="1.0" encoding="UTF-8"?>
<!DOCTYPE svg PUBLIC "-//W3C//DTD SVG 1.1//EN" "http://www.w3.org/Graphics/SVG/1.1/DTD/svg11.dtd">
<!-- Creator: CorelDRAW X8 -->
<svg xmlns="http://www.w3.org/2000/svg" xml:space="preserve" width="100%" height="100%" version="1.1" shape-rendering="geometricPrecision" text-rendering="geometricPrecision" image-rendering="optimizeQuality" fill-rule="evenodd" clip-rule="evenodd"
viewBox="0 0 5741 8104"
 xmlns:xlink="http://www.w3.org/1999/xlink">
 <g id="Layer_x0020_1">
  <metadata id="CorelCorpID_0Corel-Layer"/>
  <g id="Layers">
   <g id="India_Districts_selection">
    <polygon fill="#6EA97F" points="5575,7463 5433,7463 5030,7653 4460,7962 4152,8080 3725,8104 3321,7985 3060,7629 2681,7391 2396,7320 2206,7177 1708,7082 1044,7296 688,7391 498,7510 474,7558 190,7177 71,6940 142,6773 522,6512 973,6155 2088,6155 2159,6013 2444,5918 2372,5609 2254,5419 1993,5133 1542,4872 1661,4634 1637,4492 1400,4302 735,4230 664,4112 474,3755 142,3446 71,3256 261,2971 261,2757 261,1925 356,1616 356,1117 142,808 0,523 261,24 237,0 712,24 1115,261 1922,285 2444,951 2705,1260 3179,1355 3393,1426 3915,1212 4247,1165 4437,1093 4840,1141 4911,1331 4816,1830 4911,2400 4935,2757 5148,2899 5338,2947 5457,3185 5433,3446 5267,3612 5362,3826 5457,3921 5646,3921 5741,4207 5741,4492 5741,4587 5338,4967 5243,5181 5125,5371 5077,5537 4982,5680 5030,5942 5196,5894 5528,5870 5528,6037 5291,6203 4911,6346 5125,6631 5362,6987 5504,7177 5552,7344 "/>
   </g>
  </g>
 </g>
</svg>
