<?xml version="1.0" encoding="UTF-8"?>
<!DOCTYPE svg PUBLIC "-//W3C//DTD SVG 1.1//EN" "http://www.w3.org/Graphics/SVG/1.1/DTD/svg11.dtd">
<!-- Creator: CorelDRAW X8 -->
<svg xmlns="http://www.w3.org/2000/svg" xml:space="preserve" width="100%" height="100%" version="1.1" shape-rendering="geometricPrecision" text-rendering="geometricPrecision" image-rendering="optimizeQuality" fill-rule="evenodd" clip-rule="evenodd"
viewBox="0 0 2389 1782"
 xmlns:xlink="http://www.w3.org/1999/xlink">
 <g id="Layer_x0020_1">
  <metadata id="CorelCorpID_0Corel-Layer"/>
  <g id="Layers">
   <g id="India_Districts_selection">
    <polygon fill="#6EA97F" points="1669,1688 1554,1698 1445,1698 1356,1688 1335,1641 1304,1599 1278,1573 1205,1541 1184,1567 1153,1604 1127,1583 1090,1562 1048,1541 1033,1510 991,1489 934,1473 902,1468 834,1473 798,1489 777,1520 767,1557 725,1557 688,1567 668,1588 615,1588 589,1609 532,1614 417,1625 391,1667 329,1693 287,1703 266,1740 209,1750 151,1776 110,1782 73,1782 16,1740 0,1672 31,1667 31,1609 42,1557 31,1468 94,1463 104,1405 78,1405 57,1369 68,1212 115,1212 214,1207 266,1170 308,1149 329,1139 308,1097 355,1082 386,1034 433,1019 464,977 516,946 506,925 527,888 678,878 730,825 808,825 902,815 954,789 1022,742 1111,737 1174,731 1200,705 1299,726 1351,716 1382,690 1413,658 1434,606 1450,569 1481,564 1533,522 1591,522 1627,522 1669,559 1700,564 1732,549 1878,549 1925,512 1909,361 1909,282 1987,277 2013,214 2013,162 2044,152 2065,84 2118,63 2185,52 2253,10 2253,0 2290,5 2321,178 2373,246 2384,319 2389,324 2363,340 2342,371 2326,408 2310,449 2305,517 2305,559 2274,580 2258,637 2206,664 2201,721 2180,763 2164,794 2164,825 2133,846 2128,878 2123,914 2170,946 2191,956 2243,1003 2284,1029 2305,1076 2331,1113 2337,1181 2347,1249 2326,1311 2321,1343 2300,1390 2243,1411 2232,1374 1961,1379 1925,1353 1836,1338 1768,1343 1758,1379 1721,1405 1705,1442 1679,1452 1669,1682 "/>
   </g>
  </g>
 </g>
</svg>
