<?xml version="1.0" encoding="UTF-8"?>
<!DOCTYPE svg PUBLIC "-//W3C//DTD SVG 1.1//EN" "http://www.w3.org/Graphics/SVG/1.1/DTD/svg11.dtd">
<!-- Creator: CorelDRAW X8 -->
<svg xmlns="http://www.w3.org/2000/svg" xml:space="preserve" width="100%" height="100%" version="1.1" shape-rendering="geometricPrecision" text-rendering="geometricPrecision" image-rendering="optimizeQuality" fill-rule="evenodd" clip-rule="evenodd"
viewBox="0 0 1243 2384"
 xmlns:xlink="http://www.w3.org/1999/xlink">
 <g id="Layer_x0020_1">
  <metadata id="CorelCorpID_0Corel-Layer"/>
  <g id="Layers">
   <g id="India_Districts_selection">
    <polygon fill="#6EA97F" points="656,161 656,189 740,322 796,364 803,489 733,524 831,622 929,622 936,664 1138,664 1145,720 1236,818 1243,1056 1159,1105 1180,1664 1236,1748 1236,1832 1159,1825 1180,1964 1089,2125 1068,2111 894,2139 824,2188 691,2342 607,2384 384,2370 412,2314 314,2132 133,1720 84,1503 14,1454 56,1391 91,1335 133,1251 154,1146 168,1070 147,979 126,846 105,734 105,594 91,482 84,357 56,217 0,147 42,112 119,63 189,21 335,0 370,42 377,140 391,189 440,210 524,210 607,203 "/>
   </g>
  </g>
 </g>
</svg>
