<?xml version="1.0" encoding="UTF-8"?>
<!DOCTYPE svg PUBLIC "-//W3C//DTD SVG 1.1//EN" "http://www.w3.org/Graphics/SVG/1.1/DTD/svg11.dtd">
<!-- Creator: CorelDRAW X8 -->
<svg xmlns="http://www.w3.org/2000/svg" xml:space="preserve" width="100%" height="100%" version="1.1" shape-rendering="geometricPrecision" text-rendering="geometricPrecision" image-rendering="optimizeQuality" fill-rule="evenodd" clip-rule="evenodd"
viewBox="0 0 3405 1481"
 xmlns:xlink="http://www.w3.org/1999/xlink">
 <g id="Layer_x0020_1">
  <metadata id="CorelCorpID_0Corel-Layer"/>
  <g id="Layers">
   <g id="India_Districts_selection">
    <polygon fill="#6EA97F" points="0,419 131,324 240,303 444,351 517,288 663,157 856,58 1212,73 1415,21 2585,0 2601,73 2789,136 3118,183 3405,73 3400,230 3337,340 3196,471 3039,434 2831,314 2700,351 2627,460 2507,607 2361,691 2251,895 2371,931 2418,978 2178,1031 2079,1104 1875,1177 1598,1235 1562,1381 1076,1407 700,1481 700,1292 522,1161 418,1072 439,780 329,628 282,664 94,664 "/>
   </g>
  </g>
 </g>
</svg>
