<?xml version="1.0" encoding="UTF-8"?>
<!DOCTYPE svg PUBLIC "-//W3C//DTD SVG 1.1//EN" "http://www.w3.org/Graphics/SVG/1.1/DTD/svg11.dtd">
<!-- Creator: CorelDRAW X8 -->
<svg xmlns="http://www.w3.org/2000/svg" xml:space="preserve" width="100%" height="100%" version="1.1" shape-rendering="geometricPrecision" text-rendering="geometricPrecision" image-rendering="optimizeQuality" fill-rule="evenodd" clip-rule="evenodd"
viewBox="0 0 2258 2835"
 xmlns:xlink="http://www.w3.org/1999/xlink">
 <g id="Layer_x0020_1">
  <metadata id="CorelCorpID_0Corel-Layer"/>
  <g id="Layers">
   <g id="India_Districts_selection">
    <polygon fill="#6EA97F" points="2142,2694 2108,2719 1237,2810 1112,2835 1021,2785 1021,2677 805,2553 730,2378 722,2220 706,2054 714,2045 805,1929 1004,1896 1004,1821 1062,1671 1137,1538 1154,1372 1096,1314 1013,1264 780,1289 531,1239 349,1106 216,1089 158,1006 75,856 0,674 50,607 91,482 100,457 216,407 374,349 481,291 606,175 1021,0 1253,25 1436,50 1652,158 1801,208 2058,225 2200,208 2208,266 2258,382 2183,432 2042,590 1884,848 1975,956 1892,1197 1801,1422 1826,1763 1909,2120 2017,2370 2092,2661 "/>
   </g>
  </g>
 </g>
</svg>
