<?xml version="1.0" encoding="UTF-8"?>
<!DOCTYPE svg PUBLIC "-//W3C//DTD SVG 1.1//EN" "http://www.w3.org/Graphics/SVG/1.1/DTD/svg11.dtd">
<!-- Creator: CorelDRAW X8 -->
<svg xmlns="http://www.w3.org/2000/svg" xml:space="preserve" width="100%" height="100%" version="1.1" shape-rendering="geometricPrecision" text-rendering="geometricPrecision" image-rendering="optimizeQuality" fill-rule="evenodd" clip-rule="evenodd"
viewBox="0 0 2371 1179"
 xmlns:xlink="http://www.w3.org/1999/xlink">
 <g id="Layer_x0020_1">
  <metadata id="CorelCorpID_0Corel-Layer"/>
  <g id="Layers">
   <g id="India_Districts_selection">
    <polygon fill="#6EA97F" points="2214,1052 2079,1172 2032,1081 1886,1081 1871,1117 1773,1125 1732,1154 1546,1179 1546,1088 1444,1055 1408,964 1328,862 1204,847 1185,730 1131,701 1010,763 1003,822 912,803 850,781 802,738 748,749 740,803 602,829 584,854 379,865 343,891 204,891 186,840 0,829 0,741 11,741 66,712 160,712 237,738 332,741 449,716 460,639 460,533 489,420 514,362 602,358 664,387 755,409 824,464 905,449 963,435 996,387 1021,329 1010,259 992,219 919,175 952,139 1032,91 1112,44 1189,7 1266,29 1342,106 1448,164 1546,168 1678,168 1820,139 1966,106 2064,58 2199,0 2290,22 2360,55 2371,106 2316,179 2239,245 2203,314 2225,413 2243,500 2214,581 2196,668 2181,756 2170,865 2185,1019 "/>
   </g>
  </g>
 </g>
</svg>
