<?xml version="1.0" encoding="UTF-8"?>
<!DOCTYPE svg PUBLIC "-//W3C//DTD SVG 1.1//EN" "http://www.w3.org/Graphics/SVG/1.1/DTD/svg11.dtd">
<!-- Creator: CorelDRAW X8 -->
<svg xmlns="http://www.w3.org/2000/svg" xml:space="preserve" width="100%" height="100%" version="1.1" shape-rendering="geometricPrecision" text-rendering="geometricPrecision" image-rendering="optimizeQuality" fill-rule="evenodd" clip-rule="evenodd"
viewBox="0 0 2296 1932"
 xmlns:xlink="http://www.w3.org/1999/xlink">
 <g id="Layer_x0020_1">
  <metadata id="CorelCorpID_0Corel-Layer"/>
  <g id="Layers">
   <g id="India_Districts_selection">
    <polygon fill="#6EA97F" points="2212,1796 2183,1785 1505,1711 1442,1858 1352,1932 1346,1858 809,1773 520,1615 532,1468 617,1252 809,1150 424,980 181,1020 0,850 40,521 85,385 294,278 509,204 730,227 996,397 1193,470 1386,215 1505,0 1714,125 1923,397 2019,788 2263,867 2296,1275 2263,1615 "/>
   </g>
  </g>
 </g>
</svg>
