<?xml version="1.0" encoding="UTF-8"?>
<!DOCTYPE svg PUBLIC "-//W3C//DTD SVG 1.1//EN" "http://www.w3.org/Graphics/SVG/1.1/DTD/svg11.dtd">
<!-- Creator: CorelDRAW X8 -->
<svg xmlns="http://www.w3.org/2000/svg" xml:space="preserve" width="100%" height="100%" version="1.1" shape-rendering="geometricPrecision" text-rendering="geometricPrecision" image-rendering="optimizeQuality" fill-rule="evenodd" clip-rule="evenodd"
viewBox="0 0 4260 3136"
 xmlns:xlink="http://www.w3.org/1999/xlink">
 <g id="Layer_x0020_1">
  <metadata id="CorelCorpID_0Corel-Layer"/>
  <g id="Layers">
   <g id="India_Districts_selection">
    <polygon fill="#6EA97F" points="3875,1821 3719,1784 3682,1784 3452,1729 3278,1610 3076,1738 2938,1784 2819,1849 2810,2171 2736,2309 2617,2299 2571,2309 2378,2171 2213,2134 2038,2299 1910,2437 1625,2640 1432,2640 1423,2750 1377,2686 1276,2824 1148,2897 1001,3035 872,3063 606,3063 432,3136 340,3044 9,2888 0,2888 0,2861 37,2833 138,2612 156,2336 202,2125 331,1941 441,1646 413,1003 376,938 477,920 514,819 533,662 615,469 716,423 735,28 900,37 946,0 946,55 1148,258 1708,441 2277,635 2580,763 2755,1021 3232,1095 3480,1251 3866,1269 4077,1435 4260,1508 3893,1784 "/>
   </g>
  </g>
 </g>
</svg>
