<?xml version="1.0" encoding="UTF-8"?>
<!DOCTYPE svg PUBLIC "-//W3C//DTD SVG 1.1//EN" "http://www.w3.org/Graphics/SVG/1.1/DTD/svg11.dtd">
<!-- Creator: CorelDRAW X8 -->
<svg xmlns="http://www.w3.org/2000/svg" xml:space="preserve" width="100%" height="100%" version="1.1" shape-rendering="geometricPrecision" text-rendering="geometricPrecision" image-rendering="optimizeQuality" fill-rule="evenodd" clip-rule="evenodd"
viewBox="0 0 3852 3739"
 xmlns:xlink="http://www.w3.org/1999/xlink">
 <g id="Layer_x0020_1">
  <metadata id="CorelCorpID_0Corel-Layer"/>
  <g id="Layers">
   <g id="India_Districts_selection">
    <polygon fill="#6EA97F" points="2561,186 2572,318 2583,493 2681,658 2681,800 2824,811 2802,1096 2824,1206 2988,1195 3108,1118 3480,1129 3623,1140 3645,1195 3852,1217 3732,1338 3699,1524 3765,1710 3765,1886 3699,1886 3699,2006 3448,2006 3141,2302 3119,2423 2922,2434 2758,2511 2627,2434 2320,2434 2200,2555 2014,2719 1850,2938 1478,2938 1445,3114 1226,3179 1051,3179 908,3421 613,3695 536,3739 514,3706 317,3618 383,3596 197,3399 186,3168 131,3004 0,2949 99,2916 186,2785 317,2730 503,2675 613,2587 624,2401 514,2302 460,2248 514,2116 624,1952 722,1798 865,1656 1073,1590 1226,1491 1445,1283 1893,822 2101,603 2244,471 2244,351 2145,296 2058,208 2058,121 2134,11 2233,0 2353,88 2495,153 "/>
   </g>
  </g>
 </g>
</svg>
