<?xml version="1.0" encoding="UTF-8"?>
<!DOCTYPE svg PUBLIC "-//W3C//DTD SVG 1.1//EN" "http://www.w3.org/Graphics/SVG/1.1/DTD/svg11.dtd">
<!-- Creator: CorelDRAW X8 -->
<svg xmlns="http://www.w3.org/2000/svg" xml:space="preserve" width="100%" height="100%" version="1.1" shape-rendering="geometricPrecision" text-rendering="geometricPrecision" image-rendering="optimizeQuality" fill-rule="evenodd" clip-rule="evenodd"
viewBox="0 0 2025 1631"
 xmlns:xlink="http://www.w3.org/1999/xlink">
 <g id="Layer_x0020_1">
  <metadata id="CorelCorpID_0Corel-Layer"/>
  <g id="Layers">
   <g id="India_Districts_selection">
    <polygon fill="#6EA97F" points="1246,1378 1050,1368 950,1464 855,1440 831,1392 750,1378 740,1091 621,1048 563,1129 511,1229 468,1392 444,1631 401,1631 368,1607 363,1564 310,1464 196,1382 153,1425 81,1382 38,1320 57,1205 186,1067 315,942 363,851 392,794 444,746 444,612 401,550 353,493 286,493 191,454 138,335 91,273 0,201 5,91 153,91 282,96 415,62 530,33 611,0 702,0 774,43 855,134 960,143 1089,143 1194,148 1294,182 1366,210 1495,225 1647,206 1714,167 1795,134 1891,110 1919,139 1996,239 2025,316 1953,359 1953,493 1919,584 1867,703 1805,751 1724,823 1657,890 1580,990 1471,1038 1456,1086 1313,1124 1299,1229 1246,1311 "/>
   </g>
  </g>
 </g>
</svg>
