<?xml version="1.0" encoding="UTF-8"?>
<!DOCTYPE svg PUBLIC "-//W3C//DTD SVG 1.1//EN" "http://www.w3.org/Graphics/SVG/1.1/DTD/svg11.dtd">
<!-- Creator: CorelDRAW X8 -->
<svg xmlns="http://www.w3.org/2000/svg" xml:space="preserve" width="100%" height="100%" version="1.1" shape-rendering="geometricPrecision" text-rendering="geometricPrecision" image-rendering="optimizeQuality" fill-rule="evenodd" clip-rule="evenodd"
viewBox="0 0 1483 2083"
 xmlns:xlink="http://www.w3.org/1999/xlink">
 <g id="Layer_x0020_1">
  <metadata id="CorelCorpID_0Corel-Layer"/>
  <g id="Layers">
   <g id="India_Districts_selection">
    <polygon fill="#6EA97F" points="1275,220 1300,257 1263,385 1293,531 1483,537 1476,831 1403,910 1281,983 1245,1057 1232,1283 1184,1356 1184,1490 1086,1557 1031,1692 964,1771 824,1783 757,1924 738,2046 574,2077 37,2083 43,1967 128,1930 226,1661 37,1380 31,861 0,763 43,605 98,519 153,428 177,324 238,250 445,147 604,61 696,0 696,31 946,55 1135,226 1275,238 "/>
   </g>
  </g>
 </g>
</svg>
