<?xml version="1.0" encoding="UTF-8"?>
<!DOCTYPE svg PUBLIC "-//W3C//DTD SVG 1.1//EN" "http://www.w3.org/Graphics/SVG/1.1/DTD/svg11.dtd">
<!-- Creator: CorelDRAW X8 -->
<svg xmlns="http://www.w3.org/2000/svg" xml:space="preserve" width="100%" height="100%" version="1.1" shape-rendering="geometricPrecision" text-rendering="geometricPrecision" image-rendering="optimizeQuality" fill-rule="evenodd" clip-rule="evenodd"
viewBox="0 0 2524 1932"
 xmlns:xlink="http://www.w3.org/1999/xlink">
 <g id="Layer_x0020_1">
  <metadata id="CorelCorpID_0Corel-Layer"/>
  <g id="Layers">
   <g id="India_Districts_selection">
    <polygon fill="#6EA97F" points="413,1932 323,1847 119,1847 0,1739 68,1739 175,1683 351,1604 515,1519 577,1377 656,1224 673,1099 792,952 917,878 1036,748 1183,697 1313,612 1353,527 1347,470 1358,476 1466,431 1517,340 1630,238 1647,198 1771,204 2105,23 2111,0 2320,125 2524,232 2456,436 2309,601 2020,720 2015,1337 1839,1485 1777,1587 1602,1751 1307,1756 1302,1796 1188,1864 798,1870 787,1926 623,1909 "/>
   </g>
  </g>
 </g>
</svg>
