<?xml version="1.0" encoding="UTF-8"?>
<!DOCTYPE svg PUBLIC "-//W3C//DTD SVG 1.1//EN" "http://www.w3.org/Graphics/SVG/1.1/DTD/svg11.dtd">
<!-- Creator: CorelDRAW X8 -->
<svg xmlns="http://www.w3.org/2000/svg" xml:space="preserve" width="100%" height="100%" version="1.1" shape-rendering="geometricPrecision" text-rendering="geometricPrecision" image-rendering="optimizeQuality" fill-rule="evenodd" clip-rule="evenodd"
viewBox="0 0 2448 2986"
 xmlns:xlink="http://www.w3.org/1999/xlink">
 <g id="Layer_x0020_1">
  <metadata id="CorelCorpID_0Corel-Layer"/>
  <g id="Layers">
   <g id="India_Districts_selection">
    <polygon fill="#6EA97F" points="1355,1296 1460,1401 1495,1637 1399,1821 1364,2075 1565,2110 1670,2110 1914,2128 2010,2259 2080,2513 2273,2574 2448,2776 2290,2968 2045,2986 1836,2968 1460,2916 1049,2986 996,2837 734,2513 498,1996 402,1637 306,1147 0,210 44,44 245,0 411,44 428,359 577,884 717,1278 944,1497 1180,1331 "/>
   </g>
  </g>
 </g>
</svg>
