<?xml version="1.0" encoding="UTF-8"?>
<!DOCTYPE svg PUBLIC "-//W3C//DTD SVG 1.1//EN" "http://www.w3.org/Graphics/SVG/1.1/DTD/svg11.dtd">
<!-- Creator: CorelDRAW X8 -->
<svg xmlns="http://www.w3.org/2000/svg" xml:space="preserve" width="100%" height="100%" version="1.1" shape-rendering="geometricPrecision" text-rendering="geometricPrecision" image-rendering="optimizeQuality" fill-rule="evenodd" clip-rule="evenodd"
viewBox="0 0 1613 2384"
 xmlns:xlink="http://www.w3.org/1999/xlink">
 <g id="Layer_x0020_1">
  <metadata id="CorelCorpID_0Corel-Layer"/>
  <g id="Layers">
   <g id="India_Districts_selection">
    <polygon fill="#6EA97F" points="1138,2384 1110,2377 1027,2314 929,2272 733,2202 594,2188 538,2104 293,2090 196,2048 154,2020 182,1901 210,1845 223,1622 168,1538 98,1419 0,1279 7,1160 42,1042 349,790 461,783 468,615 398,538 370,447 468,357 468,350 545,329 649,245 775,140 1054,21 1117,7 1194,0 1229,21 1306,21 1292,84 1313,119 1355,259 1515,259 1529,364 1606,545 1613,832 1494,860 1390,888 1292,916 1187,1063 1222,1174 1313,1244 1271,1440 1180,1461 1131,1559 1166,1657 1250,1748 1271,1950 1390,1971 1501,2188 1515,2251 1320,2279 1138,2370 "/>
   </g>
  </g>
 </g>
</svg>
