<?xml version="1.0" encoding="UTF-8"?>
<!DOCTYPE svg PUBLIC "-//W3C//DTD SVG 1.1//EN" "http://www.w3.org/Graphics/SVG/1.1/DTD/svg11.dtd">
<!-- Creator: CorelDRAW X8 -->
<svg xmlns="http://www.w3.org/2000/svg" xml:space="preserve" width="100%" height="100%" version="1.1" shape-rendering="geometricPrecision" text-rendering="geometricPrecision" image-rendering="optimizeQuality" fill-rule="evenodd" clip-rule="evenodd"
viewBox="0 0 1603 2534"
 xmlns:xlink="http://www.w3.org/1999/xlink">
 <g id="Layer_x0020_1">
  <metadata id="CorelCorpID_0Corel-Layer"/>
  <g id="Layers">
   <g id="India_Districts_selection">
    <polygon fill="#6EA97F" points="1588,907 1573,936 1558,988 1543,1063 1573,1167 1573,1226 1603,1249 1521,1286 1469,1330 1454,1412 1491,1442 1506,1509 1484,1605 1424,1687 1402,1687 1380,1642 1284,1642 1276,1709 1254,1724 1246,1761 1239,1828 1261,1865 1306,1895 1298,1999 1276,2044 1224,2066 1180,2103 1128,2118 1076,2111 1031,2081 979,2051 935,2096 964,2163 964,2207 853,2200 801,2178 801,2408 690,2467 601,2505 542,2534 467,2371 386,2267 341,2118 319,1925 282,1828 260,1717 312,1642 297,1583 163,1546 156,1286 67,1211 0,1115 37,1063 89,1011 178,944 252,914 297,877 312,795 326,669 341,639 371,595 326,557 297,491 326,431 349,372 349,312 326,245 275,193 260,126 282,52 275,0 371,7 408,30 467,52 467,104 482,156 467,201 467,238 475,275 512,268 586,253 660,253 712,260 749,312 868,342 972,312 1039,297 1098,305 1180,327 1180,320 1269,409 1298,461 1335,505 1298,565 1261,617 1239,661 1239,758 1284,780 1254,840 1239,862 1261,884 1306,884 1387,855 1476,840 1513,840 1588,907 "/>
   </g>
  </g>
 </g>
</svg>
