<?xml version="1.0" encoding="UTF-8"?>
<!DOCTYPE svg PUBLIC "-//W3C//DTD SVG 1.1//EN" "http://www.w3.org/Graphics/SVG/1.1/DTD/svg11.dtd">
<!-- Creator: CorelDRAW X8 -->
<svg xmlns="http://www.w3.org/2000/svg" xml:space="preserve" width="100%" height="100%" version="1.1" shape-rendering="geometricPrecision" text-rendering="geometricPrecision" image-rendering="optimizeQuality" fill-rule="evenodd" clip-rule="evenodd"
viewBox="0 0 3076 1481"
 xmlns:xlink="http://www.w3.org/1999/xlink">
 <g id="Layer_x0020_1">
  <metadata id="CorelCorpID_0Corel-Layer"/>
  <g id="Layers">
   <g id="India_Districts_selection">
    <polygon fill="#6EA97F" points="3076,260 3043,331 2934,487 2840,610 2708,700 2670,762 2641,880 2523,766 2358,733 2263,913 2216,1391 2027,1481 1573,1362 1290,1339 1040,1121 973,624 903,374 709,293 421,274 317,383 392,539 586,672 605,785 581,927 402,856 269,804 170,856 118,738 24,620 0,516 28,478 76,24 454,0 666,57 865,57 884,128 1281,151 1309,189 1583,222 1692,156 1762,132 1876,166 2089,166 2211,364 2736,374 3071,260 "/>
   </g>
  </g>
 </g>
</svg>
