<?xml version="1.0" encoding="UTF-8"?>
<!DOCTYPE svg PUBLIC "-//W3C//DTD SVG 1.1//EN" "http://www.w3.org/Graphics/SVG/1.1/DTD/svg11.dtd">
<!-- Creator: CorelDRAW X8 -->
<svg xmlns="http://www.w3.org/2000/svg" xml:space="preserve" width="100%" height="100%" version="1.1" shape-rendering="geometricPrecision" text-rendering="geometricPrecision" image-rendering="optimizeQuality" fill-rule="evenodd" clip-rule="evenodd"
viewBox="0 0 2190 1481"
 xmlns:xlink="http://www.w3.org/1999/xlink">
 <g id="Layer_x0020_1">
  <metadata id="CorelCorpID_0Corel-Layer"/>
  <g id="Layers">
   <g id="India_Districts_selection">
    <polygon fill="#6EA97F" points="1266,187 1262,243 1219,330 1236,439 1353,538 1631,521 1774,530 1835,551 1908,577 2069,586 2099,617 2143,647 2190,660 2156,677 2125,738 2108,903 2112,938 1978,942 1861,1064 1748,1072 1665,1025 1566,1085 1388,1129 1362,1211 1271,1376 1253,1481 789,1476 776,1428 507,1437 507,1190 581,1142 590,964 412,973 295,1029 291,1164 173,1198 126,1129 13,1120 0,1120 9,1072 0,1046 35,968 35,873 91,838 108,764 173,729 217,686 386,682 451,630 564,621 607,604 638,547 633,412 603,386 625,321 763,243 841,213 854,82 893,22 911,0 963,48 1097,52 1175,91 1210,178 "/>
   </g>
  </g>
 </g>
</svg>
