<?xml version="1.0" encoding="UTF-8"?>
<!DOCTYPE svg PUBLIC "-//W3C//DTD SVG 1.1//EN" "http://www.w3.org/Graphics/SVG/1.1/DTD/svg11.dtd">
<!-- Creator: CorelDRAW X8 -->
<svg xmlns="http://www.w3.org/2000/svg" xml:space="preserve" width="100%" height="100%" version="1.1" shape-rendering="geometricPrecision" text-rendering="geometricPrecision" image-rendering="optimizeQuality" fill-rule="evenodd" clip-rule="evenodd"
viewBox="0 0 1628 2685"
 xmlns:xlink="http://www.w3.org/1999/xlink">
 <g id="Layer_x0020_1">
  <metadata id="CorelCorpID_0Corel-Layer"/>
  <g id="Layers">
   <g id="India_Districts_selection">
    <polygon fill="#6EA97F" points="456,2519 464,2244 409,2094 417,1890 236,1827 220,1756 149,1764 94,1716 87,1299 8,1260 0,1181 39,1150 55,756 94,732 189,701 220,520 236,402 606,402 669,339 700,283 779,260 810,173 928,181 1078,8 1447,0 1534,8 1581,110 1628,110 1526,126 1400,165 1361,228 1345,268 1306,276 1243,346 1243,402 1164,472 1070,535 1078,1126 1172,1252 1266,1315 1243,1401 1219,1512 1180,1583 1140,1669 1078,1772 1085,1882 1015,1913 1046,2244 1085,2394 1125,2519 1196,2677 1093,2685 912,2645 771,2519 "/>
   </g>
  </g>
 </g>
</svg>
