<?xml version="1.0" encoding="UTF-8"?>
<!DOCTYPE svg PUBLIC "-//W3C//DTD SVG 1.1//EN" "http://www.w3.org/Graphics/SVG/1.1/DTD/svg11.dtd">
<!-- Creator: CorelDRAW X8 -->
<svg xmlns="http://www.w3.org/2000/svg" xml:space="preserve" width="100%" height="100%" version="1.1" shape-rendering="geometricPrecision" text-rendering="geometricPrecision" image-rendering="optimizeQuality" fill-rule="evenodd" clip-rule="evenodd"
viewBox="0 0 1806 1631"
 xmlns:xlink="http://www.w3.org/1999/xlink">
 <g id="Layer_x0020_1">
  <metadata id="CorelCorpID_0Corel-Layer"/>
  <g id="Layers">
   <g id="India_Districts_selection">
    <polygon fill="#6EA97F" points="1357,799 1276,823 1276,875 1151,875 1128,918 1123,1124 1099,1167 1080,1296 1065,1397 1003,1464 989,1545 831,1631 760,1626 702,1545 597,1421 530,1339 468,1339 449,1287 392,1248 287,1186 167,1129 105,1057 0,966 5,823 14,698 186,674 731,541 846,402 827,349 879,349 989,311 1080,316 1166,335 1228,325 1295,258 1352,191 1428,120 1553,57 1648,29 1720,0 1720,24 1749,62 1777,96 1806,153 1768,215 1710,268 1643,354 1567,430 1428,497 1357,569 1304,670 1309,765 "/>
   </g>
  </g>
 </g>
</svg>
