<?xml version="1.0" encoding="UTF-8"?>
<!DOCTYPE svg PUBLIC "-//W3C//DTD SVG 1.1//EN" "http://www.w3.org/Graphics/SVG/1.1/DTD/svg11.dtd">
<!-- Creator: CorelDRAW X8 -->
<svg xmlns="http://www.w3.org/2000/svg" xml:space="preserve" width="100%" height="100%" version="1.1" shape-rendering="geometricPrecision" text-rendering="geometricPrecision" image-rendering="optimizeQuality" fill-rule="evenodd" clip-rule="evenodd"
viewBox="0 0 1968 1932"
 xmlns:xlink="http://www.w3.org/1999/xlink">
 <g id="Layer_x0020_1">
  <metadata id="CorelCorpID_0Corel-Layer"/>
  <g id="Layers">
   <g id="India_Districts_selection">
    <polygon fill="#6EA97F" points="1968,997 1957,1105 1912,1224 1901,1309 1844,1343 1855,1445 1816,1485 1821,1728 1759,1790 1714,1824 1640,1875 1567,1887 1533,1909 1488,1932 1324,1870 1267,1830 1239,1824 1261,1807 933,1609 939,1422 792,1405 594,1275 509,1094 407,1037 368,839 390,793 351,601 266,578 119,555 57,431 0,249 345,0 583,85 815,204 1329,334 1572,419 1629,561 1663,844 1844,958 "/>
   </g>
  </g>
 </g>
</svg>
