<?xml version="1.0" encoding="UTF-8"?>
<!DOCTYPE svg PUBLIC "-//W3C//DTD SVG 1.1//EN" "http://www.w3.org/Graphics/SVG/1.1/DTD/svg11.dtd">
<!-- Creator: CorelDRAW X8 -->
<svg xmlns="http://www.w3.org/2000/svg" xml:space="preserve" width="100%" height="100%" version="1.1" shape-rendering="geometricPrecision" text-rendering="geometricPrecision" image-rendering="optimizeQuality" fill-rule="evenodd" clip-rule="evenodd"
viewBox="0 0 2191 1782"
 xmlns:xlink="http://www.w3.org/1999/xlink">
 <g id="Layer_x0020_1">
  <metadata id="CorelCorpID_0Corel-Layer"/>
  <g id="Layers">
   <g id="India_Districts_selection">
    <polygon fill="#6EA97F" points="981,1693 855,1693 715,1609 558,1635 303,1620 261,1750 130,1782 0,1641 162,1562 422,1332 756,1024 954,930 1080,773 1220,737 1346,575 1434,496 1528,387 1643,282 1805,178 1945,136 2060,63 2191,0 2159,679 2123,935 2097,1102 1815,1254 1393,1405 1220,1458 1007,1635 "/>
   </g>
  </g>
 </g>
</svg>
