<?xml version="1.0" encoding="UTF-8"?>
<!DOCTYPE svg PUBLIC "-//W3C//DTD SVG 1.1//EN" "http://www.w3.org/Graphics/SVG/1.1/DTD/svg11.dtd">
<!-- Creator: CorelDRAW X8 -->
<svg xmlns="http://www.w3.org/2000/svg" xml:space="preserve" width="100%" height="100%" version="1.1" shape-rendering="geometricPrecision" text-rendering="geometricPrecision" image-rendering="optimizeQuality" fill-rule="evenodd" clip-rule="evenodd"
viewBox="0 0 2571 2233"
 xmlns:xlink="http://www.w3.org/1999/xlink">
 <g id="Layer_x0020_1">
  <metadata id="CorelCorpID_0Corel-Layer"/>
  <g id="Layers">
   <g id="India_Districts_selection">
    <polygon fill="#6EA97F" points="1609,2233 1583,2214 1426,2174 1335,2102 1433,1794 1524,1703 1531,1637 1269,1572 1047,1546 968,1605 837,1605 491,1323 393,1244 209,1231 0,1048 7,923 46,923 46,589 216,589 451,517 530,413 523,321 589,282 687,465 765,589 916,622 1014,629 1027,668 1230,616 1269,504 1230,432 1263,210 1452,144 1904,105 2133,105 2336,0 2362,46 2512,98 2551,92 2571,177 2525,288 2460,380 2440,465 2336,557 2270,668 2218,668 2152,792 2146,864 2120,989 2067,1153 2054,1271 2054,1441 2008,1539 1976,1598 1995,1703 1878,1886 1694,2089 "/>
   </g>
  </g>
 </g>
</svg>
