<?xml version="1.0" encoding="UTF-8"?>
<!DOCTYPE svg PUBLIC "-//W3C//DTD SVG 1.1//EN" "http://www.w3.org/Graphics/SVG/1.1/DTD/svg11.dtd">
<!-- Creator: CorelDRAW X8 -->
<svg xmlns="http://www.w3.org/2000/svg" xml:space="preserve" width="100%" height="100%" version="1.1" shape-rendering="geometricPrecision" text-rendering="geometricPrecision" image-rendering="optimizeQuality" fill-rule="evenodd" clip-rule="evenodd"
viewBox="0 0 2131 1175"
 xmlns:xlink="http://www.w3.org/1999/xlink">
 <g id="Layer_x0020_1">
  <metadata id="CorelCorpID_0Corel-Layer"/>
  <g id="Layers">
   <g id="India_Districts_selection">
    <polygon fill="#6EA97F" points="1491,303 1563,365 1666,431 1787,507 2052,617 2131,710 2045,806 1955,837 1780,824 1694,958 1522,1165 1318,1175 1277,1079 1119,975 926,951 654,855 551,827 465,861 341,893 327,806 303,675 241,620 107,589 0,579 3,458 10,327 100,241 176,90 203,0 251,10 337,24 420,59 527,124 633,186 823,193 964,217 1177,221 1256,221 1294,265 1391,289 1446,317 1491,310 "/>
   </g>
  </g>
 </g>
</svg>
