<?xml version="1.0" encoding="UTF-8"?>
<!DOCTYPE svg PUBLIC "-//W3C//DTD SVG 1.1//EN" "http://www.w3.org/Graphics/SVG/1.1/DTD/svg11.dtd">
<!-- Creator: CorelDRAW X8 -->
<svg xmlns="http://www.w3.org/2000/svg" xml:space="preserve" width="100%" height="100%" version="1.1" shape-rendering="geometricPrecision" text-rendering="geometricPrecision" image-rendering="optimizeQuality" fill-rule="evenodd" clip-rule="evenodd"
viewBox="0 0 3125 2233"
 xmlns:xlink="http://www.w3.org/1999/xlink">
 <g id="Layer_x0020_1">
  <metadata id="CorelCorpID_0Corel-Layer"/>
  <g id="Layers">
   <g id="India_Districts_selection">
    <polygon fill="#6EA97F" points="2654,1781 2589,1814 2530,1925 2347,1952 2059,1952 1935,1958 1850,2011 1759,2037 1674,2043 1693,1939 1621,1886 1543,1847 1406,1873 1353,1958 1275,2030 1242,2155 1183,2233 1026,2168 922,2069 870,1860 464,1598 137,1277 118,917 0,668 33,360 85,151 190,138 549,190 752,419 870,380 1190,347 1334,196 1464,79 1680,72 1746,13 1909,0 1974,72 2138,98 2255,79 2354,183 2367,393 2497,550 2537,635 2622,675 2615,864 2909,871 2935,937 2870,989 2857,1100 2890,1179 2916,1185 2942,1297 2968,1369 3079,1428 3125,1526 3014,1644 2942,1644 2850,1598 2772,1519 2726,1546 2700,1650 2661,1722 "/>
   </g>
  </g>
 </g>
</svg>
