<?xml version="1.0" encoding="UTF-8"?>
<!DOCTYPE svg PUBLIC "-//W3C//DTD SVG 1.1//EN" "http://www.w3.org/Graphics/SVG/1.1/DTD/svg11.dtd">
<!-- Creator: CorelDRAW X8 -->
<svg xmlns="http://www.w3.org/2000/svg" xml:space="preserve" width="100%" height="100%" version="1.1" shape-rendering="geometricPrecision" text-rendering="geometricPrecision" image-rendering="optimizeQuality" fill-rule="evenodd" clip-rule="evenodd"
viewBox="0 0 2703 1782"
 xmlns:xlink="http://www.w3.org/1999/xlink">
 <g id="Layer_x0020_1">
  <metadata id="CorelCorpID_0Corel-Layer"/>
  <g id="Layers">
   <g id="India_Districts_selection">
    <polygon fill="#6EA97F" points="1842,52 1842,57 1853,136 1894,146 1884,209 1993,355 1988,408 2014,434 2035,517 2061,580 2056,648 2108,664 2129,705 2395,705 2416,679 2568,690 2562,705 2552,909 2625,1024 2677,1087 2703,1212 2588,1212 2583,1311 2552,1306 2494,1280 2359,1196 2281,1040 2114,1045 2103,1092 2046,1160 1962,1170 1894,1092 1738,1076 1727,1045 1555,1034 1503,1092 1477,1097 1440,1045 1367,1045 1310,1087 1216,1290 1065,1374 892,1546 804,1609 705,1620 647,1562 532,1562 501,1583 517,1745 412,1782 209,1630 99,1515 31,1546 0,1473 89,1379 277,1374 287,1348 360,1348 475,1395 605,1390 631,1348 694,1270 647,1076 731,998 731,925 647,878 616,784 705,627 898,590 924,491 976,496 971,470 1117,475 1117,455 1159,444 1159,272 1305,287 1367,256 1399,256 1446,225 1440,89 1472,73 1466,21 1628,21 1633,5 1800,0 1821,47 "/>
   </g>
  </g>
 </g>
</svg>
