<?xml version="1.0" encoding="UTF-8"?>
<!DOCTYPE svg PUBLIC "-//W3C//DTD SVG 1.1//EN" "http://www.w3.org/Graphics/SVG/1.1/DTD/svg11.dtd">
<!-- Creator: CorelDRAW X8 -->
<svg xmlns="http://www.w3.org/2000/svg" xml:space="preserve" width="100%" height="100%" version="1.1" shape-rendering="geometricPrecision" text-rendering="geometricPrecision" image-rendering="optimizeQuality" fill-rule="evenodd" clip-rule="evenodd"
viewBox="0 0 2330 2083"
 xmlns:xlink="http://www.w3.org/1999/xlink">
 <g id="Layer_x0020_1">
  <metadata id="CorelCorpID_0Corel-Layer"/>
  <g id="Layers">
   <g id="India_Districts_selection">
    <polygon fill="#6EA97F" points="2263,849 2330,879 2318,1014 2263,1179 2178,1319 2190,1380 2282,1435 2263,1557 2062,1564 1964,1680 1891,1692 1812,1673 1702,1588 1598,1576 1440,1643 1214,1692 976,1765 799,1838 531,1869 427,1948 98,2083 31,2064 0,2064 43,1796 201,1582 226,1447 275,1270 482,1002 769,892 946,739 1208,483 1281,165 1476,0 1489,12 1556,43 1586,49 1659,86 1696,86 1751,116 1800,159 1812,189 1873,208 1903,220 1928,287 1964,348 1970,379 2007,342 2044,336 2086,324 2092,275 2105,244 2135,214 2172,183 2227,189 2263,189 2294,238 2300,287 2300,330 2294,385 2275,446 2227,501 2196,537 2153,580 2160,702 2147,739 2190,812 2257,849 "/>
   </g>
  </g>
 </g>
</svg>
