<?xml version="1.0" encoding="UTF-8"?>
<!DOCTYPE svg PUBLIC "-//W3C//DTD SVG 1.1//EN" "http://www.w3.org/Graphics/SVG/1.1/DTD/svg11.dtd">
<!-- Creator: CorelDRAW X8 -->
<svg xmlns="http://www.w3.org/2000/svg" xml:space="preserve" width="100%" height="100%" version="1.1" shape-rendering="geometricPrecision" text-rendering="geometricPrecision" image-rendering="optimizeQuality" fill-rule="evenodd" clip-rule="evenodd"
viewBox="0 0 1222 1932"
 xmlns:xlink="http://www.w3.org/1999/xlink">
 <g id="Layer_x0020_1">
  <metadata id="CorelCorpID_0Corel-Layer"/>
  <g id="Layers">
   <g id="India_Districts_selection">
    <polygon fill="#6EA97F" points="792,1881 498,1932 458,1677 391,1587 249,1462 238,1230 96,1190 79,958 17,776 0,635 57,555 102,470 204,380 277,317 396,295 526,255 668,204 781,136 911,62 990,0 1019,74 1036,193 1047,283 1047,380 1075,459 1109,538 1126,640 1155,742 1188,844 1200,918 1222,1020 1155,1071 872,1071 787,1145 758,1298 792,1875 "/>
   </g>
  </g>
 </g>
</svg>
