<?xml version="1.0" encoding="UTF-8"?>
<!DOCTYPE svg PUBLIC "-//W3C//DTD SVG 1.1//EN" "http://www.w3.org/Graphics/SVG/1.1/DTD/svg11.dtd">
<!-- Creator: CorelDRAW X8 -->
<svg xmlns="http://www.w3.org/2000/svg" xml:space="preserve" width="100%" height="100%" version="1.1" shape-rendering="geometricPrecision" text-rendering="geometricPrecision" image-rendering="optimizeQuality" fill-rule="evenodd" clip-rule="evenodd"
viewBox="0 0 6526 6298"
 xmlns:xlink="http://www.w3.org/1999/xlink">
 <g id="Layer_x0020_1">
  <metadata id="CorelCorpID_0Corel-Layer"/>
  <g id="Layers">
   <g id="India_Districts_selection">
    <polygon fill="#6EA97F" points="5900,4211 5863,4211 5715,4451 5715,4636 5900,4839 6121,4950 6102,5208 5807,5467 5549,5744 5476,5596 5088,5337 4886,5541 4609,5559 4296,5467 3263,5374 2821,5559 2673,5818 2323,6242 1622,6187 1291,6242 848,6298 608,6187 350,6113 369,5744 221,5541 0,5559 37,4802 92,4709 147,4783 645,4580 1751,3675 1420,3195 1088,2770 1825,2235 2341,1441 2065,1330 1733,1127 2083,739 2415,148 2378,37 2636,0 2655,296 2858,665 2987,850 3448,960 3650,923 3909,1256 3724,1459 3743,1607 4296,1718 4775,1847 5070,1884 5402,2309 5605,2586 5955,2696 6434,2881 6526,3066 6471,3214 6250,3417 5807,3694 5826,4008 "/>
   </g>
  </g>
 </g>
</svg>
