<?xml version="1.0" encoding="UTF-8"?>
<!DOCTYPE svg PUBLIC "-//W3C//DTD SVG 1.1//EN" "http://www.w3.org/Graphics/SVG/1.1/DTD/svg11.dtd">
<!-- Creator: CorelDRAW X8 -->
<svg xmlns="http://www.w3.org/2000/svg" xml:space="preserve" width="100%" height="100%" version="1.1" shape-rendering="geometricPrecision" text-rendering="geometricPrecision" image-rendering="optimizeQuality" fill-rule="evenodd" clip-rule="evenodd"
viewBox="0 0 2610 2083"
 xmlns:xlink="http://www.w3.org/1999/xlink">
 <g id="Layer_x0020_1">
  <metadata id="CorelCorpID_0Corel-Layer"/>
  <g id="Layers">
   <g id="India_Districts_selection">
    <polygon fill="#6EA97F" points="2610,977 2518,1002 2488,1160 2378,1215 2274,1264 2085,1356 1921,1399 1786,1435 1567,1490 1439,1515 1280,1490 1250,1374 1158,1356 872,1356 829,1539 780,1741 695,1948 616,2040 427,2083 341,2009 201,1906 146,1716 73,1545 24,1307 0,1081 67,934 122,770 61,696 165,525 262,421 305,385 311,391 469,446 543,495 768,464 945,446 1152,415 1427,391 1671,330 1829,171 2000,86 2030,37 2030,55 2262,43 2469,0 2500,55 2439,171 2427,257 2274,385 2250,483 2299,531 2506,550 2524,733 "/>
   </g>
  </g>
 </g>
</svg>
