<?xml version="1.0" encoding="UTF-8"?>
<!DOCTYPE svg PUBLIC "-//W3C//DTD SVG 1.1//EN" "http://www.w3.org/Graphics/SVG/1.1/DTD/svg11.dtd">
<!-- Creator: CorelDRAW X8 -->
<svg xmlns="http://www.w3.org/2000/svg" xml:space="preserve" width="100%" height="100%" version="1.1" shape-rendering="geometricPrecision" text-rendering="geometricPrecision" image-rendering="optimizeQuality" fill-rule="evenodd" clip-rule="evenodd"
viewBox="0 0 2668 5696"
 xmlns:xlink="http://www.w3.org/1999/xlink">
 <g id="Layer_x0020_1">
  <metadata id="CorelCorpID_0Corel-Layer"/>
  <g id="Layers">
   <g id="India_Districts_selection">
    <polygon fill="#6EA97F" points="0,5078 150,4877 567,4460 567,2622 550,935 634,651 934,334 867,0 1334,150 1467,651 1517,1336 1434,1570 1951,2155 2201,2455 2568,2739 2668,2990 2468,3140 2284,3307 2168,3541 1967,3875 1834,4126 1701,4359 1651,4610 1634,4877 1517,5061 1351,5178 1150,5311 1034,5495 850,5679 567,5696 300,5696 150,5629 100,5478 100,5178 "/>
   </g>
  </g>
 </g>
</svg>
