<?xml version="1.0" encoding="UTF-8"?>
<!DOCTYPE svg PUBLIC "-//W3C//DTD SVG 1.1//EN" "http://www.w3.org/Graphics/SVG/1.1/DTD/svg11.dtd">
<!-- Creator: CorelDRAW X8 -->
<svg xmlns="http://www.w3.org/2000/svg" xml:space="preserve" width="100%" height="100%" version="1.1" shape-rendering="geometricPrecision" text-rendering="geometricPrecision" image-rendering="optimizeQuality" fill-rule="evenodd" clip-rule="evenodd"
viewBox="0 0 3370 2835"
 xmlns:xlink="http://www.w3.org/1999/xlink">
 <g id="Layer_x0020_1">
  <metadata id="CorelCorpID_0Corel-Layer"/>
  <g id="Layers">
   <g id="India_Districts_selection">
    <polygon fill="#6EA97F" points="3370,2062 3353,2270 3113,2486 3113,2611 3071,2819 2988,2835 2930,2777 2723,2761 2623,2661 2457,2636 2407,2794 2291,2785 2000,2627 1536,2594 1262,2569 1154,2461 1328,2203 1336,1904 1295,1887 1295,1721 1228,1680 1179,1638 971,1680 656,1646 556,1580 457,1430 340,1239 174,1231 108,1164 25,1048 0,798 50,765 216,773 299,856 448,840 581,748 838,491 1062,366 1204,67 1287,0 1394,0 1453,83 1469,75 1461,141 1461,366 1560,499 1560,624 1602,782 1702,973 1818,1222 1967,1455 2108,1572 2316,1721 2565,1813 2673,1846 2789,1954 2922,1954 2955,1921 3187,1937 3270,1879 3328,1954 "/>
   </g>
  </g>
 </g>
</svg>
