<?xml version="1.0" encoding="UTF-8"?>
<!DOCTYPE svg PUBLIC "-//W3C//DTD SVG 1.1//EN" "http://www.w3.org/Graphics/SVG/1.1/DTD/svg11.dtd">
<!-- Creator: CorelDRAW X8 -->
<svg xmlns="http://www.w3.org/2000/svg" xml:space="preserve" width="100%" height="100%" version="1.1" shape-rendering="geometricPrecision" text-rendering="geometricPrecision" image-rendering="optimizeQuality" fill-rule="evenodd" clip-rule="evenodd"
viewBox="0 0 3636 2364"
 xmlns:xlink="http://www.w3.org/1999/xlink">
 <g id="Layer_x0020_1">
  <metadata id="CorelCorpID_0Corel-Layer"/>
  <g id="Layers">
   <g id="India_Districts_selection">
    <polygon fill="#6EA97F" points="3047,2364 2957,2323 2881,2246 2715,2246 2701,2142 2542,2101 2424,2011 2306,1907 1953,1567 1787,1650 1524,1893 1267,1650 1039,1505 914,1484 706,1539 575,1609 568,1706 208,1699 152,1657 48,1498 0,1456 55,1366 104,1213 215,1102 215,652 152,548 104,451 152,381 284,374 346,326 443,215 526,159 589,62 658,0 755,118 984,111 1094,90 1198,166 1288,229 1378,208 1399,187 1461,153 1517,215 1648,215 1648,527 1981,520 2043,589 2133,645 2272,638 2341,714 2334,894 2542,915 2715,1165 2867,1179 3047,1095 3200,1276 3297,1366 3408,1595 3553,1768 3615,1810 3608,2011 3636,2011 3560,2066 3491,2184 3318,2191 3200,2288 3096,2302 "/>
   </g>
  </g>
 </g>
</svg>
