<?xml version="1.0" encoding="UTF-8"?>
<!DOCTYPE svg PUBLIC "-//W3C//DTD SVG 1.1//EN" "http://www.w3.org/Graphics/SVG/1.1/DTD/svg11.dtd">
<!-- Creator: CorelDRAW X8 -->
<svg xmlns="http://www.w3.org/2000/svg" xml:space="preserve" width="100%" height="100%" version="1.1" shape-rendering="geometricPrecision" text-rendering="geometricPrecision" image-rendering="optimizeQuality" fill-rule="evenodd" clip-rule="evenodd"
viewBox="0 0 2105 2083"
 xmlns:xlink="http://www.w3.org/1999/xlink">
 <g id="Layer_x0020_1">
  <metadata id="CorelCorpID_0Corel-Layer"/>
  <g id="Layers">
   <g id="India_Districts_selection">
    <polygon fill="#6EA97F" points="1891,1405 1434,1808 1446,1869 1458,1948 1415,2040 775,2040 732,2083 470,2070 360,2046 104,1930 73,1869 92,1777 146,1606 128,1386 110,1380 98,1338 37,1283 79,1069 128,904 43,879 24,690 0,495 18,434 79,434 214,336 378,183 598,183 738,110 866,12 952,0 1117,171 1336,476 1452,605 1678,757 2019,928 2105,1008 2074,1148 1922,1215 1782,1252 1751,1307 1812,1350 "/>
   </g>
  </g>
 </g>
</svg>
