<?xml version="1.0" encoding="UTF-8"?>
<!DOCTYPE svg PUBLIC "-//W3C//DTD SVG 1.1//EN" "http://www.w3.org/Graphics/SVG/1.1/DTD/svg11.dtd">
<!-- Creator: CorelDRAW X8 -->
<svg xmlns="http://www.w3.org/2000/svg" xml:space="preserve" width="100%" height="100%" version="1.1" shape-rendering="geometricPrecision" text-rendering="geometricPrecision" image-rendering="optimizeQuality" fill-rule="evenodd" clip-rule="evenodd"
viewBox="0 0 1336 1932"
 xmlns:xlink="http://www.w3.org/1999/xlink">
 <g id="Layer_x0020_1">
  <metadata id="CorelCorpID_0Corel-Layer"/>
  <g id="Layers">
   <g id="India_Districts_selection">
    <polygon fill="#6EA97F" points="979,125 979,312 911,346 911,408 973,482 1115,521 1138,873 1262,963 1251,1213 1336,1252 1336,1485 1245,1626 951,1932 945,1785 696,1785 623,1847 181,1847 6,1847 0,1298 34,1190 85,1003 192,867 289,669 413,589 498,482 549,357 594,221 606,102 668,40 719,0 787,0 832,51 855,91 877,125 "/>
   </g>
  </g>
 </g>
</svg>
