<?xml version="1.0" encoding="UTF-8"?>
<!DOCTYPE svg PUBLIC "-//W3C//DTD SVG 1.1//EN" "http://www.w3.org/Graphics/SVG/1.1/DTD/svg11.dtd">
<!-- Creator: CorelDRAW X8 -->
<svg xmlns="http://www.w3.org/2000/svg" xml:space="preserve" width="100%" height="100%" version="1.1" shape-rendering="geometricPrecision" text-rendering="geometricPrecision" image-rendering="optimizeQuality" fill-rule="evenodd" clip-rule="evenodd"
viewBox="0 0 2143 3588"
 xmlns:xlink="http://www.w3.org/1999/xlink">
 <g id="Layer_x0020_1">
  <metadata id="CorelCorpID_0Corel-Layer"/>
  <g id="Layers">
   <g id="India_Districts_selection">
    <polygon fill="#6EA97F" points="1418,0 1670,32 1807,11 1912,158 2101,284 2143,389 2069,579 1838,779 1733,1031 1607,1105 1481,1284 1523,1599 1618,1789 1838,2052 1943,2262 1985,2546 1975,2830 1828,3178 1786,3346 1702,3556 1639,3556 1513,3588 1323,3420 1260,3314 1050,3062 861,2799 599,2620 599,2546 473,2536 315,2525 315,2494 294,2452 273,2346 284,2231 336,2125 231,1999 53,1799 0,1726 32,1705 168,1663 504,1547 725,1420 746,1294 777,1094 798,547 756,421 903,379 1040,379 1029,295 1124,221 1260,168 1355,95 "/>
   </g>
  </g>
 </g>
</svg>
