<?xml version="1.0" encoding="UTF-8"?>
<!DOCTYPE svg PUBLIC "-//W3C//DTD SVG 1.1//EN" "http://www.w3.org/Graphics/SVG/1.1/DTD/svg11.dtd">
<!-- Creator: CorelDRAW X8 -->
<svg xmlns="http://www.w3.org/2000/svg" xml:space="preserve" width="100%" height="100%" version="1.1" shape-rendering="geometricPrecision" text-rendering="geometricPrecision" image-rendering="optimizeQuality" fill-rule="evenodd" clip-rule="evenodd"
viewBox="0 0 5196 3400"
 xmlns:xlink="http://www.w3.org/1999/xlink">
 <g id="Layer_x0020_1">
  <metadata id="CorelCorpID_0Corel-Layer"/>
  <g id="Layers">
   <g id="India_Districts_selection">
    <polygon fill="#6EA97F" points="4051,90 4181,259 4201,439 4041,848 4001,1117 3922,1236 3812,1376 3792,1625 3942,1825 4390,1755 4629,1725 4808,1805 4808,2174 4937,2293 4977,2573 5126,2632 5126,2772 5196,2922 5156,3011 5037,3061 4818,3181 4449,3310 4410,3330 4380,3241 4360,3111 4270,3051 3952,2961 3514,3061 3335,3151 3195,3211 2897,3231 2767,3141 2598,3141 2409,3011 2349,2842 2160,2832 1981,2892 1832,3071 1722,3131 1613,3251 1553,3380 1364,3400 1274,3201 1045,2942 776,2862 657,2961 538,3041 319,3051 289,3221 90,3221 90,3001 0,2772 40,2543 189,2383 438,2174 448,1934 657,1705 856,1645 1065,1665 1175,1426 1354,1326 1404,1097 1742,788 1841,538 1981,469 2429,389 2528,359 2737,160 3006,0 3235,100 "/>
   </g>
  </g>
 </g>
</svg>
