<?xml version="1.0" encoding="UTF-8"?>
<!DOCTYPE svg PUBLIC "-//W3C//DTD SVG 1.1//EN" "http://www.w3.org/Graphics/SVG/1.1/DTD/svg11.dtd">
<!-- Creator: CorelDRAW X8 -->
<svg xmlns="http://www.w3.org/2000/svg" xml:space="preserve" width="100%" height="100%" version="1.1" shape-rendering="geometricPrecision" text-rendering="geometricPrecision" image-rendering="optimizeQuality" fill-rule="evenodd" clip-rule="evenodd"
viewBox="0 0 2014 1932"
 xmlns:xlink="http://www.w3.org/1999/xlink">
 <g id="Layer_x0020_1">
  <metadata id="CorelCorpID_0Corel-Layer"/>
  <g id="Layers">
   <g id="India_Districts_selection">
    <polygon fill="#6EA97F" points="634,1932 560,1875 441,1841 328,1773 300,1711 243,1638 204,1570 164,1496 68,1422 79,1360 45,1224 0,1065 23,1065 158,1054 339,901 402,827 402,754 458,708 458,550 396,482 441,221 566,221 701,210 713,108 781,45 792,0 848,51 1097,153 1307,221 1471,204 1640,193 1787,312 1889,391 2014,482 2002,482 1946,584 1946,754 1833,867 1612,1088 1397,1292 1312,1513 1075,1615 854,1751 "/>
   </g>
  </g>
 </g>
</svg>
