<?xml version="1.0" encoding="UTF-8"?>
<!DOCTYPE svg PUBLIC "-//W3C//DTD SVG 1.1//EN" "http://www.w3.org/Graphics/SVG/1.1/DTD/svg11.dtd">
<!-- Creator: CorelDRAW X8 -->
<svg xmlns="http://www.w3.org/2000/svg" xml:space="preserve" width="100%" height="100%" version="1.1" shape-rendering="geometricPrecision" text-rendering="geometricPrecision" image-rendering="optimizeQuality" fill-rule="evenodd" clip-rule="evenodd"
viewBox="0 0 1929 2534"
 xmlns:xlink="http://www.w3.org/1999/xlink">
 <g id="Layer_x0020_1">
  <metadata id="CorelCorpID_0Corel-Layer"/>
  <g id="Layers">
   <g id="India_Districts_selection">
    <polygon fill="#6EA97F" points="1039,2534 1031,2475 979,2386 950,2296 890,2029 868,1888 786,1828 645,1806 549,1910 438,1828 341,1657 275,1598 141,1397 0,1152 45,988 200,847 349,617 571,268 579,0 786,22 1068,164 1328,178 1491,275 1692,669 1751,847 1721,1003 1840,1122 1766,1397 1818,1576 1855,1657 1929,1739 1892,1821 1877,1962 1833,2140 1818,2259 1714,2401 1565,2415 1335,2423 1172,2460 "/>
   </g>
  </g>
 </g>
</svg>
