<?xml version="1.0" encoding="UTF-8"?>
<!DOCTYPE svg PUBLIC "-//W3C//DTD SVG 1.1//EN" "http://www.w3.org/Graphics/SVG/1.1/DTD/svg11.dtd">
<!-- Creator: CorelDRAW X8 -->
<svg xmlns="http://www.w3.org/2000/svg" xml:space="preserve" width="100%" height="100%" version="1.1" shape-rendering="geometricPrecision" text-rendering="geometricPrecision" image-rendering="optimizeQuality" fill-rule="evenodd" clip-rule="evenodd"
viewBox="0 0 2728 2233"
 xmlns:xlink="http://www.w3.org/1999/xlink">
 <g id="Layer_x0020_1">
  <metadata id="CorelCorpID_0Corel-Layer"/>
  <g id="Layers">
   <g id="India_Districts_selection">
    <polygon fill="#6EA97F" points="2355,1022 2264,1081 2224,1218 2257,1336 2277,1454 2394,1559 2453,1578 2447,1650 2532,1775 2623,1834 2643,1912 2728,1945 2656,2069 2656,2102 2630,2128 2545,2083 2453,1997 2309,1958 2146,1919 2035,1886 2008,1866 1897,1873 1779,1925 1498,1925 1426,1886 1322,1939 1295,1965 1151,1978 1014,1984 864,2030 680,2168 608,2233 523,2122 445,2089 399,2043 327,2017 131,2017 0,1991 79,1840 7,1696 39,1618 137,1565 229,1460 288,1401 314,1401 366,1356 425,1349 432,1225 386,1172 412,1146 484,1094 530,1041 563,963 595,904 667,799 680,740 648,622 569,576 543,557 569,550 576,511 648,458 720,458 693,393 700,360 700,288 667,269 687,124 811,124 929,0 1086,59 1446,334 2061,714 2198,832 2355,1015 "/>
   </g>
  </g>
 </g>
</svg>
