<?xml version="1.0" encoding="UTF-8"?>
<!DOCTYPE svg PUBLIC "-//W3C//DTD SVG 1.1//EN" "http://www.w3.org/Graphics/SVG/1.1/DTD/svg11.dtd">
<!-- Creator: CorelDRAW X8 -->
<svg xmlns="http://www.w3.org/2000/svg" xml:space="preserve" width="100%" height="100%" version="1.1" shape-rendering="geometricPrecision" text-rendering="geometricPrecision" image-rendering="optimizeQuality" fill-rule="evenodd" clip-rule="evenodd"
viewBox="0 0 2475 1631"
 xmlns:xlink="http://www.w3.org/1999/xlink">
 <g id="Layer_x0020_1">
  <metadata id="CorelCorpID_0Corel-Layer"/>
  <g id="Layers">
   <g id="India_Districts_selection">
    <polygon fill="#6EA97F" points="1051,10 1051,43 1061,105 1180,100 1199,143 1596,148 1615,187 1806,206 1811,282 1849,292 1887,392 2011,373 1992,459 2231,483 2336,478 2355,454 2475,445 2446,474 2088,603 1830,751 1643,1004 1467,1287 1204,1445 1118,1626 1018,1631 1022,1569 994,1502 970,1454 927,1421 870,1401 865,1277 807,1224 803,1181 569,1148 583,971 564,851 497,837 459,813 392,799 377,761 449,703 487,660 497,588 420,521 382,521 392,387 354,387 325,330 301,320 296,287 158,273 153,239 105,225 105,187 57,196 0,139 19,5 440,10 430,57 1003,62 1003,0 "/>
   </g>
  </g>
 </g>
</svg>
