<?xml version="1.0" encoding="UTF-8"?>
<!DOCTYPE svg PUBLIC "-//W3C//DTD SVG 1.1//EN" "http://www.w3.org/Graphics/SVG/1.1/DTD/svg11.dtd">
<!-- Creator: CorelDRAW X8 -->
<svg xmlns="http://www.w3.org/2000/svg" xml:space="preserve" width="100%" height="100%" version="1.1" shape-rendering="geometricPrecision" text-rendering="geometricPrecision" image-rendering="optimizeQuality" fill-rule="evenodd" clip-rule="evenodd"
viewBox="0 0 3390 1536"
 xmlns:xlink="http://www.w3.org/1999/xlink">
 <g id="Layer_x0020_1">
  <metadata id="CorelCorpID_0Corel-Layer"/>
  <g id="Layers">
   <g id="India_Districts_selection">
    <polygon fill="#6EA97F" points="1653,1536 1638,1489 1591,1484 1570,1453 1570,1401 1565,1302 1549,1250 1518,1245 1482,1224 1445,1193 1414,1140 1357,1109 1300,1104 1242,1099 1211,1078 1185,1042 1123,1015 1097,1005 1050,979 993,953 951,943 910,922 853,922 795,922 749,896 712,917 676,948 634,948 582,948 551,922 520,870 509,833 478,797 447,781 416,766 395,739 380,703 364,682 322,641 312,604 291,599 270,557 224,531 166,510 151,495 88,474 36,474 31,458 0,417 21,406 36,370 57,370 99,365 140,375 166,365 255,365 260,396 281,422 317,437 354,469 400,495 483,505 499,531 515,588 567,604 645,599 723,599 806,568 863,510 873,479 879,427 931,417 936,380 962,312 1003,276 1035,208 1045,177 1055,151 1107,151 1149,151 1175,182 1222,203 1289,203 1419,203 1502,203 1549,172 1596,172 1596,208 1622,229 1669,245 1710,208 1710,172 1747,141 1825,135 1944,135 2012,109 2022,94 2053,78 2100,26 2121,0 2131,31 2152,47 2199,89 2194,120 2209,141 2267,151 2287,151 2287,208 2287,266 2287,297 2256,328 2225,359 2209,422 2183,448 2111,479 2048,495 2007,526 1981,562 2012,635 2079,656 2121,656 2163,604 2194,588 2241,573 2339,573 2402,562 2412,536 2423,500 2454,495 2464,510 2589,516 2599,500 2620,557 2641,583 2667,594 2667,667 2693,698 2745,698 2792,677 2802,656 2807,630 2838,609 2870,620 2885,646 2937,646 2958,620 2974,583 2994,552 3010,521 3036,526 3067,542 3150,542 3187,526 3239,516 3275,500 3312,490 3338,526 3332,588 3343,677 3353,812 3364,974 3390,1015 3379,1109 3322,1135 3286,1104 3244,1068 3161,1120 3078,1109 3067,1068 2812,1083 2781,1120 2677,1172 2547,1219 2475,1198 2438,1120 2397,1125 2381,1151 2319,1146 2313,1120 2173,1125 2116,1187 2079,1297 1949,1302 1929,1323 1830,1323 1736,1432 "/>
   </g>
  </g>
 </g>
</svg>
