<?xml version="1.0" encoding="UTF-8"?>
<!DOCTYPE svg PUBLIC "-//W3C//DTD SVG 1.1//EN" "http://www.w3.org/Graphics/SVG/1.1/DTD/svg11.dtd">
<!-- Creator: CorelDRAW X8 -->
<svg xmlns="http://www.w3.org/2000/svg" xml:space="preserve" width="100%" height="100%" version="1.1" shape-rendering="geometricPrecision" text-rendering="geometricPrecision" image-rendering="optimizeQuality" fill-rule="evenodd" clip-rule="evenodd"
viewBox="0 0 2121 1029"
 xmlns:xlink="http://www.w3.org/1999/xlink">
 <g id="Layer_x0020_1">
  <metadata id="CorelCorpID_0Corel-Layer"/>
  <g id="Layers">
   <g id="India_Districts_selection">
    <polygon fill="#6EA97F" points="2121,111 2121,144 2098,196 2020,248 1928,278 1856,359 1778,405 1710,496 1697,568 1648,663 1608,751 1507,804 1400,853 1334,885 1240,888 1237,924 1129,924 1106,960 760,951 760,1000 610,996 581,1029 440,1029 450,970 284,905 85,908 0,869 144,601 512,69 499,20 790,3 1253,0 1360,49 1380,72 1592,78 1602,105 1762,111 1778,144 1869,131 1876,7 1928,13 2033,72 2072,78 "/>
   </g>
  </g>
 </g>
</svg>
