<?xml version="1.0" encoding="UTF-8"?>
<!DOCTYPE svg PUBLIC "-//W3C//DTD SVG 1.1//EN" "http://www.w3.org/Graphics/SVG/1.1/DTD/svg11.dtd">
<!-- Creator: CorelDRAW X8 -->
<svg xmlns="http://www.w3.org/2000/svg" xml:space="preserve" width="100%" height="100%" version="1.1" shape-rendering="geometricPrecision" text-rendering="geometricPrecision" image-rendering="optimizeQuality" fill-rule="evenodd" clip-rule="evenodd"
viewBox="0 0 1942 2835"
 xmlns:xlink="http://www.w3.org/1999/xlink">
 <g id="Layer_x0020_1">
  <metadata id="CorelCorpID_0Corel-Layer"/>
  <g id="Layers">
   <g id="India_Districts_selection">
    <polygon fill="#6EA97F" points="340,2835 349,2652 266,2544 158,2494 141,2395 232,2336 291,2278 282,2079 241,2062 158,2062 50,2045 33,1962 66,1896 125,1879 183,1788 166,1738 116,1729 116,1646 158,1621 232,1588 307,1480 374,1405 365,1231 291,1222 282,1189 224,1156 141,1123 58,1089 66,915 50,915 42,848 0,840 0,748 33,707 91,723 116,665 141,615 183,582 224,499 166,432 133,358 174,283 166,225 199,225 199,141 232,116 382,125 448,83 506,33 556,0 631,8 639,33 664,42 656,100 639,125 631,274 656,291 664,432 689,491 805,549 805,582 938,607 988,640 979,690 1038,773 1079,773 1087,798 1145,807 1179,831 1336,831 1336,856 1710,865 1726,831 1793,831 1801,989 1901,1039 1942,1056 1917,1339 1909,1796 1768,1979 1594,2162 1469,2270 1527,2361 1428,2436 1170,2503 "/>
   </g>
  </g>
 </g>
</svg>
