<?xml version="1.0" encoding="UTF-8"?>
<!DOCTYPE svg PUBLIC "-//W3C//DTD SVG 1.1//EN" "http://www.w3.org/Graphics/SVG/1.1/DTD/svg11.dtd">
<!-- Creator: CorelDRAW X8 -->
<svg xmlns="http://www.w3.org/2000/svg" xml:space="preserve" width="100%" height="100%" version="1.1" shape-rendering="geometricPrecision" text-rendering="geometricPrecision" image-rendering="optimizeQuality" fill-rule="evenodd" clip-rule="evenodd"
viewBox="0 0 1888 2986"
 xmlns:xlink="http://www.w3.org/1999/xlink">
 <g id="Layer_x0020_1">
  <metadata id="CorelCorpID_0Corel-Layer"/>
  <g id="Layers">
   <g id="India_Districts_selection">
    <polygon fill="#6EA97F" points="1136,193 1180,280 1171,412 1180,569 1311,744 1503,858 1530,1384 1731,1567 1713,1743 1652,2189 1766,2277 1871,2417 1888,2574 1774,2767 1652,2758 1460,2811 1250,2986 1215,2933 1215,2723 1110,2723 1110,2671 1014,2636 848,2636 839,2557 717,2461 621,2426 524,2434 472,2504 420,2504 358,2426 367,2338 306,2329 315,2355 236,2373 201,2434 149,2417 17,2303 0,2233 79,2102 140,2110 192,2031 227,1953 175,1909 140,1900 122,1646 105,1646 140,1567 201,1515 306,1515 411,1497 437,1436 411,1401 411,1348 385,1348 385,1243 411,1217 437,1191 437,1086 568,1077 594,1060 551,998 629,858 437,858 437,806 428,788 516,753 516,648 481,639 481,613 402,534 411,377 376,377 385,298 428,298 437,271 524,193 568,184 577,158 603,131 795,131 795,105 865,88 918,44 953,53 953,26 979,0 1005,35 1084,96 1110,140 1110,184 "/>
   </g>
  </g>
 </g>
</svg>
