<?xml version="1.0" encoding="UTF-8"?>
<!DOCTYPE svg PUBLIC "-//W3C//DTD SVG 1.1//EN" "http://www.w3.org/Graphics/SVG/1.1/DTD/svg11.dtd">
<!-- Creator: CorelDRAW X8 -->
<svg xmlns="http://www.w3.org/2000/svg" xml:space="preserve" width="100%" height="100%" version="1.1" shape-rendering="geometricPrecision" text-rendering="geometricPrecision" image-rendering="optimizeQuality" fill-rule="evenodd" clip-rule="evenodd"
viewBox="0 0 2811 2233"
 xmlns:xlink="http://www.w3.org/1999/xlink">
 <g id="Layer_x0020_1">
  <metadata id="CorelCorpID_0Corel-Layer"/>
  <g id="Layers">
   <g id="India_Districts_selection">
    <polygon fill="#6EA97F" points="2811,2004 2687,2017 2458,1997 2334,1965 2144,1866 1987,1840 1785,1827 1419,1978 1314,2076 1223,2128 1085,2174 961,2233 843,2174 667,2122 660,2017 346,1991 0,2109 216,1893 235,1788 307,1578 281,1401 340,1316 595,1271 575,1041 863,838 974,753 1000,570 1641,472 1961,72 2255,0 2347,282 2537,642 2543,642 2543,648 2491,864 2576,1035 2635,1185 2707,1303 2779,1552 2792,1735 2798,1939 "/>
   </g>
  </g>
 </g>
</svg>
