<?xml version="1.0" encoding="UTF-8"?>
<!DOCTYPE svg PUBLIC "-//W3C//DTD SVG 1.1//EN" "http://www.w3.org/Graphics/SVG/1.1/DTD/svg11.dtd">
<!-- Creator: CorelDRAW X8 -->
<svg xmlns="http://www.w3.org/2000/svg" xml:space="preserve" width="100%" height="100%" version="1.1" shape-rendering="geometricPrecision" text-rendering="geometricPrecision" image-rendering="optimizeQuality" fill-rule="evenodd" clip-rule="evenodd"
viewBox="0 0 1855 2534"
 xmlns:xlink="http://www.w3.org/1999/xlink">
 <g id="Layer_x0020_1">
  <metadata id="CorelCorpID_0Corel-Layer"/>
  <g id="Layers">
   <g id="India_Districts_selection">
    <polygon fill="#6EA97F" points="1202,2534 1194,2534 1120,2527 1068,2527 1061,2482 1016,2475 950,2453 905,2453 831,2415 801,2408 727,2393 660,2401 631,2438 594,2460 542,2460 512,2438 497,2363 490,2319 460,2296 401,2289 334,2259 326,2230 275,2215 267,2237 237,2274 185,2282 134,2304 74,2304 59,2296 74,2289 89,2252 104,2222 111,2192 126,2111 163,2051 134,2007 96,2007 52,1977 0,1895 7,1813 22,1791 67,1739 82,1687 96,1650 111,1650 134,1605 134,1561 163,1524 156,1464 185,1367 208,1323 208,1278 200,1189 171,1159 141,1115 126,1055 134,1011 171,951 185,907 200,877 230,818 252,788 275,765 289,713 312,654 349,580 401,528 408,476 408,409 438,379 460,342 504,327 556,327 623,305 631,245 631,126 631,104 645,97 660,74 697,37 720,0 786,7 831,0 831,15 846,67 853,134 831,178 794,216 794,290 772,342 727,409 727,446 734,468 764,587 809,617 861,617 913,617 942,602 994,595 1061,609 1076,632 1113,639 1128,684 1135,721 1105,721 1054,780 1016,780 1009,884 1009,936 972,951 920,988 861,1018 831,1078 809,1115 831,1219 868,1256 898,1323 935,1382 972,1434 1054,1442 1120,1464 1217,1464 1291,1464 1343,1434 1387,1434 1424,1434 1491,1397 1521,1375 1625,1405 1662,1405 1729,1434 1773,1464 1795,1472 1847,1509 1855,1509 1840,1524 1803,1553 1795,1598 1788,1642 1773,1665 1766,1709 1743,1761 1729,1784 1699,1821 1699,1865 1662,1910 1632,1955 1595,1984 1565,2059 1506,2103 1491,2163 1499,2207 1484,2252 1432,2289 1365,2326 1298,2341 1261,2386 1254,2438 1209,2497 "/>
   </g>
  </g>
 </g>
</svg>
