<?xml version="1.0" encoding="UTF-8"?>
<!DOCTYPE svg PUBLIC "-//W3C//DTD SVG 1.1//EN" "http://www.w3.org/Graphics/SVG/1.1/DTD/svg11.dtd">
<!-- Creator: CorelDRAW X8 -->
<svg xmlns="http://www.w3.org/2000/svg" xml:space="preserve" width="100%" height="100%" version="1.1" shape-rendering="geometricPrecision" text-rendering="geometricPrecision" image-rendering="optimizeQuality" fill-rule="evenodd" clip-rule="evenodd"
viewBox="0 0 2131 1315"
 xmlns:xlink="http://www.w3.org/1999/xlink">
 <g id="Layer_x0020_1">
  <metadata id="CorelCorpID_0Corel-Layer"/>
  <g id="Layers">
   <g id="India_Districts_selection">
    <polygon fill="#6EA97F" points="2042,1215 1927,1207 1923,1277 1846,1315 1846,1281 1765,1261 1722,1296 1680,1292 1676,1254 1607,1257 1545,1203 1487,1196 1441,1296 1356,1308 1356,1192 1379,1169 1376,1095 1221,1088 1152,995 1025,1003 1021,1030 898,1014 859,995 740,1034 640,1080 428,1076 408,1049 258,1038 170,1022 89,987 31,976 0,926 58,872 89,822 123,737 116,656 100,579 89,571 116,555 181,540 208,482 239,409 370,409 389,316 451,293 509,282 512,204 482,181 497,46 551,42 566,73 613,81 620,46 678,31 682,46 786,46 794,0 894,0 971,135 975,305 1056,309 1198,459 1218,513 1318,563 1406,586 1449,621 1457,702 1499,756 1630,768 1695,737 1722,694 1769,694 1792,748 1846,741 1850,694 2000,687 1996,756 2119,825 2123,918 2096,945 2096,1026 2119,1022 2131,1018 2119,1041 2119,1142 "/>
   </g>
  </g>
 </g>
</svg>
