<?xml version="1.0" encoding="UTF-8"?>
<!DOCTYPE svg PUBLIC "-//W3C//DTD SVG 1.1//EN" "http://www.w3.org/Graphics/SVG/1.1/DTD/svg11.dtd">
<!-- Creator: CorelDRAW X8 -->
<svg xmlns="http://www.w3.org/2000/svg" xml:space="preserve" width="100%" height="100%" version="1.1" shape-rendering="geometricPrecision" text-rendering="geometricPrecision" image-rendering="optimizeQuality" fill-rule="evenodd" clip-rule="evenodd"
viewBox="0 0 2756 2083"
 xmlns:xlink="http://www.w3.org/1999/xlink">
 <g id="Layer_x0020_1">
  <metadata id="CorelCorpID_0Corel-Layer"/>
  <g id="Layers">
   <g id="India_Districts_selection">
    <polygon fill="#6EA97F" points="2756,2083 1933,2070 1482,1979 1475,1747 616,1710 201,1625 0,1435 12,1374 555,1386 567,1325 927,1313 1073,1081 1110,996 762,733 1018,586 1171,592 1305,232 1494,37 1591,0 1597,269 1597,531 1652,611 1652,825 1518,983 1530,1222 1628,1276 1866,1270 1921,1173 2116,1215 2335,1374 2439,1393 2445,1484 2756,2034 "/>
   </g>
  </g>
 </g>
</svg>
