<?xml version="1.0" encoding="UTF-8"?>
<!DOCTYPE svg PUBLIC "-//W3C//DTD SVG 1.1//EN" "http://www.w3.org/Graphics/SVG/1.1/DTD/svg11.dtd">
<!-- Creator: CorelDRAW X8 -->
<svg xmlns="http://www.w3.org/2000/svg" xml:space="preserve" width="100%" height="100%" version="1.1" shape-rendering="geometricPrecision" text-rendering="geometricPrecision" image-rendering="optimizeQuality" fill-rule="evenodd" clip-rule="evenodd"
viewBox="0 0 2375 1631"
 xmlns:xlink="http://www.w3.org/1999/xlink">
 <g id="Layer_x0020_1">
  <metadata id="CorelCorpID_0Corel-Layer"/>
  <g id="Layers">
   <g id="India_Districts_selection">
    <polygon fill="#6EA97F" points="2131,134 2131,139 2174,163 2313,187 2375,249 2356,507 2274,641 2265,808 2289,928 2327,1062 2332,1172 2294,1148 2122,1028 2093,985 2040,1000 2040,1033 1949,1038 1940,1052 1840,1062 1706,1081 1510,1071 1395,1186 1195,1177 1175,1143 1123,1114 1075,1172 1056,1253 1046,1363 1023,1435 1037,1488 994,1516 736,1559 688,1621 454,1631 411,1526 339,1354 210,1277 29,1114 0,1114 14,1024 57,971 129,923 210,890 306,780 392,713 492,588 502,421 444,316 373,225 363,72 377,53 459,0 492,48 554,72 946,72 1018,43 1190,53 1242,91 1285,43 1462,57 1553,115 1691,172 1744,225 1806,191 2031,167 2083,143 "/>
   </g>
  </g>
 </g>
</svg>
