<?xml version="1.0" encoding="UTF-8"?>
<!DOCTYPE svg PUBLIC "-//W3C//DTD SVG 1.1//EN" "http://www.w3.org/Graphics/SVG/1.1/DTD/svg11.dtd">
<!-- Creator: CorelDRAW X8 -->
<svg xmlns="http://www.w3.org/2000/svg" xml:space="preserve" width="100%" height="100%" version="1.1" shape-rendering="geometricPrecision" text-rendering="geometricPrecision" image-rendering="optimizeQuality" fill-rule="evenodd" clip-rule="evenodd"
viewBox="0 0 1284 1029"
 xmlns:xlink="http://www.w3.org/1999/xlink">
 <g id="Layer_x0020_1">
  <metadata id="CorelCorpID_0Corel-Layer"/>
  <g id="Layers">
   <g id="India_Districts_selection">
    <polygon fill="#6EA97F" points="1281,431 1284,447 1266,492 1248,522 1224,540 1230,606 1206,619 1187,649 1199,691 1148,730 1154,757 1115,785 1082,806 901,806 862,830 811,836 784,857 729,860 699,872 642,963 555,960 558,1011 494,1029 404,1020 395,990 356,975 322,929 335,899 374,896 404,869 401,839 356,803 250,806 238,821 175,821 133,794 124,742 81,685 48,658 45,634 21,628 15,610 39,585 3,525 0,507 12,501 48,480 81,441 124,368 93,341 60,296 121,299 139,272 93,202 118,181 139,163 124,124 145,97 235,42 316,18 325,3 359,0 374,48 398,66 398,187 464,241 470,326 536,359 546,425 558,489 609,519 672,531 778,543 790,525 874,525 898,576 943,579 964,510 946,468 998,422 1052,392 1115,356 1139,353 1175,365 1215,380 1230,441 "/>
   </g>
  </g>
 </g>
</svg>
