<?xml version="1.0" encoding="UTF-8"?>
<!DOCTYPE svg PUBLIC "-//W3C//DTD SVG 1.1//EN" "http://www.w3.org/Graphics/SVG/1.1/DTD/svg11.dtd">
<!-- Creator: CorelDRAW X8 -->
<svg xmlns="http://www.w3.org/2000/svg" xml:space="preserve" width="100%" height="100%" version="1.1" shape-rendering="geometricPrecision" text-rendering="geometricPrecision" image-rendering="optimizeQuality" fill-rule="evenodd" clip-rule="evenodd"
viewBox="0 0 1731 1932"
 xmlns:xlink="http://www.w3.org/1999/xlink">
 <g id="Layer_x0020_1">
  <metadata id="CorelCorpID_0Corel-Layer"/>
  <g id="Layers">
   <g id="India_Districts_selection">
    <polygon fill="#6EA97F" points="11,510 34,493 113,487 147,470 238,470 283,493 328,493 351,516 402,504 402,470 469,470 464,289 447,244 441,198 453,193 475,130 543,108 583,85 639,91 656,79 690,113 713,170 741,238 792,238 882,164 939,147 1035,164 1148,198 1210,125 1250,62 1363,23 1476,0 1584,125 1640,238 1697,238 1691,244 1669,329 1657,397 1589,459 1533,499 1533,544 1595,572 1657,640 1606,708 1612,748 1703,782 1703,833 1686,901 1703,1003 1731,1094 1703,1167 1691,1252 1595,1320 1561,1343 1516,1383 1527,1473 1527,1541 1522,1541 1335,1711 1210,1711 1063,1756 979,1785 962,1904 764,1932 447,1909 260,1858 141,1745 102,1655 187,1558 249,1485 339,1417 413,1343 402,1292 362,1275 272,1218 198,1207 147,1145 147,1003 68,992 28,946 6,816 0,635 17,510 "/>
   </g>
  </g>
 </g>
</svg>
