<?xml version="1.0" encoding="UTF-8"?>
<!DOCTYPE svg PUBLIC "-//W3C//DTD SVG 1.1//EN" "http://www.w3.org/Graphics/SVG/1.1/DTD/svg11.dtd">
<!-- Creator: CorelDRAW X8 -->
<svg xmlns="http://www.w3.org/2000/svg" xml:space="preserve" width="100%" height="100%" version="1.1" shape-rendering="geometricPrecision" text-rendering="geometricPrecision" image-rendering="optimizeQuality" fill-rule="evenodd" clip-rule="evenodd"
viewBox="0 0 7540 6046"
 xmlns:xlink="http://www.w3.org/1999/xlink">
 <g id="Layer_x0020_1">
  <metadata id="CorelCorpID_0Corel-Layer"/>
  <g id="Layers">
   <g id="India_Districts_selection">
    <polygon fill="#6EA97F" points="7540,5444 7523,5603 7523,5763 7417,5834 7009,5887 6939,6011 6762,5993 6567,5958 6532,5940 6408,6046 6231,5993 6054,5851 6107,5710 6036,5585 5894,5461 5806,5319 5717,5142 5664,5036 5629,4929 5682,4805 5824,4610 5877,4433 5806,4202 5700,4096 5523,4025 5328,3865 5151,3759 4868,3706 4584,3617 4443,3617 4089,3741 3876,3724 3593,3812 3558,3830 3558,3599 3540,3103 3328,3121 3168,3032 3027,2943 2726,2784 2549,2766 2319,2607 2089,2429 1912,2358 1575,2376 1363,2181 1239,1986 974,1809 743,1738 142,1738 0,1684 266,1294 602,1046 1487,762 1717,372 1788,71 2124,0 2655,266 2956,355 3841,532 4549,727 5328,1153 6036,1294 6443,1294 6372,1684 6301,2004 6301,2252 6709,2270 6886,2589 7098,2890 6974,3245 7080,3635 7098,3901 7169,4220 6992,4504 6939,4628 6939,4841 6868,5071 6886,5249 6992,5302 7293,5373 7363,5337 7487,5444 "/>
   </g>
  </g>
 </g>
</svg>
