<?xml version="1.0" encoding="UTF-8"?>
<!DOCTYPE svg PUBLIC "-//W3C//DTD SVG 1.1//EN" "http://www.w3.org/Graphics/SVG/1.1/DTD/svg11.dtd">
<!-- Creator: CorelDRAW X8 -->
<svg xmlns="http://www.w3.org/2000/svg" xml:space="preserve" width="100%" height="100%" version="1.1" shape-rendering="geometricPrecision" text-rendering="geometricPrecision" image-rendering="optimizeQuality" fill-rule="evenodd" clip-rule="evenodd"
viewBox="0 0 1936 1782"
 xmlns:xlink="http://www.w3.org/1999/xlink">
 <g id="Layer_x0020_1">
  <metadata id="CorelCorpID_0Corel-Layer"/>
  <g id="Layers">
   <g id="India_Districts_selection">
    <polygon fill="#6EA97F" points="1331,0 1456,246 1514,334 1634,559 1670,752 1587,878 1472,1040 1498,1118 1748,1202 1936,1421 1686,1520 1498,1620 1294,1698 1159,1708 981,1708 929,1761 752,1782 673,1782 647,1594 652,1374 538,1249 376,1097 292,956 240,862 172,815 172,805 162,799 157,789 157,768 157,752 146,747 136,731 120,721 104,705 89,695 73,679 57,664 42,658 31,643 26,622 10,606 0,596 0,585 10,564 16,549 21,533 21,522 21,512 21,496 31,486 63,475 78,460 110,455 130,449 151,434 167,423 177,402 183,387 183,366 172,334 146,303 125,287 110,272 99,256 99,235 110,225 125,199 136,183 141,167 141,141 151,131 162,120 256,152 381,115 517,78 856,172 1122,84 "/>
   </g>
  </g>
 </g>
</svg>
