<?xml version="1.0" encoding="UTF-8"?>
<!DOCTYPE svg PUBLIC "-//W3C//DTD SVG 1.1//EN" "http://www.w3.org/Graphics/SVG/1.1/DTD/svg11.dtd">
<!-- Creator: CorelDRAW X8 -->
<svg xmlns="http://www.w3.org/2000/svg" xml:space="preserve" width="100%" height="100%" version="1.1" shape-rendering="geometricPrecision" text-rendering="geometricPrecision" image-rendering="optimizeQuality" fill-rule="evenodd" clip-rule="evenodd"
viewBox="0 0 1808 2685"
 xmlns:xlink="http://www.w3.org/1999/xlink">
 <g id="Layer_x0020_1">
  <metadata id="CorelCorpID_0Corel-Layer"/>
  <g id="Layers">
   <g id="India_Districts_selection">
    <polygon fill="#6EA97F" points="1336,1244 1328,1268 1391,1378 1509,1449 1533,1598 1564,1677 1776,1716 1808,1724 1800,1960 1776,2039 1706,2055 1690,2094 1627,2142 1572,2165 1564,2205 1541,2212 1541,2275 1533,2275 1313,2283 1258,2315 1195,2401 1195,2496 1155,2551 1092,2582 1092,2645 1069,2677 943,2685 888,2645 865,2575 747,2441 668,2449 621,2496 542,2496 534,2480 527,2449 472,2346 456,2220 432,2181 283,2189 189,2189 157,2149 63,2118 8,2079 0,2031 55,1984 181,1913 212,1866 212,1118 181,1110 173,1071 212,1031 283,842 338,740 338,701 346,693 542,496 582,465 652,378 676,386 692,346 652,299 652,228 700,197 707,157 723,24 770,0 912,31 927,228 1014,291 1022,370 920,433 857,535 865,622 998,913 1069,937 1250,850 1462,890 1478,992 1383,1110 "/>
   </g>
  </g>
 </g>
</svg>
