<?xml version="1.0" encoding="UTF-8"?>
<!DOCTYPE svg PUBLIC "-//W3C//DTD SVG 1.1//EN" "http://www.w3.org/Graphics/SVG/1.1/DTD/svg11.dtd">
<!-- Creator: CorelDRAW X8 -->
<svg xmlns="http://www.w3.org/2000/svg" xml:space="preserve" width="100%" height="100%" version="1.1" shape-rendering="geometricPrecision" text-rendering="geometricPrecision" image-rendering="optimizeQuality" fill-rule="evenodd" clip-rule="evenodd"
viewBox="0 0 1728 1782"
 xmlns:xlink="http://www.w3.org/1999/xlink">
 <g id="Layer_x0020_1">
  <metadata id="CorelCorpID_0Corel-Layer"/>
  <g id="Layers">
   <g id="India_Districts_selection">
    <polygon fill="#6EA97F" points="266,125 287,167 324,167 344,272 371,298 407,303 465,277 558,219 585,188 600,136 611,78 647,84 715,89 783,99 793,47 840,0 929,68 997,193 997,240 1106,251 1106,308 1153,298 1200,355 1232,418 1258,533 1273,554 1362,569 1399,596 1487,606 1602,674 1602,705 1707,914 1728,1317 1660,1264 1608,1327 1613,1510 1581,1651 1519,1724 1472,1667 1404,1672 1341,1714 1232,1750 1127,1782 1159,1620 1143,1484 992,1358 960,1463 919,1526 908,1682 772,1714 741,1588 684,1604 595,1745 538,1745 465,1578 381,1573 365,1677 344,1729 287,1724 256,1510 245,1254 245,1024 271,768 271,674 204,622 89,606 84,611 57,585 0,533 5,465 26,428 31,361 63,266 130,199 193,136 "/>
   </g>
  </g>
 </g>
</svg>
