<?xml version="1.0" encoding="UTF-8"?>
<!DOCTYPE svg PUBLIC "-//W3C//DTD SVG 1.1//EN" "http://www.w3.org/Graphics/SVG/1.1/DTD/svg11.dtd">
<!-- Creator: CorelDRAW X8 -->
<svg xmlns="http://www.w3.org/2000/svg" xml:space="preserve" width="100%" height="100%" version="1.1" shape-rendering="geometricPrecision" text-rendering="geometricPrecision" image-rendering="optimizeQuality" fill-rule="evenodd" clip-rule="evenodd"
viewBox="0 0 1656 1481"
 xmlns:xlink="http://www.w3.org/1999/xlink">
 <g id="Layer_x0020_1">
  <metadata id="CorelCorpID_0Corel-Layer"/>
  <g id="Layers">
   <g id="India_Districts_selection">
    <polygon fill="#6EA97F" points="1474,495 1474,517 1508,612 1521,773 1482,790 1465,838 1482,877 1508,903 1513,903 1513,912 1569,990 1599,1020 1604,1111 1617,1146 1630,1268 1656,1268 1656,1272 1604,1281 1586,1289 1547,1359 1426,1402 1253,1407 1227,1437 1175,1424 1084,1368 984,1376 876,1450 832,1468 771,1411 650,1402 572,1481 507,1472 464,1454 416,1420 399,1389 555,1276 620,1194 555,1098 420,1072 273,1051 186,1033 143,912 121,864 30,829 22,768 13,469 0,452 39,421 100,421 121,399 217,399 238,382 342,386 360,300 451,182 550,65 594,22 624,0 689,87 698,326 724,365 845,408 936,465 1075,478 1166,512 1253,521 1422,495 "/>
   </g>
  </g>
 </g>
</svg>
