<?xml version="1.0" encoding="UTF-8"?>
<!DOCTYPE svg PUBLIC "-//W3C//DTD SVG 1.1//EN" "http://www.w3.org/Graphics/SVG/1.1/DTD/svg11.dtd">
<!-- Creator: CorelDRAW X8 -->
<svg xmlns="http://www.w3.org/2000/svg" xml:space="preserve" width="100%" height="100%" version="1.1" shape-rendering="geometricPrecision" text-rendering="geometricPrecision" image-rendering="optimizeQuality" fill-rule="evenodd" clip-rule="evenodd"
viewBox="0 0 2150 1481"
 xmlns:xlink="http://www.w3.org/1999/xlink">
 <g id="Layer_x0020_1">
  <metadata id="CorelCorpID_0Corel-Layer"/>
  <g id="Layers">
   <g id="India_Districts_selection">
    <polygon fill="#6EA97F" points="2150,404 2145,478 2119,543 2007,708 1890,851 1673,1072 1521,1190 1404,1281 1348,1320 1287,1320 1201,1420 1105,1446 1010,1481 841,1433 698,1350 438,1346 321,1216 208,1185 69,1033 30,964 0,933 9,795 39,755 100,664 134,599 134,538 160,408 156,291 199,261 537,252 585,226 711,104 780,96 815,69 1114,74 1123,35 1378,22 1391,0 1539,17 1807,239 1885,339 2093,347 "/>
   </g>
  </g>
 </g>
</svg>
