<?xml version="1.0" encoding="UTF-8"?>
<!DOCTYPE svg PUBLIC "-//W3C//DTD SVG 1.1//EN" "http://www.w3.org/Graphics/SVG/1.1/DTD/svg11.dtd">
<!-- Creator: CorelDRAW X8 -->
<svg xmlns="http://www.w3.org/2000/svg" xml:space="preserve" width="100%" height="100%" version="1.1" shape-rendering="geometricPrecision" text-rendering="geometricPrecision" image-rendering="optimizeQuality" fill-rule="evenodd" clip-rule="evenodd"
viewBox="0 0 1811 1782"
 xmlns:xlink="http://www.w3.org/1999/xlink">
 <g id="Layer_x0020_1">
  <metadata id="CorelCorpID_0Corel-Layer"/>
  <g id="Layers">
   <g id="India_Districts_selection">
    <polygon fill="#6EA97F" points="1028,1771 887,1782 663,1766 558,1688 402,1567 365,1442 313,1290 266,1082 183,920 151,883 157,883 125,789 37,669 0,606 104,475 5,392 125,214 183,0 626,68 762,21 1394,21 1696,31 1754,10 1775,94 1806,308 1811,308 1707,455 1561,538 1498,632 1300,658 1169,799 1018,946 955,1144 939,1290 892,1374 887,1520 1007,1635 1070,1688 "/>
   </g>
  </g>
 </g>
</svg>
