<?xml version="1.0" encoding="UTF-8"?>
<!DOCTYPE svg PUBLIC "-//W3C//DTD SVG 1.1//EN" "http://www.w3.org/Graphics/SVG/1.1/DTD/svg11.dtd">
<!-- Creator: CorelDRAW X8 -->
<svg xmlns="http://www.w3.org/2000/svg" xml:space="preserve" width="100%" height="100%" version="1.1" shape-rendering="geometricPrecision" text-rendering="geometricPrecision" image-rendering="optimizeQuality" fill-rule="evenodd" clip-rule="evenodd"
viewBox="0 0 2552 1782"
 xmlns:xlink="http://www.w3.org/1999/xlink">
 <g id="Layer_x0020_1">
  <metadata id="CorelCorpID_0Corel-Layer"/>
  <g id="Layers">
   <g id="India_Districts_selection">
    <polygon fill="#6EA97F" points="2369,998 2255,972 2244,935 2176,920 2156,893 1806,904 1712,862 1613,836 1608,810 1514,810 1461,846 1456,940 1373,1024 1404,1092 1456,1123 1467,1181 1404,1217 1409,1280 1367,1275 1373,1322 1467,1437 1472,1479 1440,1546 1284,1693 1133,1729 1080,1677 1080,1630 992,1630 997,1656 934,1656 924,1630 846,1630 851,1599 793,1604 689,1693 585,1693 355,1688 251,1719 198,1750 141,1776 115,1782 115,1693 146,1656 141,1552 0,1473 5,1374 57,1364 57,1285 63,1191 141,1191 183,1155 230,1071 256,998 287,946 318,846 397,716 465,637 459,554 506,517 600,512 579,465 621,428 705,428 725,371 934,387 1013,334 1101,256 1216,225 1310,162 1394,172 1404,141 1519,125 1545,167 1545,251 1639,287 1733,313 1728,387 1701,408 1696,460 1874,455 1962,361 2020,214 2025,94 2077,10 2166,16 2249,0 2406,125 2510,167 2552,230 2547,355 2500,371 2422,465 2432,502 2406,517 2406,564 2516,580 2516,909 2406,961 "/>
   </g>
  </g>
 </g>
</svg>
