<?xml version="1.0" encoding="UTF-8"?>
<!DOCTYPE svg PUBLIC "-//W3C//DTD SVG 1.1//EN" "http://www.w3.org/Graphics/SVG/1.1/DTD/svg11.dtd">
<!-- Creator: CorelDRAW X8 -->
<svg xmlns="http://www.w3.org/2000/svg" xml:space="preserve" width="100%" height="100%" version="1.1" shape-rendering="geometricPrecision" text-rendering="geometricPrecision" image-rendering="optimizeQuality" fill-rule="evenodd" clip-rule="evenodd"
viewBox="0 0 2317 2835"
 xmlns:xlink="http://www.w3.org/1999/xlink">
 <g id="Layer_x0020_1">
  <metadata id="CorelCorpID_0Corel-Layer"/>
  <g id="Layers">
   <g id="India_Districts_selection">
    <polygon fill="#6EA97F" points="2185,2162 2209,2303 2234,2386 2284,2511 2243,2711 2068,2835 1960,2827 1819,2752 1420,2769 1354,2711 988,2711 831,2686 656,2436 515,2453 324,2428 158,2370 25,2336 0,2228 208,2029 316,1754 357,1646 407,1613 889,1671 997,1646 1022,1455 1155,1438 1420,1256 1429,1114 1437,906 1636,840 1620,607 1661,524 1769,100 1902,0 1960,91 2085,258 2209,507 2276,640 2301,798 2317,973 2226,1114 2151,1214 2043,1322 1977,1447 1935,1671 1977,1887 2101,2079 2185,2162 "/>
   </g>
  </g>
 </g>
</svg>
