<?xml version="1.0" encoding="UTF-8"?>
<!DOCTYPE svg PUBLIC "-//W3C//DTD SVG 1.1//EN" "http://www.w3.org/Graphics/SVG/1.1/DTD/svg11.dtd">
<!-- Creator: CorelDRAW X8 -->
<svg xmlns="http://www.w3.org/2000/svg" xml:space="preserve" width="100%" height="100%" version="1.1" shape-rendering="geometricPrecision" text-rendering="geometricPrecision" image-rendering="optimizeQuality" fill-rule="evenodd" clip-rule="evenodd"
viewBox="0 0 1864 1481"
 xmlns:xlink="http://www.w3.org/1999/xlink">
 <g id="Layer_x0020_1">
  <metadata id="CorelCorpID_0Corel-Layer"/>
  <g id="Layers">
   <g id="India_Districts_selection">
    <polygon fill="#6EA97F" points="1864,764 1859,782 1816,907 1820,1033 1855,1081 1786,1194 1729,1233 1716,1263 1682,1324 1643,1376 1552,1381 1465,1420 1361,1428 1313,1472 1231,1472 1110,1481 1075,1433 1027,1433 988,1472 962,1437 910,1372 810,1389 745,1363 654,1342 611,1242 568,1129 585,1038 602,1003 589,946 550,916 555,834 581,808 568,764 533,751 516,712 412,708 308,712 182,690 139,630 91,556 61,482 0,425 13,339 13,313 26,321 65,321 108,317 165,291 221,278 243,239 286,230 347,204 377,165 494,152 550,148 576,126 628,122 650,104 693,96 732,91 745,56 767,26 802,9 871,0 906,4 958,22 1001,43 1023,74 1062,96 1101,122 1127,143 1157,100 1179,78 1253,109 1279,135 1309,178 1335,226 1422,239 1534,234 1651,226 1660,343 1699,386 1725,434 1768,486 1803,560 1807,638 1829,669 1829,751 "/>
   </g>
  </g>
 </g>
</svg>
