<?xml version="1.0" encoding="UTF-8"?>
<!DOCTYPE svg PUBLIC "-//W3C//DTD SVG 1.1//EN" "http://www.w3.org/Graphics/SVG/1.1/DTD/svg11.dtd">
<!-- Creator: CorelDRAW X8 -->
<svg xmlns="http://www.w3.org/2000/svg" xml:space="preserve" width="100%" height="100%" version="1.1" shape-rendering="geometricPrecision" text-rendering="geometricPrecision" image-rendering="optimizeQuality" fill-rule="evenodd" clip-rule="evenodd"
viewBox="0 0 2585 1103"
 xmlns:xlink="http://www.w3.org/1999/xlink">
 <g id="Layer_x0020_1">
  <metadata id="CorelCorpID_0Corel-Layer"/>
  <g id="Layers">
   <g id="India_Districts_selection">
    <polygon fill="#6EA97F" points="2585,406 2537,426 2477,462 2394,510 2342,557 2282,597 2199,609 2167,669 2127,725 2123,780 2095,816 2028,844 1928,860 1928,892 1881,955 1765,1055 1710,1099 1678,1091 1587,1071 1483,1055 1424,1103 1344,1067 1292,1039 1296,943 1213,880 1105,792 990,788 974,824 919,896 835,932 696,963 676,920 445,928 421,963 286,955 223,920 167,924 99,880 52,836 4,796 0,709 36,693 36,259 60,215 60,0 429,24 445,40 759,40 787,72 1491,64 1487,56 1535,80 2099,76 2119,40 2187,80 2259,119 2330,163 2354,179 2362,279 2406,322 2493,314 2545,374 "/>
   </g>
  </g>
 </g>
</svg>
