<?xml version="1.0" encoding="UTF-8"?>
<!DOCTYPE svg PUBLIC "-//W3C//DTD SVG 1.1//EN" "http://www.w3.org/Graphics/SVG/1.1/DTD/svg11.dtd">
<!-- Creator: CorelDRAW X8 -->
<svg xmlns="http://www.w3.org/2000/svg" xml:space="preserve" width="100%" height="100%" version="1.1" shape-rendering="geometricPrecision" text-rendering="geometricPrecision" image-rendering="optimizeQuality" fill-rule="evenodd" clip-rule="evenodd"
viewBox="0 0 2416 1481"
 xmlns:xlink="http://www.w3.org/1999/xlink">
 <g id="Layer_x0020_1">
  <metadata id="CorelCorpID_0Corel-Layer"/>
  <g id="Layers">
   <g id="India_Districts_selection">
    <polygon fill="#6EA97F" points="1908,256 1978,300 2069,382 2164,486 2359,473 2416,525 2377,656 2355,703 2303,742 2251,812 2177,886 2164,1025 2064,1072 1856,1072 1718,1125 1644,1233 1648,1263 1535,1263 1436,1311 1345,1346 1323,1463 1292,1441 1201,1468 954,1481 694,1468 655,1415 646,1337 690,1220 755,1194 859,1138 867,1064 798,946 542,786 416,677 204,595 48,525 0,460 22,365 108,304 269,230 451,104 568,43 668,9 820,0 919,0 980,65 1037,126 1162,130 1232,135 1327,182 1397,278 1548,373 1726,386 1848,347 1913,278 "/>
   </g>
  </g>
 </g>
</svg>
