<?xml version="1.0" encoding="UTF-8"?>
<!DOCTYPE svg PUBLIC "-//W3C//DTD SVG 1.1//EN" "http://www.w3.org/Graphics/SVG/1.1/DTD/svg11.dtd">
<!-- Creator: CorelDRAW X8 -->
<svg xmlns="http://www.w3.org/2000/svg" xml:space="preserve" width="100%" height="100%" version="1.1" shape-rendering="geometricPrecision" text-rendering="geometricPrecision" image-rendering="optimizeQuality" fill-rule="evenodd" clip-rule="evenodd"
viewBox="0 0 3137 3287"
 xmlns:xlink="http://www.w3.org/1999/xlink">
 <g id="Layer_x0020_1">
  <metadata id="CorelCorpID_0Corel-Layer"/>
  <g id="Layers">
   <g id="India_Districts_selection">
    <polygon fill="#6EA97F" points="905,154 1087,174 1328,174 1540,164 1636,145 1655,202 1703,347 1713,472 1876,540 1896,655 1896,829 1915,868 1973,983 1992,1070 1944,1224 1848,1349 1809,1504 1876,1619 2001,1735 2107,1745 2184,1803 2300,1889 2444,1928 2588,1928 2704,1976 2800,2072 2848,2159 2896,2207 3041,2188 3089,2265 3137,2304 3118,2468 2973,2574 2877,2632 2858,2776 2848,2950 2791,3036 2733,3123 2723,3210 2685,3287 2646,3258 2579,3181 2511,3162 2386,3152 2290,3142 2271,3085 2261,3036 2232,2969 2213,2901 2165,2844 2127,2824 2078,2805 2078,2747 2040,2738 2030,2747 2011,2689 1953,2641 1876,2632 1838,2564 1828,2410 1771,2323 1694,2227 1559,2150 1424,2159 1347,2188 1299,2236 1232,2207 1232,2130 1261,1976 1232,1880 1164,1774 1068,1658 972,1542 856,1417 779,1349 683,1301 568,1253 529,1137 462,1060 404,1041 327,1022 318,974 231,916 183,848 115,858 0,848 29,810 48,665 77,492 106,386 115,231 125,48 125,0 164,0 346,48 500,96 712,116 "/>
   </g>
  </g>
 </g>
</svg>
