<?xml version="1.0" encoding="UTF-8"?>
<!DOCTYPE svg PUBLIC "-//W3C//DTD SVG 1.1//EN" "http://www.w3.org/Graphics/SVG/1.1/DTD/svg11.dtd">
<!-- Creator: CorelDRAW X8 -->
<svg xmlns="http://www.w3.org/2000/svg" xml:space="preserve" width="100%" height="100%" version="1.1" shape-rendering="geometricPrecision" text-rendering="geometricPrecision" image-rendering="optimizeQuality" fill-rule="evenodd" clip-rule="evenodd"
viewBox="0 0 1849 1631"
 xmlns:xlink="http://www.w3.org/1999/xlink">
 <g id="Layer_x0020_1">
  <metadata id="CorelCorpID_0Corel-Layer"/>
  <g id="Layers">
   <g id="India_Districts_selection">
    <polygon fill="#6EA97F" points="1849,526 1816,555 1782,607 1739,636 1691,694 1658,713 1591,722 1562,756 1591,808 1625,861 1625,1091 1562,1148 1543,1229 1486,1315 1424,1397 1367,1425 1352,1440 1357,1507 1285,1564 1238,1574 1214,1617 1142,1631 1152,1588 1094,1531 846,1411 683,1296 597,1205 440,985 320,861 258,871 234,890 229,780 201,746 148,684 91,646 62,598 43,541 10,502 0,469 5,464 91,383 143,287 177,206 158,196 358,196 363,230 416,230 420,277 526,301 683,292 712,215 717,124 765,91 779,33 1123,24 1276,24 1319,0 1319,62 1615,57 1653,53 1734,230 1758,320 1840,445 1840,507 "/>
   </g>
  </g>
 </g>
</svg>
