<?xml version="1.0" encoding="UTF-8"?>
<!DOCTYPE svg PUBLIC "-//W3C//DTD SVG 1.1//EN" "http://www.w3.org/Graphics/SVG/1.1/DTD/svg11.dtd">
<!-- Creator: CorelDRAW X8 -->
<svg xmlns="http://www.w3.org/2000/svg" xml:space="preserve" width="100%" height="100%" version="1.1" shape-rendering="geometricPrecision" text-rendering="geometricPrecision" image-rendering="optimizeQuality" fill-rule="evenodd" clip-rule="evenodd"
viewBox="0 0 2754 2233"
 xmlns:xlink="http://www.w3.org/1999/xlink">
 <g id="Layer_x0020_1">
  <metadata id="CorelCorpID_0Corel-Layer"/>
  <g id="Layers">
   <g id="India_Districts_selection">
    <polygon fill="#6EA97F" points="1675,2233 1583,2168 1361,2030 1171,1801 1066,1801 811,1958 438,1925 209,1932 209,1886 164,1729 157,1546 72,1447 98,1225 0,1074 85,1041 229,1002 419,937 510,832 759,485 831,262 903,131 962,20 981,0 994,20 1217,52 1348,85 1407,386 1367,452 1439,753 1596,851 1721,1126 2028,1323 2257,1349 2244,1644 2754,1945 2643,2043 1969,2056 "/>
   </g>
  </g>
 </g>
</svg>
