<?xml version="1.0" encoding="UTF-8"?>
<!DOCTYPE svg PUBLIC "-//W3C//DTD SVG 1.1//EN" "http://www.w3.org/Graphics/SVG/1.1/DTD/svg11.dtd">
<!-- Creator: CorelDRAW X8 -->
<svg xmlns="http://www.w3.org/2000/svg" xml:space="preserve" width="100%" height="100%" version="1.1" shape-rendering="geometricPrecision" text-rendering="geometricPrecision" image-rendering="optimizeQuality" fill-rule="evenodd" clip-rule="evenodd"
viewBox="0 0 2420 1179"
 xmlns:xlink="http://www.w3.org/1999/xlink">
 <g id="Layer_x0020_1">
  <metadata id="CorelCorpID_0Corel-Layer"/>
  <g id="Layers">
   <g id="India_Districts_selection">
    <polygon fill="#6EA97F" points="2330,819 2171,804 2156,837 2093,848 2089,867 2033,867 1996,934 1959,986 1896,979 1877,956 1780,952 1758,979 1706,964 1628,952 1509,1042 1509,1120 1442,1179 1368,1124 1316,1127 1297,1094 1219,1083 1208,990 1130,882 1041,740 985,740 877,848 814,893 725,900 680,871 636,926 491,926 491,900 461,893 409,938 312,952 301,979 242,982 204,1008 167,1005 145,1034 33,1042 0,1005 41,964 7,770 52,722 115,711 256,692 387,636 394,566 398,521 390,487 368,461 398,398 602,365 639,398 807,506 1044,629 1156,603 1178,543 1193,461 1279,432 1416,383 1531,350 1654,268 1706,205 1699,160 1676,93 1725,52 1788,4 1862,0 1892,78 1966,89 2111,74 2167,37 2226,26 2204,71 2275,156 2368,234 2420,331 2420,480 2412,651 "/>
   </g>
  </g>
 </g>
</svg>
