<?xml version="1.0" encoding="UTF-8"?>
<!DOCTYPE svg PUBLIC "-//W3C//DTD SVG 1.1//EN" "http://www.w3.org/Graphics/SVG/1.1/DTD/svg11.dtd">
<!-- Creator: CorelDRAW X8 -->
<svg xmlns="http://www.w3.org/2000/svg" xml:space="preserve" width="100%" height="100%" version="1.1" shape-rendering="geometricPrecision" text-rendering="geometricPrecision" image-rendering="optimizeQuality" fill-rule="evenodd" clip-rule="evenodd"
viewBox="0 0 3390 2253"
 xmlns:xlink="http://www.w3.org/1999/xlink">
 <g id="Layer_x0020_1">
  <metadata id="CorelCorpID_0Corel-Layer"/>
  <g id="Layers">
   <g id="India_Districts_selection">
    <polygon fill="#6EA97F" points="3370,2087 3310,2061 3225,2015 3126,2015 2967,2035 2928,2094 2895,2048 2796,2021 2803,1962 2750,1909 2697,1889 2572,1856 2519,1883 2473,1949 2447,2041 2394,2021 2255,1975 2104,1949 2044,2002 2077,2054 2104,2140 2084,2167 2031,2200 1952,2233 1873,2253 1794,2253 1728,2180 1609,2193 1569,2220 1457,2220 1266,2061 1108,2035 1029,2008 1035,1995 1029,1737 989,1592 1022,1546 1029,1506 917,1480 818,1500 673,1394 580,1301 534,1275 508,1136 429,1103 303,1050 284,958 171,931 73,852 20,799 26,707 46,674 0,562 20,370 86,284 198,304 251,423 303,410 336,231 514,211 692,46 811,46 857,13 936,0 930,40 1035,106 1161,159 1161,258 1134,350 1194,423 1253,495 1372,568 1451,575 1642,746 1734,799 1734,918 1945,905 1978,912 2156,1103 2163,1143 2433,1176 2638,1341 2730,1348 2756,1374 2987,1381 3073,1394 3159,1467 3264,1453 3363,1460 3337,1486 3244,1546 3390,1790 3383,2048 "/>
   </g>
  </g>
 </g>
</svg>
