<?xml version="1.0" encoding="UTF-8"?>
<!DOCTYPE svg PUBLIC "-//W3C//DTD SVG 1.1//EN" "http://www.w3.org/Graphics/SVG/1.1/DTD/svg11.dtd">
<!-- Creator: CorelDRAW X8 -->
<svg xmlns="http://www.w3.org/2000/svg" xml:space="preserve" width="100%" height="100%" version="1.1" shape-rendering="geometricPrecision" text-rendering="geometricPrecision" image-rendering="optimizeQuality" fill-rule="evenodd" clip-rule="evenodd"
viewBox="0 0 2367 2233"
 xmlns:xlink="http://www.w3.org/1999/xlink">
 <g id="Layer_x0020_1">
  <metadata id="CorelCorpID_0Corel-Layer"/>
  <g id="Layers">
   <g id="India_Districts_selection">
    <polygon fill="#6EA97F" points="1916,1958 1896,2063 1876,2102 1870,2168 1817,2200 1791,2233 1236,2233 1236,2194 1151,2050 922,2056 909,2024 830,1965 588,1958 510,1912 490,1808 386,1749 150,1735 131,1663 183,1598 177,1519 242,1421 170,1362 190,1015 124,976 0,930 13,655 170,661 190,557 268,478 294,321 497,196 510,105 628,105 673,0 1314,26 1327,65 1981,59 2014,105 2086,105 2144,196 2308,327 2308,524 2360,517 2367,806 2170,956 1863,1022 1863,1140 1994,1303 1870,1513 1674,1513 1732,1814 1870,1958 "/>
   </g>
  </g>
 </g>
</svg>
