<?xml version="1.0" encoding="UTF-8"?>
<!DOCTYPE svg PUBLIC "-//W3C//DTD SVG 1.1//EN" "http://www.w3.org/Graphics/SVG/1.1/DTD/svg11.dtd">
<!-- Creator: CorelDRAW X8 -->
<svg xmlns="http://www.w3.org/2000/svg" xml:space="preserve" width="100%" height="100%" version="1.1" shape-rendering="geometricPrecision" text-rendering="geometricPrecision" image-rendering="optimizeQuality" fill-rule="evenodd" clip-rule="evenodd"
viewBox="0 0 2510 1782"
 xmlns:xlink="http://www.w3.org/1999/xlink">
 <g id="Layer_x0020_1">
  <metadata id="CorelCorpID_0Corel-Layer"/>
  <g id="Layers">
   <g id="India_Districts_selection">
    <polygon fill="#6EA97F" points="2510,690 2490,711 2427,825 2354,956 2286,1176 2030,1526 1942,1630 1748,1698 1602,1735 1498,1782 1347,1782 1247,1667 1086,1641 846,1609 830,1202 799,1186 684,1364 569,1243 329,1155 37,1155 5,1134 37,1134 78,1097 68,914 10,883 0,778 68,773 167,664 282,549 407,486 475,371 485,376 699,340 736,5 1018,0 1529,47 1895,261 2103,324 2286,261 2333,230 2416,507 "/>
   </g>
  </g>
 </g>
</svg>
