<?xml version="1.0" encoding="UTF-8"?>
<!DOCTYPE svg PUBLIC "-//W3C//DTD SVG 1.1//EN" "http://www.w3.org/Graphics/SVG/1.1/DTD/svg11.dtd">
<!-- Creator: CorelDRAW X8 -->
<svg xmlns="http://www.w3.org/2000/svg" xml:space="preserve" width="100%" height="100%" version="1.1" shape-rendering="geometricPrecision" text-rendering="geometricPrecision" image-rendering="optimizeQuality" fill-rule="evenodd" clip-rule="evenodd"
viewBox="0 0 3077 1782"
 xmlns:xlink="http://www.w3.org/1999/xlink">
 <g id="Layer_x0020_1">
  <metadata id="CorelCorpID_0Corel-Layer"/>
  <g id="Layers">
   <g id="India_Districts_selection">
    <polygon fill="#6EA97F" points="2102,1155 2091,1144 1935,1134 1893,1149 1831,1290 1794,1458 1674,1463 1575,1505 1434,1588 1215,1771 1043,1771 975,1782 986,1740 923,1599 819,1531 668,1473 443,1385 47,1364 0,1385 16,1238 16,982 42,841 115,705 136,418 125,266 136,251 308,214 553,178 662,115 1080,99 1429,16 1617,0 1695,110 1857,110 1857,162 1998,167 2159,225 2269,287 2425,392 2530,439 2566,496 2733,517 2895,507 2999,486 3077,491 2962,637 2869,805 2764,946 2655,909 2509,815 2389,799 2269,841 2154,899 2128,977 "/>
   </g>
  </g>
 </g>
</svg>
