<?xml version="1.0" encoding="UTF-8"?>
<!DOCTYPE svg PUBLIC "-//W3C//DTD SVG 1.1//EN" "http://www.w3.org/Graphics/SVG/1.1/DTD/svg11.dtd">
<!-- Creator: CorelDRAW X8 -->
<svg xmlns="http://www.w3.org/2000/svg" xml:space="preserve" width="100%" height="100%" version="1.1" shape-rendering="geometricPrecision" text-rendering="geometricPrecision" image-rendering="optimizeQuality" fill-rule="evenodd" clip-rule="evenodd"
viewBox="0 0 4231 2986"
 xmlns:xlink="http://www.w3.org/1999/xlink">
 <g id="Layer_x0020_1">
  <metadata id="CorelCorpID_0Corel-Layer"/>
  <g id="Layers">
   <g id="India_Districts_selection">
    <polygon fill="#6EA97F" points="2535,1655 2570,1707 2596,1751 2640,1848 2727,1839 2797,1909 2876,1996 2954,2075 3033,2145 3103,2198 3164,2163 3295,2154 3339,2224 3496,2268 3593,2137 3697,2110 3829,2294 3855,2259 3899,2198 3995,2058 4143,1988 4231,2093 4143,2189 4047,2277 3933,2364 3741,2443 3566,2557 3374,2609 3243,2723 3129,2741 2998,2758 2710,2863 2509,2986 2404,2977 2343,2951 2238,2942 2203,2898 2177,2898 2150,2942 1932,2942 1888,2898 1862,2898 1871,2898 1774,2767 1678,2522 1556,2312 1477,2110 1093,2137 900,2154 691,2268 446,2250 420,2154 323,2145 219,2102 157,2023 96,1883 0,1751 79,1664 140,1506 245,1506 323,1427 428,1357 472,1384 594,1392 656,1226 830,1243 944,1357 1163,1375 1224,1436 1311,1419 1355,1200 1364,1060 1617,823 1635,604 1635,613 1792,613 1871,560 1949,490 1958,341 2019,201 2115,149 2203,0 2246,35 2334,140 2351,219 2369,306 2386,604 2220,779 2220,981 2185,1068 2185,1287 2264,1445 2386,1541 2491,1655 "/>
   </g>
  </g>
 </g>
</svg>
