<?xml version="1.0" encoding="UTF-8"?>
<!DOCTYPE svg PUBLIC "-//W3C//DTD SVG 1.1//EN" "http://www.w3.org/Graphics/SVG/1.1/DTD/svg11.dtd">
<!-- Creator: CorelDRAW X8 -->
<svg xmlns="http://www.w3.org/2000/svg" xml:space="preserve" width="100%" height="100%" version="1.1" shape-rendering="geometricPrecision" text-rendering="geometricPrecision" image-rendering="optimizeQuality" fill-rule="evenodd" clip-rule="evenodd"
viewBox="0 0 1513 1782"
 xmlns:xlink="http://www.w3.org/1999/xlink">
 <g id="Layer_x0020_1">
  <metadata id="CorelCorpID_0Corel-Layer"/>
  <g id="Layers">
   <g id="India_Districts_selection">
    <polygon fill="#6EA97F" points="1408,1050 1351,1066 1325,1118 1325,1181 1267,1254 1231,1338 1163,1411 1147,1468 1027,1505 965,1578 881,1609 803,1630 720,1714 610,1714 537,1782 449,1682 329,1594 151,1531 0,1484 5,1473 31,1170 120,998 193,899 376,909 464,637 668,387 767,167 902,115 981,42 1100,0 1346,68 1346,162 1346,230 1377,230 1382,313 1340,355 1340,418 1408,481 1408,606 1476,664 1513,815 1497,888 1460,940 1424,1034 "/>
   </g>
  </g>
 </g>
</svg>
