<?xml version="1.0" encoding="UTF-8"?>
<!DOCTYPE svg PUBLIC "-//W3C//DTD SVG 1.1//EN" "http://www.w3.org/Graphics/SVG/1.1/DTD/svg11.dtd">
<!-- Creator: CorelDRAW X8 -->
<svg xmlns="http://www.w3.org/2000/svg" xml:space="preserve" width="100%" height="100%" version="1.1" shape-rendering="geometricPrecision" text-rendering="geometricPrecision" image-rendering="optimizeQuality" fill-rule="evenodd" clip-rule="evenodd"
viewBox="0 0 2819 2534"
 xmlns:xlink="http://www.w3.org/1999/xlink">
 <g id="Layer_x0020_1">
  <metadata id="CorelCorpID_0Corel-Layer"/>
  <g id="Layers">
   <g id="India_Districts_selection">
    <polygon fill="#6EA97F" points="1825,2534 1773,2527 1729,2490 1654,2475 1588,2430 1528,2408 1484,2363 1417,2319 1380,2289 1306,2230 1246,2222 1157,2200 1083,2170 1016,2170 979,2118 920,2059 846,2059 801,1932 742,1925 638,1925 594,1858 579,1799 542,1754 482,1694 482,1665 460,1605 453,1598 475,1598 482,1538 512,1486 556,1412 556,1256 519,1197 482,1159 415,1122 356,1085 304,1100 223,1063 171,1003 163,669 171,595 134,528 96,476 45,453 37,320 15,305 0,89 45,45 96,22 282,7 482,0 527,15 505,15 505,45 549,104 564,149 594,156 631,178 675,216 720,268 779,297 816,297 905,312 1002,342 1083,386 1135,431 1202,476 1217,587 1306,647 1365,661 1432,743 1528,855 1603,944 1669,988 1706,1048 1743,1055 1788,1145 1855,1189 1929,1219 2018,1271 2055,1315 2070,1315 2122,1345 2152,1382 2189,1420 2211,1457 2248,1516 2285,1553 2367,1553 2426,1568 2456,1635 2500,1665 2589,1717 2634,1747 2723,1858 2745,1903 2790,1962 2819,1962 2819,1977 2812,2022 2752,2029 2738,2059 2671,2140 2641,2178 2292,2178 2307,2207 2248,2207 2218,2230 2144,2259 2085,2259 2040,2289 1966,2319 1914,2363 1862,2423 1825,2519 "/>
   </g>
  </g>
 </g>
</svg>
