<?xml version="1.0" encoding="UTF-8"?>
<!DOCTYPE svg PUBLIC "-//W3C//DTD SVG 1.1//EN" "http://www.w3.org/Graphics/SVG/1.1/DTD/svg11.dtd">
<!-- Creator: CorelDRAW X8 -->
<svg xmlns="http://www.w3.org/2000/svg" xml:space="preserve" width="100%" height="100%" version="1.1" shape-rendering="geometricPrecision" text-rendering="geometricPrecision" image-rendering="optimizeQuality" fill-rule="evenodd" clip-rule="evenodd"
viewBox="0 0 3033 2233"
 xmlns:xlink="http://www.w3.org/1999/xlink">
 <g id="Layer_x0020_1">
  <metadata id="CorelCorpID_0Corel-Layer"/>
  <g id="Layers">
   <g id="India_Districts_selection">
    <polygon fill="#6EA97F" points="3033,2056 2981,2050 2824,1984 2622,2004 2491,1965 2425,1984 2393,2056 2373,2220 2321,2233 2177,2194 2066,2194 1961,2142 1837,1952 1667,1722 1608,1729 1497,1755 1464,1814 1327,1893 1124,1906 961,1834 798,1729 647,1644 615,1532 490,1487 268,1271 0,1015 98,786 170,583 399,589 438,635 615,635 693,537 817,537 876,472 948,301 1026,92 1046,118 1262,0 1569,79 1667,210 1700,373 1831,504 1994,642 2105,740 2223,806 2255,819 2275,943 2373,1205 2439,1343 2524,1552 2615,1644 2929,1677 3027,1788 "/>
   </g>
  </g>
 </g>
</svg>
