<?xml version="1.0" encoding="UTF-8"?>
<!DOCTYPE svg PUBLIC "-//W3C//DTD SVG 1.1//EN" "http://www.w3.org/Graphics/SVG/1.1/DTD/svg11.dtd">
<!-- Creator: CorelDRAW X8 -->
<svg xmlns="http://www.w3.org/2000/svg" xml:space="preserve" width="100%" height="100%" version="1.1" shape-rendering="geometricPrecision" text-rendering="geometricPrecision" image-rendering="optimizeQuality" fill-rule="evenodd" clip-rule="evenodd"
viewBox="0 0 2988 1831"
 xmlns:xlink="http://www.w3.org/1999/xlink">
 <g id="Layer_x0020_1">
  <metadata id="CorelCorpID_0Corel-Layer"/>
  <g id="Layers">
   <g id="India_Districts_selection">
    <polygon fill="#6EA97F" points="842,381 971,387 1014,344 1250,344 1540,489 1642,548 1856,542 1899,612 2017,634 2071,655 2135,655 2162,585 2189,446 2194,349 2307,274 2457,199 2586,215 2613,349 2645,548 2838,607 2865,607 2849,671 2870,881 2892,1085 2988,1112 2935,1289 2886,1520 2951,1579 2967,1643 2822,1676 2597,1697 2366,1815 2141,1815 2055,1772 1878,1778 1803,1692 1668,1654 1540,1729 1438,1831 1416,1826 1153,1788 794,1606 172,1611 172,1482 161,1353 113,1241 80,1053 118,892 161,811 97,720 0,607 48,338 188,48 220,0 290,70 424,177 692,236 773,322 "/>
   </g>
  </g>
 </g>
</svg>
