<?xml version="1.0" encoding="UTF-8"?>
<!DOCTYPE svg PUBLIC "-//W3C//DTD SVG 1.1//EN" "http://www.w3.org/Graphics/SVG/1.1/DTD/svg11.dtd">
<!-- Creator: CorelDRAW X8 -->
<svg xmlns="http://www.w3.org/2000/svg" xml:space="preserve" width="100%" height="100%" version="1.1" shape-rendering="geometricPrecision" text-rendering="geometricPrecision" image-rendering="optimizeQuality" fill-rule="evenodd" clip-rule="evenodd"
viewBox="0 0 1335 1782"
 xmlns:xlink="http://www.w3.org/1999/xlink">
 <g id="Layer_x0020_1">
  <metadata id="CorelCorpID_0Corel-Layer"/>
  <g id="Layers">
   <g id="India_Districts_selection">
    <polygon fill="#6EA97F" points="991,1782 777,1735 428,1667 89,1677 31,1557 0,1259 125,1076 177,982 198,789 203,648 235,653 308,564 355,475 459,376 469,272 537,136 610,0 871,188 1059,444 1273,695 1335,805 1267,925 1226,1061 1153,1176 1189,1296 1106,1369 1069,1463 1194,1479 1054,1594 "/>
   </g>
  </g>
 </g>
</svg>
