<?xml version="1.0" encoding="UTF-8"?>
<!DOCTYPE svg PUBLIC "-//W3C//DTD SVG 1.1//EN" "http://www.w3.org/Graphics/SVG/1.1/DTD/svg11.dtd">
<!-- Creator: CorelDRAW X8 -->
<svg xmlns="http://www.w3.org/2000/svg" xml:space="preserve" width="100%" height="100%" version="1.1" shape-rendering="geometricPrecision" text-rendering="geometricPrecision" image-rendering="optimizeQuality" fill-rule="evenodd" clip-rule="evenodd"
viewBox="0 0 3744 2083"
 xmlns:xlink="http://www.w3.org/1999/xlink">
 <g id="Layer_x0020_1">
  <metadata id="CorelCorpID_0Corel-Layer"/>
  <g id="Layers">
   <g id="India_Districts_selection">
    <polygon fill="#6EA97F" points="2140,1997 1811,1961 1793,1844 1762,1796 1744,1728 1530,1741 1500,1686 1445,1747 1427,1796 1000,1796 988,1710 854,1692 805,1771 695,1844 604,1881 518,1967 396,2064 305,2083 305,2034 91,2003 110,1832 159,1802 140,1625 0,1447 0,1148 213,959 335,928 372,812 445,794 427,525 476,519 543,574 616,617 677,660 1152,660 1152,592 1335,489 1396,464 1433,434 1530,428 1579,366 2152,366 2183,336 2231,305 2244,232 2262,195 2280,86 2756,92 3085,6 3719,0 3744,257 3609,379 3341,366 3329,421 3122,421 3116,366 3024,354 3024,415 2896,428 2628,446 2524,654 2475,837 2433,922 2201,965 1853,1185 1335,1350 1335,1411 1884,1478 "/>
   </g>
  </g>
 </g>
</svg>
