<?xml version="1.0" encoding="UTF-8"?>
<!DOCTYPE svg PUBLIC "-//W3C//DTD SVG 1.1//EN" "http://www.w3.org/Graphics/SVG/1.1/DTD/svg11.dtd">
<!-- Creator: CorelDRAW X8 -->
<svg xmlns="http://www.w3.org/2000/svg" xml:space="preserve" width="100%" height="100%" version="1.1" shape-rendering="geometricPrecision" text-rendering="geometricPrecision" image-rendering="optimizeQuality" fill-rule="evenodd" clip-rule="evenodd"
viewBox="0 0 3443 2685"
 xmlns:xlink="http://www.w3.org/1999/xlink">
 <g id="Layer_x0020_1">
  <metadata id="CorelCorpID_0Corel-Layer"/>
  <g id="Layers">
   <g id="India_Districts_selection">
    <polygon fill="#6EA97F" points="2232,276 2350,346 2492,433 2586,535 2617,583 2492,661 2437,716 2429,803 2554,835 2735,866 2657,968 2523,1024 2499,1071 2460,1157 2609,1252 2664,1315 2625,1354 2381,1370 2381,1583 2460,1622 2570,1622 2594,1598 2712,1598 2845,1748 2955,1748 2955,1779 3073,1835 3105,2000 3175,2023 3175,2275 3380,2275 3435,2401 3443,2614 3112,2677 2279,2685 1768,2677 1045,2346 417,1787 291,1693 291,1417 330,1394 330,1299 369,1236 369,874 307,874 244,842 141,756 0,614 16,457 31,402 31,94 55,16 141,0 165,39 220,47 259,134 275,197 314,268 519,260 527,299 605,307 605,457 558,480 558,551 715,583 731,512 786,465 904,441 904,378 990,378 990,260 1399,260 1383,220 1501,236 1517,307 1564,315 1564,331 1863,339 1902,378 1996,386 2028,465 2193,441 2224,394 "/>
   </g>
  </g>
 </g>
</svg>
