<?xml version="1.0" encoding="UTF-8"?>
<!DOCTYPE svg PUBLIC "-//W3C//DTD SVG 1.1//EN" "http://www.w3.org/Graphics/SVG/1.1/DTD/svg11.dtd">
<!-- Creator: CorelDRAW X8 -->
<svg xmlns="http://www.w3.org/2000/svg" xml:space="preserve" width="100%" height="100%" version="1.1" shape-rendering="geometricPrecision" text-rendering="geometricPrecision" image-rendering="optimizeQuality" fill-rule="evenodd" clip-rule="evenodd"
viewBox="0 0 2817 2083"
 xmlns:xlink="http://www.w3.org/1999/xlink">
 <g id="Layer_x0020_1">
  <metadata id="CorelCorpID_0Corel-Layer"/>
  <g id="Layers">
   <g id="India_Districts_selection">
    <polygon fill="#6EA97F" points="268,1796 250,1728 232,1612 183,1600 146,1551 177,1484 238,1454 305,1386 335,1319 366,1228 341,1130 317,1081 262,1026 219,1026 134,934 79,843 73,782 73,647 43,605 0,513 0,507 6,501 18,446 67,403 134,373 207,391 232,324 219,318 256,311 287,293 354,287 482,293 543,293 579,318 622,318 634,293 671,244 707,220 732,189 738,147 756,122 774,104 793,24 817,0 878,12 939,37 988,55 1073,86 1140,104 1183,116 1238,147 1317,177 1372,177 1427,183 1445,214 1524,238 1567,238 1701,263 1793,269 1896,287 1957,287 2012,305 2030,342 2122,354 2158,354 2213,391 2274,391 2335,397 2433,446 2457,458 2469,483 2457,489 2408,537 2366,574 2335,599 2317,635 2286,666 2274,672 2268,715 2225,727 2238,776 2341,788 2366,788 2433,843 2463,892 2469,947 2500,983 2561,989 2591,1002 2677,1020 2719,1044 2768,1069 2805,1130 2805,1222 2811,1319 2817,1338 2792,1368 2731,1429 2695,1447 2683,1472 2597,1502 2451,1502 2353,1509 2311,1551 2311,1594 2262,1637 2201,1619 2164,1594 2164,1551 2116,1551 2055,1582 1951,1582 1793,1588 1707,1582 1652,1564 1616,1521 1567,1527 1500,1521 1488,1557 1475,1594 1439,1680 1384,1722 1354,1808 1347,1844 1286,1863 1280,1930 1268,1967 1195,2034 1091,2077 994,2077 902,2083 835,2064 817,1991 799,1961 695,1948 634,1918 591,1875 549,1857 518,1826 512,1783 409,1783 372,1802 323,1790 274,1796 "/>
   </g>
  </g>
 </g>
</svg>
