<?xml version="1.0" encoding="UTF-8"?>
<!DOCTYPE svg PUBLIC "-//W3C//DTD SVG 1.1//EN" "http://www.w3.org/Graphics/SVG/1.1/DTD/svg11.dtd">
<!-- Creator: CorelDRAW X8 -->
<svg xmlns="http://www.w3.org/2000/svg" xml:space="preserve" width="100%" height="100%" version="1.1" shape-rendering="geometricPrecision" text-rendering="geometricPrecision" image-rendering="optimizeQuality" fill-rule="evenodd" clip-rule="evenodd"
viewBox="0 0 1431 1481"
 xmlns:xlink="http://www.w3.org/1999/xlink">
 <g id="Layer_x0020_1">
  <metadata id="CorelCorpID_0Corel-Layer"/>
  <g id="Layers">
   <g id="India_Districts_selection">
    <polygon fill="#6EA97F" points="1067,1481 932,1324 807,1342 742,1394 677,1424 646,1394 585,1381 516,1307 516,977 455,920 455,729 291,729 247,708 108,690 100,595 0,508 4,460 52,412 178,421 178,369 230,412 317,452 360,417 325,334 291,274 243,239 312,165 351,126 382,100 382,117 438,156 438,213 538,274 603,295 607,178 577,143 633,91 633,39 690,26 755,91 893,96 898,74 967,56 989,0 1071,9 1080,61 1249,104 1266,282 1310,395 1431,499 1414,664 1366,768 1357,981 1340,1103 1284,1307 1123,1441 "/>
   </g>
  </g>
 </g>
</svg>
