<?xml version="1.0" encoding="UTF-8"?>
<!DOCTYPE svg PUBLIC "-//W3C//DTD SVG 1.1//EN" "http://www.w3.org/Graphics/SVG/1.1/DTD/svg11.dtd">
<!-- Creator: CorelDRAW X8 -->
<svg xmlns="http://www.w3.org/2000/svg" xml:space="preserve" width="100%" height="100%" version="1.1" shape-rendering="geometricPrecision" text-rendering="geometricPrecision" image-rendering="optimizeQuality" fill-rule="evenodd" clip-rule="evenodd"
viewBox="0 0 2642 2083"
 xmlns:xlink="http://www.w3.org/1999/xlink">
 <g id="Layer_x0020_1">
  <metadata id="CorelCorpID_0Corel-Layer"/>
  <g id="Layers">
   <g id="India_Districts_selection">
    <polygon fill="#6EA97F" points="2642,611 2562,770 2434,928 2318,1148 2294,1319 2172,1447 2111,1509 2148,1643 2209,1814 2270,1893 2257,2016 2166,2058 2068,2083 1855,2070 1769,2040 1672,2040 1580,1924 1446,1948 1354,2034 1275,1881 1135,1869 988,1832 848,1857 561,1875 451,1808 250,1667 201,1496 146,1240 122,1093 31,971 0,763 207,745 329,654 494,525 598,440 622,348 952,299 982,232 988,244 1251,134 1476,0 1824,73 2331,409 "/>
   </g>
  </g>
 </g>
</svg>
