<?xml version="1.0" encoding="UTF-8"?>
<!DOCTYPE svg PUBLIC "-//W3C//DTD SVG 1.1//EN" "http://www.w3.org/Graphics/SVG/1.1/DTD/svg11.dtd">
<!-- Creator: CorelDRAW X8 -->
<svg xmlns="http://www.w3.org/2000/svg" xml:space="preserve" width="100%" height="100%" version="1.1" shape-rendering="geometricPrecision" text-rendering="geometricPrecision" image-rendering="optimizeQuality" fill-rule="evenodd" clip-rule="evenodd"
viewBox="0 0 5462 3588"
 xmlns:xlink="http://www.w3.org/1999/xlink">
 <g id="Layer_x0020_1">
  <metadata id="CorelCorpID_0Corel-Layer"/>
  <g id="Layers">
   <g id="India_Districts_selection">
    <path fill="#6EA97F" d="M1092 1852l168 63 21 0 11 305 168 0 105 -52 95 -85 10 -63 95 -31 136 94 74 127 52 147 294 -11 116 32 115 53 169 157 10 106 -10 -11 -74 63 -168 179 -84 84 -74 137 -63 63 -94 -21 -53 53 -94 -11 -21 74 -105 -21 -63 42 -42 105 -63 32 -63 52 -42 42 -74 32 -10 -53 -105 -84 -74 -84 -53 -31 -84 -22 -63 -52 -52 -74 -53 -42 -73 -31 -53 -32 -115 -11 -179 0 -94 32 -147 53 -137 52 -115 42 -84 11 -42 -53 -11 -179 11 -126 10 -95 21 -105 42 -94 -31 -95 -21 -116 42 -84 84 -74 73 -84 -21 -53 95 0 73 -42 84 -63 210 -52 105 -42 63 -85 116 -73 52 -53 95 -10 -11 168zm3750 -1684l116 137 42 74 10 137 105 126 158 0 84 137 10 84 95 63 -137 263 -73 200 -42 189 -42 137 -63 200 -11 221 42 126 -10 63 -116 -31 -84 -11 -84 74 -94 95 -74 115 -52 116 -105 158 -53 126 -115 84 -147 74 -169 95 -126 94 -42 53 -42 -84 -42 -42 -73 -116 -105 -137 -95 -52 -63 0 11 -106 -11 -157 63 -85 -21 -94 -199 -263 -252 -242 -137 -179 -210 -126 -200 -179 -136 -11 -53 -105 -210 21 -126 -158 32 -42 63 -116 252 -21 42 -42 -21 -52 -42 -43 63 -178 63 -74 157 0 32 -32 200 -31 -11 -105 53 -158 42 -42 157 -21 63 84 74 42 94 -32 42 -136 137 0 157 -22 168 -73 252 -42 148 -42 273 -11 42 -42 210 -21 136 168z"/>
   </g>
  </g>
 </g>
</svg>
