<?xml version="1.0" encoding="UTF-8"?>
<!DOCTYPE svg PUBLIC "-//W3C//DTD SVG 1.1//EN" "http://www.w3.org/Graphics/SVG/1.1/DTD/svg11.dtd">
<!-- Creator: CorelDRAW X8 -->
<svg xmlns="http://www.w3.org/2000/svg" xml:space="preserve" width="100%" height="100%" version="1.1" shape-rendering="geometricPrecision" text-rendering="geometricPrecision" image-rendering="optimizeQuality" fill-rule="evenodd" clip-rule="evenodd"
viewBox="0 0 1895 1481"
 xmlns:xlink="http://www.w3.org/1999/xlink">
 <g id="Layer_x0020_1">
  <metadata id="CorelCorpID_0Corel-Layer"/>
  <g id="Layers">
   <g id="India_Districts_selection">
    <polygon fill="#6EA97F" points="1635,74 1635,178 1670,247 1713,391 1822,486 1895,621 1796,690 1648,808 1657,929 1687,1116 1713,1242 1557,1372 1405,1368 1249,1229 1136,1320 1058,1242 993,1242 967,1394 833,1481 707,1476 573,1389 490,1190 330,1203 308,1159 152,1033 48,1051 0,1016 22,986 35,799 87,747 95,630 295,625 317,525 555,304 629,278 638,187 711,182 919,117 1063,26 1141,0 1188,17 1184,74 1275,78 1301,26 1440,30 1453,78 "/>
   </g>
  </g>
 </g>
</svg>
