<?xml version="1.0" encoding="UTF-8"?>
<!DOCTYPE svg PUBLIC "-//W3C//DTD SVG 1.1//EN" "http://www.w3.org/Graphics/SVG/1.1/DTD/svg11.dtd">
<!-- Creator: CorelDRAW X8 -->
<svg xmlns="http://www.w3.org/2000/svg" xml:space="preserve" width="100%" height="100%" version="1.1" shape-rendering="geometricPrecision" text-rendering="geometricPrecision" image-rendering="optimizeQuality" fill-rule="evenodd" clip-rule="evenodd"
viewBox="0 0 3007 2986"
 xmlns:xlink="http://www.w3.org/1999/xlink">
 <g id="Layer_x0020_1">
  <metadata id="CorelCorpID_0Corel-Layer"/>
  <g id="Layers">
   <g id="India_Districts_selection">
    <polygon fill="#6EA97F" points="1241,2776 1241,2758 1224,2601 1198,2469 1110,2364 1101,2233 883,2268 848,2154 839,1856 778,1769 734,1655 621,1602 490,1454 420,1445 245,1454 149,1305 52,1103 105,1024 175,911 79,849 87,701 9,648 0,490 35,412 131,438 350,412 446,333 603,263 699,175 839,105 979,44 988,0 1031,79 1058,245 1084,333 1058,403 996,464 865,517 848,630 830,788 830,884 848,928 900,972 935,1033 1093,1060 1180,1095 1241,1103 1320,998 1573,989 1626,1103 1722,1182 1871,1208 2010,1200 2019,1173 2045,1226 2115,1384 2177,1436 2351,1454 2474,1436 2561,1419 2675,1471 2797,1471 2946,1471 2989,1637 3007,1602 2998,1681 2937,1821 2946,1848 2893,1891 2710,1918 2614,1970 2491,2128 2500,2180 2316,2207 2238,2294 2194,2390 2037,2399 1958,2434 2002,2496 1941,2592 1862,2714 1827,2828 1836,2916 1862,2907 1801,2986 1635,2890 1469,2820 1267,2828 "/>
   </g>
  </g>
 </g>
</svg>
