<?xml version="1.0" encoding="UTF-8"?>
<!DOCTYPE svg PUBLIC "-//W3C//DTD SVG 1.1//EN" "http://www.w3.org/Graphics/SVG/1.1/DTD/svg11.dtd">
<!-- Creator: CorelDRAW X8 -->
<svg xmlns="http://www.w3.org/2000/svg" xml:space="preserve" width="100%" height="100%" version="1.1" shape-rendering="geometricPrecision" text-rendering="geometricPrecision" image-rendering="optimizeQuality" fill-rule="evenodd" clip-rule="evenodd"
viewBox="0 0 1655 2233"
 xmlns:xlink="http://www.w3.org/1999/xlink">
 <g id="Layer_x0020_1">
  <metadata id="CorelCorpID_0Corel-Layer"/>
  <g id="Layers">
   <g id="India_Districts_selection">
    <polygon fill="#6EA97F" points="425,33 582,39 883,0 903,131 936,327 1034,655 1250,950 1243,1015 1197,1231 1250,1349 1459,1375 1642,1539 1649,1709 1655,1978 1570,2037 1426,2161 1308,2233 1165,2227 981,2128 595,1919 412,2050 373,2037 281,1919 72,1644 52,1074 0,989 0,838 177,616 491,334 497,118 "/>
   </g>
  </g>
 </g>
</svg>
