<?xml version="1.0" encoding="UTF-8"?>
<!DOCTYPE svg PUBLIC "-//W3C//DTD SVG 1.1//EN" "http://www.w3.org/Graphics/SVG/1.1/DTD/svg11.dtd">
<!-- Creator: CorelDRAW X8 -->
<svg xmlns="http://www.w3.org/2000/svg" xml:space="preserve" width="100%" height="100%" version="1.1" shape-rendering="geometricPrecision" text-rendering="geometricPrecision" image-rendering="optimizeQuality" fill-rule="evenodd" clip-rule="evenodd"
viewBox="0 0 1967 1631"
 xmlns:xlink="http://www.w3.org/1999/xlink">
 <g id="Layer_x0020_1">
  <metadata id="CorelCorpID_0Corel-Layer"/>
  <g id="Layers">
   <g id="India_Districts_selection">
    <polygon fill="#6EA97F" points="1843,1306 1748,1315 1676,1325 1671,1358 1643,1583 1246,1574 1222,1626 979,1631 802,1449 759,1445 454,1435 387,1488 263,1497 191,1464 148,1382 143,1081 81,995 33,856 19,636 0,579 5,574 124,517 158,344 215,220 325,139 487,72 688,43 836,14 950,0 1108,139 1213,225 1299,263 1380,196 1399,177 1399,187 1413,488 1585,497 1643,545 1666,674 1705,737 1867,856 1915,961 1967,1033 1962,1110 1891,1158 1829,1239 "/>
   </g>
  </g>
 </g>
</svg>
