<?xml version="1.0" encoding="UTF-8"?>
<!DOCTYPE svg PUBLIC "-//W3C//DTD SVG 1.1//EN" "http://www.w3.org/Graphics/SVG/1.1/DTD/svg11.dtd">
<!-- Creator: CorelDRAW X8 -->
<svg xmlns="http://www.w3.org/2000/svg" xml:space="preserve" width="100%" height="100%" version="1.1" shape-rendering="geometricPrecision" text-rendering="geometricPrecision" image-rendering="optimizeQuality" fill-rule="evenodd" clip-rule="evenodd"
viewBox="0 0 1489 2083"
 xmlns:xlink="http://www.w3.org/1999/xlink">
 <g id="Layer_x0020_1">
  <metadata id="CorelCorpID_0Corel-Layer"/>
  <g id="Layers">
   <g id="India_Districts_selection">
    <polygon fill="#6EA97F" points="1489,1747 1037,1918 592,2070 525,2083 476,2052 390,1954 250,1961 183,1893 171,1735 177,1741 708,1741 720,1331 464,1093 390,934 348,861 244,745 183,592 98,470 0,397 12,263 55,281 207,275 323,232 470,55 549,0 647,31 848,202 988,373 1354,617 1409,708 1403,800 1391,886 1366,996 1366,1160 1397,1246 1440,1350 1458,1539 1464,1704 "/>
   </g>
  </g>
 </g>
</svg>
