<?xml version="1.0" encoding="UTF-8"?>
<!DOCTYPE svg PUBLIC "-//W3C//DTD SVG 1.1//EN" "http://www.w3.org/Graphics/SVG/1.1/DTD/svg11.dtd">
<!-- Creator: CorelDRAW X8 -->
<svg xmlns="http://www.w3.org/2000/svg" xml:space="preserve" width="100%" height="100%" version="1.1" shape-rendering="geometricPrecision" text-rendering="geometricPrecision" image-rendering="optimizeQuality" fill-rule="evenodd" clip-rule="evenodd"
viewBox="0 0 1793 2083"
 xmlns:xlink="http://www.w3.org/1999/xlink">
 <g id="Layer_x0020_1">
  <metadata id="CorelCorpID_0Corel-Layer"/>
  <g id="Layers">
   <g id="India_Districts_selection">
    <polygon fill="#6EA97F" points="921,2083 902,2070 823,2028 787,1948 695,1844 561,1844 488,1753 384,1686 317,1637 323,1557 354,1502 354,1240 396,1167 372,1051 305,1032 244,922 280,770 323,666 323,605 110,592 37,513 0,483 30,428 43,305 104,263 110,177 189,147 311,159 311,183 384,189 384,79 445,0 512,18 646,49 811,177 902,183 939,153 1036,140 1091,208 1158,208 1225,189 1293,159 1335,134 1341,128 1482,244 1555,281 1610,250 1793,342 1762,391 1732,415 1732,501 1658,544 1616,544 1573,476 1524,458 1469,452 1463,531 1500,599 1469,647 1463,770 1390,831 1372,855 1286,867 1250,922 1341,1051 1433,1148 1457,1325 1463,1564 1451,1692 1463,1722 1408,1790 1366,1832 1250,1838 1110,1967 1049,1997 933,2058 "/>
   </g>
  </g>
 </g>
</svg>
