<?xml version="1.0" encoding="UTF-8"?>
<!DOCTYPE svg PUBLIC "-//W3C//DTD SVG 1.1//EN" "http://www.w3.org/Graphics/SVG/1.1/DTD/svg11.dtd">
<!-- Creator: CorelDRAW X8 -->
<svg xmlns="http://www.w3.org/2000/svg" xml:space="preserve" width="100%" height="100%" version="1.1" shape-rendering="geometricPrecision" text-rendering="geometricPrecision" image-rendering="optimizeQuality" fill-rule="evenodd" clip-rule="evenodd"
viewBox="0 0 1663 1631"
 xmlns:xlink="http://www.w3.org/1999/xlink">
 <g id="Layer_x0020_1">
  <metadata id="CorelCorpID_0Corel-Layer"/>
  <g id="Layers">
   <g id="India_Districts_selection">
    <polygon fill="#6EA97F" points="1663,813 1639,837 1548,933 1491,1000 1452,1062 1419,1076 1371,1114 1347,1177 1295,1205 1300,1287 1271,1315 1223,1320 1233,1516 1228,1550 1147,1598 1051,1631 879,1583 769,1492 741,1401 607,1368 521,1301 420,1325 382,1445 315,1440 148,1258 29,1229 19,1177 62,1091 33,985 0,981 48,957 148,818 196,851 301,827 382,746 440,550 540,493 621,497 717,301 841,230 956,81 989,0 1166,14 1280,277 1405,254 1500,301 1443,440 1347,555 1395,670 1476,751 "/>
   </g>
  </g>
 </g>
</svg>
