<?xml version="1.0" encoding="UTF-8"?>
<!DOCTYPE svg PUBLIC "-//W3C//DTD SVG 1.1//EN" "http://www.w3.org/Graphics/SVG/1.1/DTD/svg11.dtd">
<!-- Creator: CorelDRAW X8 -->
<svg xmlns="http://www.w3.org/2000/svg" xml:space="preserve" width="100%" height="100%" version="1.1" shape-rendering="geometricPrecision" text-rendering="geometricPrecision" image-rendering="optimizeQuality" fill-rule="evenodd" clip-rule="evenodd"
viewBox="0 0 2063 1631"
 xmlns:xlink="http://www.w3.org/1999/xlink">
 <g id="Layer_x0020_1">
  <metadata id="CorelCorpID_0Corel-Layer"/>
  <g id="Layers">
   <g id="India_Districts_selection">
    <polygon fill="#6EA97F" points="2063,899 2020,1024 1943,1153 1824,1253 1590,1339 1518,1382 1361,1488 1237,1559 888,1578 802,1617 726,1631 587,1564 468,1550 329,1483 215,1454 224,1363 181,1306 267,1296 244,1138 191,1033 186,942 96,847 19,698 62,536 0,411 62,225 86,77 53,10 363,0 688,67 945,120 1222,273 1418,588 1652,799 1724,904 "/>
   </g>
  </g>
 </g>
</svg>
