<?xml version="1.0" encoding="UTF-8"?>
<!DOCTYPE svg PUBLIC "-//W3C//DTD SVG 1.1//EN" "http://www.w3.org/Graphics/SVG/1.1/DTD/svg11.dtd">
<!-- Creator: CorelDRAW X8 -->
<svg xmlns="http://www.w3.org/2000/svg" xml:space="preserve" width="100%" height="100%" version="1.1" shape-rendering="geometricPrecision" text-rendering="geometricPrecision" image-rendering="optimizeQuality" fill-rule="evenodd" clip-rule="evenodd"
viewBox="0 0 1099 1631"
 xmlns:xlink="http://www.w3.org/1999/xlink">
 <g id="Layer_x0020_1">
  <metadata id="CorelCorpID_0Corel-Layer"/>
  <g id="Layers">
   <g id="India_Districts_selection">
    <polygon fill="#6EA97F" points="1099,1535 1056,1545 941,1540 822,1593 731,1612 655,1631 583,1578 463,1492 239,1272 81,1215 0,1181 19,665 19,598 24,507 158,220 258,0 377,81 440,91 497,129 745,311 908,320 936,502 946,727 893,871 889,918 889,923 879,1024 917,1119 927,1167 927,1172 951,1272 1018,1430 "/>
   </g>
  </g>
 </g>
</svg>
