<?xml version="1.0" encoding="UTF-8"?>
<!DOCTYPE svg PUBLIC "-//W3C//DTD SVG 1.1//EN" "http://www.w3.org/Graphics/SVG/1.1/DTD/svg11.dtd">
<!-- Creator: CorelDRAW X8 -->
<svg xmlns="http://www.w3.org/2000/svg" xml:space="preserve" width="100%" height="100%" version="1.1" shape-rendering="geometricPrecision" text-rendering="geometricPrecision" image-rendering="optimizeQuality" fill-rule="evenodd" clip-rule="evenodd"
viewBox="0 0 14291 9610"
 xmlns:xlink="http://www.w3.org/1999/xlink">
 <g id="Layer_x0020_1">
  <metadata id="CorelCorpID_0Corel-Layer"/>
  <g id="Layers">
   <g id="India_Districts_selection">
    <polygon fill="#6EA97F" points="14291,3917 14094,3945 13869,4086 13728,4227 13785,4453 13813,4593 13644,4819 13222,5101 12856,5213 12406,5354 12097,5467 12069,5721 11984,5918 11618,6002 10831,5608 10268,5270 10156,5129 9452,5270 9368,5467 9452,5552 9480,5664 9452,5805 9424,6059 9002,6228 8524,6284 8327,6341 8158,6482 8271,7130 8074,7327 7230,7327 6836,7158 6639,7158 6414,7242 6161,7214 5795,6876 5514,6622 4839,6651 4248,6707 3882,7327 3629,7468 3573,8116 3376,8595 2673,9215 2082,9553 1350,9610 563,9046 535,8595 591,8144 1097,7778 1660,7778 2251,8116 2447,7975 2363,7806 2025,7496 2054,7214 2841,6312 3207,5890 3263,5354 2926,5129 2222,4988 1885,4819 1969,4396 2025,3325 2110,3072 956,3184 422,3072 450,2818 0,2593 0,2057 141,1578 535,1409 1069,1296 1238,817 1660,479 2279,197 2532,0 2757,197 3263,254 3545,113 3798,423 4220,592 4304,958 4754,1212 5204,958 5542,817 6414,874 7061,1071 7539,1296 8102,1296 8355,1719 8524,2085 9480,2114 9987,1747 10212,1381 10184,1043 10465,874 10746,789 10887,1043 11225,1015 11365,1296 11703,1324 11872,1099 12181,1099 12434,1409 12547,1409 12856,986 13334,1606 13250,2114 13109,2339 13166,2564 13588,2452 13981,2649 14235,2903 14207,3354 14122,3494 "/>
   </g>
  </g>
 </g>
</svg>
