<?xml version="1.0" encoding="UTF-8"?>
<!DOCTYPE svg PUBLIC "-//W3C//DTD SVG 1.1//EN" "http://www.w3.org/Graphics/SVG/1.1/DTD/svg11.dtd">
<!-- Creator: CorelDRAW X8 -->
<svg xmlns="http://www.w3.org/2000/svg" xml:space="preserve" width="100%" height="100%" version="1.1" shape-rendering="geometricPrecision" text-rendering="geometricPrecision" image-rendering="optimizeQuality" fill-rule="evenodd" clip-rule="evenodd"
viewBox="0 0 2709 2083"
 xmlns:xlink="http://www.w3.org/1999/xlink">
 <g id="Layer_x0020_1">
  <metadata id="CorelCorpID_0Corel-Layer"/>
  <g id="Layers">
   <g id="India_Districts_selection">
    <polygon fill="#6EA97F" points="2690,1032 2574,1051 2532,1075 2068,1093 2050,1173 2025,1191 2019,1240 1159,1240 1080,1289 1074,1331 1031,1338 1007,1380 988,1472 909,1521 854,1551 848,1625 799,1649 793,1735 702,1783 641,1851 622,1912 555,1979 512,2070 433,2083 415,2058 409,1899 403,1643 317,1619 317,1515 256,1502 262,1350 317,1270 317,1234 360,1197 366,1148 445,1118 470,1057 494,1057 519,953 567,934 561,855 482,855 451,806 354,800 287,745 323,702 189,708 18,684 0,409 0,403 12,403 49,354 85,299 146,263 220,220 281,195 281,177 403,153 409,116 573,110 561,153 708,171 750,116 787,98 793,24 994,24 994,165 1019,208 1238,202 1214,92 1281,61 1299,18 1397,12 1434,0 1434,12 1482,12 1537,73 1592,104 1623,177 1678,250 1690,385 1787,464 1952,446 2038,476 2172,483 2275,525 2300,580 2336,672 2477,702 2550,708 2538,751 2635,776 2696,818 2709,837 2709,843 2690,989 "/>
   </g>
  </g>
 </g>
</svg>
