<?xml version="1.0" encoding="UTF-8"?>
<!DOCTYPE svg PUBLIC "-//W3C//DTD SVG 1.1//EN" "http://www.w3.org/Graphics/SVG/1.1/DTD/svg11.dtd">
<!-- Creator: CorelDRAW X8 -->
<svg xmlns="http://www.w3.org/2000/svg" xml:space="preserve" width="100%" height="100%" version="1.1" shape-rendering="geometricPrecision" text-rendering="geometricPrecision" image-rendering="optimizeQuality" fill-rule="evenodd" clip-rule="evenodd"
viewBox="0 0 1836 2083"
 xmlns:xlink="http://www.w3.org/1999/xlink">
 <g id="Layer_x0020_1">
  <metadata id="CorelCorpID_0Corel-Layer"/>
  <g id="Layers">
   <g id="India_Districts_selection">
    <polygon fill="#6EA97F" points="1745,1967 1727,2077 927,2064 879,2083 824,2003 592,1783 256,1600 207,1350 116,1240 37,989 24,409 0,244 183,244 445,171 671,92 671,24 757,18 933,12 1056,6 1110,0 1141,18 1385,226 1470,324 1464,452 1513,544 1519,617 1507,715 1519,812 1544,898 1586,916 1653,971 1678,977 1666,996 1721,1099 1782,1191 1836,1374 1818,1484 1794,1716 "/>
   </g>
  </g>
 </g>
</svg>
