<?xml version="1.0" encoding="UTF-8"?>
<!DOCTYPE svg PUBLIC "-//W3C//DTD SVG 1.1//EN" "http://www.w3.org/Graphics/SVG/1.1/DTD/svg11.dtd">
<!-- Creator: CorelDRAW X8 -->
<svg xmlns="http://www.w3.org/2000/svg" xml:space="preserve" width="100%" height="100%" version="1.1" shape-rendering="geometricPrecision" text-rendering="geometricPrecision" image-rendering="optimizeQuality" fill-rule="evenodd" clip-rule="evenodd"
viewBox="0 0 1151 2233"
 xmlns:xlink="http://www.w3.org/1999/xlink">
 <g id="Layer_x0020_1">
  <metadata id="CorelCorpID_0Corel-Layer"/>
  <g id="Layers">
   <g id="India_Districts_selection">
    <polygon fill="#6EA97F" points="26,576 39,544 39,288 118,170 78,98 98,65 281,52 477,0 601,138 706,236 798,308 981,314 1092,341 1151,458 1131,675 994,891 987,1048 954,1100 987,1349 1072,1552 1072,1880 968,1958 948,2050 837,2089 739,2109 615,2187 399,2233 307,2233 203,2122 78,2017 7,1866 0,1650 39,1552 39,1356 203,1179 190,884 170,792 150,714 65,609 "/>
   </g>
  </g>
 </g>
</svg>
