<?xml version="1.0" encoding="UTF-8"?>
<!DOCTYPE svg PUBLIC "-//W3C//DTD SVG 1.1//EN" "http://www.w3.org/Graphics/SVG/1.1/DTD/svg11.dtd">
<!-- Creator: CorelDRAW X8 -->
<svg xmlns="http://www.w3.org/2000/svg" xml:space="preserve" width="100%" height="100%" version="1.1" shape-rendering="geometricPrecision" text-rendering="geometricPrecision" image-rendering="optimizeQuality" fill-rule="evenodd" clip-rule="evenodd"
viewBox="0 0 1595 2233"
 xmlns:xlink="http://www.w3.org/1999/xlink">
 <g id="Layer_x0020_1">
  <metadata id="CorelCorpID_0Corel-Layer"/>
  <g id="Layers">
   <g id="India_Districts_selection">
    <polygon fill="#6EA97F" points="1085,13 1118,26 1177,85 1242,216 1236,393 1170,498 1131,563 1066,616 1046,819 1072,930 1144,989 1092,1094 1072,1271 1092,1362 1131,1401 1262,1303 1268,1434 1281,1500 1353,1565 1569,1578 1595,1631 1549,1735 1549,1755 1229,1814 981,1762 654,1775 530,2102 340,2227 196,2233 98,2194 26,2011 0,1847 235,1644 209,1421 294,1100 353,792 360,648 78,406 111,314 222,210 327,144 412,59 530,13 680,20 870,0 1066,13 "/>
   </g>
  </g>
 </g>
</svg>
