<?xml version="1.0" encoding="UTF-8"?>
<!DOCTYPE svg PUBLIC "-//W3C//DTD SVG 1.1//EN" "http://www.w3.org/Graphics/SVG/1.1/DTD/svg11.dtd">
<!-- Creator: CorelDRAW X8 -->
<svg xmlns="http://www.w3.org/2000/svg" xml:space="preserve" width="100%" height="100%" version="1.1" shape-rendering="geometricPrecision" text-rendering="geometricPrecision" image-rendering="optimizeQuality" fill-rule="evenodd" clip-rule="evenodd"
viewBox="0 0 943 1405"
 xmlns:xlink="http://www.w3.org/1999/xlink">
 <g id="Layer_x0020_1">
  <metadata id="CorelCorpID_0Corel-Layer"/>
  <polygon fill="#143D21" points="923,530 923,575 930,614 938,659 943,688 940,714 932,749 918,777 907,795 892,817 845,788 814,804 777,862 754,862 742,858 663,830 620,839 611,876 628,976 609,1008 577,1022 562,1029 532,1065 522,1158 512,1217 512,1304 488,1374 351,1405 309,1384 278,1338 268,1248 222,1251 200,1325 179,1362 145,1355 108,1234 68,1158 0,1025 18,892 22,750 86,661 137,541 198,521 263,541 296,529 324,446 367,424 396,422 481,416 523,406 541,401 571,346 587,300 736,232 797,169 799,153 806,155 837,177 850,198 857,246 848,287 828,311 824,326 825,343 838,359 861,369 887,379 907,403 916,450 919,492 "/>
  <g id="_348204376800">
   <path fill="#184225" d="M923 523c0,15 0,30 0,45 3,13 5,26 7,39 3,15 5,30 8,45 2,9 3,19 5,29 -1,8 -2,17 -3,26 -3,11 -5,23 -8,34 -5,10 -10,19 -14,29 -4,6 -7,12 -11,18 -5,7 -10,15 -15,22 -16,-10 -32,-19 -47,-29 -11,5 -21,11 -31,16 -13,19 -25,38 -37,58 -8,0 -15,0 -23,0 -4,-2 -8,-3 -12,-5 -27,-9 -53,-18 -79,-28 -15,3 -29,6 -43,9 -3,13 -6,26 -9,38 5,33 11,67 17,100 -6,10 -12,21 -19,32 -11,5 -21,9 -32,14 -5,2 -10,5 -15,7 -10,12 -20,24 -30,35 -3,31 -6,62 -10,93 -3,20 -7,40 -10,59 0,30 0,59 0,88 -8,23 -16,46 -24,69 -46,11 -92,21 -137,32 -14,-7 -28,-14 -42,-21 -10,-16 -21,-31 -31,-46 -3,-30 -7,-60 -10,-90 -15,1 -31,2 -46,3 -7,24 -15,49 -22,74 -7,12 -14,24 -21,37 -11,-3 -23,-5 -34,-8 -12,-40 -25,-80 -37,-120 -13,-25 -26,-51 -40,-77 -22,-44 -45,-88 -68,-132 6,-45 12,-89 18,-133 1,-48 3,-95 4,-143 22,-29 43,-59 64,-88 17,-40 34,-80 51,-120 21,-7 41,-14 61,-21 22,7 44,14 65,21 11,-4 22,-8 33,-12 9,-28 18,-55 28,-83 14,-7 28,-15 43,-22 9,-1 19,-2 29,-2 28,-2 56,-4 85,-7 14,-3 28,-6 42,-10 6,-1 12,-3 18,-5 10,-18 20,-36 30,-54 5,-16 11,-31 16,-46 50,-23 100,-46 149,-68 20,-21 41,-42 61,-63 1,-6 1,-11 2,-16 2,0 5,1 7,2 10,7 20,14 31,22 4,7 8,14 13,21 2,16 4,32 7,48 -3,13 -6,27 -9,40 -6,8 -13,17 -20,25 -1,5 -3,10 -4,14 0,6 1,12 1,18 4,5 9,10 13,16 8,3 15,6 23,9 9,4 17,7 26,11 7,8 13,16 20,24 3,16 6,31 9,46 1,14 2,29 3,43 1,12 3,25 4,38z"/>
   <path fill="#1C472A" d="M923 516c0,15 0,30 0,45 3,13 5,26 7,39 3,15 5,30 8,45 2,9 3,19 5,28 -1,9 -2,18 -3,27 -3,11 -5,23 -8,34 -5,10 -10,19 -14,29 -4,6 -7,12 -11,18 -5,7 -10,14 -15,22 -16,-10 -32,-20 -47,-29 -11,5 -21,10 -31,16 -13,19 -25,38 -37,57 -8,0 -15,0 -23,0 -4,-1 -8,-2 -12,-4 -27,-9 -53,-19 -79,-28 -15,3 -29,6 -43,9 -3,13 -6,25 -9,38 5,33 11,66 17,99 -6,11 -12,22 -19,33 -11,4 -21,9 -32,14 -5,2 -10,4 -15,7 -10,11 -20,23 -30,35 -3,31 -6,62 -10,93 -3,20 -7,39 -10,59 0,29 0,59 0,88 -8,23 -16,46 -24,69 -46,10 -92,21 -137,31 -14,-7 -28,-14 -42,-21 -10,-15 -21,-30 -31,-46 -3,-30 -7,-60 -10,-90 -15,1 -31,2 -46,3 -7,25 -15,50 -22,74 -7,13 -14,25 -21,37 -11,-2 -23,-5 -34,-7 -13,-40 -25,-80 -37,-120 -13,-26 -26,-51 -40,-77 -22,-44 -45,-88 -68,-133 6,-44 12,-88 18,-133 1,-47 3,-94 4,-142 22,-29 43,-59 64,-89 17,-39 34,-79 51,-119 21,-7 41,-14 61,-21 22,7 44,14 65,21 11,-4 22,-8 33,-12 9,-28 18,-56 28,-83 14,-7 28,-15 43,-22 9,-1 19,-2 29,-3 28,-2 56,-4 85,-6 14,-3 28,-7 42,-10 6,-2 12,-3 18,-5 10,-18 20,-36 30,-55 5,-15 11,-30 16,-45 50,-23 100,-46 149,-69 20,-21 41,-42 61,-63 1,-5 1,-10 2,-16 2,1 5,2 7,3 10,7 20,14 31,21 4,8 8,15 13,22 2,16 4,32 7,48 -3,13 -6,27 -9,40 -6,8 -13,16 -20,25 -1,4 -3,9 -4,14 0,6 1,12 1,17 4,6 9,11 13,16 8,4 15,7 23,10 9,4 17,7 26,11 7,8 13,16 20,24 3,15 6,31 9,46 1,14 2,28 3,42 1,13 3,26 4,39z"/>
   <path fill="#214C2E" d="M923 509c0,15 0,29 0,44 3,13 5,26 7,39 3,15 5,30 8,45 2,10 3,19 5,29 -1,9 -2,18 -3,26 -3,12 -5,23 -8,35 -5,9 -10,19 -14,28 -4,6 -7,12 -11,18 -5,8 -10,15 -15,22 -16,-9 -32,-19 -47,-29 -11,6 -21,11 -32,16 -12,20 -24,39 -36,58 -8,0 -15,0 -23,0 -4,-1 -8,-3 -12,-4 -27,-10 -53,-19 -79,-28 -15,3 -29,6 -43,9 -3,12 -6,25 -9,38 5,33 11,66 17,99 -6,11 -12,22 -19,32 -11,5 -21,10 -32,14 -5,3 -10,5 -15,7 -10,12 -20,24 -30,36 -3,31 -6,62 -10,93 -3,20 -7,39 -10,59 0,29 0,58 0,88 -8,23 -16,46 -24,69 -46,10 -92,21 -137,31 -14,-7 -28,-14 -42,-21 -10,-15 -21,-30 -31,-46 -3,-30 -7,-60 -10,-90 -15,1 -31,2 -46,3 -7,25 -15,49 -22,74 -7,12 -14,25 -21,37 -11,-2 -23,-5 -34,-7 -13,-40 -25,-80 -37,-120 -13,-26 -26,-52 -40,-77 -22,-44 -45,-89 -68,-133 6,-44 12,-89 18,-133 1,-47 3,-95 4,-142 22,-30 43,-59 64,-89 17,-40 34,-80 51,-119 21,-7 41,-14 61,-21 22,7 44,14 65,21 11,-4 22,-9 33,-13 9,-27 18,-55 28,-82 14,-8 28,-15 43,-23 9,0 19,-1 29,-2 28,-2 56,-4 85,-6 14,-4 28,-7 42,-10 6,-2 12,-4 18,-5 10,-18 20,-37 30,-55 5,-15 11,-30 16,-46 50,-22 100,-45 149,-68 20,-21 41,-42 61,-63 1,-5 1,-11 2,-16 2,1 5,2 7,2 10,8 20,15 31,22 4,7 8,14 13,21 2,16 4,32 7,48 -3,14 -6,27 -9,41 -6,8 -13,16 -20,24 -1,5 -3,10 -4,15 0,6 1,11 1,17 4,5 9,11 13,16 8,3 15,7 23,10 9,3 17,7 26,10 7,8 13,16 20,25 3,15 6,30 9,46 1,14 2,28 3,42 1,13 3,26 4,39z"/>
   <path fill="#255133" d="M923 501c0,15 0,30 0,45 3,13 5,26 7,39 3,15 5,30 8,45 2,10 3,19 5,29 -1,9 -2,17 -3,26 -3,12 -5,23 -8,35 -5,9 -10,19 -14,28 -4,6 -7,12 -11,18 -5,7 -10,15 -15,22 -16,-10 -32,-19 -47,-29 -11,5 -21,11 -32,16 -12,19 -24,39 -36,58 -8,0 -15,0 -23,0 -4,-2 -8,-3 -12,-4 -27,-10 -53,-19 -79,-29 -15,3 -29,7 -43,10 -3,12 -6,25 -9,37 5,34 11,67 17,100 -6,11 -12,21 -19,32 -11,5 -21,10 -32,14 -5,2 -10,5 -15,7 -10,12 -20,24 -30,35 -3,32 -6,63 -10,94 -3,19 -7,39 -10,59 0,29 0,58 0,87 -8,23 -16,46 -24,69 -46,11 -92,21 -137,32 -14,-7 -28,-14 -42,-21 -10,-15 -21,-31 -31,-46 -3,-30 -7,-60 -10,-90 -15,1 -31,2 -46,3 -7,24 -15,49 -22,74 -7,12 -14,24 -21,37 -11,-3 -23,-5 -34,-8 -13,-40 -25,-80 -37,-120 -13,-25 -26,-51 -40,-76 -22,-45 -45,-89 -68,-133 6,-45 12,-89 18,-133 1,-48 3,-95 4,-142 22,-30 43,-60 64,-89 17,-40 34,-80 51,-120 21,-7 41,-14 61,-21 22,7 44,14 65,21 11,-4 22,-8 33,-12 9,-28 18,-55 28,-83 14,-7 28,-14 43,-22 9,-1 19,-1 29,-2 28,-2 56,-4 85,-6 14,-4 28,-7 42,-11 6,-1 12,-3 18,-5 10,-18 20,-36 30,-54 5,-15 11,-31 16,-46 50,-23 100,-45 149,-68 20,-21 41,-42 61,-63 1,-6 1,-11 2,-16 2,1 5,1 7,2 10,7 20,15 31,22 4,7 8,14 13,21 2,16 4,32 7,48 -3,13 -6,27 -9,40 -6,9 -13,17 -20,25 -1,5 -3,10 -4,15 0,5 1,11 1,17 4,5 8,10 13,16 8,3 15,6 23,10 9,3 17,7 26,10 7,8 13,16 20,24 3,16 6,31 9,46 1,15 2,29 3,43 1,13 3,25 4,38z"/>
   <path fill="#295637" d="M923 494c0,15 0,30 0,45 3,13 5,26 7,39 3,15 5,30 8,45 2,9 3,19 5,28 -1,9 -2,18 -3,27 -3,11 -5,23 -8,34 -5,10 -10,19 -14,29 -4,6 -7,12 -11,18 -5,7 -10,14 -15,22 -16,-10 -32,-19 -47,-29 -11,5 -21,11 -32,16 -12,19 -24,38 -36,57 -8,0 -15,0 -23,0 -4,-1 -8,-2 -12,-4 -27,-9 -53,-18 -79,-28 -15,3 -29,6 -43,9 -3,13 -6,25 -9,38 5,33 11,66 17,100 -6,10 -12,21 -19,32 -11,5 -21,9 -32,14 -5,2 -10,4 -15,7 -10,12 -20,23 -30,35 -3,31 -6,62 -10,93 -3,20 -7,40 -10,59 0,30 0,59 0,88 -8,23 -16,46 -24,69 -46,11 -92,21 -137,31 -14,-7 -28,-13 -42,-20 -10,-16 -21,-31 -31,-46 -3,-30 -7,-60 -10,-90 -15,1 -31,2 -46,2 -7,25 -15,50 -22,75 -7,12 -14,24 -21,36 -11,-2 -23,-4 -34,-7 -13,-40 -25,-80 -37,-120 -13,-26 -26,-51 -40,-77 -22,-44 -45,-88 -68,-132 6,-45 12,-89 18,-134 1,-47 3,-94 4,-142 22,-29 43,-59 64,-88 17,-40 34,-80 51,-120 21,-7 41,-14 61,-21 22,7 44,14 65,21 11,-4 22,-8 33,-12 9,-28 18,-55 28,-83 14,-7 28,-15 43,-22 9,-1 19,-2 29,-2 28,-3 56,-5 85,-7 14,-3 28,-6 42,-10 6,-2 12,-3 18,-5 10,-18 20,-36 30,-54 5,-16 11,-31 16,-46 50,-23 100,-46 149,-68 20,-21 41,-43 61,-64 1,-5 1,-10 2,-15 2,0 5,1 7,2 10,7 20,14 31,22 4,7 8,14 13,21 2,16 4,32 7,48 -3,13 -6,27 -9,40 -7,8 -13,16 -20,25 -1,5 -3,9 -4,14 0,6 1,12 1,17 4,6 8,11 13,16 8,4 15,7 23,10 9,4 17,7 26,11 7,8 13,16 20,24 3,15 6,31 9,46 1,14 2,28 3,42 1,13 3,26 4,39z"/>
   <path fill="#2D5B3C" d="M923 487c0,15 0,30 0,44 2,13 5,27 7,40 3,15 5,29 8,44 1,10 3,20 5,29 -1,9 -2,18 -3,27 -3,11 -5,22 -8,34 -5,10 -10,19 -14,29 -4,6 -7,11 -11,17 -5,8 -10,15 -15,23 -16,-10 -32,-20 -47,-29 -11,5 -21,10 -32,16 -12,19 -24,38 -36,57 -8,0 -15,0 -23,0 -4,-1 -8,-3 -12,-4 -27,-9 -53,-19 -79,-28 -15,3 -29,6 -43,9 -3,13 -6,25 -10,38 6,33 12,66 18,99 -6,11 -12,22 -19,33 -11,4 -21,9 -32,14 -5,2 -10,4 -15,6 -10,12 -20,24 -30,36 -3,31 -6,62 -10,93 -3,20 -7,39 -10,59 0,29 0,58 0,88 -8,23 -16,46 -24,69 -46,10 -92,21 -137,31 -14,-7 -28,-14 -42,-21 -10,-15 -21,-30 -31,-46 -4,-30 -7,-60 -10,-90 -15,1 -31,2 -46,3 -7,25 -15,50 -22,74 -7,13 -14,25 -21,37 -11,-2 -23,-5 -34,-7 -13,-40 -25,-80 -37,-120 -13,-26 -27,-51 -40,-77 -22,-44 -45,-88 -68,-133 6,-44 12,-88 18,-133 1,-47 3,-95 4,-142 22,-30 43,-59 64,-89 17,-40 34,-79 51,-119 21,-7 41,-14 61,-21 22,7 44,14 65,21 11,-4 22,-8 33,-13 9,-27 18,-55 28,-82 14,-8 28,-15 43,-22 9,-1 19,-2 29,-3 28,-2 56,-4 85,-6 14,-3 28,-7 42,-10 6,-2 12,-3 18,-5 10,-18 20,-36 30,-55 5,-15 11,-30 16,-46 50,-22 100,-45 149,-68 20,-21 41,-42 61,-63 1,-5 1,-10 2,-16 2,1 5,2 7,3 10,7 20,14 31,21 4,7 8,15 12,22 3,16 5,31 8,47 -3,14 -6,27 -9,41 -7,8 -13,16 -20,24 -1,5 -3,10 -4,15 0,6 0,11 1,17 4,6 8,11 13,16 8,3 15,7 23,10 9,4 17,7 26,10 7,9 13,17 20,25 3,15 6,31 9,46 1,14 2,28 3,42 1,13 3,26 4,39z"/>
   <path fill="#326040" d="M923 480c0,14 0,29 0,44 2,13 5,26 7,39 3,15 5,30 8,45 1,10 3,19 5,29 -1,9 -2,17 -3,26 -3,12 -5,23 -8,35 -5,9 -10,19 -14,28 -4,6 -7,12 -11,18 -5,8 -10,15 -15,22 -16,-9 -32,-19 -47,-29 -11,6 -21,11 -32,16 -12,19 -24,39 -36,58 -8,0 -15,0 -23,0 -4,-1 -8,-3 -12,-4 -27,-10 -53,-19 -79,-28 -15,3 -29,6 -43,9 -3,12 -6,25 -10,38 6,33 12,66 18,99 -6,11 -13,22 -19,32 -11,5 -21,10 -32,14 -5,3 -10,5 -15,7 -10,12 -20,24 -30,36 -3,31 -6,62 -10,93 -3,19 -7,39 -10,59 0,29 0,58 0,87 -8,23 -16,47 -24,70 -46,10 -92,20 -137,31 -14,-7 -28,-14 -42,-21 -10,-15 -21,-31 -31,-46 -4,-30 -7,-60 -10,-90 -15,1 -31,2 -46,3 -7,25 -15,49 -22,74 -7,12 -14,25 -21,37 -11,-3 -23,-5 -34,-7 -13,-40 -25,-80 -37,-121 -13,-25 -27,-51 -40,-76 -22,-44 -45,-89 -68,-133 6,-44 12,-89 18,-133 1,-48 3,-95 4,-142 22,-30 43,-59 64,-89 17,-40 34,-80 51,-120 21,-6 41,-13 61,-20 22,7 44,14 65,20 11,-4 22,-8 33,-12 9,-27 18,-55 28,-83 14,-7 28,-14 43,-22 9,0 19,-1 29,-2 28,-2 56,-4 85,-6 14,-4 28,-7 42,-10 6,-2 12,-4 18,-5 10,-19 20,-37 30,-55 5,-15 11,-31 16,-46 50,-23 100,-45 149,-68 20,-21 41,-42 61,-63 1,-5 1,-11 2,-16 2,1 5,2 7,2 10,8 20,15 31,22 4,7 8,14 12,21 3,16 5,32 8,48 -3,14 -6,27 -9,41 -7,8 -13,16 -20,24 -1,5 -3,10 -4,15 0,5 0,11 1,17 4,5 8,11 13,16 8,3 15,6 23,10 9,3 17,7 26,10 7,8 13,16 20,24 3,16 6,31 9,47 1,14 2,28 3,42 1,13 3,26 4,39z"/>
   <path fill="#366545" d="M923 472c0,15 0,30 0,45 2,13 5,26 7,39 3,15 5,30 8,45 1,9 3,19 5,29 -1,8 -2,17 -3,26 -3,11 -5,23 -8,34 -5,10 -10,20 -14,29 -4,6 -7,12 -11,18 -5,7 -10,15 -15,22 -16,-10 -32,-19 -48,-29 -10,5 -20,11 -31,16 -12,19 -24,38 -36,58 -8,0 -15,0 -23,0 -4,-2 -8,-3 -12,-5 -27,-9 -53,-18 -79,-28 -15,3 -29,6 -43,9 -3,13 -6,26 -10,38 6,33 12,67 18,100 -6,10 -13,21 -19,32 -11,5 -21,9 -32,14 -5,2 -10,5 -15,7 -10,12 -20,24 -30,35 -3,31 -6,62 -10,93 -3,20 -7,40 -10,59 0,30 0,59 0,88 -8,23 -16,46 -24,69 -46,11 -92,21 -137,32 -14,-7 -28,-14 -42,-21 -10,-16 -21,-31 -31,-46 -4,-30 -7,-60 -10,-90 -15,1 -31,2 -46,3 -7,24 -15,49 -22,74 -7,12 -14,24 -21,37 -11,-3 -23,-5 -34,-8 -13,-40 -25,-80 -37,-120 -13,-25 -27,-51 -40,-77 -22,-44 -45,-88 -68,-132 6,-45 12,-89 18,-133 1,-48 3,-95 4,-143 22,-29 43,-59 64,-88 17,-40 34,-80 51,-120 21,-7 41,-14 61,-21 22,7 44,14 65,21 11,-4 22,-8 33,-12 9,-28 18,-55 28,-83 14,-7 28,-15 42,-22 10,-1 20,-2 30,-2 28,-2 56,-4 85,-7 14,-3 28,-6 42,-10 6,-1 12,-3 18,-5 10,-18 20,-36 30,-54 5,-16 11,-31 16,-46 50,-23 100,-46 149,-68 20,-21 41,-42 61,-63 1,-6 1,-11 2,-16 2,0 5,1 7,2 10,7 20,14 31,22 4,7 8,14 12,21 3,16 5,32 8,48 -3,13 -6,27 -9,40 -7,8 -13,17 -20,25 -1,5 -3,10 -4,14 0,6 0,12 1,18 4,5 8,10 13,16 8,3 15,6 23,9 9,4 17,7 26,11 7,8 13,16 20,24 3,16 6,31 9,46 1,14 2,29 3,43 1,12 3,25 4,38z"/>
   <path fill="#3A6A49" d="M923 465c0,15 0,30 0,45 2,13 5,26 7,39 3,15 5,30 8,45 1,9 3,19 5,28 -1,9 -2,18 -3,27 -3,11 -5,23 -8,34 -5,10 -10,19 -14,29 -4,6 -7,12 -11,18 -5,7 -10,14 -15,22 -16,-10 -32,-20 -48,-29 -10,5 -20,10 -31,16 -12,19 -24,38 -36,57 -8,0 -15,0 -23,0 -4,-1 -8,-2 -12,-4 -27,-9 -53,-19 -79,-28 -15,3 -29,6 -43,9 -3,13 -7,25 -10,38 6,33 12,66 18,99 -6,11 -13,22 -19,33 -11,4 -21,9 -32,14 -5,2 -10,4 -15,7 -10,11 -20,23 -30,35 -3,31 -6,62 -10,93 -3,20 -7,40 -10,59 0,29 0,59 0,88 -8,23 -16,46 -24,69 -46,10 -92,21 -137,31 -14,-7 -28,-14 -42,-21 -10,-15 -21,-30 -31,-45 -4,-30 -7,-61 -10,-91 -15,1 -31,2 -46,3 -7,25 -15,50 -22,74 -7,13 -14,25 -21,37 -11,-2 -23,-5 -34,-7 -13,-40 -25,-80 -37,-120 -13,-26 -27,-51 -40,-77 -22,-44 -45,-88 -68,-133 6,-44 12,-88 18,-133 1,-47 3,-94 4,-142 22,-29 43,-59 64,-89 17,-39 34,-79 51,-119 21,-7 41,-14 61,-21 22,7 43,14 65,21 11,-4 22,-8 33,-12 9,-28 18,-55 28,-83 14,-7 28,-15 42,-22 10,-1 20,-2 30,-3 28,-2 56,-4 85,-6 14,-3 28,-7 42,-10 6,-2 12,-3 18,-5 10,-18 20,-36 30,-55 5,-15 11,-30 16,-45 50,-23 100,-46 149,-69 20,-21 41,-42 61,-63 1,-5 1,-10 2,-16 2,1 5,2 7,3 10,7 20,14 31,21 4,8 8,15 12,22 3,16 5,32 8,48 -3,13 -6,27 -9,40 -7,8 -13,16 -20,25 -1,4 -3,9 -4,14 0,6 0,12 1,17 4,6 8,11 13,16 8,4 15,7 23,10 9,4 17,7 26,11 7,8 13,16 20,24 3,15 6,31 9,46 1,14 2,28 3,42 1,13 3,26 4,39z"/>
   <path fill="#3E6F4E" d="M923 458c0,15 0,29 0,44 2,13 5,26 7,39 3,15 5,30 8,45 1,10 3,19 5,29 -1,9 -2,18 -3,26 -3,12 -6,23 -8,35 -5,9 -10,19 -14,29 -4,5 -7,11 -11,17 -5,8 -10,15 -15,22 -16,-9 -32,-19 -48,-29 -10,6 -20,11 -31,16 -12,20 -24,39 -36,58 -8,0 -16,0 -23,0 -4,-1 -8,-3 -12,-4 -27,-9 -53,-19 -79,-28 -15,3 -29,6 -43,9 -3,12 -7,25 -10,38 6,33 12,66 18,99 -6,11 -13,22 -19,32 -11,5 -21,10 -32,15 -5,2 -10,4 -15,6 -10,12 -20,24 -30,36 -3,31 -6,62 -10,93 -3,20 -7,39 -10,59 0,29 0,58 0,88 -8,23 -16,46 -24,69 -46,10 -92,21 -137,31 -14,-7 -28,-14 -42,-21 -10,-15 -21,-30 -31,-46 -4,-30 -7,-60 -10,-90 -15,1 -31,2 -46,3 -7,25 -15,49 -22,74 -7,12 -14,25 -21,37 -11,-2 -23,-5 -34,-7 -13,-40 -25,-80 -37,-120 -13,-26 -27,-52 -40,-77 -22,-44 -45,-89 -68,-133 6,-44 12,-89 18,-133 1,-47 3,-95 4,-142 22,-30 43,-59 64,-89 17,-40 34,-80 51,-119 21,-7 41,-14 61,-21 22,7 43,14 65,21 11,-4 22,-9 32,-13 10,-27 19,-55 29,-82 14,-8 28,-15 42,-23 10,0 20,-1 30,-2 28,-2 56,-4 85,-6 14,-4 28,-7 42,-10 6,-2 12,-4 18,-5 10,-18 20,-37 30,-55 5,-15 11,-30 16,-46 50,-22 100,-45 149,-68 20,-21 41,-42 61,-63 1,-5 1,-11 2,-16 2,1 5,2 7,2 10,8 20,15 31,22 4,7 8,14 12,22 3,15 5,31 8,47 -3,14 -6,27 -9,41 -7,8 -13,16 -20,24 -1,5 -3,10 -4,15 0,6 0,11 1,17 4,5 8,11 13,16 8,3 15,7 23,10 9,3 17,7 26,10 7,8 13,17 20,25 3,15 6,30 9,46 1,14 2,28 3,42 1,13 3,26 4,39z"/>
   <path fill="#437552" d="M923 450c0,15 0,30 0,45 2,13 5,26 7,39 3,15 5,30 8,45 1,10 3,19 5,29 -1,9 -2,17 -3,26 -3,12 -6,23 -8,35 -5,9 -10,19 -14,28 -4,6 -7,12 -11,18 -5,7 -10,15 -15,22 -16,-9 -32,-19 -48,-29 -10,6 -20,11 -31,16 -12,19 -24,39 -36,58 -8,0 -16,0 -23,0 -4,-2 -8,-3 -12,-4 -27,-10 -53,-19 -79,-29 -15,3 -29,7 -43,10 -4,12 -7,25 -10,37 6,34 12,67 18,100 -6,11 -13,21 -19,32 -11,5 -21,10 -32,14 -5,3 -10,5 -15,7 -10,12 -20,24 -30,35 -3,32 -6,63 -10,94 -3,19 -7,39 -10,59 0,29 0,58 0,87 -8,23 -16,46 -24,69 -46,11 -92,21 -137,32 -14,-7 -28,-14 -42,-21 -10,-15 -21,-31 -31,-46 -4,-30 -7,-60 -10,-90 -15,1 -31,2 -46,3 -7,25 -15,49 -22,74 -7,12 -14,24 -21,37 -11,-3 -23,-5 -34,-8 -13,-40 -25,-80 -37,-120 -13,-25 -27,-51 -40,-76 -22,-45 -45,-89 -68,-133 6,-45 12,-89 18,-133 1,-48 3,-95 4,-142 22,-30 43,-60 64,-89 17,-40 34,-80 51,-120 21,-7 41,-14 61,-21 22,7 43,14 65,21 11,-4 22,-8 32,-12 10,-27 19,-55 29,-83 14,-7 28,-14 42,-22 10,-1 20,-1 30,-2 28,-2 56,-4 84,-6 15,-4 29,-7 43,-11 6,-1 12,-3 18,-5 10,-18 20,-36 30,-54 5,-15 11,-31 16,-46 50,-23 99,-45 149,-68 20,-21 41,-42 61,-63 0,-6 1,-11 2,-16 2,1 5,1 7,2 10,7 20,15 31,22 4,7 8,14 12,21 3,16 5,32 8,48 -3,13 -6,27 -9,40 -7,9 -13,17 -20,25 -1,5 -3,10 -4,15 0,5 0,11 1,17 4,5 8,10 13,16 8,3 15,6 23,10 9,3 17,7 26,10 7,8 13,16 20,24 3,16 6,31 9,47 1,14 2,28 3,42 1,13 3,26 4,38z"/>
   <path fill="#477A57" d="M923 443c0,15 0,30 0,45 2,13 5,26 7,39 3,15 5,30 8,45 1,9 3,19 5,28 -1,9 -2,18 -3,27 -3,11 -6,23 -8,34 -5,10 -10,19 -14,29 -4,6 -7,12 -11,18 -5,7 -10,14 -15,22 -16,-10 -32,-19 -48,-29 -10,5 -20,11 -31,16 -12,19 -24,38 -36,57 -8,0 -16,0 -23,0 -4,-1 -8,-2 -12,-4 -27,-9 -53,-18 -79,-28 -15,3 -29,6 -43,9 -4,13 -7,26 -10,38 6,33 12,66 18,100 -6,10 -13,21 -19,32 -11,5 -21,9 -32,14 -5,2 -10,4 -15,7 -10,12 -20,23 -30,35 -3,31 -6,62 -10,93 -3,20 -7,40 -10,59 0,30 0,59 0,88 -8,23 -16,46 -24,69 -46,11 -92,21 -137,31 -14,-6 -28,-13 -42,-20 -10,-16 -21,-31 -31,-46 -4,-30 -7,-60 -10,-90 -15,1 -31,2 -46,3 -7,24 -15,49 -22,74 -7,12 -14,24 -21,36 -11,-2 -23,-4 -34,-7 -13,-40 -25,-80 -37,-120 -13,-25 -27,-51 -40,-77 -23,-44 -45,-88 -68,-132 6,-45 12,-89 18,-134 1,-47 3,-94 4,-142 21,-29 43,-59 64,-88 17,-40 34,-80 51,-120 21,-7 41,-14 61,-21 22,7 43,14 65,21 11,-4 22,-8 32,-12 10,-28 19,-55 29,-83 14,-7 28,-15 42,-22 10,-1 20,-2 30,-2 28,-3 56,-5 84,-7 15,-3 29,-6 43,-10 6,-2 12,-3 18,-5 10,-18 20,-36 29,-54 6,-16 12,-31 17,-46 50,-23 99,-46 149,-68 20,-21 41,-42 61,-64 0,-5 1,-10 2,-15 2,0 5,1 7,2 10,7 20,14 31,22 4,7 8,14 12,21 3,16 5,32 8,48 -3,13 -6,27 -9,40 -7,8 -13,17 -20,25 -1,5 -3,9 -4,14 0,6 0,12 1,17 4,6 8,11 13,16 8,4 15,7 23,10 9,4 17,7 26,11 6,8 13,16 20,24 3,15 6,31 9,46 1,14 2,28 3,42 1,13 3,26 4,39z"/>
   <path fill="#4B7F5B" d="M923 436c0,15 0,30 0,44 2,14 5,27 7,40 3,15 5,30 8,44 1,10 3,20 5,29 -1,9 -2,18 -3,27 -3,11 -6,22 -8,34 -5,10 -10,19 -14,29 -4,6 -7,11 -11,17 -5,8 -10,15 -15,23 -16,-10 -32,-20 -48,-29 -10,5 -20,10 -31,16 -12,19 -24,38 -36,57 -8,0 -16,0 -23,0 -4,-1 -8,-3 -12,-4 -27,-9 -53,-19 -79,-28 -15,3 -29,6 -43,9 -4,13 -7,25 -10,38 6,33 12,66 18,99 -6,11 -13,22 -19,33 -11,4 -22,9 -32,14 -5,2 -10,4 -15,6 -10,12 -20,24 -30,36 -3,31 -7,62 -10,93 -3,20 -7,39 -10,59 0,29 0,58 0,88 -8,23 -16,46 -24,69 -46,10 -92,21 -137,31 -14,-7 -28,-14 -42,-21 -10,-15 -21,-30 -31,-46 -4,-30 -7,-60 -10,-90 -15,1 -31,2 -46,3 -7,25 -15,50 -22,74 -7,13 -14,25 -21,37 -11,-2 -23,-5 -34,-7 -13,-40 -25,-80 -37,-120 -13,-26 -27,-51 -40,-77 -23,-44 -45,-88 -68,-133 6,-44 12,-88 18,-133 1,-47 3,-95 4,-142 21,-30 43,-59 64,-89 17,-40 34,-79 51,-119 21,-7 41,-14 61,-21 22,7 43,14 65,21 11,-4 22,-8 32,-12 10,-28 19,-56 29,-83 14,-8 28,-15 42,-22 10,-1 20,-2 30,-3 28,-2 56,-4 84,-6 15,-3 29,-7 43,-10 6,-2 12,-3 18,-5 10,-18 20,-36 29,-55 6,-15 12,-30 17,-46 50,-22 99,-45 149,-68 20,-21 40,-42 61,-63 0,-5 1,-10 2,-16 2,1 5,2 7,3 10,7 20,14 31,21 4,7 8,15 12,22 3,16 5,31 8,47 -3,14 -6,27 -9,41 -7,8 -13,16 -20,24 -1,5 -3,10 -4,15 0,6 0,11 1,17 4,6 8,11 13,16 7,3 15,7 23,10 9,4 17,7 26,10 6,9 13,17 20,25 3,15 6,31 9,46 1,14 2,28 3,42 1,13 3,26 4,39z"/>
   <path fill="#4F8460" d="M923 429c0,14 0,29 0,44 2,13 5,26 7,39 3,15 5,30 8,45 1,10 3,19 5,29 -1,9 -2,17 -3,26 -3,12 -6,23 -8,35 -5,9 -10,19 -14,28 -4,6 -7,12 -11,18 -5,8 -10,15 -15,22 -16,-9 -32,-19 -48,-29 -10,6 -20,11 -31,16 -12,19 -24,39 -36,58 -8,0 -16,0 -23,0 -4,-1 -8,-3 -12,-4 -27,-10 -53,-19 -79,-28 -15,3 -29,6 -44,9 -3,12 -6,25 -9,38 6,33 12,66 18,99 -6,11 -13,22 -19,32 -11,5 -22,10 -32,14 -5,3 -10,5 -15,7 -10,12 -20,24 -30,36 -3,31 -7,62 -10,93 -3,19 -7,39 -10,59 0,29 0,58 0,87 -8,23 -16,47 -24,70 -46,10 -92,20 -137,31 -14,-7 -28,-14 -42,-21 -10,-15 -21,-31 -31,-46 -4,-30 -7,-60 -10,-90 -16,1 -31,2 -46,3 -7,25 -15,49 -22,74 -7,12 -14,25 -21,37 -11,-3 -23,-5 -34,-7 -13,-40 -25,-80 -37,-120 -13,-26 -27,-52 -40,-77 -23,-44 -45,-89 -68,-133 6,-44 12,-89 18,-133 1,-47 3,-95 4,-142 21,-30 43,-59 64,-89 17,-40 34,-80 51,-119 21,-7 41,-14 61,-21 22,7 43,14 65,21 11,-5 22,-9 32,-13 10,-27 19,-55 29,-82 14,-8 28,-15 42,-23 10,0 20,-1 30,-2 28,-2 56,-4 84,-6 15,-4 29,-7 43,-10 6,-2 12,-4 18,-5 10,-19 20,-37 29,-55 6,-15 12,-31 17,-46 50,-23 99,-45 149,-68 20,-21 40,-42 61,-63 0,-5 1,-11 2,-16 2,1 5,2 7,2 10,8 20,15 31,22 4,7 8,14 12,21 3,16 5,32 8,48 -3,14 -6,27 -9,41 -7,8 -13,16 -20,24 -1,5 -3,10 -4,15 0,5 0,11 1,17 4,5 8,11 13,16 7,3 15,6 23,10 9,3 17,7 26,10 6,8 13,16 20,24 3,16 6,31 9,47 1,14 2,28 3,42 1,13 2,26 4,39z"/>
   <path fill="#548964" d="M923 421c0,15 0,30 0,45 2,13 5,26 7,39 3,15 5,30 8,45 1,9 3,19 5,29 -1,8 -2,17 -3,26 -3,11 -6,23 -8,34 -5,10 -10,20 -14,29 -4,6 -7,12 -11,18 -5,7 -10,15 -15,22 -16,-10 -32,-19 -48,-29 -10,5 -20,11 -31,16 -12,19 -24,38 -36,58 -8,0 -16,0 -23,0 -4,-2 -8,-3 -12,-5 -27,-9 -53,-18 -79,-28 -15,3 -29,6 -44,9 -3,13 -6,26 -9,38 6,33 12,67 18,100 -6,10 -13,21 -19,32 -11,5 -22,9 -32,14 -5,2 -10,5 -15,7 -10,12 -20,24 -30,35 -3,31 -7,62 -10,94 -3,19 -7,39 -10,58 0,30 0,59 0,88 -8,23 -16,46 -24,69 -46,11 -92,21 -137,32 -14,-7 -28,-14 -42,-21 -10,-16 -21,-31 -31,-46 -4,-30 -7,-60 -10,-90 -16,1 -31,2 -46,3 -7,24 -15,49 -22,74 -7,12 -14,24 -21,37 -11,-3 -23,-5 -34,-8 -13,-40 -25,-80 -37,-120 -13,-25 -27,-51 -40,-76 -23,-45 -45,-89 -68,-133 6,-45 12,-89 18,-133 1,-48 3,-95 4,-143 21,-29 43,-59 64,-88 17,-40 34,-80 51,-120 21,-7 41,-14 61,-21 22,7 43,14 65,21 11,-4 22,-8 32,-12 10,-28 19,-55 29,-83 14,-7 28,-15 42,-22 10,-1 20,-1 30,-2 28,-2 56,-4 84,-7 15,-3 29,-6 43,-10 6,-1 12,-3 18,-5 10,-18 20,-36 29,-54 6,-16 12,-31 17,-46 50,-23 99,-46 149,-68 20,-21 40,-42 61,-63 0,-6 1,-11 2,-16 2,0 5,1 7,2 10,7 20,14 31,22 4,7 8,14 12,21 3,16 5,32 8,48 -3,13 -6,27 -9,40 -7,8 -13,17 -20,25 -2,5 -3,10 -4,14 0,6 0,12 1,18 4,5 8,10 13,16 7,3 15,6 23,9 9,4 17,7 26,11 6,8 13,16 20,24 3,16 6,31 9,46 1,14 2,29 3,43 1,13 2,25 4,38z"/>
   <path fill="#588E69" d="M923 414c0,15 0,30 0,45 2,13 5,26 7,39 3,15 5,30 8,45 1,9 3,19 5,28 -1,9 -2,18 -3,27 -3,11 -6,23 -8,34 -5,10 -10,19 -15,29 -3,6 -6,12 -10,18 -5,7 -10,14 -15,22 -16,-10 -32,-20 -48,-29 -10,5 -20,10 -31,16 -12,19 -24,38 -36,57 -8,0 -16,0 -23,0 -4,-1 -8,-2 -12,-4 -27,-9 -53,-19 -79,-28 -15,3 -29,6 -44,9 -3,13 -6,25 -9,38 6,33 12,66 18,99 -6,11 -13,22 -19,33 -11,4 -22,9 -32,14 -5,2 -10,4 -15,7 -10,11 -20,23 -30,35 -3,31 -7,62 -10,93 -3,20 -7,40 -10,59 0,29 0,59 0,88 -8,23 -16,46 -24,69 -46,10 -92,21 -138,31 -13,-7 -27,-14 -41,-21 -10,-15 -21,-30 -31,-45 -4,-30 -7,-60 -10,-90 -16,0 -31,1 -46,2 -7,25 -15,50 -22,74 -7,13 -14,25 -21,37 -11,-2 -23,-5 -34,-7 -13,-40 -25,-80 -37,-120 -13,-26 -27,-51 -40,-77 -23,-44 -45,-88 -68,-133 6,-44 12,-88 18,-133 1,-47 3,-94 4,-142 21,-29 43,-59 64,-89 17,-39 34,-79 51,-119 21,-7 41,-14 61,-21 22,7 43,14 65,21 11,-4 22,-8 32,-12 10,-28 19,-55 29,-83 14,-7 28,-15 42,-22 10,-1 20,-2 30,-3 28,-2 56,-4 84,-6 15,-3 29,-7 43,-10 6,-2 12,-3 18,-5 10,-18 20,-36 29,-55 6,-15 12,-30 17,-45 50,-23 99,-46 149,-69 20,-21 40,-42 61,-63 0,-5 1,-10 2,-16 2,1 5,2 7,3 10,7 20,14 31,21 4,8 8,15 12,22 3,16 5,32 8,48 -3,13 -6,27 -9,40 -7,8 -13,16 -20,25 -2,4 -3,9 -4,14 0,6 0,12 1,17 4,6 8,11 13,16 7,4 15,7 23,10 9,4 17,7 26,11 6,8 13,16 20,24 3,15 6,31 9,46 1,14 2,28 3,42 1,13 2,26 4,39z"/>
   <path fill="#5C936D" d="M923 407c0,15 0,29 0,44 2,13 5,26 7,39 3,15 5,30 8,45 1,10 3,19 5,29 -1,9 -2,18 -3,26 -3,12 -6,23 -8,35 -5,9 -10,19 -15,29 -3,5 -6,11 -10,17 -5,8 -10,15 -15,22 -16,-9 -32,-19 -48,-28 -10,5 -20,10 -31,15 -12,20 -24,39 -36,58 -8,0 -16,0 -23,0 -4,-1 -8,-3 -12,-4 -27,-9 -53,-19 -79,-28 -15,3 -29,6 -44,9 -3,12 -6,25 -9,38 6,33 12,66 18,99 -6,11 -13,22 -19,32 -11,5 -22,10 -32,15 -5,2 -10,4 -15,6 -10,12 -20,24 -30,36 -3,31 -7,62 -10,93 -3,20 -7,39 -10,59 0,29 0,58 0,88 -8,23 -16,46 -24,69 -46,10 -92,21 -138,31 -13,-7 -27,-14 -41,-21 -10,-15 -21,-30 -31,-46 -4,-30 -7,-60 -10,-90 -16,1 -31,2 -46,3 -7,25 -15,50 -22,74 -7,12 -14,25 -21,37 -11,-2 -23,-5 -34,-7 -13,-40 -25,-80 -37,-120 -13,-26 -27,-51 -40,-77 -23,-44 -45,-89 -68,-133 6,-44 12,-89 18,-133 1,-47 3,-95 4,-142 21,-30 43,-59 64,-89 17,-40 34,-79 51,-119 21,-7 41,-14 61,-21 22,7 43,14 65,21 11,-4 22,-9 32,-13 10,-27 19,-55 29,-82 14,-8 28,-15 42,-23 10,0 20,-1 30,-2 28,-2 56,-4 84,-6 15,-4 29,-7 43,-10 6,-2 12,-4 18,-5 10,-18 20,-37 29,-55 6,-15 12,-30 17,-46 50,-22 99,-45 149,-68 20,-21 40,-42 61,-63 0,-5 1,-11 2,-16 2,1 5,2 7,2 10,8 20,15 31,22 4,7 8,14 12,22 3,15 5,31 8,47 -3,14 -6,27 -9,41 -7,8 -13,16 -20,24 -2,5 -3,10 -4,15 0,6 0,11 1,17 4,5 8,11 13,16 7,3 15,7 23,10 9,3 17,7 26,10 6,8 13,17 20,25 3,15 6,30 9,46 1,14 2,28 3,42 1,13 2,26 4,39z"/>
   <path fill="#609872" d="M923 399c0,15 0,30 0,45 2,13 5,26 7,39 3,15 5,30 8,45 1,10 3,19 5,29 -1,9 -2,17 -3,26 -3,12 -6,23 -8,35 -5,9 -10,19 -15,28 -3,6 -6,12 -10,18 -5,7 -10,15 -15,22 -16,-9 -32,-19 -48,-29 -10,6 -20,11 -31,16 -12,19 -24,39 -36,58 -8,0 -16,0 -23,0 -4,-2 -8,-3 -12,-4 -27,-10 -53,-19 -79,-29 -15,3 -29,7 -44,10 -3,12 -6,25 -9,37 6,34 12,67 18,100 -6,11 -13,21 -19,32 -11,5 -22,10 -32,14 -5,3 -10,5 -15,7 -10,12 -20,24 -30,36 -3,31 -7,62 -10,93 -3,19 -7,39 -10,59 0,29 0,58 0,87 -8,23 -16,46 -24,69 -46,11 -92,21 -138,32 -13,-7 -27,-14 -41,-21 -10,-15 -21,-31 -31,-46 -4,-30 -7,-60 -10,-90 -16,1 -31,2 -46,3 -7,25 -15,49 -22,74 -7,12 -14,24 -21,37 -11,-3 -23,-5 -34,-8 -13,-40 -25,-80 -37,-120 -13,-25 -27,-51 -40,-76 -23,-45 -45,-89 -68,-133 6,-45 12,-89 18,-133 1,-48 3,-95 4,-142 21,-30 43,-60 64,-89 17,-40 34,-80 51,-120 21,-7 41,-14 61,-20 22,6 43,13 65,20 11,-4 22,-8 32,-12 10,-27 19,-55 29,-83 14,-7 28,-14 42,-22 10,-1 20,-1 30,-2 28,-2 56,-4 84,-6 14,-4 29,-7 43,-11 6,-1 12,-3 18,-5 10,-18 20,-36 29,-54 6,-15 12,-31 17,-46 50,-23 99,-45 149,-68 20,-21 40,-42 61,-63 0,-6 1,-11 2,-16 2,1 5,1 7,2 10,7 20,15 31,22 4,7 8,14 12,21 3,16 5,32 8,48 -3,13 -6,27 -9,40 -7,9 -13,17 -20,25 -2,5 -3,10 -4,15 0,5 0,11 1,17 4,5 8,10 13,16 7,3 15,6 23,10 9,3 17,7 26,10 6,8 13,16 20,24 3,16 6,31 9,47 1,14 2,28 3,42 1,13 2,26 4,38z"/>
   <path fill="#659D76" d="M923 392c0,15 0,30 0,45 2,13 5,26 7,39 3,15 5,30 8,45 1,9 3,19 5,28 -1,9 -2,18 -3,27 -3,11 -6,23 -8,34 -5,10 -10,19 -15,29 -3,6 -6,12 -10,18 -5,7 -10,15 -15,22 -16,-10 -32,-19 -48,-29 -10,5 -20,11 -31,16 -12,19 -24,38 -36,58 -8,0 -16,0 -23,0 -4,-2 -8,-3 -12,-5 -27,-9 -53,-18 -79,-28 -15,3 -29,6 -44,9 -3,13 -6,26 -9,38 6,33 12,66 18,100 -6,10 -13,21 -19,32 -11,5 -22,9 -32,14 -5,2 -10,5 -15,7 -10,12 -20,23 -30,35 -3,31 -7,62 -10,93 -3,20 -7,40 -10,59 0,30 0,59 0,88 -8,23 -16,46 -24,69 -46,11 -92,21 -138,31 -13,-6 -27,-13 -41,-20 -10,-16 -21,-31 -31,-46 -4,-30 -7,-60 -10,-90 -16,1 -31,2 -46,3 -7,24 -15,49 -22,74 -7,12 -14,24 -21,36 -11,-2 -23,-4 -34,-7 -13,-40 -25,-80 -37,-120 -13,-25 -27,-51 -40,-77 -23,-44 -45,-88 -68,-132 6,-45 12,-89 18,-134 1,-47 3,-94 4,-142 21,-29 43,-59 64,-88 17,-40 34,-80 51,-120 21,-7 41,-14 61,-21 22,7 43,14 65,21 11,-4 22,-8 32,-12 10,-28 19,-55 29,-83 14,-7 28,-15 42,-22 10,-1 20,-2 30,-2 28,-2 56,-5 84,-7 14,-3 29,-6 43,-10 6,-1 12,-3 18,-5 10,-18 20,-36 29,-54 6,-16 12,-31 17,-46 50,-23 99,-46 149,-68 20,-21 40,-42 61,-64 0,-5 1,-10 2,-15 2,0 4,1 7,2 10,7 20,14 31,22 4,7 8,14 12,21 3,16 5,32 8,48 -3,13 -6,27 -9,40 -7,8 -13,17 -20,25 -2,5 -3,9 -5,14 1,6 1,12 2,18 4,5 8,10 13,15 7,4 15,7 23,10 9,4 17,7 26,11 6,8 13,16 20,24 3,15 6,31 9,46 1,14 2,28 2,42 2,13 3,26 5,39z"/>
   <path fill="#69A27B" d="M923 385c0,15 0,30 0,44 2,14 5,27 7,40 3,15 5,30 8,44 1,10 3,20 5,29 -1,9 -2,18 -3,27 -3,11 -6,23 -8,34 -5,10 -10,19 -15,29 -3,6 -7,12 -10,17 -5,8 -10,15 -15,23 -16,-10 -32,-20 -48,-29 -10,5 -20,10 -31,16 -12,19 -24,38 -36,57 -8,0 -16,0 -23,0 -4,-1 -8,-3 -12,-4 -27,-9 -53,-19 -80,-28 -14,3 -28,6 -43,9 -3,13 -6,25 -9,38 6,33 12,66 18,99 -6,11 -13,22 -19,33 -11,4 -22,9 -32,14 -5,2 -10,4 -15,6 -10,12 -20,24 -30,36 -3,31 -7,62 -10,93 -3,20 -7,39 -10,59 0,29 0,59 0,88 -8,23 -16,46 -24,69 -46,10 -92,21 -138,31 -13,-7 -27,-14 -41,-21 -10,-15 -21,-30 -31,-46 -4,-30 -7,-60 -10,-90 -16,1 -31,2 -46,3 -7,25 -15,50 -22,74 -7,13 -14,25 -21,37 -11,-2 -23,-5 -34,-7 -13,-40 -25,-80 -37,-120 -13,-26 -27,-51 -40,-77 -23,-44 -45,-88 -68,-133 6,-44 12,-88 18,-133 1,-47 3,-95 4,-142 21,-30 43,-59 64,-89 17,-40 34,-79 51,-119 21,-7 41,-14 61,-21 22,7 43,14 65,21 11,-4 22,-8 32,-12 10,-28 19,-56 29,-83 14,-8 28,-15 42,-22 10,-1 20,-2 30,-3 28,-2 56,-4 84,-6 14,-3 29,-7 43,-10 6,-2 12,-3 18,-5 10,-18 20,-36 29,-55 6,-15 12,-30 17,-46 50,-22 99,-45 149,-68 20,-21 40,-42 61,-63 0,-5 1,-10 2,-16 2,1 4,2 7,3 10,7 20,14 31,21 4,7 8,15 12,22 3,16 5,32 8,47 -3,14 -6,27 -9,41 -7,8 -13,16 -20,24 -2,5 -3,10 -5,15 1,6 1,11 2,17 4,6 8,11 13,16 7,3 15,7 23,10 9,4 17,7 26,11 6,8 13,16 20,24 3,15 6,31 9,46 1,14 2,28 2,42 2,13 3,26 5,39z"/>
  </g>
  <polygon fill="#6DA77F" points="923,378 923,422 930,461 938,506 943,535 940,561 932,596 917,624 907,642 892,664 844,635 813,651 777,709 754,709 742,705 662,677 619,686 610,724 628,823 609,855 577,869 562,876 532,912 522,1005 512,1064 512,1151 488,1221 350,1252 309,1231 278,1185 268,1095 222,1098 200,1172 179,1209 145,1202 108,1082 68,1005 0,872 18,739 22,597 86,508 137,389 198,368 263,389 295,376 324,294 366,271 396,269 480,263 523,253 541,248 570,193 587,147 736,79 797,16 799,0 806,2 837,24 849,45 857,93 848,134 828,158 823,173 825,190 838,206 861,216 887,226 907,250 916,297 918,339 "/>
 </g>
</svg>
