<?xml version="1.0" encoding="UTF-8"?>
<!DOCTYPE svg PUBLIC "-//W3C//DTD SVG 1.1//EN" "http://www.w3.org/Graphics/SVG/1.1/DTD/svg11.dtd">
<!-- Creator: CorelDRAW X8 -->
<svg xmlns="http://www.w3.org/2000/svg" xml:space="preserve" width="100%" height="100%" version="1.1" shape-rendering="geometricPrecision" text-rendering="geometricPrecision" image-rendering="optimizeQuality" fill-rule="evenodd" clip-rule="evenodd"
viewBox="0 0 2097 834"
 xmlns:xlink="http://www.w3.org/1999/xlink">
 <g id="Layer_x0020_1">
  <metadata id="CorelCorpID_0Corel-Layer"/>
  <polygon fill="#143D21" points="1668,183 1654,200 1635,216 1627,232 1632,256 1637,277 1630,297 1625,317 1621,338 1619,364 1622,401 1630,409 1632,411 1637,411 1649,410 1673,401 1699,391 1732,379 1751,372 1788,372 1813,374 1823,380 1839,387 1848,396 1861,411 1873,422 1889,428 1901,434 1917,450 1938,468 1940,485 1922,499 1914,518 1919,536 1932,547 1949,558 1969,568 1996,588 2025,611 2039,624 2060,626 2079,646 2097,663 2095,681 2081,689 2061,700 2045,708 2023,725 2005,747 1996,760 1966,766 1940,775 1914,783 1893,794 1869,812 1840,830 1826,834 1826,830 1654,740 1581,710 1552,709 1499,706 1403,748 1349,777 1115,777 887,776 827,776 657,793 573,816 420,794 396,789 221,753 76,694 63,648 72,605 92,603 109,601 136,595 158,586 173,570 177,551 194,543 217,531 233,517 232,501 215,487 195,475 173,467 162,452 162,433 173,415 192,396 208,377 213,357 226,325 236,302 252,289 276,280 298,282 317,295 335,295 354,293 374,287 399,276 424,261 444,241 468,239 498,245 501,247 523,256 533,272 550,285 568,294 587,299 608,305 623,311 641,311 658,304 662,287 668,267 685,266 697,280 707,297 727,297 751,293 770,295 798,297 831,297 846,301 864,303 883,311 889,323 895,331 914,342 932,349 941,349 959,343 977,331 990,331 992,344 999,374 1012,394 1028,398 1052,398 1064,385 1064,364 1071,346 1087,336 1098,335 1102,335 1114,327 1137,327 1155,333 1179,335 1206,329 1209,310 1209,285 1215,257 1223,243 1243,242 1258,249 1280,255 1296,267 1315,264 1329,261 1337,249 1343,235 1341,219 1336,209 1319,199 1327,190 1347,179 1365,167 1383,159 1402,164 1420,183 1445,196 1470,198 1501,198 1535,190 1570,183 1594,171 1626,157 1648,162 1664,170 "/>
  <g id="_348226040832">
   <path fill="#184225" d="M1665 175c-5,6 -10,11 -14,17 -6,5 -13,11 -19,16 -2,6 -5,11 -8,16 2,8 3,16 5,24 1,7 3,14 5,21 -3,7 -5,13 -7,20 -2,7 -3,14 -5,20 -1,7 -2,14 -4,21 0,9 -1,18 -2,27 1,12 2,24 3,37 3,2 5,5 8,7 0,1 1,2 2,3 1,0 3,0 5,-1 4,0 8,0 12,-1 8,-3 16,-5 24,-8 9,-4 18,-7 26,-11 11,-4 22,-7 33,-11 6,-2 12,-5 19,-7 12,0 25,0 38,0 8,0 16,1 24,1 3,2 6,5 10,7 5,2 11,4 16,7 3,3 6,6 9,9 4,5 9,10 13,15 4,3 8,7 12,10 6,2 11,4 16,6 4,2 8,5 12,7 5,5 11,11 16,16 7,6 14,12 21,17 1,6 1,12 2,17 -6,5 -12,10 -18,14 -3,7 -6,13 -8,20 1,6 3,12 5,18 4,3 9,7 13,10 6,4 12,8 17,12 7,3 13,6 20,9 9,7 18,14 27,21 10,8 20,15 29,23 5,4 9,8 14,12 7,1 14,2 21,3 6,6 13,13 19,19 6,6 12,12 18,18 -1,6 -1,11 -2,17 -4,3 -9,6 -14,9 -6,3 -13,7 -20,10 -6,3 -11,6 -16,9 -8,5 -15,11 -22,17 -6,7 -12,14 -18,22 -3,4 -6,8 -9,12 -10,2 -20,5 -30,7 -9,3 -18,6 -26,8 -9,3 -18,6 -26,8 -7,4 -14,8 -21,12 -8,6 -16,11 -24,17 -10,6 -19,12 -29,19 -5,1 -9,2 -14,4 0,-1 0,-3 0,-4 -58,-30 -115,-60 -172,-90 -24,-10 -48,-20 -73,-30 -10,-1 -19,-1 -29,-2 -18,-1 -36,-2 -53,-3 -32,14 -64,29 -96,43 -18,10 -36,19 -54,29 -78,0 -156,0 -234,-1 -76,0 -152,0 -228,0 -20,0 -40,0 -60,0 -57,5 -113,11 -170,17 -28,7 -56,15 -84,23 -51,-7 -102,-15 -153,-22 -8,-2 -16,-4 -24,-6 -58,-12 -117,-23 -175,-35 -48,-20 -97,-40 -145,-59 -5,-16 -9,-31 -13,-47 3,-14 6,-28 9,-42 6,-1 13,-1 20,-2 6,-1 11,-2 17,-3 9,-1 18,-3 27,-5 7,-3 14,-6 22,-10 5,-5 10,-10 15,-15 1,-6 3,-13 4,-19 5,-3 11,-6 17,-9 8,-4 15,-8 23,-12 5,-4 11,-9 16,-13 0,-6 -1,-11 -1,-16 -6,-5 -12,-10 -17,-15 -7,-3 -13,-7 -20,-11 -7,-3 -15,-6 -22,-9 -4,-5 -7,-10 -11,-15 0,-6 0,-12 0,-18 4,-6 7,-13 11,-19 6,-6 13,-12 19,-18 5,-7 11,-13 16,-20 2,-6 3,-13 5,-19 4,-11 9,-22 13,-32 3,-8 6,-16 10,-23 5,-5 10,-9 16,-13 8,-3 16,-6 24,-9 7,1 14,1 22,2 6,4 13,8 19,12 6,0 12,0 18,0 7,0 13,-1 19,-2 7,-2 14,-3 20,-5 9,-4 17,-8 25,-12 8,-4 17,-9 25,-14 7,-7 13,-13 20,-20 8,-1 16,-2 24,-3 10,2 20,5 30,7 1,0 2,1 3,1 7,3 15,6 22,9 3,6 7,11 10,16 6,5 11,9 17,13 6,3 12,6 18,9 6,2 13,4 19,5 7,2 14,5 21,7 5,2 10,4 15,6 6,0 12,0 18,0 5,-3 11,-5 17,-7 1,-6 3,-12 4,-17 2,-7 4,-14 6,-20 6,0 12,-1 17,-1 4,5 8,9 12,14 3,6 7,11 10,17 7,0 14,-1 20,-1 8,-1 16,-2 24,-4 6,1 13,2 19,2 9,1 19,2 28,2 11,0 22,0 33,0 5,2 10,3 15,5 6,0 12,1 18,2 7,2 13,5 19,8 2,3 4,7 6,11 2,3 4,6 6,8 6,4 12,8 19,12 6,2 12,4 18,7 3,0 6,0 9,0 6,-2 12,-4 18,-6 6,-4 12,-9 18,-13 5,0 9,0 13,0 1,5 2,9 2,14 3,10 5,19 7,29 4,7 9,13 13,20 5,1 10,3 16,4 8,0 16,0 24,0 4,-4 8,-8 12,-13 0,-7 0,-13 0,-20 2,-6 4,-13 7,-19 5,-3 10,-6 16,-10 4,0 7,-1 11,-1 1,0 3,0 4,0 4,-2 8,-5 12,-7 8,0 16,0 23,0 6,2 12,3 18,5 8,1 16,2 24,2 9,-2 18,-4 27,-6 1,-6 2,-12 3,-19 0,-8 0,-16 0,-25 2,-9 4,-18 6,-27 3,-5 5,-9 8,-14 6,0 13,-1 20,-1 5,2 10,4 15,7 7,2 15,3 22,5 5,4 11,9 16,13 6,-1 13,-2 19,-3 5,-2 10,-3 14,-4 3,-4 6,-8 8,-11 2,-5 4,-9 6,-14 -1,-5 -2,-11 -2,-16 -2,-4 -3,-7 -5,-11 -6,-3 -11,-6 -17,-10 3,-3 5,-5 8,-8 7,-4 13,-8 20,-12 6,-4 12,-7 18,-11 6,-3 12,-6 18,-9 6,2 13,4 19,6 6,6 12,12 18,18 9,5 17,9 25,13 9,1 17,2 25,2 10,0 20,0 31,0 11,-2 22,-5 34,-7 12,-3 23,-5 35,-8 8,-4 16,-8 24,-12 10,-4 21,-9 32,-14 7,2 15,4 22,5 5,3 11,6 16,8 1,5 3,9 4,13z"/>
   <path fill="#1C472A" d="M1662 168c-5,5 -10,11 -14,17 -6,5 -13,10 -19,16 -2,5 -5,11 -8,16 2,8 3,16 5,24 1,7 3,14 5,21 -3,6 -5,13 -7,20 -2,6 -3,13 -5,20 -1,7 -2,14 -4,21 0,8 -1,17 -2,26 1,12 2,25 3,37 3,3 5,5 8,8 0,1 1,2 2,3 1,-1 3,-1 5,-1 4,0 8,-1 12,-1 8,-3 16,-6 24,-9 9,-3 18,-7 26,-10 11,-4 22,-8 33,-12 6,-2 12,-4 19,-6 12,0 25,0 38,0 8,0 16,0 24,1 3,2 6,4 10,6 5,3 11,5 16,7 3,3 6,6 9,9 4,5 9,10 13,16 4,3 8,6 12,10 6,2 11,4 17,6 3,2 7,4 11,6 5,6 11,11 16,17 7,5 14,11 21,17 1,5 1,11 2,17 -6,5 -12,9 -18,14 -3,6 -6,13 -8,19 1,6 3,12 5,19 4,3 9,6 13,10 6,4 12,7 17,11 7,3 13,7 20,10 9,7 18,14 27,21 10,7 20,15 29,23 5,4 9,8 14,12 7,1 14,2 21,2 6,7 13,13 19,20 6,6 12,12 18,18 -1,5 -1,11 -2,17 -4,3 -9,6 -14,9 -6,3 -13,6 -20,10 -6,3 -11,5 -16,8 -8,6 -15,12 -22,18 -6,7 -12,14 -18,21 -3,4 -6,9 -9,13 -10,2 -20,4 -30,6 -9,3 -18,6 -26,9 -9,2 -18,5 -26,8 -7,3 -14,7 -21,11 -8,6 -16,12 -24,18 -10,6 -19,12 -29,18 -5,1 -9,3 -14,4 0,-1 0,-2 0,-4 -58,-30 -115,-60 -172,-90 -24,-10 -48,-20 -73,-30 -10,0 -19,-1 -29,-1 -18,-1 -36,-2 -53,-3 -32,14 -64,28 -96,42 -18,10 -36,20 -54,30 -78,-1 -156,-1 -234,-1 -76,0 -152,0 -228,-1 -20,0 -40,0 -60,0 -56,6 -113,12 -170,17 -28,8 -56,16 -84,24 -51,-8 -102,-15 -153,-23 -8,-2 -16,-3 -24,-5 -58,-12 -117,-24 -175,-36 -48,-20 -97,-39 -145,-59 -5,-15 -9,-31 -13,-46 3,-14 6,-29 9,-43 6,0 13,-1 20,-1 6,-1 11,-2 17,-3 9,-2 18,-4 27,-6 7,-3 14,-6 22,-9 5,-5 10,-10 15,-16 1,-6 3,-12 4,-18 5,-3 11,-6 17,-9 8,-4 15,-8 23,-12 5,-5 11,-9 16,-14 0,-5 -1,-11 -1,-16 -6,-5 -12,-9 -17,-14 -7,-4 -13,-8 -20,-12 -7,-2 -15,-5 -22,-8 -4,-5 -7,-10 -11,-15 0,-7 0,-13 0,-19 4,-6 7,-12 11,-18 6,-6 13,-13 19,-19 5,-6 11,-13 16,-19 2,-7 3,-13 5,-20 4,-10 9,-21 13,-32 3,-8 6,-15 10,-23 5,-4 10,-9 16,-13 8,-3 16,-6 24,-9 7,1 14,2 22,2 6,5 13,9 19,13 6,0 12,0 19,0 6,-1 12,-2 18,-2 7,-2 14,-4 21,-6 8,-4 16,-7 24,-11 8,-5 17,-10 25,-14 7,-7 13,-14 20,-21 8,0 16,-1 24,-2 10,2 20,4 30,7 1,0 2,0 3,1 7,3 15,6 22,9 3,5 7,11 10,16 6,4 11,9 17,13 6,3 12,6 18,9 6,1 13,3 20,5 6,2 13,4 20,6 5,2 10,4 15,6 6,0 12,0 18,0 5,-2 11,-4 17,-7 1,-5 3,-11 4,-17 2,-6 4,-13 6,-20 6,0 12,0 17,-1 4,5 8,10 12,14 3,6 7,12 10,18 7,-1 14,-1 20,-1 8,-2 16,-3 24,-4 6,0 13,1 19,2 9,1 19,1 28,2 11,0 22,0 33,0 5,1 10,3 15,4 6,1 12,1 18,2 7,3 13,6 19,8 2,4 4,8 6,12 2,2 4,5 6,8 6,4 12,8 19,11 6,3 12,5 18,7 3,0 6,0 9,0 6,-2 12,-4 18,-6 6,-4 12,-8 18,-12 5,0 9,0 13,0 1,4 2,9 2,13 3,10 5,20 7,30 4,6 9,13 13,20 5,1 10,2 16,4 8,0 16,0 24,0 4,-5 8,-9 12,-13 0,-7 0,-14 0,-21 2,-6 4,-12 7,-18 5,-3 10,-7 16,-10 4,-1 7,-1 11,-1 1,0 3,0 4,0 4,-3 8,-5 12,-8 8,0 16,0 23,0 6,2 12,4 18,6 8,0 16,1 24,2 9,-2 18,-4 27,-6 1,-7 2,-13 3,-19 0,-8 0,-17 0,-25 2,-9 4,-18 6,-28 3,-4 5,-9 8,-14 6,0 13,0 20,-1 5,3 10,5 15,7 7,2 15,4 22,6 5,4 11,8 16,12 6,-1 13,-2 19,-3 5,-1 10,-2 14,-3 3,-4 6,-8 8,-12 2,-4 4,-9 6,-13 -1,-6 -2,-11 -2,-17 -2,-3 -3,-7 -5,-10 -6,-3 -11,-7 -17,-10 3,-3 5,-6 8,-9 7,-3 13,-7 20,-11 6,-4 12,-8 18,-12 6,-3 12,-5 18,-8 6,1 13,3 19,5 6,6 12,12 18,19 9,4 17,9 25,13 9,1 17,1 25,2 10,0 20,0 31,0 11,-3 22,-5 34,-8 12,-2 23,-5 35,-7 8,-4 16,-8 24,-12 11,-5 21,-9 32,-14 7,2 15,3 22,5 5,2 11,5 16,8 1,4 3,8 4,13z"/>
   <path fill="#214C2E" d="M1659 160c-5,6 -10,11 -14,17 -6,5 -13,11 -19,16 -2,6 -5,11 -8,16 2,9 3,17 5,25 1,6 3,13 5,20 -3,7 -5,14 -7,20 -2,7 -3,14 -5,20 -1,7 -2,14 -4,21 0,9 -1,18 -2,27 1,12 2,24 3,37 3,2 5,5 8,8 0,0 1,1 2,2 1,0 3,0 5,-1 4,0 8,0 12,-1 8,-2 16,-5 24,-8 9,-4 18,-7 27,-11 10,-4 21,-7 32,-11 6,-2 12,-5 19,-7 12,0 25,0 38,0 8,0 16,1 24,1 3,2 6,5 10,7 5,2 11,4 16,7 3,3 6,6 9,9 4,5 9,10 13,15 4,4 8,7 12,11 6,1 11,3 17,5 3,2 7,5 11,7 5,5 11,11 16,16 7,6 14,12 21,17 1,6 1,12 2,17 -6,5 -12,10 -18,14 -3,7 -6,13 -8,20 1,6 3,12 5,18 4,4 9,7 13,10 6,4 12,8 17,12 7,3 13,6 20,9 9,7 18,14 27,21 10,8 20,15 29,23 5,4 9,8 14,12 7,1 14,2 21,3 6,6 13,13 19,19 6,6 12,12 18,18 -1,6 -1,11 -2,17 -4,3 -9,6 -14,9 -6,4 -13,7 -20,10 -6,3 -11,6 -16,9 -8,6 -15,11 -22,17 -6,7 -12,15 -18,22 -3,4 -6,8 -9,12 -10,2 -20,5 -30,7 -9,3 -18,6 -26,8 -9,3 -18,6 -26,8 -7,4 -14,8 -21,12 -8,6 -16,11 -24,17 -10,6 -19,13 -29,19 -5,1 -9,2 -14,4 0,-1 0,-3 0,-4 -58,-30 -115,-60 -172,-90 -24,-10 -48,-20 -73,-30 -10,-1 -19,-1 -29,-2 -18,-1 -36,-2 -53,-3 -32,14 -64,29 -96,43 -18,10 -36,19 -54,29 -78,0 -156,0 -234,-1 -76,0 -152,0 -228,0 -20,0 -40,0 -60,0 -56,6 -113,11 -170,17 -28,7 -56,15 -84,23 -51,-7 -102,-15 -153,-22 -8,-2 -16,-4 -24,-6 -58,-11 -117,-23 -175,-35 -48,-20 -97,-40 -145,-59 -5,-16 -9,-31 -13,-47 3,-14 6,-28 9,-42 6,-1 13,-1 20,-2 6,-1 11,-2 17,-3 9,-1 18,-3 27,-5 7,-3 14,-6 22,-10 5,-5 10,-10 15,-15 1,-6 3,-13 4,-19 5,-3 11,-6 17,-9 8,-4 15,-8 23,-12 5,-4 11,-9 16,-13 0,-6 -1,-11 -1,-16 -6,-5 -12,-10 -17,-15 -7,-3 -13,-7 -20,-11 -7,-3 -15,-6 -22,-9 -4,-5 -7,-10 -11,-15 0,-6 0,-12 0,-18 4,-6 7,-13 11,-19 6,-6 13,-12 19,-18 5,-7 11,-13 16,-20 2,-6 3,-13 5,-19 4,-11 9,-22 13,-32 3,-8 6,-16 10,-23 5,-5 10,-9 16,-13 8,-3 16,-6 24,-9 7,1 14,1 22,2 6,4 13,8 19,13 6,0 12,0 19,0 6,-1 12,-2 18,-3 7,-2 14,-3 21,-5 8,-4 16,-8 24,-12 8,-4 17,-9 25,-14 7,-7 13,-13 20,-20 8,-1 16,-2 24,-3 10,3 20,5 30,7 1,1 2,1 3,1 7,3 15,7 22,10 3,5 7,10 10,16 6,4 11,8 17,13 6,3 12,6 18,8 6,2 13,4 20,5 6,2 13,5 20,7 5,2 10,4 15,6 6,0 12,0 18,0 5,-3 11,-5 17,-7 1,-6 3,-12 4,-17 2,-7 4,-13 6,-20 6,0 12,-1 17,-1 4,5 8,9 12,14 3,6 7,11 10,17 7,0 14,-1 20,-1 8,-1 16,-2 24,-4 6,1 13,2 19,3 9,0 19,1 28,1 11,0 22,0 33,0 5,2 10,3 15,5 6,0 12,1 18,2 7,2 13,5 19,8 2,4 4,7 6,11 2,3 4,6 6,8 6,4 12,8 19,12 6,2 12,4 18,7 3,0 6,0 9,0 6,-2 12,-4 18,-6 6,-4 12,-9 18,-13 5,0 9,0 13,0 1,5 2,9 2,14 3,10 5,19 7,29 4,7 9,14 13,20 5,2 10,3 16,4 8,0 16,0 24,0 4,-4 8,-8 12,-13 0,-6 0,-13 0,-20 2,-6 4,-12 7,-19 5,-3 10,-6 16,-10 4,0 7,-1 11,-1 1,0 3,0 4,0 4,-2 8,-5 12,-7 8,0 16,0 23,0 6,2 12,4 18,5 8,1 16,2 24,2 9,-2 18,-4 27,-6 1,-6 2,-12 3,-19 0,-8 0,-16 0,-24 2,-10 4,-19 6,-28 3,-5 5,-9 8,-14 6,0 13,-1 20,-1 5,2 10,4 15,7 7,2 15,3 22,5 5,5 11,9 16,13 6,-1 13,-2 19,-3 5,-1 10,-3 14,-4 3,-4 6,-7 8,-11 2,-5 4,-9 6,-14 -1,-5 -2,-11 -2,-16 -2,-4 -3,-7 -5,-10 -6,-4 -11,-7 -17,-11 3,-3 5,-5 8,-8 7,-4 13,-8 20,-12 6,-4 12,-7 18,-11 6,-3 12,-6 18,-9 7,2 13,4 19,6 6,6 12,12 18,18 9,5 17,9 25,14 9,0 17,1 25,1 10,0 20,0 31,0 11,-2 22,-5 34,-7 12,-3 23,-5 35,-8 8,-4 16,-8 24,-11 11,-5 21,-10 32,-14 7,1 15,3 22,4 5,3 11,6 16,9 1,4 3,8 4,12z"/>
   <path fill="#255133" d="M1656 153c-5,5 -10,11 -14,17 -6,5 -13,10 -19,16 -2,5 -5,11 -8,16 2,8 3,16 5,24 1,7 3,14 5,21 -3,6 -5,13 -7,20 -2,6 -3,13 -5,20 -1,7 -2,14 -4,21 0,8 -1,17 -2,26 1,13 2,25 3,37 3,3 5,5 8,8 0,1 1,2 2,3 1,-1 3,-1 5,-1 4,0 8,-1 12,-1 8,-3 16,-6 24,-9 9,-3 18,-7 27,-10 10,-4 21,-8 32,-12 6,-2 12,-4 19,-6 12,0 25,0 38,0 8,0 16,0 24,1 3,2 6,4 10,6 5,3 11,5 16,7 3,3 6,6 9,9 4,5 9,11 13,16 4,3 8,7 12,10 6,2 11,4 17,6 3,2 7,4 11,6 5,6 11,11 16,17 7,5 14,11 21,17 1,6 1,11 2,17 -6,5 -12,9 -18,14 -3,6 -6,13 -8,19 1,6 3,13 5,19 4,3 9,7 13,10 6,4 12,8 17,11 7,3 13,7 20,10 9,7 18,14 27,21 10,7 20,15 29,23 5,4 9,8 14,12 7,1 14,2 21,3 6,6 13,12 19,19 6,6 12,12 18,18 -1,5 -1,11 -2,17 -4,3 -9,6 -13,9 -7,3 -14,6 -21,10 -6,3 -11,6 -16,8 -8,6 -15,12 -22,18 -6,7 -12,14 -18,21 -3,4 -6,9 -9,13 -10,2 -20,4 -30,7 -9,2 -18,5 -26,8 -9,3 -18,5 -26,8 -7,4 -14,7 -21,11 -8,6 -16,12 -24,18 -10,6 -19,12 -29,18 -5,2 -9,3 -14,4 0,-1 0,-2 0,-3 -58,-31 -115,-61 -172,-91 -24,-10 -48,-20 -73,-30 -10,0 -19,-1 -29,-1 -18,-1 -35,-2 -53,-3 -32,14 -64,28 -96,42 -18,10 -36,20 -54,30 -78,-1 -156,-1 -234,-1 -76,0 -152,0 -228,0 -20,0 -40,0 -60,0 -56,5 -113,11 -170,16 -28,8 -56,16 -84,24 -51,-8 -102,-15 -153,-23 -8,-2 -16,-3 -24,-5 -58,-12 -117,-24 -175,-36 -48,-19 -97,-39 -145,-59 -5,-15 -9,-31 -13,-46 3,-14 6,-29 9,-43 6,0 13,-1 20,-1 6,-1 11,-2 17,-3 9,-2 18,-4 27,-6 7,-3 14,-6 22,-9 5,-5 10,-10 15,-16 1,-6 3,-12 4,-18 6,-3 11,-6 17,-9 8,-4 15,-8 23,-12 5,-5 11,-9 16,-14 0,-5 -1,-10 -1,-16 -6,-5 -12,-9 -17,-14 -7,-4 -13,-8 -20,-11 -7,-3 -15,-6 -22,-9 -4,-5 -7,-10 -11,-15 0,-6 0,-13 0,-19 4,-6 7,-12 11,-18 6,-6 13,-12 19,-19 5,-6 11,-13 16,-19 2,-7 3,-13 5,-20 4,-10 9,-21 13,-32 3,-7 6,-15 10,-23 5,-4 10,-8 16,-13 8,-3 16,-6 24,-9 7,1 14,2 22,2 6,5 13,9 19,13 6,0 12,0 19,0 6,-1 12,-1 18,-2 7,-2 14,-4 21,-6 8,-4 16,-7 24,-11 8,-5 17,-10 25,-14 7,-7 13,-14 20,-21 8,0 16,-1 24,-2 10,2 20,4 30,7 1,0 2,1 3,1 7,3 15,6 22,9 3,5 7,11 10,16 6,4 11,9 17,13 6,3 12,6 18,9 6,2 13,3 20,5 6,2 13,4 20,6 5,2 10,4 15,6 6,0 12,0 18,0 5,-2 11,-4 17,-7 1,-5 3,-11 5,-17 1,-6 3,-13 5,-20 6,0 12,0 17,-1 4,5 8,10 12,14 3,6 7,12 10,18 7,-1 14,-1 21,-1 7,-2 15,-3 23,-4 6,1 13,1 19,2 9,1 19,1 28,2 11,0 22,0 33,0 5,1 10,3 15,4 6,1 12,2 18,2 7,3 13,6 19,8 2,4 4,8 6,12 2,2 4,5 6,8 6,4 12,8 19,11 6,3 12,5 18,7 3,0 6,0 9,0 6,-2 12,-4 18,-6 6,-4 12,-8 18,-12 5,0 9,0 13,0 1,4 2,9 2,13 3,10 5,20 7,30 4,6 9,13 13,20 5,1 10,2 16,4 8,0 16,0 24,0 4,-5 8,-9 12,-13 0,-7 0,-14 0,-21 2,-6 4,-12 7,-18 5,-3 10,-7 16,-10 4,-1 7,-1 11,-1 1,0 3,0 4,0 4,-3 8,-5 12,-8 8,0 16,0 23,0 6,2 12,4 18,6 8,1 16,1 24,2 9,-2 18,-4 27,-6 1,-6 2,-13 3,-19 0,-8 0,-17 0,-25 2,-9 4,-18 6,-28 3,-4 5,-9 8,-14 6,0 13,0 20,-1 5,3 10,5 15,7 7,2 15,4 22,6 5,4 11,8 16,12 6,-1 13,-2 19,-3 5,-1 10,-2 14,-3 3,-4 6,-8 8,-12 2,-4 4,-9 6,-13 -1,-6 -2,-11 -2,-17 -2,-3 -3,-6 -5,-10 -6,-3 -11,-7 -17,-10 3,-3 5,-6 8,-9 7,-3 13,-7 20,-11 6,-4 12,-8 18,-12 6,-3 12,-5 18,-8 7,2 13,3 19,5 6,6 12,13 18,19 9,4 17,9 25,13 9,1 17,1 25,2 10,0 20,0 31,0 11,-3 22,-5 34,-8 12,-2 23,-5 35,-7 8,-4 16,-8 24,-12 11,-5 21,-9 32,-14 7,2 15,3 22,5 5,2 11,5 16,8 1,4 3,8 4,13z"/>
   <path fill="#295637" d="M1653 145c-5,6 -10,12 -14,17 -6,6 -13,11 -19,16 -2,6 -5,11 -8,17 2,8 3,16 5,24 1,7 3,13 5,20 -3,7 -5,14 -7,20 -2,7 -3,14 -5,20 -1,7 -2,14 -4,21 0,9 -1,18 -2,27 1,12 2,24 3,37 3,2 5,5 8,8 0,0 1,1 2,2 2,0 3,0 5,0 4,-1 8,-1 12,-1 8,-3 16,-6 24,-9 9,-4 18,-7 27,-11 10,-4 21,-7 32,-11 6,-2 12,-5 19,-7 12,0 25,0 38,0 8,0 16,1 24,1 3,2 6,5 10,7 5,2 11,4 16,7 3,3 6,6 9,9 4,5 9,10 13,15 4,4 8,7 12,11 6,1 11,3 17,5 3,3 7,5 11,7 5,5 11,11 16,16 7,6 14,12 21,17 1,6 1,12 2,17 -6,5 -12,10 -18,15 -3,6 -6,12 -8,19 1,6 3,12 5,18 4,4 9,7 13,10 6,4 12,8 17,12 7,3 13,6 20,9 9,7 18,14 27,21 10,8 20,15 29,23 5,4 9,8 14,13 7,0 14,1 21,2 6,6 13,13 19,19 6,6 12,12 18,18 -1,6 -1,12 -2,17 -4,3 -9,6 -13,9 -7,4 -14,7 -21,10 -6,3 -11,6 -16,9 -8,6 -15,11 -22,17 -6,7 -12,15 -18,22 -3,4 -6,8 -9,12 -10,3 -20,5 -30,7 -9,3 -18,6 -26,8 -9,3 -18,6 -26,8 -7,4 -14,8 -21,12 -8,6 -16,12 -24,17 -10,7 -19,13 -29,19 -5,1 -9,2 -14,4 0,-1 0,-3 0,-4 -58,-30 -115,-60 -172,-90 -24,-10 -48,-20 -73,-30 -10,-1 -19,-1 -29,-2 -18,-1 -35,-2 -53,-3 -32,15 -64,29 -96,43 -18,10 -36,19 -54,29 -78,0 -156,0 -234,-1 -76,0 -152,0 -228,0 -20,0 -40,0 -60,0 -56,6 -113,11 -170,17 -28,7 -56,15 -84,23 -51,-7 -102,-15 -153,-22 -8,-2 -16,-4 -24,-6 -58,-11 -117,-23 -175,-35 -48,-20 -97,-40 -145,-59 -5,-16 -9,-31 -13,-47 3,-14 6,-28 9,-42 6,-1 13,-1 20,-2 6,-1 11,-2 17,-3 9,-1 18,-3 27,-5 7,-3 14,-6 22,-10 5,-5 10,-10 15,-15 1,-6 3,-13 4,-19 6,-3 11,-6 17,-9 8,-4 15,-8 23,-12 5,-4 11,-9 16,-13 0,-6 -1,-11 -1,-16 -6,-5 -11,-10 -17,-15 -7,-3 -13,-7 -20,-11 -7,-3 -15,-6 -22,-9 -4,-5 -7,-10 -11,-15 0,-6 0,-12 0,-18 4,-6 7,-12 11,-19 6,-6 13,-12 19,-18 5,-7 11,-13 16,-20 2,-6 3,-13 5,-19 4,-11 9,-22 13,-32 3,-8 6,-16 10,-23 5,-5 10,-9 16,-13 8,-3 16,-6 24,-9 7,1 14,1 22,2 6,4 13,8 19,13 6,0 12,0 19,0 6,-1 12,-2 18,-3 7,-2 14,-3 21,-5 8,-4 16,-8 24,-12 8,-4 17,-9 25,-14 7,-7 13,-13 20,-20 8,-1 16,-2 24,-3 10,3 20,5 30,7 1,1 2,1 3,2 7,3 15,6 22,9 3,5 7,10 10,16 6,4 11,8 17,13 6,3 12,6 18,9 6,1 13,3 20,4 6,2 13,5 20,7 5,2 10,4 15,6 6,0 12,0 18,0 5,-3 11,-5 17,-7 1,-6 3,-12 5,-17 1,-7 3,-13 5,-20 6,0 12,-1 18,-1 3,5 7,9 11,14 3,6 7,11 10,17 7,0 14,0 21,-1 7,-1 15,-2 23,-4 6,1 13,2 19,3 9,0 19,1 28,1 11,0 22,0 33,0 5,2 10,3 15,5 6,0 12,1 18,2 7,2 13,5 19,8 2,4 4,7 6,11 2,3 4,6 6,8 6,4 12,8 19,12 6,2 12,4 18,7 3,0 6,0 9,0 6,-2 12,-4 18,-6 6,-4 12,-8 18,-13 5,0 9,0 13,0 1,5 2,9 2,14 3,10 5,19 7,29 4,7 9,14 13,20 5,2 11,3 16,4 8,0 16,0 24,0 4,-4 8,-8 12,-12 0,-7 0,-14 0,-21 2,-6 4,-12 7,-18 5,-4 10,-7 16,-11 4,0 7,-1 11,-1 1,0 3,0 4,0 4,-2 8,-5 12,-7 8,0 16,0 23,0 6,2 12,4 18,6 8,0 16,1 24,1 9,-2 18,-4 27,-6 1,-6 2,-12 3,-18 0,-9 0,-17 0,-25 2,-10 4,-19 6,-28 3,-5 5,-9 8,-14 6,0 13,-1 20,-1 5,2 10,5 15,7 7,2 15,4 22,5 5,5 11,9 16,13 6,-1 13,-2 19,-3 5,-1 10,-3 14,-4 3,-4 6,-7 8,-11 2,-5 4,-9 6,-14 -1,-5 -2,-11 -2,-16 -2,-4 -3,-7 -5,-10 -6,-4 -11,-7 -17,-11 3,-3 5,-5 8,-8 7,-4 13,-8 20,-12 6,-3 12,-7 18,-11 6,-3 12,-6 18,-9 7,2 13,4 19,6 6,6 12,12 18,18 9,5 17,9 25,14 9,0 17,1 25,1 10,0 20,0 31,0 11,-2 22,-5 34,-7 12,-3 23,-5 35,-8 8,-4 16,-8 24,-11 11,-5 21,-10 32,-14 7,1 15,3 22,4 5,3 11,6 16,9 1,4 3,8 4,12z"/>
   <path fill="#2D5B3C" d="M1650 138c-5,5 -10,11 -14,17 -6,5 -12,10 -19,16 -2,5 -5,11 -8,16 2,8 3,16 5,24 1,7 3,14 5,21 -3,7 -5,13 -7,20 -2,6 -3,13 -5,20 -1,7 -2,14 -4,21 0,9 -1,17 -2,26 1,13 2,25 3,37 3,3 5,5 8,8 0,1 1,2 2,3 2,-1 3,-1 5,-1 4,0 8,-1 12,-1 8,-3 16,-6 24,-9 9,-3 18,-7 27,-10 10,-4 21,-8 32,-12 6,-2 12,-4 19,-6 12,0 25,0 38,0 8,0 16,0 24,1 3,2 6,4 10,6 5,3 11,5 16,7 3,3 6,6 9,9 4,6 9,11 13,16 4,3 8,7 12,10 6,2 11,4 17,6 3,2 7,4 11,6 5,6 11,11 16,17 7,5 14,11 21,17 1,6 1,11 2,17 -6,5 -12,9 -18,14 -3,7 -6,13 -8,19 1,7 3,13 5,19 4,3 9,7 13,10 6,4 12,8 17,11 7,4 13,7 20,10 9,7 18,14 27,21 10,7 20,15 29,23 5,4 9,8 14,12 7,1 14,2 21,3 6,6 13,12 19,19 6,6 12,12 18,18 -1,5 -1,11 -2,17 -4,3 -9,6 -13,9 -7,3 -14,7 -21,10 -6,3 -11,6 -16,8 -8,6 -15,12 -22,18 -6,7 -12,14 -17,21 -4,5 -7,9 -10,13 -10,2 -20,4 -30,7 -9,2 -18,5 -26,8 -9,3 -18,5 -26,8 -7,4 -14,7 -21,11 -8,6 -16,12 -24,18 -10,6 -19,12 -29,18 -5,2 -9,3 -14,4 0,-1 0,-2 0,-3 -58,-31 -115,-61 -172,-91 -24,-10 -48,-20 -73,-30 -10,0 -19,-1 -29,-1 -18,-1 -35,-2 -53,-3 -32,14 -64,28 -96,42 -18,10 -36,20 -54,30 -78,-1 -156,-1 -234,-1 -76,0 -152,0 -227,0 -21,0 -41,0 -61,0 -56,5 -113,11 -170,16 -28,8 -56,16 -84,24 -51,-8 -102,-15 -153,-23 -8,-2 -16,-3 -24,-5 -58,-12 -117,-24 -175,-36 -48,-19 -97,-39 -145,-59 -4,-15 -9,-31 -13,-46 3,-14 6,-29 9,-43 6,0 13,-1 20,-1 6,-1 11,-2 17,-3 9,-2 18,-4 27,-6 7,-3 14,-6 22,-9 5,-5 10,-10 15,-16 1,-6 3,-12 4,-18 6,-3 11,-6 17,-9 8,-4 15,-8 23,-12 5,-5 11,-9 16,-14 0,-5 -1,-10 -1,-16 -6,-5 -11,-9 -17,-14 -7,-4 -13,-8 -20,-11 -7,-3 -15,-6 -22,-9 -4,-5 -7,-10 -11,-15 0,-6 0,-12 0,-19 4,-6 7,-12 11,-18 6,-6 13,-12 19,-19 5,-6 11,-13 16,-19 2,-7 3,-13 5,-20 4,-10 9,-21 13,-32 3,-7 6,-15 10,-23 5,-4 10,-8 16,-13 8,-3 16,-6 24,-9 7,1 14,2 22,2 6,5 13,9 19,13 6,0 12,0 19,0 6,-1 12,-1 18,-2 7,-2 14,-4 21,-6 8,-4 16,-7 24,-11 8,-5 17,-10 25,-14 7,-7 13,-14 20,-21 8,0 16,-1 24,-2 10,2 20,4 30,7 1,0 2,1 3,1 7,3 15,6 22,9 3,5 7,11 10,16 6,4 11,9 17,13 6,3 12,6 18,9 6,2 13,3 20,5 6,2 13,4 20,6 5,2 10,4 15,6 6,0 12,0 18,0 5,-2 11,-4 17,-7 1,-5 3,-11 5,-17 1,-6 3,-13 5,-20 6,0 12,0 18,-1 3,5 7,10 11,14 3,6 7,12 10,18 7,-1 14,-1 21,-1 7,-2 15,-3 23,-4 6,1 13,1 19,2 10,1 19,1 28,2 11,0 22,0 33,0 5,1 10,3 15,4 6,1 12,2 19,2 6,3 12,6 18,8 2,4 4,8 6,12 2,2 4,5 6,8 6,4 12,8 19,11 6,3 12,5 18,7 3,0 6,0 9,0 6,-2 12,-4 18,-6 6,-4 12,-8 18,-12 5,0 9,0 13,0 1,4 2,9 2,13 3,10 5,20 7,30 4,6 9,13 13,20 5,1 11,2 16,4 8,0 16,0 24,0 4,-5 8,-9 12,-13 0,-7 0,-14 0,-21 2,-6 4,-12 7,-18 5,-3 10,-7 16,-10 4,-1 7,-1 11,-1 1,0 3,0 4,0 4,-3 8,-5 12,-8 8,0 16,0 23,0 6,2 12,4 18,6 8,1 16,1 24,2 9,-2 18,-4 27,-6 1,-6 2,-13 3,-19 0,-8 0,-17 0,-25 2,-9 4,-18 6,-27 3,-5 5,-10 8,-15 6,0 13,0 20,-1 5,3 10,5 15,7 7,2 15,4 22,6 5,4 11,8 16,12 6,-1 13,-2 19,-3 5,-1 10,-2 14,-3 3,-4 6,-8 8,-12 2,-4 4,-9 6,-13 -1,-6 -2,-11 -2,-17 -2,-3 -3,-6 -5,-10 -6,-3 -11,-7 -17,-10 3,-3 6,-6 8,-8 7,-4 13,-8 20,-12 6,-4 12,-8 18,-12 6,-2 12,-5 18,-8 7,2 13,3 19,5 6,6 12,13 18,19 9,4 17,9 25,13 9,1 17,1 25,2 10,0 20,0 31,0 11,-3 23,-5 34,-7 12,-3 23,-6 35,-8 8,-4 16,-8 24,-12 11,-5 21,-9 32,-14 7,2 15,3 22,5 5,3 11,5 16,8 1,4 3,9 4,13z"/>
   <path fill="#326040" d="M1647 130c-5,6 -10,12 -14,17 -6,6 -12,11 -19,16 -2,6 -5,11 -8,17 2,8 3,16 5,24 1,7 3,14 5,20 -3,7 -5,14 -7,20 -2,7 -3,14 -5,20 -1,7 -2,14 -4,21 0,9 -1,18 -2,27 1,12 2,24 3,37 3,2 5,5 8,8 0,0 1,1 2,2 2,0 3,0 5,0 4,-1 8,-1 12,-1 8,-3 16,-6 24,-9 9,-4 18,-7 27,-11 10,-3 21,-7 32,-11 6,-2 12,-5 19,-7 12,0 25,0 38,0 8,1 16,1 24,1 3,2 6,5 10,7 5,2 11,5 16,7 3,3 6,6 9,9 4,5 9,10 13,15 4,4 8,7 12,11 6,2 11,3 17,5 3,3 7,5 11,7 5,5 11,11 16,16 7,6 14,12 21,17 1,6 1,12 2,18 -6,4 -12,9 -18,14 -3,6 -6,13 -8,19 1,6 3,12 5,18 4,4 9,7 13,11 6,3 12,7 17,11 7,3 13,6 20,9 9,7 18,14 27,21 10,8 20,15 29,23 5,4 9,8 14,13 7,0 14,1 21,2 6,7 13,13 19,19 6,6 12,12 18,18 -1,6 -1,12 -2,17 -4,3 -9,6 -13,9 -7,4 -14,7 -21,11 -6,2 -11,5 -16,8 -8,6 -15,11 -22,17 -6,7 -12,15 -17,22 -4,4 -7,8 -10,12 -10,3 -20,5 -30,7 -9,3 -18,6 -26,9 -9,2 -18,5 -26,7 -7,4 -14,8 -21,12 -8,6 -16,12 -24,18 -10,6 -19,12 -29,18 -5,1 -9,3 -14,4 0,-1 0,-3 0,-4 -58,-30 -115,-60 -172,-90 -24,-10 -48,-20 -73,-30 -10,-1 -19,-1 -29,-2 -18,-1 -35,-2 -53,-3 -32,15 -64,29 -96,43 -18,10 -36,19 -54,29 -78,0 -156,0 -234,-1 -76,0 -151,0 -227,0 -20,0 -41,0 -61,0 -56,6 -113,11 -170,17 -28,8 -56,15 -84,23 -51,-7 -102,-15 -153,-22 -8,-2 -16,-4 -24,-5 -58,-12 -117,-24 -175,-36 -48,-20 -97,-40 -145,-59 -4,-16 -9,-31 -13,-46 3,-15 6,-29 9,-43 6,-1 13,-1 20,-2 6,-1 11,-2 17,-2 9,-2 18,-4 27,-6 7,-3 14,-6 22,-9 5,-6 10,-11 15,-16 1,-6 3,-13 4,-19 6,-3 11,-6 17,-9 8,-4 15,-8 23,-12 5,-4 11,-9 16,-13 0,-6 -1,-11 -1,-16 -6,-5 -11,-10 -17,-14 -7,-4 -13,-8 -20,-12 -7,-3 -14,-6 -22,-9 -4,-5 -7,-10 -11,-15 0,-6 0,-12 0,-18 4,-6 7,-12 11,-19 7,-6 13,-12 19,-18 5,-7 11,-13 16,-20 2,-6 3,-13 5,-19 4,-11 9,-21 13,-32 3,-8 6,-16 10,-23 5,-5 10,-9 16,-13 8,-3 16,-6 24,-9 7,1 14,1 22,2 6,4 13,8 19,13 6,0 13,0 19,0 6,-1 12,-2 18,-3 7,-1 14,-3 21,-5 8,-4 16,-8 24,-12 9,-4 17,-9 25,-14 7,-7 13,-13 20,-20 8,-1 16,-2 24,-3 10,3 20,5 30,7 1,1 2,1 3,2 7,3 15,6 22,9 3,5 7,10 10,16 6,4 11,8 17,13 6,3 12,6 18,9 6,1 13,3 20,4 6,2 13,5 20,7 5,2 10,4 15,6 6,0 12,0 18,0 5,-2 11,-5 17,-7 1,-6 3,-11 5,-17 1,-7 3,-13 5,-20 6,0 12,-1 18,-1 3,5 7,9 11,14 3,6 7,11 10,17 7,0 14,0 21,-1 7,-1 15,-2 23,-4 6,1 13,2 19,3 10,0 19,1 28,1 11,0 22,0 33,0 5,2 10,3 15,5 6,0 12,1 19,2 6,2 12,5 18,8 2,4 4,7 6,11 2,3 4,6 6,8 6,4 12,8 19,12 6,2 12,5 18,7 3,0 6,0 9,0 6,-2 12,-4 18,-6 6,-4 12,-8 18,-13 5,0 9,0 13,0 1,5 2,9 2,14 3,10 5,19 7,29 5,7 9,14 13,20 5,2 11,3 16,4 8,0 16,0 24,0 4,-4 8,-8 12,-12 0,-7 0,-14 0,-21 2,-6 4,-12 7,-18 5,-4 10,-7 16,-11 4,0 7,0 11,-1 1,0 3,0 4,0 4,-2 8,-5 12,-7 8,0 16,0 23,0 6,2 12,4 18,6 8,0 16,1 24,1 9,-2 18,-4 27,-6 1,-6 2,-12 3,-18 0,-9 0,-17 0,-25 2,-10 4,-19 6,-28 3,-5 5,-9 8,-14 6,0 13,-1 20,-1 5,2 10,5 15,7 7,2 15,4 22,5 5,5 11,9 16,13 6,-1 13,-2 19,-3 5,-1 10,-3 14,-4 3,-4 6,-7 8,-11 2,-5 4,-9 6,-14 -1,-5 -2,-11 -2,-16 -2,-3 -3,-7 -5,-10 -6,-4 -11,-7 -17,-11 3,-2 6,-5 8,-8 7,-4 13,-8 20,-12 6,-3 12,-7 18,-11 6,-3 12,-6 18,-9 7,2 13,4 19,6 6,6 12,12 18,18 9,5 17,9 25,14 9,0 17,1 25,1 10,0 20,0 31,0 11,-2 23,-5 34,-7 12,-3 23,-5 35,-8 8,-4 16,-7 24,-11 11,-5 21,-10 32,-14 7,1 15,3 22,4 5,3 11,6 16,9 1,4 3,8 4,12z"/>
   <path fill="#366545" d="M1644 123c-5,5 -10,11 -14,17 -6,5 -12,11 -19,16 -2,5 -5,11 -8,16 2,8 3,16 5,24 1,7 3,14 5,21 -3,7 -5,13 -7,20 -2,6 -3,13 -5,20 -1,7 -2,14 -4,21 0,9 -1,17 -2,26 1,13 2,25 3,37 3,3 5,6 8,8 0,1 1,2 2,3 2,0 3,-1 5,-1 4,0 8,-1 12,-1 8,-3 16,-6 24,-9 9,-3 18,-7 27,-10 10,-4 21,-8 32,-12 6,-2 12,-4 19,-6 12,0 25,0 38,0 8,0 16,0 24,1 3,2 7,4 10,7 5,2 11,4 16,6 3,3 6,6 9,10 4,5 9,10 13,15 4,3 8,7 12,10 6,2 11,4 17,6 3,2 7,4 11,6 5,6 11,11 16,17 7,5 14,11 21,17 1,6 1,11 2,17 -6,5 -12,9 -18,14 -3,7 -6,13 -8,20 1,6 3,12 5,18 4,3 9,7 13,10 6,4 12,8 17,11 7,4 13,7 20,10 9,7 18,14 27,21 10,7 20,15 29,23 5,4 9,8 14,12 7,1 14,2 21,3 6,6 13,12 19,19 6,6 12,12 18,18 -1,5 -1,11 -2,17 -4,3 -9,6 -13,9 -7,3 -14,7 -21,10 -6,3 -11,6 -16,8 -8,6 -15,12 -22,18 -6,7 -12,14 -17,21 -4,5 -7,9 -10,13 -10,2 -20,4 -30,7 -9,2 -17,5 -26,8 -9,3 -18,5 -26,8 -7,4 -14,7 -21,11 -8,6 -16,12 -24,18 -10,6 -19,12 -29,18 -5,2 -9,3 -14,4 0,-1 0,-2 0,-3 -58,-30 -115,-61 -172,-91 -24,-10 -48,-20 -73,-29 -9,-1 -19,-2 -29,-2 -18,-1 -35,-2 -53,-3 -32,14 -64,28 -96,42 -18,10 -36,20 -54,30 -78,-1 -156,-1 -234,-1 -75,0 -151,0 -227,0 -20,0 -40,0 -60,0 -57,5 -114,11 -171,16 -28,8 -56,16 -84,24 -51,-8 -102,-15 -153,-23 -8,-1 -16,-3 -24,-5 -58,-12 -117,-24 -175,-36 -48,-19 -97,-39 -145,-59 -4,-15 -9,-31 -13,-46 3,-14 6,-28 9,-43 6,0 13,-1 20,-1 6,-1 11,-2 17,-3 9,-2 18,-4 27,-6 7,-3 14,-6 22,-9 5,-5 10,-10 15,-15 1,-7 3,-13 4,-19 6,-3 11,-6 17,-9 8,-4 15,-8 23,-12 5,-5 11,-9 16,-14 0,-5 -1,-10 -1,-16 -6,-4 -11,-9 -17,-14 -7,-4 -13,-8 -20,-11 -7,-3 -14,-6 -22,-9 -4,-5 -7,-10 -11,-15 0,-6 0,-12 0,-18 4,-7 7,-13 11,-19 7,-6 13,-12 19,-18 5,-7 11,-14 16,-20 2,-7 3,-13 5,-19 4,-11 9,-22 13,-33 3,-7 6,-15 10,-23 5,-4 10,-8 16,-13 8,-3 16,-6 24,-8 7,0 14,1 22,2 6,4 13,8 19,12 6,0 13,0 19,0 6,-1 12,-1 18,-2 7,-2 14,-4 21,-6 8,-3 16,-7 24,-11 9,-5 17,-10 25,-14 7,-7 13,-14 20,-20 8,-1 16,-2 24,-3 10,2 20,4 30,7 1,0 2,1 3,1 7,3 15,6 22,9 3,6 7,11 10,16 6,5 11,9 17,13 6,3 12,6 18,9 6,2 13,3 20,5 7,2 13,4 20,7 5,1 10,3 15,5 6,0 12,0 18,0 6,-2 11,-4 17,-7 1,-5 3,-11 5,-17 1,-6 3,-13 5,-19 6,-1 12,-1 18,-1 3,4 7,9 11,14 3,5 7,11 10,17 7,-1 14,-1 21,-1 7,-2 15,-3 23,-4 7,1 13,1 19,2 10,1 19,1 28,2 11,0 22,0 33,0 5,1 10,3 15,4 6,1 12,2 19,2 6,3 12,6 18,8 2,4 4,8 7,12 1,2 3,5 5,8 6,4 12,8 19,12 6,2 12,4 18,6 3,0 6,0 10,0 5,-2 11,-4 17,-6 6,-4 12,-8 18,-12 5,0 9,0 13,0 1,4 2,9 2,14 3,9 5,19 7,29 5,6 9,13 13,20 5,1 11,2 16,4 8,0 16,0 24,0 4,-4 8,-9 12,-13 0,-7 0,-14 0,-21 2,-6 4,-12 7,-18 5,-3 10,-7 16,-10 4,-1 7,-1 11,-1 1,0 3,0 4,0 4,-3 8,-5 12,-8 8,0 16,0 23,0 6,2 12,4 18,6 8,1 16,1 24,2 9,-2 18,-4 27,-6 1,-6 2,-13 3,-19 0,-8 0,-17 0,-25 2,-9 4,-18 6,-27 3,-5 5,-10 8,-14 6,-1 13,-1 20,-1 5,2 10,4 15,6 7,2 15,4 22,6 5,4 11,8 16,13 6,-2 13,-3 19,-4 5,-1 10,-2 14,-3 3,-4 6,-8 8,-12 2,-4 4,-9 6,-13 -1,-6 -2,-11 -2,-16 -2,-4 -3,-7 -5,-11 -6,-3 -11,-7 -17,-10 3,-3 6,-6 8,-8 7,-4 13,-8 20,-12 6,-4 12,-8 18,-11 6,-3 12,-6 18,-9 7,2 13,3 19,5 6,6 12,13 18,19 9,4 17,9 25,13 9,1 17,1 25,2 10,0 20,0 31,0 11,-3 23,-5 34,-7 12,-3 23,-6 35,-8 8,-4 16,-8 24,-12 11,-4 21,-9 32,-14 7,2 15,3 22,5 5,3 11,5 16,8 1,4 3,9 4,13z"/>
   <path fill="#3A6A49" d="M1641 115c-5,6 -10,12 -14,17 -6,6 -12,11 -19,16 -2,6 -5,11 -8,17 2,8 3,16 5,24 1,7 3,14 5,20 -3,7 -5,14 -7,20 -2,7 -3,14 -5,20 -1,7 -2,14 -4,21 0,9 -1,18 -2,27 1,12 2,25 3,37 3,2 5,5 8,8 0,1 1,1 2,2 2,0 3,0 5,0 4,-1 8,-1 12,-1 8,-3 16,-6 24,-9 9,-4 18,-7 27,-11 10,-3 21,-7 32,-11 6,-2 12,-5 19,-7 12,0 25,0 38,0 8,1 16,1 24,1 3,3 7,5 10,7 5,2 11,5 16,7 3,3 6,6 9,9 4,5 9,10 13,15 4,4 8,7 12,11 6,2 11,4 17,5 3,3 7,5 11,7 5,5 11,11 16,16 7,6 14,12 21,17 1,6 1,12 2,18 -6,4 -12,9 -18,14 -3,6 -6,13 -8,19 1,6 3,12 5,18 4,4 9,7 13,11 6,3 12,7 17,11 7,3 13,6 20,9 9,7 18,14 27,21 10,8 20,16 29,23 5,4 9,9 14,13 7,0 14,1 21,2 6,7 13,13 19,19 6,6 12,12 18,18 -1,6 -1,12 -2,17 -4,3 -9,6 -13,9 -7,4 -14,7 -21,11 -6,2 -11,5 -16,8 -8,6 -15,11 -22,17 -6,7 -12,15 -17,22 -4,4 -7,8 -10,12 -10,3 -20,5 -30,7 -9,3 -17,6 -26,9 -9,2 -18,5 -26,7 -7,4 -14,8 -21,12 -8,6 -16,12 -24,18 -10,6 -19,12 -29,18 -5,1 -9,3 -14,4 0,-1 0,-3 0,-4 -58,-30 -115,-60 -172,-90 -24,-10 -48,-20 -73,-30 -9,-1 -19,-1 -29,-2 -18,-1 -35,-2 -53,-3 -32,15 -64,29 -96,43 -18,10 -36,19 -54,29 -78,0 -156,0 -233,0 -76,-1 -152,-1 -228,-1 -20,0 -40,0 -60,0 -57,6 -114,11 -171,17 -28,8 -56,15 -84,23 -51,-7 -102,-15 -153,-22 -8,-2 -16,-4 -24,-5 -58,-12 -117,-24 -175,-36 -48,-20 -97,-40 -145,-59 -4,-16 -9,-31 -13,-46 3,-15 6,-29 9,-43 6,-1 13,-1 20,-2 6,-1 12,-2 17,-2 9,-2 18,-4 27,-6 7,-3 14,-6 22,-9 5,-6 10,-11 15,-16 1,-6 3,-13 4,-19 6,-3 11,-6 17,-9 8,-4 15,-8 23,-12 5,-4 11,-9 16,-13 0,-6 -1,-11 -1,-16 -6,-5 -11,-10 -17,-14 -7,-4 -13,-8 -20,-12 -7,-3 -14,-6 -22,-9 -4,-5 -7,-10 -11,-15 0,-6 0,-12 0,-18 4,-6 7,-12 11,-19 7,-6 13,-12 19,-18 5,-6 11,-13 16,-20 2,-6 3,-12 5,-19 4,-11 9,-21 13,-32 3,-8 6,-15 10,-23 5,-4 10,-9 16,-13 8,-3 16,-6 24,-9 7,1 14,1 22,2 6,4 13,8 19,13 6,0 13,0 19,0 6,-1 12,-2 18,-3 7,-1 14,-3 21,-5 8,-4 16,-8 24,-12 9,-4 17,-9 25,-14 7,-6 13,-13 20,-20 8,-1 16,-2 24,-3 10,3 20,5 30,7 1,1 2,1 3,2 7,3 15,6 22,9 3,5 7,10 10,16 6,4 11,8 17,13 6,3 12,6 18,9 6,1 13,3 20,4 7,3 13,5 20,7 5,2 10,4 15,6 6,0 12,0 18,0 6,-2 11,-5 17,-7 1,-6 3,-11 5,-17 2,-7 3,-13 5,-20 6,0 12,-1 18,-1 3,5 7,9 11,14 3,6 7,12 10,17 7,0 14,0 21,-1 7,-1 15,-2 23,-4 7,1 13,2 19,3 10,0 19,1 28,1 11,0 22,0 33,0 5,2 10,3 15,5 6,0 12,1 19,2 6,3 12,5 18,8 2,4 4,7 7,11 1,3 3,6 5,8 6,4 13,8 19,12 6,2 12,5 18,7 3,0 6,0 10,0 5,-2 11,-4 17,-6 6,-4 12,-8 18,-13 5,0 9,0 13,0 1,5 2,10 2,14 3,10 5,20 7,29 5,7 9,14 13,20 5,2 11,3 16,4 8,0 16,0 24,0 4,-4 8,-8 12,-12 0,-7 0,-14 0,-21 2,-6 4,-12 7,-18 5,-4 10,-7 16,-11 4,0 7,0 11,-1 1,0 3,0 4,0 4,-2 8,-5 12,-7 8,0 16,0 23,0 6,2 12,4 18,6 8,0 16,1 24,1 9,-2 18,-4 28,-6 0,-6 1,-12 2,-18 0,-9 0,-17 0,-25 2,-10 4,-19 6,-28 3,-5 5,-9 8,-14 6,0 13,-1 20,-1 5,2 10,5 15,7 7,2 15,4 22,5 5,5 11,9 16,13 6,-1 13,-2 19,-3 5,-1 10,-3 14,-4 3,-4 6,-7 8,-11 2,-5 4,-9 6,-14 -1,-5 -1,-11 -2,-16 -2,-3 -3,-7 -5,-10 -5,-4 -11,-7 -17,-11 3,-2 6,-5 8,-8 7,-4 13,-8 20,-12 6,-3 12,-7 18,-11 6,-3 12,-6 18,-9 7,2 13,4 19,6 6,6 12,12 18,18 9,5 17,9 25,14 9,0 17,1 25,1 10,0 20,0 31,0 11,-2 23,-4 34,-7 12,-2 23,-5 35,-8 8,-4 16,-7 24,-11 11,-5 21,-10 32,-14 7,1 15,3 22,4 5,3 11,6 16,9 1,4 3,8 4,12z"/>
   <path fill="#3E6F4E" d="M1638 108c-5,5 -10,11 -14,17 -6,5 -12,11 -19,16 -2,5 -5,11 -8,16 2,8 3,16 5,24 1,7 3,14 5,21 -3,7 -5,13 -7,20 -2,7 -3,13 -5,20 -1,7 -2,14 -4,21 0,9 -1,18 -2,26 1,13 2,25 3,37 3,3 5,6 8,8 0,1 1,2 2,3 2,0 3,-1 5,-1 4,0 8,-1 12,-1 8,-3 16,-6 24,-9 9,-3 18,-7 27,-10 10,-4 21,-8 32,-11 6,-3 12,-5 19,-7 12,0 25,0 38,0 8,0 16,0 24,1 3,2 7,4 10,7 5,2 11,4 16,6 3,3 6,7 9,10 4,5 9,10 13,15 4,3 8,7 12,10 6,2 11,4 17,6 3,2 7,4 11,7 5,5 11,10 16,16 7,5 14,11 21,17 1,6 1,11 2,17 -6,5 -12,9 -18,14 -3,7 -6,13 -8,20 1,6 3,12 5,18 4,3 9,7 13,10 6,4 12,8 17,12 7,3 13,6 20,9 9,7 18,14 27,21 10,7 20,15 29,23 5,4 9,8 14,12 7,1 14,2 21,3 6,6 13,13 20,19 5,6 11,12 17,18 -1,5 -1,11 -2,17 -4,3 -9,6 -13,9 -7,3 -14,7 -21,10 -6,3 -11,6 -16,8 -8,6 -15,12 -22,18 -6,7 -12,14 -17,21 -4,5 -7,9 -10,13 -10,2 -20,4 -30,7 -9,3 -17,5 -26,8 -9,3 -18,5 -26,8 -7,4 -14,8 -21,11 -8,6 -16,12 -24,18 -10,6 -19,12 -29,18 -5,2 -9,3 -14,5 0,-2 0,-3 0,-4 -58,-30 -115,-61 -172,-91 -24,-10 -48,-20 -73,-29 -9,-1 -19,-2 -29,-2 -18,-1 -35,-2 -53,-3 -32,14 -64,28 -96,43 -18,9 -36,19 -54,29 -78,0 -156,-1 -233,-1 -76,0 -152,0 -228,0 -20,0 -40,0 -60,0 -57,5 -114,11 -171,16 -28,8 -56,16 -84,24 -51,-8 -102,-15 -153,-23 -8,-1 -16,-3 -24,-5 -58,-12 -117,-24 -175,-36 -48,-19 -97,-39 -145,-59 -4,-15 -9,-30 -13,-46 3,-14 6,-28 9,-43 6,0 13,-1 20,-1 6,-1 12,-2 17,-3 9,-2 18,-4 27,-5 7,-4 14,-7 22,-10 5,-5 10,-10 15,-15 1,-7 3,-13 4,-19 6,-3 11,-6 17,-9 8,-4 15,-8 23,-12 5,-5 11,-9 16,-14 0,-5 -1,-10 -1,-16 -6,-4 -11,-9 -17,-14 -7,-4 -13,-7 -20,-11 -7,-3 -14,-6 -22,-9 -4,-5 -7,-10 -11,-15 0,-6 0,-12 0,-18 4,-7 7,-13 11,-19 7,-6 13,-12 19,-18 5,-7 11,-13 16,-20 2,-6 3,-13 5,-19 4,-11 9,-22 13,-33 3,-7 7,-15 10,-23 5,-4 10,-8 16,-13 8,-3 16,-5 24,-8 7,0 14,1 22,2 6,4 13,8 19,12 6,0 13,0 19,0 6,-1 12,-1 18,-2 7,-2 14,-4 21,-6 8,-3 16,-7 24,-11 9,-5 17,-9 25,-14 7,-7 13,-14 20,-20 8,-1 16,-2 24,-3 10,2 20,4 30,7 1,0 2,1 3,1 7,3 15,6 22,9 3,6 7,11 10,16 6,5 11,9 17,13 6,3 12,6 18,9 6,2 13,3 20,5 7,2 13,4 20,7 5,2 10,3 15,5 6,0 12,0 18,0 6,-2 11,-4 17,-6 1,-6 3,-12 5,-18 2,-6 3,-13 5,-19 6,-1 12,-1 18,-1 3,4 7,9 11,14 3,5 7,11 10,17 7,-1 14,-1 21,-1 7,-1 15,-3 23,-4 7,1 13,1 19,2 10,1 19,1 28,2 11,0 22,0 33,0 5,1 10,3 15,4 6,1 12,2 19,2 6,3 12,6 18,8 2,4 4,8 7,12 1,3 3,5 5,8 6,4 13,8 19,12 6,2 12,4 18,6 3,0 6,0 10,0 5,-2 11,-4 17,-5 6,-5 12,-9 19,-13 4,0 8,0 12,0 1,5 2,9 2,14 3,9 5,19 7,29 5,6 9,13 13,20 5,1 11,3 16,4 8,0 16,0 24,0 4,-4 8,-9 12,-13 0,-7 0,-14 0,-21 2,-6 4,-12 7,-18 5,-3 10,-7 16,-10 4,-1 7,-1 11,-1 1,0 3,0 4,0 4,-3 8,-5 12,-8 8,0 16,0 23,0 6,2 12,4 18,6 8,1 16,1 24,2 9,-2 18,-4 28,-6 0,-6 1,-13 2,-19 0,-8 0,-16 0,-25 2,-9 4,-18 6,-27 3,-5 5,-10 8,-14 7,-1 13,-1 20,-1 5,2 10,4 15,6 7,2 15,4 22,6 5,4 11,8 16,13 6,-1 13,-3 19,-4 5,-1 10,-2 14,-3 3,-4 6,-8 8,-12 2,-4 4,-9 6,-13 -1,-6 -1,-11 -2,-16 -2,-4 -3,-7 -5,-11 -5,-3 -11,-7 -17,-10 3,-3 6,-6 8,-8 7,-4 13,-8 20,-12 6,-4 12,-8 18,-11 6,-3 12,-6 18,-9 7,2 13,4 19,5 6,7 12,13 18,19 9,4 17,9 25,13 9,1 17,1 25,2 10,0 20,0 31,0 11,-3 23,-5 34,-7 12,-3 23,-6 35,-8 8,-4 16,-8 24,-12 11,-4 21,-9 32,-14 7,2 15,3 22,5 5,3 11,5 16,8 1,4 3,9 4,13z"/>
   <path fill="#437552" d="M1635 100c-5,6 -10,12 -14,17 -6,6 -12,11 -19,17 -2,5 -5,10 -8,16 2,8 3,16 5,24 1,7 3,14 5,21 -3,6 -5,13 -7,19 -2,7 -3,14 -5,21 -1,6 -2,13 -4,20 0,9 -1,18 -2,27 1,12 2,25 3,37 3,3 5,5 8,8 0,1 1,1 2,2 2,0 3,0 5,0 4,-1 8,-1 12,-1 8,-3 16,-6 24,-9 9,-4 18,-7 27,-11 10,-3 21,-7 32,-11 6,-2 12,-4 19,-7 12,0 25,0 38,0 8,1 16,1 24,1 3,3 7,5 10,7 5,2 11,5 16,7 3,3 6,6 9,9 4,5 9,10 13,15 4,4 8,7 12,11 6,2 11,4 17,5 3,3 7,5 11,7 5,5 11,11 16,16 7,6 14,12 21,18 1,5 1,11 2,17 -6,4 -12,9 -18,14 -3,6 -6,13 -8,19 1,6 3,12 5,18 5,4 9,7 13,11 6,3 12,7 17,11 7,3 13,6 20,9 9,7 18,14 27,21 10,8 20,16 29,23 5,4 9,9 14,13 7,1 14,1 21,2 6,7 13,13 20,19 5,6 11,12 17,18 -1,6 -1,12 -2,17 -4,3 -9,6 -13,9 -7,4 -14,7 -21,11 -6,2 -11,5 -16,8 -8,6 -15,12 -22,17 -6,8 -12,15 -17,22 -4,4 -7,8 -10,12 -10,3 -20,5 -30,7 -9,3 -17,6 -26,9 -9,2 -18,5 -26,7 -7,4 -14,8 -21,12 -8,6 -16,12 -24,18 -10,6 -19,12 -29,18 -5,1 -9,3 -14,4 0,-1 0,-3 0,-4 -58,-30 -115,-60 -172,-90 -24,-10 -48,-20 -73,-30 -9,0 -19,-1 -29,-2 -18,-1 -35,-2 -53,-3 -32,15 -64,29 -96,43 -18,10 -36,20 -54,29 -78,0 -156,0 -233,0 -76,-1 -152,-1 -228,-1 -20,0 -40,0 -60,0 -57,6 -114,11 -171,17 -28,8 -56,15 -84,23 -51,-7 -102,-15 -153,-22 -8,-2 -16,-4 -24,-5 -58,-12 -117,-24 -175,-36 -48,-20 -97,-39 -145,-59 -4,-16 -9,-31 -13,-46 3,-15 6,-29 9,-43 6,-1 13,-1 20,-2 6,-1 12,-1 17,-2 9,-2 18,-4 27,-6 7,-3 14,-6 22,-9 5,-6 10,-11 15,-16 1,-6 3,-12 4,-19 6,-3 11,-6 17,-9 8,-4 15,-8 23,-12 5,-4 11,-9 16,-13 0,-5 -1,-11 -1,-16 -6,-5 -11,-10 -17,-14 -7,-4 -13,-8 -20,-12 -7,-3 -14,-6 -22,-9 -3,-5 -7,-10 -11,-15 0,-6 0,-12 0,-18 4,-6 8,-12 11,-19 7,-6 13,-12 19,-18 5,-6 11,-13 16,-19 2,-7 3,-13 5,-20 4,-11 9,-21 13,-32 3,-8 7,-15 10,-23 5,-4 10,-9 16,-13 8,-3 16,-6 24,-9 7,1 14,1 22,2 6,4 13,9 19,13 6,0 13,0 19,0 6,-1 12,-2 18,-3 7,-1 14,-3 21,-5 8,-4 16,-8 24,-11 9,-5 17,-10 25,-15 7,-6 13,-13 20,-20 8,-1 16,-2 24,-2 10,2 20,4 30,6 1,1 2,1 3,2 7,3 15,6 22,9 3,5 7,10 10,16 6,4 11,8 17,13 6,3 12,6 18,9 6,1 13,3 20,4 7,3 13,5 20,7 5,2 10,4 15,6 6,0 12,0 18,0 6,-2 11,-5 17,-7 2,-6 3,-11 5,-17 2,-7 3,-13 5,-20 6,0 12,-1 18,-1 3,5 7,9 11,14 3,6 7,12 10,17 7,0 14,0 21,-1 7,-1 15,-2 23,-4 7,1 13,2 19,3 10,0 19,1 28,1 11,0 22,0 33,0 5,2 10,3 15,5 6,1 12,1 19,2 6,3 12,5 18,8 2,4 4,8 7,11 1,3 3,6 5,9 6,3 13,7 19,11 6,2 12,5 18,7 3,0 6,0 10,0 5,-2 11,-4 17,-6 6,-4 12,-8 19,-12 4,0 8,0 12,0 1,4 2,9 2,13 3,10 5,20 7,29 5,7 9,14 13,20 5,2 11,3 16,4 8,0 16,0 25,0 3,-4 7,-8 11,-12 0,-7 0,-14 0,-21 2,-6 4,-12 7,-18 5,-4 10,-7 16,-11 4,0 7,0 11,-1 2,0 3,0 4,0 4,-2 8,-5 12,-7 8,0 16,0 23,0 6,2 12,4 18,6 8,0 16,1 24,1 9,-2 18,-4 28,-6 0,-6 1,-12 2,-18 0,-9 0,-17 0,-25 2,-9 4,-19 6,-28 3,-5 5,-9 8,-14 7,0 13,-1 20,-1 5,2 10,5 15,7 7,2 15,4 22,6 5,4 11,8 16,12 6,-1 13,-2 19,-3 5,-1 10,-2 14,-4 3,-3 6,-7 8,-11 2,-5 4,-9 6,-14 -1,-5 -1,-11 -2,-16 -2,-3 -3,-7 -5,-10 -5,-4 -11,-7 -17,-11 3,-2 6,-5 8,-8 7,-4 13,-8 20,-12 6,-3 12,-7 18,-11 6,-3 12,-6 18,-9 7,2 13,4 19,6 6,6 12,12 18,18 9,5 17,9 25,14 9,0 17,1 25,1 10,0 20,0 31,0 11,-2 23,-4 34,-7 12,-2 23,-5 35,-8 8,-4 16,-7 24,-11 11,-5 21,-10 32,-14 7,1 15,3 22,4 5,3 11,6 16,9 1,4 3,8 4,12z"/>
   <path fill="#477A57" d="M1632 93c-5,6 -10,11 -14,17 -6,5 -12,11 -19,16 -2,5 -5,11 -8,16 2,8 3,16 5,24 1,7 3,14 5,21 -3,7 -5,13 -7,20 -2,7 -3,13 -5,20 -1,7 -2,14 -4,21 0,9 -1,18 -2,26 1,13 2,25 3,37 3,3 5,6 8,8 0,1 1,2 2,3 2,0 3,-1 5,-1 4,0 8,0 12,-1 8,-3 16,-6 24,-9 9,-3 18,-7 27,-10 10,-4 21,-8 32,-11 6,-3 12,-5 19,-7 12,0 25,0 38,0 8,0 16,0 24,1 3,2 7,4 10,7 5,2 11,4 16,6 3,3 6,7 9,10 4,5 9,10 13,15 4,3 8,7 12,10 6,2 11,4 17,6 3,2 7,4 11,7 5,5 11,10 16,16 7,6 14,11 21,17 1,6 1,11 2,17 -6,5 -12,10 -18,14 -3,7 -6,13 -8,20 1,6 3,12 5,18 5,3 9,7 13,10 6,4 12,8 17,12 7,3 13,6 20,9 9,7 18,14 27,21 10,7 20,15 29,23 5,4 9,8 14,12 7,1 14,2 21,3 6,6 13,13 20,19 5,6 11,12 17,18 -1,6 -1,11 -2,17 -4,3 -9,6 -13,9 -7,3 -14,7 -21,10 -6,3 -11,6 -16,9 -8,5 -15,11 -22,17 -6,7 -12,14 -17,22 -4,4 -7,8 -10,12 -10,2 -20,5 -30,7 -9,3 -17,5 -26,8 -9,3 -18,5 -26,8 -7,4 -14,8 -21,11 -8,6 -16,12 -24,18 -10,6 -19,12 -29,18 -4,2 -9,3 -14,5 0,-2 0,-3 0,-4 -58,-30 -115,-60 -172,-91 -24,-10 -48,-19 -73,-29 -9,-1 -19,-1 -29,-2 -18,-1 -35,-2 -53,-3 -32,14 -64,28 -96,43 -18,9 -36,19 -54,29 -78,0 -156,-1 -233,-1 -76,0 -152,0 -228,0 -20,0 -40,0 -60,0 -57,5 -114,11 -171,16 -28,8 -56,16 -84,24 -51,-8 -102,-15 -153,-23 -8,-1 -16,-3 -24,-5 -58,-12 -117,-24 -175,-36 -48,-19 -97,-39 -145,-59 -4,-15 -9,-30 -13,-46 3,-14 6,-28 9,-43 6,0 13,-1 20,-1 6,-1 12,-2 17,-3 9,-2 18,-4 27,-5 7,-4 14,-7 22,-10 5,-5 10,-10 15,-15 2,-7 3,-13 4,-19 6,-3 11,-6 17,-9 8,-4 15,-8 23,-12 5,-5 11,-9 16,-14 0,-5 -1,-10 -1,-16 -6,-4 -11,-9 -17,-14 -7,-4 -13,-7 -20,-11 -7,-3 -14,-6 -22,-9 -3,-5 -7,-10 -11,-15 0,-6 0,-12 0,-18 4,-7 8,-13 11,-19 7,-6 13,-12 19,-18 5,-7 11,-13 16,-20 2,-6 3,-13 5,-19 4,-11 9,-22 13,-33 3,-7 7,-15 10,-23 5,-4 10,-8 16,-13 8,-2 16,-5 24,-8 7,0 14,1 22,2 6,4 13,8 19,12 6,0 13,0 19,0 6,0 12,-1 18,-2 7,-2 14,-4 21,-6 8,-3 16,-7 24,-11 9,-5 17,-9 25,-14 7,-7 13,-14 20,-20 8,-1 16,-2 24,-3 10,2 20,5 30,7 1,0 2,1 3,1 7,3 15,6 22,9 3,6 7,11 10,16 6,5 11,9 17,13 6,3 12,6 18,9 6,2 13,3 20,5 7,2 13,4 20,7 5,2 10,4 15,5 6,0 12,0 18,0 6,-2 11,-4 17,-6 2,-6 3,-12 5,-18 2,-6 3,-13 5,-19 6,-1 12,-1 18,-1 3,4 7,9 11,14 3,5 7,11 10,17 7,0 14,-1 21,-1 7,-1 15,-3 23,-4 7,1 13,2 19,2 10,1 19,1 28,2 11,0 22,0 33,0 5,1 10,3 15,4 6,1 13,2 19,2 6,3 12,6 18,8 2,4 4,8 7,12 1,3 3,5 5,8 6,4 13,8 19,12 6,2 12,4 18,6 3,0 6,0 10,0 5,-2 11,-3 17,-5 6,-5 12,-9 19,-13 4,0 8,0 12,0 1,5 2,9 3,14 2,9 4,19 6,29 5,7 9,13 13,20 5,1 11,3 16,4 8,0 16,0 25,0 3,-4 7,-9 11,-13 0,-7 0,-14 0,-21 2,-6 4,-12 7,-18 5,-3 10,-7 16,-10 4,0 7,-1 11,-1 2,0 3,0 4,0 4,-3 8,-5 13,-8 7,0 15,0 22,0 6,2 12,4 18,6 8,1 16,1 24,2 9,-2 18,-4 28,-6 0,-6 1,-13 2,-19 0,-8 0,-16 0,-25 2,-9 4,-18 6,-27 3,-5 5,-10 8,-14 7,-1 13,-1 20,-1 5,2 10,4 15,6 7,2 15,4 22,6 5,4 11,8 16,13 6,-1 13,-2 19,-4 5,-1 10,-2 14,-3 3,-4 6,-8 8,-12 2,-4 4,-9 6,-13 -1,-6 -1,-11 -2,-16 -2,-4 -3,-7 -5,-11 -5,-3 -11,-7 -17,-10 3,-3 6,-6 8,-8 7,-4 13,-8 20,-12 6,-4 12,-8 18,-11 6,-3 12,-6 18,-9 7,2 13,4 19,5 6,7 12,13 18,19 9,4 17,9 25,13 9,1 17,1 25,2 10,0 20,0 31,0 11,-3 23,-5 34,-7 12,-3 23,-6 35,-8 8,-4 16,-8 24,-12 11,-4 21,-9 32,-14 7,2 15,3 22,5 5,3 11,5 16,8 1,4 3,9 4,13z"/>
   <path fill="#4B7F5B" d="M1629 85c-5,6 -9,12 -14,17 -6,6 -12,11 -19,17 -2,5 -5,10 -8,16 2,8 3,16 5,24 1,7 3,14 5,21 -3,6 -5,13 -7,19 -2,7 -3,14 -5,21 -1,6 -2,13 -4,20 0,9 -1,18 -2,27 1,12 2,25 3,37 3,3 5,5 8,8 0,1 1,1 2,2 2,0 3,0 5,0 4,-1 8,-1 12,-1 8,-3 16,-6 24,-9 9,-4 18,-7 27,-10 10,-4 21,-8 32,-12 6,-2 12,-4 19,-7 12,0 25,0 38,0 8,1 16,1 24,1 3,3 7,5 10,7 5,2 11,5 16,7 3,3 6,6 9,9 4,5 9,10 13,15 4,4 8,7 12,11 6,2 11,4 17,6 3,2 7,4 11,6 5,6 11,11 16,16 7,6 14,12 21,18 1,5 1,11 2,17 -6,4 -12,9 -18,14 -3,6 -6,13 -8,19 1,6 3,12 5,18 5,4 9,7 13,11 6,3 12,7 17,11 7,3 13,6 20,10 9,6 18,13 27,20 10,8 20,16 29,23 5,4 9,9 14,13 7,1 14,1 21,2 6,7 13,13 20,20 5,5 11,11 17,17 -1,6 -1,12 -2,17 -4,3 -9,6 -13,9 -7,4 -14,7 -21,11 -6,2 -11,5 -16,8 -8,6 -15,12 -22,17 -6,8 -12,15 -17,22 -3,4 -7,8 -10,12 -10,3 -20,5 -30,7 -9,3 -17,6 -26,9 -9,2 -18,5 -26,7 -7,4 -14,8 -21,12 -8,6 -16,12 -24,18 -10,6 -19,12 -29,18 -4,1 -9,3 -14,4 0,-1 0,-2 0,-4 -57,-30 -115,-60 -172,-90 -24,-10 -48,-20 -73,-30 -9,0 -19,-1 -29,-1 -18,-1 -35,-2 -53,-3 -32,14 -64,28 -96,42 -18,10 -36,20 -54,29 -78,0 -156,0 -233,0 -76,0 -152,-1 -228,-1 -20,0 -40,0 -60,0 -57,6 -114,11 -171,17 -28,8 -56,15 -84,23 -51,-7 -102,-15 -153,-22 -8,-2 -16,-4 -24,-5 -58,-12 -117,-24 -175,-36 -48,-20 -97,-39 -145,-59 -4,-15 -9,-31 -13,-46 3,-15 6,-29 9,-43 6,-1 13,-1 20,-2 6,-1 12,-1 17,-2 9,-2 18,-4 27,-6 7,-3 14,-6 22,-9 5,-5 10,-11 15,-16 2,-6 3,-12 4,-19 6,-3 11,-6 17,-8 8,-4 15,-8 23,-13 5,-4 11,-9 16,-13 0,-5 -1,-11 -1,-16 -6,-5 -11,-10 -17,-14 -7,-4 -13,-8 -20,-12 -7,-3 -14,-6 -22,-8 -3,-6 -7,-11 -11,-16 0,-6 0,-12 0,-18 4,-6 8,-12 11,-18 7,-7 13,-13 19,-19 5,-6 11,-13 16,-19 2,-7 3,-13 5,-20 4,-11 9,-21 13,-32 3,-8 7,-15 10,-23 5,-4 10,-9 16,-13 8,-3 16,-6 24,-9 7,1 14,2 22,2 6,4 13,9 19,13 7,0 13,0 19,0 6,-1 12,-2 18,-2 7,-2 14,-4 21,-6 8,-4 16,-8 24,-11 9,-5 17,-10 25,-15 7,-6 13,-13 20,-20 8,-1 16,-2 24,-2 10,2 20,4 30,6 1,1 2,1 3,2 7,3 15,6 22,9 3,5 7,10 10,16 6,4 11,8 17,13 6,3 12,6 18,9 6,1 13,3 20,4 7,3 13,5 20,7 5,2 10,4 15,6 6,0 12,0 18,0 6,-2 11,-5 17,-7 2,-6 3,-11 5,-17 2,-7 3,-13 5,-20 6,0 12,0 18,-1 3,5 7,10 11,14 3,6 7,12 10,17 7,0 14,0 21,-1 7,-1 15,-2 23,-3 7,0 13,1 19,2 10,0 19,1 28,1 11,0 22,0 33,0 5,2 10,3 15,5 6,1 13,1 19,2 6,3 12,5 18,8 2,4 4,8 7,11 1,3 3,6 5,9 6,3 13,7 19,11 6,2 12,5 18,7 3,0 6,0 10,0 5,-2 11,-4 17,-6 6,-4 12,-8 19,-12 4,0 8,0 12,0 1,4 2,9 3,13 2,10 4,20 6,29 5,7 9,14 13,21 5,1 11,2 16,3 8,0 16,0 25,0 3,-4 7,-8 11,-12 0,-7 0,-14 0,-21 2,-6 4,-12 7,-18 5,-4 11,-7 16,-11 4,0 8,0 11,-1 2,0 3,0 4,0 4,-2 8,-5 13,-7 7,0 15,0 22,0 6,2 12,4 18,6 8,0 16,1 24,1 9,-2 18,-4 28,-5 0,-7 1,-13 2,-19 0,-9 0,-17 0,-25 2,-9 4,-19 6,-28 3,-4 5,-9 8,-14 7,0 13,-1 20,-1 5,2 10,5 15,7 7,2 15,4 22,6 5,4 11,8 16,12 7,-1 13,-2 19,-3 5,-1 10,-2 14,-4 3,-3 6,-7 8,-11 2,-5 4,-9 6,-14 -1,-5 -1,-10 -2,-16 -2,-3 -3,-7 -5,-10 -5,-4 -11,-7 -17,-11 3,-2 6,-5 8,-8 7,-4 13,-8 20,-11 6,-4 12,-8 18,-12 6,-3 12,-6 18,-9 7,2 13,4 19,6 6,6 12,12 18,18 9,5 17,9 25,14 9,0 17,1 25,1 10,0 20,0 31,0 11,-2 23,-4 34,-7 12,-2 23,-5 35,-8 8,-3 16,-7 24,-11 11,-5 21,-10 32,-14 8,1 15,3 22,4 5,3 11,6 16,9 1,4 3,8 4,12z"/>
   <path fill="#4F8460" d="M1626 78c-5,6 -9,11 -14,17 -6,5 -12,11 -19,16 -2,5 -5,11 -8,16 2,8 3,16 5,24 1,7 3,14 5,21 -3,7 -5,13 -7,20 -2,7 -3,13 -5,20 -1,7 -2,14 -4,21 0,9 -1,18 -2,26 1,13 2,25 3,37 3,3 5,6 8,8 1,1 1,2 2,3 2,0 3,-1 5,-1 4,0 8,0 12,-1 8,-3 16,-6 24,-9 9,-3 18,-6 27,-10 10,-4 21,-8 32,-11 6,-3 12,-5 19,-7 12,0 25,0 38,0 8,0 16,1 24,1 3,2 7,4 10,7 5,2 11,4 16,6 3,4 6,7 9,10 4,5 9,10 13,15 4,3 8,7 12,10 6,2 11,4 17,6 3,2 7,4 11,7 5,5 11,10 16,16 7,6 14,11 21,17 1,6 1,12 2,17 -6,5 -12,10 -18,14 -3,7 -6,13 -8,20 2,6 3,12 5,18 5,3 9,7 13,10 6,4 12,8 17,12 7,3 13,6 20,9 9,7 18,14 27,21 10,8 20,15 29,23 5,4 9,8 14,12 7,1 14,2 21,3 6,6 13,13 20,19 5,6 11,12 17,18 -1,6 -1,11 -2,17 -4,3 -9,6 -13,9 -7,3 -14,7 -21,10 -6,3 -11,6 -16,9 -8,5 -15,11 -22,17 -6,7 -12,14 -17,22 -3,4 -7,8 -10,12 -10,2 -20,5 -30,7 -9,3 -17,5 -26,8 -9,3 -18,5 -26,8 -7,4 -14,8 -21,11 -8,6 -16,12 -24,18 -10,6 -19,12 -29,18 -4,2 -9,3 -14,5 0,-2 0,-3 0,-4 -57,-30 -115,-60 -172,-91 -24,-9 -48,-19 -73,-29 -9,-1 -19,-1 -29,-2 -18,-1 -35,-2 -53,-3 -32,14 -64,28 -96,43 -18,9 -36,19 -54,29 -78,0 -156,-1 -233,-1 -76,0 -152,0 -228,0 -20,0 -40,0 -60,0 -57,5 -114,11 -171,16 -28,8 -56,16 -84,24 -51,-8 -102,-15 -153,-23 -8,-1 -16,-3 -24,-5 -58,-12 -117,-24 -175,-36 -48,-19 -97,-39 -145,-59 -4,-15 -9,-30 -13,-46 3,-14 6,-28 9,-43 6,0 13,-1 20,-1 6,-1 12,-2 17,-3 9,-2 18,-3 27,-5 7,-3 14,-7 22,-10 5,-5 10,-10 15,-15 2,-7 3,-13 4,-19 6,-3 11,-6 17,-9 8,-4 15,-8 23,-12 5,-5 11,-9 16,-14 0,-5 -1,-10 -1,-16 -6,-4 -11,-9 -17,-14 -7,-4 -13,-7 -20,-11 -7,-3 -14,-6 -22,-9 -3,-5 -7,-10 -11,-15 0,-6 0,-12 0,-18 4,-7 8,-13 11,-19 7,-6 13,-12 19,-18 5,-7 11,-13 16,-20 2,-6 3,-13 5,-19 4,-11 9,-22 13,-33 3,-7 7,-15 10,-23 5,-4 10,-8 16,-13 8,-2 16,-5 24,-8 7,0 14,1 22,2 6,4 13,8 19,12 7,0 13,0 19,0 6,0 12,-1 18,-2 7,-2 14,-4 21,-5 8,-4 16,-8 24,-12 9,-5 17,-9 25,-14 7,-7 13,-14 20,-20 8,-1 16,-2 24,-3 10,2 20,5 30,7 1,0 2,1 3,1 7,3 15,6 22,9 3,6 7,11 10,16 6,5 11,9 17,13 6,3 12,6 18,9 6,2 13,3 20,5 7,2 14,4 20,7 5,2 10,4 15,6 6,0 12,0 18,0 6,-3 11,-5 17,-7 2,-6 3,-12 5,-17 2,-7 4,-14 5,-20 6,-1 12,-1 18,-1 3,4 7,9 11,14 3,5 7,11 10,17 7,0 14,-1 21,-1 7,-1 15,-3 23,-4 7,1 13,2 19,2 10,1 19,1 28,2 11,0 22,0 33,0 5,1 10,3 15,4 6,1 13,2 19,3 6,2 12,5 18,8 2,3 4,7 7,11 1,3 3,5 5,8 6,4 13,8 19,12 6,2 12,4 18,6 3,0 6,0 10,0 5,-1 11,-3 17,-5 6,-5 12,-9 19,-13 4,0 8,0 12,0 1,5 2,9 3,14 2,9 4,19 6,29 5,7 9,13 13,20 5,1 11,3 16,4 8,0 16,0 25,0 3,-4 7,-9 11,-13 0,-7 0,-14 0,-21 2,-6 4,-12 7,-18 5,-3 11,-7 16,-10 4,0 8,-1 11,-1 2,0 3,0 4,0 4,-3 8,-5 13,-8 7,0 15,0 22,0 6,2 12,4 19,6 7,1 15,1 23,2 9,-2 18,-4 28,-6 0,-6 1,-12 2,-19 0,-8 0,-16 0,-25 2,-9 4,-18 7,-27 2,-5 4,-10 7,-14 7,-1 13,-1 20,-1 5,2 10,4 15,7 7,1 15,3 22,5 5,4 11,9 16,13 7,-1 13,-2 19,-3 5,-2 10,-3 14,-4 3,-4 6,-8 8,-11 2,-5 4,-10 6,-14 -1,-6 -1,-11 -2,-16 -2,-4 -3,-7 -5,-11 -5,-3 -11,-7 -17,-10 3,-3 6,-6 8,-8 7,-4 13,-8 20,-12 6,-4 12,-8 18,-11 6,-3 12,-6 18,-9 7,2 13,4 19,5 6,7 12,13 18,19 9,4 17,9 25,13 9,1 17,1 25,2 10,0 20,0 31,0 11,-2 23,-5 34,-7 12,-3 23,-5 35,-8 8,-4 16,-8 24,-12 11,-4 21,-9 32,-14 8,2 15,3 22,5 5,3 11,6 16,8 1,5 3,9 4,13z"/>
   <path fill="#548964" d="M1623 70c-5,6 -9,12 -14,17 -6,6 -12,11 -19,17 -2,5 -5,10 -8,16 2,8 3,16 5,24 1,7 3,14 5,21 -3,6 -5,13 -7,19 -2,7 -3,14 -5,21 -1,7 -2,13 -4,20 0,9 -1,18 -2,27 1,12 2,25 3,37 3,3 5,5 8,8 1,1 1,2 2,2 2,0 3,0 5,0 4,-1 8,-1 12,-1 8,-3 16,-6 24,-9 9,-3 18,-7 27,-10 10,-4 21,-8 32,-12 6,-2 12,-4 19,-7 12,0 25,0 38,0 8,1 16,1 24,1 3,3 7,5 10,7 5,2 11,5 16,7 3,3 6,6 9,9 4,5 9,10 13,15 4,4 8,7 12,11 6,2 11,4 17,6 3,2 7,4 11,6 5,6 11,11 16,16 7,6 14,12 21,18 1,5 1,11 2,17 -6,4 -12,9 -18,14 -3,6 -6,13 -8,19 2,6 3,12 5,18 5,4 9,7 13,11 6,4 12,7 17,11 7,3 13,6 20,10 9,7 18,13 27,20 10,8 20,16 29,23 5,5 9,9 14,13 7,1 14,2 21,2 6,7 13,13 20,20 5,6 11,11 17,17 -1,6 -1,12 -2,18 -4,2 -9,5 -13,8 -7,4 -14,7 -21,11 -6,3 -11,5 -16,8 -8,6 -15,12 -22,17 -6,8 -12,15 -17,22 -3,4 -7,8 -10,13 -10,2 -20,4 -30,6 -9,3 -17,6 -26,9 -9,2 -18,5 -26,8 -7,3 -14,7 -21,11 -8,6 -16,12 -24,18 -10,6 -19,12 -29,18 -4,1 -9,3 -14,4 0,-1 0,-2 0,-4 -57,-30 -115,-60 -172,-90 -24,-10 -48,-20 -73,-30 -9,0 -19,-1 -29,-1 -18,-1 -35,-2 -53,-3 -32,14 -64,28 -96,42 -18,10 -36,20 -54,29 -78,0 -156,0 -233,0 -76,0 -152,-1 -228,-1 -20,0 -40,0 -60,0 -57,6 -114,11 -171,17 -28,8 -56,16 -84,23 -51,-7 -102,-15 -153,-22 -8,-2 -16,-4 -24,-5 -58,-12 -117,-24 -175,-36 -48,-20 -97,-39 -145,-59 -4,-15 -9,-31 -13,-46 3,-15 6,-29 9,-43 7,-1 13,-1 20,-2 6,-1 12,-1 17,-2 9,-2 18,-4 27,-6 7,-3 14,-6 22,-9 5,-5 10,-11 15,-16 2,-6 3,-12 4,-19 6,-3 11,-5 17,-8 8,-4 15,-8 23,-12 5,-5 11,-9 16,-14 0,-5 -1,-11 -1,-16 -6,-5 -11,-10 -17,-14 -7,-4 -13,-8 -20,-12 -7,-3 -14,-5 -22,-8 -3,-5 -7,-11 -11,-16 0,-6 0,-12 0,-18 4,-6 8,-12 11,-18 7,-7 13,-13 19,-19 5,-6 11,-13 16,-19 2,-7 3,-13 5,-20 4,-11 9,-21 13,-32 3,-8 7,-15 10,-23 5,-4 10,-9 16,-13 8,-3 16,-6 24,-9 7,1 14,2 22,2 6,4 13,9 19,13 7,0 13,0 19,0 6,-1 12,-2 18,-2 7,-2 14,-4 21,-6 8,-4 16,-8 24,-11 9,-5 17,-10 25,-15 7,-6 13,-13 20,-20 8,-1 16,-2 24,-2 10,2 20,4 30,6 1,1 2,1 3,2 8,3 15,6 22,9 3,5 7,11 10,16 6,4 11,9 17,13 6,3 12,6 18,9 6,1 13,3 20,4 7,3 14,5 20,7 5,2 10,4 15,6 6,0 12,0 18,0 6,-2 11,-5 17,-7 2,-6 3,-11 5,-17 2,-7 4,-13 5,-20 6,0 12,0 18,-1 3,5 7,10 11,14 3,6 7,12 10,17 7,0 14,0 21,-1 7,-1 15,-2 23,-3 7,0 13,1 19,2 10,0 19,1 28,1 11,0 22,0 33,0 5,2 10,3 15,5 6,1 13,1 19,2 6,3 12,5 18,8 2,4 4,8 7,11 1,3 3,6 5,9 6,4 13,7 19,11 6,2 12,5 18,7 3,0 6,0 10,0 6,-2 11,-4 17,-6 6,-4 12,-8 19,-12 4,0 8,0 12,0 1,4 2,9 3,13 2,10 4,20 6,29 5,7 9,14 13,21 5,1 11,2 16,3 8,0 16,0 25,0 3,-4 7,-8 11,-12 0,-7 0,-14 0,-21 2,-6 4,-12 7,-18 5,-4 11,-7 16,-11 4,0 8,0 11,-1 2,0 3,0 4,0 4,-2 8,-5 13,-7 7,0 15,0 22,0 6,2 12,4 19,6 7,0 15,1 23,1 9,-2 18,-3 28,-5 0,-7 1,-13 2,-19 0,-8 0,-17 0,-25 2,-9 4,-19 7,-28 2,-4 4,-9 7,-14 7,0 13,0 20,-1 5,2 10,5 15,7 7,2 15,4 22,6 5,4 11,8 16,12 7,-1 13,-2 19,-3 5,-1 10,-2 15,-4 2,-3 5,-7 7,-11 2,-4 4,-9 6,-14 -1,-5 -1,-10 -2,-16 -2,-3 -3,-7 -5,-10 -5,-4 -11,-7 -17,-11 3,-2 6,-5 8,-8 7,-4 13,-7 20,-11 6,-4 12,-8 18,-12 6,-3 12,-6 18,-9 7,2 13,4 19,6 6,6 12,12 19,18 8,5 16,9 24,14 9,0 17,1 25,1 10,0 20,0 31,0 11,-2 23,-4 34,-7 12,-2 23,-5 35,-8 8,-3 16,-7 24,-11 11,-5 21,-9 32,-14 8,1 15,3 22,4 6,3 11,6 16,9 1,4 3,8 4,12z"/>
   <path fill="#588E69" d="M1620 63c-5,6 -9,11 -14,17 -6,5 -12,11 -19,16 -2,6 -5,11 -8,16 2,8 3,16 5,24 2,7 3,14 5,21 -3,7 -5,13 -7,20 -2,7 -3,13 -5,20 -1,7 -2,14 -4,21 0,9 -1,18 -2,27 1,12 2,24 3,37 3,2 5,5 8,7 1,1 1,2 2,3 2,0 3,0 5,-1 4,0 8,0 12,-1 8,-3 16,-6 24,-8 9,-4 18,-7 27,-11 10,-4 21,-8 32,-11 6,-3 12,-5 19,-7 12,0 25,0 38,0 8,0 16,1 24,1 3,2 7,4 10,7 5,2 11,4 16,7 3,3 6,6 9,9 4,5 9,10 13,15 4,3 8,7 12,10 6,2 11,4 17,6 3,2 7,5 11,7 5,5 11,11 16,16 7,6 14,11 21,17 1,6 1,12 2,17 -6,5 -12,10 -18,14 -3,7 -6,13 -8,20 2,6 3,12 5,18 5,3 9,7 13,10 6,4 12,8 17,12 7,3 13,6 20,9 9,7 18,14 27,21 10,8 20,15 29,23 5,4 10,8 14,12 7,1 14,2 21,3 6,6 13,13 20,19 5,6 11,12 17,18 -1,6 -1,11 -2,17 -4,3 -9,6 -13,9 -7,3 -14,7 -21,10 -6,3 -11,6 -16,9 -8,5 -15,11 -22,17 -6,7 -12,14 -17,22 -3,4 -7,8 -10,12 -10,2 -20,5 -30,7 -9,3 -17,5 -26,8 -9,3 -18,5 -26,8 -7,4 -14,8 -21,11 -8,6 -16,12 -24,18 -10,6 -19,12 -29,18 -4,2 -9,3 -14,5 0,-2 0,-3 0,-4 -57,-30 -115,-60 -172,-91 -24,-9 -48,-19 -72,-29 -10,-1 -20,-1 -30,-2 -18,-1 -35,-2 -53,-3 -32,14 -64,28 -96,43 -18,9 -36,19 -54,29 -78,0 -156,-1 -233,-1 -76,0 -152,0 -228,0 -20,0 -40,0 -60,0 -57,5 -114,11 -171,16 -28,8 -56,16 -84,24 -51,-8 -102,-15 -153,-23 -8,-1 -16,-3 -24,-5 -58,-12 -117,-24 -175,-36 -48,-19 -97,-39 -145,-58 -4,-16 -9,-31 -13,-47 3,-14 6,-28 9,-43 7,0 13,-1 20,-1 6,-1 12,-2 17,-3 9,-2 18,-3 27,-5 7,-3 14,-7 22,-10 5,-5 10,-10 15,-15 2,-7 3,-13 4,-19 6,-3 11,-6 17,-9 8,-4 15,-8 23,-12 5,-4 11,-9 16,-13 0,-6 -1,-11 -1,-17 -6,-4 -11,-9 -17,-14 -7,-4 -13,-7 -20,-11 -7,-3 -14,-6 -22,-9 -3,-5 -7,-10 -11,-15 0,-6 0,-12 0,-18 4,-6 8,-13 11,-19 7,-6 13,-12 19,-18 5,-7 11,-13 16,-20 2,-6 3,-13 5,-19 4,-11 9,-22 13,-32 3,-8 7,-16 10,-23 5,-5 11,-9 16,-13 8,-3 16,-6 24,-9 7,0 14,1 22,2 6,4 13,8 19,12 7,0 13,0 19,0 6,0 12,-1 18,-2 7,-2 14,-4 21,-5 8,-4 16,-8 24,-12 9,-5 17,-9 25,-14 7,-7 13,-14 20,-20 8,-1 16,-2 24,-3 10,2 20,5 30,7 1,0 2,1 3,1 8,3 15,6 22,9 4,6 7,11 10,16 6,5 11,9 17,13 6,3 12,6 18,9 6,2 13,3 20,5 7,2 14,4 20,7 5,2 10,4 15,6 6,0 12,0 18,0 6,-3 11,-5 17,-7 2,-6 3,-12 5,-17 2,-7 4,-14 5,-20 6,-1 12,-1 18,-1 3,4 7,9 11,14 3,5 7,11 10,17 7,0 14,-1 21,-1 7,-1 15,-3 23,-4 7,1 13,2 19,2 10,1 19,1 28,2 11,0 22,0 33,0 5,1 10,3 15,4 6,1 13,2 19,3 6,2 12,5 18,8 2,3 5,7 7,11 1,3 3,5 5,8 6,4 13,8 19,12 6,2 12,4 18,7 3,0 6,0 10,0 6,-2 11,-4 17,-6 6,-4 13,-9 19,-13 4,0 8,0 12,0 1,5 2,9 3,14 2,9 4,19 6,29 5,7 9,13 13,20 5,1 11,3 16,4 8,0 16,0 25,0 3,-4 7,-8 11,-13 0,-7 0,-14 0,-20 2,-7 4,-13 7,-19 5,-3 11,-7 16,-10 4,0 8,-1 11,-1 2,0 3,0 4,0 4,-3 8,-5 13,-8 7,0 15,0 22,0 6,2 12,4 19,6 7,1 15,1 23,2 9,-2 18,-4 28,-6 0,-6 1,-12 2,-19 0,-8 0,-16 0,-25 2,-9 4,-18 7,-27 2,-5 4,-10 7,-14 7,-1 13,-1 20,-1 5,2 10,4 15,7 7,1 15,3 22,5 5,4 11,9 16,13 7,-1 13,-2 19,-3 5,-2 10,-3 15,-4 2,-4 5,-8 7,-11 2,-5 4,-10 6,-14 -1,-5 -1,-11 -2,-16 -2,-4 -3,-7 -5,-11 -5,-3 -11,-7 -17,-10 3,-3 6,-5 8,-8 7,-4 13,-8 20,-12 6,-4 12,-7 18,-11 6,-3 12,-6 19,-9 6,2 12,4 18,6 6,6 12,12 19,18 8,4 16,9 24,13 9,1 17,1 25,2 10,0 20,0 31,0 11,-2 23,-5 34,-7 12,-3 23,-5 35,-8 8,-4 16,-8 24,-12 11,-4 21,-9 32,-14 8,2 15,3 22,5 6,3 11,6 16,8 2,5 3,9 4,13z"/>
   <path fill="#5C936D" d="M1617 56c-5,5 -9,11 -14,16 -6,6 -12,11 -18,17 -3,5 -6,10 -9,16 2,8 3,16 5,24 2,7 3,14 5,21 -3,6 -5,13 -7,20 -2,6 -3,13 -5,20 -1,7 -2,14 -4,20 0,9 -1,18 -2,27 1,12 2,25 4,37 2,3 4,5 7,8 1,1 1,2 2,2 2,0 3,0 5,0 4,0 8,-1 12,-1 8,-3 16,-6 24,-9 9,-3 18,-7 27,-10 10,-4 21,-8 32,-12 6,-2 12,-4 19,-7 12,0 25,0 38,0 8,1 16,1 24,1 3,3 7,5 10,7 5,3 11,5 16,7 3,3 6,6 9,9 4,5 9,10 13,15 4,4 8,7 12,11 6,2 11,4 17,6 3,2 7,4 11,6 5,6 11,11 16,16 7,6 14,12 21,18 1,5 1,11 2,17 -6,4 -12,9 -18,14 -3,6 -6,13 -8,19 2,6 3,12 5,18 5,4 9,7 13,11 6,4 12,7 17,11 7,3 13,6 20,10 9,7 18,14 27,20 10,8 20,16 29,23 5,5 10,9 14,13 7,1 14,2 21,2 6,7 13,13 20,20 5,6 11,11 17,17 -1,6 -1,12 -2,18 -4,3 -9,5 -13,8 -7,4 -14,7 -21,11 -6,3 -11,5 -16,8 -7,6 -15,12 -22,17 -6,8 -12,15 -17,22 -3,4 -7,8 -10,13 -10,2 -20,4 -30,6 -9,3 -17,6 -26,9 -9,2 -18,5 -26,8 -7,3 -14,7 -21,11 -8,6 -16,12 -24,18 -10,6 -19,12 -29,18 -4,1 -9,3 -14,4 0,-1 0,-2 0,-4 -57,-30 -115,-60 -172,-90 -24,-10 -48,-20 -72,-30 -10,0 -20,-1 -30,-1 -18,-1 -35,-2 -53,-3 -32,14 -64,28 -96,42 -18,10 -36,20 -54,29 -78,0 -156,0 -233,0 -76,0 -152,0 -228,-1 -20,0 -40,0 -60,0 -57,6 -114,11 -171,17 -28,8 -56,16 -84,23 -51,-7 -102,-15 -153,-22 -8,-2 -16,-3 -24,-5 -58,-12 -117,-24 -175,-36 -48,-20 -97,-39 -145,-59 -4,-15 -9,-31 -13,-46 3,-14 6,-29 9,-43 7,-1 13,-1 20,-2 6,0 12,-1 17,-2 9,-2 18,-4 27,-6 7,-3 14,-6 22,-9 5,-5 10,-11 15,-16 2,-6 3,-12 4,-19 6,-3 11,-5 17,-8 8,-4 15,-8 23,-12 5,-5 11,-9 16,-14 0,-5 -1,-11 -1,-16 -6,-5 -11,-9 -17,-14 -7,-4 -13,-8 -20,-12 -7,-3 -14,-5 -22,-8 -3,-5 -7,-10 -11,-16 0,-6 0,-12 0,-18 4,-6 8,-12 11,-18 7,-6 13,-13 19,-19 5,-6 11,-13 16,-19 2,-7 3,-13 5,-20 4,-10 9,-21 13,-32 3,-8 7,-15 10,-23 5,-4 11,-9 16,-13 8,-3 16,-6 24,-9 7,1 14,2 22,2 6,4 13,9 19,13 7,0 13,0 19,0 6,-1 12,-2 18,-2 7,-2 14,-4 21,-6 8,-4 16,-8 24,-11 9,-5 17,-10 25,-15 7,-6 14,-13 20,-20 8,-1 16,-1 24,-2 10,2 20,4 30,6 1,1 2,1 3,2 8,3 15,6 22,9 4,5 7,11 11,16 5,4 10,9 16,13 6,3 12,6 18,9 6,1 13,3 20,4 7,3 14,5 20,7 5,2 10,4 15,6 6,0 12,0 18,0 6,-2 11,-4 17,-7 2,-5 3,-11 5,-17 2,-7 4,-13 5,-20 6,0 12,0 18,-1 3,5 7,10 11,14 3,6 7,12 10,17 7,0 14,0 21,0 8,-2 15,-3 23,-4 7,0 13,1 19,2 10,0 19,1 28,2 11,0 22,0 33,0 5,1 10,3 15,4 7,1 13,1 19,2 6,3 12,5 18,8 2,4 5,8 7,12 1,2 3,5 5,8 6,4 13,7 19,11 6,3 12,5 18,7 3,0 6,0 10,0 6,-2 11,-4 17,-6 6,-4 13,-8 19,-12 4,0 8,0 12,0 1,4 2,9 3,13 2,10 4,20 6,29 5,7 9,14 13,21 5,1 11,2 16,3 8,0 16,0 25,0 3,-4 7,-8 11,-12 0,-7 0,-14 0,-21 2,-6 4,-12 7,-18 5,-4 11,-7 16,-10 4,-1 8,-1 11,-2 2,0 3,0 4,0 4,-2 8,-4 13,-7 7,0 15,0 22,0 6,2 12,4 19,6 7,0 15,1 23,1 9,-1 18,-3 28,-5 0,-7 1,-13 2,-19 0,-8 0,-17 0,-25 2,-9 4,-18 7,-28 2,-4 4,-9 7,-14 7,0 13,0 20,-1 5,3 10,5 15,7 7,2 15,4 22,6 5,4 11,8 16,12 7,-1 13,-2 19,-3 5,-1 10,-2 15,-3 2,-4 5,-8 7,-12 2,-4 4,-9 6,-14 -1,-5 -1,-10 -2,-16 -2,-3 -3,-7 -5,-10 -5,-4 -11,-7 -17,-10 3,-3 6,-6 8,-9 7,-4 13,-7 20,-11 6,-4 12,-8 18,-12 6,-3 12,-6 19,-9 6,2 12,4 18,6 6,6 12,12 19,19 8,4 16,8 24,13 9,0 17,1 25,1 10,0 20,0 31,0 11,-2 23,-4 34,-7 12,-2 23,-5 35,-7 8,-4 16,-8 24,-12 11,-5 21,-9 32,-14 8,1 15,3 22,5 6,2 11,5 16,8 2,4 3,8 4,13z"/>
   <path fill="#609872" d="M1614 48c-5,6 -9,11 -14,17 -6,5 -12,11 -18,16 -3,6 -6,11 -9,16 2,8 3,16 5,24 2,7 3,14 5,21 -3,7 -5,13 -7,20 -2,7 -3,13 -5,20 -1,7 -2,14 -4,21 0,9 -1,18 -1,27 1,12 2,24 3,37 2,2 4,5 7,7 1,1 1,2 2,3 2,0 3,0 5,-1 4,0 8,0 12,-1 8,-3 16,-5 24,-8 9,-4 18,-7 27,-11 10,-4 21,-7 32,-11 6,-3 12,-5 19,-7 12,0 25,0 38,0 8,0 16,1 24,1 3,2 7,5 10,7 5,2 11,4 16,7 3,3 6,6 9,9 4,5 9,10 13,15 4,3 8,7 12,10 6,2 11,4 17,6 3,2 7,5 11,7 5,5 11,11 16,16 7,6 14,11 21,17 1,6 1,12 2,17 -6,5 -12,10 -18,14 -3,7 -6,13 -8,20 2,6 3,12 5,18 5,3 9,7 13,10 6,4 12,8 17,12 7,3 13,6 20,9 9,7 18,14 27,21 10,8 20,15 29,23 5,4 10,8 14,12 7,1 14,2 21,3 6,6 13,13 20,19 5,6 11,12 17,18 -1,6 -1,11 -2,17 -4,3 -9,6 -13,9 -7,3 -14,7 -21,10 -5,3 -11,6 -16,9 -7,5 -15,11 -22,17 -6,7 -12,14 -17,22 -3,4 -7,8 -10,12 -10,2 -20,5 -30,7 -9,3 -17,6 -26,8 -9,3 -18,6 -26,8 -7,4 -14,8 -21,12 -8,5 -16,11 -24,17 -10,6 -19,12 -29,19 -4,1 -9,2 -14,4 0,-2 0,-3 0,-4 -57,-30 -115,-60 -172,-90 -24,-10 -48,-20 -72,-30 -10,-1 -20,-1 -30,-2 -18,-1 -35,-2 -53,-3 -32,14 -64,29 -96,43 -18,9 -36,19 -54,29 -78,0 -155,0 -233,-1 -76,0 -152,0 -228,0 -20,0 -40,0 -60,0 -57,5 -114,11 -171,16 -28,8 -56,16 -84,24 -51,-8 -102,-15 -153,-22 -8,-2 -16,-4 -24,-6 -58,-12 -117,-24 -175,-35 -48,-20 -97,-40 -145,-59 -4,-16 -9,-31 -13,-47 3,-14 6,-28 9,-42 7,-1 13,-2 20,-2 6,-1 12,-2 17,-3 9,-2 18,-3 27,-5 7,-3 14,-7 22,-10 5,-5 10,-10 15,-15 2,-6 3,-13 4,-19 6,-3 11,-6 17,-9 8,-4 15,-8 23,-12 5,-4 11,-9 16,-13 0,-6 -1,-11 -1,-16 -6,-5 -11,-10 -17,-15 -7,-3 -13,-7 -20,-11 -7,-3 -14,-6 -22,-9 -3,-5 -7,-10 -11,-15 0,-6 0,-12 0,-18 4,-6 8,-13 11,-19 7,-6 13,-12 19,-18 5,-7 11,-13 16,-20 2,-6 3,-13 5,-19 4,-11 9,-22 13,-32 3,-8 7,-16 10,-23 5,-5 11,-9 16,-13 8,-3 16,-6 24,-9 7,0 14,1 22,2 6,4 13,8 20,12 6,0 12,0 18,0 6,0 12,-1 18,-2 7,-2 14,-4 21,-5 8,-4 16,-8 24,-12 9,-5 17,-9 25,-14 7,-7 14,-13 20,-20 8,-1 16,-2 24,-3 10,2 20,5 30,7 1,0 2,1 3,1 8,3 15,6 22,9 4,6 7,11 11,16 5,5 10,9 16,13 6,3 12,6 18,9 6,2 13,3 20,5 7,2 14,5 20,7 5,2 10,4 15,6 6,0 12,0 18,0 6,-3 11,-5 17,-7 2,-6 3,-12 5,-17 2,-7 4,-14 6,-20 5,-1 11,-1 17,-1 3,4 7,9 11,14 4,6 7,11 10,17 7,0 14,-1 21,-1 8,-1 15,-3 23,-4 7,1 13,2 19,2 10,1 19,2 28,2 11,0 22,0 33,0 5,2 10,3 15,5 7,0 13,1 19,2 6,2 12,5 18,8 2,3 5,7 7,11 1,3 3,5 5,8 6,4 13,8 19,12 6,2 12,4 18,7 3,0 6,0 10,0 6,-2 11,-4 17,-6 6,-4 13,-9 19,-13 4,0 8,0 12,0 1,5 2,9 3,14 2,10 4,19 6,29 5,7 9,13 13,20 5,1 11,3 16,4 8,0 16,0 25,0 3,-4 7,-8 11,-13 0,-7 0,-13 0,-20 2,-6 5,-13 7,-19 5,-3 11,-7 16,-10 4,0 8,-1 11,-1 2,0 3,0 4,0 4,-2 8,-5 13,-7 7,0 15,0 22,0 6,2 12,3 19,5 7,1 15,1 23,2 9,-2 18,-4 28,-6 0,-6 1,-12 2,-19 0,-8 0,-16 0,-25 2,-9 4,-18 7,-27 2,-5 4,-10 7,-14 7,-1 13,-1 20,-1 5,2 10,4 15,7 7,2 15,3 22,5 5,4 11,9 16,13 7,-1 13,-2 19,-3 5,-2 10,-3 15,-4 2,-4 5,-8 7,-11 2,-5 4,-9 6,-14 -1,-5 -1,-11 -2,-16 -2,-4 -3,-7 -5,-11 -5,-3 -11,-6 -17,-10 3,-3 6,-5 8,-8 7,-4 13,-8 20,-12 6,-4 12,-7 18,-11 6,-3 12,-6 19,-9 6,2 12,4 18,6 6,6 12,12 19,18 8,5 16,9 25,13 8,1 16,1 24,2 10,0 21,0 31,0 11,-2 23,-5 34,-7 12,-3 23,-5 35,-8 8,-4 16,-8 24,-12 11,-4 21,-9 32,-14 8,2 15,4 22,5 6,3 11,6 16,8 2,5 3,9 4,13z"/>
   <path fill="#659D76" d="M1611 41c-5,5 -9,11 -14,17 -6,5 -12,10 -18,16 -3,5 -6,11 -9,16 2,8 3,16 5,24 2,7 3,14 5,21 -3,6 -5,13 -7,20 -2,6 -3,13 -5,20 -1,7 -2,14 -4,21 0,8 -1,17 -1,26 1,12 2,25 3,37 2,3 4,5 7,8 1,1 1,2 2,2 2,0 3,0 5,0 4,0 8,-1 12,-1 8,-3 16,-6 24,-9 9,-3 18,-7 27,-10 10,-4 21,-8 32,-12 6,-2 12,-4 19,-7 12,0 25,0 38,0 8,1 16,1 24,2 3,2 7,4 10,6 5,3 11,5 16,7 3,3 6,6 9,9 4,5 9,10 13,15 4,4 8,7 12,11 6,2 11,4 17,6 3,2 7,4 11,6 5,6 11,11 16,16 7,6 14,12 21,18 1,5 1,11 2,17 -6,5 -12,9 -18,14 -3,6 -6,13 -8,19 2,6 3,12 5,18 5,4 9,7 13,11 6,4 12,7 18,11 6,3 12,7 19,10 9,7 18,14 27,20 10,8 20,16 29,23 5,5 10,9 14,13 7,1 14,2 21,2 6,7 13,13 20,20 5,6 11,12 17,17 -1,6 -1,12 -2,18 -4,3 -9,6 -13,8 -7,4 -14,7 -21,11 -5,3 -11,5 -16,8 -7,6 -15,12 -22,17 -6,8 -12,15 -17,22 -3,4 -7,9 -10,13 -10,2 -20,4 -30,6 -9,3 -17,6 -26,9 -9,2 -17,5 -26,8 -7,3 -14,7 -21,11 -8,6 -16,12 -24,18 -10,6 -19,12 -29,18 -4,1 -9,3 -14,4 0,-1 0,-2 0,-4 -57,-30 -115,-60 -172,-90 -24,-10 -48,-20 -72,-30 -10,0 -20,-1 -30,-1 -18,-1 -35,-2 -53,-3 -32,14 -64,28 -96,42 -18,10 -36,20 -54,29 -78,0 -155,0 -233,0 -76,0 -152,0 -228,-1 -20,0 -40,0 -60,0 -57,6 -114,11 -171,17 -28,8 -56,16 -84,23 -51,-7 -102,-14 -153,-22 -8,-2 -16,-3 -24,-5 -58,-12 -117,-24 -175,-36 -48,-20 -97,-39 -145,-59 -4,-15 -9,-31 -13,-46 3,-14 6,-29 9,-43 7,0 13,-1 20,-2 6,0 12,-1 17,-2 9,-2 18,-4 27,-6 7,-3 14,-6 22,-9 5,-5 10,-10 15,-16 2,-6 3,-12 4,-19 6,-2 11,-5 17,-8 8,-4 15,-8 23,-12 5,-5 11,-9 16,-14 0,-5 -1,-11 -1,-16 -6,-5 -11,-9 -17,-14 -7,-4 -13,-8 -20,-12 -7,-2 -14,-5 -22,-8 -3,-5 -7,-10 -11,-15 0,-7 0,-13 0,-19 4,-6 8,-12 11,-18 7,-6 13,-13 19,-19 5,-6 11,-13 16,-19 2,-7 3,-13 5,-20 4,-10 9,-21 13,-32 3,-8 7,-15 10,-23 5,-4 11,-9 16,-13 8,-3 16,-6 24,-9 7,1 14,2 22,2 6,5 13,9 20,13 6,0 12,0 18,0 6,-1 12,-2 18,-2 7,-2 14,-4 21,-6 8,-4 16,-7 24,-11 9,-5 17,-10 25,-14 7,-7 14,-14 20,-21 8,-1 16,-1 24,-2 10,2 20,4 30,7 1,0 2,0 3,1 8,3 15,6 22,9 4,5 7,11 11,16 5,4 10,9 16,13 6,3 12,6 18,9 6,1 13,3 20,5 7,2 14,4 21,6 4,2 9,4 14,6 6,0 12,0 18,0 6,-2 11,-4 17,-7 2,-5 3,-11 5,-17 2,-6 4,-13 6,-20 5,0 11,0 17,-1 3,5 7,10 11,14 4,6 7,12 10,18 7,-1 14,-1 21,-1 8,-2 15,-3 23,-4 7,0 13,1 19,2 10,1 19,1 28,2 11,0 22,0 33,0 5,1 10,3 15,4 7,1 13,1 19,2 6,3 12,5 18,8 2,4 5,8 7,12 1,2 3,5 5,8 6,4 13,7 19,11 6,3 12,5 18,7 3,0 6,0 10,0 6,-2 11,-4 17,-6 6,-4 13,-8 19,-12 4,0 8,0 12,0 1,4 2,9 3,13 2,10 4,20 6,30 5,6 9,13 13,20 5,1 11,2 16,4 8,0 16,0 25,0 3,-5 7,-9 11,-13 0,-7 0,-14 0,-21 2,-6 5,-12 7,-18 5,-4 11,-7 16,-10 4,-1 8,-1 11,-1 2,0 3,0 4,0 4,-3 8,-5 13,-8 7,0 15,0 22,0 6,2 12,4 19,6 7,0 15,1 23,2 9,-2 18,-4 28,-6 0,-7 1,-13 2,-19 0,-8 0,-17 0,-25 2,-9 4,-18 7,-28 2,-4 4,-9 7,-14 7,0 13,0 20,-1 5,3 10,5 15,7 7,2 15,4 22,6 5,4 11,8 16,12 7,-1 13,-2 19,-3 5,-1 10,-2 15,-3 2,-4 5,-8 7,-12 2,-4 4,-9 6,-13 -1,-6 -1,-11 -2,-17 -2,-3 -3,-7 -5,-10 -5,-3 -11,-7 -17,-10 3,-3 6,-6 8,-9 7,-3 13,-7 20,-11 6,-4 12,-8 18,-12 6,-3 12,-6 19,-8 6,1 12,3 18,5 6,6 12,12 19,19 8,4 16,8 25,13 8,0 16,1 24,2 10,0 21,0 31,0 11,-3 23,-5 34,-8 12,-2 23,-5 35,-7 8,-4 16,-8 24,-12 11,-5 21,-9 32,-14 8,1 15,3 22,5 6,2 11,5 16,8 2,4 3,8 4,13z"/>
   <path fill="#69A27B" d="M1608 33c-5,6 -9,11 -14,17 -6,5 -12,11 -18,16 -3,6 -6,11 -9,16 2,8 3,16 5,24 2,7 3,14 5,21 -3,7 -5,13 -7,20 -2,7 -3,14 -5,20 -1,7 -2,14 -3,21 -1,9 -2,18 -2,27 1,12 2,24 3,37 2,2 4,5 7,7 1,1 1,2 2,3 2,0 3,0 5,-1 4,0 8,0 12,-1 8,-3 16,-5 25,-8 8,-4 17,-7 26,-11 10,-4 21,-7 32,-11 6,-2 12,-5 19,-7 12,0 25,0 38,0 8,0 16,1 24,1 3,2 7,5 10,7 5,2 11,4 16,7 3,3 6,6 9,9 4,5 9,10 13,15 4,4 8,7 12,10 6,2 11,4 17,6 3,2 7,5 11,7 5,5 11,11 16,16 7,6 14,12 21,17 1,6 1,12 2,17 -6,5 -12,10 -18,14 -3,7 -6,13 -8,20 2,6 3,12 5,18 5,3 9,7 13,10 6,4 12,8 18,12 6,3 12,6 19,9 9,7 18,14 27,21 10,8 20,15 29,23 5,4 10,8 14,12 7,1 14,2 21,3 6,6 13,13 20,19 5,6 11,12 17,18 -1,6 -1,11 -2,17 -4,3 -9,6 -13,9 -7,3 -14,7 -21,10 -5,3 -11,6 -16,9 -7,6 -15,11 -22,17 -6,7 -12,15 -17,22 -3,4 -6,8 -10,12 -10,2 -20,5 -30,7 -9,3 -17,6 -26,8 -9,3 -17,6 -26,8 -7,4 -14,8 -21,12 -8,6 -16,11 -24,17 -10,6 -19,12 -29,19 -4,1 -9,2 -14,4 0,-1 0,-3 0,-4 -57,-30 -115,-60 -172,-90 -24,-10 -48,-20 -72,-30 -10,-1 -20,-1 -30,-2 -18,-1 -35,-2 -53,-3 -32,14 -64,29 -96,43 -18,10 -36,19 -54,29 -78,0 -155,0 -233,-1 -76,0 -152,0 -228,0 -20,0 -40,0 -60,0 -57,5 -114,11 -171,17 -28,7 -56,15 -84,23 -51,-7 -102,-15 -153,-22 -8,-2 -16,-4 -24,-6 -58,-12 -117,-23 -175,-35 -48,-20 -97,-40 -145,-59 -4,-16 -9,-31 -13,-47 3,-14 6,-28 9,-42 7,-1 13,-1 20,-2 6,-1 12,-2 17,-3 9,-1 18,-3 27,-5 7,-3 14,-6 22,-10 5,-5 10,-10 15,-15 2,-6 3,-13 4,-19 6,-3 11,-6 17,-9 8,-4 16,-8 23,-12 5,-4 11,-9 16,-13 0,-6 -1,-11 -1,-16 -6,-5 -11,-10 -17,-15 -7,-3 -13,-7 -20,-11 -7,-3 -14,-6 -22,-9 -3,-5 -7,-10 -11,-15 0,-6 0,-12 0,-18 4,-6 8,-13 11,-19 7,-6 13,-12 19,-18 5,-7 11,-13 16,-20 2,-6 3,-13 5,-19 4,-11 9,-22 13,-32 3,-8 7,-16 10,-23 5,-5 11,-9 16,-13 8,-3 16,-6 24,-9 7,1 14,1 22,2 6,4 13,8 20,12 6,0 12,0 18,0 6,0 12,-1 18,-2 7,-2 14,-3 21,-5 8,-4 16,-8 24,-12 9,-4 17,-9 25,-14 7,-7 14,-13 20,-20 8,-1 16,-2 24,-3 10,3 20,5 30,7 1,0 2,1 3,1 8,3 15,6 22,9 4,6 7,11 11,16 5,5 10,9 16,13 6,3 12,6 18,9 7,2 13,4 20,5 7,2 14,5 21,7 4,2 9,4 14,6 6,0 12,0 18,0 6,-3 11,-5 17,-7 2,-6 3,-12 5,-17 2,-7 4,-14 6,-20 5,0 11,-1 17,-1 3,5 7,9 11,14 4,6 7,11 10,17 7,0 14,-1 21,-1 8,-1 15,-2 23,-4 7,1 13,2 19,2 10,1 19,2 28,2 11,0 22,0 33,0 5,2 10,3 15,5 7,0 13,1 19,2 6,2 12,5 18,8 2,3 5,7 7,11 1,3 3,6 5,8 6,4 13,8 19,12 6,2 12,4 18,7 3,0 6,0 10,0 6,-2 11,-4 17,-6 6,-4 13,-9 19,-13 4,0 8,0 12,0 1,5 2,9 3,14 2,10 4,19 6,29 5,7 9,13 13,20 5,1 11,3 16,4 8,0 16,0 25,0 3,-4 7,-8 11,-13 0,-6 0,-13 0,-20 2,-6 5,-12 7,-19 5,-3 11,-6 16,-10 4,0 8,-1 11,-1 2,0 3,0 4,0 4,-2 8,-5 13,-7 7,0 15,0 22,0 6,2 13,4 19,5 7,1 15,2 23,2 9,-2 18,-4 28,-6 0,-6 1,-12 2,-19 0,-8 0,-16 0,-25 2,-9 4,-18 7,-27 2,-5 4,-9 7,-14 7,0 13,-1 20,-1 5,2 10,4 15,7 7,2 15,3 22,5 5,4 11,9 16,13 7,-1 13,-2 19,-3 5,-2 10,-3 15,-4 2,-4 5,-8 7,-11 2,-5 4,-9 6,-14 -1,-5 -1,-11 -2,-16 -2,-4 -3,-7 -5,-11 -5,-3 -11,-6 -17,-10 3,-3 6,-5 8,-8 7,-4 13,-8 20,-12 6,-4 12,-7 18,-11 6,-3 12,-6 19,-9 6,2 12,4 18,6 6,6 12,12 19,18 8,5 16,9 25,13 8,1 16,2 24,2 10,0 21,0 31,0 11,-2 23,-5 34,-7 12,-3 23,-5 35,-8 8,-4 16,-8 24,-11 11,-5 22,-10 32,-15 8,2 15,4 22,5 6,3 11,6 16,8 2,5 3,9 4,13z"/>
  </g>
  <polygon fill="#6DA77F" points="1605,26 1591,43 1573,59 1564,75 1569,99 1574,120 1567,140 1562,160 1559,181 1557,207 1560,244 1567,252 1569,255 1574,254 1586,253 1611,244 1637,234 1669,222 1688,216 1726,216 1750,217 1760,223 1776,230 1785,239 1798,255 1811,265 1827,271 1838,277 1854,294 1875,311 1877,328 1859,342 1851,361 1856,380 1869,390 1887,401 1906,411 1933,432 1962,455 1976,467 1997,470 2017,489 2034,507 2032,524 2019,533 1998,543 1982,551 1960,569 1943,590 1933,603 1903,610 1877,618 1851,626 1830,637 1806,655 1777,673 1763,677 1763,673 1591,583 1519,553 1489,552 1436,549 1340,591 1286,621 1053,620 825,619 765,619 594,636 510,660 357,637 333,632 158,596 13,537 0,491 9,448 29,447 46,444 73,438 95,429 110,413 114,395 131,386 154,374 170,360 169,344 152,330 132,319 110,310 99,295 99,276 110,258 129,239 145,220 150,200 163,168 173,145 189,132 213,123 235,125 255,138 273,138 291,136 312,130 336,119 361,105 381,84 405,82 435,89 438,90 460,99 471,115 487,128 505,137 525,142 546,148 560,154 578,154 595,147 600,130 606,110 623,109 634,123 644,141 665,140 688,136 707,138 735,140 768,140 783,144 802,146 820,154 827,166 832,174 851,185 869,192 879,192 896,186 915,174 927,174 930,187 936,217 949,237 965,241 990,241 1001,228 1001,207 1008,189 1024,179 1035,178 1039,178 1052,170 1074,170 1093,176 1116,178 1144,172 1146,153 1146,128 1153,100 1160,86 1180,85 1195,92 1217,98 1233,110 1252,107 1267,104 1274,92 1280,79 1278,62 1273,52 1256,42 1264,33 1284,22 1302,10 1321,2 1339,7 1358,26 1383,39 1407,41 1438,41 1472,33 1507,26 1531,14 1563,0 1585,5 1601,13 "/>
 </g>
</svg>
