<?xml version="1.0" encoding="UTF-8"?>
<!DOCTYPE svg PUBLIC "-//W3C//DTD SVG 1.1//EN" "http://www.w3.org/Graphics/SVG/1.1/DTD/svg11.dtd">
<!-- Creator: CorelDRAW X8 -->
<svg xmlns="http://www.w3.org/2000/svg" xml:space="preserve" width="100%" height="100%" version="1.1" shape-rendering="geometricPrecision" text-rendering="geometricPrecision" image-rendering="optimizeQuality" fill-rule="evenodd" clip-rule="evenodd"
viewBox="0 0 726 1309"
 xmlns:xlink="http://www.w3.org/1999/xlink">
 <g id="Layer_x0020_1">
  <metadata id="CorelCorpID_0Corel-Layer"/>
  <polygon fill="#143D21" points="58,141 65,144 70,140 81,139 91,144 93,154 96,161 107,169 123,178 132,184 136,192 145,192 152,191 157,195 158,201 157,210 157,219 157,233 160,240 161,243 171,256 181,266 190,278 199,289 207,293 221,295 238,302 256,311 276,327 284,335 286,337 296,344 317,347 333,344 340,341 350,347 356,358 365,367 376,370 386,377 400,388 409,397 415,400 422,399 431,403 433,409 436,420 436,420 425,425 409,436 395,443 387,449 386,452 385,457 390,463 403,469 422,476 434,486 456,500 462,511 462,517 453,522 447,525 443,535 443,542 447,547 470,548 492,546 500,544 505,549 509,554 513,559 512,568 517,575 529,581 529,586 522,588 514,590 505,595 498,600 498,612 501,617 518,625 539,640 548,650 547,672 537,688 534,719 532,745 534,754 537,768 538,774 540,779 556,785 583,789 607,780 608,779 630,778 647,785 653,798 653,811 647,825 639,845 646,853 645,866 634,879 629,902 628,929 629,950 634,956 654,955 667,963 676,973 678,985 671,1003 660,1011 649,1027 642,1046 640,1055 639,1062 627,1072 627,1083 622,1098 620,1101 616,1112 622,1121 622,1139 621,1159 616,1166 613,1169 612,1182 617,1201 632,1216 633,1226 623,1240 610,1254 590,1282 558,1309 534,1286 496,1240 477,1207 453,1164 425,1140 411,1126 401,1099 396,1077 393,1068 390,1059 374,1038 358,1006 353,984 347,954 328,895 330,884 343,882 353,884 354,904 364,937 372,962 387,975 401,965 412,963 412,956 395,953 387,942 381,924 382,896 382,881 366,870 358,862 360,838 351,825 347,829 331,829 323,808 320,800 314,766 292,726 302,725 302,715 286,713 280,688 267,683 265,666 265,663 256,618 251,577 242,560 240,542 227,513 205,489 196,469 192,461 189,444 161,412 156,403 188,395 194,388 190,384 185,379 179,372 170,370 164,368 159,369 154,370 146,370 141,373 140,370 107,344 74,295 72,290 55,254 10,163 3,136 0,125 4,124 27,123 41,122 52,125 58,133 "/>
  <g id="_348018340288">
   <path fill="#184225" d="M60 135c3,1 5,2 7,3 2,-1 4,-2 6,-3 3,-1 7,-2 11,-2 3,2 6,4 10,6 0,3 1,6 1,9 1,3 2,5 3,8 4,2 8,5 12,7 5,3 10,6 15,9 3,2 6,4 10,7 1,2 2,4 3,7 3,0 6,0 10,0 2,0 4,-1 6,-1 2,1 4,3 6,4 0,2 0,4 0,6 0,3 -1,6 -1,9 0,3 0,6 0,10 0,4 0,9 0,13 1,3 2,5 3,8 0,0 1,1 1,2 4,5 7,9 11,13 3,4 6,7 9,11 3,3 6,7 9,11 3,4 6,8 9,11 3,2 5,3 8,4 5,1 9,2 14,2 6,2 12,5 17,7 6,3 12,6 18,9 7,6 13,11 20,17 3,2 6,5 8,7 1,1 1,1 2,2 3,2 7,5 10,7 7,1 14,2 22,3 5,-1 10,-2 15,-3 2,-1 5,-1 7,-2 4,1 7,3 11,5 1,4 3,8 5,11 3,3 6,6 10,9 3,1 7,2 11,4 3,2 6,4 9,6 5,4 10,7 15,11 2,3 5,6 8,9 2,1 4,2 6,3 3,0 5,0 8,0 3,1 5,2 8,3 1,2 2,4 3,6 1,4 1,7 2,11 0,0 0,0 0,0 -4,2 -7,3 -10,5 -6,4 -11,7 -17,11 -4,2 -9,5 -14,7 -2,2 -5,4 -8,6 0,1 0,2 -1,3 0,2 0,3 -1,5 2,2 3,4 5,6 4,2 9,4 13,6 7,3 13,5 20,7 3,4 7,7 11,10 8,5 15,9 22,14 2,4 4,7 7,11 -1,2 -1,4 -1,6 -3,2 -6,4 -9,5 -2,1 -4,2 -6,3 -1,3 -3,7 -4,10 0,2 0,5 1,7 1,2 2,4 4,5 7,0 15,1 22,1 8,-1 15,-1 23,-1 2,-1 5,-2 7,-3 2,2 4,3 6,5 1,2 2,4 3,6 1,1 3,3 4,4 0,3 0,6 0,9 1,3 3,5 5,8 4,2 8,3 11,5 0,2 0,3 0,5 -2,1 -4,1 -6,2 -3,1 -6,2 -9,3 -3,1 -5,2 -8,4 -3,2 -5,3 -7,5 0,4 0,8 0,12 0,2 1,4 2,5 6,3 12,5 17,8 7,5 14,10 21,16 3,3 6,6 9,9 0,7 -1,15 -1,22 -3,5 -6,11 -9,16 -2,11 -3,21 -4,32 -1,8 -1,17 -2,25 1,3 1,6 2,9 1,5 2,9 4,14 0,2 0,4 1,6 0,2 1,4 1,5 6,2 11,4 16,6 9,1 18,2 27,4 8,-3 16,-6 24,-9 1,0 1,0 1,-1 8,0 15,0 23,-1 5,2 11,5 16,7 2,4 4,9 6,13 0,4 0,9 0,13 -2,5 -4,10 -6,14 -2,7 -5,13 -7,20 2,3 4,5 6,8 0,4 -1,9 -1,13 -4,4 -7,9 -10,13 -2,8 -4,16 -6,24 0,8 0,17 -1,26 1,7 1,14 1,22 2,1 4,3 6,5 6,0 13,-1 19,-1 5,3 9,6 13,9 3,3 6,6 9,9 1,4 2,8 2,12 -2,6 -5,12 -7,18 -3,3 -7,6 -10,8 -4,5 -8,11 -12,16 -2,6 -5,13 -7,19 -1,3 -1,6 -2,9 0,3 0,5 0,7 -4,3 -9,7 -13,10 0,4 0,8 0,11 -2,5 -3,10 -5,15 -1,1 -1,2 -1,3 -2,4 -3,7 -5,11 2,3 4,6 6,9 0,6 0,12 0,18 0,7 -1,13 -1,20 -2,2 -3,4 -5,7 -1,1 -2,2 -2,3 -1,5 -1,9 -2,14 2,6 4,12 6,19 4,5 9,9 14,14 1,4 1,7 1,11 -3,4 -7,9 -10,13 -4,5 -8,10 -12,14 -7,10 -14,19 -21,28 -10,9 -21,18 -32,27 -8,-8 -16,-15 -24,-23 -12,-15 -25,-31 -38,-46 -6,-11 -12,-22 -19,-32 -8,-15 -16,-29 -24,-44 -9,-8 -19,-16 -28,-24 -5,-5 -9,-9 -14,-14 -3,-9 -7,-18 -10,-27 -2,-8 -3,-15 -5,-22 -1,-3 -2,-6 -3,-9 -1,-3 -2,-6 -3,-9 -5,-7 -11,-14 -16,-20 -5,-11 -10,-22 -15,-32 -2,-8 -4,-15 -6,-22 -2,-11 -4,-21 -6,-31 -6,-20 -13,-39 -19,-59 1,-4 1,-7 2,-10 4,-1 9,-2 13,-3 4,1 7,2 10,3 1,6 1,13 2,19 3,11 6,22 9,33 3,9 6,17 9,25 4,4 9,9 14,14 5,-4 10,-7 15,-11 3,0 7,-1 10,-2 0,-2 0,-5 1,-7 -6,-1 -12,-2 -18,-3 -2,-3 -5,-7 -7,-10 -2,-7 -5,-13 -7,-19 1,-9 1,-19 1,-28 0,-5 0,-10 0,-15 -5,-4 -10,-7 -15,-11 -3,-3 -6,-5 -8,-8 0,-7 1,-15 1,-23 -3,-5 -6,-9 -9,-14 -1,2 -3,3 -4,4 -5,0 -10,0 -16,0 -2,-7 -5,-14 -8,-20 -1,-3 -2,-6 -3,-9 -2,-11 -4,-22 -6,-33 -7,-14 -15,-27 -22,-41 3,0 7,-1 10,-1 0,-3 0,-7 0,-10 -5,-1 -11,-1 -16,-2 -2,-8 -4,-16 -6,-25 -4,-2 -8,-3 -12,-5 -1,-6 -2,-11 -2,-17 0,-1 0,-2 0,-3 -3,-15 -7,-30 -10,-45 -1,-13 -3,-27 -5,-41 -3,-6 -6,-11 -9,-17 0,-6 -1,-12 -1,-18 -5,-9 -10,-19 -14,-29 -7,-8 -15,-16 -22,-23 -3,-7 -5,-14 -8,-21 -2,-2 -3,-5 -5,-8 -1,-5 -2,-11 -2,-17 -10,-10 -19,-21 -28,-32 -2,-3 -4,-6 -6,-9 11,-2 21,-5 32,-7 2,-3 4,-5 6,-8 -1,-1 -2,-2 -4,-4 -1,-1 -3,-3 -5,-5 -2,-2 -4,-4 -5,-7 -4,0 -7,-1 -10,-2 -2,-1 -4,-1 -6,-2 -2,1 -3,1 -5,1 -2,1 -3,1 -5,1 -2,0 -5,0 -8,0 -1,1 -3,2 -4,3 -1,-1 -1,-2 -2,-3 -11,-9 -22,-17 -33,-26 -11,-16 -22,-32 -32,-49 -1,-1 -2,-3 -3,-5 -5,-12 -11,-24 -17,-36 -15,-30 -30,-61 -45,-91 -2,-9 -5,-18 -7,-27 -1,-4 -2,-7 -3,-11 2,0 3,0 4,-1 8,0 16,0 24,-1 4,0 9,0 13,0 4,0 8,1 12,2 1,3 3,5 5,8 0,3 0,5 0,8z"/>
   <path fill="#1C472A" d="M63 129c2,1 4,2 7,3 1,-1 3,-2 5,-3 4,-1 7,-1 11,-2 3,2 6,4 10,6 0,3 1,6 2,10 1,2 1,4 2,7 4,2 8,5 12,7 5,3 10,6 15,9 3,3 7,5 10,7 1,2 2,5 3,7 4,0 7,0 10,0 2,0 4,0 7,-1 1,2 3,3 5,4 0,2 0,5 0,7 0,3 0,5 -1,8 0,3 0,7 0,10 0,4 0,9 0,14 1,2 2,4 3,7 1,1 1,2 1,3 4,4 7,8 11,12 3,4 6,7 10,11 3,4 6,7 9,11 2,4 5,8 8,11 3,2 6,3 8,5 5,0 10,1 14,1 6,3 12,5 18,7 5,3 11,6 17,9 7,6 14,11 20,17 3,2 6,5 9,7 0,1 1,1 1,2 4,3 7,5 10,8 7,1 15,2 22,3 5,-1 10,-2 15,-3 3,-1 5,-2 7,-3 4,2 7,4 11,6 2,3 4,7 6,10 3,3 6,6 9,9 4,1 7,3 11,4 3,2 6,4 10,6 4,4 9,7 14,11 3,3 6,6 8,9 3,1 5,2 7,3 2,0 5,0 7,0 3,1 6,2 9,3 0,2 1,4 2,7 1,3 2,7 3,10 0,0 -1,0 -1,0 -3,2 -7,4 -10,5 -6,4 -11,8 -17,11 -4,3 -9,5 -13,7 -3,2 -6,4 -9,6 0,1 0,2 0,3 -1,2 -1,4 -1,5 1,2 3,4 4,6 5,2 9,4 14,7 6,2 12,4 19,6 4,4 8,7 11,10 8,5 15,10 22,14 3,4 5,8 7,11 0,2 -1,4 -1,7 -3,1 -6,3 -9,4 -2,1 -4,2 -6,3 -1,4 -3,7 -4,10 0,3 1,5 1,8 1,1 3,3 4,4 7,1 15,1 23,1 7,0 15,-1 22,-1 3,-1 5,-2 8,-3 1,2 3,4 5,5 1,2 2,4 3,6 2,1 3,3 4,4 0,4 0,7 0,10 2,2 3,4 5,7 4,2 8,4 12,6 0,1 0,3 0,4 -3,1 -5,1 -7,2 -3,1 -6,2 -8,3 -3,1 -6,3 -9,4 -2,2 -5,3 -7,5 0,4 0,8 0,12 1,2 1,4 2,5 6,3 12,6 18,8 7,5 14,11 21,16 2,3 5,6 8,9 0,8 0,15 -1,22 -3,6 -6,11 -9,16 -1,11 -3,21 -4,32 0,8 -1,17 -1,25 0,3 1,7 1,10 1,4 3,9 4,13 0,2 1,4 1,6 1,2 1,4 2,6 5,1 10,3 15,5 10,1 19,3 28,4 8,-3 16,-6 24,-9 0,0 0,0 1,0 7,-1 14,-1 22,-2 5,3 11,5 17,7 2,4 4,9 5,13 0,4 0,9 0,13 -1,5 -3,10 -5,15 -3,6 -5,13 -8,19 2,3 4,5 7,8 -1,4 -1,9 -2,13 -3,4 -7,9 -10,13 -2,8 -4,16 -5,24 -1,9 -1,17 -2,26 1,7 1,15 2,22 1,2 3,3 5,5 6,0 13,-1 20,-1 4,3 8,6 12,9 3,3 7,6 10,9 0,4 1,8 1,12 -2,6 -4,12 -7,18 -3,3 -7,6 -10,8 -4,6 -8,11 -12,16 -2,6 -4,13 -7,19 0,3 -1,6 -1,10 -1,2 -1,4 -1,6 -4,3 -8,7 -13,10 0,4 0,8 0,11 -1,5 -3,10 -5,15 0,1 -1,2 -1,3 -2,4 -3,7 -4,11 2,3 3,6 5,9 0,6 0,12 0,18 0,7 0,13 0,20 -2,2 -4,5 -6,7 -1,1 -1,2 -2,3 -1,5 -1,9 -1,14 1,6 3,12 5,19 5,5 10,10 14,14 1,4 1,7 2,11 -4,4 -7,9 -11,13 -4,5 -8,10 -12,15 -7,9 -14,18 -20,27 -11,9 -22,18 -33,27 -8,-7 -16,-15 -24,-23 -12,-15 -25,-30 -37,-46 -7,-11 -13,-21 -20,-32 -8,-15 -16,-29 -24,-44 -9,-8 -19,-16 -28,-24 -4,-4 -9,-9 -14,-14 -3,-9 -6,-18 -10,-27 -1,-7 -3,-15 -5,-22 -1,-3 -2,-6 -3,-9 -1,-3 -2,-5 -3,-8 -5,-7 -11,-14 -16,-21 -5,-11 -10,-22 -15,-32 -2,-8 -4,-15 -6,-22 -2,-11 -4,-21 -6,-31 -6,-20 -12,-39 -19,-59 1,-3 2,-7 2,-10 5,-1 9,-2 13,-3 4,1 7,2 11,3 0,6 0,13 1,20 3,11 6,22 9,33 3,8 6,16 9,24 5,5 10,9 14,14 5,-4 10,-7 15,-11 3,0 7,-1 10,-2 1,-2 1,-4 1,-7 -6,-1 -12,-2 -17,-3 -3,-3 -6,-7 -8,-10 -2,-6 -4,-13 -6,-19 0,-9 0,-18 0,-28 0,-5 0,-10 0,-15 -5,-3 -10,-7 -15,-11 -3,-2 -5,-5 -8,-7 0,-8 1,-16 2,-24 -3,-5 -7,-9 -10,-13 -1,1 -2,2 -4,3 -5,0 -10,0 -15,0 -3,-7 -6,-14 -8,-20 -1,-3 -2,-6 -3,-8 -3,-12 -5,-23 -7,-34 -7,-14 -14,-27 -22,-41 4,0 7,-1 11,-1 0,-3 0,-7 0,-10 -6,0 -11,-1 -17,-2 -2,-8 -4,-16 -6,-25 -4,-1 -8,-3 -12,-5 -1,-5 -1,-11 -2,-17 0,-1 0,-2 0,-3 -3,-15 -6,-29 -9,-44 -2,-14 -4,-28 -6,-42 -3,-6 -6,-11 -9,-17 0,-6 -1,-12 -1,-17 -5,-10 -9,-20 -14,-29 -7,-8 -14,-16 -21,-24 -3,-7 -6,-14 -9,-20 -2,-3 -3,-6 -5,-9 -1,-5 -1,-11 -2,-16 -9,-11 -19,-22 -28,-33 -2,-3 -4,-6 -5,-9 10,-2 21,-5 31,-7 2,-3 4,-5 7,-7 -2,-2 -3,-3 -4,-4 -2,-2 -4,-4 -6,-6 -2,-2 -3,-4 -5,-7 -3,0 -7,-1 -10,-2 -2,0 -4,-1 -6,-2 -1,1 -3,1 -5,2 -1,0 -3,0 -5,0 -2,0 -5,0 -8,0 -1,1 -3,2 -4,4 -1,-2 -1,-3 -1,-4 -11,-8 -23,-17 -34,-25 -10,-17 -21,-33 -32,-50 -1,-1 -2,-3 -2,-4 -6,-12 -12,-24 -17,-36 -15,-31 -31,-62 -46,-92 -2,-9 -4,-18 -7,-27 -1,-3 -1,-7 -2,-10 1,-1 2,-1 4,-2 7,0 15,0 23,-1 4,0 9,0 13,0 4,1 8,2 12,3 2,2 4,5 6,7 0,3 0,6 0,8z"/>
   <path fill="#214C2E" d="M65 124c2,0 5,1 7,2 2,-1 3,-2 5,-3 4,-1 7,-1 11,-2 3,2 7,4 10,6 1,3 1,7 2,10 1,2 2,5 3,7 4,2 7,5 11,7 5,3 10,7 15,10 4,2 7,4 10,6 1,2 2,5 4,7 3,0 6,0 9,0 2,0 5,0 7,-1 2,2 3,3 5,5 0,2 1,4 1,6 -1,3 -1,6 -1,8 0,4 0,7 0,10 0,5 0,9 0,14 1,2 2,4 2,7 1,1 1,2 2,3 3,4 7,8 10,12 3,4 7,7 10,11 3,4 6,8 9,11 3,4 6,8 8,12 3,1 6,2 9,4 4,0 9,1 14,1 5,3 11,5 17,7 6,3 12,7 17,10 7,5 14,10 21,16 2,2 5,5 8,7 0,1 1,2 2,2 3,3 6,5 10,8 7,1 14,2 21,3 5,-1 10,-2 16,-3 2,-1 4,-2 7,-3 3,2 7,4 10,6 2,3 4,7 6,11 3,3 6,6 9,8 4,2 7,3 11,4 3,2 7,4 10,6 5,4 9,8 14,11 3,3 6,7 9,10 2,1 4,2 6,3 2,-1 5,-1 7,-1 3,1 6,2 9,3 1,3 1,5 2,7 1,3 2,7 3,10 0,0 0,0 -1,0 -3,2 -6,4 -10,5 -5,4 -11,8 -16,11 -5,3 -10,5 -14,8 -3,2 -6,3 -8,5 -1,1 -1,2 -1,3 0,2 -1,4 -1,5 1,2 3,4 4,6 5,2 9,5 14,7 6,2 13,4 19,7 4,3 8,6 12,9 7,5 14,10 22,14 2,4 4,8 6,11 0,3 0,5 0,7 -4,1 -7,3 -10,5 -2,1 -4,1 -5,2 -2,4 -3,7 -5,10 1,3 1,5 1,8 1,1 3,3 4,5 8,0 15,0 23,0 7,0 15,-1 22,-1 3,-1 5,-2 8,-2 2,1 3,3 5,4 1,2 2,4 4,6 1,2 2,3 4,5 -1,3 -1,6 -1,9 2,2 4,5 5,7 4,2 8,4 12,6 0,1 0,3 0,4 -2,1 -5,2 -7,2 -3,1 -5,2 -8,3 -3,1 -6,3 -9,4 -2,2 -4,4 -7,5 0,4 0,8 0,12 1,2 2,4 3,6 5,2 11,5 17,7 7,6 14,11 21,16 3,3 6,6 9,9 -1,8 -1,15 -2,22 -3,6 -6,11 -9,17 -1,10 -2,20 -3,31 -1,8 -2,17 -2,25 0,4 1,7 2,10 1,4 2,9 3,13 0,2 1,4 1,6 1,2 1,4 2,6 5,2 10,3 16,5 9,1 18,3 27,4 8,-3 16,-6 24,-9 0,0 1,0 1,0 7,-1 15,-1 22,-1 6,2 11,4 17,6 2,4 4,9 6,13 0,5 0,9 0,13 -2,5 -4,10 -6,15 -3,6 -5,13 -8,19 2,3 5,5 7,8 -1,4 -1,9 -2,13 -3,5 -6,9 -10,13 -2,8 -3,16 -5,24 -1,9 -1,17 -1,26 0,7 0,15 1,22 2,2 3,4 5,5 7,0 13,0 20,-1 4,3 8,6 13,9 3,3 6,6 9,9 1,4 1,8 2,12 -3,6 -5,12 -7,18 -4,3 -7,6 -11,9 -4,5 -7,10 -11,15 -3,7 -5,13 -7,19 -1,3 -2,7 -2,10 0,2 -1,4 -1,6 -4,4 -8,7 -12,10 0,4 0,8 0,12 -2,5 -4,10 -6,15 0,1 -1,2 -1,2 -1,4 -3,8 -4,11 2,3 4,6 5,9 0,6 0,12 0,18 0,7 0,14 0,20 -2,2 -4,5 -6,7 0,1 -1,2 -2,3 0,5 -1,9 -1,14 2,6 3,13 5,19 5,5 10,10 15,15 0,3 1,6 1,10 -4,4 -7,9 -10,13 -5,5 -9,10 -13,15 -7,9 -13,18 -20,27 -11,9 -22,18 -33,28 -8,-8 -15,-16 -23,-24 -13,-15 -26,-30 -38,-46 -6,-10 -13,-21 -19,-32 -8,-15 -17,-29 -25,-44 -9,-8 -18,-16 -28,-24 -4,-4 -9,-9 -14,-14 -3,-9 -6,-18 -9,-27 -2,-7 -4,-15 -6,-22 -1,-3 -1,-6 -2,-9 -1,-2 -2,-5 -4,-8 -5,-7 -10,-14 -16,-21 -5,-11 -10,-21 -15,-32 -2,-7 -4,-15 -6,-22 -2,-10 -3,-21 -5,-31 -7,-19 -13,-39 -20,-59 1,-3 2,-7 3,-10 4,-1 8,-2 13,-2 3,0 7,1 10,2 0,7 1,13 1,20 3,11 6,22 9,33 3,8 6,16 9,24 5,5 10,9 15,14 4,-3 9,-7 14,-10 4,-1 7,-2 11,-3 0,-2 0,-4 0,-7 -6,-1 -11,-2 -17,-2 -3,-4 -5,-8 -8,-11 -2,-6 -4,-12 -6,-19 0,-9 0,-18 0,-28 0,-5 0,-10 0,-15 -5,-3 -10,-7 -15,-11 -2,-2 -5,-5 -8,-7 1,-8 1,-16 2,-24 -3,-4 -6,-9 -9,-13 -2,1 -3,2 -4,3 -6,0 -11,0 -16,0 -3,-7 -5,-13 -8,-20 -1,-3 -2,-6 -3,-8 -2,-11 -4,-23 -7,-34 -7,-14 -14,-27 -22,-41 4,0 7,0 11,-1 0,-3 0,-6 0,-10 -6,0 -11,-1 -16,-1 -2,-9 -4,-17 -6,-25 -4,-2 -9,-4 -13,-6 -1,-5 -1,-11 -2,-17 0,-1 0,-1 0,-2 -3,-15 -6,-30 -9,-45 -2,-14 -4,-28 -5,-42 -3,-6 -6,-11 -9,-17 -1,-6 -1,-11 -2,-17 -4,-10 -9,-20 -14,-29 -7,-8 -14,-16 -21,-24 -3,-7 -6,-14 -9,-20 -1,-3 -3,-6 -4,-9 -1,-5 -2,-11 -3,-16 -9,-11 -19,-22 -28,-32 -2,-3 -3,-7 -5,-10 10,-2 21,-5 31,-7 3,-2 5,-5 7,-7 -1,-2 -3,-3 -4,-4 -2,-2 -4,-4 -6,-5 -1,-3 -3,-5 -5,-7 -3,-1 -6,-2 -10,-3 -2,0 -4,-1 -6,-1 -1,0 -3,0 -5,1 -1,0 -3,0 -4,0 -3,0 -6,0 -8,0 -2,2 -3,3 -5,4 0,-1 -1,-2 -1,-4 -11,-8 -22,-17 -33,-25 -11,-17 -22,-33 -33,-50 -1,-1 -1,-3 -2,-4 -6,-12 -11,-24 -17,-36 -15,-31 -30,-61 -45,-92 -3,-9 -5,-18 -7,-27 -1,-3 -2,-7 -3,-10 1,-1 3,-1 4,-1 8,-1 15,-1 23,-2 5,0 9,0 14,0 3,1 7,2 11,3 2,2 4,5 6,7 0,3 0,6 0,9z"/>
   <path fill="#255133" d="M67 118c2,1 5,2 7,3 2,-2 4,-3 5,-4 4,0 8,-1 11,-2 4,2 7,4 10,6 1,3 2,7 2,10 1,2 2,5 3,7 4,3 8,5 11,8 6,3 11,6 16,9 3,2 6,4 9,6 2,2 3,5 4,7 3,0 6,0 9,0 3,0 5,0 7,0 2,1 4,2 5,4 1,2 1,4 1,6 0,3 -1,6 -1,9 0,3 0,6 0,9 0,5 0,9 0,14 1,2 2,5 3,7 0,1 1,2 1,3 3,4 7,8 10,13 4,3 7,7 10,10 3,4 6,8 9,12 3,3 6,7 9,11 2,1 5,3 8,4 5,0 9,1 14,2 6,2 11,4 17,6 6,4 12,7 18,10 6,5 13,11 20,16 3,3 5,5 8,8 1,0 1,1 2,1 3,3 6,5 10,8 7,1 14,2 21,3 5,-1 11,-2 16,-3 2,-1 4,-2 7,-3 3,2 7,4 10,6 2,4 4,7 6,11 3,3 6,6 9,9 4,1 8,2 11,3 4,2 7,4 10,6 5,4 10,8 14,11 3,4 6,7 9,10 2,1 4,2 6,3 3,0 5,-1 7,-1 3,1 6,2 9,4 1,2 2,4 2,6 1,3 2,7 3,10 0,0 0,0 0,0 -4,2 -7,4 -11,6 -5,3 -11,7 -16,11 -5,2 -9,4 -14,7 -3,2 -5,4 -8,5 0,1 -1,2 -1,3 0,2 0,4 -1,6 2,1 3,3 5,5 4,3 9,5 13,7 7,2 13,4 19,7 4,3 8,6 12,10 7,4 15,9 22,14 2,3 4,7 6,11 0,2 0,4 0,6 -3,2 -6,3 -9,5 -2,1 -4,2 -6,3 -2,3 -3,6 -4,9 0,3 0,5 0,8 2,1 3,3 4,5 8,0 16,0 23,0 8,0 15,-1 23,-1 2,-1 5,-1 7,-2 2,1 4,3 5,4 2,2 3,4 4,6 1,2 3,3 4,5 0,3 0,6 -1,9 2,2 4,5 6,7 3,2 7,4 11,6 0,1 0,3 0,5 -2,0 -4,1 -7,1 -2,1 -5,2 -8,3 -3,2 -6,3 -9,4 -2,2 -4,4 -7,6 0,4 0,8 0,12 1,1 2,3 3,5 6,2 11,5 17,7 7,6 14,11 21,16 3,3 6,6 9,9 0,8 -1,15 -1,23 -3,5 -7,10 -10,16 -1,10 -2,21 -3,31 -1,9 -1,17 -2,26 1,3 1,6 2,9 1,4 2,9 3,13 1,2 1,4 1,6 1,2 2,4 2,6 5,2 11,3 16,5 9,2 18,3 27,4 8,-3 16,-6 24,-8 0,-1 1,-1 1,-1 8,0 15,-1 22,-1 6,2 12,4 17,6 2,5 4,9 6,13 0,5 0,9 0,13 -2,5 -4,10 -6,15 -2,6 -5,13 -7,20 2,2 4,5 6,7 0,5 -1,9 -1,13 -4,5 -7,9 -11,13 -1,8 -3,16 -5,24 0,9 -1,18 -1,26 0,8 1,15 1,22 2,2 4,4 5,6 7,-1 14,-1 20,-2 4,3 9,6 13,9 3,3 6,6 9,9 1,4 1,8 2,13 -2,6 -5,12 -7,18 -4,2 -7,5 -11,8 -3,5 -7,10 -11,15 -2,7 -5,13 -7,19 -1,4 -1,7 -2,10 0,2 0,4 0,6 -5,4 -9,7 -13,11 0,3 0,7 0,11 -2,5 -4,10 -5,15 -1,1 -1,2 -2,3 -1,3 -2,7 -4,10 2,3 4,6 6,9 0,6 0,12 0,19 -1,6 -1,13 -1,19 -2,3 -3,5 -5,7 -1,1 -2,3 -3,4 0,4 0,9 -1,13 2,6 4,13 5,19 5,5 10,10 15,15 0,3 1,7 1,10 -3,5 -7,9 -10,14 -4,4 -8,9 -12,14 -7,9 -14,18 -21,27 -11,9 -21,19 -32,28 -8,-8 -16,-16 -24,-23 -13,-16 -25,-31 -38,-46 -6,-11 -13,-22 -19,-33 -8,-14 -16,-29 -24,-44 -10,-7 -19,-15 -28,-23 -5,-5 -10,-10 -14,-14 -4,-9 -7,-19 -10,-28 -2,-7 -4,-14 -5,-22 -1,-3 -2,-6 -3,-8 -1,-3 -2,-6 -3,-9 -6,-7 -11,-14 -16,-21 -5,-11 -11,-21 -16,-32 -2,-7 -3,-15 -5,-22 -2,-10 -4,-20 -6,-31 -7,-19 -13,-39 -19,-59 0,-3 1,-6 2,-10 4,-1 9,-1 13,-2 3,1 7,1 10,2 1,7 1,13 1,20 3,11 7,22 10,33 3,8 5,16 8,24 5,5 10,10 15,14 5,-3 10,-7 14,-10 4,-1 7,-2 11,-3 0,-2 0,-4 0,-6 -5,-1 -11,-2 -17,-3 -2,-4 -5,-7 -8,-11 -2,-6 -4,-12 -6,-19 0,-9 0,-18 1,-27 0,-5 0,-10 0,-15 -5,-4 -10,-8 -16,-12 -2,-2 -5,-4 -8,-7 1,-8 2,-16 2,-24 -3,-4 -6,-9 -9,-13 -1,1 -3,2 -4,3 -5,0 -11,0 -16,0 -3,-6 -5,-13 -8,-20 -1,-3 -2,-5 -3,-8 -2,-11 -4,-23 -6,-34 -8,-13 -15,-27 -22,-40 3,-1 7,-1 10,-2 0,-3 0,-6 0,-10 -5,0 -11,-1 -16,-1 -2,-9 -4,-17 -6,-25 -4,-2 -8,-4 -13,-5 0,-6 -1,-12 -2,-17 0,-1 0,-2 0,-3 -3,-15 -6,-30 -9,-45 -2,-14 -3,-28 -5,-42 -3,-5 -6,-11 -9,-17 -1,-5 -1,-11 -2,-17 -4,-10 -9,-19 -13,-29 -8,-8 -15,-16 -22,-24 -3,-7 -6,-13 -9,-20 -1,-3 -3,-6 -4,-8 -1,-6 -2,-12 -3,-17 -9,-11 -18,-21 -28,-32 -1,-3 -3,-6 -5,-9 11,-3 21,-5 32,-8 2,-2 4,-5 6,-7 -1,-1 -3,-3 -4,-4 -2,-2 -3,-4 -5,-5 -2,-3 -4,-5 -5,-7 -4,-1 -7,-2 -10,-2 -2,-1 -4,-2 -6,-2 -2,0 -4,1 -5,1 -2,0 -3,0 -5,1 -3,0 -5,0 -8,0 -2,1 -3,2 -5,3 0,-1 0,-2 -1,-3 -11,-9 -22,-18 -33,-26 -11,-16 -22,-33 -33,-49 0,-2 -1,-3 -2,-5 -6,-12 -11,-24 -17,-36 -15,-31 -30,-61 -45,-92 -2,-9 -5,-18 -7,-26 -1,-4 -2,-8 -3,-11 1,0 3,-1 4,-1 8,-1 16,-1 23,-1 5,-1 9,-1 14,-1 4,1 8,2 11,3 2,2 4,5 6,7 0,3 0,6 0,9z"/>
   <path fill="#295637" d="M69 112c3,1 5,2 7,3 2,-1 4,-3 6,-4 3,0 7,-1 11,-1 3,1 6,3 10,5 0,4 1,7 1,10 1,2 2,5 3,7 4,3 8,5 12,8 5,3 10,6 15,9 3,2 6,4 10,6 1,3 2,5 3,7 3,0 6,0 10,0 2,0 4,0 7,0 1,1 3,3 5,4 0,2 0,4 0,6 0,3 0,6 -1,9 0,3 0,6 0,9 0,5 0,9 0,14 1,2 2,5 3,7 0,1 1,2 1,3 4,4 7,9 11,13 3,3 6,7 10,10 2,4 5,8 8,12 3,4 6,7 9,11 3,1 5,3 8,4 5,1 9,1 14,2 6,2 12,4 17,7 6,3 12,6 18,9 7,5 13,11 20,16 3,3 6,5 8,8 1,0 1,1 2,1 3,3 7,6 10,8 7,1 14,2 22,3 5,-1 10,-2 15,-3 2,-1 5,-2 7,-3 4,2 7,4 11,6 2,4 3,7 5,11 3,3 7,6 10,9 3,1 7,2 11,3 3,2 6,5 10,7 4,3 9,7 14,11 2,3 5,6 8,9 2,1 4,2 7,3 2,0 4,0 7,-1 3,1 5,3 8,4 1,2 2,4 3,6 1,4 2,7 2,11 0,0 0,0 0,0 -4,1 -7,3 -10,5 -6,4 -11,7 -17,11 -4,2 -9,5 -14,7 -2,2 -5,4 -8,6 0,1 0,2 0,3 -1,1 -1,3 -2,5 2,2 3,4 5,6 5,2 9,4 13,6 7,2 13,5 20,7 4,3 7,7 11,10 8,4 15,9 22,14 2,3 5,7 7,11 -1,2 -1,4 -1,6 -3,2 -6,3 -9,5 -2,1 -4,2 -6,3 -1,3 -3,6 -4,10 0,2 0,5 1,7 1,2 2,3 4,5 7,0 15,0 22,0 8,0 15,0 23,-1 2,0 5,-1 7,-2 2,2 4,3 6,5 1,2 2,3 3,5 1,2 3,3 4,5 0,3 0,6 0,9 1,3 3,5 5,7 4,2 8,4 12,6 0,2 0,3 0,5 -3,0 -5,1 -7,1 -3,1 -6,2 -9,3 -3,2 -5,3 -8,5 -3,1 -5,3 -7,5 0,4 0,8 0,12 1,2 1,3 2,5 6,3 12,5 17,8 7,5 14,10 21,15 3,3 6,7 9,10 0,7 -1,14 -1,22 -3,5 -6,11 -9,16 -2,10 -3,21 -4,31 0,9 -1,17 -2,26 1,3 2,6 2,9 1,5 2,9 4,13 0,2 0,4 1,6 0,2 1,4 1,6 6,2 11,4 16,5 9,2 18,3 27,4 8,-2 16,-5 24,-8 1,0 1,-1 1,-1 8,0 15,-1 23,-1 5,2 11,4 16,6 2,5 4,9 6,14 0,4 0,8 0,13 -2,4 -4,9 -6,14 -2,7 -5,13 -7,20 2,2 4,5 6,7 0,5 -1,9 -1,14 -3,4 -7,8 -10,13 -2,7 -4,15 -6,23 0,9 0,18 -1,26 1,8 1,15 1,22 2,2 4,4 6,6 6,-1 13,-1 19,-1 5,2 9,5 13,8 3,3 6,6 10,9 0,5 1,9 1,13 -2,6 -5,12 -7,18 -3,3 -7,5 -10,8 -4,5 -8,10 -12,15 -2,7 -5,13 -7,20 0,3 -1,6 -2,9 0,2 0,4 0,6 -4,4 -9,7 -13,11 0,4 0,7 0,11 -2,5 -3,10 -5,15 -1,1 -1,2 -1,3 -2,3 -3,7 -4,10 1,3 3,7 5,10 0,6 0,12 0,18 0,6 0,13 -1,19 -1,3 -3,5 -5,7 -1,2 -2,3 -2,4 -1,4 -1,9 -1,13 1,7 3,13 5,19 5,5 9,10 14,15 1,3 1,7 1,10 -3,5 -6,9 -10,14 -4,5 -8,9 -12,14 -7,9 -14,18 -21,27 -10,10 -21,19 -32,28 -8,-8 -16,-16 -24,-23 -12,-16 -25,-31 -38,-46 -6,-11 -12,-22 -19,-33 -8,-14 -16,-29 -24,-43 -9,-8 -19,-16 -28,-24 -5,-5 -9,-10 -14,-14 -3,-9 -7,-18 -10,-27 -2,-8 -3,-15 -5,-23 -1,-2 -2,-5 -3,-8 -1,-3 -2,-6 -3,-9 -5,-7 -11,-14 -16,-21 -5,-10 -10,-21 -15,-32 -2,-7 -4,-14 -6,-22 -2,-10 -4,-20 -6,-31 -6,-19 -13,-39 -19,-58 1,-4 1,-7 2,-11 5,0 9,-1 13,-2 4,1 7,2 11,2 0,7 0,13 1,20 3,11 6,22 9,33 3,8 6,16 9,25 5,4 9,9 14,13 5,-3 10,-7 15,-10 3,-1 7,-2 10,-2 0,-3 0,-5 1,-7 -6,-1 -12,-2 -18,-3 -2,-4 -5,-7 -7,-11 -2,-6 -5,-12 -7,-18 1,-10 1,-19 1,-28 0,-5 0,-10 0,-15 -5,-4 -10,-8 -15,-11 -3,-3 -6,-5 -8,-8 0,-8 1,-16 1,-24 -3,-4 -6,-8 -9,-13 -1,1 -2,2 -4,4 -5,0 -10,0 -16,0 -2,-7 -5,-14 -8,-21 -1,-2 -2,-5 -3,-8 -2,-11 -4,-22 -6,-34 -7,-13 -15,-27 -22,-40 3,-1 7,-1 10,-1 0,-4 0,-7 0,-10 -5,-1 -10,-2 -16,-2 -2,-8 -4,-17 -6,-25 -4,-2 -8,-4 -12,-5 -1,-6 -2,-12 -2,-17 0,-1 0,-2 0,-3 -3,-15 -6,-30 -10,-45 -1,-14 -3,-28 -5,-42 -3,-5 -6,-11 -9,-16 0,-6 -1,-12 -1,-18 -5,-10 -10,-19 -14,-29 -7,-8 -14,-16 -22,-24 -3,-6 -5,-13 -8,-20 -2,-3 -3,-5 -5,-8 -1,-6 -2,-11 -2,-17 -10,-11 -19,-21 -28,-32 -2,-3 -4,-6 -5,-9 10,-3 20,-5 31,-8 2,-2 4,-4 6,-7 -1,-1 -2,-3 -4,-4 -1,-2 -3,-3 -5,-5 -2,-2 -3,-5 -5,-7 -3,-1 -7,-2 -10,-2 -2,-1 -4,-1 -6,-2 -2,0 -3,1 -5,1 -2,0 -3,1 -5,1 -2,0 -5,0 -8,0 -1,1 -3,2 -4,3 -1,-1 -1,-2 -2,-3 -11,-9 -22,-17 -33,-26 -11,-16 -21,-33 -32,-49 -1,-2 -2,-3 -3,-5 -5,-12 -11,-24 -17,-36 -15,-31 -30,-61 -45,-92 -2,-8 -4,-17 -7,-26 -1,-4 -2,-7 -3,-11 2,0 3,-1 4,-1 8,0 16,-1 24,-1 4,0 9,-1 13,-1 4,1 8,2 12,3 2,3 3,5 5,8 0,2 0,5 0,8z"/>
   <path fill="#2D5B3C" d="M72 106c2,1 4,2 7,3 1,-1 3,-2 5,-4 4,0 7,-1 11,-1 3,2 7,4 10,5 0,4 1,7 2,10 1,3 2,5 2,7 4,3 8,5 12,8 5,3 10,6 15,9 3,2 7,4 10,6 1,3 2,5 3,8 4,0 7,0 10,0 2,-1 4,-1 7,-1 2,1 3,3 5,4 0,2 0,4 1,6 -1,3 -1,6 -2,9 0,3 0,6 0,9 0,5 0,10 0,14 1,3 2,5 3,7 1,1 1,2 1,3 4,4 7,9 11,13 3,3 7,7 10,11 3,3 6,7 9,11 3,4 5,7 8,11 3,2 6,3 8,4 5,1 10,1 14,2 6,2 12,5 18,7 5,3 11,6 17,9 7,6 14,11 20,16 3,3 6,5 9,8 0,1 1,1 1,2 4,2 7,5 10,7 7,1 15,2 22,3 5,-1 10,-2 15,-3 3,-1 5,-2 7,-3 4,2 7,4 11,6 2,4 4,8 6,11 3,3 6,6 9,9 4,1 7,2 11,3 3,3 7,5 10,7 4,3 9,7 14,11 3,3 6,6 8,9 3,1 5,2 7,3 2,0 5,0 7,-1 3,2 6,3 9,4 0,2 1,4 2,6 1,4 2,7 3,11 0,0 -1,0 -1,0 -3,2 -7,3 -10,5 -6,4 -11,7 -17,11 -4,2 -9,5 -13,7 -3,2 -6,4 -9,6 0,1 0,2 0,3 -1,1 -1,3 -1,5 1,2 3,4 4,6 5,2 9,4 14,6 6,3 13,5 19,7 4,3 8,7 11,10 8,5 15,9 23,14 2,4 4,7 6,11 0,2 0,4 -1,6 -3,2 -6,3 -9,5 -2,1 -4,2 -6,3 -1,3 -2,6 -4,10 0,2 1,5 1,7 1,2 3,3 4,5 7,0 15,0 23,1 7,-1 15,-1 22,-2 3,0 5,-1 8,-2 1,2 3,3 5,5 1,2 2,4 3,6 2,1 3,3 4,4 0,3 0,6 0,9 2,3 3,5 5,8 4,1 8,3 12,5 0,2 0,3 0,5 -3,0 -5,1 -7,2 -3,1 -6,2 -8,2 -3,2 -6,3 -9,5 -2,1 -5,3 -7,5 0,4 0,8 0,12 1,2 2,3 2,5 6,3 12,5 18,8 7,5 14,10 21,15 3,4 5,7 8,10 0,7 0,15 -1,22 -3,5 -6,11 -9,16 -1,11 -2,21 -4,31 0,9 -1,17 -1,26 0,3 1,6 1,9 2,5 3,9 4,14 0,2 1,4 1,6 1,2 1,3 2,5 5,2 10,4 15,6 10,1 19,2 28,4 8,-3 16,-6 24,-9 0,0 0,0 1,-1 7,0 14,0 22,-1 5,2 11,4 17,7 2,4 4,8 5,13 0,4 0,8 0,13 -1,5 -3,9 -5,14 -3,7 -5,13 -8,20 2,2 4,5 7,8 -1,4 -1,8 -2,13 -3,4 -7,8 -10,13 -2,8 -4,16 -5,24 -1,8 -1,17 -1,26 0,7 0,14 1,22 1,1 3,3 5,5 6,0 13,-1 20,-1 4,3 8,6 12,8 3,3 7,7 10,10 0,4 1,8 2,12 -3,6 -5,12 -8,18 -3,3 -7,5 -10,8 -4,5 -8,10 -12,16 -2,6 -4,12 -7,19 0,3 -1,6 -1,9 -1,2 -1,4 -1,7 -4,3 -8,7 -13,10 0,4 0,7 0,11 -1,5 -3,10 -5,15 0,1 -1,2 -1,3 -2,4 -3,7 -4,11 2,3 3,6 5,9 0,6 0,12 0,18 0,6 0,13 0,20 -2,2 -4,4 -6,7 -1,1 -1,2 -2,3 0,5 -1,9 -1,13 1,7 3,13 5,20 5,4 10,9 15,14 0,4 0,7 1,10 -4,5 -7,9 -11,14 -4,5 -8,10 -12,14 -7,9 -14,19 -20,28 -11,9 -22,18 -33,27 -8,-8 -16,-15 -24,-23 -12,-15 -25,-31 -37,-46 -7,-11 -13,-22 -20,-33 -8,-14 -16,-29 -24,-43 -9,-8 -18,-16 -28,-24 -4,-5 -9,-9 -14,-14 -3,-9 -6,-18 -10,-27 -1,-8 -3,-15 -5,-22 -1,-3 -2,-6 -3,-9 -1,-3 -2,-6 -3,-9 -5,-7 -10,-14 -16,-21 -5,-10 -10,-21 -15,-32 -2,-7 -4,-14 -6,-22 -2,-10 -4,-20 -6,-30 -6,-20 -12,-40 -19,-59 1,-4 2,-7 3,-11 4,0 8,-1 12,-2 4,1 7,2 11,2 0,7 1,14 1,20 3,11 6,22 9,33 3,8 6,17 9,25 5,4 10,9 14,14 5,-4 10,-7 15,-11 3,-1 7,-1 10,-2 1,-2 1,-5 1,-7 -6,-1 -12,-2 -17,-3 -3,-3 -5,-7 -8,-11 -2,-6 -4,-12 -6,-18 0,-9 0,-19 0,-28 0,-5 0,-10 0,-15 -5,-4 -10,-7 -15,-11 -3,-3 -5,-5 -8,-8 1,-8 1,-16 2,-23 -3,-5 -6,-9 -10,-14 -1,1 -2,3 -4,4 -5,0 -10,0 -15,0 -3,-7 -6,-14 -8,-21 -1,-2 -2,-5 -3,-8 -2,-11 -5,-22 -7,-34 -7,-13 -14,-27 -22,-40 4,0 7,-1 11,-1 0,-4 0,-7 0,-10 -6,-1 -11,-1 -17,-2 -2,-8 -4,-17 -5,-25 -5,-2 -9,-3 -13,-5 -1,-6 -1,-11 -2,-17 0,-1 0,-2 0,-3 -3,-15 -6,-30 -9,-45 -2,-14 -4,-27 -5,-41 -4,-6 -7,-12 -10,-17 0,-6 -1,-12 -1,-18 -5,-9 -9,-19 -14,-29 -7,-8 -14,-16 -21,-24 -3,-6 -6,-13 -9,-20 -2,-3 -3,-5 -5,-8 0,-6 -1,-11 -2,-17 -9,-10 -19,-21 -28,-32 -2,-3 -3,-6 -5,-9 10,-3 21,-5 31,-8 2,-2 4,-4 7,-7 -2,-1 -3,-2 -4,-4 -2,-1 -4,-3 -6,-5 -1,-2 -3,-5 -5,-7 -3,-1 -6,-1 -10,-2 -2,-1 -4,-1 -6,-2 -1,1 -3,1 -5,1 -1,0 -3,1 -4,1 -3,0 -6,0 -9,0 -1,1 -3,2 -4,3 -1,-1 -1,-2 -1,-3 -11,-9 -22,-17 -34,-26 -10,-16 -21,-33 -32,-49 -1,-2 -2,-3 -2,-5 -6,-12 -12,-24 -17,-36 -15,-30 -30,-61 -46,-91 -2,-9 -4,-18 -7,-27 0,-4 -1,-7 -2,-11 1,0 2,0 4,-1 7,0 15,-1 23,-1 4,0 9,0 13,-1 4,1 8,2 12,3 2,3 4,5 6,8 0,3 0,5 0,8z"/>
   <path fill="#326040" d="M74 100c2,1 5,2 7,3 2,-1 3,-2 5,-3 4,-1 8,-2 11,-2 3,2 7,4 10,6 1,3 1,6 2,9 1,3 2,5 3,8 4,2 7,5 11,7 5,3 10,6 15,9 4,2 7,5 10,7 1,2 3,4 4,7 3,0 6,0 9,0 2,0 5,-1 7,-1 2,2 4,3 5,4 0,2 1,4 1,7 -1,2 -1,5 -1,8 0,3 0,6 0,10 0,4 0,9 0,13 1,3 2,5 3,8 0,1 0,1 1,2 3,5 7,9 10,13 4,4 7,7 10,11 3,4 6,7 9,11 3,4 6,8 9,11 2,2 5,3 8,4 4,1 9,2 14,2 5,2 11,5 17,7 6,3 12,6 17,9 7,6 14,11 21,17 2,2 5,5 8,7 0,1 1,1 2,2 3,2 6,5 10,7 7,1 14,2 21,3 5,-1 10,-2 16,-3 2,0 4,-1 7,-2 3,2 7,3 10,5 2,4 4,8 6,11 3,3 6,6 9,9 4,1 8,2 11,4 4,2 7,4 10,6 5,4 9,7 14,11 3,3 6,6 9,9 2,1 4,2 6,3 2,0 5,0 7,0 3,1 6,2 9,3 1,2 1,4 2,6 1,4 2,7 3,11 0,0 0,0 -1,0 -3,2 -6,3 -10,5 -5,4 -11,7 -16,11 -5,3 -9,5 -14,7 -3,2 -6,4 -8,6 -1,1 -1,2 -1,3 0,2 -1,3 -1,5 1,2 3,4 5,6 4,2 9,4 13,6 6,3 13,5 19,7 4,4 8,7 12,10 7,5 14,9 22,14 2,4 4,7 6,11 0,2 0,4 0,6 -3,2 -7,4 -10,5 -2,1 -3,2 -5,3 -2,3 -3,7 -5,10 1,2 1,5 1,7 2,2 3,4 4,5 8,0 15,1 23,1 7,-1 15,-1 22,-1 3,-1 5,-2 8,-3 2,2 3,3 5,5 1,2 3,4 4,6 1,1 2,3 4,4 0,3 -1,6 -1,10 2,2 4,4 5,7 4,2 8,3 12,5 0,2 0,3 0,5 -2,1 -5,1 -7,2 -3,1 -5,2 -8,3 -3,1 -6,2 -9,4 -2,2 -4,3 -7,5 0,4 0,8 0,12 1,2 2,4 3,5 5,3 11,5 17,8 7,5 14,10 21,16 3,3 6,6 9,9 -1,7 -1,15 -1,22 -4,5 -7,11 -10,16 -1,11 -2,21 -3,32 -1,8 -1,17 -2,25 1,3 1,6 2,10 1,4 2,8 3,13 0,2 1,4 1,6 1,2 1,4 2,5 5,2 11,4 16,6 9,1 18,2 27,4 8,-3 16,-6 24,-9 0,0 1,0 1,-1 7,0 15,0 22,-1 6,2 11,5 17,7 2,4 4,9 6,13 0,4 0,9 0,13 -2,5 -4,10 -6,14 -3,7 -5,14 -8,20 3,3 5,5 7,8 -1,4 -1,9 -1,13 -4,4 -7,9 -11,13 -2,8 -3,16 -5,24 0,8 -1,17 -1,26 0,7 1,14 1,22 2,1 3,3 5,5 7,0 13,-1 20,-1 4,3 8,6 13,9 3,3 6,6 9,9 1,4 1,8 2,12 -3,6 -5,12 -7,18 -4,3 -7,6 -11,8 -4,5 -7,11 -11,16 -3,6 -5,13 -7,19 -1,3 -2,6 -2,9 0,3 0,5 -1,7 -4,3 -8,7 -12,10 0,4 0,8 0,11 -2,5 -4,10 -6,15 0,1 0,2 -1,3 -1,4 -3,7 -4,11 2,3 4,6 5,9 0,6 0,12 0,18 0,7 0,13 0,20 -2,2 -4,4 -5,7 -1,1 -2,2 -3,3 0,5 -1,9 -1,14 2,6 3,12 5,19 5,5 10,9 15,14 0,4 1,7 1,11 -3,4 -7,9 -10,13 -4,5 -9,10 -13,15 -6,9 -13,18 -20,27 -11,9 -22,18 -33,27 -7,-7 -15,-15 -23,-23 -13,-15 -25,-31 -38,-46 -6,-11 -13,-22 -19,-32 -8,-15 -16,-29 -25,-44 -9,-8 -18,-16 -27,-24 -5,-4 -10,-9 -15,-14 -3,-9 -6,-18 -9,-27 -2,-8 -4,-15 -5,-22 -1,-3 -2,-6 -3,-9 -1,-3 -2,-6 -3,-9 -6,-7 -11,-13 -17,-20 -5,-11 -10,-22 -15,-32 -2,-8 -4,-15 -6,-22 -1,-11 -3,-21 -5,-31 -7,-20 -13,-39 -20,-59 1,-3 2,-7 3,-10 4,-1 8,-2 13,-3 3,1 7,2 10,3 0,6 1,13 1,19 3,11 6,22 9,33 3,9 6,17 9,25 5,4 10,9 15,14 5,-4 9,-7 14,-11 4,0 7,-1 11,-2 0,-2 0,-5 0,-7 -6,-1 -11,-2 -17,-3 -3,-3 -5,-7 -8,-10 -2,-7 -4,-13 -6,-19 0,-9 0,-19 0,-28 0,-5 0,-10 0,-15 -5,-4 -10,-7 -15,-11 -2,-2 -5,-5 -8,-7 1,-8 1,-16 2,-24 -3,-5 -6,-9 -9,-14 -2,2 -3,3 -4,4 -6,0 -11,0 -16,0 -3,-7 -5,-14 -8,-20 -1,-3 -2,-6 -3,-9 -2,-11 -4,-22 -7,-33 -7,-14 -14,-27 -21,-41 3,0 6,-1 10,-1 0,-3 0,-7 0,-10 -6,-1 -11,-1 -16,-2 -2,-8 -4,-16 -6,-25 -4,-1 -9,-3 -13,-5 0,-6 -1,-11 -2,-17 0,-1 0,-2 0,-3 -3,-15 -6,-30 -9,-45 -2,-13 -3,-27 -5,-41 -3,-6 -6,-11 -9,-17 -1,-6 -1,-12 -2,-18 -4,-9 -9,-19 -14,-29 -7,-8 -14,-15 -21,-23 -3,-7 -6,-14 -9,-21 -1,-2 -3,-5 -4,-8 -1,-5 -2,-11 -3,-17 -9,-10 -18,-21 -28,-32 -1,-3 -3,-6 -5,-9 11,-2 21,-5 31,-7 3,-3 5,-5 7,-8 -1,-1 -3,-2 -4,-4 -2,-1 -4,-3 -5,-5 -2,-2 -4,-4 -6,-7 -3,0 -6,-1 -9,-2 -2,-1 -4,-1 -6,-2 -2,1 -4,1 -6,1 -1,1 -3,1 -4,1 -3,0 -6,0 -8,0 -2,1 -3,2 -5,3 0,-1 -1,-2 -1,-3 -11,-8 -22,-17 -33,-26 -11,-16 -22,-32 -33,-49 -1,-1 -1,-3 -2,-5 -6,-12 -11,-24 -17,-36 -15,-30 -30,-61 -45,-91 -3,-9 -5,-18 -7,-27 -1,-3 -2,-7 -3,-11 1,0 3,0 4,-1 8,0 15,0 23,-1 5,0 9,0 14,0 3,1 7,1 11,2 2,3 4,5 6,8 0,3 0,5 0,8z"/>
   <path fill="#366545" d="M76 94c3,1 5,2 7,3 2,-1 4,-2 5,-3 4,-1 8,-1 11,-2 4,2 7,4 10,6 1,3 2,6 2,10 1,2 2,4 3,7 4,2 8,5 12,7 5,3 10,6 15,9 3,3 6,5 10,7 1,2 2,5 3,7 3,0 6,0 9,0 3,0 5,0 7,-1 2,2 4,3 5,4 1,2 1,5 1,7 0,3 -1,5 -1,8 0,4 0,7 0,10 0,4 0,9 0,14 1,2 2,4 3,7 0,1 1,2 1,3 3,4 7,8 11,12 3,4 6,7 9,11 3,4 6,8 9,11 3,4 6,8 9,12 3,1 5,2 8,4 5,0 9,1 14,1 6,3 11,5 17,7 6,3 12,6 18,9 6,6 13,11 20,17 3,2 5,5 8,7 1,1 1,1 2,2 3,3 7,5 10,8 7,1 14,2 21,3 6,-1 11,-2 16,-3 2,-1 5,-2 7,-3 3,2 7,4 10,6 2,3 4,7 6,11 3,2 6,5 9,8 4,2 8,3 12,4 3,2 6,4 9,6 5,4 10,7 14,11 3,3 6,6 9,10 2,0 4,1 6,2 3,0 5,0 7,0 3,1 6,2 9,3 1,2 2,5 2,7 1,3 2,7 3,10 0,0 0,0 0,0 -4,2 -7,4 -11,5 -5,4 -11,8 -16,11 -5,3 -9,5 -14,7 -3,2 -5,4 -8,6 0,1 0,2 -1,3 0,2 0,4 -1,5 2,2 3,4 5,6 4,2 9,4 13,7 7,2 13,4 19,7 4,3 8,6 12,9 7,5 15,10 22,14 2,4 4,8 6,11 0,2 0,4 0,7 -3,1 -6,3 -9,4 -2,1 -4,2 -6,3 -2,4 -3,7 -4,10 0,3 0,5 0,8 2,1 3,3 4,4 8,1 16,1 23,1 8,0 15,-1 23,-1 2,-1 5,-2 7,-2 2,1 4,3 5,4 2,2 3,4 4,6 1,1 3,3 4,4 0,4 0,7 -1,10 2,2 4,4 6,7 3,2 7,4 11,6 0,1 0,3 0,4 -2,1 -4,1 -7,2 -2,1 -5,2 -8,3 -3,1 -6,3 -9,4 -2,2 -4,4 -6,5 0,4 0,8 0,12 0,2 1,4 2,6 6,2 11,5 17,7 7,5 14,11 21,16 3,3 6,6 9,9 0,8 -1,15 -1,22 -3,6 -6,11 -10,16 -1,11 -2,21 -3,32 -1,8 -1,17 -2,25 1,3 1,7 2,10 1,4 2,9 3,13 1,2 1,4 2,6 0,2 1,4 1,6 6,1 11,3 16,5 9,1 18,3 27,4 8,-3 16,-6 24,-9 1,0 1,0 1,0 8,-1 15,-1 22,-1 6,2 12,4 17,6 2,4 4,9 6,13 0,4 0,9 0,13 -2,5 -4,10 -6,15 -2,6 -5,13 -7,19 2,3 4,5 6,8 0,4 -1,9 -1,13 -4,4 -7,9 -11,13 -1,8 -3,16 -5,24 0,9 -1,17 -1,26 0,7 1,15 1,22 2,2 4,3 5,5 7,0 14,0 20,-1 4,3 9,6 13,9 3,3 6,6 9,9 1,4 1,8 2,12 -2,6 -5,12 -7,18 -4,3 -7,6 -10,8 -4,6 -8,11 -12,16 -2,6 -5,13 -7,19 -1,3 -1,6 -2,10 0,2 0,4 0,6 -5,3 -9,7 -13,10 0,4 0,8 0,11 -2,5 -4,10 -5,15 -1,1 -1,2 -2,3 -1,4 -2,7 -4,11 2,3 4,6 6,9 0,6 0,12 0,18 0,7 -1,13 -1,20 -2,2 -3,5 -5,7 -1,1 -2,2 -3,3 0,5 0,9 -1,14 2,6 4,13 5,19 5,5 10,10 15,14 0,4 1,7 1,11 -3,4 -7,9 -10,13 -4,5 -8,10 -12,15 -7,9 -14,18 -21,27 -11,9 -21,18 -32,27 -8,-7 -16,-15 -24,-23 -13,-15 -25,-30 -38,-46 -6,-11 -13,-21 -19,-32 -8,-15 -16,-29 -24,-44 -10,-8 -19,-16 -28,-24 -5,-4 -10,-9 -14,-14 -4,-9 -7,-18 -10,-27 -2,-7 -3,-15 -5,-22 -1,-3 -2,-6 -3,-9 -1,-3 -2,-5 -3,-8 -6,-7 -11,-14 -16,-21 -5,-11 -10,-22 -16,-32 -1,-8 -3,-15 -5,-22 -2,-11 -4,-21 -6,-31 -6,-20 -13,-39 -19,-59 1,-3 1,-7 2,-10 4,-1 9,-2 13,-2 3,0 7,1 10,2 1,6 1,13 1,20 4,11 7,22 10,33 3,8 6,16 8,24 5,5 10,9 15,14 5,-4 10,-7 15,-11 3,0 6,-1 10,-2 0,-2 0,-4 0,-7 -5,-1 -11,-2 -17,-3 -2,-3 -5,-7 -8,-10 -2,-6 -4,-13 -6,-19 0,-9 1,-18 1,-28 0,-5 0,-10 0,-15 -5,-3 -10,-7 -15,-11 -3,-2 -6,-5 -9,-7 1,-8 2,-16 2,-24 -3,-5 -6,-9 -9,-13 -1,1 -3,2 -4,3 -5,0 -11,0 -16,0 -2,-7 -5,-13 -8,-20 -1,-3 -2,-6 -3,-8 -2,-12 -4,-23 -6,-34 -8,-14 -15,-27 -22,-41 3,0 7,0 10,-1 0,-3 0,-7 0,-10 -5,0 -11,-1 -16,-2 -2,-8 -4,-16 -6,-25 -4,-1 -8,-3 -13,-5 0,-5 -1,-11 -1,-17 0,-1 0,-2 0,-3 -4,-14 -7,-29 -10,-44 -1,-14 -3,-28 -5,-42 -3,-6 -6,-11 -9,-17 -1,-6 -1,-12 -2,-17 -4,-10 -9,-20 -13,-29 -7,-8 -15,-16 -22,-24 -3,-7 -6,-14 -9,-20 -1,-3 -3,-6 -4,-9 -1,-5 -2,-11 -3,-16 -9,-11 -18,-22 -27,-33 -2,-3 -4,-6 -6,-9 11,-2 21,-5 32,-7 2,-3 4,-5 6,-7 -1,-2 -2,-3 -4,-4 -2,-2 -3,-4 -5,-6 -2,-2 -4,-4 -5,-6 -4,-1 -7,-2 -10,-3 -2,0 -4,-1 -6,-2 -2,1 -4,1 -5,2 -2,0 -3,0 -5,0 -3,0 -5,0 -8,0 -2,1 -3,3 -5,4 0,-1 0,-3 -1,-4 -11,-8 -22,-17 -33,-25 -11,-17 -22,-33 -32,-50 -1,-1 -2,-3 -3,-4 -5,-12 -11,-24 -17,-36 -15,-31 -30,-62 -45,-92 -2,-9 -5,-18 -7,-27 -1,-3 -2,-7 -3,-10 1,-1 3,-1 4,-2 8,0 16,0 23,-1 5,0 9,0 14,0 4,1 8,2 11,3 2,2 4,5 6,7 0,3 0,6 0,8z"/>
   <path fill="#3A6A49" d="M78 89c3,1 5,1 8,2 1,-1 3,-2 5,-3 3,-1 7,-1 11,-2 3,2 6,4 10,6 0,3 1,7 1,10 1,2 2,5 3,7 4,2 8,5 12,7 5,4 10,7 15,10 3,2 7,4 10,6 1,2 2,5 3,7 3,0 7,0 10,0 2,0 4,0 7,0 1,1 3,2 5,4 0,2 0,4 0,6 0,3 0,6 -1,9 0,3 0,6 0,9 0,5 0,9 0,14 1,2 2,5 3,7 0,1 1,2 1,3 4,4 7,8 11,12 3,4 6,8 10,11 3,4 5,8 8,12 3,3 6,7 9,11 3,1 5,2 8,4 5,0 9,1 14,1 6,3 12,5 17,7 6,3 12,7 18,10 7,5 14,11 20,16 3,2 6,5 8,7 1,1 2,2 2,2 3,3 7,5 10,8 7,1 14,2 22,3 5,-1 10,-2 15,-3 3,-1 5,-2 7,-3 4,2 7,4 11,6 2,3 4,7 5,11 4,3 7,6 10,9 3,1 7,2 11,3 3,2 6,4 10,6 4,4 9,8 14,11 3,3 5,7 8,10 2,1 4,2 7,3 2,-1 4,-1 7,-1 3,1 5,2 8,3 1,3 2,5 3,7 1,3 2,7 3,10 -1,0 -1,0 -1,0 -3,2 -7,4 -10,6 -6,3 -11,7 -17,10 -4,3 -9,5 -14,8 -2,2 -5,3 -8,5 0,1 0,2 0,3 -1,2 -1,4 -2,5 2,2 4,4 5,6 5,2 9,5 14,7 6,2 12,4 19,7 4,3 7,6 11,9 8,5 15,10 22,15 2,3 5,7 7,10 0,3 -1,5 -1,7 -3,1 -6,3 -9,5 -2,1 -4,2 -6,2 -1,4 -3,7 -4,10 0,3 0,5 1,8 1,1 2,3 4,5 7,0 15,0 22,0 8,0 15,-1 23,-1 2,-1 5,-2 8,-2 1,1 3,3 5,4 1,2 2,4 3,6 2,2 3,3 4,5 0,3 0,6 0,9 1,2 3,5 5,7 4,2 8,4 12,6 0,1 0,3 0,4 -3,1 -5,2 -7,2 -3,1 -6,2 -9,3 -2,1 -5,3 -8,4 -3,2 -5,4 -7,5 0,4 0,8 0,13 1,1 1,3 2,5 6,2 12,5 17,7 7,6 14,11 21,16 3,3 6,6 9,9 0,8 -1,15 -1,22 -3,6 -6,11 -9,17 -2,10 -3,20 -4,31 0,8 -1,17 -2,25 1,4 2,7 2,10 1,4 2,9 4,13 0,2 0,4 1,6 0,2 1,4 2,6 5,2 10,3 15,5 9,1 18,3 28,4 7,-3 15,-6 23,-9 1,0 1,0 2,0 7,-1 14,-1 22,-1 5,2 11,4 17,6 1,4 3,9 5,13 0,5 0,9 0,13 -2,5 -4,10 -5,15 -3,6 -6,13 -8,19 2,3 4,6 6,8 0,4 0,9 -1,13 -3,5 -7,9 -10,13 -2,8 -4,16 -6,24 0,9 0,17 -1,26 1,7 1,15 1,22 2,2 4,4 6,5 6,0 13,0 19,-1 5,3 9,6 13,9 3,3 6,6 10,9 0,4 1,8 1,12 -2,6 -4,13 -7,19 -3,2 -7,5 -10,8 -4,5 -8,10 -12,15 -2,7 -4,13 -7,19 0,4 -1,7 -2,10 0,2 0,4 0,6 -4,4 -9,7 -13,10 0,4 0,8 0,12 -2,5 -3,10 -5,15 0,1 -1,2 -1,3 -2,3 -3,7 -4,10 1,3 3,6 5,9 0,6 0,12 0,18 0,7 0,14 -1,20 -1,2 -3,5 -5,7 -1,1 -2,2 -2,4 -1,4 -1,9 -1,13 1,6 3,13 5,19 5,5 9,10 14,15 1,3 1,7 1,10 -3,4 -6,9 -10,13 -4,5 -8,10 -12,15 -7,9 -14,18 -21,27 -10,9 -21,18 -32,28 -8,-8 -16,-16 -24,-24 -12,-15 -25,-30 -37,-46 -7,-10 -13,-21 -20,-32 -8,-15 -16,-29 -24,-44 -9,-8 -19,-16 -28,-23 -5,-5 -9,-10 -14,-14 -3,-10 -7,-19 -10,-28 -2,-7 -3,-15 -5,-22 -1,-3 -2,-6 -3,-9 -1,-2 -2,-5 -3,-8 -5,-7 -11,-14 -16,-21 -5,-11 -10,-21 -15,-32 -2,-7 -4,-15 -6,-22 -2,-10 -4,-21 -6,-31 -6,-19 -13,-39 -19,-59 1,-3 2,-7 2,-10 5,-1 9,-2 13,-2 4,0 7,1 11,2 0,7 0,13 1,20 3,11 6,22 9,33 3,8 6,16 9,24 5,5 9,9 14,14 5,-3 10,-7 15,-10 3,-1 7,-2 10,-3 0,-2 1,-4 1,-7 -6,-1 -12,-1 -18,-2 -2,-4 -5,-7 -7,-11 -2,-6 -4,-12 -7,-19 1,-9 1,-18 1,-28 0,-5 0,-9 0,-14 -5,-4 -10,-8 -15,-12 -3,-2 -6,-5 -8,-7 0,-8 1,-16 1,-24 -3,-4 -6,-9 -9,-13 -1,1 -2,2 -4,3 -5,0 -10,0 -16,0 -2,-7 -5,-13 -8,-20 -1,-3 -2,-5 -2,-8 -3,-11 -5,-23 -7,-34 -7,-14 -15,-27 -22,-41 4,0 7,0 10,-1 0,-3 0,-6 0,-10 -5,0 -10,-1 -16,-1 -2,-9 -4,-17 -6,-25 -4,-2 -8,-4 -12,-6 -1,-5 -2,-11 -2,-17 0,0 0,-1 0,-2 -3,-15 -6,-30 -9,-45 -2,-14 -4,-28 -6,-42 -3,-5 -6,-11 -9,-17 0,-6 -1,-11 -1,-17 -5,-10 -9,-20 -14,-29 -7,-8 -14,-16 -22,-24 -2,-7 -5,-14 -8,-20 -2,-3 -3,-6 -5,-9 -1,-5 -2,-11 -2,-16 -10,-11 -19,-22 -28,-32 -2,-3 -4,-6 -5,-10 10,-2 20,-5 31,-7 2,-2 4,-5 6,-7 -1,-1 -2,-3 -4,-4 -1,-2 -3,-4 -5,-5 -2,-3 -3,-5 -5,-7 -3,-1 -7,-2 -10,-3 -2,0 -4,-1 -6,-1 -2,0 -3,0 -5,1 -2,0 -3,0 -5,0 -2,0 -5,0 -8,0 -1,2 -3,3 -4,4 -1,-1 -1,-2 -2,-4 -11,-8 -22,-17 -33,-25 -11,-17 -21,-33 -32,-50 -1,-1 -2,-3 -3,-4 -5,-12 -11,-24 -16,-36 -16,-31 -31,-61 -46,-92 -2,-9 -4,-18 -7,-27 -1,-3 -2,-7 -3,-10 2,-1 3,-1 4,-1 8,-1 16,-1 24,-1 4,-1 9,-1 13,-1 4,1 8,2 12,3 2,2 4,5 5,7 0,3 0,6 0,9z"/>
   <path fill="#3E6F4E" d="M81 83c2,1 4,2 7,3 2,-2 3,-3 5,-4 4,0 7,-1 11,-2 3,2 7,4 10,6 1,3 1,7 2,10 1,2 2,5 3,7 3,3 7,5 11,8 5,3 10,6 15,9 4,2 7,4 10,6 1,3 2,5 3,7 4,0 7,0 10,0 2,0 5,0 7,0 2,1 3,2 5,4 0,2 0,4 1,6 -1,3 -1,6 -2,9 0,3 0,6 0,9 0,5 0,9 0,14 1,2 2,5 3,7 1,1 1,2 2,3 3,4 7,8 10,13 3,3 7,7 10,10 3,4 6,8 9,12 3,3 5,7 8,11 3,1 6,3 8,4 5,0 10,1 14,2 6,2 12,4 18,7 6,3 11,6 17,9 7,5 14,11 21,16 2,3 5,5 8,8 0,0 1,1 1,1 4,3 7,5 10,8 8,1 15,2 22,3 5,-1 10,-2 15,-3 3,-1 5,-2 7,-3 4,2 7,4 11,6 2,4 4,7 6,11 3,3 6,6 9,9 4,1 7,2 11,3 3,2 7,4 10,6 5,4 9,8 14,11 3,4 6,7 9,10 2,1 4,2 6,3 2,0 5,-1 7,-1 3,1 6,2 9,4 0,2 1,4 2,6 1,3 2,7 3,11 0,0 -1,0 -1,0 -3,1 -7,3 -10,5 -6,3 -11,7 -16,11 -5,2 -10,4 -14,7 -3,2 -6,4 -9,6 0,0 0,1 0,2 -1,2 -1,4 -1,6 1,2 3,3 4,5 5,3 9,5 14,7 6,2 13,5 19,7 4,3 8,6 12,10 7,4 14,9 22,14 2,3 4,7 6,11 0,2 0,4 -1,6 -3,2 -6,3 -9,5 -2,1 -4,2 -6,3 -1,3 -2,6 -4,9 0,3 1,5 1,8 1,2 3,3 4,5 8,0 15,0 23,0 7,0 15,0 22,-1 3,-1 5,-1 8,-2 2,1 3,3 5,4 1,2 2,4 3,6 2,2 3,3 4,5 0,3 0,6 0,9 2,2 3,5 5,7 4,2 8,4 12,6 0,1 0,3 0,5 -2,0 -5,1 -7,1 -3,1 -6,2 -8,3 -3,2 -6,3 -9,4 -2,2 -5,4 -7,6 0,4 0,8 0,12 1,1 2,3 2,5 6,2 12,5 18,8 7,5 14,10 21,15 3,3 6,6 8,10 0,7 0,14 -1,22 -3,5 -6,10 -9,16 -1,10 -2,21 -4,31 0,9 -1,17 -1,26 0,3 1,6 1,9 2,4 3,9 4,13 0,2 1,4 1,6 1,2 1,4 2,6 5,2 10,3 16,5 9,2 18,3 27,4 8,-3 16,-6 24,-8 0,-1 0,-1 1,-1 7,0 15,-1 22,-1 6,2 11,4 17,6 2,5 4,9 6,13 0,5 0,9 0,13 -2,5 -4,10 -6,15 -3,6 -5,13 -8,20 2,2 5,5 7,7 -1,5 -1,9 -2,13 -3,5 -7,9 -10,13 -2,8 -4,16 -5,24 -1,9 -1,18 -1,26 0,8 0,15 1,22 1,2 3,4 5,6 7,-1 13,-1 20,-2 4,3 8,6 12,9 4,3 7,6 10,9 0,4 1,9 2,13 -3,6 -5,12 -8,18 -3,2 -6,5 -10,8 -4,5 -8,10 -11,15 -3,7 -5,13 -8,20 0,3 -1,6 -1,9 0,2 -1,4 -1,6 -4,4 -8,7 -13,11 0,3 0,7 0,11 -1,5 -3,10 -5,15 0,1 -1,2 -1,3 -1,3 -3,7 -4,10 2,3 3,6 5,9 0,7 0,13 0,19 0,6 0,13 0,19 -2,3 -4,5 -6,7 0,1 -1,3 -2,4 0,4 -1,9 -1,13 2,7 3,13 5,19 5,5 10,10 15,15 0,3 0,7 1,10 -4,5 -7,9 -11,14 -4,4 -8,9 -12,14 -7,9 -13,18 -20,27 -11,9 -22,19 -33,28 -8,-8 -16,-16 -24,-23 -12,-16 -25,-31 -37,-46 -7,-11 -13,-22 -19,-33 -9,-14 -17,-29 -25,-43 -9,-8 -18,-16 -28,-24 -4,-5 -9,-10 -14,-14 -3,-9 -6,-19 -10,-28 -1,-7 -3,-14 -5,-22 -1,-3 -2,-5 -3,-8 -1,-3 -2,-6 -3,-9 -5,-7 -10,-14 -16,-21 -5,-11 -10,-21 -15,-32 -2,-7 -4,-15 -6,-22 -2,-10 -4,-20 -5,-31 -7,-19 -13,-39 -20,-59 1,-3 2,-6 3,-10 4,-1 8,-1 12,-2 4,1 7,1 11,2 0,7 1,13 1,20 3,11 6,22 9,33 3,8 6,16 9,24 5,5 10,10 14,14 5,-3 10,-7 15,-10 4,-1 7,-2 10,-2 1,-3 1,-5 1,-7 -6,-1 -12,-2 -17,-3 -3,-4 -5,-7 -8,-11 -2,-6 -4,-12 -6,-18 0,-10 0,-19 0,-28 0,-5 0,-10 0,-15 -5,-4 -10,-8 -15,-11 -3,-3 -5,-5 -8,-8 1,-8 1,-16 2,-24 -3,-4 -6,-9 -9,-13 -2,1 -3,2 -4,3 -6,0 -11,0 -16,0 -3,-6 -6,-13 -8,-20 -1,-3 -2,-5 -3,-8 -2,-11 -5,-23 -7,-34 -7,-13 -14,-27 -22,-40 4,-1 7,-1 11,-2 0,-3 0,-6 0,-10 -6,0 -11,-1 -17,-1 -2,-9 -3,-17 -5,-25 -5,-2 -9,-4 -13,-5 -1,-6 -1,-12 -2,-17 0,-1 0,-2 0,-3 -3,-15 -6,-30 -9,-45 -2,-14 -4,-28 -5,-42 -3,-5 -7,-11 -10,-17 0,-5 -1,-11 -1,-17 -5,-10 -9,-19 -14,-29 -7,-8 -14,-16 -21,-24 -3,-7 -6,-13 -9,-20 -2,-3 -3,-6 -5,-8 0,-6 -1,-11 -2,-17 -9,-11 -19,-21 -28,-32 -2,-3 -3,-6 -5,-9 10,-3 21,-5 31,-8 2,-2 5,-5 7,-7 -2,-1 -3,-3 -4,-4 -2,-2 -4,-3 -6,-5 -1,-3 -3,-5 -5,-7 -3,-1 -6,-2 -10,-2 -2,-1 -4,-2 -6,-2 -1,0 -3,1 -5,1 -1,0 -3,0 -4,1 -3,0 -6,0 -8,0 -2,1 -4,2 -5,3 0,-1 -1,-2 -1,-3 -11,-9 -22,-17 -34,-26 -10,-16 -21,-33 -32,-49 -1,-2 -2,-3 -2,-5 -6,-12 -12,-24 -17,-36 -15,-31 -30,-61 -46,-92 -2,-9 -4,-18 -6,-26 -1,-4 -2,-8 -3,-11 1,0 2,-1 4,-1 7,-1 15,-1 23,-1 4,-1 9,-1 13,-1 4,1 8,2 12,3 2,2 4,5 6,7 0,3 0,6 0,9z"/>
   <path fill="#437552" d="M83 77c2,1 5,2 7,3 2,-1 4,-3 5,-4 4,0 8,-1 11,-1 4,2 7,3 10,5 1,4 1,7 2,10 1,3 2,5 3,7 4,3 7,5 11,8 5,3 10,6 16,9 3,2 6,4 9,6 1,3 3,5 4,7 3,0 6,0 9,0 2,0 5,0 7,0 2,1 4,3 5,4 0,2 1,4 1,6 0,3 -1,6 -1,9 0,3 0,6 0,9 0,5 0,10 0,14 1,3 2,5 3,7 0,1 0,2 1,3 3,4 7,9 10,13 4,3 7,7 10,10 3,4 6,8 9,12 3,4 6,7 9,11 2,1 5,3 8,4 4,1 9,1 14,2 5,2 11,4 17,7 6,3 12,6 17,9 7,5 14,11 21,16 3,3 5,5 8,8 0,0 1,1 2,2 3,2 6,5 10,7 7,1 14,2 21,3 5,-1 11,-2 16,-3 2,-1 4,-2 7,-3 3,2 7,4 10,6 2,4 4,7 6,11 3,3 6,6 9,9 4,1 8,2 11,3 4,2 7,5 10,7 5,3 9,7 14,11 3,3 6,6 9,9 2,1 4,2 6,3 3,0 5,0 7,-1 3,2 6,3 9,4 1,2 1,4 2,6 1,4 2,7 3,11 0,0 0,0 0,0 -4,1 -7,3 -11,5 -5,4 -11,7 -16,11 -5,2 -9,5 -14,7 -3,2 -6,4 -8,6 0,1 -1,2 -1,3 0,1 -1,3 -1,5 2,2 3,4 5,6 4,2 9,4 13,6 6,2 13,5 19,7 4,3 8,7 12,10 7,4 15,9 22,14 2,4 4,7 6,11 0,2 0,4 0,6 -3,2 -6,3 -10,5 -1,1 -3,2 -5,3 -2,3 -3,6 -5,10 1,2 1,5 1,7 2,2 3,3 4,5 8,0 15,0 23,1 7,-1 15,-1 22,-2 3,0 6,-1 8,-2 2,2 4,3 5,5 1,2 3,3 4,5 1,2 2,3 4,5 0,3 -1,6 -1,9 2,3 4,5 5,7 4,2 8,4 12,6 0,2 0,3 0,5 -2,0 -5,1 -7,1 -3,1 -5,2 -8,3 -3,2 -6,3 -9,5 -2,1 -4,3 -7,5 0,4 0,8 0,12 1,2 2,3 3,5 5,3 11,5 17,8 7,5 14,10 21,15 3,3 6,7 9,10 -1,7 -1,14 -1,22 -4,5 -7,11 -10,16 -1,10 -2,21 -3,31 -1,9 -1,17 -2,26 1,3 1,6 2,9 1,5 2,9 3,13 1,2 1,4 1,6 1,2 1,4 2,6 5,2 11,4 16,5 9,2 18,3 27,4 8,-2 16,-5 24,-8 0,0 1,-1 1,-1 7,0 15,-1 22,-1 6,2 11,4 17,6 2,5 4,9 6,14 0,4 0,8 0,13 -2,4 -4,9 -6,14 -2,7 -5,13 -8,20 3,2 5,5 7,7 -1,5 -1,9 -1,14 -4,4 -7,8 -11,13 -2,8 -3,15 -5,23 0,9 -1,18 -1,27 0,7 1,14 1,21 2,2 3,4 5,6 7,-1 13,-1 20,-1 4,3 8,5 13,8 3,3 6,6 9,10 1,4 1,8 2,12 -3,6 -5,12 -7,18 -4,3 -7,5 -11,8 -4,5 -7,10 -11,16 -3,6 -5,12 -7,19 -1,3 -1,6 -2,9 0,2 0,4 -1,6 -4,4 -8,7 -12,11 0,4 0,7 0,11 -2,5 -4,10 -5,15 -1,1 -1,2 -2,3 -1,3 -3,7 -4,10 2,4 4,7 6,10 0,6 0,12 0,18 -1,6 -1,13 -1,20 -2,2 -4,4 -5,6 -1,2 -2,3 -3,4 0,4 -1,9 -1,13 2,7 4,13 5,19 5,5 10,10 15,15 0,3 1,7 1,10 -3,5 -7,9 -10,14 -4,5 -9,9 -13,14 -6,9 -13,18 -20,27 -11,10 -22,19 -32,28 -8,-8 -16,-16 -24,-23 -13,-16 -25,-31 -38,-46 -6,-11 -13,-22 -19,-33 -8,-14 -16,-29 -25,-43 -9,-8 -18,-16 -27,-24 -5,-5 -10,-9 -14,-14 -4,-9 -7,-18 -10,-27 -2,-8 -4,-15 -5,-23 -1,-2 -2,-5 -3,-8 -1,-3 -2,-6 -3,-9 -6,-7 -11,-14 -17,-21 -5,-10 -10,-21 -15,-32 -2,-7 -4,-14 -5,-22 -2,-10 -4,-20 -6,-30 -7,-20 -13,-40 -19,-59 0,-4 1,-7 2,-11 4,0 8,-1 13,-2 3,1 7,2 10,2 0,7 1,14 1,20 3,11 6,22 9,33 3,8 6,16 9,25 5,4 10,9 15,13 5,-3 9,-7 14,-10 4,-1 7,-1 11,-2 0,-3 0,-5 0,-7 -5,-1 -11,-2 -17,-3 -3,-4 -5,-7 -8,-11 -2,-6 -4,-12 -6,-18 0,-10 0,-19 1,-28 0,-5 0,-10 0,-15 -6,-4 -11,-8 -16,-11 -2,-3 -5,-5 -8,-8 1,-8 1,-16 2,-24 -3,-4 -6,-8 -9,-13 -2,1 -3,2 -4,4 -5,0 -11,0 -16,0 -3,-7 -5,-14 -8,-21 -1,-2 -2,-5 -3,-8 -2,-11 -4,-22 -6,-34 -8,-13 -15,-27 -22,-40 3,-1 7,-1 10,-1 0,-4 0,-7 0,-10 -5,-1 -11,-1 -16,-2 -2,-8 -4,-17 -6,-25 -4,-2 -9,-4 -13,-5 0,-6 -1,-12 -2,-17 0,-1 0,-2 0,-3 -3,-15 -6,-30 -9,-45 -2,-14 -3,-28 -5,-41 -3,-6 -6,-12 -9,-17 -1,-6 -1,-12 -2,-18 -4,-10 -9,-19 -14,-29 -7,-8 -14,-16 -21,-24 -3,-6 -6,-13 -9,-20 -1,-3 -3,-5 -4,-8 -1,-6 -2,-11 -3,-17 -9,-11 -18,-21 -28,-32 -1,-3 -3,-6 -5,-9 11,-3 21,-5 31,-8 3,-2 5,-4 7,-7 -1,-1 -3,-2 -4,-4 -2,-2 -4,-3 -5,-5 -2,-2 -4,-5 -6,-7 -3,-1 -6,-1 -9,-2 -2,-1 -4,-1 -6,-2 -2,0 -4,1 -6,1 -1,0 -3,1 -4,1 -3,0 -6,0 -8,0 -2,1 -3,2 -5,3 0,-1 -1,-2 -1,-3 -11,-9 -22,-17 -33,-26 -11,-16 -22,-33 -33,-49 0,-2 -1,-3 -2,-5 -6,-12 -11,-24 -17,-36 -15,-30 -30,-61 -45,-92 -3,-8 -5,-17 -7,-26 -1,-4 -2,-7 -3,-11 1,0 3,-1 4,-1 8,0 15,-1 23,-1 5,0 9,-1 14,-1 4,1 7,2 11,3 2,3 4,5 6,8 0,2 0,5 0,8z"/>
   <path fill="#477A57" d="M85 71c3,1 5,2 7,3 2,-1 4,-2 6,-4 3,0 7,-1 11,-1 3,2 6,4 9,6 1,3 2,6 2,9 1,3 2,5 3,7 4,3 8,5 12,8 5,3 10,6 15,9 3,2 6,4 10,6 1,3 2,5 3,8 3,0 6,0 9,0 3,-1 5,-1 7,-1 2,1 4,3 6,4 0,2 0,4 0,6 0,3 -1,6 -1,9 0,3 0,6 0,9 0,5 0,10 0,14 1,3 2,5 3,7 0,1 1,2 1,3 4,5 7,9 11,13 3,4 6,7 9,11 3,3 6,7 9,11 3,4 6,8 9,11 3,2 5,3 8,4 5,1 9,1 14,2 6,2 12,5 17,7 6,3 12,6 18,9 7,6 13,11 20,16 3,3 5,5 8,8 1,1 1,1 2,2 3,2 7,5 10,7 7,1 14,2 21,3 6,-1 11,-2 16,-3 2,-1 5,-2 7,-3 3,2 7,4 10,6 2,4 4,8 6,11 3,3 6,6 9,9 4,1 8,2 12,3 3,3 6,5 9,7 5,4 10,7 14,11 3,3 6,6 9,9 2,1 4,2 6,3 3,0 5,0 8,0 2,1 5,2 8,3 1,2 2,4 3,6 0,4 1,7 2,11 0,0 0,0 0,0 -4,2 -7,3 -11,5 -5,4 -10,7 -16,11 -5,2 -9,5 -14,7 -2,2 -5,4 -8,6 0,1 0,2 -1,3 0,2 0,3 -1,5 2,2 3,4 5,6 4,2 9,4 13,6 7,3 13,5 20,7 3,3 7,7 11,10 7,5 15,9 22,14 2,4 4,7 7,11 -1,2 -1,4 -1,6 -3,2 -6,4 -9,5 -2,1 -4,2 -6,3 -1,3 -3,7 -4,10 0,2 0,5 0,7 2,2 3,3 5,5 7,0 15,0 22,1 8,-1 15,-1 23,-2 2,0 5,-1 7,-2 2,2 4,3 6,5 1,2 2,4 3,6 1,1 3,3 4,4 0,3 0,6 -1,9 2,3 4,5 6,8 4,1 7,3 11,5 0,2 0,3 0,5 -2,0 -4,1 -7,2 -2,1 -5,2 -8,2 -3,2 -6,3 -8,5 -3,1 -5,3 -7,5 0,4 0,8 0,12 0,2 1,3 2,5 6,3 11,5 17,8 7,5 14,10 21,15 3,4 6,7 9,10 0,7 -1,15 -1,22 -3,5 -6,11 -10,16 -1,11 -2,21 -3,31 -1,9 -1,17 -2,26 1,3 1,6 2,9 1,5 2,9 3,14 1,2 1,4 2,6 0,2 1,3 1,5 6,2 11,4 16,6 9,1 18,2 27,4 8,-3 16,-6 24,-9 1,0 1,0 1,-1 8,0 15,0 22,-1 6,2 12,4 17,7 2,4 4,8 6,13 0,4 0,8 0,13 -2,5 -4,9 -6,14 -2,7 -5,13 -7,20 2,2 4,5 6,8 0,4 -1,8 -1,13 -4,4 -7,8 -11,13 -1,8 -3,16 -5,24 0,8 0,17 -1,26 1,7 1,14 1,22 2,1 4,3 5,5 7,0 14,-1 20,-1 5,3 9,6 13,8 3,4 6,7 9,10 1,4 2,8 2,12 -2,6 -5,12 -7,18 -3,3 -7,5 -10,8 -4,5 -8,11 -12,16 -2,6 -5,12 -7,19 -1,3 -1,6 -2,9 0,2 0,5 0,7 -5,3 -9,7 -13,10 0,4 0,7 0,11 -2,5 -3,10 -5,15 -1,1 -1,2 -2,3 -1,4 -2,7 -4,11 2,3 4,6 6,9 0,6 0,12 0,18 0,7 -1,13 -1,20 -2,2 -3,4 -5,7 -1,1 -2,2 -2,3 -1,5 -1,9 -2,14 2,6 4,12 6,19 4,4 9,9 14,14 1,4 1,7 1,11 -3,4 -7,8 -10,13 -4,5 -8,10 -12,14 -7,9 -14,19 -21,28 -11,9 -21,18 -32,27 -8,-8 -16,-15 -24,-23 -13,-15 -25,-31 -38,-46 -6,-11 -12,-22 -19,-33 -8,-14 -16,-29 -24,-43 -10,-8 -19,-16 -28,-24 -5,-5 -9,-9 -14,-14 -3,-9 -7,-18 -10,-27 -2,-8 -3,-15 -5,-22 -1,-3 -2,-6 -3,-9 -1,-3 -2,-6 -3,-9 -5,-7 -11,-14 -16,-21 -5,-10 -10,-21 -15,-31 -2,-8 -4,-15 -6,-23 -2,-10 -4,-20 -6,-30 -6,-20 -13,-40 -19,-59 1,-4 1,-7 2,-11 4,0 9,-1 13,-2 3,1 7,2 10,2 1,7 1,14 2,20 3,11 6,22 9,33 3,8 6,17 9,25 4,4 9,9 14,14 5,-4 10,-7 15,-11 3,-1 7,-1 10,-2 0,-2 0,-5 1,-7 -6,-1 -12,-2 -18,-3 -2,-3 -5,-7 -7,-10 -3,-7 -5,-13 -7,-19 0,-9 1,-19 1,-28 0,-5 0,-10 0,-15 -5,-4 -10,-7 -15,-11 -3,-3 -6,-5 -8,-8 0,-8 1,-15 1,-23 -3,-5 -6,-9 -9,-14 -1,1 -3,3 -4,4 -5,0 -10,0 -16,0 -2,-7 -5,-14 -8,-21 -1,-2 -2,-5 -3,-8 -2,-11 -4,-22 -6,-33 -8,-14 -15,-28 -22,-41 3,0 7,-1 10,-1 0,-4 0,-7 0,-10 -5,-1 -11,-1 -16,-2 -2,-8 -4,-17 -6,-25 -4,-2 -8,-3 -13,-5 0,-6 -1,-11 -1,-17 0,-1 0,-2 0,-3 -4,-15 -7,-30 -10,-45 -1,-14 -3,-27 -5,-41 -3,-6 -6,-12 -9,-17 -1,-6 -1,-12 -1,-18 -5,-9 -10,-19 -14,-29 -7,-8 -15,-16 -22,-24 -3,-6 -6,-13 -8,-20 -2,-2 -3,-5 -5,-8 -1,-6 -2,-11 -3,-17 -9,-10 -18,-21 -27,-32 -2,-3 -4,-6 -6,-9 11,-3 21,-5 32,-8 2,-2 4,-4 6,-7 -1,-1 -2,-2 -4,-4 -2,-1 -3,-3 -5,-5 -2,-2 -4,-4 -5,-7 -4,-1 -7,-1 -10,-2 -2,-1 -4,-1 -6,-2 -2,1 -4,1 -5,1 -2,1 -3,1 -5,1 -3,0 -5,0 -8,0 -1,1 -3,2 -5,3 0,-1 0,-2 -1,-3 -11,-9 -22,-17 -33,-26 -11,-16 -22,-33 -32,-49 -1,-2 -2,-3 -3,-5 -5,-12 -11,-24 -17,-36 -15,-30 -30,-61 -45,-91 -2,-9 -5,-18 -7,-27 -1,-4 -2,-7 -3,-11 2,0 3,0 4,-1 8,0 16,-1 23,-1 5,0 9,0 14,-1 4,1 8,2 11,3 2,3 4,5 6,8 0,3 0,5 0,8z"/>
   <path fill="#4B7F5B" d="M87 65c3,1 5,2 8,3 1,-1 3,-2 5,-3 3,-1 7,-1 11,-2 3,2 6,4 10,6 0,3 1,6 1,10 1,2 2,4 3,7 4,2 8,5 12,7 5,3 10,6 15,9 3,2 7,5 10,7 1,2 2,4 3,7 3,0 7,0 10,0 2,0 4,-1 7,-1 1,2 3,3 5,4 0,2 0,4 0,7 0,2 0,5 -1,8 0,3 0,7 0,10 0,4 0,9 0,13 1,3 2,5 3,8 1,1 1,2 1,2 4,5 7,9 11,13 3,4 6,7 10,11 3,4 6,7 8,11 3,4 6,8 9,11 3,2 6,3 8,4 5,1 10,2 14,2 6,2 12,5 18,7 5,3 11,6 17,9 7,6 14,11 20,17 3,2 6,5 8,7 1,1 2,1 2,2 4,2 7,5 10,8 7,1 15,1 22,2 5,-1 10,-1 15,-2 3,-1 5,-2 7,-3 4,2 7,4 11,5 2,4 4,8 6,11 3,3 6,6 9,9 3,1 7,3 11,4 3,2 6,4 10,6 4,4 9,7 14,11 3,3 5,6 8,9 2,1 5,2 7,3 2,0 4,0 7,0 3,1 6,2 8,3 1,2 2,4 3,6 1,4 2,8 3,11 -1,0 -1,0 -1,0 -3,2 -7,4 -10,5 -6,4 -11,8 -17,11 -4,3 -9,5 -13,7 -3,2 -6,4 -9,6 0,1 0,2 0,3 -1,2 -1,3 -1,5 1,2 3,4 4,6 5,2 9,4 14,6 6,3 12,5 19,7 4,4 7,7 11,10 8,5 15,10 22,14 3,4 5,7 7,11 0,2 -1,4 -1,6 -3,2 -6,4 -9,5 -2,1 -4,2 -6,3 -1,3 -3,7 -4,10 0,2 1,5 1,7 1,2 2,4 4,5 7,0 15,1 22,1 8,-1 15,-1 23,-1 3,-1 5,-2 8,-3 1,2 3,3 5,5 1,2 2,4 3,6 2,1 3,3 4,4 0,3 0,7 0,10 1,2 3,4 5,7 4,2 8,4 12,5 0,2 0,4 0,5 -3,1 -5,1 -7,2 -3,1 -6,2 -9,3 -2,1 -5,3 -8,4 -2,2 -5,3 -7,5 0,4 0,8 0,12 1,2 1,4 2,5 6,3 12,6 18,8 6,5 13,10 20,16 3,3 6,6 9,9 0,7 0,15 -1,22 -3,6 -6,11 -9,16 -1,11 -3,21 -4,32 0,8 -1,17 -1,25 0,3 1,6 1,10 1,4 3,8 4,13 0,2 0,4 1,6 0,2 1,4 2,6 5,1 10,3 15,5 9,1 19,2 28,4 8,-3 16,-6 23,-9 1,0 1,0 2,0 7,-1 14,-1 22,-2 5,3 11,5 17,7 2,4 3,9 5,13 0,4 0,9 0,13 -2,5 -3,10 -5,14 -3,7 -5,14 -8,20 2,3 4,5 6,8 0,4 0,9 -1,13 -3,4 -7,9 -10,13 -2,8 -4,16 -5,24 -1,8 -1,17 -2,26 1,7 1,14 2,22 1,2 3,3 5,5 6,0 13,-1 20,-1 4,3 8,6 12,9 3,3 6,6 10,9 0,4 1,8 1,12 -2,6 -4,12 -7,18 -3,3 -7,6 -10,8 -4,5 -8,11 -12,16 -2,6 -4,13 -7,19 0,3 -1,6 -2,9 0,3 0,5 0,7 -4,3 -9,7 -13,10 0,4 0,8 0,11 -1,5 -3,10 -5,15 0,1 -1,2 -1,3 -2,4 -3,7 -4,11 1,3 3,6 5,9 0,6 0,12 0,18 0,7 0,13 -1,20 -1,2 -3,4 -5,7 -1,1 -1,2 -2,3 -1,5 -1,9 -1,14 1,6 3,12 5,19 5,5 10,9 14,14 1,4 1,7 2,11 -4,4 -7,9 -11,13 -4,5 -8,10 -12,15 -7,9 -14,18 -20,27 -11,9 -22,18 -33,27 -8,-7 -16,-15 -24,-23 -12,-15 -25,-31 -37,-46 -7,-11 -13,-22 -20,-32 -8,-15 -16,-29 -24,-44 -9,-8 -19,-16 -28,-24 -5,-4 -9,-9 -14,-14 -3,-9 -6,-18 -10,-27 -1,-7 -3,-15 -5,-22 -1,-3 -2,-6 -3,-9 -1,-3 -2,-6 -3,-8 -5,-7 -11,-14 -16,-21 -5,-11 -10,-22 -15,-32 -2,-8 -4,-15 -6,-22 -2,-11 -4,-21 -6,-31 -6,-20 -13,-39 -19,-59 1,-3 2,-7 2,-10 5,-1 9,-2 13,-3 4,1 7,2 11,3 0,6 0,13 1,19 3,11 6,22 9,33 3,9 6,17 9,25 5,5 9,9 14,14 5,-4 10,-7 15,-11 3,0 7,-1 10,-2 0,-2 1,-5 1,-7 -6,-1 -12,-2 -17,-3 -3,-3 -6,-7 -8,-10 -2,-7 -4,-13 -7,-19 1,-9 1,-19 1,-28 0,-5 0,-10 0,-15 -5,-3 -10,-7 -15,-11 -3,-2 -6,-5 -8,-7 0,-8 1,-16 2,-24 -4,-5 -7,-9 -10,-14 -1,2 -2,3 -4,4 -5,0 -10,0 -15,0 -3,-7 -6,-14 -9,-20 0,-3 -1,-6 -2,-8 -3,-12 -5,-23 -7,-34 -7,-14 -15,-27 -22,-41 4,0 7,-1 11,-1 0,-3 0,-7 0,-10 -6,-1 -11,-1 -17,-2 -2,-8 -4,-16 -6,-25 -4,-1 -8,-3 -12,-5 -1,-6 -2,-11 -2,-17 0,-1 0,-2 0,-3 -3,-15 -6,-30 -9,-44 -2,-14 -4,-28 -6,-42 -3,-6 -6,-11 -9,-17 0,-6 -1,-12 -1,-18 -5,-9 -9,-19 -14,-29 -7,-7 -14,-15 -22,-23 -2,-7 -5,-14 -8,-21 -2,-2 -3,-5 -5,-8 -1,-5 -1,-11 -2,-17 -10,-10 -19,-21 -28,-32 -2,-3 -4,-6 -5,-9 10,-2 21,-5 31,-7 2,-3 4,-5 7,-7 -2,-2 -3,-3 -5,-5 -1,-1 -3,-3 -5,-5 -2,-2 -3,-4 -5,-7 -3,0 -7,-1 -10,-2 -2,0 -4,-1 -6,-2 -2,1 -3,1 -5,2 -2,0 -3,0 -5,0 -2,0 -5,0 -8,0 -1,1 -3,2 -4,4 -1,-2 -1,-3 -1,-4 -12,-8 -23,-17 -34,-25 -11,-17 -21,-33 -32,-50 -1,-1 -2,-3 -3,-4 -5,-12 -11,-25 -16,-37 -16,-30 -31,-61 -46,-91 -2,-9 -4,-18 -7,-27 -1,-3 -2,-7 -3,-11 2,0 3,0 4,-1 8,0 16,0 24,-1 4,0 9,0 13,0 4,1 8,2 12,2 2,3 4,5 5,8 0,3 0,5 0,8z"/>
   <path fill="#4F8460" d="M90 59c2,1 5,2 7,3 2,-1 3,-2 5,-3 4,-1 7,-1 11,-2 3,2 7,4 10,6 1,3 1,6 2,10 1,2 2,4 3,7 3,2 7,5 11,7 5,3 10,6 15,10 4,2 7,4 10,6 1,2 2,5 4,7 3,0 6,0 9,0 2,0 5,0 7,-1 2,2 3,3 5,4 0,3 0,5 1,7 -1,3 -1,6 -1,8 0,4 0,7 0,10 0,4 0,9 0,14 0,2 1,4 2,7 1,1 1,2 2,3 3,4 7,8 10,12 3,4 7,7 10,11 3,4 6,8 9,11 3,4 6,8 8,12 3,1 6,2 8,4 5,0 10,1 15,1 5,3 11,5 17,7 6,3 11,6 17,10 7,5 14,10 21,16 2,2 5,5 8,7 0,1 1,1 1,2 4,3 7,5 10,8 8,1 15,2 22,3 5,-1 10,-2 16,-3 2,-1 4,-2 6,-3 4,2 7,4 11,6 2,3 4,7 6,11 3,3 6,5 9,8 4,2 7,3 11,4 3,2 7,4 10,6 5,4 9,8 14,11 3,3 6,6 9,10 2,1 4,1 6,2 2,0 5,0 7,0 3,1 6,2 9,3 0,2 1,5 2,7 1,3 2,7 3,10 0,0 0,0 -1,0 -3,2 -7,4 -10,5 -5,4 -11,8 -16,11 -5,3 -10,5 -14,8 -3,1 -6,3 -8,5 -1,1 -1,2 -1,3 0,2 -1,4 -1,5 1,2 3,4 4,6 5,2 9,4 14,7 6,2 13,4 19,7 4,3 8,6 12,9 7,5 14,10 22,14 2,4 4,8 6,11 0,2 0,5 -1,7 -3,1 -6,3 -9,4 -2,1 -4,2 -6,3 -1,4 -2,7 -4,10 1,3 1,5 1,8 1,1 3,3 4,4 8,1 15,1 23,1 7,0 15,-1 22,-1 3,-1 5,-2 8,-2 2,1 3,3 5,4 1,2 2,4 4,6 1,1 2,3 4,5 -1,3 -1,6 -1,9 2,2 3,5 5,7 4,2 8,4 12,6 0,1 0,3 0,4 -2,1 -5,1 -7,2 -3,1 -6,2 -8,3 -3,1 -6,3 -9,4 -2,2 -5,4 -7,5 0,4 0,8 0,12 1,2 2,4 2,6 6,2 12,5 18,7 7,5 14,11 21,16 3,3 6,6 9,9 -1,8 -1,15 -2,22 -3,6 -6,11 -9,16 -1,11 -2,21 -3,32 -1,8 -2,17 -2,25 0,3 1,7 2,10 1,4 2,9 3,13 0,2 1,4 1,6 1,2 1,4 2,6 5,1 10,3 16,5 9,1 18,3 27,4 8,-3 16,-6 24,-9 0,0 0,0 1,0 7,-1 15,-1 22,-1 6,2 11,4 17,6 2,4 4,9 6,13 0,4 0,9 0,13 -2,5 -4,10 -6,15 -3,6 -5,13 -8,19 2,3 5,5 7,8 -1,4 -1,9 -2,13 -3,4 -7,9 -10,13 -2,8 -3,16 -5,24 -1,9 -1,17 -1,26 0,7 0,15 1,22 2,2 3,4 5,5 7,0 13,0 20,-1 4,3 8,6 12,9 4,3 7,6 10,9 0,4 1,8 2,12 -3,6 -5,12 -7,18 -4,3 -7,6 -11,8 -4,6 -8,11 -11,16 -3,6 -5,13 -8,19 0,3 -1,7 -1,10 0,2 -1,4 -1,6 -4,3 -8,7 -12,10 0,4 0,8 0,12 -2,5 -4,10 -6,15 0,0 -1,1 -1,2 -1,4 -3,7 -4,11 2,3 4,6 5,9 0,6 0,12 0,18 0,7 0,13 0,20 -2,2 -4,5 -6,7 0,1 -1,2 -2,3 0,5 -1,9 -1,14 2,6 3,13 5,19 5,5 10,10 15,14 0,4 0,7 1,11 -4,4 -7,9 -11,13 -4,5 -8,10 -12,15 -7,9 -13,18 -20,27 -11,9 -22,18 -33,27 -8,-7 -16,-15 -23,-23 -13,-15 -26,-30 -38,-46 -7,-11 -13,-21 -19,-32 -9,-15 -17,-29 -25,-44 -9,-8 -18,-16 -28,-24 -4,-4 -9,-9 -14,-14 -3,-9 -6,-18 -9,-27 -2,-7 -4,-15 -6,-22 -1,-3 -2,-6 -3,-9 -1,-3 -2,-5 -3,-8 -5,-7 -10,-14 -16,-21 -5,-11 -10,-21 -15,-32 -2,-7 -4,-15 -6,-22 -2,-10 -4,-21 -5,-31 -7,-20 -13,-39 -20,-59 1,-3 2,-7 3,-10 4,-1 8,-2 13,-2 3,0 6,1 10,2 0,6 1,13 1,20 3,11 6,22 9,33 3,8 6,16 9,24 5,5 10,9 15,14 4,-4 9,-7 14,-10 4,-1 7,-2 11,-3 0,-2 0,-4 0,-7 -6,-1 -11,-2 -17,-3 -3,-3 -5,-7 -8,-10 -2,-6 -4,-13 -6,-19 0,-9 0,-18 0,-28 0,-5 0,-10 0,-15 -5,-3 -10,-7 -15,-11 -3,-2 -5,-5 -8,-7 1,-8 1,-16 2,-24 -3,-4 -6,-9 -9,-13 -2,1 -3,2 -4,3 -6,0 -11,0 -16,0 -3,-7 -6,-13 -8,-20 -1,-3 -2,-6 -3,-8 -2,-12 -5,-23 -7,-34 -7,-14 -14,-27 -22,-41 4,0 7,0 11,-1 0,-3 0,-6 0,-10 -6,0 -11,-1 -17,-2 -1,-8 -3,-16 -5,-25 -5,-1 -9,-3 -13,-5 -1,-5 -1,-11 -2,-17 0,-1 0,-2 0,-3 -3,-14 -6,-29 -9,-44 -2,-14 -4,-28 -5,-42 -3,-6 -6,-11 -10,-17 0,-6 0,-12 -1,-17 -5,-10 -9,-20 -14,-29 -7,-8 -14,-16 -21,-24 -3,-7 -6,-14 -9,-20 -1,-3 -3,-6 -5,-9 0,-5 -1,-11 -2,-16 -9,-11 -19,-22 -28,-32 -2,-4 -3,-7 -5,-10 10,-2 21,-5 31,-7 2,-3 5,-5 7,-7 -2,-2 -3,-3 -4,-4 -2,-2 -4,-4 -6,-5 -1,-3 -3,-5 -5,-7 -3,-1 -6,-2 -10,-3 -2,0 -4,-1 -6,-1 -1,0 -3,0 -5,1 -1,0 -3,0 -4,0 -3,0 -6,0 -8,0 -2,1 -3,3 -5,4 0,-1 -1,-3 -1,-4 -11,-8 -22,-17 -33,-25 -11,-17 -22,-33 -33,-50 -1,-1 -1,-3 -2,-4 -6,-12 -11,-24 -17,-36 -15,-31 -30,-61 -45,-92 -3,-9 -5,-18 -7,-27 -1,-3 -2,-7 -3,-10 1,-1 2,-1 4,-1 8,-1 15,-1 23,-2 4,0 9,0 13,0 4,1 8,2 12,3 2,2 4,5 6,7 0,3 0,6 0,8z"/>
   <path fill="#548964" d="M92 54c2,1 5,2 7,2 2,-1 4,-2 5,-3 4,-1 8,-1 11,-2 4,2 7,4 10,6 1,3 1,7 2,10 1,2 2,5 3,7 4,2 8,5 11,7 5,4 11,7 16,10 3,2 6,4 9,6 2,2 3,5 4,7 3,0 6,0 9,0 3,0 5,0 7,0 2,1 4,2 5,4 1,2 1,4 1,6 0,3 -1,6 -1,9 0,3 0,6 0,9 0,5 0,9 0,14 1,2 2,5 3,7 0,1 0,2 1,3 3,4 7,8 10,12 4,4 7,8 10,11 3,4 6,8 9,12 3,3 6,7 9,11 2,1 5,2 8,4 4,0 9,1 14,2 6,2 11,4 17,6 6,3 12,7 18,10 6,5 13,11 20,16 3,2 5,5 8,7 1,1 1,2 2,2 3,3 6,5 10,8 7,1 14,2 21,3 5,-1 11,-2 16,-3 2,-1 4,-2 7,-3 3,2 7,4 10,6 2,3 4,7 6,11 3,3 6,6 9,9 4,1 8,2 11,3 4,2 7,4 10,6 5,4 10,8 14,11 3,3 6,7 9,10 2,1 4,2 6,3 3,-1 5,-1 7,-1 3,1 6,2 9,3 1,3 2,5 2,7 1,3 2,7 3,10 0,0 0,0 0,0 -4,2 -7,4 -11,6 -5,3 -11,7 -16,11 -5,2 -9,4 -14,7 -3,2 -5,3 -8,5 0,1 -1,2 -1,3 0,2 -1,4 -1,5 2,2 3,4 5,6 4,2 9,5 13,7 7,2 13,4 19,7 4,3 8,6 12,9 7,5 15,10 22,15 2,3 4,7 6,10 0,3 0,5 0,7 -3,1 -6,3 -9,5 -2,1 -4,2 -6,3 -2,3 -3,6 -4,9 0,3 0,5 0,8 2,1 3,3 4,5 8,0 15,0 23,0 8,0 15,-1 22,-1 3,-1 6,-2 8,-2 2,1 4,3 5,4 2,2 3,4 4,6 1,2 2,3 4,5 0,3 -1,6 -1,9 2,2 4,5 5,7 4,2 8,4 12,6 0,1 0,3 0,4 -2,1 -4,2 -7,2 -2,1 -5,2 -8,3 -3,1 -6,3 -9,4 -2,2 -4,4 -7,5 0,4 0,9 0,13 1,1 2,3 3,5 6,2 11,5 17,7 7,6 14,11 21,16 3,3 6,6 9,9 -1,8 -1,15 -1,23 -3,5 -7,10 -10,16 -1,10 -2,21 -3,31 -1,8 -1,17 -2,26 1,3 1,6 2,9 1,4 2,9 3,13 1,2 1,4 1,6 1,2 2,4 2,6 5,2 11,3 16,5 9,1 18,3 27,4 8,-3 16,-6 24,-9 0,0 1,0 1,0 8,0 15,-1 22,-1 6,2 12,4 17,6 2,5 4,9 6,13 0,5 0,9 0,13 -2,5 -4,10 -6,15 -2,6 -5,13 -8,19 3,3 5,6 7,8 0,5 -1,9 -1,13 -4,5 -7,9 -11,13 -1,8 -3,16 -5,24 0,9 -1,18 -1,26 0,8 1,15 1,22 2,2 4,4 5,5 7,0 13,0 20,-1 4,3 9,6 13,9 3,3 6,6 9,9 1,4 1,8 2,13 -2,6 -5,12 -7,18 -4,2 -7,5 -11,8 -3,5 -7,10 -11,15 -2,7 -5,13 -7,19 -1,4 -1,7 -2,10 0,2 0,4 -1,6 -4,4 -8,7 -12,11 0,3 0,7 0,11 -2,5 -4,10 -5,15 -1,1 -1,2 -2,3 -1,3 -2,7 -4,10 2,3 4,6 6,9 0,6 0,12 0,18 -1,7 -1,14 -1,20 -2,3 -4,5 -5,7 -1,1 -2,2 -3,4 0,4 0,9 -1,13 2,6 4,13 5,19 5,5 10,10 15,15 0,3 1,7 1,10 -3,5 -7,9 -10,13 -4,5 -8,10 -13,15 -6,9 -13,18 -20,27 -11,9 -22,18 -32,28 -8,-8 -16,-16 -24,-24 -13,-15 -25,-30 -38,-46 -6,-10 -13,-21 -19,-32 -8,-15 -16,-29 -24,-44 -10,-8 -19,-15 -28,-23 -5,-5 -10,-10 -14,-14 -4,-10 -7,-19 -10,-28 -2,-7 -4,-14 -5,-22 -1,-3 -2,-6 -3,-9 -1,-2 -2,-5 -3,-8 -6,-7 -11,-14 -16,-21 -6,-11 -11,-21 -16,-32 -2,-7 -3,-15 -5,-22 -2,-10 -4,-21 -6,-31 -7,-19 -13,-39 -19,-59 0,-3 1,-7 2,-10 4,-1 9,-2 13,-2 3,0 7,1 10,2 1,7 1,13 1,20 3,11 6,22 10,33 2,8 5,16 8,24 5,5 10,9 15,14 5,-3 10,-7 14,-10 4,-1 7,-2 11,-3 0,-2 0,-4 0,-7 -5,0 -11,-1 -17,-2 -3,-4 -5,-7 -8,-11 -2,-6 -4,-12 -6,-19 0,-9 0,-18 1,-27 0,-5 0,-10 0,-15 -5,-4 -11,-8 -16,-12 -2,-2 -5,-5 -8,-7 1,-8 2,-16 2,-24 -3,-4 -6,-9 -9,-13 -1,1 -3,2 -4,3 -5,0 -11,0 -16,0 -3,-6 -5,-13 -8,-20 -1,-3 -2,-5 -3,-8 -2,-11 -4,-23 -6,-34 -8,-13 -15,-27 -22,-40 3,-1 7,-1 10,-2 0,-3 0,-6 0,-10 -5,0 -11,-1 -16,-1 -2,-9 -4,-17 -6,-25 -4,-2 -8,-4 -13,-6 0,-5 -1,-11 -2,-16 0,-1 0,-2 0,-3 -3,-15 -6,-30 -9,-45 -2,-14 -3,-28 -5,-42 -3,-5 -6,-11 -9,-17 -1,-6 -1,-11 -2,-17 -4,-10 -9,-20 -13,-29 -8,-8 -15,-16 -22,-24 -3,-7 -6,-13 -9,-20 -1,-3 -3,-6 -4,-8 -1,-6 -2,-12 -3,-17 -9,-11 -18,-22 -28,-32 -1,-3 -3,-6 -5,-10 11,-2 21,-4 32,-7 2,-2 4,-5 6,-7 -1,-1 -3,-3 -4,-4 -2,-2 -4,-4 -5,-5 -2,-3 -4,-5 -6,-7 -3,-1 -6,-2 -9,-3 -2,0 -4,-1 -6,-1 -2,0 -4,0 -5,1 -2,0 -4,0 -5,0 -3,0 -5,0 -8,0 -2,2 -3,3 -5,4 0,-1 -1,-2 -1,-4 -11,-8 -22,-17 -33,-25 -11,-17 -22,-33 -33,-49 0,-2 -1,-4 -2,-5 -6,-12 -11,-24 -17,-36 -15,-31 -30,-61 -45,-92 -2,-9 -5,-18 -7,-27 -1,-3 -2,-7 -3,-10 1,-1 3,-1 4,-1 8,-1 16,-1 23,-1 5,-1 9,-1 14,-1 4,1 7,2 11,3 2,2 4,5 6,7 0,3 0,6 0,9z"/>
   <path fill="#588E69" d="M94 48c3,1 5,2 7,3 2,-1 4,-3 6,-4 3,0 7,-1 11,-2 3,2 6,4 10,6 0,3 1,7 1,10 1,2 2,5 3,7 4,3 8,5 12,8 5,3 10,6 15,9 3,2 6,4 10,6 1,3 2,5 3,7 3,0 6,0 10,0 2,0 4,0 6,0 2,1 4,2 6,4 0,2 0,4 0,6 0,3 -1,6 -1,9 0,3 0,6 0,9 0,5 0,9 0,14 1,2 2,5 3,7 0,1 1,2 1,3 4,4 7,8 11,13 3,3 6,7 9,10 3,4 6,8 9,12 3,3 6,7 9,11 3,1 5,3 8,4 5,1 9,1 14,2 6,2 12,4 17,7 6,3 12,6 18,9 7,5 13,11 20,16 3,3 6,5 8,8 1,0 1,1 2,1 3,3 7,5 10,8 7,1 14,2 21,3 6,-1 11,-2 16,-3 2,-1 5,-2 7,-3 3,2 7,4 11,6 1,4 3,7 5,11 3,3 6,6 10,9 3,1 7,2 11,3 3,2 6,4 9,7 5,3 10,7 14,11 3,3 6,6 9,9 2,1 4,2 6,3 3,0 5,-1 8,-1 2,1 5,3 8,4 1,2 2,4 3,6 1,4 1,7 2,11 0,0 0,0 0,0 -4,1 -7,3 -10,5 -6,3 -11,7 -17,11 -4,2 -9,4 -14,7 -2,2 -5,4 -8,6 0,1 0,2 -1,2 0,2 0,4 -1,6 2,2 3,4 5,5 4,3 9,5 13,7 7,2 13,5 20,7 3,3 7,6 11,10 7,4 15,9 22,14 2,3 4,7 7,11 -1,2 -1,4 -1,6 -3,2 -6,3 -9,5 -2,1 -4,2 -6,3 -1,3 -3,6 -4,9 0,3 0,5 1,8 1,2 2,3 4,5 7,0 15,0 22,0 8,0 15,0 23,-1 2,-1 5,-1 7,-2 2,1 4,3 6,5 1,1 2,3 3,5 1,2 3,3 4,5 0,3 0,6 0,9 1,2 3,5 5,7 4,2 8,4 11,6 0,2 0,3 0,5 -2,0 -4,1 -6,1 -3,1 -6,2 -9,3 -3,2 -6,3 -8,4 -3,2 -5,4 -7,6 0,4 0,8 0,12 0,1 1,3 2,5 6,2 12,5 17,8 7,5 14,10 21,15 3,3 6,6 9,10 0,7 -1,14 -1,22 -3,5 -6,10 -9,16 -2,10 -3,21 -4,31 -1,9 -1,17 -2,26 1,3 1,6 2,9 1,5 2,9 4,13 0,2 0,4 1,6 0,2 1,4 1,6 6,2 11,4 16,5 9,2 18,3 27,4 8,-3 16,-5 24,-8 1,-1 1,-1 1,-1 8,0 15,-1 23,-1 5,2 11,4 16,6 2,5 4,9 6,14 0,4 0,8 0,12 -2,5 -4,10 -6,15 -2,7 -5,13 -7,20 2,2 4,5 6,7 0,5 -1,9 -1,14 -4,4 -7,8 -10,12 -2,8 -4,16 -6,24 0,9 0,18 -1,26 1,8 1,15 1,22 2,2 4,4 6,6 6,-1 13,-1 19,-1 5,2 9,5 13,8 3,3 6,6 9,9 1,4 2,9 2,13 -2,6 -5,12 -7,18 -3,2 -7,5 -10,8 -4,5 -8,10 -12,15 -2,7 -5,13 -7,20 -1,3 -1,6 -2,9 0,2 0,4 0,6 -4,4 -9,7 -13,11 0,3 0,7 0,11 -2,5 -3,10 -5,15 -1,1 -1,2 -2,3 -1,3 -2,7 -4,10 2,3 4,6 6,10 0,6 0,12 0,18 0,6 -1,13 -1,19 -2,3 -3,5 -5,7 -1,1 -2,3 -2,4 -1,4 -1,9 -2,13 2,7 4,13 6,19 4,5 9,10 14,15 1,3 1,7 1,10 -3,5 -7,9 -10,14 -4,4 -8,9 -12,14 -7,9 -14,18 -21,27 -10,10 -21,19 -32,28 -8,-8 -16,-16 -24,-23 -12,-16 -25,-31 -38,-46 -6,-11 -12,-22 -19,-33 -8,-14 -16,-29 -24,-43 -10,-8 -19,-16 -28,-24 -5,-5 -9,-10 -14,-14 -3,-9 -7,-18 -10,-28 -2,-7 -3,-14 -5,-22 -1,-3 -2,-5 -3,-8 -1,-3 -2,-6 -3,-9 -5,-7 -11,-14 -16,-21 -5,-11 -10,-21 -15,-32 -2,-7 -4,-15 -6,-22 -2,-10 -4,-20 -6,-31 -6,-19 -13,-39 -19,-58 1,-4 1,-7 2,-11 4,-1 9,-1 13,-2 4,1 7,1 10,2 1,7 1,13 2,20 3,11 6,22 9,33 3,8 6,16 9,24 4,5 9,10 14,14 5,-3 10,-7 15,-10 3,-1 7,-2 10,-2 0,-3 0,-5 1,-7 -6,-1 -12,-2 -18,-3 -2,-4 -5,-7 -7,-11 -2,-6 -5,-12 -7,-18 0,-10 1,-19 1,-28 0,-5 0,-10 0,-15 -5,-4 -10,-8 -15,-11 -3,-3 -6,-5 -8,-8 0,-8 1,-16 1,-24 -3,-4 -6,-9 -9,-13 -1,1 -3,2 -4,3 -5,0 -10,0 -16,0 -2,-6 -5,-13 -8,-20 -1,-3 -2,-5 -3,-8 -2,-11 -4,-23 -6,-34 -7,-13 -15,-27 -22,-40 3,-1 7,-1 10,-1 0,-4 0,-7 0,-10 -5,-1 -11,-2 -16,-2 -2,-9 -4,-17 -6,-25 -4,-2 -8,-4 -12,-5 -1,-6 -2,-12 -2,-17 0,-1 0,-2 0,-3 -3,-15 -7,-30 -10,-45 -1,-14 -3,-28 -5,-42 -3,-5 -6,-11 -9,-17 0,-5 -1,-11 -1,-17 -5,-10 -10,-19 -14,-29 -7,-8 -15,-16 -22,-24 -3,-7 -5,-13 -8,-20 -2,-3 -3,-6 -5,-8 -1,-6 -2,-11 -2,-17 -10,-11 -19,-21 -28,-32 -2,-3 -4,-6 -6,-9 11,-3 21,-5 32,-8 2,-2 4,-5 6,-7 -1,-1 -2,-3 -4,-4 -1,-2 -3,-3 -5,-5 -2,-2 -4,-5 -5,-7 -4,-1 -7,-2 -10,-2 -2,-1 -4,-2 -6,-2 -2,0 -3,1 -5,1 -2,0 -3,0 -5,1 -3,0 -5,0 -8,0 -1,1 -3,2 -5,3 0,-1 0,-2 -1,-3 -11,-9 -22,-17 -33,-26 -11,-16 -22,-33 -32,-49 -1,-2 -2,-3 -3,-5 -5,-12 -11,-24 -17,-36 -15,-31 -30,-61 -45,-92 -2,-9 -5,-17 -7,-26 -1,-4 -2,-7 -3,-11 2,0 3,-1 4,-1 8,-1 16,-1 24,-1 4,0 9,-1 13,-1 4,1 8,2 12,3 1,3 3,5 5,7 0,3 0,6 0,9z"/>
   <path fill="#5C936D" d="M97 42c2,1 4,2 7,3 1,-1 3,-2 5,-4 4,0 7,-1 11,-1 3,2 6,3 10,5 0,4 1,7 2,10 0,3 1,5 2,7 4,3 8,5 12,8 5,3 10,6 15,9 3,2 7,4 10,6 1,3 2,5 3,8 4,0 7,0 10,0 2,-1 4,-1 7,-1 1,1 3,3 5,4 0,2 0,4 0,6 0,3 0,6 -1,9 0,3 0,6 0,9 0,5 0,10 0,14 1,3 2,5 3,7 1,1 1,2 1,3 4,4 7,9 11,13 3,3 6,7 10,10 3,4 6,8 9,12 2,4 5,7 8,11 3,1 6,3 8,4 5,1 10,1 14,2 6,2 12,4 18,7 5,3 11,6 17,9 7,5 14,11 20,16 3,3 6,5 9,8 0,0 1,1 1,2 4,2 7,5 10,7 7,1 15,2 22,3 5,-1 10,-2 15,-3 3,-1 5,-2 7,-3 4,2 7,4 11,6 2,4 4,7 6,11 3,3 6,6 9,9 4,1 7,2 11,3 3,2 6,5 10,7 4,3 9,7 14,11 3,3 6,6 8,9 3,1 5,2 7,3 2,0 5,0 7,-1 3,2 6,3 9,4 0,2 1,4 2,6 1,4 2,7 3,11 0,0 -1,0 -1,0 -3,1 -7,3 -10,5 -6,4 -11,7 -17,11 -4,2 -9,5 -13,7 -3,2 -6,4 -9,6 0,1 0,2 0,3 -1,1 -1,3 -1,5 1,2 3,4 4,6 5,2 9,4 14,6 6,2 12,5 19,7 4,3 8,7 11,10 8,5 15,9 22,14 3,4 5,7 7,11 0,2 -1,4 -1,6 -3,2 -6,3 -9,5 -2,1 -4,2 -6,3 -1,3 -3,6 -4,10 0,2 1,5 1,7 1,2 3,3 4,5 7,0 15,0 23,1 7,-1 15,-1 22,-2 3,0 5,-1 8,-2 1,2 3,3 5,5 1,2 2,4 3,5 2,2 3,4 4,5 0,3 0,6 0,9 2,3 3,5 5,7 4,2 8,4 12,6 0,2 0,3 0,5 -3,0 -5,1 -7,2 -3,0 -6,1 -8,2 -3,2 -6,3 -9,5 -2,1 -5,3 -7,5 0,4 0,8 0,12 1,2 1,3 2,5 6,3 12,5 18,8 7,5 14,10 21,15 2,3 5,7 8,10 0,7 0,15 -1,22 -3,5 -6,11 -9,16 -1,10 -3,21 -4,31 0,9 -1,17 -1,26 0,3 1,6 1,9 1,5 3,9 4,14 0,2 1,4 1,6 1,1 1,3 2,5 5,2 10,4 15,5 10,2 19,3 28,5 8,-3 16,-6 24,-9 0,0 0,-1 1,-1 7,0 14,-1 22,-1 5,2 11,4 17,6 2,5 4,9 5,14 0,4 0,8 0,13 -1,4 -3,9 -5,14 -3,7 -5,13 -8,20 2,2 4,5 7,7 -1,5 -1,9 -2,14 -3,4 -7,8 -10,13 -2,8 -4,15 -5,23 -1,9 -1,18 -2,27 1,7 1,14 2,21 1,2 3,4 5,6 6,-1 13,-1 20,-1 4,3 8,5 12,8 3,3 7,7 10,10 0,4 1,8 1,12 -2,6 -4,12 -7,18 -3,3 -7,5 -10,8 -4,5 -8,10 -12,16 -2,6 -4,12 -7,19 0,3 -1,6 -1,9 -1,2 -1,4 -1,7 -4,3 -8,6 -13,10 0,4 0,7 0,11 -1,5 -3,10 -5,15 0,1 -1,2 -1,3 -2,3 -3,7 -4,10 2,4 3,7 5,10 0,6 0,12 0,18 0,6 0,13 0,20 -2,2 -4,4 -6,6 -1,2 -1,3 -2,4 -1,4 -1,9 -1,13 1,7 3,13 5,19 5,5 10,10 14,15 1,3 1,7 2,10 -4,5 -7,9 -11,14 -4,5 -8,9 -12,14 -7,9 -14,18 -20,28 -11,9 -22,18 -33,27 -8,-8 -16,-15 -24,-23 -12,-16 -25,-31 -37,-46 -7,-11 -13,-22 -20,-33 -8,-14 -16,-29 -24,-43 -9,-8 -19,-16 -28,-24 -4,-5 -9,-9 -14,-14 -3,-9 -6,-18 -10,-27 -1,-8 -3,-15 -5,-22 -1,-3 -2,-6 -3,-9 -1,-3 -2,-6 -3,-9 -5,-7 -11,-14 -16,-21 -5,-10 -10,-21 -15,-32 -2,-7 -4,-14 -6,-22 -2,-10 -4,-20 -6,-30 -6,-20 -12,-40 -19,-59 1,-4 2,-7 2,-11 5,0 9,-1 13,-2 4,1 7,2 11,2 0,7 0,14 1,20 3,11 6,22 9,33 3,8 6,16 9,25 5,4 10,9 14,13 5,-3 10,-6 15,-10 3,-1 7,-1 10,-2 0,-3 1,-5 1,-7 -6,-1 -12,-2 -17,-3 -3,-4 -6,-7 -8,-11 -2,-6 -4,-12 -6,-18 0,-10 0,-19 0,-28 0,-5 0,-10 0,-15 -5,-4 -10,-8 -15,-11 -3,-3 -5,-5 -8,-8 0,-8 1,-16 2,-24 -3,-4 -7,-8 -10,-13 -1,1 -2,3 -4,4 -5,0 -10,0 -15,0 -3,-7 -6,-14 -8,-21 -1,-2 -2,-5 -3,-8 -3,-11 -5,-22 -7,-34 -7,-13 -14,-27 -22,-40 4,-1 7,-1 11,-1 0,-4 0,-7 0,-10 -6,-1 -11,-1 -17,-2 -2,-8 -4,-17 -6,-25 -4,-2 -8,-3 -12,-5 -1,-6 -1,-11 -2,-17 0,-1 0,-2 0,-3 -3,-15 -6,-30 -9,-45 -2,-14 -4,-28 -6,-41 -3,-6 -6,-12 -9,-17 0,-6 -1,-12 -1,-18 -5,-10 -9,-19 -14,-29 -7,-8 -14,-16 -21,-24 -3,-6 -6,-13 -9,-20 -2,-3 -3,-5 -5,-8 -1,-6 -1,-11 -2,-17 -9,-11 -19,-21 -28,-32 -2,-3 -4,-6 -5,-9 10,-3 21,-5 31,-8 2,-2 4,-4 7,-7 -2,-1 -3,-2 -4,-4 -2,-2 -4,-3 -6,-5 -2,-2 -3,-5 -5,-7 -3,-1 -7,-1 -10,-2 -2,-1 -4,-1 -6,-2 -1,0 -3,1 -5,1 -1,0 -3,1 -5,1 -2,0 -5,0 -8,0 -1,1 -3,2 -4,3 -1,-1 -1,-2 -1,-3 -11,-9 -23,-17 -34,-26 -10,-16 -21,-33 -32,-49 -1,-2 -2,-3 -2,-5 -6,-12 -12,-24 -17,-36 -15,-30 -31,-61 -46,-92 -2,-8 -4,-17 -7,-26 -1,-4 -1,-7 -2,-11 1,0 2,-1 4,-1 7,0 15,-1 23,-1 4,0 9,0 13,-1 4,1 8,2 12,3 2,3 4,5 6,8 0,2 0,5 0,8z"/>
   <path fill="#609872" d="M99 36c2,1 5,2 7,3 2,-1 3,-2 5,-3 4,-1 7,-2 11,-2 3,2 7,4 10,6 1,3 1,6 2,9 1,3 2,5 3,7 4,3 7,5 11,8 5,3 10,6 15,9 4,2 7,4 10,7 1,2 2,4 4,7 3,0 6,0 9,0 2,-1 5,-1 7,-1 2,1 3,3 5,4 0,2 1,4 1,6 -1,3 -1,6 -1,9 0,3 0,6 0,10 0,4 0,9 0,13 1,3 2,5 2,7 1,1 1,2 2,3 3,5 7,9 10,13 3,4 7,7 10,11 3,3 6,7 9,11 3,4 6,8 8,11 3,2 6,3 9,4 4,1 9,1 14,2 5,2 11,5 17,7 6,3 12,6 17,9 7,6 14,11 21,16 2,3 5,6 8,8 0,1 1,1 2,2 3,2 6,5 9,7 8,1 15,2 22,3 5,-1 10,-2 16,-3 2,-1 4,-2 6,-2 4,1 8,3 11,5 2,4 4,8 6,11 3,3 6,6 9,9 4,1 7,2 11,4 3,2 7,4 10,6 5,4 9,7 14,11 3,3 6,6 9,9 2,1 4,2 6,3 2,0 5,0 7,0 3,1 6,2 9,3 1,2 1,4 2,6 1,4 2,7 3,11 0,0 0,0 -1,0 -3,2 -7,3 -10,5 -5,4 -11,7 -16,11 -5,2 -10,5 -14,7 -3,2 -6,4 -8,6 -1,1 -1,2 -1,3 0,2 -1,3 -1,5 1,2 3,4 4,6 5,2 9,4 14,6 6,3 13,5 19,7 4,3 8,7 12,10 7,5 14,9 22,14 2,4 4,7 6,11 0,2 0,4 0,6 -4,2 -7,4 -10,5 -2,1 -4,2 -5,3 -2,3 -3,7 -5,10 1,2 1,5 1,7 1,2 3,4 4,5 8,0 15,1 23,1 7,-1 15,-1 22,-1 3,-1 5,-2 8,-3 2,2 3,3 5,5 1,2 2,4 4,6 1,1 2,3 4,4 -1,3 -1,6 -1,9 2,3 4,5 5,8 4,1 8,3 12,5 0,2 0,3 0,5 -2,1 -5,1 -7,2 -3,1 -5,2 -8,3 -3,1 -6,2 -9,4 -2,2 -4,3 -7,5 0,4 0,8 0,12 1,2 2,4 3,5 5,3 11,5 17,8 7,5 14,10 21,16 3,3 6,6 9,9 -1,7 -1,15 -2,22 -3,5 -6,11 -9,16 -1,11 -2,21 -3,31 -1,9 -2,18 -2,26 0,3 1,6 2,9 1,5 2,9 3,14 0,2 1,4 1,6 1,2 1,4 2,5 5,2 10,4 16,6 9,1 18,2 27,4 8,-3 16,-6 24,-9 0,0 1,0 1,-1 7,0 15,0 22,-1 6,2 11,5 17,7 2,4 4,8 6,13 0,4 0,8 0,13 -2,5 -4,9 -6,14 -3,7 -5,13 -8,20 2,3 5,5 7,8 -1,4 -1,8 -2,13 -3,4 -6,8 -10,13 -2,8 -3,16 -5,24 -1,8 -1,17 -1,26 0,7 0,14 1,22 2,1 3,3 5,5 7,0 13,-1 20,-1 4,3 8,6 13,8 3,4 6,7 9,10 1,4 1,8 2,12 -3,6 -5,12 -7,18 -4,3 -7,5 -11,8 -4,5 -7,11 -11,16 -3,6 -5,13 -7,19 -1,3 -2,6 -2,9 0,2 -1,5 -1,7 -4,3 -8,7 -12,10 0,4 0,8 0,11 -2,5 -4,10 -6,15 0,1 -1,2 -1,3 -1,4 -3,7 -4,11 2,3 4,6 5,9 0,6 0,12 0,18 0,7 0,13 0,20 -2,2 -4,4 -6,7 0,1 -1,2 -2,3 0,5 -1,9 -1,14 2,6 3,12 5,19 5,4 10,9 15,14 0,4 1,7 1,11 -4,4 -7,9 -10,13 -5,5 -9,10 -13,14 -7,10 -13,19 -20,28 -11,9 -22,18 -33,27 -8,-8 -15,-15 -23,-23 -13,-15 -26,-31 -38,-46 -6,-11 -13,-22 -19,-32 -8,-15 -17,-30 -25,-44 -9,-8 -18,-16 -28,-24 -4,-5 -9,-9 -14,-14 -3,-9 -6,-18 -9,-27 -2,-8 -4,-15 -6,-22 -1,-3 -1,-6 -2,-9 -1,-3 -2,-6 -4,-9 -5,-7 -10,-14 -16,-21 -5,-10 -10,-21 -15,-31 -2,-8 -4,-15 -6,-23 -2,-10 -3,-20 -5,-30 -7,-20 -13,-39 -20,-59 1,-4 2,-7 3,-10 4,-1 8,-2 13,-3 3,1 7,2 10,3 0,6 1,13 1,19 3,11 6,22 9,33 3,9 6,17 9,25 5,4 10,9 15,14 4,-4 9,-7 14,-11 4,-1 7,-1 11,-2 0,-2 0,-5 0,-7 -6,-1 -11,-2 -17,-3 -3,-3 -5,-7 -8,-10 -2,-7 -4,-13 -6,-19 0,-9 0,-19 0,-28 0,-5 0,-10 0,-15 -5,-4 -10,-7 -15,-11 -2,-3 -5,-5 -8,-8 1,-7 1,-15 2,-23 -3,-5 -6,-9 -9,-14 -2,2 -3,3 -4,4 -6,0 -11,0 -16,0 -3,-7 -6,-14 -8,-21 -1,-2 -2,-5 -3,-8 -2,-11 -4,-22 -7,-33 -7,-14 -14,-27 -22,-41 4,0 7,-1 11,-1 0,-3 0,-7 0,-10 -6,-1 -11,-1 -16,-2 -2,-8 -4,-16 -6,-25 -4,-2 -9,-3 -13,-5 -1,-6 -1,-11 -2,-17 0,-1 0,-2 0,-3 -3,-15 -6,-30 -9,-45 -2,-13 -4,-27 -5,-41 -3,-6 -6,-12 -9,-17 -1,-6 -1,-12 -2,-18 -4,-9 -9,-19 -14,-29 -7,-8 -14,-16 -21,-24 -3,-6 -6,-13 -9,-20 -1,-2 -3,-5 -4,-8 -1,-6 -2,-11 -3,-17 -9,-10 -19,-21 -28,-32 -2,-3 -3,-6 -5,-9 10,-2 21,-5 31,-7 2,-3 5,-5 7,-8 -1,-1 -3,-2 -4,-4 -2,-1 -4,-3 -6,-5 -1,-2 -3,-4 -5,-7 -3,0 -6,-1 -10,-2 -2,-1 -4,-1 -6,-2 -1,1 -3,1 -5,1 -1,1 -3,1 -4,1 -3,0 -6,0 -8,0 -2,1 -3,2 -5,3 0,-1 -1,-2 -1,-3 -11,-9 -22,-17 -33,-26 -11,-16 -22,-32 -33,-49 -1,-1 -1,-3 -2,-5 -6,-12 -11,-24 -17,-36 -15,-30 -30,-61 -45,-91 -3,-9 -5,-18 -7,-27 -1,-4 -2,-7 -3,-11 1,0 2,0 4,-1 8,0 15,-1 23,-1 5,0 9,0 14,-1 3,1 7,2 11,3 2,3 4,5 6,8 0,3 0,5 0,8z"/>
   <path fill="#659D76" d="M101 30c2,1 5,2 7,3 2,-1 4,-2 5,-3 4,-1 8,-1 11,-2 4,2 7,4 10,6 1,3 1,6 2,10 1,2 2,4 3,7 4,2 8,5 11,7 6,3 11,6 16,9 3,2 6,5 9,7 2,2 3,4 4,7 3,0 6,0 9,0 3,0 5,-1 7,-1 2,2 4,3 5,4 1,2 1,4 1,7 0,2 -1,5 -1,8 0,3 0,7 0,10 0,4 0,9 0,14 1,2 2,4 3,7 0,1 1,2 1,3 3,4 7,8 10,12 4,4 7,7 10,11 3,4 6,7 9,11 3,4 6,8 9,11 2,2 5,3 8,4 4,1 9,2 14,2 6,3 11,5 17,7 6,3 12,6 18,9 6,6 13,11 20,17 3,2 5,5 8,7 1,1 1,1 2,2 3,2 6,5 10,8 7,1 14,2 21,2 5,0 11,-1 16,-2 2,-1 4,-2 7,-3 3,2 7,4 10,5 2,4 4,8 6,11 3,3 6,6 9,9 4,1 8,3 11,4 4,2 7,4 10,6 5,4 10,7 14,11 3,3 6,6 9,9 2,1 4,2 6,3 3,0 5,0 7,0 3,1 6,2 9,3 1,2 2,4 2,7 1,3 2,7 3,10 0,0 0,0 0,0 -4,2 -7,4 -11,5 -5,4 -11,8 -16,11 -5,3 -9,5 -14,7 -3,2 -5,4 -8,6 0,1 -1,2 -1,3 0,2 0,3 -1,5 2,2 3,4 5,6 4,2 9,4 13,6 7,3 13,5 19,7 4,4 8,7 12,10 7,5 15,10 22,14 2,4 4,8 6,11 0,2 0,4 0,7 -3,1 -6,3 -9,4 -2,1 -4,2 -6,3 -2,3 -3,7 -4,10 0,2 0,5 0,7 2,2 3,4 4,5 8,0 16,1 23,1 8,0 15,-1 23,-1 2,-1 5,-2 7,-3 2,2 4,3 5,5 2,2 3,4 4,6 1,1 3,3 4,4 0,3 0,7 -1,10 2,2 4,4 6,7 3,2 7,4 11,5 0,2 0,4 0,5 -2,1 -4,1 -7,2 -2,1 -5,2 -8,3 -3,1 -6,3 -9,4 -2,2 -4,3 -7,5 0,4 0,8 0,12 1,2 2,4 3,5 6,3 11,6 17,8 7,5 14,11 21,16 3,3 6,6 9,9 -1,7 -1,15 -1,22 -3,6 -7,11 -10,16 -1,11 -2,21 -3,32 -1,8 -1,17 -2,25 1,3 1,6 2,10 1,4 2,8 3,13 1,2 1,4 1,6 1,2 2,4 2,6 5,1 11,3 16,5 9,1 18,3 27,4 8,-3 16,-6 24,-9 0,0 1,0 1,0 8,-1 15,-1 22,-2 6,3 12,5 17,7 2,4 4,9 6,13 0,4 0,9 0,13 -2,5 -4,10 -6,15 -2,6 -5,13 -7,19 2,3 4,5 6,8 0,4 -1,9 -1,13 -4,4 -7,9 -11,13 -1,8 -3,16 -5,24 0,8 -1,17 -1,26 0,7 1,14 1,22 2,2 4,3 5,5 7,0 14,-1 20,-1 4,3 9,6 13,9 3,3 6,6 9,9 1,4 1,8 2,12 -2,6 -5,12 -7,18 -4,3 -7,6 -11,8 -3,6 -7,11 -11,16 -2,6 -5,13 -7,19 -1,3 -1,6 -2,10 0,2 0,4 0,6 -5,3 -9,7 -13,10 0,4 0,8 0,11 -2,5 -4,10 -5,15 -1,1 -1,2 -2,3 -1,4 -2,7 -4,11 2,3 4,6 6,9 0,6 0,12 0,18 -1,7 -1,13 -1,20 -2,2 -4,5 -5,7 -1,1 -2,2 -3,3 0,5 0,9 -1,14 2,6 4,12 5,19 5,5 10,9 15,14 0,4 1,7 1,11 -3,4 -7,9 -10,13 -4,5 -8,10 -12,15 -7,9 -14,18 -21,27 -11,9 -21,18 -32,27 -8,-7 -16,-15 -24,-23 -13,-15 -25,-31 -38,-46 -6,-11 -13,-21 -19,-32 -8,-15 -16,-29 -24,-44 -10,-8 -19,-16 -28,-24 -5,-4 -10,-9 -14,-14 -4,-9 -7,-18 -10,-27 -2,-7 -4,-15 -5,-22 -1,-3 -2,-6 -3,-9 -1,-3 -2,-6 -3,-8 -6,-7 -11,-14 -16,-21 -5,-11 -11,-22 -16,-32 -2,-8 -3,-15 -5,-22 -2,-11 -4,-21 -6,-31 -7,-20 -13,-39 -19,-59 0,-3 1,-7 2,-10 4,-1 9,-2 13,-3 3,1 7,2 10,3 1,6 1,13 1,19 3,12 7,23 10,34 3,8 5,16 8,24 5,5 10,9 15,14 5,-4 10,-7 14,-11 4,0 7,-1 11,-2 0,-2 0,-5 0,-7 -5,-1 -11,-2 -17,-3 -2,-3 -5,-7 -8,-10 -2,-6 -4,-13 -6,-19 0,-9 0,-18 1,-28 0,-5 0,-10 0,-15 -5,-3 -10,-7 -16,-11 -2,-2 -5,-5 -8,-7 1,-8 2,-16 2,-24 -3,-5 -6,-9 -9,-13 -1,1 -3,2 -4,3 -5,0 -11,0 -16,0 -3,-7 -5,-14 -8,-20 -1,-3 -2,-6 -3,-8 -2,-12 -4,-23 -6,-34 -8,-14 -15,-27 -22,-41 3,0 7,-1 10,-1 0,-3 0,-7 0,-10 -5,-1 -11,-1 -16,-2 -2,-8 -4,-16 -6,-25 -4,-1 -8,-3 -13,-5 0,-6 -1,-11 -2,-17 0,-1 0,-2 0,-3 -3,-15 -6,-30 -9,-44 -2,-14 -3,-28 -5,-42 -3,-6 -6,-11 -9,-17 -1,-6 -1,-12 -2,-18 -4,-9 -9,-19 -13,-29 -8,-7 -15,-15 -22,-23 -3,-7 -6,-14 -9,-21 -1,-2 -3,-5 -4,-8 -1,-5 -2,-11 -3,-16 -9,-11 -18,-22 -28,-33 -1,-3 -3,-6 -5,-9 11,-2 21,-5 32,-7 2,-3 4,-5 6,-7 -1,-2 -3,-3 -4,-4 -2,-2 -3,-4 -5,-6 -2,-2 -4,-4 -5,-7 -4,0 -7,-1 -10,-2 -2,0 -4,-1 -6,-2 -2,1 -4,1 -5,2 -2,0 -3,0 -5,0 -3,0 -5,0 -8,0 -2,1 -3,2 -5,4 0,-2 0,-3 -1,-4 -11,-8 -22,-17 -33,-25 -11,-17 -22,-33 -33,-50 0,-1 -1,-3 -2,-4 -6,-12 -11,-25 -17,-37 -15,-30 -30,-61 -45,-91 -2,-9 -5,-18 -7,-27 -1,-3 -2,-7 -3,-10 1,-1 3,-1 4,-2 8,0 16,0 23,-1 5,0 9,0 14,0 4,1 7,2 11,3 2,2 4,5 6,7 0,3 0,6 0,8z"/>
   <path fill="#69A27B" d="M103 24c3,1 5,2 7,3 2,-1 4,-2 6,-3 3,-1 7,-1 11,-2 3,2 6,4 10,6 0,3 1,6 1,10 1,2 2,4 3,7 4,2 8,5 12,7 5,3 10,6 15,10 3,2 6,4 10,6 1,2 2,5 3,7 3,0 6,0 10,0 2,0 4,0 7,-1 1,2 3,3 5,4 0,3 0,5 0,7 0,3 0,6 -1,8 0,4 0,7 0,10 0,4 0,9 0,14 1,2 2,4 3,7 0,1 1,2 1,3 4,4 7,8 11,12 3,4 6,7 10,11 2,4 5,8 8,11 3,4 6,8 9,12 3,1 5,2 8,4 5,0 9,1 14,1 6,3 12,5 17,7 6,3 12,6 18,10 7,5 13,10 20,16 3,2 6,5 8,7 1,1 1,2 2,2 3,3 7,5 10,8 7,1 14,2 22,3 5,-1 10,-2 15,-3 2,-1 5,-2 7,-3 4,2 7,4 11,6 2,3 3,7 5,11 3,3 7,5 10,8 3,2 7,3 11,4 3,2 6,4 10,6 4,4 9,8 14,11 2,3 5,6 8,10 2,1 4,2 7,2 2,0 4,0 7,0 3,1 5,2 8,3 1,2 2,5 3,7 1,3 2,7 2,10 0,0 0,0 0,0 -4,2 -7,4 -10,5 -6,4 -11,8 -17,11 -4,3 -9,5 -14,8 -2,1 -5,3 -8,5 0,1 0,2 0,3 -1,2 -1,4 -2,5 2,2 3,4 5,6 4,2 9,4 13,7 7,2 13,4 20,7 4,3 7,6 11,9 8,5 15,10 22,14 2,4 5,8 7,11 -1,2 -1,5 -1,7 -3,1 -6,3 -9,5 -2,0 -4,1 -6,2 -1,4 -3,7 -4,10 0,3 0,5 1,8 1,1 2,3 4,4 7,1 15,1 22,1 8,0 15,-1 23,-1 2,-1 5,-2 7,-2 2,1 4,3 6,4 1,2 2,4 3,6 1,2 3,3 4,5 0,3 0,6 0,9 1,2 3,5 5,7 4,2 8,4 11,6 0,1 0,3 0,4 -2,1 -4,1 -6,2 -3,1 -6,2 -9,3 -3,1 -5,3 -8,4 -3,2 -5,4 -7,5 0,4 0,8 0,12 1,2 1,4 2,6 6,2 12,5 17,7 7,5 14,11 21,16 3,3 6,6 9,9 0,8 -1,15 -1,22 -3,6 -6,11 -9,17 -2,10 -3,20 -4,31 0,8 -1,17 -2,25 1,4 2,7 2,10 1,4 2,9 4,13 0,2 0,4 1,6 0,2 1,4 1,6 6,2 11,3 16,5 9,1 18,3 27,4 8,-3 16,-6 24,-9 1,0 1,0 1,0 8,-1 15,-1 23,-1 5,2 11,4 16,6 2,4 4,9 6,13 0,5 0,9 0,13 -2,5 -4,10 -6,15 -2,6 -5,13 -7,19 2,3 4,5 6,8 0,4 -1,9 -1,13 -3,5 -7,9 -10,13 -2,8 -4,16 -6,24 0,9 0,17 -1,26 1,7 1,15 1,22 2,2 4,4 6,5 6,0 13,0 19,-1 5,3 9,6 13,9 3,3 6,6 9,9 1,4 2,8 2,12 -2,6 -5,12 -7,18 -3,3 -7,6 -10,8 -4,6 -8,11 -12,16 -2,6 -5,13 -7,19 0,3 -1,7 -2,10 0,2 0,4 0,6 -4,3 -9,7 -13,10 0,4 0,8 0,12 -2,5 -3,10 -5,15 -1,1 -1,1 -1,2 -2,4 -3,7 -4,11 1,3 3,6 5,9 0,6 0,12 0,18 0,7 0,13 -1,20 -1,2 -3,5 -5,7 -1,1 -2,2 -2,3 -1,5 -1,9 -2,14 2,6 4,13 6,19 5,5 9,10 14,15 1,3 1,6 1,10 -3,4 -6,9 -10,13 -4,5 -8,10 -12,15 -7,9 -14,18 -21,27 -10,9 -21,18 -32,28 -8,-8 -16,-16 -24,-24 -12,-15 -25,-30 -38,-46 -6,-10 -12,-21 -19,-32 -8,-15 -16,-29 -24,-44 -9,-8 -19,-16 -28,-24 -5,-4 -9,-9 -14,-14 -3,-9 -7,-18 -10,-27 -2,-7 -3,-15 -5,-22 -1,-3 -2,-6 -3,-9 -1,-3 -2,-5 -3,-8 -5,-7 -11,-14 -16,-21 -5,-11 -10,-21 -15,-32 -2,-7 -4,-15 -6,-22 -2,-10 -4,-21 -6,-31 -6,-20 -13,-39 -19,-59 1,-3 1,-7 2,-10 5,-1 9,-2 13,-2 4,0 7,1 10,2 1,6 1,13 2,20 3,11 6,22 9,33 3,8 6,16 9,24 5,5 9,9 14,14 5,-4 10,-7 15,-10 3,-1 7,-2 10,-3 0,-2 0,-4 1,-7 -6,-1 -12,-2 -18,-3 -2,-3 -5,-7 -7,-10 -2,-6 -5,-13 -7,-19 1,-9 1,-18 1,-28 0,-5 0,-10 0,-15 -5,-3 -10,-7 -15,-11 -3,-2 -6,-5 -8,-7 0,-8 1,-16 1,-24 -3,-4 -6,-9 -9,-13 -1,1 -2,2 -4,3 -5,0 -10,0 -16,0 -2,-7 -5,-13 -8,-20 -1,-3 -2,-6 -3,-8 -2,-12 -4,-23 -6,-34 -7,-14 -15,-27 -22,-41 3,0 7,0 10,-1 0,-3 0,-6 0,-10 -5,0 -11,-1 -16,-1 -2,-9 -4,-17 -6,-25 -4,-2 -8,-4 -12,-6 -1,-5 -2,-11 -2,-17 0,-1 0,-2 0,-2 -3,-15 -6,-30 -10,-45 -1,-14 -3,-28 -5,-42 -3,-6 -6,-11 -9,-17 0,-6 -1,-11 -1,-17 -5,-10 -10,-20 -14,-29 -7,-8 -14,-16 -22,-24 -3,-7 -5,-14 -8,-20 -2,-3 -3,-6 -5,-9 -1,-5 -2,-11 -2,-16 -10,-11 -19,-22 -28,-32 -2,-3 -4,-7 -5,-10 10,-2 20,-5 31,-7 2,-2 4,-5 6,-7 -1,-2 -2,-3 -4,-4 -1,-2 -3,-4 -5,-5 -2,-3 -3,-5 -5,-7 -3,-1 -7,-2 -10,-3 -2,0 -4,-1 -6,-1 -2,0 -3,0 -5,1 -2,0 -3,0 -5,0 -2,0 -5,0 -8,0 -1,1 -3,3 -4,4 -1,-1 -1,-3 -2,-4 -11,-8 -22,-17 -33,-25 -11,-17 -21,-33 -32,-50 -1,-1 -2,-3 -3,-4 -5,-12 -11,-24 -17,-36 -15,-31 -30,-61 -45,-92 -2,-9 -4,-18 -7,-27 -1,-3 -2,-7 -3,-10 2,-1 3,-1 4,-1 8,-1 16,-1 24,-2 4,0 9,0 13,0 4,1 8,2 12,3 2,2 3,5 5,7 0,3 0,6 0,8z"/>
  </g>
  <polygon fill="#6DA77F" points="106,19 113,22 118,18 129,16 139,22 141,32 143,39 155,47 170,56 180,62 183,69 193,69 200,69 205,73 206,79 204,88 204,97 204,111 207,118 208,121 219,134 229,144 238,156 246,167 254,171 268,173 286,179 303,189 323,205 332,213 333,214 343,222 365,225 380,222 387,219 398,225 404,236 413,245 424,248 434,254 448,265 456,275 463,278 470,277 479,281 481,287 484,297 483,297 473,303 456,314 443,321 434,326 434,329 433,335 437,340 451,347 470,354 481,364 504,378 510,389 509,395 500,400 494,403 490,412 491,420 495,425 518,425 540,424 548,422 553,426 556,432 560,437 560,446 565,453 577,459 577,463 570,465 562,468 553,472 546,477 546,490 548,495 566,502 587,518 595,527 594,550 585,566 581,597 580,623 581,632 585,645 586,651 588,657 603,662 631,666 655,658 656,657 678,656 695,662 700,675 700,688 695,703 687,722 694,730 692,743 682,756 677,780 676,806 677,828 682,834 702,832 714,841 724,850 726,863 718,881 708,889 696,904 689,923 688,933 687,939 674,950 674,961 669,976 668,979 664,989 669,998 669,1016 669,1036 663,1043 661,1047 660,1060 665,1079 680,1094 681,1104 670,1118 658,1132 638,1159 605,1187 581,1163 544,1118 524,1085 500,1041 472,1018 458,1004 448,976 443,954 440,946 437,937 421,916 406,884 400,862 394,831 375,772 378,762 390,760 401,762 402,782 411,815 420,839 434,853 449,843 459,840 460,834 443,831 435,820 429,801 429,774 429,759 414,747 406,740 408,716 398,703 394,706 379,706 371,686 368,678 361,644 339,604 350,602 350,592 333,591 328,566 315,560 313,544 313,541 304,496 299,454 289,437 288,420 274,391 253,367 244,347 239,339 237,322 209,290 204,281 235,273 242,266 238,262 232,257 227,250 217,247 211,246 206,247 202,247 193,247 189,251 188,247 154,222 122,173 120,168 103,132 57,40 50,13 48,3 52,2 75,1 88,0 100,3 106,10 "/>
 </g>
</svg>
