<?xml version="1.0" encoding="UTF-8"?>
<!DOCTYPE svg PUBLIC "-//W3C//DTD SVG 1.1//EN" "http://www.w3.org/Graphics/SVG/1.1/DTD/svg11.dtd">
<!-- Creator: CorelDRAW X8 -->
<svg xmlns="http://www.w3.org/2000/svg" xml:space="preserve" width="100%" height="100%" version="1.1" shape-rendering="geometricPrecision" text-rendering="geometricPrecision" image-rendering="optimizeQuality" fill-rule="evenodd" clip-rule="evenodd"
viewBox="0 0 1600 1201"
 xmlns:xlink="http://www.w3.org/1999/xlink">
 <g id="Layer_x0020_1">
  <metadata id="CorelCorpID_0Corel-Layer"/>
  <g id="_348018329056">
   <g id="_579141171760">
    <g id="Layers">
     <g id="Bihar">
      <polygon fill="#143D21" points="628,403 638,406 665,389 694,381 713,391 752,435 768,457 813,458 824,458 852,447 898,458 923,449 974,457 1055,496 1081,516 1083,516 1137,507 1163,474 1188,468 1196,492 1212,522 1212,522 1275,515 1346,511 1395,510 1396,509 1416,500 1450,505 1490,529 1507,528 1533,472 1563,474 1585,501 1593,506 1590,546 1571,570 1533,604 1503,617 1477,658 1478,666 1480,686 1489,713 1489,713 1502,734 1548,769 1551,783 1555,821 1513,811 1502,807 1479,821 1464,854 1464,889 1466,896 1448,889 1433,883 1416,871 1396,861 1394,862 1388,865 1384,873 1375,889 1368,899 1356,903 1345,903 1335,906 1328,911 1321,922 1318,933 1311,947 1300,957 1287,964 1276,971 1272,974 1261,995 1253,1019 1249,1043 1243,1062 1241,1080 1239,1100 1235,1109 1227,1111 1215,1107 1209,1099 1200,1098 1196,1103 1193,1113 1190,1125 1183,1133 1175,1140 1166,1136 1155,1126 1138,1112 1126,1114 1110,1117 1094,1119 1089,1120 1072,1126 1060,1135 1054,1148 1051,1166 1038,1173 1027,1177 1014,1175 999,1171 987,1164 980,1156 981,1147 981,1134 981,1124 976,1116 965,1112 951,1115 948,1123 940,1126 932,1125 931,1110 927,1091 921,1073 917,1068 906,1067 899,1064 892,1058 890,1060 885,1062 881,1068 866,1070 855,1072 847,1067 837,1053 824,1049 805,1049 790,1057 777,1070 769,1088 755,1108 735,1122 715,1126 693,1128 677,1133 662,1143 659,1144 643,1150 622,1154 614,1160 605,1173 596,1184 590,1187 581,1186 570,1180 554,1183 547,1186 540,1192 529,1195 520,1192 512,1179 502,1162 489,1144 473,1144 461,1150 453,1158 442,1168 429,1175 413,1180 398,1190 386,1201 368,1201 355,1195 343,1185 329,1174 321,1153 317,1147 313,1141 297,1130 276,1131 265,1138 253,1138 249,1129 241,1119 227,1105 225,1105 216,1108 206,1120 188,1132 160,1146 130,1151 120,1151 101,1151 75,1146 51,1134 45,1097 30,1067 0,1036 0,996 1,951 7,921 22,906 39,896 66,888 106,864 136,861 137,861 177,812 203,795 237,763 257,750 267,747 329,747 346,747 365,751 379,747 402,744 402,734 402,722 347,701 325,692 323,675 323,673 300,665 268,661 243,646 226,628 225,603 236,588 262,566 263,562 266,551 252,534 215,524 196,516 195,502 226,483 267,459 335,458 343,451 347,448 294,417 296,387 273,384 241,364 228,336 212,326 204,295 209,288 202,258 189,254 166,250 156,230 147,201 201,162 239,176 276,194 358,215 396,229 405,251 410,295 439,314 459,320 510,337 520,362 532,373 562,376 605,396 "/>
     </g>
    </g>
   </g>
  </g>
  <g id="_348018329984">
   <g>
    <path fill="#184225" d="M628 395c3,1 7,2 10,4 9,-6 18,-12 27,-18 10,-2 20,-5 30,-8 6,4 12,7 18,10 13,15 26,29 39,44 5,8 11,15 16,23 15,0 30,0 46,0 3,0 7,0 11,0 9,-3 18,-7 27,-11 15,4 31,8 46,11 8,-3 17,-5 25,-8 17,2 34,5 51,8 27,12 54,25 82,38 8,7 17,14 25,20 1,0 2,0 3,0 17,-3 35,-6 53,-8 9,-11 18,-23 27,-34 8,-2 16,-4 24,-5 3,7 5,15 8,23 5,10 11,20 16,30 0,0 0,0 1,0 21,-2 42,-4 63,-7 23,-1 47,-3 70,-4 17,0 33,-1 49,-1 1,0 1,0 2,0 6,-3 13,-6 20,-9 11,1 22,3 34,4 13,8 26,16 40,24 5,0 11,-1 16,-1 9,-18 17,-37 26,-55 10,0 20,1 31,2 7,9 14,17 22,26 2,2 5,3 8,5 -1,13 -2,27 -3,40 -7,8 -13,16 -19,25 -13,11 -26,22 -39,33 -10,5 -20,9 -30,13 -8,14 -17,28 -25,41 0,3 0,5 1,8 0,7 1,13 2,20 2,9 5,18 8,27 0,0 1,1 1,1 4,6 8,13 13,20 15,12 30,24 46,36 1,4 1,8 2,13 2,13 3,26 4,39 -14,-4 -28,-7 -42,-11 -3,-1 -7,-2 -10,-3 -8,4 -16,9 -24,13 -5,11 -9,22 -14,34 0,11 0,23 -1,35 1,2 2,4 2,6 -6,-2 -12,-4 -18,-6 -5,-3 -10,-5 -15,-7 -6,-4 -11,-8 -17,-12 -6,-3 -13,-6 -19,-10 -1,1 -2,1 -3,2 -2,1 -4,1 -5,2 -2,3 -3,5 -5,8 -3,5 -6,11 -9,16 -2,4 -4,7 -6,11 -5,1 -9,2 -13,3 -3,0 -7,0 -11,0 -3,1 -6,2 -9,3 -3,2 -5,3 -7,5 -3,4 -5,8 -8,12 -1,3 -2,7 -3,10 -2,5 -5,9 -7,14 -4,3 -7,7 -11,10 -4,3 -8,5 -13,7 -3,3 -7,5 -10,7 -2,1 -3,2 -4,3 -4,7 -8,14 -12,21 -3,8 -5,16 -8,24 -1,8 -2,16 -3,24 -2,7 -4,13 -6,20 -1,5 -2,11 -3,17 0,7 -1,13 -1,20 -2,3 -3,6 -4,9 -3,1 -6,2 -9,2 -3,-1 -7,-2 -11,-3 -2,-3 -5,-6 -7,-9 -3,0 -6,0 -9,0 -1,1 -2,3 -3,4 -1,3 -3,7 -4,10 -1,4 -2,8 -3,12 -2,3 -4,5 -6,8 -3,2 -6,5 -9,7 -3,-1 -6,-3 -9,-4 -4,-3 -7,-6 -11,-9 -5,-5 -11,-10 -17,-15 -4,1 -8,1 -12,2 -5,1 -10,2 -15,3 -6,1 -11,1 -17,2 -2,0 -3,1 -5,1 -5,2 -11,4 -17,7 -4,3 -7,5 -11,8 -2,5 -4,9 -7,13 -1,7 -2,13 -3,19 -4,2 -8,4 -12,6 -4,1 -8,3 -12,4 -4,-1 -8,-1 -12,-2 -5,-1 -10,-3 -15,-4 -4,-2 -8,-5 -12,-7 -3,-2 -5,-5 -8,-7 1,-4 1,-7 2,-10 0,-4 0,-8 0,-12 0,-4 0,-7 0,-11 -2,-2 -4,-5 -6,-8 -4,-1 -7,-2 -11,-4 -4,1 -9,2 -13,3 -1,3 -3,5 -4,8 -3,1 -5,2 -8,4 -2,-1 -5,-1 -8,-2 0,-5 -1,-10 -1,-15 -1,-6 -2,-12 -4,-19 -1,-5 -3,-11 -5,-17 -2,-2 -3,-4 -5,-5 -3,-1 -7,-1 -10,-1 -3,-2 -5,-3 -7,-4 -3,-2 -5,-4 -7,-6 -1,1 -2,2 -3,2 -1,1 -3,2 -4,3 -2,2 -3,4 -5,6 -5,0 -9,1 -14,2 -4,0 -8,1 -12,1 -2,-2 -5,-3 -7,-5 -4,-4 -8,-9 -11,-13 -4,-2 -8,-4 -12,-5 -7,0 -13,0 -20,0 -5,3 -10,5 -15,8 -4,4 -8,9 -12,13 -3,6 -6,12 -8,18 -5,7 -10,13 -14,20 -7,5 -14,9 -20,14 -7,1 -14,3 -21,4 -7,1 -14,2 -22,3 -5,1 -10,3 -15,4 -5,3 -11,7 -16,10 -1,0 -2,1 -3,1 -5,2 -11,4 -16,6 -7,2 -13,3 -20,4 -3,3 -6,5 -9,7 -3,4 -6,8 -9,12 -3,4 -6,8 -9,11 -2,2 -4,3 -6,4 -3,-1 -6,-1 -9,-1 -4,-2 -7,-4 -11,-6 -5,0 -11,1 -16,2 -2,1 -4,2 -7,3 -2,2 -4,4 -7,6 -3,1 -7,3 -10,4 -3,-1 -7,-3 -10,-4 -3,-4 -5,-9 -8,-13 -3,-6 -7,-11 -10,-17 -4,-6 -9,-12 -13,-18 -5,0 -10,0 -15,0 -4,2 -8,4 -12,6 -3,3 -6,6 -9,8 -4,4 -7,7 -11,11 -4,2 -9,4 -13,6 -5,2 -10,4 -15,6 -5,3 -11,6 -16,10 -4,3 -8,7 -12,10 -6,0 -12,0 -18,0 -4,-2 -8,-3 -12,-5 -4,-4 -9,-7 -13,-11 -4,-4 -9,-7 -14,-11 -2,-7 -5,-14 -8,-20 -1,-2 -2,-5 -4,-7 -1,-2 -2,-4 -3,-6 -6,-4 -11,-7 -17,-10 -7,0 -14,0 -21,1 -4,2 -7,4 -11,6 -4,0 -7,0 -11,0 -2,-3 -4,-6 -5,-9 -3,-3 -5,-7 -8,-10 -4,-5 -9,-9 -13,-14 -1,0 -2,1 -2,1 -3,1 -6,1 -10,2 -3,4 -6,8 -10,12 -6,4 -12,9 -18,13 -9,4 -19,9 -28,13 -10,2 -20,4 -30,5 -3,0 -7,0 -10,0 -6,0 -13,0 -19,0 -9,-1 -17,-3 -26,-5 -8,-3 -15,-7 -23,-11 -2,-13 -4,-25 -6,-38 -5,-10 -11,-20 -16,-30 -10,-10 -20,-21 -30,-31 1,-13 1,-27 1,-40 0,-15 0,-30 1,-44 2,-11 4,-21 5,-31 6,-5 11,-10 16,-15 5,-3 11,-6 17,-10 8,-2 17,-5 26,-7 13,-8 27,-16 41,-24 10,-2 20,-3 30,-4 0,0 0,0 0,0 14,-16 27,-32 40,-49 9,-6 18,-11 27,-17 11,-11 22,-21 34,-32 6,-4 13,-8 20,-13 3,-1 6,-2 10,-3 20,0 41,0 62,0 5,0 11,0 17,0 6,2 12,3 18,4 5,-1 10,-2 15,-3 7,-1 15,-3 22,-4 0,-3 0,-6 1,-9 0,-5 0,-9 0,-13 -19,-7 -37,-14 -55,-21 -8,-3 -15,-6 -22,-8 -1,-6 -2,-12 -3,-18 0,0 0,-1 0,-1 -7,-3 -15,-6 -23,-9 -10,-1 -21,-3 -32,-4 -8,-5 -17,-10 -25,-15 -6,-6 -11,-12 -17,-18 0,-8 -1,-16 -1,-25 4,-5 8,-10 11,-14 9,-8 18,-15 27,-23 0,-1 0,-3 1,-4 1,-3 1,-7 2,-10 -4,-6 -9,-12 -13,-17 -13,-4 -25,-7 -38,-11 -6,-3 -13,-5 -19,-8 0,-5 0,-9 0,-14 10,-6 20,-12 30,-18 14,-8 27,-16 41,-25 23,0 46,-1 68,-1 3,-2 6,-5 9,-7 1,-1 2,-2 4,-3 -18,-10 -36,-20 -53,-31 0,-10 1,-20 1,-30 -8,-1 -15,-2 -23,-2 -11,-7 -21,-14 -32,-21 -4,-9 -8,-19 -13,-28 -5,-3 -11,-7 -16,-10 -2,-10 -5,-21 -7,-31 1,-2 3,-4 4,-6 -2,-11 -5,-21 -7,-31 -4,-1 -8,-2 -13,-3 -7,-2 -15,-3 -23,-5 -3,-6 -7,-13 -10,-20 -3,-9 -6,-19 -9,-28 18,-13 37,-26 55,-40 12,5 25,10 37,14 13,6 25,12 37,19 28,6 55,13 82,20 13,5 25,9 38,14 3,8 6,15 9,23 2,14 4,29 6,44 9,6 19,12 28,18 7,2 13,4 20,6 17,6 35,11 52,17 3,8 6,17 10,25 3,4 7,7 11,11 10,1 20,2 30,3 15,7 29,13 43,20 8,2 15,5 23,7z"/>
   </g>
   <g>
    <path fill="#1C472A" d="M628 387c4,1 7,3 11,4 9,-6 17,-12 26,-17 10,-3 20,-6 30,-9 6,4 12,7 19,11 12,14 25,29 38,43 6,8 11,15 17,23 15,0 30,0 45,1 4,0 7,0 11,0 9,-4 18,-8 28,-12 15,4 30,8 45,12 9,-3 17,-6 26,-9 17,3 34,5 51,8 27,13 54,26 81,38 9,7 17,14 26,21 0,0 1,-1 2,-1 18,-3 35,-5 53,-8 9,-11 18,-22 27,-34 8,-1 16,-3 24,-5 3,8 6,15 8,23 6,10 11,20 16,30 1,0 1,0 1,0 21,-2 42,-4 63,-6 24,-2 47,-3 71,-5 16,0 32,0 48,0 1,-1 2,-1 2,-1 7,-3 13,-6 20,-9 11,1 23,3 34,4 13,8 27,16 40,24 6,0 11,0 16,-1 9,-18 18,-37 26,-55 11,1 21,1 31,2 7,9 15,18 22,26 3,2 5,4 8,5 -1,14 -2,27 -3,40 -6,8 -13,17 -19,25 -13,11 -26,22 -39,34 -10,4 -20,8 -30,13 -8,13 -17,27 -25,41 0,2 1,5 1,7 1,7 1,14 2,21 3,9 6,18 9,27 0,0 0,0 0,0 4,7 9,13 13,20 15,12 31,24 46,36 1,4 2,9 3,13 1,13 2,26 4,39 -14,-4 -28,-7 -43,-10 -3,-2 -7,-3 -10,-4 -8,4 -16,9 -24,13 -4,12 -9,23 -14,34 0,12 0,23 0,35 0,2 1,4 2,6 -6,-2 -13,-4 -19,-6 -5,-2 -10,-5 -15,-7 -5,-4 -11,-8 -17,-11 -6,-4 -12,-7 -19,-11 -1,1 -2,1 -3,2 -1,1 -3,2 -5,3 -2,2 -3,5 -5,7 -3,5 -5,11 -8,16 -3,4 -5,7 -7,11 -4,1 -8,2 -12,3 -4,0 -8,0 -11,0 -4,1 -7,3 -10,4 -2,1 -5,3 -7,4 -3,4 -5,8 -7,12 -1,4 -3,7 -4,11 -2,4 -4,9 -7,13 -3,4 -7,7 -11,10 -4,3 -8,5 -12,8 -4,2 -7,4 -11,7 -1,1 -3,1 -4,2 -4,7 -8,14 -12,21 -2,8 -5,16 -8,24 -1,8 -2,16 -3,24 -2,7 -4,13 -6,20 -1,6 -2,11 -2,17 -1,7 -1,14 -2,20 -1,3 -3,6 -4,9 -3,1 -6,2 -8,3 -4,-2 -8,-3 -12,-4 -2,-3 -4,-6 -7,-9 -2,0 -5,0 -8,0 -1,1 -3,3 -4,4 -1,4 -2,7 -3,10 -1,4 -2,8 -3,12 -3,3 -5,6 -7,8 -3,3 -6,5 -9,7 -3,-1 -6,-2 -9,-4 -3,-3 -7,-6 -10,-9 -6,-5 -12,-10 -17,-14 -4,0 -8,1 -12,1 -6,1 -11,2 -16,3 -6,1 -11,1 -17,2 -1,0 -3,1 -4,1 -6,2 -12,5 -17,7 -4,3 -8,6 -12,9 -2,4 -4,8 -6,13 -1,6 -3,12 -4,18 -4,2 -8,4 -12,6 -4,1 -8,3 -12,4 -4,0 -8,-1 -12,-1 -5,-2 -10,-3 -15,-5 -4,-2 -8,-4 -12,-7 -2,-2 -5,-5 -7,-7 0,-3 1,-7 1,-10 0,-4 0,-8 0,-12 0,-3 0,-7 0,-10 -2,-3 -4,-6 -6,-9 -3,-1 -7,-2 -11,-3 -4,1 -8,2 -13,3 -1,2 -2,5 -3,7 -3,1 -6,3 -9,4 -2,-1 -5,-1 -7,-2 -1,-5 -1,-10 -2,-15 -1,-6 -2,-12 -3,-18 -2,-6 -4,-12 -6,-18 -1,-2 -3,-3 -4,-5 -4,0 -8,-1 -11,-1 -2,-1 -5,-2 -7,-4 -2,-1 -5,-3 -7,-5 -1,0 -2,1 -2,1 -2,1 -3,2 -5,3 -2,2 -3,4 -5,6 -4,1 -9,1 -14,2 -4,0 -8,1 -11,1 -3,-1 -5,-3 -8,-5 -4,-4 -7,-9 -11,-13 -4,-2 -8,-3 -12,-5 -6,0 -13,0 -19,1 -5,2 -10,5 -15,7 -4,5 -9,9 -13,13 -3,6 -5,12 -8,18 -5,7 -9,14 -14,21 -7,4 -13,9 -20,13 -7,2 -14,3 -20,4 -8,1 -15,2 -22,3 -5,1 -11,3 -16,4 -5,4 -10,7 -15,10 -1,1 -3,1 -4,2 -5,2 -10,4 -15,6 -7,1 -14,2 -21,4 -3,2 -6,4 -9,6 -3,4 -6,8 -9,12 -3,4 -5,8 -8,12 -2,1 -4,2 -6,3 -3,0 -7,-1 -10,-1 -3,-2 -7,-4 -11,-6 -5,1 -10,1 -16,2 -2,1 -4,2 -6,3 -3,2 -5,4 -7,6 -4,2 -7,3 -11,4 -3,-1 -6,-2 -10,-4 -2,-4 -5,-8 -8,-13 -3,-5 -6,-11 -10,-16 -4,-7 -8,-13 -13,-19 -5,0 -10,0 -15,0 -4,2 -8,4 -12,7 -3,2 -6,5 -9,7 -3,4 -7,7 -10,11 -5,2 -9,4 -14,7 -5,1 -10,3 -15,5 -5,3 -10,7 -16,10 -4,4 -7,7 -11,11 -6,0 -12,0 -19,0 -4,-2 -8,-4 -12,-6 -4,-4 -8,-7 -13,-11 -4,-3 -9,-7 -13,-11 -3,-7 -6,-13 -8,-20 -2,-2 -3,-4 -5,-6 -1,-3 -2,-5 -3,-7 -5,-3 -11,-7 -16,-10 -7,0 -15,1 -22,1 -3,2 -7,4 -10,7 -4,0 -8,0 -12,0 -2,-4 -3,-7 -5,-10 -2,-3 -5,-6 -7,-10 -5,-4 -9,-9 -14,-13 -1,0 -1,0 -2,0 -3,1 -6,2 -9,3 -4,4 -7,8 -10,12 -6,4 -12,8 -18,12 -10,5 -19,9 -29,14 -10,1 -20,3 -30,5 -3,0 -6,0 -9,0 -7,0 -13,0 -20,0 -8,-2 -17,-4 -25,-5 -8,-4 -16,-8 -24,-12 -2,-13 -4,-25 -6,-38 -5,-10 -10,-20 -15,-30 -10,-10 -20,-20 -30,-31 0,-13 0,-26 0,-40 0,-15 1,-29 1,-44 2,-10 4,-20 6,-31 5,-4 10,-9 15,-14 6,-4 11,-7 17,-11 9,-2 17,-5 26,-7 14,-8 27,-16 41,-24 10,-1 20,-2 30,-4 0,0 0,0 0,0 14,-16 27,-32 41,-48 9,-6 17,-12 26,-18 11,-10 23,-21 34,-32 7,-4 13,-8 20,-12 3,-1 7,-2 10,-3 21,0 42,0 62,0 6,0 11,0 17,0 6,1 13,2 19,3 5,-1 9,-2 14,-3 7,-1 15,-2 22,-4 1,-3 1,-6 1,-9 0,-4 0,-9 0,-13 -18,-7 -37,-14 -55,-21 -7,-3 -15,-5 -22,-8 -1,-6 -2,-11 -2,-17 0,-1 0,-2 0,-2 -8,-3 -16,-6 -23,-9 -11,-1 -22,-2 -32,-3 -9,-6 -17,-11 -26,-16 -5,-6 -11,-12 -16,-17 -1,-9 -1,-17 -2,-25 4,-5 8,-10 12,-15 8,-8 17,-15 26,-23 0,-1 1,-2 1,-4 1,-3 2,-7 3,-10 -5,-6 -9,-11 -14,-17 -13,-4 -25,-7 -38,-11 -6,-2 -12,-5 -19,-8 0,-4 0,-9 0,-14 10,-6 20,-12 31,-18 13,-8 27,-16 40,-24 23,-1 46,-1 69,-2 3,-2 5,-4 8,-6 1,-1 3,-3 4,-4 -18,-10 -35,-20 -53,-31 1,-10 1,-20 2,-30 -8,0 -16,-1 -24,-2 -10,-7 -21,-14 -31,-20 -5,-10 -9,-19 -14,-29 -5,-3 -10,-6 -16,-10 -2,-10 -5,-20 -7,-31 1,-2 3,-4 4,-6 -2,-10 -4,-20 -6,-31 -5,-1 -9,-2 -13,-3 -8,-2 -16,-3 -23,-4 -4,-7 -7,-14 -11,-21 -3,-9 -6,-18 -8,-28 18,-13 36,-26 54,-39 13,4 25,9 38,14 12,6 24,12 37,18 27,7 54,13 81,20 13,5 26,10 38,14 3,8 6,15 9,23 2,15 4,29 6,44 10,6 19,12 29,18 6,2 13,4 19,6 18,6 35,12 52,17 3,9 7,17 10,26 4,3 8,7 12,10 10,1 20,2 30,3 14,7 28,13 43,20 7,2 15,5 22,7z"/>
   </g>
   <g>
    <path fill="#214C2E" d="M629 379c3,2 7,3 10,4 9,-6 18,-11 27,-17 10,-3 19,-6 29,-8 6,3 13,6 19,10 13,14 26,29 39,44 5,7 10,15 16,22 15,0 30,1 45,1 4,0 8,0 11,0 9,-4 19,-8 28,-11 15,3 30,7 46,11 8,-3 17,-6 25,-9 17,3 34,5 51,8 27,13 54,26 81,39 9,6 17,13 26,20 1,0 2,0 2,0 18,-3 36,-6 54,-9 9,-11 18,-22 26,-33 9,-2 17,-4 25,-6 2,8 5,16 8,24 5,10 10,20 16,29 0,0 0,0 0,0 21,-2 42,-4 63,-6 24,-2 48,-3 71,-5 16,0 33,0 49,0 0,0 1,-1 1,-1 7,-3 14,-6 20,-9 12,2 23,3 34,5 14,8 27,16 40,24 6,-1 11,-1 17,-1 8,-19 17,-37 26,-56 10,1 20,2 30,2 8,9 15,18 23,27 2,1 5,3 7,5 -1,13 -2,26 -3,39 -6,9 -12,17 -19,25 -13,11 -25,23 -38,34 -10,4 -20,9 -30,13 -9,14 -17,27 -26,41 1,2 1,5 1,7 1,7 2,14 2,21 3,9 6,18 9,27 0,0 0,0 1,0 4,7 8,14 12,20 16,12 31,24 46,36 1,5 2,9 3,13 1,13 3,26 4,39 -14,-3 -28,-7 -42,-10 -4,-1 -7,-3 -11,-4 -8,5 -15,9 -23,14 -5,11 -10,22 -15,33 0,12 0,23 0,35 1,2 1,5 2,7 -6,-2 -12,-5 -18,-7 -5,-2 -10,-4 -15,-7 -6,-3 -12,-7 -17,-11 -7,-3 -13,-7 -20,-10 0,0 -1,1 -2,1 -2,1 -4,2 -6,3 -1,2 -3,5 -4,7 -3,6 -6,11 -9,17 -2,3 -4,7 -7,10 -4,1 -8,2 -12,3 -4,0 -7,0 -11,0 -3,2 -6,3 -10,4 -2,2 -4,3 -7,5 -2,3 -5,7 -7,11 -1,4 -2,7 -3,11 -3,4 -5,9 -7,14 -4,3 -8,6 -11,10 -4,2 -9,4 -13,7 -4,2 -7,5 -11,7 -1,1 -2,2 -4,3 -3,7 -7,13 -11,20 -3,8 -6,16 -8,24 -1,8 -2,17 -3,25 -3,6 -5,13 -7,19 -1,6 -1,12 -2,17 -1,7 -1,14 -2,21 -1,3 -2,6 -4,9 -2,0 -5,1 -8,2 -4,-1 -8,-3 -12,-4 -2,-3 -4,-6 -6,-8 -3,-1 -6,-1 -9,-1 -1,2 -2,3 -4,5 -1,3 -2,6 -3,9 -1,5 -2,9 -3,13 -2,2 -4,5 -7,8 -3,2 -5,4 -8,6 -3,-1 -6,-2 -9,-3 -4,-3 -8,-7 -11,-10 -6,-5 -11,-9 -17,-14 -4,0 -8,1 -12,1 -5,1 -11,2 -16,3 -5,1 -11,2 -16,2 -2,1 -3,1 -5,2 -6,2 -11,4 -17,6 -4,3 -8,6 -12,9 -2,4 -4,9 -6,13 -1,6 -2,12 -3,18 -4,2 -9,4 -13,6 -3,2 -7,3 -11,4 -4,0 -8,-1 -13,-1 -5,-2 -10,-3 -15,-5 -4,-2 -8,-4 -12,-6 -2,-3 -5,-5 -7,-8 0,-3 1,-6 1,-10 0,-4 0,-8 0,-12 0,-3 0,-7 0,-10 -1,-3 -3,-6 -5,-9 -4,-1 -8,-2 -11,-3 -5,1 -9,2 -14,3 -1,3 -2,5 -3,8 -3,1 -6,2 -8,3 -3,0 -5,-1 -8,-1 0,-5 -1,-11 -1,-16 -2,-6 -3,-12 -4,-18 -2,-6 -4,-12 -5,-18 -2,-1 -3,-3 -5,-5 -4,0 -7,-1 -11,-1 -2,-1 -4,-2 -6,-3 -3,-2 -5,-4 -8,-6 0,1 -1,1 -2,2 -2,0 -3,1 -5,2 -1,2 -3,4 -4,6 -5,1 -10,2 -14,2 -4,1 -8,1 -12,2 -3,-2 -5,-4 -8,-5 -3,-5 -7,-9 -10,-14 -5,-1 -9,-3 -13,-5 -6,1 -13,1 -19,1 -5,2 -10,5 -15,8 -4,4 -8,8 -13,13 -2,6 -5,12 -8,17 -4,7 -9,14 -14,21 -6,4 -13,9 -20,13 -6,2 -13,3 -20,5 -7,0 -15,1 -22,2 -5,2 -10,3 -16,5 -5,3 -10,6 -15,9 -1,1 -2,1 -3,2 -6,2 -11,4 -16,6 -7,1 -14,3 -21,4 -2,2 -5,4 -8,6 -3,4 -6,8 -9,12 -3,4 -6,8 -9,12 -2,1 -4,2 -6,3 -3,0 -6,0 -9,-1 -4,-2 -8,-4 -11,-6 -6,1 -11,2 -16,2 -2,1 -5,2 -7,3 -2,3 -5,5 -7,7 -4,1 -7,2 -11,3 -3,-1 -6,-2 -9,-3 -3,-5 -6,-9 -8,-14 -4,-5 -7,-11 -10,-16 -5,-6 -9,-12 -13,-19 -5,0 -11,0 -16,0 -4,3 -8,5 -12,7 -3,3 -5,5 -8,8 -4,3 -7,7 -11,10 -4,2 -9,5 -13,7 -5,2 -10,3 -16,5 -5,3 -10,7 -15,10 -4,4 -8,7 -12,11 -6,0 -12,0 -18,0 -4,-2 -8,-4 -13,-6 -4,-3 -8,-7 -12,-10 -5,-4 -9,-8 -14,-12 -3,-6 -5,-13 -8,-20 -1,-2 -3,-4 -4,-6 -1,-2 -2,-4 -4,-7 -5,-3 -11,-6 -16,-10 -7,0 -14,1 -21,1 -4,2 -7,5 -11,7 -4,0 -8,0 -12,0 -1,-3 -3,-6 -4,-9 -3,-4 -5,-7 -8,-11 -4,-4 -9,-9 -14,-13 0,0 -1,0 -2,0 -3,1 -6,2 -9,3 -3,4 -7,8 -10,12 -6,4 -12,8 -18,12 -9,5 -19,9 -28,14 -10,2 -20,3 -30,5 -4,0 -7,0 -10,0 -6,0 -13,0 -19,0 -9,-2 -17,-3 -26,-5 -8,-4 -16,-8 -24,-12 -2,-12 -4,-25 -6,-37 -5,-10 -10,-20 -15,-30 -10,-11 -20,-21 -30,-31 0,-14 0,-27 0,-40 1,-15 1,-30 2,-45 1,-10 3,-20 5,-30 5,-5 10,-10 15,-15 6,-3 12,-7 17,-10 9,-3 18,-5 27,-8 13,-8 27,-16 40,-24 10,-1 20,-2 30,-3 0,0 1,0 1,0 13,-17 27,-33 40,-49 9,-6 18,-12 26,-17 12,-11 23,-22 34,-32 7,-5 14,-9 20,-13 4,-1 7,-2 10,-3 21,0 42,0 63,0 5,0 11,0 16,0 7,1 13,2 19,4 5,-1 10,-3 14,-4 8,-1 15,-2 23,-3 0,-4 0,-7 0,-10 0,-4 0,-8 0,-13 -18,-7 -36,-14 -55,-20 -7,-3 -14,-6 -22,-9 0,-5 -1,-11 -2,-17 0,-1 0,-1 0,-2 -8,-3 -15,-6 -23,-9 -11,-1 -21,-2 -32,-3 -8,-5 -17,-10 -25,-15 -6,-6 -12,-12 -17,-18 -1,-9 -1,-17 -1,-25 3,-5 7,-10 11,-15 9,-7 18,-15 26,-22 1,-2 1,-3 1,-4 1,-4 2,-7 3,-11 -5,-6 -9,-11 -14,-17 -12,-3 -25,-7 -37,-11 -7,-2 -13,-5 -19,-7 0,-5 -1,-10 -1,-14 10,-6 21,-13 31,-19 13,-8 27,-16 41,-24 22,-1 45,-1 68,-1 3,-3 6,-5 8,-7 2,-1 3,-2 4,-3 -17,-11 -35,-21 -53,-31 1,-10 1,-20 2,-30 -8,-1 -16,-2 -23,-3 -11,-7 -21,-13 -32,-20 -4,-10 -9,-19 -13,-29 -6,-3 -11,-6 -16,-9 -3,-11 -5,-21 -8,-31 2,-3 3,-5 5,-7 -3,-10 -5,-20 -7,-30 -4,-2 -9,-3 -13,-4 -8,-1 -15,-3 -23,-4 -4,-7 -7,-13 -10,-20 -3,-10 -6,-19 -9,-29 18,-13 36,-26 54,-39 13,5 25,9 38,14 12,6 25,12 37,18 27,7 54,14 82,20 12,5 25,10 38,15 3,7 6,15 9,22 2,15 4,30 5,44 10,6 19,13 29,19 7,2 13,4 20,6 17,5 34,11 51,16 4,9 7,17 10,26 4,3 8,7 12,10 10,2 20,3 30,4 14,6 29,13 43,19 8,3 15,5 23,7z"/>
   </g>
   <g>
    <path fill="#255133" d="M629 372c3,1 7,2 10,3 9,-5 18,-11 27,-17 10,-3 20,-5 30,-8 6,3 12,7 18,10 13,15 26,29 39,44 5,7 11,15 16,22 15,1 30,1 46,1 3,0 7,0 11,0 9,-4 18,-7 27,-11 15,4 31,7 46,11 8,-3 17,-6 25,-8 17,2 34,5 51,7 27,13 54,26 82,39 8,7 17,13 25,20 1,0 2,0 3,0 17,-3 35,-6 53,-8 9,-12 18,-23 27,-34 8,-2 16,-4 24,-6 3,8 5,16 8,24 5,10 11,20 16,30 0,0 1,0 1,0 21,-2 42,-5 63,-7 23,-1 47,-3 70,-4 17,-1 33,-1 49,-1 1,0 1,0 2,0 6,-4 13,-7 20,-10 11,2 22,3 34,5 13,8 26,16 40,24 5,0 11,-1 16,-1 9,-19 17,-37 26,-56 10,1 20,2 31,3 7,8 14,17 22,26 2,2 5,3 8,5 -1,13 -2,27 -3,40 -7,8 -13,16 -19,25 -13,11 -26,22 -39,33 -10,5 -20,9 -30,13 -8,14 -17,27 -25,41 0,3 0,5 1,8 0,6 1,13 2,20 3,9 5,18 8,27 0,0 1,0 1,0 4,7 8,14 13,21 15,12 30,23 46,35 1,5 1,9 2,14 2,13 3,25 4,38 -14,-3 -28,-6 -42,-10 -3,-1 -7,-2 -10,-3 -8,4 -16,8 -24,13 -5,11 -9,22 -14,33 0,12 0,24 -1,35 1,3 2,5 2,7 -6,-2 -12,-4 -18,-7 -5,-2 -10,-4 -15,-6 -6,-4 -11,-8 -17,-12 -6,-3 -13,-7 -19,-10 -1,1 -2,1 -3,2 -2,0 -4,1 -5,2 -2,3 -3,5 -5,8 -3,5 -6,10 -9,16 -2,3 -4,7 -6,11 -4,1 -9,2 -13,3 -3,0 -7,0 -11,0 -3,1 -6,2 -9,3 -3,2 -5,3 -7,5 -3,4 -5,8 -8,11 -1,4 -2,8 -3,11 -2,5 -5,9 -7,14 -4,3 -7,7 -11,10 -4,2 -8,5 -13,7 -3,2 -7,5 -10,7 -2,1 -3,2 -4,3 -4,7 -8,14 -12,21 -3,8 -5,16 -8,24 -1,8 -2,16 -3,24 -2,7 -4,13 -6,19 -1,6 -2,12 -3,18 0,6 -1,13 -1,20 -2,3 -3,6 -4,9 -3,1 -6,1 -9,2 -3,-1 -7,-2 -11,-4 -2,-2 -5,-5 -7,-8 -3,0 -6,0 -8,-1 -2,2 -3,3 -4,5 -1,3 -3,6 -4,10 -1,4 -2,8 -3,12 -2,3 -4,5 -6,8 -3,2 -6,4 -9,7 -3,-2 -6,-3 -9,-4 -4,-3 -7,-6 -11,-9 -5,-5 -11,-10 -17,-15 -4,1 -8,1 -12,2 -5,1 -10,2 -15,3 -6,0 -11,1 -17,2 -1,0 -3,0 -5,1 -5,2 -11,4 -17,7 -3,2 -7,5 -11,8 -2,5 -4,9 -7,13 -1,6 -2,12 -3,19 -4,2 -8,4 -12,6 -4,1 -8,2 -12,4 -4,-1 -8,-1 -12,-2 -5,-1 -10,-3 -15,-4 -4,-3 -8,-5 -12,-7 -3,-3 -5,-5 -8,-8 1,-3 1,-6 2,-9 0,-4 0,-8 0,-13 0,-3 0,-6 0,-10 -2,-3 -4,-5 -6,-8 -4,-1 -7,-3 -11,-4 -4,1 -9,2 -13,3 -1,3 -3,5 -4,8 -2,1 -5,2 -8,4 -2,-1 -5,-2 -8,-2 0,-5 -1,-10 -1,-15 -1,-6 -2,-13 -4,-19 -1,-6 -3,-12 -5,-18 -2,-1 -3,-3 -5,-5 -3,0 -7,0 -10,-1 -3,-1 -5,-2 -7,-3 -3,-2 -5,-4 -7,-6 -1,1 -2,1 -3,2 -1,1 -3,2 -4,2 -2,2 -3,4 -5,6 -5,1 -9,2 -14,2 -4,1 -8,1 -12,2 -2,-2 -5,-3 -7,-5 -4,-5 -7,-9 -11,-13 -4,-2 -8,-4 -12,-5 -7,0 -13,0 -20,0 -5,3 -10,5 -14,8 -5,4 -9,9 -13,13 -3,6 -6,12 -8,18 -5,7 -10,13 -14,20 -7,5 -14,9 -20,14 -7,1 -14,2 -21,4 -7,1 -14,2 -22,2 -5,2 -10,3 -15,5 -5,3 -10,6 -16,10 -1,0 -2,1 -3,1 -5,2 -11,4 -16,6 -7,2 -13,3 -20,4 -3,2 -6,4 -9,7 -3,4 -6,8 -9,12 -3,4 -6,7 -9,11 -2,1 -4,2 -6,4 -3,-1 -6,-1 -9,-2 -4,-2 -7,-4 -11,-6 -5,1 -11,2 -16,3 -2,1 -4,2 -7,3 -2,2 -4,4 -7,6 -3,1 -7,2 -10,3 -3,-1 -7,-2 -10,-3 -3,-4 -5,-9 -8,-13 -3,-6 -7,-11 -10,-17 -4,-6 -9,-12 -13,-18 -5,0 -10,0 -15,0 -4,2 -8,4 -12,6 -3,3 -6,5 -9,8 -4,3 -7,7 -11,10 -4,3 -8,5 -13,7 -5,2 -10,4 -15,5 -5,4 -11,7 -16,11 -4,3 -8,7 -12,10 -6,0 -12,0 -18,0 -4,-2 -8,-4 -12,-6 -4,-3 -9,-7 -13,-10 -4,-4 -9,-8 -14,-11 -2,-7 -5,-14 -8,-21 -1,-2 -2,-4 -4,-6 -1,-2 -2,-4 -3,-6 -6,-4 -11,-7 -17,-11 -7,1 -14,1 -21,1 -4,3 -7,5 -11,7 -4,0 -7,0 -11,0 -2,-3 -3,-6 -5,-9 -3,-4 -5,-7 -8,-10 -4,-5 -9,-9 -13,-14 -1,0 -2,0 -2,1 -3,0 -6,1 -10,2 -3,4 -6,8 -10,12 -6,4 -12,8 -18,12 -9,5 -19,10 -28,14 -10,2 -20,4 -30,5 -3,0 -6,0 -10,0 -6,0 -12,0 -19,0 -9,-1 -17,-3 -26,-5 -8,-4 -15,-8 -23,-12 -2,-12 -4,-25 -6,-37 -5,-10 -11,-20 -16,-30 -10,-10 -20,-21 -30,-31 1,-13 1,-27 1,-40 0,-15 1,-30 1,-45 2,-10 4,-20 5,-30 6,-5 11,-10 16,-15 5,-3 11,-7 17,-10 8,-3 17,-5 26,-8 14,-8 27,-16 41,-24 10,-1 20,-2 30,-3 0,0 0,0 0,0 14,-16 27,-33 40,-49 9,-6 18,-11 27,-17 11,-11 22,-21 34,-32 6,-4 13,-9 20,-13 3,-1 6,-2 10,-3 21,0 41,0 62,0 5,0 11,0 17,0 6,1 12,3 18,4 5,-1 10,-2 15,-3 7,-2 15,-3 22,-4 0,-3 0,-6 1,-10 0,-4 0,-8 0,-12 -19,-7 -37,-14 -55,-21 -8,-3 -15,-6 -22,-8 -1,-6 -2,-12 -3,-18 0,0 0,-1 0,-2 -7,-2 -15,-5 -23,-8 -10,-1 -21,-3 -32,-4 -8,-5 -17,-10 -25,-15 -6,-6 -11,-12 -17,-18 0,-8 -1,-17 -1,-25 4,-5 8,-10 11,-15 9,-7 18,-15 27,-22 0,-1 0,-3 1,-4 1,-4 1,-7 2,-11 -4,-5 -9,-11 -13,-16 -13,-4 -25,-8 -38,-11 -6,-3 -13,-6 -19,-8 0,-5 0,-9 0,-14 10,-6 20,-12 30,-18 14,-9 27,-17 41,-25 23,0 46,-1 68,-1 3,-2 6,-5 9,-7 1,-1 2,-2 4,-3 -18,-10 -36,-21 -53,-31 0,-10 1,-20 1,-30 -8,-1 -15,-2 -23,-3 -11,-6 -21,-13 -32,-20 -4,-9 -8,-19 -13,-28 -5,-4 -11,-7 -16,-10 -2,-10 -5,-21 -7,-31 1,-2 3,-4 4,-7 -2,-10 -5,-20 -7,-30 -4,-1 -8,-2 -12,-4 -8,-1 -16,-2 -24,-4 -3,-6 -7,-13 -10,-20 -3,-9 -6,-19 -9,-28 18,-14 37,-27 55,-40 12,5 25,10 37,14 13,6 25,12 37,18 28,7 55,14 82,21 13,4 25,9 38,14 3,7 6,15 9,22 2,15 4,30 6,45 9,6 19,12 28,18 7,2 13,4 20,6 17,6 35,11 52,17 3,8 6,17 10,25 3,4 7,7 11,11 10,1 20,2 30,3 15,6 29,13 43,20 8,2 15,4 23,7z"/>
   </g>
   <g>
    <path fill="#295637" d="M629 364c4,1 7,2 11,4 9,-6 18,-12 26,-18 10,-2 20,-5 30,-8 6,4 12,7 19,10 13,15 25,30 38,44 6,8 11,15 17,23 15,0 30,0 45,0 4,0 7,0 11,0 9,-3 18,-7 28,-11 15,4 30,8 45,11 9,-2 17,-5 26,-8 17,2 34,5 51,8 27,12 54,25 81,38 9,7 17,14 26,20 1,0 1,0 2,0 18,-3 35,-5 53,-8 9,-11 18,-23 27,-34 8,-2 16,-4 25,-5 2,7 5,15 7,23 6,10 11,20 16,30 1,0 1,0 1,0 21,-2 42,-4 63,-7 24,-1 47,-3 71,-4 16,0 32,0 49,-1 0,0 1,0 1,0 7,-3 13,-6 20,-9 11,1 23,3 34,4 13,8 27,16 40,24 6,0 11,-1 16,-1 9,-18 18,-37 26,-55 11,0 21,1 31,2 7,9 15,17 22,26 3,2 5,4 8,5 -1,14 -2,27 -3,40 -6,8 -13,17 -19,25 -13,11 -26,22 -39,33 -10,5 -20,9 -30,14 -8,13 -17,27 -25,40 0,3 1,5 1,8 1,7 1,14 2,20 3,9 6,18 9,27 0,1 0,1 0,1 4,7 9,13 13,20 15,12 31,24 46,36 1,4 2,9 3,13 1,13 2,26 4,39 -14,-4 -28,-7 -42,-11 -4,-1 -8,-2 -11,-3 -8,4 -16,9 -24,13 -4,11 -9,22 -14,34 0,11 0,23 0,35 0,2 1,4 2,6 -6,-2 -13,-4 -19,-6 -5,-2 -10,-5 -15,-7 -5,-4 -11,-8 -17,-12 -6,-3 -12,-6 -19,-10 -1,1 -2,1 -3,2 -1,1 -3,2 -5,2 -2,3 -3,5 -5,8 -2,5 -5,11 -8,16 -2,4 -5,7 -7,11 -4,1 -8,2 -12,3 -4,0 -8,0 -11,0 -4,1 -7,2 -10,4 -2,1 -5,3 -7,4 -2,4 -5,8 -7,12 -1,3 -3,7 -4,11 -2,4 -4,9 -7,13 -3,3 -7,7 -11,10 -4,3 -8,5 -12,7 -4,3 -7,5 -11,8 -1,0 -3,1 -4,2 -4,7 -8,14 -12,21 -2,8 -5,16 -8,24 -1,8 -2,16 -3,24 -2,7 -4,13 -6,20 -1,5 -2,11 -2,17 -1,7 -1,13 -2,20 -1,3 -3,6 -4,9 -3,1 -5,2 -8,2 -4,-1 -8,-2 -12,-3 -2,-3 -4,-6 -7,-9 -2,0 -5,0 -8,0 -1,1 -3,3 -4,4 -1,3 -2,7 -3,10 -1,4 -2,8 -3,12 -3,3 -5,6 -7,8 -3,2 -6,5 -9,7 -3,-1 -6,-3 -9,-4 -3,-3 -7,-6 -10,-9 -6,-5 -12,-10 -17,-14 -4,0 -8,1 -12,1 -6,1 -11,2 -16,3 -6,1 -11,1 -16,2 -2,0 -4,1 -5,1 -6,2 -12,5 -17,7 -4,3 -8,6 -12,8 -2,5 -4,9 -6,14 -1,6 -3,12 -4,18 -4,2 -8,4 -12,6 -4,1 -8,3 -12,4 -4,0 -8,-1 -12,-2 -5,-1 -10,-3 -15,-4 -4,-2 -8,-4 -12,-7 -2,-2 -5,-5 -7,-7 0,-4 1,-7 1,-10 0,-4 0,-8 0,-12 0,-4 0,-7 0,-10 -2,-3 -4,-6 -5,-9 -4,-1 -8,-2 -12,-3 -4,1 -8,2 -13,3 -1,2 -2,5 -3,7 -3,1 -6,3 -8,4 -3,-1 -6,-1 -8,-2 -1,-5 -1,-10 -2,-15 -1,-6 -2,-12 -3,-18 -2,-6 -4,-12 -6,-18 -1,-2 -3,-4 -4,-5 -4,-1 -7,-1 -11,-1 -2,-1 -5,-3 -7,-4 -2,-2 -5,-4 -7,-5 -1,0 -1,1 -2,1 -2,1 -3,2 -5,3 -2,2 -3,4 -5,6 -4,0 -9,1 -14,2 -4,0 -8,1 -11,1 -3,-1 -5,-3 -8,-5 -4,-4 -7,-9 -11,-13 -4,-2 -8,-3 -12,-5 -6,0 -13,0 -19,0 -5,3 -10,6 -15,8 -4,4 -9,9 -13,13 -3,6 -5,12 -8,18 -5,7 -9,14 -14,20 -7,5 -13,9 -20,14 -7,1 -14,3 -20,4 -8,1 -15,2 -22,3 -5,1 -11,3 -16,4 -5,3 -10,7 -15,10 -1,0 -3,1 -4,1 -5,2 -10,4 -15,6 -7,2 -14,3 -21,5 -3,2 -6,4 -9,6 -3,4 -6,8 -9,12 -2,4 -5,8 -8,12 -2,1 -4,2 -6,3 -3,-1 -6,-1 -10,-1 -3,-2 -7,-4 -11,-6 -5,0 -10,1 -16,2 -2,1 -4,2 -6,3 -3,2 -5,4 -7,6 -4,1 -7,3 -11,4 -3,-1 -6,-3 -10,-4 -2,-4 -5,-9 -8,-13 -3,-6 -6,-11 -9,-17 -5,-6 -9,-12 -14,-18 -5,0 -10,0 -15,0 -4,2 -8,4 -12,6 -3,3 -6,6 -9,8 -3,4 -7,7 -10,11 -5,2 -9,4 -14,6 -5,2 -10,4 -15,6 -5,3 -10,6 -16,10 -3,3 -7,7 -11,10 -6,0 -12,0 -19,0 -4,-1 -8,-3 -12,-5 -4,-4 -8,-7 -13,-11 -4,-4 -9,-7 -13,-11 -3,-7 -6,-14 -8,-20 -2,-2 -3,-4 -4,-7 -2,-2 -3,-4 -4,-6 -5,-3 -11,-7 -16,-10 -7,0 -15,0 -22,1 -3,2 -7,4 -10,6 -4,0 -8,0 -12,0 -2,-3 -3,-6 -5,-9 -2,-3 -5,-7 -7,-10 -5,-5 -9,-9 -14,-14 -1,1 -1,1 -2,1 -3,1 -6,2 -9,2 -4,4 -7,8 -10,13 -6,4 -12,8 -18,12 -10,4 -19,9 -29,14 -10,1 -20,3 -30,5 -3,0 -6,0 -9,0 -7,0 -13,0 -20,0 -8,-2 -17,-4 -25,-5 -8,-4 -16,-8 -24,-12 -2,-13 -4,-25 -6,-38 -5,-10 -10,-20 -15,-30 -10,-10 -20,-20 -30,-31 0,-13 0,-27 0,-40 1,-15 1,-30 1,-44 2,-10 4,-21 6,-31 5,-5 10,-10 15,-14 6,-4 11,-7 17,-11 9,-2 18,-5 26,-7 14,-8 27,-16 41,-24 10,-1 20,-3 30,-4 0,0 0,0 0,0 14,-16 27,-32 41,-49 9,-5 17,-11 26,-17 11,-11 23,-21 34,-32 7,-4 13,-8 20,-13 3,-1 7,-2 10,-3 21,0 42,0 62,0 6,0 11,0 17,0 6,2 13,3 19,4 5,-1 9,-2 14,-3 8,-1 15,-3 22,-4 1,-3 1,-6 1,-9 0,-5 0,-9 0,-13 -18,-7 -37,-14 -55,-21 -7,-3 -15,-5 -22,-8 -1,-6 -2,-12 -2,-17 0,-1 0,-2 0,-2 -8,-3 -16,-6 -23,-9 -11,-1 -22,-2 -32,-4 -9,-5 -17,-10 -26,-15 -5,-6 -11,-12 -16,-18 -1,-8 -1,-16 -2,-25 4,-5 8,-9 12,-14 8,-8 17,-15 26,-23 0,-1 1,-2 1,-4 1,-3 2,-7 3,-10 -5,-6 -9,-12 -14,-17 -13,-4 -25,-7 -38,-11 -6,-3 -12,-5 -18,-8 -1,-5 -1,-9 -1,-14 10,-6 20,-12 31,-18 13,-8 27,-16 40,-24 23,-1 46,-1 69,-2 3,-2 5,-4 8,-7 1,-1 3,-2 4,-3 -18,-10 -35,-20 -53,-31 1,-10 1,-20 2,-30 -8,-1 -16,-1 -24,-2 -10,-7 -21,-14 -31,-21 -5,-9 -9,-19 -14,-28 -5,-3 -10,-6 -16,-10 -2,-10 -4,-20 -7,-31 2,-2 3,-4 4,-6 -2,-10 -4,-21 -6,-31 -5,-1 -9,-2 -13,-3 -8,-2 -16,-3 -23,-4 -4,-7 -7,-14 -11,-21 -3,-9 -5,-19 -8,-28 18,-13 36,-26 54,-39 13,4 25,9 38,13 12,6 24,13 37,19 27,6 54,13 81,20 13,5 26,9 38,14 3,8 6,15 9,23 2,14 4,29 6,44 10,6 19,12 29,18 6,2 13,4 19,6 18,6 35,11 52,17 3,9 7,17 10,25 4,4 8,8 12,11 10,1 20,2 30,3 14,7 28,13 43,20 7,2 15,5 22,7z"/>
   </g>
   <g>
    <path fill="#2D5B3C" d="M630 356c3,2 7,3 10,4 9,-6 18,-12 27,-17 10,-3 19,-6 29,-8 7,3 13,6 19,10 13,14 26,29 39,43 5,8 11,15 16,23 15,0 30,0 45,1 4,0 8,0 11,0 9,-4 19,-8 28,-12 15,4 30,8 46,12 8,-3 17,-6 25,-9 17,3 34,5 51,8 27,13 54,26 81,38 9,7 18,14 26,21 1,0 2,-1 2,-1 18,-2 36,-5 54,-8 9,-11 18,-22 27,-34 8,-1 16,-3 24,-5 2,8 5,16 8,23 5,10 10,20 16,30 0,0 0,0 0,0 21,-2 42,-4 63,-6 24,-2 48,-3 71,-5 16,0 33,0 49,0 0,0 1,-1 1,-1 7,-3 14,-6 20,-9 12,2 23,3 34,5 14,8 27,16 40,23 6,0 11,0 17,-1 8,-18 17,-37 26,-55 10,1 20,1 30,2 8,9 15,18 23,26 2,2 5,4 7,6 -1,13 -2,26 -3,39 -6,9 -12,17 -19,25 -13,11 -25,23 -38,34 -10,4 -20,9 -30,13 -9,13 -17,27 -26,41 1,2 1,5 1,7 1,7 2,14 2,21 3,9 6,18 9,27 0,0 0,0 1,0 4,7 8,14 12,20 16,12 31,24 46,36 1,4 2,9 3,13 1,13 3,26 4,39 -14,-3 -28,-7 -42,-10 -4,-1 -7,-3 -11,-4 -8,5 -15,9 -23,13 -5,12 -10,23 -14,34 -1,12 -1,23 -1,35 1,2 1,4 2,7 -6,-3 -12,-5 -18,-7 -5,-2 -10,-4 -15,-7 -6,-4 -12,-7 -17,-11 -7,-4 -13,-7 -20,-10 0,0 -1,1 -2,1 -2,1 -4,2 -6,3 -1,2 -3,5 -4,7 -3,6 -6,11 -9,16 -2,4 -4,8 -7,11 -4,1 -8,2 -12,3 -4,0 -7,0 -11,0 -3,1 -6,3 -10,4 -2,1 -4,3 -7,4 -2,4 -4,8 -7,12 -1,4 -2,7 -3,11 -3,4 -5,9 -7,13 -4,4 -8,7 -11,11 -4,2 -9,4 -13,7 -3,2 -7,4 -10,7 -2,1 -3,2 -5,2 -3,7 -7,14 -11,21 -3,8 -6,16 -8,24 -1,8 -2,16 -3,25 -3,6 -5,13 -7,19 0,6 -1,12 -2,17 -1,7 -1,14 -2,20 -1,4 -2,7 -4,10 -2,0 -5,1 -8,2 -4,-2 -8,-3 -12,-4 -2,-3 -4,-6 -6,-9 -3,0 -6,0 -9,0 -1,2 -2,3 -3,5 -2,3 -3,6 -4,9 -1,4 -2,8 -3,13 -2,2 -4,5 -7,7 -3,3 -5,5 -8,7 -3,-1 -6,-2 -9,-3 -4,-4 -8,-7 -11,-10 -6,-5 -11,-9 -17,-14 -4,0 -8,1 -12,1 -5,1 -11,2 -16,3 -5,1 -11,2 -16,2 -2,1 -3,1 -5,1 -6,3 -11,5 -17,7 -4,3 -8,6 -12,9 -2,4 -4,8 -6,13 -1,6 -2,12 -3,18 -4,2 -8,4 -13,6 -3,2 -7,3 -11,4 -4,0 -8,-1 -12,-1 -6,-2 -11,-3 -16,-5 -4,-2 -8,-4 -11,-6 -3,-3 -5,-5 -8,-8 0,-3 1,-6 1,-10 0,-4 0,-8 0,-12 0,-3 0,-7 0,-10 -1,-3 -3,-6 -5,-9 -4,-1 -8,-2 -11,-3 -5,1 -9,2 -13,3 -2,2 -3,5 -4,7 -3,2 -5,3 -8,4 -3,0 -5,-1 -8,-1 0,-6 -1,-11 -1,-16 -2,-6 -3,-12 -4,-18 -2,-6 -4,-12 -5,-18 -2,-2 -3,-3 -5,-5 -4,0 -7,-1 -11,-1 -2,-1 -4,-2 -6,-4 -3,-1 -5,-3 -8,-5 0,0 -1,1 -2,1 -2,1 -3,2 -5,3 -1,2 -3,4 -4,6 -5,1 -10,1 -14,2 -4,0 -8,1 -12,1 -3,-1 -5,-3 -8,-4 -3,-5 -7,-9 -10,-14 -4,-1 -9,-3 -13,-5 -6,0 -13,1 -19,1 -5,2 -10,5 -15,7 -4,5 -8,9 -12,14 -3,5 -6,11 -8,17 -5,7 -10,14 -15,21 -6,4 -13,9 -20,13 -6,2 -13,3 -20,4 -7,1 -15,2 -22,3 -5,1 -10,3 -16,4 -5,4 -10,7 -15,10 -1,1 -2,1 -3,2 -6,2 -11,4 -16,6 -7,1 -14,3 -21,4 -2,2 -5,4 -8,6 -3,4 -6,8 -9,12 -3,4 -6,8 -9,12 -2,1 -4,2 -6,3 -3,0 -6,-1 -9,-1 -4,-2 -8,-4 -11,-6 -6,1 -11,2 -16,2 -2,1 -5,2 -7,3 -2,2 -5,4 -7,7 -3,1 -7,2 -11,3 -3,-1 -6,-2 -9,-3 -3,-5 -6,-9 -8,-14 -4,-5 -7,-11 -10,-16 -5,-6 -9,-13 -13,-19 -5,0 -10,0 -16,0 -4,2 -8,5 -12,7 -3,2 -5,5 -8,7 -4,4 -7,8 -11,11 -4,2 -9,5 -13,7 -5,1 -10,3 -16,5 -5,3 -10,7 -15,10 -4,4 -8,7 -12,11 -6,0 -12,0 -18,0 -4,-2 -8,-4 -13,-6 -4,-3 -8,-7 -12,-10 -5,-4 -9,-8 -14,-12 -3,-6 -5,-13 -8,-20 -1,-2 -3,-4 -4,-6 -1,-2 -2,-5 -4,-7 -5,-3 -11,-7 -16,-10 -7,0 -14,1 -21,1 -4,2 -7,4 -11,7 -4,0 -8,0 -12,0 -1,-3 -3,-7 -4,-10 -3,-3 -5,-6 -8,-10 -4,-4 -9,-9 -14,-13 0,0 -1,0 -2,0 -3,1 -6,2 -9,3 -3,4 -7,8 -10,12 -6,4 -12,8 -18,12 -9,5 -19,9 -28,14 -10,2 -20,3 -30,5 -4,0 -7,0 -10,0 -6,0 -13,0 -19,0 -9,-2 -17,-3 -26,-5 -8,-4 -16,-8 -24,-12 -2,-12 -4,-25 -6,-38 -5,-10 -10,-20 -15,-29 -10,-11 -20,-21 -30,-32 0,-13 0,-26 1,-40 0,-14 0,-29 1,-44 1,-10 3,-20 5,-30 5,-5 10,-10 16,-15 5,-4 11,-7 16,-10 9,-3 18,-6 27,-8 13,-8 27,-16 40,-24 10,-1 20,-2 30,-3 1,0 1,0 1,0 13,-17 27,-33 40,-49 9,-6 18,-12 26,-18 12,-10 23,-21 34,-32 7,-4 14,-8 20,-12 4,-1 7,-2 11,-3 20,0 41,0 62,0 5,0 11,0 16,0 7,1 13,2 19,4 5,-2 10,-3 14,-4 8,-1 15,-2 23,-4 0,-3 0,-6 0,-9 0,-4 0,-9 0,-13 -18,-7 -36,-14 -54,-21 -8,-2 -15,-5 -22,-8 -1,-6 -2,-11 -3,-17 0,-1 0,-1 0,-2 -8,-3 -15,-6 -23,-9 -11,-1 -21,-2 -32,-3 -8,-5 -17,-11 -25,-16 -6,-6 -12,-11 -17,-17 0,-9 -1,-17 -1,-25 4,-5 7,-10 11,-15 9,-8 18,-15 26,-22 1,-2 1,-3 1,-5 1,-3 2,-7 3,-10 -5,-6 -9,-11 -14,-17 -12,-4 -25,-7 -37,-11 -7,-2 -13,-5 -19,-8 0,-4 -1,-9 -1,-13 10,-7 21,-13 31,-19 13,-8 27,-16 41,-24 22,-1 45,-1 68,-2 3,-2 6,-4 8,-6 2,-1 3,-2 5,-3 -18,-11 -36,-21 -54,-31 1,-10 1,-20 2,-30 -8,-1 -16,-2 -23,-3 -11,-7 -21,-14 -32,-20 -4,-10 -9,-19 -13,-29 -6,-3 -11,-6 -16,-9 -3,-11 -5,-21 -8,-32 2,-2 3,-4 5,-6 -3,-10 -5,-20 -7,-31 -4,-1 -9,-2 -13,-3 -8,-1 -15,-3 -23,-4 -3,-7 -7,-14 -10,-20 -3,-10 -6,-19 -9,-29 18,-13 36,-26 54,-39 13,4 26,9 38,14 12,6 25,12 37,18 27,7 54,13 82,20 12,5 25,10 38,14 3,8 6,15 9,23 2,15 4,29 5,44 10,6 19,12 29,18 7,2 13,4 20,6 17,6 34,12 52,17 3,9 6,17 9,26 4,3 8,7 12,10 10,1 20,2 30,3 14,7 29,14 43,20 8,3 15,5 23,7z"/>
   </g>
   <g>
    <path fill="#326040" d="M630 349c3,1 7,2 11,3 8,-6 17,-11 26,-17 10,-3 20,-5 30,-8 6,3 12,7 18,10 13,15 26,29 39,44 5,7 11,15 16,22 15,0 31,1 46,1 3,0 7,0 11,0 9,-4 18,-8 27,-11 15,3 31,7 46,11 8,-3 17,-6 25,-9 17,3 34,6 51,8 27,13 55,26 82,39 8,7 17,13 26,20 0,0 1,0 2,0 17,-3 35,-6 53,-9 9,-11 18,-22 27,-33 8,-2 16,-4 24,-6 3,8 5,16 8,24 5,10 11,20 16,30 0,0 1,0 1,0 21,-3 42,-5 63,-7 23,-2 47,-3 71,-5 16,0 32,0 48,0 1,0 1,0 2,-1 6,-3 13,-6 20,-9 11,2 22,3 34,5 13,8 26,16 40,24 5,-1 11,-1 16,-1 9,-19 17,-37 26,-56 10,1 20,2 31,2 7,9 14,18 22,27 2,1 5,3 8,5 -1,13 -2,26 -3,40 -7,8 -13,16 -19,24 -13,12 -26,23 -39,34 -10,4 -20,9 -30,13 -8,14 -17,27 -25,41 0,2 0,5 1,7 0,7 1,14 2,21 3,9 5,18 8,27 0,0 1,0 1,0 4,7 8,14 13,21 15,11 30,23 46,35 1,5 1,9 2,14 2,12 3,25 4,38 -14,-3 -28,-7 -42,-10 -3,-1 -7,-2 -10,-4 -8,5 -16,9 -24,14 -5,11 -9,22 -14,33 0,12 0,24 0,35 0,2 1,5 1,7 -6,-2 -12,-5 -18,-7 -5,-2 -10,-4 -15,-6 -6,-4 -11,-8 -17,-12 -6,-3 -13,-7 -19,-10 -1,0 -2,1 -3,1 -2,1 -4,2 -5,3 -2,2 -3,5 -5,7 -3,6 -6,11 -9,17 -2,3 -4,7 -6,10 -4,1 -9,2 -13,3 -3,0 -7,0 -11,0 -3,2 -6,3 -9,4 -3,2 -5,3 -7,5 -3,4 -5,7 -8,11 -1,4 -2,7 -3,11 -2,5 -5,9 -7,14 -4,3 -7,6 -11,10 -4,2 -8,5 -13,7 -3,2 -7,5 -10,7 -2,1 -3,2 -4,3 -4,7 -8,14 -12,21 -3,8 -5,15 -8,23 -1,9 -2,17 -3,25 -2,6 -4,13 -6,19 -1,6 -2,12 -3,18 0,6 -1,13 -1,20 -2,3 -3,6 -4,9 -3,1 -6,1 -9,2 -3,-1 -7,-2 -11,-4 -2,-3 -5,-5 -7,-8 -3,0 -6,-1 -8,-1 -2,2 -3,3 -4,5 -1,3 -2,6 -4,10 -1,4 -2,8 -3,12 -2,2 -4,5 -6,8 -3,2 -6,4 -9,6 -3,-1 -6,-2 -9,-3 -4,-3 -7,-7 -11,-10 -5,-4 -11,-9 -17,-14 -4,1 -8,1 -12,2 -5,1 -10,2 -15,3 -6,0 -11,1 -17,2 -1,0 -3,0 -5,1 -5,2 -11,4 -17,6 -3,3 -7,6 -11,9 -2,4 -4,9 -6,13 -2,6 -3,12 -4,18 -4,2 -8,4 -12,6 -4,2 -8,3 -12,5 -4,-1 -8,-1 -12,-2 -5,-1 -10,-3 -15,-4 -4,-3 -8,-5 -12,-7 -3,-3 -5,-5 -8,-8 1,-3 1,-6 2,-9 0,-5 0,-9 0,-13 0,-3 0,-6 0,-10 -2,-3 -4,-6 -6,-8 -4,-2 -7,-3 -11,-4 -4,1 -9,2 -13,3 -1,3 -3,5 -4,8 -2,1 -5,2 -8,3 -2,0 -5,-1 -8,-1 0,-5 -1,-10 -1,-15 -1,-7 -2,-13 -3,-19 -2,-6 -4,-12 -6,-18 -2,-1 -3,-3 -5,-5 -3,0 -7,0 -10,-1 -3,-1 -5,-2 -7,-3 -2,-2 -5,-4 -7,-6 -1,1 -2,1 -3,2 -1,1 -3,1 -4,2 -2,2 -3,4 -5,6 -5,1 -9,2 -14,2 -4,1 -8,1 -12,2 -2,-2 -5,-4 -7,-5 -4,-5 -7,-9 -11,-14 -4,-1 -8,-3 -12,-5 -7,1 -13,1 -20,1 -5,3 -9,5 -14,8 -5,4 -9,8 -13,13 -3,6 -5,12 -8,18 -5,6 -10,13 -14,20 -7,4 -14,9 -20,14 -7,1 -14,2 -21,4 -7,1 -14,1 -21,2 -6,2 -11,3 -16,5 -5,3 -10,6 -16,9 -1,1 -2,1 -3,2 -5,2 -10,4 -16,6 -7,1 -13,3 -20,4 -3,2 -6,4 -9,6 -3,4 -6,8 -9,12 -3,4 -6,8 -9,12 -2,1 -4,2 -6,3 -3,0 -6,0 -9,-1 -4,-2 -7,-4 -11,-6 -5,1 -11,2 -16,3 -2,1 -4,2 -6,3 -3,2 -5,4 -8,6 -3,1 -7,2 -10,3 -3,-1 -7,-2 -10,-3 -3,-5 -5,-9 -8,-13 -3,-6 -7,-12 -10,-17 -4,-6 -9,-12 -13,-18 -5,0 -10,0 -15,0 -4,2 -8,4 -12,6 -3,3 -6,5 -9,8 -4,3 -7,7 -11,10 -4,3 -8,5 -13,7 -5,2 -10,3 -15,5 -5,4 -11,7 -16,10 -4,4 -8,7 -12,11 -6,0 -12,0 -18,0 -4,-2 -8,-4 -12,-6 -4,-3 -9,-7 -13,-10 -4,-4 -9,-8 -14,-11 -2,-7 -5,-14 -8,-21 -1,-2 -2,-4 -4,-6 -1,-2 -2,-4 -3,-6 -6,-4 -11,-7 -17,-11 -7,1 -14,1 -21,1 -3,2 -7,5 -11,7 -3,0 -7,0 -11,0 -2,-3 -3,-6 -5,-9 -2,-4 -5,-7 -7,-10 -5,-5 -10,-10 -14,-14 -1,0 -2,0 -2,0 -3,1 -6,2 -10,3 -3,4 -6,8 -10,12 -6,4 -12,8 -18,12 -9,5 -18,10 -28,14 -10,2 -20,3 -30,5 -3,0 -6,0 -10,0 -6,0 -12,0 -19,0 -8,-2 -17,-3 -26,-5 -8,-4 -15,-8 -23,-12 -2,-12 -4,-25 -6,-37 -5,-10 -10,-20 -16,-30 -10,-11 -20,-21 -30,-31 1,-14 1,-27 1,-40 0,-15 1,-30 1,-45 2,-10 4,-20 6,-30 5,-5 10,-10 15,-15 5,-3 11,-7 17,-10 8,-3 17,-5 26,-8 14,-8 27,-16 41,-24 10,-1 20,-2 30,-3 0,0 0,0 0,0 14,-16 27,-33 40,-49 9,-6 18,-12 27,-17 11,-11 22,-22 34,-32 6,-5 13,-9 20,-13 3,-1 6,-2 10,-3 21,0 41,0 62,0 6,0 11,0 17,0 6,1 12,3 18,4 5,-1 10,-2 15,-4 7,-1 15,-2 22,-3 0,-3 0,-7 1,-10 0,-4 0,-8 0,-13 -19,-6 -37,-13 -55,-20 -7,-3 -15,-6 -22,-9 -1,-5 -2,-11 -3,-17 0,0 0,-1 0,-2 -7,-3 -15,-6 -23,-8 -10,-2 -21,-3 -32,-4 -8,-5 -16,-10 -25,-15 -6,-6 -11,-12 -17,-18 0,-8 -1,-17 -1,-25 4,-5 8,-10 11,-15 9,-7 18,-15 27,-22 0,-2 0,-3 1,-4 1,-4 1,-7 2,-11 -4,-5 -9,-11 -13,-17 -13,-3 -25,-7 -38,-10 -6,-3 -13,-6 -19,-8 0,-5 0,-10 0,-14 10,-6 20,-12 30,-19 14,-8 27,-16 41,-24 23,0 46,-1 69,-1 2,-3 5,-5 8,-7 1,-1 2,-2 4,-3 -18,-10 -36,-21 -53,-31 0,-10 1,-20 1,-30 -7,-1 -15,-2 -23,-3 -10,-7 -21,-13 -31,-20 -5,-10 -9,-19 -14,-28 -5,-4 -11,-7 -16,-10 -2,-11 -5,-21 -7,-31 1,-2 3,-5 4,-7 -2,-10 -5,-20 -7,-30 -4,-1 -8,-3 -12,-4 -8,-1 -16,-3 -24,-4 -3,-7 -7,-13 -10,-20 -3,-10 -6,-19 -9,-29 18,-13 37,-26 55,-39 12,5 25,9 37,14 13,6 25,12 37,18 28,7 55,14 82,21 13,4 25,9 38,14 3,7 6,15 9,22 2,15 4,30 6,44 9,7 19,13 28,19 7,2 14,4 20,6 17,5 35,11 52,17 3,8 6,17 10,25 4,4 7,7 11,11 10,1 20,2 30,3 15,6 29,13 44,19 7,3 14,5 22,8z"/>
   </g>
   <g>
    <path fill="#366545" d="M630 341c4,1 7,2 11,4 9,-6 18,-12 26,-18 10,-2 20,-5 30,-8 6,3 12,7 19,10 13,15 25,29 38,44 6,7 11,15 17,22 15,1 30,1 45,1 4,0 7,0 11,0 9,-3 18,-7 28,-11 15,4 30,8 45,11 9,-3 17,-5 26,-8 17,2 34,5 51,7 27,13 54,26 81,39 9,7 17,14 26,20 1,0 1,0 2,0 18,-3 36,-6 53,-8 9,-12 18,-23 27,-34 8,-2 16,-4 25,-6 2,8 5,16 7,24 6,10 11,20 16,30 1,0 1,0 1,0 21,-2 42,-5 63,-7 24,-1 47,-3 71,-4 16,0 32,-1 49,-1 0,0 1,0 1,0 7,-3 13,-6 20,-9 11,1 23,3 34,4 13,8 27,16 40,24 6,0 11,-1 17,-1 8,-19 17,-37 25,-56 11,1 21,2 31,3 7,8 15,17 22,26 3,2 5,3 8,5 -1,13 -2,27 -3,40 -6,8 -13,16 -19,25 -13,11 -26,22 -39,33 -10,5 -20,9 -30,13 -8,14 -17,28 -25,41 0,3 1,5 1,8 1,7 1,13 2,20 3,9 6,18 9,27 0,0 0,0 0,1 4,6 9,13 13,20 15,12 31,24 46,35 1,5 2,9 3,14 1,13 2,26 4,38 -14,-3 -28,-6 -42,-10 -4,-1 -7,-2 -11,-3 -8,4 -16,9 -24,13 -4,11 -9,22 -14,33 0,12 0,24 0,36 0,2 1,4 2,6 -6,-2 -12,-4 -19,-6 -5,-3 -10,-5 -15,-7 -5,-4 -11,-8 -16,-12 -7,-3 -13,-7 -20,-10 -1,1 -2,1 -2,2 -2,1 -4,1 -6,2 -2,3 -3,5 -5,8 -2,5 -5,11 -8,16 -2,4 -5,7 -7,11 -4,1 -8,2 -12,3 -4,0 -8,0 -11,0 -3,1 -7,2 -10,3 -2,2 -5,3 -7,5 -2,4 -5,8 -7,12 -1,3 -2,7 -4,10 -2,5 -4,9 -7,14 -3,3 -7,7 -10,10 -5,2 -9,5 -13,7 -4,3 -7,5 -11,7 -1,1 -3,2 -4,3 -4,7 -8,14 -12,21 -2,8 -5,16 -8,24 -1,8 -2,16 -3,24 -2,7 -4,13 -6,20 -1,5 -2,11 -2,17 -1,7 -1,13 -2,20 -1,3 -3,6 -4,9 -3,1 -5,2 -8,2 -4,-1 -8,-2 -12,-3 -2,-3 -4,-6 -6,-9 -3,0 -6,0 -9,0 -1,1 -3,3 -4,4 -1,3 -2,7 -3,10 -1,4 -2,8 -3,12 -3,3 -5,5 -7,8 -3,2 -6,5 -9,7 -3,-1 -6,-3 -9,-4 -3,-3 -7,-6 -10,-9 -6,-5 -12,-10 -17,-15 -4,1 -8,1 -12,2 -6,1 -11,2 -16,3 -6,1 -11,1 -16,2 -2,0 -4,1 -5,1 -6,2 -12,4 -17,7 -4,2 -8,5 -12,8 -2,5 -4,9 -6,13 -1,6 -2,13 -4,19 -4,2 -8,4 -12,6 -4,1 -8,2 -12,4 -4,-1 -8,-1 -12,-2 -5,-1 -10,-3 -15,-4 -4,-2 -8,-5 -12,-7 -2,-2 -5,-5 -7,-7 0,-4 1,-7 1,-10 0,-4 0,-8 0,-12 0,-4 0,-7 0,-11 -2,-2 -4,-5 -5,-8 -4,-1 -8,-2 -12,-4 -4,1 -8,2 -13,3 -1,3 -2,5 -3,8 -3,1 -6,2 -8,4 -3,-1 -6,-1 -8,-2 -1,-5 -1,-10 -2,-15 -1,-6 -2,-12 -3,-19 -2,-6 -4,-11 -6,-17 -1,-2 -3,-4 -4,-5 -4,-1 -7,-1 -11,-2 -2,-1 -5,-2 -7,-3 -2,-2 -4,-4 -7,-6 -1,1 -1,1 -2,2 -2,1 -3,2 -5,3 -1,2 -3,4 -4,6 -5,0 -10,1 -15,2 -4,0 -8,1 -11,1 -3,-2 -5,-3 -8,-5 -4,-4 -7,-9 -11,-13 -4,-2 -8,-4 -12,-5 -6,0 -13,0 -19,0 -5,3 -10,5 -15,8 -4,4 -9,9 -13,13 -2,6 -5,12 -8,18 -5,7 -9,13 -14,20 -7,5 -13,9 -20,14 -7,1 -14,3 -20,4 -8,1 -15,2 -22,3 -5,1 -11,3 -16,4 -5,3 -10,7 -15,10 -1,0 -2,1 -4,1 -5,2 -10,4 -15,6 -7,2 -14,3 -21,4 -3,2 -6,5 -8,7 -4,4 -7,8 -10,12 -2,4 -5,8 -8,11 -2,1 -4,3 -6,4 -3,-1 -6,-1 -9,-1 -4,-2 -8,-5 -12,-7 -5,1 -10,2 -15,3 -3,1 -5,2 -7,3 -3,2 -5,4 -7,6 -4,1 -7,2 -11,4 -3,-2 -6,-3 -9,-4 -3,-4 -6,-9 -9,-13 -3,-6 -6,-11 -9,-17 -5,-6 -9,-12 -14,-18 -5,0 -10,0 -15,0 -4,2 -8,4 -12,6 -3,3 -6,5 -9,8 -3,4 -7,7 -10,11 -5,2 -9,4 -13,6 -6,2 -11,4 -16,5 -5,4 -10,7 -16,11 -3,3 -7,7 -11,10 -6,0 -12,0 -19,0 -4,-2 -8,-4 -12,-5 -4,-4 -8,-7 -13,-11 -4,-4 -9,-7 -13,-11 -3,-7 -6,-14 -8,-20 -2,-3 -3,-5 -4,-7 -2,-2 -3,-4 -4,-6 -5,-4 -11,-7 -16,-11 -7,1 -14,1 -22,2 -3,2 -7,4 -10,6 -4,0 -8,0 -12,0 -2,-3 -3,-6 -5,-9 -2,-3 -5,-7 -7,-10 -5,-5 -9,-9 -14,-14 -1,0 -1,1 -2,1 -3,1 -6,1 -9,2 -4,4 -7,8 -10,12 -6,4 -12,9 -18,13 -10,4 -19,9 -29,13 -10,2 -20,4 -30,5 -3,0 -6,0 -9,0 -7,0 -13,0 -19,0 -9,-1 -18,-3 -26,-5 -8,-4 -16,-7 -24,-11 -2,-13 -4,-25 -6,-38 -5,-10 -10,-20 -15,-30 -10,-10 -20,-21 -30,-31 0,-13 0,-27 0,-40 1,-15 1,-30 1,-45 2,-10 4,-20 6,-30 5,-5 10,-10 15,-15 6,-3 11,-6 17,-10 9,-2 18,-5 26,-8 14,-7 28,-15 41,-23 10,-2 20,-3 30,-4 0,0 0,0 1,0 13,-16 26,-33 40,-49 9,-6 17,-11 26,-17 11,-11 23,-21 34,-32 7,-4 13,-8 20,-13 3,-1 7,-2 10,-3 21,0 42,0 62,0 6,0 11,0 17,0 6,2 13,3 19,4 5,-1 9,-2 14,-3 8,-2 15,-3 23,-4 0,-3 0,-6 0,-9 0,-5 0,-9 0,-13 -18,-7 -37,-14 -55,-21 -7,-3 -14,-6 -22,-8 -1,-6 -2,-12 -2,-18 0,0 0,-1 0,-1 -8,-3 -16,-6 -23,-9 -11,-1 -22,-3 -32,-4 -9,-5 -17,-10 -26,-15 -5,-6 -11,-12 -16,-18 -1,-8 -1,-16 -2,-25 4,-5 8,-10 12,-15 9,-7 17,-14 26,-22 0,-1 1,-3 1,-4 1,-4 2,-7 3,-11 -5,-5 -9,-11 -14,-16 -12,-4 -25,-8 -38,-11 -6,-3 -12,-5 -18,-8 -1,-5 -1,-9 -1,-14 10,-6 20,-12 31,-18 13,-8 27,-17 40,-25 23,0 46,-1 69,-1 3,-2 5,-5 8,-7 1,-1 3,-2 4,-3 -17,-10 -35,-21 -53,-31 1,-10 1,-20 2,-30 -8,-1 -16,-2 -24,-2 -10,-7 -21,-14 -31,-21 -5,-9 -9,-19 -13,-28 -6,-3 -11,-7 -17,-10 -2,-10 -4,-21 -7,-31 2,-2 3,-4 4,-6 -2,-11 -4,-21 -6,-31 -5,-1 -9,-2 -13,-3 -8,-2 -16,-3 -23,-5 -4,-6 -7,-13 -11,-20 -2,-9 -5,-19 -8,-28 18,-13 36,-27 54,-40 13,5 25,10 38,14 12,6 24,12 37,19 27,6 54,13 81,20 13,5 26,9 38,14 3,8 7,15 10,22 1,15 3,30 5,45 10,6 19,12 29,18 6,2 13,4 19,6 18,6 35,11 52,17 3,8 7,17 10,25 4,4 8,7 12,11 10,1 20,2 30,3 14,7 29,13 43,20 7,2 15,4 22,7z"/>
   </g>
   <g>
    <path fill="#3A6A49" d="M631 333c3,1 7,3 10,4 9,-6 18,-12 27,-17 10,-3 19,-6 29,-9 7,4 13,7 19,11 13,14 26,29 39,43 5,8 11,15 16,23 15,0 30,0 45,1 4,0 8,0 11,0 10,-4 19,-8 28,-12 15,4 30,8 46,12 8,-3 17,-6 25,-9 17,3 34,5 51,8 27,13 54,25 81,38 9,7 18,14 26,21 1,-1 2,-1 2,-1 18,-3 36,-5 54,-8 9,-11 18,-22 27,-34 8,-2 16,-3 24,-5 2,8 5,15 8,23 5,10 10,20 16,30 0,0 0,0 0,0 21,-2 42,-4 64,-6 23,-2 47,-3 70,-5 16,0 33,0 49,0 0,-1 1,-1 1,-1 7,-3 14,-6 20,-9 12,1 23,3 34,4 14,8 27,16 40,24 6,0 11,0 17,-1 8,-18 17,-37 26,-55 10,1 20,1 30,2 8,9 15,18 23,26 2,2 5,4 7,5 -1,14 -2,27 -3,40 -6,8 -12,17 -19,25 -13,11 -25,22 -38,34 -10,4 -20,8 -30,13 -9,13 -17,27 -26,40 1,3 1,6 1,8 1,7 2,14 2,20 3,9 6,18 9,27 0,1 0,1 1,1 4,7 8,13 12,20 16,12 31,24 46,36 1,4 2,9 3,13 1,13 3,26 4,39 -14,-4 -28,-7 -42,-10 -4,-2 -7,-3 -11,-4 -7,4 -15,9 -23,13 -5,11 -10,23 -14,34 -1,11 -1,23 -1,35 1,2 1,4 2,6 -6,-2 -12,-4 -18,-6 -5,-2 -10,-5 -15,-7 -6,-4 -12,-8 -17,-11 -7,-4 -13,-7 -20,-11 0,1 -1,1 -2,2 -2,1 -4,2 -6,3 -1,2 -3,5 -4,7 -3,5 -6,11 -9,16 -2,4 -4,7 -7,11 -4,1 -8,2 -12,3 -4,0 -7,0 -11,0 -3,1 -6,2 -10,4 -2,1 -4,3 -7,4 -2,4 -4,8 -7,12 -1,3 -2,7 -3,11 -3,4 -5,9 -7,13 -4,4 -8,7 -11,10 -4,3 -9,5 -13,7 -3,3 -7,5 -10,8 -2,0 -3,1 -5,2 -3,7 -7,14 -11,21 -3,8 -6,16 -8,24 -1,8 -2,16 -3,24 -2,7 -5,13 -7,20 0,6 -1,11 -2,17 -1,7 -1,14 -2,20 -1,3 -2,6 -4,9 -2,1 -5,2 -8,3 -4,-2 -8,-3 -11,-4 -3,-3 -5,-6 -7,-9 -3,0 -6,0 -9,0 -1,1 -2,3 -3,4 -2,4 -3,7 -4,10 -1,4 -2,8 -3,12 -2,3 -4,6 -7,8 -2,3 -5,5 -8,7 -3,-1 -6,-2 -9,-4 -4,-3 -7,-6 -11,-9 -6,-5 -11,-10 -17,-14 -4,0 -8,1 -12,1 -5,1 -10,2 -16,3 -5,1 -11,1 -16,2 -2,0 -3,1 -5,1 -6,2 -11,5 -17,7 -4,3 -8,6 -12,9 -2,4 -4,8 -6,13 -1,6 -2,12 -3,18 -4,2 -8,4 -13,6 -3,1 -7,3 -11,4 -4,0 -8,-1 -12,-1 -5,-2 -11,-3 -16,-5 -4,-2 -7,-4 -11,-7 -3,-2 -5,-5 -8,-7 1,-3 1,-7 2,-10 0,-4 0,-8 0,-12 0,-4 0,-7 0,-10 -2,-3 -4,-6 -6,-9 -4,-1 -8,-2 -11,-3 -5,1 -9,2 -13,3 -2,2 -3,5 -4,7 -3,1 -5,3 -8,4 -3,-1 -5,-1 -8,-2 0,-5 -1,-10 -1,-15 -1,-6 -3,-12 -4,-18 -2,-6 -4,-12 -5,-18 -2,-2 -3,-3 -5,-5 -4,0 -7,-1 -11,-1 -2,-1 -4,-3 -6,-4 -3,-2 -5,-3 -7,-5 -1,0 -2,1 -3,1 -2,1 -3,2 -5,3 -1,2 -3,4 -4,6 -5,1 -10,1 -14,2 -4,0 -8,1 -12,1 -3,-1 -5,-3 -8,-5 -3,-4 -7,-9 -10,-13 -4,-2 -9,-3 -13,-5 -6,0 -12,0 -19,0 -5,3 -10,6 -15,8 -4,5 -8,9 -12,13 -3,6 -6,12 -8,18 -5,7 -10,14 -15,21 -6,4 -13,9 -20,13 -6,1 -13,3 -20,4 -7,1 -15,2 -22,3 -5,1 -10,3 -16,4 -5,4 -10,7 -15,10 -1,1 -2,1 -3,2 -6,2 -11,4 -16,6 -7,1 -14,2 -21,4 -2,2 -5,4 -8,6 -3,4 -6,8 -9,12 -3,4 -6,8 -9,12 -2,1 -4,2 -6,3 -3,0 -6,-1 -9,-1 -4,-2 -8,-4 -11,-6 -6,1 -11,1 -16,2 -2,1 -5,2 -7,3 -2,2 -5,4 -7,6 -3,2 -7,3 -10,4 -4,-1 -7,-2 -10,-4 -3,-4 -6,-8 -8,-13 -4,-5 -7,-11 -10,-17 -4,-6 -9,-12 -13,-18 -5,0 -10,0 -16,0 -4,2 -8,4 -12,7 -2,2 -5,5 -8,7 -4,4 -7,7 -11,11 -4,2 -9,4 -13,7 -5,1 -10,3 -15,5 -6,3 -11,7 -16,10 -4,3 -8,7 -12,10 -6,0 -12,0 -18,0 -4,-1 -8,-3 -12,-5 -5,-4 -9,-7 -13,-11 -5,-3 -9,-7 -14,-11 -3,-7 -5,-13 -8,-20 -1,-2 -3,-4 -4,-6 -1,-3 -2,-5 -4,-7 -5,-3 -10,-7 -16,-10 -7,0 -14,0 -21,1 -4,2 -7,4 -11,6 -4,0 -8,0 -12,0 -1,-3 -3,-6 -4,-9 -3,-3 -5,-7 -8,-10 -4,-4 -9,-9 -14,-14 0,1 -1,1 -2,1 -3,1 -6,2 -9,3 -3,4 -7,8 -10,12 -6,4 -12,8 -18,12 -9,4 -19,9 -28,14 -10,1 -20,3 -30,5 -4,0 -7,0 -10,0 -6,0 -13,0 -19,0 -9,-2 -17,-4 -26,-5 -8,-4 -16,-8 -24,-12 -2,-13 -4,-25 -6,-38 -5,-10 -10,-20 -15,-30 -10,-10 -20,-20 -30,-31 0,-13 0,-26 1,-40 0,-15 0,-29 1,-44 1,-10 3,-20 5,-31 5,-5 10,-9 16,-14 5,-4 11,-7 16,-11 9,-2 18,-5 27,-7 13,-8 27,-16 40,-24 10,-1 20,-2 30,-4 1,0 1,0 1,0 13,-16 27,-32 40,-49 9,-5 18,-11 26,-17 12,-10 23,-21 35,-32 6,-4 13,-8 19,-12 4,-1 7,-2 11,-3 20,0 41,0 62,0 5,0 11,0 16,0 7,1 13,2 19,3 5,-1 10,-2 14,-3 8,-1 15,-3 23,-4 0,-3 0,-6 0,-9 0,-4 0,-9 0,-13 -18,-7 -36,-14 -54,-21 -8,-3 -15,-5 -22,-8 -1,-6 -2,-12 -3,-17 0,-1 0,-2 0,-2 -8,-3 -15,-6 -23,-9 -11,-1 -21,-2 -32,-4 -8,-5 -17,-10 -25,-15 -6,-6 -11,-12 -17,-18 0,-8 -1,-16 -1,-25 4,-4 7,-9 11,-14 9,-8 18,-15 27,-23 0,-1 0,-2 0,-4 1,-3 2,-7 3,-10 -5,-6 -9,-11 -14,-17 -12,-4 -25,-7 -37,-11 -7,-3 -13,-5 -19,-8 0,-4 0,-9 -1,-14 11,-6 21,-12 31,-18 14,-8 27,-16 41,-24 23,-1 45,-1 68,-2 3,-2 6,-4 8,-7 2,-1 3,-2 5,-3 -18,-10 -36,-20 -54,-31 1,-10 1,-20 2,-30 -8,0 -16,-1 -23,-2 -11,-7 -21,-14 -32,-20 -4,-10 -9,-19 -13,-29 -6,-3 -11,-6 -16,-10 -3,-10 -5,-20 -7,-31 1,-2 2,-4 4,-6 -3,-10 -5,-21 -7,-31 -4,-1 -9,-2 -13,-3 -8,-2 -15,-3 -23,-4 -3,-7 -7,-14 -10,-21 -3,-9 -6,-19 -9,-28 18,-13 36,-26 55,-39 12,4 25,9 37,13 12,7 25,13 37,19 27,7 55,13 82,20 12,5 25,10 38,14 3,8 6,15 9,23 2,14 4,29 5,44 10,6 19,12 29,18 7,2 13,4 20,6 17,6 34,12 52,17 3,9 6,17 9,26 4,3 8,7 12,10 10,1 20,2 30,3 14,7 29,13 43,20 8,2 15,5 23,7z"/>
   </g>
   <g>
    <path fill="#3E6F4E" d="M631 325c4,2 7,3 11,4 8,-6 17,-11 26,-17 10,-3 20,-6 30,-8 6,3 12,6 18,10 13,14 26,29 39,44 5,7 11,15 16,22 15,0 31,1 46,1 3,0 7,0 11,0 9,-4 18,-8 27,-11 16,3 31,7 46,11 8,-3 17,-6 25,-9 17,3 34,5 51,8 27,13 55,26 82,39 8,6 17,13 26,20 0,0 1,0 2,-1 17,-2 35,-5 53,-8 9,-11 18,-22 27,-33 8,-2 16,-4 24,-6 3,8 5,16 8,23 5,10 11,20 16,30 0,0 1,0 1,0 21,-2 42,-4 63,-6 23,-2 47,-3 71,-5 16,0 32,0 48,0 1,0 1,-1 2,-1 6,-3 13,-6 20,-9 11,2 22,3 34,5 13,8 26,16 40,24 5,-1 11,-1 16,-2 9,-18 17,-36 26,-55 10,1 21,2 31,2 7,9 15,18 22,27 3,1 5,3 8,5 -1,13 -2,26 -3,39 -7,9 -13,17 -19,25 -13,11 -26,23 -39,34 -10,4 -20,9 -30,13 -8,14 -17,27 -25,41 0,2 0,5 1,7 0,7 1,14 2,21 3,9 5,18 8,27 1,0 1,0 1,0 4,7 8,14 13,20 15,12 30,24 46,36 1,4 2,9 2,13 2,13 3,26 5,39 -15,-3 -29,-7 -43,-10 -3,-1 -7,-3 -10,-4 -8,5 -16,9 -24,14 -5,11 -9,22 -14,33 0,12 0,23 0,35 0,2 1,4 1,7 -6,-3 -12,-5 -18,-7 -5,-2 -10,-4 -15,-7 -6,-3 -11,-7 -17,-11 -6,-4 -13,-7 -19,-10 -1,0 -2,1 -3,1 -2,1 -4,2 -5,3 -2,2 -3,5 -5,7 -3,6 -6,11 -9,16 -2,4 -4,8 -6,11 -4,1 -9,2 -13,3 -3,0 -7,0 -11,0 -3,1 -6,3 -9,4 -3,1 -5,3 -7,4 -3,4 -5,8 -7,12 -2,4 -3,7 -4,11 -2,4 -5,9 -7,13 -4,4 -7,7 -11,11 -4,2 -8,4 -13,7 -3,2 -7,5 -10,7 -1,1 -3,2 -4,2 -4,7 -8,14 -12,21 -3,8 -5,16 -8,24 -1,8 -2,17 -3,25 -2,6 -4,13 -6,19 -1,6 -2,12 -3,17 0,7 -1,14 -1,21 -2,3 -3,6 -4,9 -3,0 -6,1 -8,2 -4,-1 -8,-3 -12,-4 -2,-3 -5,-6 -7,-8 -3,-1 -6,-1 -8,-1 -2,2 -3,3 -4,5 -1,3 -2,6 -4,9 -1,4 -2,9 -3,13 -2,2 -4,5 -6,8 -3,2 -6,4 -9,6 -3,-1 -6,-2 -9,-3 -4,-4 -7,-7 -11,-10 -5,-5 -11,-9 -17,-14 -4,0 -8,1 -12,1 -5,1 -10,2 -15,3 -6,1 -11,2 -17,2 -1,1 -3,1 -5,1 -5,3 -11,5 -17,7 -3,3 -7,6 -11,9 -2,4 -4,9 -6,13 -2,6 -3,12 -4,18 -4,2 -8,4 -12,6 -4,2 -8,3 -12,4 -4,0 -8,-1 -12,-1 -5,-2 -10,-3 -15,-5 -4,-2 -8,-4 -12,-6 -3,-3 -5,-5 -8,-8 1,-3 1,-6 2,-10 0,-4 0,-8 0,-12 0,-3 0,-7 0,-10 -2,-3 -4,-6 -6,-9 -3,-1 -7,-2 -11,-3 -4,1 -9,2 -13,3 -1,2 -3,5 -4,7 -2,2 -5,3 -8,4 -2,0 -5,-1 -8,-1 0,-5 0,-11 -1,-16 -1,-6 -2,-12 -3,-18 -2,-6 -4,-12 -6,-18 -2,-2 -3,-3 -5,-5 -3,0 -7,-1 -10,-1 -3,-1 -5,-2 -7,-3 -2,-2 -5,-4 -7,-6 -1,0 -2,1 -3,2 -1,0 -3,1 -4,2 -2,2 -3,4 -5,6 -5,1 -9,1 -14,2 -4,1 -8,1 -12,2 -2,-2 -5,-4 -7,-5 -4,-5 -7,-9 -11,-14 -4,-1 -8,-3 -12,-5 -7,0 -13,1 -20,1 -4,2 -9,5 -14,7 -5,5 -9,9 -13,14 -3,6 -5,11 -8,17 -5,7 -10,14 -14,21 -7,4 -14,9 -20,13 -7,2 -14,3 -21,4 -7,1 -14,2 -21,3 -6,2 -11,3 -16,5 -5,3 -10,6 -16,9 -1,1 -2,1 -3,2 -5,2 -10,4 -16,6 -7,1 -13,3 -20,4 -3,2 -6,4 -9,6 -3,4 -6,8 -9,12 -3,4 -6,8 -8,12 -3,1 -5,2 -7,3 -3,0 -6,-1 -9,-1 -4,-2 -7,-4 -11,-6 -5,1 -11,2 -16,2 -2,1 -4,2 -6,3 -3,3 -5,5 -8,7 -3,1 -7,2 -10,3 -3,-1 -7,-2 -10,-3 -3,-5 -5,-9 -8,-14 -3,-5 -6,-11 -10,-16 -4,-6 -8,-13 -13,-19 -5,0 -10,0 -15,0 -4,3 -8,5 -12,7 -3,2 -6,5 -9,8 -3,3 -7,7 -11,10 -4,2 -8,5 -13,7 -5,2 -10,3 -15,5 -5,3 -11,7 -16,10 -4,4 -8,7 -12,11 -6,0 -12,0 -18,0 -4,-2 -8,-4 -12,-6 -4,-3 -9,-7 -13,-10 -4,-4 -9,-8 -13,-12 -3,-6 -6,-13 -9,-20 -1,-2 -2,-4 -4,-6 -1,-2 -2,-4 -3,-7 -6,-3 -11,-7 -17,-10 -7,0 -14,1 -21,1 -3,2 -7,5 -10,7 -4,0 -8,0 -12,0 -2,-3 -3,-6 -5,-9 -2,-4 -5,-7 -7,-11 -5,-4 -10,-9 -14,-13 -1,0 -2,0 -2,0 -3,1 -6,2 -9,3 -4,4 -7,8 -11,12 -6,4 -12,8 -18,12 -9,5 -18,9 -28,14 -10,2 -20,3 -30,5 -3,0 -6,0 -10,0 -6,0 -12,0 -19,0 -8,-2 -17,-3 -26,-5 -8,-4 -15,-8 -23,-12 -2,-12 -4,-25 -6,-37 -5,-10 -10,-20 -16,-30 -10,-11 -20,-21 -30,-31 1,-14 1,-27 1,-41 0,-14 1,-29 1,-44 2,-10 4,-20 6,-30 5,-5 10,-10 15,-15 6,-3 11,-7 17,-10 8,-3 17,-5 26,-8 14,-8 27,-16 41,-24 10,-1 20,-2 30,-3 0,0 0,0 0,0 14,-17 27,-33 40,-49 9,-6 18,-12 27,-18 11,-10 23,-21 34,-31 6,-5 13,-9 20,-13 3,-1 7,-2 10,-3 21,0 41,0 62,0 6,0 11,0 17,0 6,1 12,2 19,4 4,-1 9,-3 14,-4 7,-1 15,-2 22,-3 0,-4 0,-7 1,-10 0,-4 0,-8 0,-13 -19,-7 -37,-14 -55,-21 -7,-2 -15,-5 -22,-8 -1,-6 -2,-11 -3,-17 0,-1 0,-1 0,-2 -7,-3 -15,-6 -23,-9 -10,-1 -21,-2 -32,-3 -8,-5 -16,-10 -25,-16 -6,-5 -11,-11 -17,-17 0,-9 0,-17 -1,-25 4,-5 8,-10 11,-15 9,-7 18,-15 27,-22 0,-2 0,-3 1,-4 1,-4 1,-7 2,-11 -4,-6 -9,-11 -13,-17 -13,-3 -25,-7 -38,-11 -6,-2 -12,-5 -19,-8 0,-4 0,-9 0,-13 10,-6 20,-13 30,-19 14,-8 27,-16 41,-24 23,-1 46,-1 69,-2 2,-2 5,-4 8,-6 1,-1 3,-2 4,-3 -18,-11 -35,-21 -53,-31 0,-10 1,-20 1,-30 -7,-1 -15,-2 -23,-3 -10,-7 -21,-13 -31,-20 -5,-10 -9,-19 -14,-29 -5,-3 -11,-6 -16,-9 -2,-11 -5,-21 -7,-31 1,-3 3,-5 4,-7 -2,-10 -4,-20 -7,-30 -4,-2 -8,-3 -12,-4 -8,-1 -16,-3 -24,-4 -3,-7 -6,-14 -10,-20 -3,-10 -6,-19 -9,-29 18,-13 37,-26 55,-39 12,5 25,9 37,14 13,6 25,12 38,18 27,7 54,14 81,20 13,5 25,10 38,15 3,7 6,15 9,22 2,15 4,30 6,44 9,6 19,12 28,19 7,2 14,4 20,6 17,5 35,11 52,16 3,9 6,17 10,26 4,3 8,7 11,10 10,1 20,2 30,3 15,7 29,14 44,20 7,3 15,5 22,7z"/>
   </g>
   <g>
    <path fill="#437552" d="M631 318c4,1 7,2 11,3 9,-5 18,-11 26,-17 10,-3 20,-5 30,-8 6,3 12,7 19,10 13,15 25,29 38,44 6,7 11,15 17,22 15,1 30,1 45,1 4,0 7,0 11,0 9,-4 18,-7 28,-11 15,4 30,7 45,11 9,-3 17,-6 26,-8 17,2 34,5 51,7 27,13 54,26 81,39 9,7 17,13 26,20 1,0 1,0 2,0 18,-3 36,-6 53,-8 9,-12 18,-23 27,-34 8,-2 16,-4 25,-6 2,8 5,16 7,24 6,10 11,20 17,30 0,0 0,0 0,0 21,-3 42,-5 63,-7 24,-1 47,-3 71,-4 16,-1 32,-1 49,-1 0,0 1,0 1,-1 7,-3 13,-6 20,-9 11,2 23,3 34,5 13,8 27,16 40,24 6,-1 11,-1 17,-1 8,-19 17,-37 25,-56 11,1 21,2 31,3 7,8 15,17 22,26 3,2 5,3 8,5 -1,13 -2,26 -3,40 -6,8 -13,16 -19,24 -13,12 -26,23 -39,34 -10,5 -20,9 -30,13 -8,14 -16,27 -25,41 0,3 1,5 1,8 1,6 1,13 2,20 3,9 6,18 9,27 0,0 0,0 0,0 5,7 9,14 13,21 15,12 31,23 46,35 1,5 2,9 3,14 1,13 2,25 4,38 -14,-3 -28,-6 -42,-10 -4,-1 -7,-2 -11,-4 -8,5 -16,9 -23,14 -5,11 -10,22 -15,33 0,12 0,24 0,35 1,3 1,5 2,7 -6,-2 -12,-4 -19,-7 -5,-2 -10,-4 -15,-6 -5,-4 -11,-8 -16,-12 -7,-3 -13,-7 -20,-10 -1,0 -2,1 -2,1 -2,1 -4,2 -6,3 -2,3 -3,5 -5,8 -2,5 -5,10 -8,16 -2,3 -5,7 -7,11 -4,1 -8,2 -12,3 -4,0 -8,0 -11,0 -3,1 -7,2 -10,3 -2,2 -5,3 -7,5 -2,4 -5,8 -7,11 -1,4 -2,8 -4,11 -2,5 -4,9 -7,14 -3,3 -7,7 -10,10 -5,2 -9,5 -13,7 -4,2 -7,5 -11,7 -1,1 -2,2 -4,3 -4,7 -8,14 -11,21 -3,8 -6,16 -9,24 -1,8 -2,16 -3,24 -2,6 -4,13 -6,19 -1,6 -2,12 -2,18 -1,6 -1,13 -2,20 -1,3 -3,6 -4,9 -3,1 -5,1 -8,2 -4,-1 -8,-2 -12,-4 -2,-2 -4,-5 -6,-8 -3,0 -6,0 -9,-1 -1,2 -3,3 -4,5 -1,3 -2,6 -3,10 -1,4 -2,8 -3,12 -2,3 -5,5 -7,8 -3,2 -6,4 -9,7 -3,-2 -6,-3 -9,-4 -3,-3 -7,-6 -10,-10 -6,-4 -12,-9 -17,-14 -4,1 -8,1 -12,2 -6,1 -11,2 -16,3 -5,0 -11,1 -16,2 -2,0 -4,0 -5,1 -6,2 -12,4 -17,6 -4,3 -8,6 -12,9 -2,4 -4,9 -6,13 -1,6 -2,12 -4,19 -4,2 -8,4 -12,6 -4,1 -8,2 -11,4 -5,-1 -9,-1 -13,-2 -5,-1 -10,-3 -15,-4 -4,-3 -8,-5 -12,-7 -2,-3 -5,-5 -7,-8 0,-3 1,-6 1,-9 0,-4 0,-9 0,-13 0,-3 0,-6 0,-10 -2,-3 -4,-5 -5,-8 -4,-1 -8,-3 -12,-4 -4,1 -8,2 -13,3 -1,3 -2,5 -3,8 -3,1 -6,2 -8,3 -3,0 -6,-1 -8,-1 -1,-5 -1,-10 -2,-15 -1,-7 -2,-13 -3,-19 -2,-6 -4,-12 -6,-18 -1,-1 -3,-3 -4,-5 -4,0 -7,0 -11,-1 -2,-1 -4,-2 -7,-3 -2,-2 -4,-4 -7,-6 -1,1 -1,1 -2,2 -2,1 -3,2 -5,2 -1,2 -3,4 -4,6 -5,1 -10,2 -15,2 -4,1 -7,1 -11,2 -3,-2 -5,-3 -8,-5 -3,-5 -7,-9 -11,-13 -4,-2 -8,-4 -12,-5 -6,0 -13,0 -19,0 -5,3 -10,5 -15,8 -4,4 -9,9 -13,13 -2,6 -5,12 -8,18 -4,6 -9,13 -14,20 -7,5 -13,9 -20,14 -7,1 -14,2 -20,4 -8,1 -15,1 -22,2 -5,2 -11,3 -16,5 -5,3 -10,6 -15,10 -1,0 -2,1 -4,1 -5,2 -10,4 -15,6 -7,2 -14,3 -21,4 -3,2 -6,4 -8,6 -3,4 -7,9 -10,13 -2,3 -5,7 -8,11 -2,1 -4,2 -6,3 -3,0 -6,0 -9,-1 -4,-2 -8,-4 -12,-6 -5,1 -10,2 -15,3 -3,1 -5,2 -7,3 -2,2 -5,4 -7,6 -4,1 -7,2 -11,3 -3,-1 -6,-2 -9,-3 -3,-4 -6,-9 -9,-13 -3,-6 -6,-11 -9,-17 -5,-6 -9,-12 -14,-18 -5,0 -10,0 -15,0 -4,2 -8,4 -12,6 -3,3 -6,5 -9,8 -3,3 -7,7 -10,10 -5,3 -9,5 -13,7 -6,2 -11,4 -16,5 -5,4 -10,7 -16,10 -3,4 -7,8 -11,11 -6,0 -12,0 -18,0 -5,-2 -9,-4 -13,-6 -4,-3 -8,-7 -12,-10 -5,-4 -10,-8 -14,-11 -3,-7 -6,-14 -8,-21 -2,-2 -3,-4 -4,-6 -2,-2 -3,-4 -4,-6 -5,-4 -11,-7 -16,-11 -7,1 -14,1 -22,1 -3,3 -7,5 -10,7 -4,0 -8,0 -12,0 -2,-3 -3,-6 -5,-9 -2,-4 -5,-7 -7,-10 -5,-5 -9,-9 -14,-14 -1,0 -1,0 -2,0 -3,1 -6,2 -9,3 -3,4 -7,8 -10,12 -6,4 -12,8 -18,12 -10,5 -19,10 -29,14 -10,2 -20,4 -30,5 -3,0 -6,0 -9,0 -7,0 -13,0 -19,0 -9,-1 -18,-3 -26,-5 -8,-4 -16,-8 -24,-12 -2,-12 -4,-25 -6,-37 -5,-10 -10,-20 -15,-30 -10,-10 -20,-21 -30,-31 0,-14 0,-27 0,-40 1,-15 1,-30 1,-45 2,-10 4,-20 6,-30 5,-5 10,-10 15,-15 6,-3 11,-7 17,-10 9,-3 18,-5 26,-8 14,-8 28,-16 41,-24 10,-1 20,-2 30,-3 0,0 0,0 1,0 13,-16 26,-33 40,-49 9,-6 17,-12 26,-17 12,-11 23,-22 34,-32 7,-4 13,-9 20,-13 3,-1 7,-2 10,-3 21,0 42,0 62,0 6,0 12,0 17,0 6,1 13,3 19,4 5,-1 9,-2 14,-3 8,-2 15,-3 23,-4 0,-3 0,-6 0,-10 0,-4 0,-8 0,-12 -18,-7 -37,-14 -55,-21 -7,-3 -14,-6 -22,-8 -1,-6 -1,-12 -2,-18 0,0 0,-1 0,-2 -8,-3 -16,-5 -23,-8 -11,-2 -22,-3 -32,-4 -9,-5 -17,-10 -26,-15 -5,-6 -11,-12 -16,-18 -1,-8 -1,-17 -1,-25 3,-5 7,-10 11,-15 9,-7 17,-15 26,-22 1,-1 1,-3 1,-4 1,-4 2,-7 3,-11 -5,-5 -9,-11 -14,-17 -12,-3 -25,-7 -38,-10 -6,-3 -12,-6 -18,-8 -1,-5 -1,-9 -1,-14 10,-6 20,-12 31,-18 13,-9 27,-17 40,-25 23,0 46,-1 69,-1 3,-3 5,-5 8,-7 1,-1 3,-2 4,-3 -17,-10 -35,-21 -53,-31 1,-10 1,-20 2,-30 -8,-1 -16,-2 -24,-3 -10,-6 -21,-13 -31,-20 -5,-9 -9,-19 -13,-28 -6,-4 -11,-7 -17,-10 -2,-10 -4,-21 -7,-31 2,-2 3,-4 4,-7 -2,-10 -4,-20 -6,-30 -5,-1 -9,-3 -13,-4 -8,-1 -16,-2 -23,-4 -4,-7 -7,-13 -10,-20 -3,-10 -6,-19 -9,-29 18,-13 36,-26 54,-39 13,5 25,9 38,14 12,6 25,12 37,18 27,7 54,14 81,21 13,4 26,9 38,14 4,7 7,15 10,22 1,15 3,30 5,45 10,6 19,12 29,18 6,2 13,4 20,6 17,5 34,11 51,17 3,8 7,17 10,25 4,4 8,7 12,11 10,1 20,2 30,3 14,6 29,13 43,20 7,2 15,4 22,7z"/>
   </g>
   <g>
    <path fill="#477A57" d="M632 310c3,1 7,2 10,4 9,-6 18,-12 27,-18 10,-2 19,-5 29,-8 7,4 13,7 19,10 13,15 26,30 39,44 5,8 11,15 16,23 15,0 30,0 45,0 4,0 8,0 11,0 10,-3 19,-7 28,-11 15,4 30,8 46,11 8,-2 17,-5 25,-8 17,2 34,5 51,8 27,12 54,25 81,38 9,7 18,14 26,20 1,0 2,0 2,0 18,-3 36,-5 54,-8 9,-11 18,-23 27,-34 8,-2 16,-4 24,-5 3,7 5,15 8,23 5,10 10,20 16,30 0,0 0,0 1,0 21,-2 42,-4 63,-7 23,-1 47,-3 70,-4 16,0 33,0 49,-1 0,0 1,0 1,0 7,-3 14,-6 20,-9 12,1 23,3 34,4 14,8 27,16 41,24 5,0 10,-1 16,-1 9,-18 17,-37 26,-55 10,0 20,1 30,2 8,9 15,17 23,26 2,2 5,4 7,5 -1,13 -2,27 -3,40 -6,8 -12,16 -19,25 -12,11 -25,22 -38,33 -10,5 -20,9 -30,14 -9,13 -17,27 -26,40 1,3 1,5 1,8 1,7 2,13 2,20 3,9 6,18 9,27 0,0 0,1 1,1 4,6 8,13 12,20 16,12 31,24 47,36 0,4 1,8 2,13 1,13 3,26 4,39 -14,-4 -28,-7 -42,-11 -4,-1 -7,-2 -11,-3 -7,4 -15,9 -23,13 -5,11 -10,22 -14,34 -1,11 -1,23 -1,35 1,2 2,4 2,6 -6,-2 -12,-4 -18,-6 -5,-3 -10,-5 -15,-7 -6,-4 -11,-8 -17,-12 -7,-3 -13,-6 -20,-10 0,1 -1,1 -2,2 -2,1 -4,1 -6,2 -1,3 -3,5 -4,8 -3,5 -6,11 -9,16 -2,4 -4,7 -7,11 -4,1 -8,2 -12,3 -4,0 -7,0 -11,0 -3,1 -6,2 -10,4 -2,1 -4,3 -7,4 -2,4 -4,8 -7,12 -1,3 -2,7 -3,10 -3,5 -5,10 -7,14 -4,3 -8,7 -11,10 -4,3 -9,5 -13,7 -3,3 -7,5 -10,7 -2,1 -3,2 -4,3 -4,7 -8,14 -12,21 -3,8 -6,16 -8,24 -1,8 -2,16 -3,24 -2,7 -5,13 -7,20 0,5 -1,11 -2,17 0,7 -1,13 -1,20 -2,3 -3,6 -5,9 -2,1 -5,2 -8,2 -4,-1 -8,-2 -11,-3 -3,-3 -5,-6 -7,-9 -3,0 -6,0 -9,0 -1,1 -2,3 -3,4 -2,3 -3,7 -4,10 -1,4 -2,8 -3,12 -2,3 -4,5 -7,8 -2,2 -5,5 -8,7 -3,-1 -6,-3 -9,-4 -4,-3 -7,-6 -11,-9 -6,-5 -11,-10 -17,-15 -4,1 -8,1 -12,2 -5,1 -10,2 -16,3 -5,1 -11,1 -16,2 -2,0 -3,1 -5,1 -6,2 -11,4 -17,7 -4,3 -8,5 -11,8 -3,5 -5,9 -7,13 -1,7 -2,13 -3,19 -4,2 -8,4 -12,6 -4,1 -8,3 -12,4 -4,-1 -8,-1 -12,-2 -5,-1 -10,-3 -16,-4 -3,-2 -7,-5 -11,-7 -3,-2 -5,-5 -8,-7 1,-4 1,-7 2,-10 0,-4 0,-8 0,-12 0,-4 0,-7 0,-11 -2,-2 -4,-5 -6,-8 -4,-1 -8,-2 -11,-4 -5,1 -9,2 -13,3 -2,3 -3,6 -4,8 -3,1 -5,2 -8,4 -3,-1 -5,-1 -8,-2 0,-5 -1,-10 -1,-15 -1,-6 -3,-12 -4,-18 -2,-6 -4,-12 -5,-18 -2,-2 -3,-4 -5,-5 -3,-1 -7,-1 -11,-1 -2,-2 -4,-3 -6,-4 -3,-2 -5,-4 -7,-5 -1,0 -2,1 -3,1 -1,1 -3,2 -5,3 -1,2 -3,4 -4,6 -5,0 -10,1 -14,2 -4,0 -8,1 -12,1 -3,-2 -5,-3 -8,-5 -3,-4 -7,-9 -10,-13 -4,-2 -9,-3 -13,-5 -6,0 -12,0 -19,0 -5,3 -10,5 -15,8 -4,4 -8,9 -12,13 -3,6 -6,12 -8,18 -5,7 -10,14 -15,20 -6,5 -13,9 -19,14 -7,1 -14,3 -21,4 -7,1 -15,2 -22,3 -5,1 -10,3 -15,4 -6,3 -11,7 -16,10 -1,0 -2,1 -3,1 -6,2 -11,4 -16,6 -7,2 -14,3 -20,5 -3,2 -6,4 -9,6 -3,4 -6,8 -9,12 -3,4 -6,8 -9,11 -2,2 -4,3 -6,4 -3,-1 -6,-1 -9,-1 -4,-2 -8,-4 -11,-6 -6,0 -11,1 -16,2 -2,1 -5,2 -7,3 -2,2 -5,4 -7,6 -3,1 -7,3 -10,4 -4,-1 -7,-3 -10,-4 -3,-4 -6,-9 -8,-13 -4,-6 -7,-11 -10,-17 -4,-6 -9,-12 -13,-18 -5,0 -10,0 -16,0 -4,2 -8,4 -12,6 -2,3 -5,6 -8,8 -4,4 -7,7 -11,11 -4,2 -9,4 -13,6 -5,2 -10,4 -15,6 -6,3 -11,6 -16,10 -4,3 -8,7 -12,10 -6,0 -12,0 -18,0 -4,-2 -8,-3 -12,-5 -5,-4 -9,-7 -13,-11 -5,-4 -9,-7 -14,-11 -3,-7 -5,-14 -8,-20 -1,-2 -3,-5 -4,-7 -1,-2 -2,-4 -4,-6 -5,-4 -10,-7 -16,-10 -7,0 -14,0 -21,1 -4,2 -7,4 -11,6 -4,0 -8,0 -12,0 -1,-3 -3,-6 -4,-9 -3,-3 -5,-7 -8,-10 -4,-5 -9,-9 -14,-14 0,0 -1,1 -1,1 -4,1 -7,1 -10,2 -3,4 -7,8 -10,12 -6,5 -12,9 -18,13 -9,4 -19,9 -28,13 -10,2 -20,4 -30,6 -3,0 -7,0 -10,0 -6,0 -13,0 -19,0 -9,-2 -17,-4 -26,-6 -8,-3 -16,-7 -23,-11 -2,-13 -5,-25 -7,-38 -5,-10 -10,-20 -15,-30 -10,-10 -20,-21 -30,-31 0,-13 0,-27 1,-40 0,-15 0,-30 1,-44 1,-11 3,-21 5,-31 5,-5 10,-10 16,-14 5,-4 11,-7 16,-11 9,-2 18,-5 27,-7 13,-8 27,-16 40,-24 10,-1 20,-3 30,-4 1,0 1,0 1,0 13,-16 27,-32 40,-49 9,-5 18,-11 27,-17 11,-11 22,-21 34,-32 6,-4 13,-8 19,-13 4,-1 7,-2 11,-3 20,0 41,0 62,0 5,0 11,0 16,0 7,2 13,3 19,4 5,-1 10,-2 14,-3 8,-1 15,-3 23,-4 0,-3 0,-6 0,-9 0,-5 0,-9 0,-13 -18,-7 -36,-14 -54,-21 -8,-3 -15,-5 -22,-8 -1,-6 -2,-12 -3,-17 0,-1 0,-2 0,-2 -8,-3 -15,-6 -23,-9 -11,-1 -21,-2 -32,-4 -8,-5 -17,-10 -25,-15 -6,-6 -11,-12 -17,-18 0,-8 -1,-16 -1,-25 4,-5 7,-9 11,-14 9,-8 18,-15 27,-23 0,-1 0,-3 0,-4 1,-3 2,-7 3,-10 -4,-6 -9,-12 -14,-17 -12,-4 -25,-7 -37,-11 -7,-3 -13,-5 -19,-8 0,-5 0,-9 -1,-14 11,-6 21,-12 31,-18 14,-8 27,-16 41,-25 23,0 45,-1 68,-1 3,-2 6,-4 8,-7 2,-1 3,-2 5,-3 -18,-10 -36,-20 -53,-31 0,-10 1,-20 1,-30 -8,-1 -16,-2 -23,-2 -11,-7 -21,-14 -32,-21 -4,-9 -9,-19 -13,-28 -5,-3 -11,-7 -16,-10 -3,-10 -5,-21 -7,-31 1,-2 2,-4 4,-6 -3,-11 -5,-21 -7,-31 -4,-1 -8,-2 -13,-3 -7,-2 -15,-3 -23,-5 -3,-6 -7,-13 -10,-20 -3,-9 -6,-19 -9,-28 18,-13 36,-26 55,-39 12,4 25,9 37,13 12,6 25,13 37,19 27,6 55,13 82,20 12,5 25,9 38,14 3,8 6,15 9,23 2,14 4,29 6,44 9,6 19,12 28,18 7,2 13,4 20,6 17,6 34,11 52,17 3,8 6,17 9,25 4,4 8,7 12,11 10,1 20,2 30,3 15,7 29,13 43,20 8,2 15,5 23,7z"/>
   </g>
   <g>
    <path fill="#4B7F5B" d="M632 302c4,1 7,3 11,4 8,-6 17,-12 26,-17 10,-3 20,-6 30,-9 6,4 12,7 18,11 13,14 26,29 39,43 5,8 11,15 16,23 16,0 31,0 46,1 3,0 7,0 11,0 9,-4 18,-8 27,-12 16,4 31,8 46,12 9,-3 17,-6 25,-9 17,3 34,5 51,8 27,13 55,26 82,38 8,7 17,14 26,21 0,0 1,-1 2,-1 17,-2 35,-5 53,-8 9,-11 18,-22 27,-34 8,-1 16,-3 24,-5 3,8 5,15 8,23 5,10 11,20 16,30 0,0 1,0 1,0 21,-2 42,-4 63,-6 23,-2 47,-3 71,-5 16,0 32,0 48,0 1,-1 1,-1 2,-1 6,-3 13,-6 20,-9 11,1 22,3 34,4 13,8 26,16 40,24 5,0 11,0 16,-1 9,-18 17,-37 26,-55 10,1 21,1 31,2 7,9 15,18 22,26 3,2 5,4 8,6 -1,13 -2,26 -3,39 -7,8 -13,17 -19,25 -13,11 -26,22 -39,34 -10,4 -20,8 -30,13 -8,13 -17,27 -25,41 0,2 0,5 1,7 0,7 1,14 2,21 3,9 5,18 8,27 1,0 1,0 1,0 4,7 8,13 13,20 15,12 30,24 46,36 1,4 2,9 2,13 2,13 3,26 5,39 -15,-4 -29,-7 -43,-10 -3,-2 -7,-3 -10,-4 -8,5 -16,9 -24,13 -5,12 -9,23 -14,34 0,12 0,23 0,35 0,2 1,4 1,6 -6,-2 -12,-4 -18,-6 -5,-2 -10,-5 -15,-7 -6,-4 -11,-7 -17,-11 -6,-4 -13,-7 -19,-11 -1,1 -2,2 -3,2 -2,1 -3,2 -5,3 -2,2 -3,5 -5,7 -3,6 -6,11 -8,16 -3,4 -5,7 -7,11 -4,1 -9,2 -13,3 -3,0 -7,0 -11,0 -3,1 -6,3 -9,4 -3,1 -5,3 -7,4 -3,4 -5,8 -7,12 -2,4 -3,7 -4,11 -2,4 -5,9 -7,13 -4,4 -7,7 -11,10 -4,3 -8,5 -13,8 -3,2 -7,4 -10,7 -1,1 -3,1 -4,2 -4,7 -8,14 -12,21 -3,8 -5,16 -8,24 -1,8 -2,16 -3,25 -2,6 -4,12 -6,19 -1,6 -2,11 -3,17 0,7 -1,14 -1,20 -2,3 -3,6 -4,10 -3,0 -6,1 -8,2 -4,-2 -8,-3 -12,-4 -2,-3 -5,-6 -7,-9 -3,0 -6,0 -8,0 -2,1 -3,3 -4,4 -1,4 -2,7 -4,10 -1,4 -2,8 -3,12 -2,3 -4,6 -6,8 -3,3 -6,5 -9,7 -3,-1 -6,-2 -9,-4 -4,-3 -7,-6 -11,-9 -5,-5 -11,-10 -17,-14 -4,0 -8,1 -12,1 -5,1 -10,2 -15,3 -6,1 -11,2 -17,2 -1,1 -3,1 -5,1 -5,3 -11,5 -16,7 -4,3 -8,6 -12,9 -2,4 -4,8 -6,13 -2,6 -3,12 -4,18 -4,2 -8,4 -12,6 -4,1 -8,3 -12,4 -4,0 -8,-1 -12,-1 -5,-2 -10,-3 -15,-5 -4,-2 -8,-4 -12,-7 -3,-2 -5,-5 -8,-7 1,-3 1,-7 2,-10 0,-4 0,-8 0,-12 0,-3 0,-7 0,-10 -2,-3 -4,-6 -6,-9 -3,-1 -7,-2 -11,-3 -4,1 -9,2 -13,3 -1,2 -2,5 -4,7 -2,2 -5,3 -8,4 -2,-1 -5,-1 -7,-2 -1,-5 -1,-10 -2,-15 -1,-6 -2,-12 -3,-18 -2,-6 -4,-12 -6,-18 -2,-2 -3,-3 -5,-5 -3,0 -7,-1 -10,-1 -3,-1 -5,-2 -7,-4 -2,-1 -5,-3 -7,-5 -1,0 -2,1 -3,1 -1,1 -3,2 -4,3 -2,2 -3,4 -5,6 -5,1 -9,1 -14,2 -4,0 -8,1 -12,1 -2,-1 -5,-3 -7,-5 -4,-4 -7,-8 -11,-13 -4,-2 -8,-3 -12,-5 -7,0 -13,0 -19,1 -5,2 -10,5 -15,7 -5,5 -9,9 -13,13 -3,6 -5,12 -8,18 -5,7 -10,14 -14,21 -7,4 -14,9 -20,13 -7,2 -14,3 -21,4 -7,1 -14,2 -21,3 -6,1 -11,3 -16,4 -5,4 -10,7 -15,10 -2,1 -3,1 -4,2 -5,2 -10,4 -16,6 -6,1 -13,2 -20,4 -3,2 -6,4 -9,6 -3,4 -6,8 -9,12 -3,4 -6,8 -8,12 -3,1 -5,2 -7,3 -3,0 -6,-1 -9,-1 -3,-2 -7,-4 -11,-6 -5,1 -10,1 -16,2 -2,1 -4,2 -6,3 -3,2 -5,4 -8,7 -3,1 -7,2 -10,3 -3,-1 -7,-2 -10,-3 -3,-5 -5,-9 -8,-14 -3,-5 -6,-11 -10,-16 -4,-7 -8,-13 -13,-19 -5,0 -10,0 -15,0 -4,2 -8,5 -12,7 -3,2 -6,5 -9,7 -3,4 -7,7 -11,11 -4,2 -8,4 -13,7 -5,1 -10,3 -15,5 -5,3 -11,7 -16,10 -4,4 -8,7 -11,11 -7,0 -13,0 -19,0 -4,-2 -8,-4 -12,-6 -4,-4 -9,-7 -13,-11 -4,-3 -9,-7 -13,-11 -3,-7 -6,-13 -9,-20 -1,-2 -2,-4 -4,-6 -1,-2 -2,-5 -3,-7 -6,-3 -11,-7 -17,-10 -7,0 -14,1 -21,1 -3,2 -7,4 -10,7 -4,0 -8,0 -12,0 -2,-3 -3,-7 -5,-10 -2,-3 -5,-6 -7,-10 -5,-4 -10,-9 -14,-13 -1,0 -1,0 -2,0 -3,1 -6,2 -9,3 -4,4 -7,8 -11,12 -6,4 -11,8 -17,12 -10,5 -19,9 -29,14 -10,1 -20,3 -30,5 -3,0 -6,0 -10,0 -6,0 -12,0 -19,0 -8,-2 -17,-4 -26,-5 -7,-4 -15,-8 -23,-12 -2,-13 -4,-25 -6,-38 -5,-10 -10,-20 -16,-30 -10,-10 -20,-20 -30,-31 1,-13 1,-26 1,-40 0,-15 1,-29 1,-44 2,-10 4,-20 6,-31 5,-4 10,-9 15,-14 6,-4 11,-7 17,-11 9,-2 17,-5 26,-7 14,-8 27,-16 41,-24 10,-1 20,-2 30,-4 0,0 0,0 0,0 14,-16 27,-32 41,-48 8,-6 17,-12 26,-18 11,-10 23,-21 34,-32 7,-4 13,-8 20,-12 3,-1 7,-2 10,-3 21,0 41,0 62,0 6,0 11,0 17,0 6,1 12,2 19,4 4,-2 9,-3 14,-4 7,-1 15,-2 22,-4 0,-3 1,-6 1,-9 0,-4 0,-9 0,-13 -19,-7 -37,-14 -55,-21 -7,-2 -15,-5 -22,-8 -1,-6 -2,-11 -3,-17 0,-1 0,-1 0,-2 -7,-3 -15,-6 -23,-9 -10,-1 -21,-2 -31,-3 -9,-6 -17,-11 -26,-16 -5,-6 -11,-12 -17,-17 0,-9 0,-17 -1,-25 4,-5 8,-10 11,-15 9,-8 18,-15 27,-22 0,-2 1,-3 1,-5 1,-3 2,-7 2,-10 -4,-6 -9,-11 -13,-17 -13,-4 -25,-7 -38,-11 -6,-2 -12,-5 -19,-8 0,-4 0,-9 0,-14 10,-6 20,-12 30,-18 14,-8 27,-16 41,-24 23,-1 46,-1 69,-2 2,-2 5,-4 8,-6 1,-1 3,-2 4,-3 -18,-11 -35,-21 -53,-32 0,-10 1,-20 1,-30 -7,0 -15,-1 -23,-2 -10,-7 -21,-14 -31,-20 -5,-10 -9,-19 -14,-29 -5,-3 -11,-6 -16,-10 -2,-10 -5,-20 -7,-31 1,-2 3,-4 4,-6 -2,-10 -4,-20 -7,-31 -4,-1 -8,-2 -12,-3 -8,-1 -16,-3 -24,-4 -3,-7 -6,-14 -10,-20 -3,-10 -6,-19 -9,-29 19,-13 37,-26 55,-39 12,4 25,9 37,14 13,6 25,12 38,18 27,7 54,13 81,20 13,5 25,10 38,14 3,8 6,15 9,23 2,15 4,29 6,44 9,6 19,12 28,18 7,2 14,4 20,6 17,6 35,12 52,17 3,9 6,17 10,26 4,3 8,7 11,10 10,1 21,2 31,3 14,7 28,14 43,20 7,2 15,5 22,7z"/>
   </g>
   <g>
    <path fill="#4F8460" d="M632 294c4,2 7,3 11,4 9,-6 18,-11 27,-17 9,-3 19,-6 29,-8 6,3 13,7 19,10 13,14 25,29 38,44 6,7 11,15 17,22 15,0 30,1 45,1 4,0 7,0 11,0 9,-4 18,-8 28,-11 15,3 30,7 45,11 9,-3 17,-6 26,-9 17,3 34,6 51,8 27,13 54,26 81,39 9,6 17,13 26,20 1,0 1,0 2,0 18,-3 36,-6 53,-9 9,-11 18,-22 27,-33 8,-2 17,-4 25,-6 2,8 5,16 7,24 6,10 11,20 17,30 0,0 0,0 0,0 21,-3 42,-5 63,-7 24,-2 47,-3 71,-5 16,0 32,0 49,0 0,0 1,-1 1,-1 7,-3 13,-6 20,-9 11,2 23,3 34,5 13,8 27,16 40,24 6,-1 11,-1 17,-1 8,-19 17,-37 25,-56 11,1 21,2 31,2 8,9 15,18 22,27 3,1 5,3 8,5 -1,13 -2,26 -3,40 -6,8 -13,16 -19,24 -13,12 -26,23 -39,34 -10,4 -19,9 -29,13 -9,14 -17,27 -26,41 0,2 1,5 1,7 1,7 1,14 2,21 3,9 6,18 9,27 0,0 0,0 0,0 5,7 9,14 13,21 15,11 31,23 46,35 1,5 2,9 3,13 1,13 3,26 4,39 -14,-3 -28,-7 -42,-10 -4,-1 -7,-2 -11,-4 -8,5 -16,9 -23,14 -5,11 -10,22 -15,33 0,12 0,24 0,35 1,2 1,5 2,7 -6,-2 -12,-5 -19,-7 -5,-2 -10,-4 -15,-6 -5,-4 -11,-8 -16,-12 -7,-3 -13,-7 -20,-10 -1,0 -2,1 -2,1 -2,1 -4,2 -6,3 -2,2 -3,5 -5,7 -2,6 -5,11 -8,17 -2,3 -5,7 -7,10 -4,1 -8,2 -12,3 -4,0 -8,0 -11,0 -3,2 -7,3 -10,4 -2,2 -5,3 -7,5 -2,3 -5,7 -7,11 -1,4 -2,7 -4,11 -2,5 -4,9 -7,14 -3,3 -7,6 -10,10 -5,2 -9,4 -13,7 -4,2 -7,5 -11,7 -1,1 -2,2 -4,3 -4,7 -8,14 -11,20 -3,8 -6,16 -9,24 -1,9 -2,17 -3,25 -2,6 -4,13 -6,19 -1,6 -2,12 -2,17 -1,7 -1,14 -2,21 -1,3 -3,6 -4,9 -3,0 -5,1 -8,2 -4,-1 -8,-3 -12,-4 -2,-3 -4,-5 -6,-8 -3,0 -6,-1 -9,-1 -1,2 -2,3 -4,5 -1,3 -2,6 -3,9 -1,5 -2,9 -3,13 -2,2 -5,5 -7,8 -3,2 -6,4 -8,6 -4,-1 -7,-2 -10,-3 -3,-3 -7,-7 -10,-10 -6,-4 -12,-9 -17,-14 -4,1 -8,1 -12,2 -6,1 -11,2 -16,3 -5,0 -11,1 -16,1 -2,1 -4,1 -5,2 -6,2 -12,4 -17,6 -4,3 -8,6 -12,9 -2,4 -4,9 -6,13 -1,6 -2,12 -4,18 -4,2 -8,4 -12,6 -4,2 -8,3 -11,5 -5,-1 -9,-2 -13,-2 -5,-2 -10,-3 -15,-5 -4,-2 -8,-4 -12,-6 -2,-3 -5,-5 -7,-8 0,-3 1,-6 1,-10 0,-4 0,-8 0,-12 0,-3 0,-7 0,-10 -2,-3 -3,-6 -5,-9 -4,-1 -8,-2 -12,-3 -4,1 -8,2 -13,3 -1,3 -2,5 -3,8 -3,1 -6,2 -8,3 -3,0 -6,-1 -8,-1 -1,-5 -1,-10 -2,-16 -1,-6 -2,-12 -3,-18 -2,-6 -4,-12 -6,-18 -1,-1 -3,-3 -4,-5 -4,0 -7,0 -11,-1 -2,-1 -4,-2 -7,-3 -2,-2 -4,-4 -7,-6 -1,1 -1,1 -2,2 -2,0 -3,1 -5,2 -1,2 -3,4 -4,6 -5,1 -10,2 -15,2 -4,1 -7,1 -11,2 -3,-2 -5,-4 -8,-5 -3,-5 -7,-9 -11,-14 -4,-1 -8,-3 -12,-5 -6,1 -13,1 -19,1 -5,2 -10,5 -15,8 -4,4 -8,8 -13,13 -2,6 -5,12 -8,17 -4,7 -9,14 -14,21 -7,4 -13,9 -20,13 -7,2 -13,3 -20,5 -8,0 -15,1 -22,2 -5,2 -11,3 -16,5 -5,3 -10,6 -15,9 -1,1 -2,1 -4,2 -5,2 -10,4 -15,6 -7,1 -14,3 -21,4 -3,2 -6,4 -8,6 -3,4 -6,8 -9,12 -3,4 -6,8 -9,12 -2,1 -4,2 -6,3 -3,0 -6,0 -9,-1 -4,-2 -8,-4 -12,-6 -5,1 -10,2 -15,2 -3,2 -5,3 -7,4 -2,2 -5,4 -7,6 -4,1 -7,2 -11,3 -3,-1 -6,-2 -9,-3 -3,-5 -6,-9 -9,-14 -3,-5 -6,-11 -9,-16 -5,-6 -9,-12 -13,-19 -6,0 -11,0 -16,0 -4,3 -8,5 -12,7 -3,3 -6,5 -8,8 -4,3 -8,7 -11,10 -5,2 -9,5 -13,7 -6,2 -11,3 -16,5 -5,4 -10,7 -15,10 -4,4 -8,7 -12,11 -6,0 -12,0 -18,0 -5,-2 -9,-4 -13,-6 -4,-3 -8,-7 -12,-10 -5,-4 -10,-8 -14,-12 -3,-6 -6,-13 -8,-20 -2,-2 -3,-4 -4,-6 -2,-2 -3,-4 -4,-6 -5,-4 -11,-7 -16,-11 -7,0 -14,1 -22,1 -3,2 -7,5 -10,7 -4,0 -8,0 -12,0 -1,-3 -3,-6 -5,-9 -2,-4 -5,-7 -7,-11 -5,-4 -9,-9 -14,-13 -1,0 -1,0 -2,0 -3,1 -6,2 -9,3 -3,4 -7,8 -10,12 -6,4 -12,8 -18,12 -10,5 -19,9 -29,14 -10,2 -20,3 -30,5 -3,0 -6,0 -9,0 -7,0 -13,0 -19,0 -9,-2 -18,-3 -26,-5 -8,-4 -16,-8 -24,-12 -2,-12 -4,-25 -6,-37 -5,-10 -10,-20 -15,-30 -10,-11 -20,-21 -30,-31 0,-14 0,-27 0,-40 1,-15 1,-30 1,-45 2,-10 4,-20 6,-30 5,-5 10,-10 15,-15 6,-3 11,-7 17,-10 9,-3 18,-5 26,-8 14,-8 28,-16 41,-24 10,-1 20,-2 30,-3 0,0 0,0 1,0 13,-17 26,-33 40,-49 9,-6 17,-12 26,-17 12,-11 23,-22 34,-32 7,-5 13,-9 20,-13 3,-1 7,-2 10,-3 21,0 42,0 62,0 6,0 12,0 17,0 6,1 13,3 19,4 5,-1 9,-3 14,-4 8,-1 15,-2 23,-3 0,-4 0,-7 0,-10 0,-4 0,-8 0,-13 -18,-7 -36,-13 -55,-20 -7,-3 -14,-6 -22,-9 -1,-5 -1,-11 -2,-17 0,-1 0,-1 0,-2 -8,-3 -16,-6 -23,-8 -11,-2 -21,-3 -32,-4 -9,-5 -17,-10 -26,-15 -5,-6 -11,-12 -16,-18 -1,-8 -1,-17 -1,-25 3,-5 7,-10 11,-15 9,-7 17,-15 26,-22 1,-2 1,-3 1,-4 1,-4 2,-7 3,-11 -5,-5 -9,-11 -14,-17 -12,-3 -25,-7 -38,-10 -6,-3 -12,-6 -18,-8 -1,-5 -1,-10 -1,-14 10,-6 20,-13 31,-19 13,-8 27,-16 40,-24 23,0 46,-1 69,-1 3,-3 5,-5 8,-7 2,-1 3,-2 4,-3 -17,-11 -35,-21 -53,-31 1,-10 1,-20 2,-30 -8,-1 -16,-2 -24,-3 -10,-7 -21,-13 -31,-20 -5,-10 -9,-19 -13,-29 -6,-3 -11,-6 -17,-9 -2,-11 -4,-21 -7,-31 2,-2 3,-5 4,-7 -2,-10 -4,-20 -6,-30 -5,-2 -9,-3 -13,-4 -8,-1 -16,-3 -23,-4 -4,-7 -7,-13 -10,-20 -3,-10 -6,-19 -9,-29 18,-13 36,-26 54,-39 13,5 25,9 38,14 12,6 25,12 37,18 27,7 54,14 81,20 13,5 26,10 39,15 3,7 6,15 9,22 1,15 3,30 5,44 10,6 19,13 29,19 6,2 13,4 20,6 17,5 34,11 51,17 4,8 7,16 10,25 4,3 8,7 12,11 10,1 20,2 30,3 14,6 29,13 43,19 7,3 15,5 22,7z"/>
   </g>
   <g>
    <path fill="#548964" d="M633 287c3,1 7,2 10,3 9,-5 18,-11 27,-17 10,-3 20,-5 29,-8 7,3 13,7 19,10 13,15 26,29 39,44 5,7 11,15 16,22 15,1 30,1 45,1 4,0 8,0 11,0 10,-4 19,-7 28,-11 15,4 31,7 46,11 8,-3 17,-6 25,-8 17,2 34,5 51,7 27,13 54,26 81,39 9,7 18,13 26,20 1,0 2,0 2,0 18,-3 36,-6 54,-8 9,-12 18,-23 27,-34 8,-2 16,-4 24,-6 3,8 5,16 8,24 5,10 11,20 16,30 0,0 0,0 1,0 21,-2 42,-5 63,-7 23,-1 47,-3 70,-4 17,0 33,-1 49,-1 0,0 1,0 2,0 6,-3 13,-7 19,-10 12,2 23,4 34,5 14,8 27,16 41,24 5,0 10,-1 16,-1 9,-19 17,-37 26,-56 10,1 20,2 30,3 8,8 15,17 23,26 2,2 5,3 7,5 -1,13 -2,27 -3,40 -6,8 -12,16 -19,25 -12,11 -25,22 -38,33 -10,5 -20,9 -30,13 -9,14 -17,28 -26,41 1,3 1,5 1,8 1,7 2,13 2,20 3,9 6,18 9,27 0,0 0,0 1,1 4,6 8,13 12,20 16,12 31,24 47,35 0,5 1,9 2,14 2,13 3,26 4,38 -14,-3 -28,-6 -42,-10 -4,-1 -7,-2 -11,-3 -7,4 -15,9 -23,13 -5,11 -10,22 -14,33 0,12 -1,24 -1,36 1,2 2,4 2,6 -6,-2 -12,-4 -18,-6 -5,-3 -10,-5 -15,-7 -6,-4 -11,-8 -17,-12 -7,-3 -13,-7 -19,-10 -1,1 -2,1 -3,2 -2,0 -4,1 -6,2 -1,3 -3,5 -4,8 -3,5 -6,10 -9,16 -2,3 -4,7 -7,11 -4,1 -8,2 -12,3 -4,0 -7,0 -11,0 -3,1 -6,2 -9,3 -3,2 -5,3 -8,5 -2,4 -4,8 -7,11 -1,4 -2,8 -3,11 -3,5 -5,9 -7,14 -4,3 -7,7 -11,10 -4,2 -9,5 -13,7 -3,3 -7,5 -10,7 -2,1 -3,2 -4,3 -4,7 -8,14 -12,21 -3,8 -6,16 -8,24 -1,8 -2,16 -3,24 -2,7 -5,13 -7,19 0,6 -1,12 -2,18 0,6 -1,13 -1,20 -2,3 -3,6 -5,9 -2,1 -5,1 -8,2 -4,-1 -8,-2 -11,-3 -3,-3 -5,-6 -7,-9 -3,0 -6,0 -9,-1 -1,2 -2,4 -3,5 -2,3 -3,7 -4,10 -1,4 -2,8 -3,12 -2,3 -4,5 -7,8 -2,2 -5,4 -8,7 -3,-2 -6,-3 -9,-4 -4,-3 -7,-6 -11,-9 -6,-5 -11,-10 -17,-15 -4,1 -8,1 -12,2 -5,1 -10,2 -16,3 -5,0 -11,1 -16,2 -2,0 -3,0 -5,1 -6,2 -11,4 -17,7 -4,2 -8,5 -11,8 -3,5 -5,9 -7,13 -1,6 -2,13 -3,19 -4,2 -8,4 -12,6 -4,1 -8,2 -12,4 -4,-1 -8,-1 -12,-2 -5,-1 -10,-3 -15,-4 -4,-2 -8,-5 -12,-7 -3,-2 -5,-5 -8,-7 1,-4 1,-7 2,-10 0,-4 0,-8 0,-12 0,-4 0,-7 0,-11 -2,-3 -4,-5 -6,-8 -4,-1 -8,-3 -11,-4 -5,1 -9,2 -13,3 -2,3 -3,5 -4,8 -3,1 -5,2 -8,4 -3,-1 -5,-1 -8,-2 0,-5 -1,-10 -1,-15 -1,-6 -3,-13 -4,-19 -2,-6 -3,-12 -5,-18 -2,-1 -3,-3 -5,-4 -3,-1 -7,-1 -11,-2 -2,-1 -4,-2 -6,-3 -3,-2 -5,-4 -7,-6 -1,1 -2,1 -3,2 -1,1 -3,2 -5,2 -1,3 -3,5 -4,7 -5,0 -10,1 -14,1 -4,1 -8,1 -12,2 -2,-2 -5,-3 -7,-5 -4,-4 -8,-9 -11,-13 -4,-2 -8,-4 -13,-5 -6,0 -12,0 -19,0 -5,3 -10,5 -15,8 -4,4 -8,9 -12,13 -3,6 -6,12 -8,18 -5,7 -10,13 -15,20 -6,5 -13,9 -19,14 -7,1 -14,3 -21,4 -7,1 -14,2 -22,2 -5,2 -10,3 -15,5 -6,3 -11,6 -16,10 -1,0 -2,1 -3,1 -5,2 -11,4 -16,6 -7,2 -14,3 -20,4 -3,2 -6,5 -9,7 -3,4 -6,8 -9,12 -3,4 -6,7 -9,11 -2,1 -4,2 -6,4 -3,-1 -6,-1 -9,-2 -4,-2 -8,-4 -11,-6 -6,1 -11,2 -16,3 -2,1 -4,2 -7,3 -2,2 -4,4 -7,6 -3,1 -7,2 -10,4 -4,-2 -7,-3 -10,-4 -3,-4 -6,-9 -8,-13 -4,-6 -7,-11 -10,-17 -4,-6 -9,-12 -13,-18 -5,0 -10,0 -15,0 -4,2 -9,4 -13,6 -2,3 -5,5 -8,8 -4,3 -7,7 -11,11 -4,2 -9,4 -13,6 -5,2 -10,4 -15,5 -6,4 -11,7 -16,11 -4,3 -8,7 -12,10 -6,0 -12,0 -18,0 -4,-2 -8,-4 -12,-5 -5,-4 -9,-7 -13,-11 -5,-4 -9,-7 -14,-11 -2,-7 -5,-14 -8,-21 -1,-2 -3,-4 -4,-6 -1,-2 -2,-4 -3,-6 -6,-4 -11,-7 -17,-11 -7,1 -14,1 -21,1 -4,3 -7,5 -11,7 -4,0 -8,0 -12,0 -1,-3 -3,-6 -4,-9 -3,-3 -5,-7 -8,-10 -4,-5 -9,-9 -14,-14 0,0 -1,0 -1,1 -4,0 -7,1 -10,2 -3,4 -6,8 -10,12 -6,4 -12,8 -18,13 -9,4 -19,9 -28,13 -10,2 -20,4 -30,5 -3,0 -7,0 -10,0 -6,0 -13,0 -19,0 -9,-1 -17,-3 -26,-5 -8,-4 -16,-8 -23,-11 -2,-13 -4,-26 -6,-38 -6,-10 -11,-20 -16,-30 -10,-10 -20,-21 -30,-31 0,-13 0,-27 1,-40 0,-15 0,-30 1,-45 2,-10 3,-20 5,-30 5,-5 11,-10 16,-15 5,-3 11,-7 16,-10 9,-3 18,-5 27,-8 13,-8 27,-16 41,-24 10,-1 20,-2 29,-3 1,0 1,0 1,0 13,-16 27,-33 40,-49 9,-6 18,-11 27,-17 11,-11 22,-21 34,-32 6,-4 13,-9 19,-13 4,-1 7,-2 11,-3 20,0 41,0 62,0 5,0 11,0 17,0 6,1 12,3 18,4 5,-1 10,-2 14,-3 8,-2 15,-3 23,-4 0,-3 0,-6 0,-10 0,-4 0,-8 0,-12 -18,-7 -36,-14 -54,-21 -8,-3 -15,-6 -22,-8 -1,-6 -2,-12 -3,-18 0,0 0,-1 0,-2 -8,-2 -15,-5 -23,-8 -10,-1 -21,-3 -32,-4 -8,-5 -17,-10 -25,-15 -6,-6 -11,-12 -17,-18 0,-8 -1,-17 -1,-25 4,-5 7,-10 11,-15 9,-7 18,-14 27,-22 0,-1 0,-3 0,-4 1,-4 2,-7 3,-11 -4,-5 -9,-11 -14,-16 -12,-4 -25,-8 -37,-11 -6,-3 -13,-6 -19,-8 0,-5 0,-9 -1,-14 11,-6 21,-12 31,-18 14,-8 27,-17 41,-25 23,0 45,-1 68,-1 3,-2 6,-5 8,-7 2,-1 3,-2 5,-3 -18,-10 -36,-21 -53,-31 0,-10 1,-20 1,-30 -8,-1 -15,-2 -23,-3 -11,-6 -21,-13 -32,-20 -4,-9 -9,-19 -13,-28 -5,-3 -11,-7 -16,-10 -3,-10 -5,-21 -7,-31 1,-2 2,-4 4,-6 -3,-11 -5,-21 -7,-31 -4,-1 -8,-2 -13,-4 -7,-1 -15,-2 -23,-4 -3,-6 -7,-13 -10,-20 -3,-9 -6,-19 -9,-28 18,-13 36,-27 55,-40 12,5 25,10 37,14 13,6 25,12 37,18 27,7 55,14 82,21 12,4 25,9 38,14 3,7 6,15 9,22 2,15 4,30 6,45 9,6 19,12 28,18 7,2 13,4 20,6 17,6 34,11 52,17 3,8 6,17 9,25 4,4 8,7 12,11 10,1 20,2 30,3 15,6 29,13 43,20 8,2 15,4 23,7z"/>
   </g>
   <g>
    <path fill="#588E69" d="M633 279c4,1 7,3 11,4 8,-6 17,-12 26,-18 10,-2 20,-5 30,-8 6,4 12,7 18,10 13,15 26,30 39,44 6,8 11,15 16,23 16,0 31,0 46,0 3,0 7,0 11,0 9,-3 18,-7 27,-11 16,4 31,8 46,11 9,-2 17,-5 25,-8 17,2 34,5 51,8 28,13 55,25 82,38 8,7 17,14 26,21 0,-1 1,-1 2,-1 18,-3 35,-5 53,-8 9,-11 18,-23 27,-34 8,-2 16,-3 24,-5 3,7 5,15 8,23 5,10 11,20 16,30 0,0 1,0 1,0 21,-2 42,-4 63,-7 23,-1 47,-3 71,-4 16,0 32,0 48,-1 1,0 1,0 2,0 6,-3 13,-6 20,-9 11,1 22,3 34,4 13,8 27,16 40,24 5,0 11,-1 16,-1 9,-18 18,-37 26,-55 10,0 21,1 31,2 7,9 15,17 22,26 3,2 5,4 8,5 -1,14 -2,27 -3,40 -7,8 -13,17 -19,25 -13,11 -26,22 -39,34 -10,4 -20,8 -30,13 -8,13 -17,27 -25,40 0,3 0,5 1,8 0,7 1,14 2,20 3,9 6,18 8,27 1,1 1,1 1,1 4,7 9,13 13,20 15,12 31,24 46,36 1,4 2,9 2,13 2,13 3,26 5,39 -14,-4 -29,-7 -43,-11 -3,-1 -7,-2 -10,-3 -8,4 -16,9 -24,13 -5,11 -9,23 -14,34 0,11 0,23 0,35 0,2 1,4 2,6 -7,-2 -13,-4 -19,-6 -5,-2 -10,-5 -15,-7 -5,-4 -11,-8 -17,-12 -6,-3 -13,-6 -19,-10 -1,1 -2,1 -3,2 -2,1 -3,2 -5,2 -2,3 -3,5 -5,8 -3,5 -6,11 -8,16 -3,4 -5,7 -7,11 -4,1 -8,2 -13,3 -3,0 -7,0 -10,0 -4,1 -7,2 -10,4 -3,1 -5,3 -7,4 -3,4 -5,8 -7,12 -2,3 -3,7 -4,11 -2,4 -5,9 -7,13 -4,4 -7,7 -11,10 -4,3 -8,5 -12,7 -4,3 -8,5 -11,8 -1,0 -3,1 -4,2 -4,7 -8,14 -12,21 -2,8 -5,16 -8,24 -1,8 -2,16 -3,24 -2,7 -4,13 -6,20 -1,6 -2,11 -3,17 0,7 -1,14 -1,20 -1,3 -3,6 -4,9 -3,1 -6,2 -8,2 -4,-1 -8,-2 -12,-3 -2,-3 -4,-6 -7,-9 -3,0 -5,0 -8,0 -2,1 -3,3 -4,4 -1,4 -2,7 -4,10 -1,4 -2,8 -3,12 -2,3 -4,6 -6,8 -3,2 -6,5 -9,7 -3,-1 -6,-3 -9,-4 -3,-3 -7,-6 -11,-9 -5,-5 -11,-10 -16,-14 -5,0 -9,1 -13,1 -5,1 -10,2 -15,3 -6,1 -11,1 -17,2 -1,0 -3,1 -5,1 -5,2 -11,5 -16,7 -4,3 -8,6 -12,8 -2,5 -4,9 -6,14 -2,6 -3,12 -4,18 -4,2 -8,4 -12,6 -4,1 -8,3 -12,4 -4,0 -8,-1 -12,-1 -5,-2 -10,-3 -15,-5 -4,-2 -8,-4 -12,-7 -3,-2 -5,-5 -8,-7 1,-3 1,-7 2,-10 0,-4 0,-8 0,-12 0,-4 0,-7 0,-10 -2,-3 -4,-6 -6,-9 -3,-1 -7,-2 -11,-3 -4,1 -9,2 -13,3 -1,2 -2,5 -4,7 -2,1 -5,3 -8,4 -2,-1 -5,-1 -7,-2 -1,-5 -1,-10 -2,-15 -1,-6 -2,-12 -3,-18 -2,-6 -4,-12 -6,-18 -1,-2 -3,-4 -4,-5 -4,-1 -8,-1 -11,-1 -3,-1 -5,-3 -7,-4 -2,-2 -5,-3 -7,-5 -1,0 -2,1 -3,1 -1,1 -3,2 -4,3 -2,2 -3,4 -5,6 -4,0 -9,1 -14,2 -4,0 -8,1 -12,1 -2,-1 -5,-3 -7,-5 -4,-4 -7,-9 -11,-13 -4,-2 -8,-3 -12,-5 -7,0 -13,0 -19,0 -5,3 -10,6 -15,8 -5,5 -9,9 -13,13 -3,6 -5,12 -8,18 -5,7 -10,14 -14,20 -7,5 -13,10 -20,14 -7,1 -14,3 -21,4 -7,1 -14,2 -21,3 -6,1 -11,3 -16,4 -5,3 -10,7 -15,10 -2,0 -3,1 -4,1 -5,2 -10,4 -16,7 -6,1 -13,2 -20,4 -3,2 -6,4 -9,6 -3,4 -6,8 -9,12 -3,4 -6,8 -8,12 -2,1 -5,2 -7,3 -3,-1 -6,-1 -9,-1 -3,-2 -7,-4 -11,-6 -5,0 -10,1 -16,2 -2,1 -4,2 -6,3 -3,2 -5,4 -8,6 -3,2 -7,3 -10,4 -3,-1 -7,-2 -10,-4 -2,-4 -5,-9 -8,-13 -3,-6 -6,-11 -10,-17 -4,-6 -8,-12 -13,-18 -5,0 -10,0 -15,0 -4,2 -8,4 -12,7 -3,2 -6,5 -9,7 -3,4 -7,7 -11,11 -4,2 -8,4 -13,7 -5,1 -10,3 -15,5 -5,3 -11,6 -16,10 -4,3 -8,7 -11,10 -7,0 -13,0 -19,0 -4,-1 -8,-3 -12,-5 -4,-4 -9,-7 -13,-11 -4,-3 -9,-7 -13,-11 -3,-7 -6,-13 -9,-20 -1,-2 -2,-4 -4,-7 -1,-2 -2,-4 -3,-6 -6,-3 -11,-7 -17,-10 -7,0 -14,0 -21,1 -3,2 -7,4 -10,6 -4,0 -8,0 -12,0 -2,-3 -3,-6 -5,-9 -2,-3 -5,-7 -7,-10 -5,-5 -10,-9 -14,-14 -1,1 -1,1 -2,1 -3,1 -6,2 -9,2 -4,4 -7,9 -11,13 -5,4 -11,8 -17,12 -10,4 -19,9 -29,14 -10,1 -20,3 -30,5 -3,0 -6,0 -10,0 -6,0 -12,0 -19,0 -8,-2 -17,-4 -26,-5 -7,-4 -15,-8 -23,-12 -2,-13 -4,-25 -6,-38 -5,-10 -10,-20 -16,-30 -9,-10 -19,-20 -29,-31 0,-13 0,-27 0,-40 0,-15 1,-29 1,-44 2,-10 4,-21 6,-31 5,-5 10,-9 15,-14 6,-4 11,-7 17,-11 9,-2 17,-5 26,-7 14,-8 27,-16 41,-24 10,-1 20,-3 30,-4 0,0 0,0 0,0 14,-16 27,-32 41,-49 8,-5 17,-11 26,-17 11,-11 23,-21 34,-32 7,-4 13,-8 20,-13 3,-1 7,-2 10,-3 21,0 41,0 62,0 6,0 11,0 17,0 6,2 12,3 19,4 4,-1 9,-2 14,-3 7,-1 15,-3 22,-4 0,-3 1,-6 1,-9 0,-4 0,-9 0,-13 -19,-7 -37,-14 -55,-21 -7,-3 -15,-5 -22,-8 -1,-6 -2,-12 -3,-17 0,-1 0,-2 0,-2 -7,-3 -15,-6 -22,-9 -11,-1 -22,-2 -32,-4 -9,-5 -17,-10 -26,-15 -5,-6 -11,-12 -17,-18 0,-8 0,-16 -1,-25 4,-4 8,-9 11,-14 9,-8 18,-15 27,-23 0,-1 1,-2 1,-4 1,-3 2,-7 2,-10 -4,-6 -9,-12 -13,-17 -13,-4 -25,-7 -38,-11 -6,-3 -12,-5 -19,-8 0,-5 0,-9 0,-14 10,-6 20,-12 30,-18 14,-8 28,-16 41,-24 23,-1 46,-1 69,-2 2,-2 5,-4 8,-7 1,-1 3,-2 4,-3 -18,-10 -35,-20 -53,-31 0,-10 1,-20 1,-30 -7,-1 -15,-1 -23,-2 -10,-7 -21,-14 -31,-21 -5,-9 -9,-18 -14,-28 -5,-3 -11,-6 -16,-10 -2,-10 -5,-20 -7,-31 1,-2 3,-4 4,-6 -2,-10 -4,-21 -7,-31 -4,-1 -8,-2 -12,-3 -8,-2 -16,-3 -24,-4 -3,-7 -6,-14 -10,-21 -3,-9 -6,-19 -9,-28 19,-13 37,-26 55,-39 12,4 25,9 37,13 13,7 25,13 38,19 27,6 54,13 81,20 13,5 26,10 38,14 3,8 6,15 9,23 2,14 4,29 6,44 9,6 19,12 28,18 7,2 14,4 20,6 17,6 35,11 52,17 3,9 6,17 10,26 4,3 8,7 12,10 10,1 20,2 30,3 14,7 28,13 43,20 7,2 15,5 22,7z"/>
   </g>
   <g>
    <path fill="#5C936D" d="M633 271c4,2 7,3 11,4 9,-6 18,-11 27,-17 9,-3 19,-6 29,-8 6,3 13,6 19,10 13,14 26,29 38,43 6,8 11,15 17,23 15,0 30,0 45,1 4,0 7,0 11,0 9,-4 18,-8 28,-11 15,3 30,7 45,11 9,-3 17,-6 26,-9 17,3 34,5 51,8 27,13 54,26 81,39 9,6 17,13 26,20 1,0 1,0 2,-1 18,-2 36,-5 53,-8 9,-11 18,-22 27,-33 8,-2 17,-4 25,-6 2,8 5,16 7,23 6,10 11,20 17,30 0,0 0,0 0,0 21,-2 42,-4 63,-6 24,-2 47,-3 71,-5 16,0 32,0 49,0 0,0 1,-1 1,-1 7,-3 13,-6 20,-9 11,2 23,3 34,5 14,8 27,16 40,24 6,-1 11,-1 17,-2 8,-18 17,-37 26,-55 10,1 20,1 30,2 8,9 15,18 22,26 3,2 6,4 8,6 -1,13 -2,26 -3,39 -6,9 -13,17 -19,25 -13,11 -26,23 -38,34 -10,4 -20,9 -30,13 -9,13 -17,27 -26,41 0,2 1,5 1,7 1,7 1,14 2,21 3,9 6,18 9,27 0,0 0,0 0,0 5,7 9,14 13,20 15,12 31,24 46,36 1,4 2,9 3,13 1,13 3,26 4,39 -14,-3 -28,-7 -42,-10 -4,-1 -7,-3 -11,-4 -8,5 -16,9 -23,14 -5,11 -10,22 -15,33 0,12 0,23 0,35 1,2 1,4 2,7 -6,-3 -12,-5 -18,-7 -6,-2 -11,-4 -16,-7 -5,-4 -11,-7 -16,-11 -7,-4 -13,-7 -20,-10 -1,0 -1,1 -2,1 -2,1 -4,2 -6,3 -1,2 -3,5 -4,7 -3,6 -6,11 -9,16 -2,4 -5,8 -7,11 -4,1 -8,2 -12,3 -4,0 -8,0 -11,0 -3,1 -7,3 -10,4 -2,1 -5,3 -7,4 -2,4 -5,8 -7,12 -1,4 -2,7 -4,11 -2,4 -4,9 -7,13 -3,4 -7,7 -10,11 -5,2 -9,4 -13,7 -4,2 -7,4 -11,7 -1,1 -2,2 -4,2 -4,7 -8,14 -11,21 -3,8 -6,16 -9,24 -1,8 -2,16 -3,25 -2,6 -4,13 -6,19 -1,6 -1,12 -2,17 -1,7 -1,14 -2,21 -1,3 -2,6 -4,9 -3,0 -5,1 -8,2 -4,-1 -8,-3 -12,-4 -2,-3 -4,-6 -6,-9 -3,0 -6,0 -9,0 -1,2 -2,3 -4,5 -1,3 -2,6 -3,9 -1,4 -2,8 -3,13 -2,2 -5,5 -7,8 -3,2 -6,4 -8,6 -3,-1 -7,-2 -10,-3 -3,-4 -7,-7 -10,-10 -6,-5 -12,-9 -17,-14 -4,0 -8,1 -12,1 -5,1 -11,2 -16,3 -5,1 -11,2 -16,2 -2,1 -4,1 -5,1 -6,3 -11,5 -17,7 -4,3 -8,6 -12,9 -2,4 -4,8 -6,13 -1,6 -2,12 -4,18 -4,2 -8,4 -12,6 -4,2 -8,3 -11,4 -4,0 -9,-1 -13,-1 -5,-2 -10,-3 -15,-5 -4,-2 -8,-4 -12,-6 -2,-3 -5,-5 -7,-8 0,-3 1,-6 1,-10 0,-4 0,-8 0,-12 0,-3 0,-7 0,-10 -2,-3 -3,-6 -5,-9 -4,-1 -8,-2 -12,-3 -4,1 -8,2 -13,3 -1,2 -2,5 -3,7 -3,2 -6,3 -8,4 -3,0 -6,-1 -8,-1 -1,-6 -1,-11 -2,-16 -1,-6 -2,-12 -3,-18 -2,-6 -4,-12 -6,-18 -1,-2 -3,-3 -4,-5 -4,0 -7,-1 -11,-1 -2,-1 -4,-2 -7,-3 -2,-2 -4,-4 -7,-6 -1,0 -1,1 -2,1 -2,1 -3,2 -5,3 -1,2 -3,4 -4,6 -5,1 -10,1 -15,2 -4,1 -7,1 -11,1 -3,-1 -5,-3 -8,-4 -3,-5 -7,-9 -11,-14 -4,-1 -8,-3 -12,-5 -6,0 -13,1 -19,1 -5,2 -10,5 -15,7 -4,5 -8,9 -13,14 -2,5 -5,11 -8,17 -4,7 -9,14 -14,21 -7,4 -13,9 -20,13 -7,2 -13,3 -20,4 -8,1 -15,2 -22,3 -5,2 -11,3 -16,5 -5,3 -10,6 -15,9 -1,1 -2,1 -3,2 -6,2 -11,4 -16,6 -7,1 -14,3 -21,4 -3,2 -5,4 -8,6 -3,4 -6,8 -9,12 -3,4 -6,8 -9,12 -2,1 -4,2 -6,3 -3,0 -6,-1 -9,-1 -4,-2 -8,-4 -12,-6 -5,1 -10,2 -15,2 -3,1 -5,2 -7,3 -2,2 -5,5 -7,7 -4,1 -7,2 -11,3 -3,-1 -6,-2 -9,-3 -3,-5 -6,-9 -9,-14 -3,-5 -6,-11 -9,-16 -5,-6 -9,-13 -13,-19 -6,0 -11,0 -16,0 -4,2 -8,5 -12,7 -3,2 -6,5 -8,8 -4,3 -8,7 -11,10 -5,2 -9,5 -13,7 -5,2 -11,3 -16,5 -5,3 -10,7 -15,10 -4,4 -8,7 -12,11 -6,0 -12,0 -18,0 -4,-2 -9,-4 -13,-6 -4,-3 -8,-7 -12,-10 -5,-4 -10,-8 -14,-12 -3,-6 -6,-13 -8,-20 -2,-2 -3,-4 -4,-6 -1,-2 -3,-5 -4,-7 -5,-3 -11,-7 -16,-10 -7,0 -14,1 -21,1 -4,2 -8,4 -11,7 -4,0 -8,0 -12,0 -1,-3 -3,-6 -5,-10 -2,-3 -5,-6 -7,-10 -5,-4 -9,-9 -14,-13 0,0 -1,0 -2,0 -3,1 -6,2 -9,3 -3,4 -7,8 -10,12 -6,4 -12,8 -18,12 -10,5 -19,9 -28,14 -11,2 -21,3 -31,5 -3,0 -6,0 -9,0 -7,0 -13,0 -19,0 -9,-2 -18,-3 -26,-5 -8,-4 -16,-8 -24,-12 -2,-12 -4,-25 -6,-37 -5,-10 -10,-20 -15,-30 -10,-11 -20,-21 -30,-32 0,-13 0,-26 0,-40 1,-14 1,-29 1,-44 2,-10 4,-20 6,-30 5,-5 10,-10 15,-15 6,-4 12,-7 17,-10 9,-3 18,-5 26,-8 14,-8 28,-16 41,-24 10,-1 20,-2 30,-3 0,0 0,0 1,0 13,-17 26,-33 40,-49 9,-6 17,-12 26,-18 12,-10 23,-21 34,-31 7,-5 14,-9 20,-13 4,-1 7,-2 10,-3 21,0 42,0 62,0 6,0 12,0 17,0 6,1 13,2 19,4 5,-2 9,-3 14,-4 8,-1 15,-2 23,-4 0,-3 0,-6 0,-9 0,-4 0,-8 0,-13 -18,-7 -36,-14 -55,-21 -7,-2 -14,-5 -22,-8 -1,-6 -1,-11 -2,-17 0,-1 0,-1 0,-2 -8,-3 -16,-6 -23,-9 -11,-1 -21,-2 -32,-3 -9,-5 -17,-11 -25,-16 -6,-5 -12,-11 -17,-17 -1,-9 -1,-17 -1,-25 3,-5 7,-10 11,-15 9,-7 17,-15 26,-22 1,-2 1,-3 1,-5 1,-3 2,-7 3,-10 -5,-6 -9,-11 -14,-17 -12,-3 -25,-7 -38,-11 -6,-2 -12,-5 -18,-8 -1,-4 -1,-9 -1,-13 10,-7 20,-13 31,-19 13,-8 27,-16 40,-24 23,-1 46,-1 69,-2 3,-2 5,-4 8,-6 2,-1 3,-2 4,-3 -17,-11 -35,-21 -53,-31 1,-10 1,-20 2,-30 -8,-1 -16,-2 -24,-3 -10,-7 -21,-14 -31,-20 -4,-10 -9,-19 -13,-29 -6,-3 -11,-6 -17,-9 -2,-11 -4,-21 -7,-31 2,-3 3,-5 4,-7 -2,-10 -4,-20 -6,-31 -5,-1 -9,-2 -13,-3 -8,-1 -16,-3 -23,-4 -4,-7 -7,-14 -10,-20 -3,-10 -6,-19 -9,-29 18,-13 36,-26 54,-39 13,4 25,9 38,14 12,6 25,12 37,18 27,7 54,14 81,20 13,5 26,10 39,15 3,7 6,14 9,22 2,15 3,29 5,44 10,6 19,12 29,18 6,2 13,5 20,7 17,5 34,11 51,16 4,9 7,17 10,26 4,3 8,7 12,10 10,1 20,2 30,3 14,7 29,14 43,20 7,3 15,5 22,7z"/>
   </g>
   <g>
    <path fill="#609872" d="M634 264c3,1 7,2 10,3 9,-5 18,-11 27,-17 10,-3 20,-5 29,-8 7,3 13,7 19,10 13,15 26,29 39,44 5,7 11,15 16,22 15,0 30,1 45,1 4,0 8,0 11,0 10,-4 19,-7 28,-11 15,4 31,7 46,11 8,-3 17,-6 25,-9 17,3 34,6 51,8 27,13 54,26 81,39 9,7 18,13 26,20 1,0 2,0 2,0 18,-3 36,-6 54,-9 9,-11 18,-22 27,-33 8,-2 16,-4 24,-6 3,8 5,16 8,24 5,10 11,20 16,30 0,0 0,0 1,0 21,-3 42,-5 63,-7 23,-2 47,-3 70,-5 17,0 33,0 49,0 1,0 1,0 2,-1 6,-3 13,-6 19,-9 12,2 23,3 35,5 13,8 26,16 40,24 5,-1 11,-1 16,-1 9,-19 17,-37 26,-56 10,1 20,2 30,2 8,9 15,18 23,27 2,1 5,3 7,5 -1,13 -2,26 -3,40 -6,8 -12,16 -19,24 -12,12 -25,23 -38,34 -10,4 -20,9 -30,13 -9,14 -17,27 -26,41 1,2 1,5 1,8 1,6 2,13 2,20 3,9 6,18 9,27 0,0 0,0 1,0 4,7 8,14 12,21 16,11 31,23 47,35 0,5 1,9 2,14 2,12 3,25 4,38 -14,-3 -28,-7 -42,-10 -4,-1 -7,-2 -11,-4 -7,5 -15,9 -23,14 -5,11 -10,22 -14,33 0,12 -1,24 -1,35 1,3 2,5 2,7 -6,-2 -12,-4 -18,-7 -5,-2 -10,-4 -15,-6 -6,-4 -11,-8 -17,-12 -6,-3 -13,-7 -19,-10 -1,0 -2,1 -3,1 -2,1 -4,2 -6,3 -1,3 -3,5 -4,8 -3,5 -6,10 -9,16 -2,3 -4,7 -6,10 -5,1 -9,2 -13,3 -4,0 -7,0 -11,0 -3,2 -6,3 -9,4 -3,2 -5,3 -8,5 -2,4 -4,7 -7,11 -1,4 -2,8 -3,11 -3,5 -5,9 -7,14 -4,3 -7,6 -11,10 -4,2 -9,5 -13,7 -3,2 -7,5 -10,7 -2,1 -3,2 -4,3 -4,7 -8,14 -12,21 -3,8 -6,16 -8,23 -1,9 -2,17 -3,25 -2,6 -4,13 -7,19 0,6 -1,12 -2,18 0,6 -1,13 -1,20 -2,3 -3,6 -5,9 -2,1 -5,1 -8,2 -4,-1 -7,-2 -11,-4 -3,-3 -5,-5 -7,-8 -3,0 -6,-1 -9,-1 -1,2 -2,3 -3,5 -2,3 -3,6 -4,10 -1,4 -2,8 -3,12 -2,2 -4,5 -6,8 -3,2 -6,4 -9,7 -3,-2 -6,-3 -9,-4 -4,-3 -7,-6 -11,-10 -6,-4 -11,-9 -17,-14 -4,1 -8,1 -12,2 -5,1 -10,2 -16,3 -5,0 -11,1 -16,2 -2,0 -3,0 -5,1 -6,2 -11,4 -17,6 -4,3 -8,6 -11,9 -3,4 -5,9 -7,13 -1,6 -2,12 -3,18 -4,2 -8,4 -12,6 -4,2 -8,3 -12,5 -4,-1 -8,-1 -12,-2 -5,-1 -10,-3 -15,-4 -4,-3 -8,-5 -12,-7 -3,-3 -5,-5 -8,-8 1,-3 1,-6 2,-9 0,-4 0,-9 0,-13 0,-3 0,-6 0,-10 -2,-3 -4,-6 -6,-8 -4,-2 -7,-3 -11,-4 -5,1 -9,2 -13,3 -2,3 -3,5 -4,8 -3,1 -5,2 -8,3 -3,0 -5,-1 -8,-1 0,-5 -1,-10 -1,-15 -1,-7 -3,-13 -4,-19 -2,-6 -3,-12 -5,-18 -2,-1 -3,-3 -5,-5 -3,0 -7,0 -11,-1 -2,-1 -4,-2 -6,-3 -3,-2 -5,-4 -7,-6 -1,1 -2,1 -3,2 -1,1 -3,1 -5,2 -1,2 -3,4 -4,6 -5,1 -10,2 -14,2 -4,1 -8,1 -12,2 -2,-2 -5,-4 -7,-5 -4,-5 -8,-9 -11,-14 -4,-1 -8,-3 -13,-4 -6,0 -12,0 -19,0 -5,3 -10,5 -15,8 -4,4 -8,8 -12,13 -3,6 -6,12 -8,18 -5,6 -10,13 -15,20 -6,5 -13,9 -19,14 -7,1 -14,2 -21,4 -7,1 -14,1 -22,2 -5,2 -10,3 -15,5 -6,3 -11,6 -16,10 -1,0 -2,1 -3,1 -5,2 -11,4 -16,6 -7,1 -14,3 -20,4 -3,2 -6,4 -9,6 -3,4 -6,8 -9,12 -3,4 -6,8 -9,12 -2,1 -4,2 -6,3 -3,0 -6,0 -9,-1 -4,-2 -7,-4 -11,-6 -5,1 -11,2 -16,3 -2,1 -4,2 -7,3 -2,2 -4,4 -7,6 -3,1 -7,2 -10,3 -4,-1 -7,-2 -10,-3 -3,-5 -6,-9 -8,-13 -3,-6 -7,-12 -10,-17 -4,-6 -9,-12 -13,-18 -5,0 -10,0 -15,0 -4,2 -8,4 -12,6 -3,3 -6,5 -9,8 -4,3 -7,7 -11,10 -4,3 -9,5 -13,7 -5,2 -10,4 -15,5 -6,4 -11,7 -16,10 -4,4 -8,7 -12,11 -6,0 -12,0 -18,0 -4,-2 -8,-4 -12,-6 -5,-3 -9,-7 -13,-10 -5,-4 -9,-8 -14,-11 -2,-7 -5,-14 -8,-21 -1,-2 -3,-4 -4,-6 -1,-2 -2,-4 -3,-6 -6,-4 -11,-7 -17,-11 -7,1 -14,1 -21,1 -4,3 -7,5 -11,7 -4,0 -8,0 -12,0 -1,-3 -3,-6 -4,-9 -3,-4 -5,-7 -8,-10 -4,-5 -9,-9 -13,-14 -1,0 -2,0 -2,0 -4,1 -7,2 -10,3 -3,4 -6,8 -10,12 -6,4 -12,8 -18,12 -9,5 -19,10 -28,14 -10,2 -20,3 -30,5 -3,0 -7,0 -10,0 -6,0 -13,0 -19,0 -9,-2 -17,-3 -26,-5 -8,-4 -16,-8 -23,-12 -2,-12 -4,-25 -6,-37 -6,-10 -11,-20 -16,-30 -10,-11 -20,-21 -30,-31 0,-14 1,-27 1,-40 0,-15 0,-30 1,-45 2,-10 3,-20 5,-30 5,-5 11,-10 16,-15 5,-3 11,-7 16,-10 9,-3 18,-5 27,-8 13,-8 27,-16 41,-24 10,-1 20,-2 30,-3 0,0 0,0 0,0 13,-16 27,-33 40,-49 9,-6 18,-12 27,-17 11,-11 22,-22 34,-32 6,-4 13,-9 19,-13 4,-1 7,-2 11,-3 20,0 41,0 62,0 5,0 11,0 17,0 6,1 12,3 18,4 5,-1 10,-2 15,-4 7,-1 14,-2 22,-3 0,-3 0,-7 0,-10 0,-4 0,-8 0,-12 -18,-7 -36,-14 -54,-21 -8,-3 -15,-6 -22,-9 -1,-5 -2,-11 -3,-17 0,0 0,-1 0,-2 -8,-3 -15,-5 -23,-8 -10,-2 -21,-3 -32,-4 -8,-5 -17,-10 -25,-15 -6,-6 -11,-12 -17,-18 0,-8 -1,-17 -1,-25 4,-5 7,-10 11,-15 9,-7 18,-15 27,-22 0,-1 0,-3 1,-4 0,-4 1,-7 2,-11 -4,-5 -9,-11 -13,-17 -13,-3 -26,-7 -38,-10 -6,-3 -13,-6 -19,-8 0,-5 0,-10 -1,-14 11,-6 21,-12 31,-19 14,-8 27,-16 41,-24 23,0 45,-1 68,-1 3,-3 6,-5 9,-7 1,-1 2,-2 4,-3 -18,-10 -36,-21 -53,-31 0,-10 1,-20 1,-30 -8,-1 -15,-2 -23,-3 -11,-6 -21,-13 -32,-20 -4,-9 -9,-19 -13,-28 -5,-4 -11,-7 -16,-10 -3,-11 -5,-21 -7,-31 1,-2 2,-5 4,-7 -2,-10 -5,-20 -7,-30 -4,-1 -8,-3 -13,-4 -7,-1 -15,-2 -23,-4 -3,-7 -7,-13 -10,-20 -3,-10 -6,-19 -9,-29 18,-13 36,-26 55,-39 12,5 25,9 37,14 13,6 25,12 37,18 27,7 55,14 82,21 12,4 25,9 38,14 3,7 6,15 9,22 2,15 4,30 6,44 9,7 19,13 28,19 7,2 13,4 20,6 17,5 34,11 52,17 3,8 6,17 9,25 4,4 8,7 12,11 10,1 20,2 30,3 15,6 29,13 43,20 8,2 15,4 23,7z"/>
   </g>
   <g>
    <path fill="#659D76" d="M634 256c4,1 7,2 11,4 9,-6 17,-12 26,-18 10,-2 20,-5 30,-8 6,4 12,7 19,10 12,15 25,29 38,44 6,8 11,15 16,22 16,1 31,1 46,1 3,0 7,0 11,0 9,-3 18,-7 27,-11 16,4 31,8 46,11 9,-3 17,-5 26,-8 16,2 33,5 50,7 28,13 55,26 82,39 8,7 17,14 26,20 0,0 1,0 2,0 18,-3 35,-6 53,-8 9,-11 18,-23 27,-34 8,-2 16,-4 24,-6 3,8 6,16 8,24 6,10 11,20 16,30 1,0 1,0 1,0 21,-2 42,-5 63,-7 24,-1 47,-3 71,-4 16,0 32,-1 48,-1 1,0 1,0 2,0 7,-3 13,-6 20,-9 11,1 22,3 34,4 13,8 27,16 40,24 5,0 11,-1 16,-1 9,-19 18,-37 26,-55 10,0 21,1 31,2 7,9 15,17 22,26 3,2 5,3 8,5 -1,13 -2,27 -3,40 -7,8 -13,16 -19,25 -13,11 -26,22 -39,33 -10,5 -20,9 -30,13 -8,14 -17,28 -25,41 0,3 0,5 1,8 0,7 1,13 2,20 3,9 6,18 8,27 1,0 1,1 1,1 4,6 9,13 13,20 15,12 31,24 46,35 1,5 2,9 3,14 1,13 2,26 4,39 -14,-4 -29,-7 -43,-11 -3,-1 -7,-2 -10,-3 -8,4 -16,9 -24,13 -4,11 -9,22 -14,33 0,12 0,24 0,36 0,2 1,4 2,6 -7,-2 -13,-4 -19,-6 -5,-3 -10,-5 -15,-7 -5,-4 -11,-8 -17,-12 -6,-3 -13,-6 -19,-10 -1,1 -2,1 -3,2 -2,1 -3,1 -5,2 -2,3 -3,5 -5,8 -3,5 -6,11 -8,16 -3,4 -5,7 -7,11 -4,1 -8,2 -13,3 -3,0 -7,0 -10,0 -4,1 -7,2 -10,3 -3,2 -5,3 -7,5 -3,4 -5,8 -7,12 -2,3 -3,7 -4,10 -2,5 -5,9 -7,14 -4,3 -7,7 -11,10 -4,3 -8,5 -12,7 -4,3 -7,5 -11,7 -1,1 -3,2 -4,3 -4,7 -8,14 -12,21 -2,8 -5,16 -8,24 -1,8 -2,16 -3,24 -2,7 -4,13 -6,20 -1,5 -2,11 -3,17 0,7 -1,13 -1,20 -1,3 -3,6 -4,9 -3,1 -6,2 -8,2 -4,-1 -8,-2 -12,-3 -2,-3 -4,-6 -7,-9 -3,0 -5,0 -8,0 -2,1 -3,3 -4,4 -1,3 -2,7 -3,10 -1,4 -2,8 -3,12 -3,3 -5,5 -7,8 -3,2 -6,5 -9,7 -3,-1 -6,-3 -9,-4 -3,-3 -7,-6 -11,-9 -5,-5 -11,-10 -16,-15 -4,1 -9,1 -13,2 -5,1 -10,2 -15,3 -6,1 -11,1 -17,2 -1,0 -3,1 -5,1 -5,2 -11,4 -16,7 -4,3 -8,5 -12,8 -2,5 -4,9 -6,13 -2,7 -3,13 -4,19 -4,2 -8,4 -12,6 -4,1 -8,3 -12,4 -4,-1 -8,-1 -12,-2 -5,-1 -10,-3 -15,-4 -4,-2 -8,-5 -12,-7 -2,-2 -5,-5 -8,-7 1,-4 1,-7 2,-10 0,-4 0,-8 0,-12 0,-4 0,-7 0,-11 -2,-2 -4,-5 -6,-8 -3,-1 -7,-2 -11,-4 -4,1 -9,2 -13,3 -1,3 -2,5 -4,8 -2,1 -5,2 -8,4 -2,-1 -5,-1 -7,-2 -1,-5 -1,-10 -2,-15 -1,-6 -2,-12 -3,-19 -2,-5 -4,-11 -6,-17 -1,-2 -3,-4 -4,-5 -4,-1 -8,-1 -11,-1 -2,-2 -5,-3 -7,-4 -2,-2 -5,-4 -7,-6 -1,1 -2,2 -2,2 -2,1 -4,2 -5,3 -2,2 -3,4 -5,6 -4,0 -9,1 -14,2 -4,0 -8,1 -12,1 -2,-2 -5,-3 -7,-5 -4,-4 -7,-9 -11,-13 -4,-2 -8,-4 -12,-5 -7,0 -13,0 -19,0 -5,3 -10,5 -15,8 -5,4 -9,9 -13,13 -3,6 -5,12 -8,18 -5,7 -9,13 -14,20 -7,5 -13,9 -20,14 -7,1 -14,3 -21,4 -7,1 -14,2 -21,3 -6,1 -11,3 -16,4 -5,3 -10,7 -15,10 -2,0 -3,1 -4,1 -5,2 -10,4 -16,6 -6,2 -13,3 -20,4 -3,3 -6,5 -9,7 -3,4 -6,8 -9,12 -3,4 -6,8 -8,11 -2,2 -5,3 -7,4 -3,-1 -6,-1 -9,-1 -3,-2 -7,-4 -11,-6 -5,0 -10,1 -16,2 -2,1 -4,2 -6,3 -3,2 -5,4 -7,6 -4,1 -8,2 -11,4 -3,-2 -6,-3 -10,-4 -2,-4 -5,-9 -8,-13 -3,-6 -6,-11 -10,-17 -4,-6 -8,-12 -13,-18 -5,0 -10,0 -15,0 -4,2 -8,4 -12,6 -3,3 -6,6 -9,8 -3,4 -7,7 -11,11 -4,2 -8,4 -13,6 -5,2 -10,4 -15,6 -5,3 -11,6 -16,10 -4,3 -8,7 -11,10 -7,0 -13,0 -19,0 -4,-2 -8,-3 -12,-5 -4,-4 -8,-7 -13,-11 -4,-4 -9,-7 -13,-11 -3,-7 -6,-14 -9,-20 -1,-3 -2,-5 -4,-7 -1,-2 -2,-4 -3,-6 -6,-4 -11,-7 -16,-11 -8,1 -15,1 -22,2 -3,2 -7,4 -10,6 -4,0 -8,0 -12,0 -2,-3 -3,-6 -5,-9 -2,-3 -5,-7 -7,-10 -5,-5 -10,-9 -14,-14 -1,0 -1,1 -2,1 -3,1 -6,1 -9,2 -4,4 -7,8 -10,12 -6,4 -12,9 -18,13 -10,4 -19,9 -29,13 -10,2 -20,4 -30,5 -3,0 -6,0 -10,0 -6,0 -12,0 -19,0 -8,-1 -17,-3 -26,-5 -7,-4 -15,-7 -23,-11 -2,-13 -4,-25 -6,-38 -5,-10 -10,-20 -15,-30 -10,-10 -20,-21 -30,-31 0,-13 0,-27 0,-40 0,-15 1,-30 1,-44 2,-11 4,-21 6,-31 5,-5 10,-10 15,-15 6,-3 11,-6 17,-10 9,-2 17,-5 26,-7 14,-8 27,-16 41,-24 10,-2 20,-3 30,-4 0,0 0,0 0,0 14,-16 27,-32 41,-49 8,-6 17,-11 26,-17 11,-11 23,-21 34,-32 7,-4 13,-8 20,-13 3,-1 7,-2 10,-3 21,0 41,0 62,0 6,0 11,0 17,0 6,2 12,3 19,4 4,-1 9,-2 14,-3 7,-2 15,-3 22,-4 0,-3 1,-6 1,-9 0,-5 0,-9 0,-13 -18,-7 -37,-14 -55,-21 -7,-3 -15,-6 -22,-8 -1,-6 -2,-12 -3,-18 0,0 0,-1 0,-1 -7,-3 -15,-6 -22,-9 -11,-1 -22,-3 -32,-4 -9,-5 -17,-10 -26,-15 -5,-6 -11,-12 -17,-18 0,-8 0,-16 -1,-25 4,-5 8,-10 11,-14 9,-8 18,-15 27,-23 0,-1 1,-3 1,-4 1,-3 2,-7 2,-11 -4,-5 -9,-11 -13,-16 -13,-4 -25,-8 -38,-11 -6,-3 -12,-5 -19,-8 0,-5 0,-9 0,-14 10,-6 20,-12 30,-18 14,-8 28,-16 41,-25 23,0 46,-1 69,-1 2,-2 5,-5 8,-7 1,-1 3,-2 4,-3 -18,-10 -35,-21 -53,-31 0,-10 1,-20 1,-30 -7,-1 -15,-2 -23,-2 -10,-7 -21,-14 -31,-21 -5,-9 -9,-19 -14,-28 -5,-3 -10,-7 -16,-10 -2,-10 -5,-21 -7,-31 1,-2 3,-4 4,-6 -2,-11 -4,-21 -7,-31 -4,-1 -8,-2 -12,-3 -8,-2 -16,-3 -24,-5 -3,-6 -6,-13 -10,-20 -3,-9 -6,-19 -9,-28 19,-13 37,-26 55,-40 12,5 25,10 38,14 12,6 24,12 37,19 27,6 54,13 81,20 13,5 26,9 38,14 3,8 6,15 9,23 2,14 4,29 6,44 9,6 19,12 28,18 7,2 14,4 20,6 18,6 35,11 52,17 3,8 7,17 10,25 4,4 8,7 12,11 10,1 20,2 30,3 14,7 28,13 43,20 7,2 15,5 22,7z"/>
   </g>
   <g>
    <path fill="#69A27B" d="M634 248c4,1 7,3 11,4 9,-6 18,-12 27,-17 9,-3 19,-6 29,-9 6,4 13,7 19,11 13,14 26,29 38,43 6,8 11,15 17,23 15,0 30,0 45,1 4,0 7,0 11,0 9,-4 19,-8 28,-12 15,4 30,8 45,12 9,-3 17,-6 26,-9 17,3 34,5 51,8 27,13 54,25 81,38 9,7 17,14 26,21 1,-1 1,-1 2,-1 18,-3 36,-5 53,-8 9,-11 18,-22 27,-34 8,-2 17,-3 25,-5 2,8 5,15 7,23 6,10 11,20 17,30 0,0 0,0 0,0 21,-2 42,-4 63,-6 24,-2 47,-3 71,-5 16,0 32,0 49,0 0,-1 1,-1 1,-1 7,-3 13,-6 20,-9 11,1 23,3 34,4 14,8 27,16 40,24 6,0 11,0 17,-1 8,-18 17,-37 26,-55 10,1 20,1 30,2 8,9 15,18 22,26 3,2 6,4 8,5 -1,14 -2,27 -3,40 -6,8 -13,17 -19,25 -13,11 -26,22 -38,34 -10,4 -20,8 -30,13 -9,13 -17,27 -26,40 0,3 1,6 1,8 1,7 1,14 2,21 3,9 6,18 9,27 0,0 0,0 0,0 5,7 9,13 13,20 16,12 31,24 46,36 1,4 2,9 3,13 1,13 3,26 4,39 -14,-4 -28,-7 -42,-10 -4,-2 -7,-3 -11,-4 -8,4 -16,9 -23,13 -5,11 -10,23 -15,34 0,11 0,23 0,35 1,2 1,4 2,6 -6,-2 -12,-4 -18,-6 -5,-2 -10,-5 -16,-7 -5,-4 -11,-8 -16,-11 -7,-4 -13,-7 -20,-11 -1,1 -1,1 -2,2 -2,1 -4,2 -6,3 -1,2 -3,5 -4,7 -3,5 -6,11 -9,16 -2,4 -5,7 -7,11 -4,1 -8,2 -12,3 -4,0 -7,0 -11,0 -3,1 -7,2 -10,4 -2,1 -5,3 -7,4 -2,4 -5,8 -7,12 -1,3 -2,7 -3,11 -3,4 -5,9 -8,13 -3,4 -7,7 -10,10 -5,3 -9,5 -13,7 -4,3 -7,5 -11,8 -1,1 -2,1 -4,2 -4,7 -7,14 -11,21 -3,8 -6,16 -9,24 -1,8 -2,16 -3,24 -2,7 -4,13 -6,20 -1,6 -1,11 -2,17 -1,7 -1,14 -2,20 -1,3 -2,6 -4,9 -3,1 -5,2 -8,3 -4,-2 -8,-3 -12,-4 -2,-3 -4,-6 -6,-9 -3,0 -6,0 -9,0 -1,1 -2,3 -4,4 -1,4 -2,7 -3,10 -1,4 -2,8 -3,12 -2,3 -5,6 -7,8 -3,3 -6,5 -8,7 -3,-1 -6,-2 -9,-4 -4,-3 -8,-6 -11,-9 -6,-5 -11,-10 -17,-14 -4,0 -8,1 -12,1 -5,1 -11,2 -16,3 -5,1 -11,1 -16,2 -2,0 -4,1 -5,1 -6,2 -11,5 -17,7 -4,3 -8,6 -12,9 -2,4 -4,8 -6,13 -1,6 -2,12 -3,18 -5,2 -9,4 -13,6 -4,1 -8,3 -11,4 -4,0 -9,-1 -13,-1 -5,-2 -10,-3 -15,-5 -4,-2 -8,-4 -12,-7 -2,-2 -5,-5 -7,-7 0,-3 1,-7 1,-10 0,-4 0,-8 0,-12 0,-3 0,-7 0,-10 -2,-3 -3,-6 -5,-9 -4,-1 -8,-2 -12,-3 -4,1 -8,2 -13,3 -1,2 -2,5 -3,7 -3,1 -6,3 -8,4 -3,-1 -5,-1 -8,-2 -1,-5 -1,-10 -2,-15 -1,-6 -2,-12 -3,-18 -2,-6 -4,-12 -6,-18 -1,-2 -3,-3 -4,-5 -4,0 -7,-1 -11,-1 -2,-1 -4,-2 -7,-4 -2,-2 -4,-3 -7,-5 -1,0 -1,1 -2,1 -2,1 -3,2 -5,3 -1,2 -3,4 -4,6 -5,1 -10,1 -15,2 -3,0 -7,1 -11,1 -3,-1 -5,-3 -8,-5 -3,-4 -7,-9 -11,-13 -4,-2 -8,-3 -12,-5 -6,0 -13,0 -19,1 -5,2 -10,5 -15,7 -4,5 -8,9 -13,13 -2,6 -5,12 -8,18 -4,7 -9,14 -14,21 -6,4 -13,9 -20,13 -7,2 -13,3 -20,4 -7,1 -15,2 -22,3 -5,1 -10,3 -16,4 -5,4 -10,7 -15,10 -1,1 -2,1 -3,2 -6,2 -11,4 -16,6 -7,1 -14,2 -21,4 -3,2 -5,4 -8,6 -3,4 -6,8 -9,12 -3,4 -6,8 -9,12 -2,1 -4,2 -6,3 -3,0 -6,-1 -9,-1 -4,-2 -8,-4 -12,-6 -5,1 -10,1 -15,2 -3,1 -5,2 -7,3 -2,2 -5,4 -7,6 -4,2 -7,3 -11,4 -3,-1 -6,-2 -9,-4 -3,-4 -6,-8 -9,-13 -3,-5 -6,-11 -9,-17 -5,-6 -9,-12 -13,-18 -6,0 -11,0 -16,0 -4,2 -8,4 -12,7 -3,2 -6,5 -8,7 -4,4 -8,7 -11,11 -5,2 -9,4 -13,7 -5,1 -11,3 -16,5 -5,3 -10,7 -15,10 -4,3 -8,7 -12,11 -6,0 -12,0 -18,0 -4,-2 -9,-4 -13,-6 -4,-4 -8,-7 -12,-11 -5,-3 -9,-7 -14,-11 -3,-7 -5,-13 -8,-20 -2,-2 -3,-4 -4,-6 -1,-3 -3,-5 -4,-7 -5,-3 -11,-7 -16,-10 -7,0 -14,0 -21,1 -4,2 -7,4 -11,7 -4,0 -8,0 -12,0 -1,-4 -3,-7 -4,-10 -3,-3 -5,-7 -8,-10 -5,-4 -9,-9 -14,-13 0,0 -1,0 -2,0 -3,1 -6,2 -9,3 -3,4 -7,8 -10,12 -6,4 -12,8 -18,12 -10,4 -19,9 -28,14 -10,1 -20,3 -31,5 -3,0 -6,0 -9,0 -7,0 -13,0 -19,0 -9,-2 -18,-4 -26,-5 -8,-4 -16,-8 -24,-12 -2,-13 -4,-25 -6,-38 -5,-10 -10,-20 -15,-30 -10,-10 -20,-20 -30,-31 0,-13 0,-26 0,-40 1,-15 1,-29 1,-44 2,-10 4,-20 6,-31 5,-4 10,-9 15,-14 6,-4 12,-7 17,-11 9,-2 18,-5 26,-7 14,-8 28,-16 41,-24 10,-1 20,-2 30,-4 0,0 1,0 1,0 13,-16 27,-32 40,-49 9,-5 18,-11 26,-17 12,-10 23,-21 34,-32 7,-4 14,-8 20,-12 4,-1 7,-2 10,-3 21,0 42,0 62,0 6,0 12,0 17,0 6,1 13,2 19,3 5,-1 9,-2 14,-3 8,-1 15,-2 23,-4 0,-3 0,-6 0,-9 0,-4 0,-9 0,-13 -18,-7 -36,-14 -55,-21 -7,-3 -14,-5 -22,-8 -1,-6 -1,-11 -2,-17 0,-1 0,-2 0,-2 -8,-3 -15,-6 -23,-9 -11,-1 -21,-2 -32,-4 -9,-5 -17,-10 -25,-15 -6,-6 -12,-12 -17,-17 -1,-9 -1,-17 -1,-26 3,-4 7,-9 11,-14 9,-8 17,-15 26,-23 1,-1 1,-2 1,-4 1,-3 2,-7 3,-10 -5,-6 -9,-11 -14,-17 -12,-4 -25,-7 -37,-11 -7,-2 -13,-5 -19,-8 0,-4 -1,-9 -1,-14 10,-6 21,-12 31,-18 13,-8 27,-16 40,-24 23,-1 46,-1 69,-2 3,-2 5,-4 8,-7 2,-1 3,-2 4,-3 -17,-10 -35,-20 -53,-31 1,-10 1,-20 2,-30 -8,0 -16,-1 -23,-2 -11,-7 -21,-14 -32,-20 -4,-10 -9,-19 -13,-29 -6,-3 -11,-6 -17,-10 -2,-10 -4,-20 -7,-31 2,-2 3,-4 4,-6 -2,-10 -4,-21 -6,-31 -4,-1 -9,-2 -13,-3 -8,-2 -15,-3 -23,-4 -4,-7 -7,-14 -10,-21 -3,-9 -6,-19 -9,-28 18,-13 36,-26 54,-39 13,4 25,9 38,14 12,6 25,12 37,18 27,7 54,13 81,20 13,5 26,10 39,14 3,8 6,15 9,23 2,15 3,29 5,44 10,6 19,12 29,18 6,2 13,4 20,6 17,6 34,12 51,17 4,9 7,17 10,26 4,3 8,7 12,10 10,1 20,2 30,3 14,7 29,13 43,20 8,2 15,5 22,7z"/>
   </g>
  </g>
  <g id="_348018302656">
   <g id="_579141171760_0">
    <g id="Layers_1">
     <g id="Bihar_2">
      <polygon fill="#6DA77F" points="635,240 645,244 672,227 701,219 720,229 759,273 775,295 820,296 831,296 859,285 905,296 930,287 981,295 1062,334 1088,354 1090,353 1144,345 1171,312 1195,306 1203,329 1219,359 1220,359 1283,353 1353,348 1402,348 1404,347 1423,338 1458,343 1498,367 1514,366 1540,310 1571,312 1593,339 1600,344 1597,383 1579,408 1540,442 1510,455 1484,496 1486,503 1488,524 1496,551 1497,551 1510,571 1556,607 1558,620 1562,659 1520,649 1510,645 1486,659 1472,692 1471,727 1473,734 1455,727 1440,720 1423,709 1404,699 1401,700 1395,703 1391,710 1382,727 1376,737 1363,740 1352,740 1343,744 1335,748 1328,760 1325,771 1318,785 1307,795 1294,802 1284,809 1280,812 1268,832 1260,856 1257,881 1250,900 1248,917 1247,938 1243,947 1234,949 1223,945 1216,937 1207,936 1204,941 1200,950 1197,963 1191,971 1182,977 1173,974 1162,964 1145,950 1133,951 1117,954 1101,956 1096,957 1079,964 1068,973 1061,986 1058,1004 1046,1010 1034,1014 1022,1013 1007,1008 995,1002 987,994 989,984 989,972 989,962 983,953 972,950 959,953 955,961 947,964 939,963 938,947 934,929 929,911 924,906 913,905 907,902 900,896 897,898 893,900 888,906 874,908 862,910 855,905 844,891 831,886 812,887 797,895 785,908 777,925 762,946 743,959 722,964 700,966 685,971 669,980 666,982 650,988 630,992 621,998 612,1010 603,1022 597,1025 588,1024 577,1018 561,1020 554,1023 547,1030 537,1033 527,1030 519,1016 509,1000 496,981 481,981 469,988 460,996 449,1006 436,1013 421,1018 405,1028 393,1039 375,1039 363,1033 350,1023 336,1011 328,991 324,985 321,978 304,968 283,969 272,976 260,976 256,967 248,956 235,943 233,943 223,946 213,958 195,970 167,984 137,989 127,989 108,989 82,984 59,972 53,935 37,905 7,874 8,834 9,789 14,759 30,744 47,734 73,726 114,702 144,699 144,699 184,650 211,632 245,601 265,588 275,585 337,585 354,585 372,589 387,585 409,582 409,572 409,559 355,538 333,530 330,513 330,511 307,502 275,499 250,484 233,466 232,441 243,426 270,404 271,400 273,389 260,372 222,361 203,353 202,340 233,321 274,297 342,295 351,289 355,286 302,255 303,225 280,222 248,202 235,173 219,164 212,133 216,126 209,96 196,92 173,88 163,68 154,39 209,0 246,14 283,32 365,52 403,67 412,89 418,133 446,152 466,158 518,174 527,200 539,210 569,213 612,233 "/>
     </g>
    </g>
   </g>
  </g>
 </g>
</svg>
