<?xml version="1.0" encoding="UTF-8"?>
<!DOCTYPE svg PUBLIC "-//W3C//DTD SVG 1.1//EN" "http://www.w3.org/Graphics/SVG/1.1/DTD/svg11.dtd">
<!-- Creator: CorelDRAW X8 -->
<svg xmlns="http://www.w3.org/2000/svg" xml:space="preserve" width="100%" height="100%" version="1.1" shape-rendering="geometricPrecision" text-rendering="geometricPrecision" image-rendering="optimizeQuality" fill-rule="evenodd" clip-rule="evenodd"
viewBox="0 0 961 1440"
 xmlns:xlink="http://www.w3.org/1999/xlink">
 <g id="Layer_x0020_1">
  <metadata id="CorelCorpID_0Corel-Layer"/>
  <polygon fill="#143D21" points="775,177 810,210 822,219 824,232 830,240 841,247 851,248 863,246 877,245 883,248 879,268 875,278 875,286 882,294 888,302 889,337 889,338 890,346 901,350 904,356 909,371 919,373 937,375 954,379 961,390 954,401 933,415 926,423 917,433 905,443 895,447 884,448 872,456 870,469 873,487 856,516 842,516 837,516 814,524 799,539 797,555 773,567 774,590 794,606 793,611 764,616 758,647 734,654 734,680 735,702 719,708 717,716 709,740 693,755 672,747 640,743 595,746 567,756 569,781 555,796 514,804 514,806 519,823 520,842 514,867 521,876 528,911 524,918 523,928 532,940 531,977 562,986 590,991 603,995 605,1009 600,1018 564,1016 556,1029 546,1022 529,1012 518,1021 510,1022 503,1003 481,988 468,988 462,981 442,981 424,966 422,965 415,962 407,963 408,965 414,974 412,989 414,1005 427,1025 448,1037 451,1093 473,1112 471,1131 465,1179 476,1190 487,1204 490,1221 477,1242 464,1241 443,1246 421,1265 421,1265 414,1293 390,1316 375,1330 349,1341 330,1364 326,1380 324,1392 309,1411 305,1436 294,1437 277,1440 252,1438 216,1437 208,1435 202,1406 200,1381 202,1370 203,1361 198,1358 196,1356 187,1360 178,1362 172,1358 167,1357 153,1362 147,1362 145,1354 147,1344 150,1333 149,1325 143,1311 138,1301 119,1287 117,1277 107,1262 85,1264 78,1275 50,1256 40,1248 52,1247 57,1235 65,1225 68,1209 53,1197 57,1188 68,1153 80,1137 105,1120 122,1117 125,1127 157,1127 173,1123 178,1113 179,1112 187,1097 200,1090 197,1075 180,1071 167,1067 152,1061 145,1059 144,1041 144,1040 133,1025 101,1021 100,988 117,984 125,972 124,950 122,950 109,949 106,942 107,926 116,924 128,923 133,915 133,907 143,899 144,873 127,861 124,847 130,833 130,796 124,789 117,786 110,786 108,755 107,743 129,736 133,729 149,719 153,710 151,699 159,693 167,686 172,647 177,631 188,612 189,610 191,580 201,561 208,551 227,552 236,524 257,499 267,476 282,471 289,463 301,459 327,466 329,467 349,455 376,452 396,423 396,411 407,407 412,389 439,375 442,357 452,347 471,340 472,340 492,308 495,293 492,287 456,281 447,272 443,261 422,257 405,249 391,251 378,261 374,262 366,261 366,245 356,245 356,238 373,224 375,174 399,190 419,192 439,186 456,193 488,196 526,197 546,203 551,203 574,197 594,187 602,175 623,173 626,168 654,186 674,191 689,185 707,175 723,171 727,161 730,150 731,138 746,142 765,156 775,166 "/>
  <g id="_348050425296">
   <path fill="#184225" d="M774 171c11,10 22,21 34,32 4,3 8,7 13,10 0,4 1,8 1,12 2,3 4,6 6,9 3,2 7,4 11,6 3,1 6,1 10,2 4,-1 8,-2 12,-3 5,0 10,0 14,-1 2,1 4,3 6,4 -1,6 -2,13 -3,20 -2,3 -3,6 -5,9 0,3 0,5 0,8 2,3 5,5 7,8 2,3 4,6 6,9 0,11 1,23 1,35 0,0 0,0 0,1 0,2 1,5 1,7 4,2 7,3 11,4 1,2 2,4 3,6 2,5 3,10 5,15 4,1 7,2 11,2 5,1 11,2 17,3 6,1 11,2 17,3 2,4 5,8 8,11 -3,4 -6,8 -8,11 -7,5 -14,10 -20,14 -3,3 -6,6 -8,9 -3,3 -6,6 -9,10 -4,3 -8,6 -12,9 -3,2 -6,3 -10,5 -3,0 -7,0 -10,0 -4,3 -9,5 -13,8 0,4 -1,9 -2,13 1,6 2,12 3,18 -6,10 -11,20 -17,30 -5,0 -10,0 -14,0 -2,0 -4,0 -5,0 -8,2 -15,5 -22,7 -6,5 -11,10 -16,15 -1,6 -1,11 -2,16 -8,4 -16,8 -24,12 0,8 1,16 1,23 7,6 13,11 20,16 0,2 0,4 -1,6 -9,1 -19,3 -29,5 -2,10 -4,20 -5,31 -9,2 -17,4 -25,6 0,9 0,18 0,26 1,8 1,15 1,22 -5,2 -10,5 -15,7 -1,2 -2,5 -3,8 -3,7 -6,15 -8,23 -6,5 -11,10 -16,15 -7,-2 -14,-5 -21,-7 -11,-2 -21,-3 -32,-5 -15,1 -30,2 -45,3 -9,4 -18,7 -28,10 1,9 2,17 2,26 -5,5 -9,9 -14,14 -14,3 -28,6 -41,9 0,0 0,1 0,1 2,6 4,12 5,18 1,6 1,12 1,19 -2,8 -4,16 -6,25 3,2 5,5 7,8 2,12 5,24 7,35 -2,3 -3,5 -4,8 0,3 -1,6 -1,9 3,4 6,8 9,12 0,13 -1,25 -1,38 10,3 21,6 31,9 9,1 19,3 28,4 4,2 9,3 13,5 1,4 1,9 2,14 -2,3 -4,6 -5,9 -12,-1 -24,-2 -35,-2 -3,4 -6,8 -9,12 -3,-2 -6,-4 -10,-6 -6,-4 -11,-7 -17,-11 -4,3 -7,7 -11,10 -3,0 -5,0 -8,1 -2,-7 -4,-13 -6,-19 -8,-5 -15,-11 -23,-16 -4,0 -9,0 -13,1 -2,-3 -4,-5 -6,-8 -7,0 -14,0 -20,1 -6,-5 -12,-11 -18,-16 0,0 -1,0 -1,0 -3,-2 -6,-3 -8,-4 -3,0 -5,1 -8,1 1,1 1,2 1,2 2,3 4,7 6,10 -1,5 -1,9 -2,14 1,6 1,11 2,16 4,7 9,13 13,20 7,4 14,8 21,12 1,19 2,37 3,56 7,7 15,13 22,20 -1,6 -1,12 -2,18 -2,17 -4,33 -6,49 3,3 7,7 11,10 4,5 7,10 11,15 1,5 2,11 3,16 -4,7 -8,14 -13,21 -4,0 -8,0 -13,0 -7,1 -14,3 -21,5 -7,6 -15,12 -22,18 0,0 0,1 0,1 -2,9 -4,18 -7,28 -8,7 -16,15 -24,23 -5,4 -10,9 -15,14 -9,3 -18,7 -26,10 -6,8 -13,16 -19,24 -1,5 -3,10 -4,15 -1,5 -1,9 -2,13 -5,6 -10,12 -15,19 -1,8 -2,16 -4,25 -3,0 -7,0 -11,1 -6,1 -11,1 -17,2 -8,0 -17,-1 -25,-2 -12,0 -24,0 -36,0 -2,-1 -5,-1 -8,-2 -2,-10 -4,-20 -6,-29 -1,-9 -2,-17 -2,-25 0,-4 1,-8 2,-12 0,-3 1,-6 1,-9 -2,-1 -3,-2 -5,-3 0,-1 -1,-1 -2,-2 -3,2 -6,3 -9,5 -3,0 -6,1 -9,1 -2,-1 -4,-2 -6,-3 -2,-1 -3,-1 -5,-2 -4,2 -9,4 -13,6 -3,-1 -5,-1 -7,-1 -1,-3 -2,-5 -2,-8 0,-3 1,-6 2,-9 1,-4 2,-8 3,-12 -1,-2 -1,-5 -1,-7 -2,-5 -4,-10 -6,-14 -1,-4 -3,-7 -5,-11 -6,-4 -12,-9 -19,-14 0,-3 -1,-6 -2,-9 -3,-5 -6,-11 -10,-16 -7,1 -15,1 -22,2 -2,4 -5,7 -7,11 -9,-6 -18,-12 -27,-19 -4,-2 -8,-5 -11,-8 4,0 8,0 12,-1 2,-4 3,-8 5,-12 3,-3 5,-7 8,-10 1,-5 2,-11 3,-16 -5,-4 -10,-8 -15,-12 1,-3 3,-6 4,-9 4,-11 7,-23 11,-35 4,-5 8,-11 12,-16 8,-5 16,-11 25,-16 6,-1 12,-2 17,-4 1,4 3,7 4,10 10,0 21,0 32,0 5,-1 10,-3 15,-4 2,-3 4,-6 5,-10 1,0 1,0 1,-1 3,-5 5,-10 8,-15 4,-2 8,-4 13,-6 -1,-5 -2,-11 -3,-16 -5,-1 -11,-2 -17,-4 -4,-1 -8,-3 -13,-4 -5,-2 -10,-4 -15,-6 -3,0 -5,-1 -7,-2 0,-6 -1,-12 -1,-18 0,0 0,0 0,-1 -3,-5 -7,-9 -11,-14 -10,-2 -21,-3 -31,-4 -1,-11 -1,-22 -2,-33 6,-2 12,-3 17,-4 3,-4 6,-9 8,-13 0,-7 -1,-14 -1,-22 -1,0 -1,0 -2,0 -4,0 -8,0 -13,-1 -1,-2 -2,-4 -3,-7 0,-5 1,-10 1,-16 3,0 6,-1 9,-1 4,-1 8,-1 12,-1 2,-3 4,-6 5,-9 0,-2 0,-5 0,-8 4,-2 7,-5 10,-8 1,-8 1,-17 1,-26 -5,-4 -11,-8 -17,-12 -1,-4 -2,-9 -3,-14 2,-4 4,-9 7,-14 -1,-12 -1,-24 -1,-37 -2,-2 -4,-4 -6,-7 -2,-1 -4,-1 -7,-2 -2,0 -4,0 -7,0 0,-11 -1,-21 -2,-32 0,-4 0,-8 -1,-12 8,-2 15,-4 23,-7 1,-2 2,-4 3,-6 5,-4 11,-7 16,-10 1,-3 3,-7 4,-10 -1,-3 -1,-7 -2,-11 3,-2 6,-3 8,-5 3,-3 6,-5 8,-8 2,-13 3,-26 5,-39 1,-5 3,-11 5,-16 3,-6 7,-13 11,-19 0,0 0,-1 1,-1 1,-10 1,-21 2,-31 3,-6 7,-12 10,-18 2,-4 5,-7 7,-11 7,1 13,1 19,2 3,-9 6,-19 9,-28 7,-9 14,-17 22,-26 3,-7 6,-15 9,-23 5,-1 10,-3 15,-5 2,-2 5,-5 8,-7 4,-2 8,-3 11,-4 9,2 18,5 26,7 1,0 1,0 2,0 7,-4 14,-7 20,-11 9,-1 18,-2 27,-3 7,-10 13,-20 20,-29 0,-4 0,-9 0,-13 4,-1 7,-3 11,-4 2,-6 3,-12 5,-18 9,-5 18,-9 27,-14 1,-6 2,-12 3,-18 4,-3 7,-6 10,-9 6,-3 13,-5 19,-8 0,0 1,0 1,0 7,-11 13,-21 20,-32 1,-5 2,-10 3,-15 -1,-1 -2,-3 -3,-5 -12,-2 -24,-4 -36,-7 -3,-3 -6,-6 -9,-8 -1,-4 -3,-8 -4,-11 -7,-2 -14,-3 -21,-5 -6,-2 -11,-5 -17,-8 -4,1 -9,2 -14,3 -4,3 -9,6 -13,9 -1,1 -3,1 -4,1 -2,0 -5,0 -8,-1 0,-5 0,-10 0,-15 -3,0 -6,-1 -10,-1 0,-2 0,-5 0,-7 6,-5 11,-9 17,-14 1,-16 1,-33 2,-50 8,6 16,11 25,16 6,1 12,2 19,3 7,-2 13,-4 20,-6 6,2 12,4 17,6 11,1 22,2 32,3 13,1 25,1 38,2 7,2 13,4 20,6 2,0 3,-1 5,-1 7,-2 15,-3 23,-5 6,-4 13,-7 20,-11 3,-4 5,-8 8,-12 7,0 14,-1 21,-1 1,-2 2,-4 3,-5 10,6 19,12 28,18 7,1 14,3 20,4 5,-2 10,-3 15,-5 6,-4 12,-7 18,-10 5,-2 10,-3 16,-4 1,-3 3,-7 4,-10 1,-4 2,-8 3,-12 0,-4 0,-8 1,-11 5,1 10,2 15,3 6,5 13,10 19,14 3,4 7,7 10,11 0,3 0,7 1,11z"/>
   <path fill="#1C472A" d="M772 164c11,11 23,22 34,33 4,3 9,6 13,9 0,4 1,9 1,13 2,3 4,5 6,8 4,2 7,4 11,7 3,0 7,1 10,1 4,-1 8,-1 12,-2 5,-1 10,-1 15,-1 1,1 3,2 5,3 -1,7 -2,13 -3,20 -2,3 -3,6 -5,10 0,2 0,5 0,7 2,3 5,6 7,9 2,2 4,5 6,8 0,12 1,23 1,35 0,0 0,1 0,1 1,3 1,5 1,8 4,1 8,2 11,4 1,2 2,4 3,6 2,5 4,10 6,15 3,0 6,1 10,2 6,0 12,1 18,2 5,1 10,2 16,3 3,4 5,8 8,12 -3,4 -5,7 -8,11 -7,4 -14,9 -20,14 -3,2 -5,5 -8,8 -3,3 -6,7 -9,10 -4,3 -8,6 -11,10 -4,1 -7,3 -10,4 -4,0 -8,1 -11,1 -4,2 -8,5 -12,7 -1,5 -2,9 -3,14 1,6 2,12 3,18 -5,9 -11,19 -17,29 -5,0 -10,0 -14,0 -2,0 -4,0 -5,0 -8,3 -15,5 -22,8 -6,5 -11,10 -16,15 -1,5 -1,10 -2,16 -8,4 -16,8 -24,12 1,7 1,15 2,23 6,5 13,10 19,16 0,1 0,3 0,5 -10,2 -20,3 -30,5 -2,10 -4,21 -5,31 -9,2 -17,4 -25,6 0,9 0,18 0,27 1,7 1,14 2,21 -6,3 -11,5 -16,7 -1,3 -2,5 -3,8 -3,8 -5,16 -8,23 -6,5 -11,10 -16,15 -7,-2 -14,-4 -21,-7 -11,-1 -21,-3 -32,-4 -15,1 -30,2 -45,3 -9,3 -18,6 -28,10 1,8 2,17 2,25 -4,5 -9,10 -14,15 -14,3 -27,5 -41,8 0,1 0,1 0,2 2,6 4,11 6,17 0,6 0,13 0,19 -2,8 -4,17 -6,25 3,3 5,6 7,8 3,12 5,24 7,36 -1,2 -3,5 -4,7 0,3 0,6 -1,9 3,5 6,9 10,13 -1,12 -1,25 -2,37 11,3 21,6 31,9 10,2 19,3 28,5 5,1 9,3 13,4 1,5 1,10 2,14 -2,3 -3,6 -5,9 -12,-1 -24,-1 -35,-2 -3,4 -6,8 -8,12 -4,-2 -7,-4 -11,-6 -5,-3 -11,-7 -17,-10 -4,3 -7,6 -11,9 -3,0 -5,1 -8,1 -2,-6 -4,-12 -6,-19 -8,-5 -15,-10 -23,-16 -4,1 -9,1 -13,1 -2,-2 -4,-5 -6,-8 -7,1 -13,1 -20,1 -6,-5 -12,-10 -18,-15 0,0 -1,-1 -1,-1 -3,-1 -5,-2 -8,-4 -3,1 -5,1 -8,2 1,0 1,1 1,2 2,3 4,6 6,9 -1,5 -1,10 -2,15 1,5 1,10 2,16 4,6 9,13 13,19 7,4 14,8 21,12 1,19 2,38 3,56 8,7 15,14 22,20 -1,6 -1,13 -2,19 -2,16 -4,32 -6,48 4,4 7,7 11,10 4,5 7,10 11,15 1,6 2,11 3,16 -4,8 -8,15 -12,22 -5,0 -9,-1 -14,-1 -7,2 -14,3 -21,5 -7,6 -15,12 -22,19 0,0 0,0 0,0 -2,10 -4,19 -6,28 -9,8 -17,16 -25,23 -5,5 -10,10 -15,14 -9,4 -17,7 -26,10 -6,8 -12,16 -19,24 -1,5 -3,11 -4,16 -1,4 -1,8 -2,12 -5,6 -10,13 -15,19 -1,8 -2,17 -3,25 -4,0 -8,1 -12,1 -6,1 -11,2 -17,3 -8,-1 -17,-2 -25,-2 -12,0 -24,0 -36,-1 -2,0 -5,-1 -8,-2 -2,-9 -4,-19 -6,-29 -1,-8 -1,-16 -2,-25 1,-4 1,-7 2,-11 0,-3 1,-6 1,-9 -2,-1 -3,-2 -5,-4 0,0 -1,-1 -1,-1 -4,1 -7,3 -10,4 -3,1 -6,1 -9,1 -2,-1 -4,-2 -6,-3 -1,0 -3,-1 -5,-1 -4,2 -9,3 -13,5 -3,0 -5,0 -7,-1 -1,-2 -1,-5 -2,-7 1,-3 1,-7 2,-10 1,-4 2,-7 3,-11 0,-3 -1,-5 -1,-8 -2,-4 -4,-9 -5,-14 -2,-3 -4,-7 -6,-10 -6,-5 -12,-10 -19,-14 0,-3 -1,-7 -1,-10 -4,-5 -7,-10 -11,-16 -7,1 -15,2 -22,2 -2,4 -5,8 -7,12 -9,-7 -18,-13 -27,-19 -4,-3 -8,-6 -11,-8 4,-1 8,-1 12,-1 2,-4 4,-8 5,-12 3,-4 5,-7 8,-11 1,-5 2,-10 3,-15 -5,-4 -10,-9 -15,-13 2,-3 3,-5 4,-8 4,-12 8,-24 11,-35 4,-6 8,-11 12,-16 8,-6 17,-11 25,-17 6,-1 12,-2 18,-3 1,3 2,6 3,9 10,0 21,0 32,0 5,-1 10,-2 15,-4 2,-3 4,-6 6,-9 0,-1 0,-1 0,-2 3,-5 5,-10 8,-15 4,-2 9,-4 13,-6 -1,-5 -2,-10 -2,-15 -6,-2 -12,-3 -17,-4 -5,-2 -9,-3 -14,-5 -5,-1 -10,-3 -15,-5 -2,-1 -5,-2 -7,-2 0,-6 -1,-12 -1,-19 0,0 0,0 0,0 -3,-5 -7,-10 -11,-15 -10,-1 -21,-3 -31,-4 -1,-11 -1,-22 -2,-33 6,-1 12,-2 18,-4 2,-4 5,-8 7,-13 0,-7 -1,-14 -1,-21 -1,0 -1,0 -1,0 -5,-1 -9,-1 -14,-1 -1,-3 -2,-5 -3,-7 0,-6 1,-11 1,-16 3,-1 6,-1 9,-2 4,0 8,0 12,-1 2,-3 4,-5 5,-8 0,-3 0,-6 0,-8 4,-3 7,-6 11,-8 0,-9 0,-18 0,-26 -5,-4 -11,-8 -16,-12 -2,-5 -3,-10 -4,-14 2,-5 4,-10 7,-14 0,-13 -1,-25 -1,-37 -2,-3 -4,-5 -6,-7 -2,-1 -4,-2 -6,-3 -3,0 -5,0 -8,0 0,-10 -1,-21 -2,-32 0,-4 0,-7 -1,-11 8,-3 15,-5 23,-7 1,-3 2,-5 3,-7 6,-3 11,-7 16,-10 1,-3 3,-6 4,-9 0,-4 -1,-8 -2,-11 3,-2 6,-4 8,-6 3,-2 6,-5 8,-8 2,-12 3,-25 5,-38 1,-6 3,-11 5,-17 4,-6 7,-12 11,-19 0,0 1,0 1,-1 1,-10 1,-20 2,-30 3,-6 7,-13 10,-19 2,-3 5,-7 7,-10 7,0 13,1 19,1 3,-9 6,-18 9,-28 7,-8 14,-17 22,-25 3,-8 6,-15 9,-23 5,-2 10,-3 15,-5 3,-3 5,-5 8,-8 4,-1 8,-3 12,-4 8,3 17,5 25,7 1,1 1,1 2,1 7,-4 14,-8 20,-12 9,-1 18,-2 27,-3 7,-10 13,-19 20,-29 0,-4 0,-8 0,-12 4,-2 8,-3 11,-5 2,-6 3,-12 5,-18 9,-4 18,-9 27,-13 1,-6 3,-12 4,-18 3,-4 6,-7 9,-10 6,-3 13,-5 19,-8 1,0 1,0 1,0 7,-10 14,-21 20,-31 1,-5 2,-10 3,-15 -1,-2 -2,-4 -3,-6 -12,-2 -24,-4 -36,-6 -3,-3 -6,-6 -9,-9 -1,-4 -3,-7 -4,-11 -7,-1 -14,-3 -21,-4 -5,-3 -11,-6 -17,-8 -4,1 -9,1 -13,2 -5,3 -9,6 -14,10 -1,0 -2,0 -4,1 -2,-1 -5,-1 -7,-1 -1,-6 -1,-11 -1,-16 -3,0 -6,0 -10,0 0,-3 0,-5 0,-7 6,-5 12,-10 17,-14 1,-17 1,-34 2,-50 8,5 16,10 25,16 6,1 13,1 19,2 7,-2 14,-4 20,-6 6,2 12,5 17,7 11,1 22,2 32,3 13,0 25,1 38,1 7,2 13,4 20,6 2,0 3,0 5,-1 7,-1 15,-3 23,-5 7,-3 13,-7 20,-10 3,-4 5,-8 8,-13 7,0 14,0 21,-1 1,-1 2,-3 4,-5 9,6 18,12 27,18 7,1 14,3 20,5 5,-2 10,-4 15,-6 6,-3 12,-7 18,-10 5,-1 11,-2 16,-4 1,-3 3,-6 4,-10 1,-4 2,-8 3,-12 0,-3 1,-7 1,-11 5,1 10,3 15,4 6,5 13,9 19,14 4,3 7,7 10,10 0,4 0,7 1,11z"/>
   <path fill="#214C2E" d="M770 157c11,11 23,22 34,33 4,3 9,6 13,10 0,4 1,8 1,12 2,3 4,6 6,8 4,3 7,5 11,7 3,1 7,1 10,2 4,-1 8,-2 12,-3 5,0 10,-1 15,-1 1,1 3,2 5,4 -1,6 -2,13 -3,19 -2,4 -3,7 -5,10 0,3 0,5 0,8 3,3 5,5 7,8 2,3 4,6 6,8 0,12 1,24 1,35 0,1 0,1 0,2 1,2 1,5 1,7 4,2 8,3 11,4 1,2 2,4 3,6 2,5 4,10 6,15 3,1 6,1 10,2 6,1 12,2 18,3 5,1 11,2 16,3 3,4 5,7 8,11 -3,4 -5,8 -8,11 -7,5 -13,9 -20,14 -3,3 -5,6 -8,8 -3,4 -6,7 -9,10 -4,4 -7,7 -11,10 -4,2 -7,3 -10,5 -4,0 -8,0 -11,0 -4,3 -8,5 -12,8 -1,4 -2,9 -3,13 1,6 2,12 3,18 -5,10 -11,20 -17,29 -5,0 -9,0 -14,0 -2,0 -3,0 -5,0 -7,3 -15,5 -22,8 -6,5 -11,10 -16,15 -1,6 -1,11 -2,16 -8,4 -16,8 -24,12 1,8 1,15 2,23 6,5 13,11 19,16 0,2 0,4 0,5 -10,2 -20,4 -30,5 -2,11 -3,21 -5,32 -8,2 -17,4 -25,6 0,9 0,17 0,26 1,7 1,15 2,22 -6,2 -11,4 -16,7 -1,2 -2,5 -3,7 -3,8 -5,16 -8,24 -5,5 -11,10 -16,15 -7,-3 -14,-5 -21,-7 -11,-2 -21,-3 -32,-5 -15,1 -30,2 -44,3 -10,3 -19,7 -28,10 0,8 1,17 1,25 -4,5 -9,10 -14,15 -14,3 -27,6 -41,8 0,1 0,2 1,2 1,6 3,12 5,17 0,7 0,13 0,20 -2,8 -4,16 -5,24 2,3 4,6 7,9 2,12 4,23 6,35 -1,3 -3,5 -4,7 0,4 0,7 0,10 3,4 6,8 9,12 -1,13 -1,25 -2,38 11,3 21,6 31,9 10,1 19,3 28,4 5,2 9,3 13,5 1,4 1,9 2,14 -2,3 -3,6 -5,8 -12,0 -24,-1 -35,-2 -3,5 -6,9 -8,13 -4,-2 -7,-5 -11,-7 -5,-3 -11,-6 -17,-10 -3,3 -7,6 -11,10 -2,0 -5,0 -8,0 -2,-6 -4,-12 -6,-18 -8,-6 -15,-11 -22,-16 -5,0 -9,0 -14,0 -2,-2 -4,-5 -6,-7 -6,0 -13,0 -20,0 -6,-5 -12,-10 -17,-15 -1,0 -2,0 -2,-1 -3,-1 -5,-2 -8,-3 -2,0 -5,1 -7,1 0,1 0,1 0,2 2,3 4,6 6,10 -1,4 -1,9 -2,14 1,5 1,11 2,16 4,7 9,13 13,20 7,4 14,8 21,12 1,19 2,37 3,56 8,6 15,13 22,20 -1,6 -1,12 -2,18 -2,16 -4,32 -6,49 4,3 7,6 11,10 4,5 8,10 11,14 1,6 2,11 3,17 -4,7 -8,14 -12,21 -5,0 -9,0 -14,0 -7,1 -14,3 -21,5 -7,6 -15,12 -22,18 0,0 0,0 0,1 -2,9 -4,18 -6,28 -8,7 -17,15 -25,23 -5,4 -10,9 -15,14 -9,3 -17,6 -26,10 -6,8 -12,16 -18,23 -2,6 -4,11 -5,16 -1,4 -1,8 -2,12 -5,7 -10,13 -15,19 -1,9 -2,17 -3,25 -4,1 -8,1 -12,2 -6,1 -11,1 -17,2 -8,-1 -17,-1 -25,-2 -12,0 -24,0 -36,0 -2,-1 -5,-2 -7,-2 -3,-10 -5,-20 -7,-29 -1,-9 -1,-17 -2,-25 1,-4 1,-8 2,-12 1,-3 1,-6 1,-9 -1,-1 -3,-2 -5,-3 0,-1 -1,-1 -1,-2 -3,2 -7,3 -10,4 -3,1 -6,1 -9,2 -2,-1 -4,-2 -6,-3 -1,-1 -3,-1 -5,-2 -4,2 -9,4 -13,5 -3,0 -5,0 -7,0 -1,-3 -1,-5 -2,-8 1,-3 1,-6 2,-9 1,-4 2,-8 3,-12 0,-2 -1,-5 -1,-7 -2,-5 -4,-10 -5,-14 -2,-4 -4,-7 -5,-11 -7,-4 -13,-9 -20,-14 0,-3 -1,-6 -1,-9 -4,-6 -7,-11 -11,-16 -7,0 -14,1 -22,2 -2,4 -4,7 -7,11 -9,-6 -18,-13 -27,-19 -4,-3 -7,-5 -11,-8 4,0 8,-1 13,-1 1,-4 3,-8 4,-12 3,-3 6,-7 8,-10 1,-5 2,-11 3,-16 -5,-4 -10,-8 -15,-12 2,-3 3,-6 4,-9 4,-12 8,-23 11,-35 4,-5 8,-11 12,-16 8,-6 17,-11 25,-17 6,-1 12,-2 18,-3 1,3 2,7 3,10 10,0 21,0 32,0 5,-2 10,-3 15,-4 2,-3 4,-7 6,-10 0,0 0,-1 0,-1 3,-5 6,-10 8,-15 4,-2 9,-4 13,-7 -1,-5 -2,-10 -2,-15 -6,-1 -12,-2 -17,-4 -5,-1 -9,-3 -14,-4 -5,-2 -10,-4 -15,-6 -2,-1 -5,-1 -7,-2 0,-6 0,-12 -1,-18 0,0 0,-1 0,-1 -3,-5 -7,-10 -10,-14 -11,-2 -22,-3 -32,-4 -1,-11 -1,-23 -2,-34 6,-1 12,-2 18,-3 2,-5 5,-9 7,-13 0,-7 -1,-15 -1,-22 0,0 -1,0 -1,0 -5,0 -9,-1 -14,-1 -1,-2 -2,-5 -3,-7 1,-5 1,-11 1,-16 3,0 6,-1 9,-1 4,-1 8,-1 12,-1 2,-3 4,-6 6,-9 0,-3 0,-5 0,-8 3,-3 6,-5 10,-8 0,-8 0,-17 0,-26 -5,-4 -11,-8 -16,-12 -2,-5 -3,-9 -4,-14 2,-5 5,-9 7,-14 0,-12 0,-24 -1,-37 -2,-2 -4,-4 -6,-7 -2,-1 -4,-2 -6,-2 -3,0 -5,0 -7,0 -1,-11 -2,-22 -2,-32 -1,-4 -1,-8 -2,-12 8,-2 15,-5 23,-7 1,-2 2,-4 4,-7 5,-3 10,-6 15,-9 1,-4 3,-7 4,-10 0,-4 -1,-7 -2,-11 3,-2 6,-4 9,-5 2,-3 5,-6 7,-8 2,-13 3,-26 5,-39 2,-5 3,-11 5,-16 4,-6 7,-13 11,-19 0,-1 1,-1 1,-1 1,-11 2,-21 2,-31 4,-6 7,-12 10,-18 3,-4 5,-7 8,-11 6,1 12,1 18,2 3,-10 6,-19 9,-28 7,-9 15,-17 22,-26 3,-7 6,-15 9,-23 5,-1 10,-3 15,-5 3,-2 5,-5 8,-7 4,-2 8,-3 12,-4 8,2 17,4 25,7 1,0 2,0 2,0 7,-4 14,-8 21,-12 9,-1 17,-1 26,-2 7,-10 13,-20 20,-30 0,-4 0,-8 0,-12 4,-1 8,-3 12,-4 1,-6 2,-12 4,-18 9,-5 18,-9 28,-14 1,-6 2,-12 3,-18 3,-3 6,-6 9,-10 7,-2 13,-5 19,-7 1,0 1,0 1,0 7,-11 14,-21 20,-32 1,-5 2,-10 4,-15 -2,-2 -3,-3 -4,-5 -12,-2 -24,-5 -36,-7 -3,-3 -6,-6 -9,-9 -1,-3 -2,-7 -4,-11 -7,-1 -14,-2 -21,-4 -5,-3 -11,-5 -16,-8 -5,1 -10,2 -14,3 -5,3 -9,6 -14,9 -1,0 -2,1 -4,1 -2,0 -5,-1 -7,-1 0,-5 -1,-10 -1,-15 -3,-1 -6,-1 -9,-1 -1,-2 -1,-5 -1,-7 6,-5 12,-9 18,-14 0,-17 1,-33 1,-50 8,6 17,11 25,16 6,1 13,2 19,3 7,-2 14,-5 21,-7 5,3 11,5 17,7 10,1 21,2 31,3 13,1 25,1 38,2 7,2 14,4 20,6 2,-1 3,-1 5,-1 8,-2 15,-4 23,-5 7,-4 13,-7 20,-11 3,-4 5,-8 8,-12 7,-1 14,-1 21,-1 1,-2 2,-4 4,-5 9,5 18,11 27,17 7,2 14,3 21,5 4,-2 9,-4 14,-5 6,-4 12,-7 18,-11 5,-1 11,-2 16,-3 1,-4 3,-7 4,-10 1,-4 2,-8 3,-12 0,-4 1,-8 1,-11 5,1 10,2 15,3 7,5 13,10 20,14 3,4 6,7 9,11 0,3 1,7 1,10z"/>
   <path fill="#255133" d="M768 151c11,11 23,22 34,32 5,4 9,7 13,10 0,4 1,8 1,13 2,2 4,5 6,8 4,2 7,4 11,6 3,1 7,2 10,2 4,-1 8,-2 12,-2 5,-1 10,-1 15,-2 2,2 3,3 5,4 -1,7 -2,13 -3,20 -2,3 -3,6 -5,10 0,2 0,5 0,7 3,3 5,6 7,8 2,3 4,6 6,9 1,11 1,23 1,35 0,0 0,1 0,1 1,3 1,5 1,8 4,1 8,2 11,4 1,2 2,3 3,5 2,5 4,10 6,15 3,1 6,2 10,2 6,1 12,2 18,3 5,1 11,2 16,3 3,4 5,8 8,12 -3,3 -5,7 -8,11 -7,4 -13,9 -20,14 -3,2 -5,5 -8,8 -3,3 -6,6 -9,10 -3,3 -7,6 -11,10 -4,1 -7,3 -10,4 -4,0 -7,0 -11,1 -4,2 -8,5 -12,7 -1,5 -2,9 -3,14 1,6 2,12 4,18 -6,9 -12,19 -18,29 -5,0 -9,0 -14,0 -2,0 -3,0 -5,0 -7,2 -15,5 -22,7 -5,6 -11,11 -16,16 0,5 -1,10 -1,16 -9,4 -17,8 -25,12 1,7 1,15 2,23 6,5 13,10 19,15 0,2 0,4 0,6 -10,1 -20,3 -30,5 -1,10 -3,21 -5,31 -8,2 -16,4 -25,6 0,9 0,18 0,27 1,7 1,14 2,21 -5,3 -11,5 -16,7 -1,3 -2,5 -3,8 -2,8 -5,15 -8,23 -5,5 -11,10 -16,15 -7,-2 -14,-5 -21,-7 -11,-1 -21,-3 -32,-5 -15,2 -29,3 -44,4 -10,3 -19,6 -28,9 0,9 1,17 1,26 -4,5 -9,10 -14,15 -13,2 -27,5 -41,8 0,0 0,1 1,2 1,5 3,11 5,17 0,6 0,13 0,19 -2,8 -3,16 -5,25 2,3 4,5 7,8 2,12 4,24 6,36 -1,2 -2,4 -4,7 0,3 0,6 0,9 3,4 6,8 9,12 -1,13 -1,26 -2,38 11,3 21,6 32,9 9,2 18,3 28,4 4,2 8,3 12,5 1,5 2,9 2,14 -2,3 -3,6 -5,9 -12,-1 -23,-2 -35,-2 -3,4 -6,8 -8,12 -4,-2 -7,-4 -11,-6 -5,-4 -11,-7 -17,-11 -3,4 -7,7 -11,10 -2,0 -5,1 -8,1 -2,-6 -4,-13 -6,-19 -7,-5 -15,-10 -22,-16 -5,0 -9,1 -14,1 -2,-3 -4,-5 -6,-8 -6,1 -13,1 -20,1 -6,-5 -12,-10 -17,-15 -1,-1 -1,-1 -2,-1 -3,-1 -5,-3 -8,-4 -2,1 -5,1 -7,1 0,1 0,2 0,2 2,4 4,7 6,10 0,5 -1,10 -1,14 0,6 1,11 1,17 5,6 9,13 14,19 6,4 13,8 20,12 1,19 2,38 4,56 7,7 14,14 21,20 0,6 -1,12 -2,19 -2,16 -4,32 -6,48 4,3 8,7 11,10 4,5 8,10 11,15 1,5 2,11 3,16 -4,7 -8,14 -12,22 -5,-1 -9,-1 -14,-1 -7,2 -14,3 -21,5 -7,6 -14,12 -22,18 0,1 0,1 0,1 -2,9 -4,19 -6,28 -8,8 -16,15 -25,23 -5,5 -10,9 -15,14 -9,3 -17,7 -26,10 -6,8 -12,16 -18,24 -2,5 -3,10 -5,16 -1,4 -1,8 -2,12 -5,6 -10,13 -15,19 -1,8 -2,17 -3,25 -4,0 -8,1 -12,1 -5,1 -11,2 -16,3 -9,-1 -17,-2 -26,-2 -12,0 -24,-1 -36,-1 -2,-1 -5,-1 -7,-2 -2,-10 -5,-19 -7,-29 0,-8 -1,-17 -2,-25 1,-4 2,-8 2,-12 1,-3 1,-6 1,-9 -1,-1 -3,-2 -4,-3 -1,0 -2,-1 -2,-1 -3,1 -7,2 -10,4 -3,0 -6,1 -9,1 -2,-1 -4,-2 -6,-3 -1,0 -3,-1 -5,-1 -4,1 -9,3 -13,5 -2,0 -5,-1 -7,-1 -1,-2 -1,-5 -2,-7 1,-4 1,-7 2,-10 1,-4 2,-8 3,-11 0,-3 -1,-5 -1,-8 -2,-5 -3,-9 -5,-14 -2,-3 -4,-7 -5,-10 -7,-5 -13,-10 -19,-14 -1,-4 -2,-7 -2,-10 -4,-5 -7,-10 -11,-16 -7,1 -14,2 -22,2 -2,4 -4,8 -7,12 -9,-7 -18,-13 -27,-20 -4,-2 -7,-5 -11,-8 4,0 8,0 13,0 1,-4 3,-8 4,-12 3,-4 6,-7 8,-11 1,-5 3,-10 4,-16 -5,-4 -10,-8 -16,-12 2,-3 3,-6 4,-9 4,-11 8,-23 12,-35 3,-5 7,-10 11,-16 8,-5 17,-11 25,-16 6,-1 12,-2 18,-3 1,3 2,6 3,9 11,0 21,0 32,0 5,-1 10,-2 15,-4 2,-3 4,-6 6,-9 0,-1 0,-1 1,-2 2,-5 5,-10 7,-15 5,-2 9,-4 13,-6 -1,-5 -1,-10 -2,-15 -6,-2 -12,-3 -17,-4 -5,-2 -9,-3 -14,-5 -5,-2 -10,-4 -15,-6 -2,0 -4,-1 -7,-1 0,-7 0,-13 -1,-19 0,0 0,0 0,-1 -3,-4 -7,-9 -10,-14 -11,-1 -21,-3 -32,-4 -1,-11 -1,-22 -1,-33 5,-1 11,-3 17,-4 2,-4 5,-8 7,-13 0,-7 0,-14 -1,-21 0,0 -1,0 -1,0 -5,-1 -9,-1 -14,-1 -1,-3 -2,-5 -3,-8 1,-5 1,-10 1,-15 3,-1 6,-1 9,-2 4,0 9,-1 13,-1 1,-3 3,-6 5,-8 0,-3 0,-6 0,-9 3,-2 6,-5 10,-7 0,-9 0,-18 0,-27 -5,-4 -11,-8 -16,-12 -1,-4 -3,-9 -4,-14 2,-4 5,-9 7,-14 0,-12 0,-24 0,-36 -3,-3 -5,-5 -7,-7 -2,-1 -4,-2 -6,-3 -3,0 -5,0 -7,0 -1,-11 -2,-21 -2,-32 -1,-4 -1,-8 -2,-12 8,-2 15,-4 23,-6 1,-3 2,-5 4,-7 5,-3 10,-7 15,-10 1,-3 3,-6 4,-9 0,-4 -1,-8 -1,-11 2,-2 5,-4 8,-6 2,-3 5,-5 7,-8 2,-13 3,-26 5,-39 2,-5 3,-10 5,-16 4,-6 8,-12 11,-19 1,0 1,-1 1,-1 1,-10 2,-20 2,-31 4,-6 7,-12 10,-18 3,-3 5,-7 8,-10 6,0 12,1 18,1 3,-9 6,-19 9,-28 7,-8 15,-17 22,-25 3,-8 6,-16 10,-23 4,-2 9,-4 14,-5 3,-3 5,-5 8,-8 4,-1 8,-3 12,-4 8,2 17,5 25,7 1,0 2,1 2,1 7,-4 14,-8 21,-12 9,-1 18,-2 27,-3 6,-10 13,-19 19,-29 0,-4 0,-8 0,-12 4,-2 8,-3 12,-5 1,-6 3,-12 4,-18 9,-4 18,-9 28,-14 1,-6 2,-12 3,-18 3,-3 6,-6 9,-9 7,-3 13,-5 19,-8 1,0 1,0 2,0 6,-10 13,-21 19,-31 2,-5 3,-10 4,-15 -1,-2 -2,-4 -4,-6 -12,-2 -24,-4 -36,-6 -3,-3 -6,-6 -9,-9 -1,-4 -2,-8 -4,-11 -7,-2 -14,-3 -21,-5 -5,-2 -11,-5 -16,-7 -5,0 -10,1 -14,2 -5,3 -9,6 -14,9 -1,1 -2,1 -3,1 -3,0 -6,0 -8,-1 0,-5 -1,-10 -1,-15 -3,0 -6,0 -9,-1 -1,-2 -1,-4 -1,-7 6,-4 12,-9 18,-14 0,-16 1,-33 1,-49 8,5 17,10 25,16 6,0 13,1 19,2 7,-2 14,-4 21,-6 5,2 11,4 17,7 10,1 21,1 31,2 13,1 26,2 38,2 7,2 14,4 20,6 2,0 3,0 5,-1 8,-1 15,-3 23,-5 7,-3 14,-7 20,-11 3,-4 5,-8 8,-12 7,0 14,-1 21,-1 1,-2 3,-3 4,-5 9,6 18,12 27,18 7,1 14,3 21,4 5,-1 9,-3 14,-5 6,-3 12,-7 18,-10 6,-1 11,-3 16,-4 2,-3 3,-7 4,-10 1,-4 2,-8 3,-12 0,-3 1,-7 1,-11 5,1 10,2 15,4 7,4 13,9 20,14 3,3 6,7 9,10 0,4 1,7 1,11z"/>
   <path fill="#295637" d="M766 144c11,11 23,22 34,33 5,3 9,6 13,9 1,5 1,9 1,13 2,3 4,6 6,8 4,2 8,5 11,7 4,0 7,1 10,2 4,-1 8,-2 12,-3 5,0 10,-1 15,-1 2,1 3,2 5,4 -1,6 -2,13 -3,19 -1,3 -3,7 -5,10 0,3 0,5 0,8 3,2 5,5 7,8 2,3 4,5 6,8 1,12 1,24 2,35 0,1 0,1 0,1 0,3 0,6 1,8 3,1 7,3 11,4 0,2 1,4 2,6 2,5 4,10 6,15 3,1 7,1 10,2 6,1 12,2 18,2 5,1 11,3 16,4 3,3 5,7 8,11 -3,4 -5,7 -8,11 -6,5 -13,9 -20,14 -3,3 -5,5 -8,8 -3,4 -6,7 -8,10 -4,3 -8,7 -12,10 -3,1 -7,3 -10,4 -4,1 -7,1 -11,1 -4,3 -8,5 -12,8 -1,4 -2,8 -3,13 1,6 3,12 4,18 -6,10 -12,19 -18,29 -4,0 -9,0 -14,0 -2,0 -3,0 -5,0 -7,3 -15,5 -22,8 -5,5 -11,10 -16,15 0,5 -1,11 -1,16 -8,4 -16,8 -25,12 1,8 1,15 2,23 6,5 13,11 20,16 -1,2 -1,3 -1,5 -10,2 -20,4 -29,5 -2,11 -4,21 -6,31 -8,3 -16,5 -24,7 0,8 0,17 0,26 0,7 0,14 1,22 -5,2 -11,4 -16,7 -1,2 -2,5 -3,7 -2,8 -5,16 -8,24 -5,5 -10,10 -16,15 -7,-3 -14,-5 -21,-8 -10,-1 -21,-3 -32,-4 -14,1 -29,2 -44,3 -10,3 -19,7 -28,10 0,8 1,17 2,25 -5,5 -10,10 -15,15 -13,3 -27,6 -41,8 0,1 1,1 1,2 2,6 3,12 5,17 0,7 0,13 1,19 -2,9 -4,17 -6,25 2,3 4,6 7,9 2,11 4,23 6,35 -1,2 -2,5 -4,7 0,3 0,7 0,10 3,4 6,8 9,12 -1,12 -1,25 -2,38 11,3 21,5 32,8 9,2 18,3 28,5 4,1 8,3 12,4 1,5 2,10 2,15 -1,2 -3,5 -5,8 -12,0 -23,-1 -35,-2 -3,4 -5,8 -8,13 -4,-3 -7,-5 -10,-7 -6,-3 -12,-7 -18,-10 -3,3 -7,6 -10,9 -3,1 -6,1 -9,1 -2,-6 -4,-12 -6,-18 -7,-6 -15,-11 -22,-16 -5,0 -9,0 -14,0 -2,-2 -4,-5 -5,-7 -7,0 -14,0 -21,0 -6,-5 -11,-10 -17,-15 -1,0 -1,-1 -2,-1 -3,-1 -5,-2 -8,-3 -2,0 -5,0 -7,1 0,1 0,1 1,2 1,3 3,6 5,9 0,5 -1,10 -1,15 0,5 1,11 1,16 5,7 9,13 14,20 7,4 14,8 20,12 2,18 3,37 4,56 7,6 14,13 21,20 0,6 -1,12 -1,18 -3,16 -5,32 -7,48 4,4 8,7 11,11 4,4 8,9 11,14 1,6 3,11 4,17 -5,7 -9,14 -13,21 -5,0 -9,0 -13,-1 -7,2 -14,4 -21,5 -8,7 -15,13 -23,19 0,0 0,0 0,0 -2,10 -4,19 -6,28 -8,8 -16,16 -24,23 -6,5 -11,10 -16,15 -8,3 -17,6 -26,10 -6,8 -12,15 -18,23 -2,6 -3,11 -5,16 0,4 -1,8 -2,12 -5,7 -10,13 -14,19 -2,9 -3,17 -4,25 -4,1 -8,1 -12,2 -5,0 -11,1 -16,2 -9,-1 -17,-1 -26,-2 -12,0 -24,0 -35,0 -3,-1 -6,-2 -8,-2 -2,-10 -4,-20 -7,-30 0,-8 -1,-16 -2,-24 1,-4 2,-8 2,-12 1,-3 1,-6 1,-9 -1,-1 -3,-2 -4,-3 -1,-1 -1,-1 -2,-2 -3,1 -6,3 -10,4 -3,1 -6,1 -9,2 -2,-1 -3,-2 -5,-3 -2,-1 -4,-1 -5,-2 -5,2 -9,4 -14,5 -2,0 -5,0 -7,0 0,-3 -1,-5 -2,-8 1,-3 2,-6 2,-10 1,-3 2,-7 3,-11 0,-2 -1,-5 -1,-8 -2,-4 -3,-9 -5,-14 -2,-3 -4,-6 -5,-10 -7,-5 -13,-9 -19,-14 -1,-3 -1,-6 -2,-9 -3,-6 -7,-11 -10,-16 -8,0 -15,1 -23,2 -2,3 -4,7 -7,11 -9,-6 -18,-13 -27,-19 -4,-3 -7,-6 -11,-8 4,-1 9,-1 13,-1 1,-4 3,-8 4,-12 3,-3 6,-7 9,-10 1,-6 2,-11 3,-16 -5,-4 -10,-8 -15,-12 1,-3 2,-6 3,-9 4,-12 8,-23 12,-35 4,-6 7,-11 11,-16 9,-6 17,-11 25,-17 6,-1 12,-2 18,-3 1,3 2,6 3,10 11,0 21,0 32,0 5,-2 10,-3 15,-4 2,-4 4,-7 6,-10 0,0 0,-1 1,-1 2,-5 5,-10 7,-15 5,-2 9,-5 13,-7 -1,-5 -1,-10 -2,-15 -6,-1 -11,-3 -17,-4 -5,-1 -9,-3 -13,-4 -6,-2 -11,-4 -16,-6 -2,-1 -4,-1 -7,-2 0,-6 0,-12 0,-18 0,-1 0,-1 0,-1 -4,-5 -8,-10 -11,-15 -11,-1 -21,-2 -32,-4 0,-11 -1,-22 -1,-33 5,-1 11,-2 17,-3 2,-5 5,-9 7,-13 0,-8 0,-15 -1,-22 0,0 -1,0 -1,0 -5,0 -9,-1 -13,-1 -1,-2 -3,-5 -4,-7 1,-5 1,-11 2,-16 3,-1 6,-1 9,-1 4,-1 8,-1 12,-2 1,-2 3,-5 5,-8 0,-3 0,-5 0,-8 3,-3 7,-5 10,-8 0,-9 0,-17 1,-26 -6,-4 -12,-8 -17,-12 -1,-5 -3,-9 -4,-14 3,-5 5,-9 7,-14 0,-12 0,-25 0,-37 -2,-2 -5,-5 -7,-7 -2,-1 -4,-2 -6,-3 -2,0 -5,0 -7,0 -1,-10 -2,-21 -2,-31 -1,-4 -1,-8 -1,-12 7,-2 15,-5 22,-7 1,-2 3,-5 4,-7 5,-3 10,-6 15,-10 2,-3 3,-6 4,-9 0,-4 -1,-7 -1,-11 2,-2 5,-4 8,-6 2,-2 5,-5 8,-7 1,-13 3,-26 4,-39 2,-6 3,-11 5,-16 4,-7 8,-13 11,-19 1,-1 1,-1 1,-2 1,-10 2,-20 3,-30 3,-6 6,-12 9,-19 3,-3 5,-6 8,-10 6,1 12,1 18,1 3,-9 6,-18 9,-27 8,-9 15,-17 22,-26 3,-8 6,-15 10,-23 5,-2 9,-3 14,-5 3,-2 5,-5 8,-8 4,-1 8,-2 12,-4 8,3 17,5 26,8 0,0 1,0 1,0 7,-4 14,-8 21,-12 9,-1 18,-2 27,-3 6,-9 13,-19 19,-29 0,-4 0,-8 0,-12 4,-2 8,-3 12,-4 1,-6 3,-12 4,-18 9,-5 19,-10 28,-14 1,-6 2,-12 3,-18 3,-3 6,-7 9,-10 7,-2 13,-5 20,-7 0,0 0,0 1,0 6,-11 13,-21 20,-32 1,-5 2,-10 3,-15 -1,-2 -2,-4 -3,-6 -13,-2 -25,-4 -37,-6 -3,-3 -6,-6 -9,-9 -1,-3 -2,-7 -3,-11 -7,-1 -15,-3 -22,-4 -5,-3 -11,-5 -16,-8 -5,1 -9,2 -14,2 -5,4 -9,7 -14,10 -1,0 -2,1 -3,1 -3,0 -6,-1 -8,-1 0,-5 0,-10 -1,-16 -3,0 -6,0 -9,0 0,-3 -1,-5 -1,-7 6,-5 12,-10 18,-14 0,-17 1,-33 1,-50 8,5 17,11 25,16 6,1 13,2 19,3 7,-3 14,-5 21,-7 5,3 11,5 17,7 10,1 21,2 32,3 12,0 25,1 37,2 7,2 14,4 21,5 1,0 3,0 4,0 8,-2 15,-4 23,-5 7,-4 14,-8 20,-11 3,-4 6,-8 8,-12 7,-1 14,-1 21,-2 1,-1 3,-3 4,-5 9,6 18,12 27,18 7,2 14,3 21,5 5,-2 9,-4 14,-6 6,-3 12,-6 18,-10 6,-1 11,-2 16,-3 2,-4 3,-7 5,-11 0,-4 1,-7 2,-11 1,-4 1,-8 1,-12 5,2 10,3 15,4 7,5 13,9 20,14 3,3 6,7 9,10 1,4 1,8 1,11z"/>
   <path fill="#2D5B3C" d="M764 138c12,11 23,21 35,32 4,3 8,7 12,10 1,4 1,8 2,13 2,2 3,5 5,8 4,2 8,4 11,6 4,1 7,1 10,2 4,-1 8,-2 12,-3 5,0 10,0 15,-1 2,1 4,3 5,4 -1,7 -2,13 -3,20 -1,3 -3,6 -4,9 0,3 0,6 0,8 2,3 4,6 7,8 2,3 3,6 5,9 1,11 1,23 2,35 0,0 0,1 0,1 0,2 0,5 1,7 3,2 7,3 11,4 0,2 1,4 2,6 2,5 4,10 6,15 3,1 7,2 10,2 6,1 12,2 18,3 5,1 11,2 16,3 3,4 6,8 8,12 -2,3 -5,7 -8,10 -6,5 -13,10 -20,14 -2,3 -5,6 -8,9 -2,3 -5,6 -8,10 -4,3 -8,6 -12,9 -3,2 -7,3 -10,5 -4,0 -7,0 -11,0 -4,3 -8,6 -12,8 -1,4 -2,9 -3,13 2,6 3,12 4,18 -6,10 -12,20 -18,30 -4,0 -9,0 -14,0 -1,0 -3,0 -5,0 -7,2 -15,5 -22,7 -5,5 -10,10 -16,15 0,6 -1,11 -1,16 -8,4 -16,8 -24,12 0,8 1,16 1,23 7,6 13,11 20,16 -1,2 -1,4 -1,6 -10,1 -20,3 -29,5 -2,10 -4,20 -6,31 -8,2 -16,4 -24,6 0,9 0,18 0,26 0,8 1,15 1,22 -5,2 -11,5 -16,7 -1,3 -2,5 -2,8 -3,8 -6,15 -9,23 -5,5 -10,10 -16,15 -7,-2 -14,-5 -21,-7 -10,-2 -21,-3 -31,-5 -15,1 -30,2 -45,3 -9,4 -19,7 -28,10 1,9 1,17 2,26 -5,5 -10,10 -14,15 -14,2 -28,5 -42,8 1,0 1,1 1,1 2,6 3,12 5,18 0,6 0,12 1,19 -2,8 -4,16 -6,25 2,2 5,5 7,8 2,12 4,24 6,35 -1,3 -2,5 -4,8 0,3 0,6 0,9 3,4 6,8 9,12 0,13 -1,25 -1,38 10,3 20,6 31,9 9,1 18,3 28,4 4,2 8,3 12,5 1,5 2,9 2,14 -1,3 -3,6 -5,9 -11,-1 -23,-2 -35,-2 -3,4 -5,8 -8,12 -3,-2 -7,-4 -10,-6 -6,-4 -12,-7 -17,-11 -4,3 -8,7 -11,10 -3,0 -6,0 -8,1 -3,-7 -5,-13 -7,-19 -7,-5 -15,-11 -22,-16 -5,0 -9,1 -14,1 -1,-3 -3,-5 -5,-8 -7,0 -14,1 -21,1 -6,-5 -11,-10 -17,-16 -1,0 -1,0 -2,0 -2,-2 -5,-3 -8,-4 -2,0 -5,1 -7,1 0,1 0,2 1,2 2,3 3,7 5,10 0,5 -1,9 -1,14 0,6 1,11 1,16 5,7 9,13 14,20 7,4 14,8 21,12 1,19 2,37 3,56 7,7 14,13 21,20 0,6 -1,12 -1,18 -2,17 -5,33 -7,49 4,3 8,7 12,10 3,5 7,10 11,15 1,5 2,11 3,16 -5,7 -9,14 -13,21 -4,0 -9,0 -13,0 -7,1 -14,3 -21,5 -8,6 -15,12 -23,18 0,0 0,1 0,1 -2,9 -4,18 -6,28 -8,7 -16,15 -24,23 -5,5 -11,9 -16,14 -8,3 -17,7 -26,10 -6,8 -12,16 -18,24 -2,5 -3,10 -5,16 0,4 -1,8 -1,12 -5,6 -10,12 -15,19 -2,8 -3,16 -4,25 -4,0 -8,1 -12,1 -5,1 -11,2 -16,2 -9,0 -17,-1 -26,-1 -12,-1 -23,-1 -35,-1 -3,-1 -5,-1 -8,-2 -2,-10 -4,-19 -6,-29 -1,-8 -2,-17 -3,-25 1,-4 2,-8 3,-12 0,-3 0,-6 0,-9 -1,-1 -3,-2 -4,-3 -1,0 -1,-1 -2,-2 -3,2 -6,3 -9,5 -3,0 -6,1 -9,1 -2,-1 -4,-2 -6,-3 -2,-1 -4,-1 -5,-1 -5,1 -9,3 -14,5 -2,0 -4,-1 -7,-1 0,-2 -1,-5 -2,-8 1,-3 2,-6 2,-9 1,-4 2,-8 3,-11 0,-3 0,-6 -1,-8 -1,-5 -3,-9 -5,-14 -2,-4 -3,-7 -5,-10 -6,-5 -13,-10 -19,-15 -1,-3 -1,-6 -2,-9 -3,-5 -7,-11 -10,-16 -8,1 -15,1 -22,2 -3,4 -5,8 -7,11 -10,-6 -19,-12 -28,-19 -4,-2 -7,-5 -11,-8 4,0 9,0 13,-1 1,-4 3,-8 5,-12 2,-3 5,-6 8,-10 1,-5 2,-10 3,-16 -5,-4 -10,-8 -15,-12 1,-3 2,-6 4,-9 3,-11 7,-23 11,-35 4,-5 7,-10 11,-16 9,-5 17,-11 25,-16 6,-1 12,-2 18,-3 1,3 2,6 3,9 11,0 21,0 32,0 5,-1 10,-3 15,-4 2,-3 4,-6 6,-9 0,-1 1,-1 1,-2 2,-5 5,-10 8,-15 4,-2 8,-4 12,-6 0,-5 -1,-10 -2,-16 -6,-1 -11,-2 -17,-4 -4,-1 -9,-2 -13,-4 -5,-2 -11,-4 -16,-6 -2,0 -4,-1 -7,-2 0,-6 0,-12 0,-18 0,0 0,0 0,-1 -4,-5 -7,-9 -11,-14 -11,-2 -21,-3 -32,-4 0,-11 -1,-22 -1,-33 6,-2 11,-3 17,-4 3,-4 5,-9 8,-13 -1,-7 -1,-14 -2,-22 0,0 -1,0 -1,0 -4,0 -9,0 -13,-1 -1,-2 -2,-4 -3,-7 0,-5 0,-10 1,-16 3,0 6,-1 9,-1 4,0 8,-1 12,-1 2,-3 3,-6 5,-9 0,-2 0,-5 0,-8 3,-2 7,-5 10,-7 0,-9 0,-18 1,-27 -6,-4 -11,-8 -17,-12 -1,-4 -2,-9 -4,-14 3,-4 5,-9 7,-14 0,-12 0,-24 0,-36 -2,-3 -4,-5 -7,-8 -2,0 -4,-1 -6,-2 -2,0 -5,0 -7,0 -1,-11 -1,-21 -2,-32 0,-4 -1,-8 -1,-12 7,-2 15,-4 22,-7 1,-2 3,-4 4,-6 5,-4 10,-7 15,-10 2,-3 3,-6 5,-10 -1,-3 -2,-7 -2,-11 3,-1 5,-3 8,-5 3,-3 5,-5 8,-8 1,-13 3,-26 4,-39 2,-5 4,-11 5,-16 4,-6 8,-13 12,-19 0,0 0,-1 0,-1 1,-10 2,-21 3,-31 3,-6 6,-12 9,-18 3,-4 5,-7 8,-10 6,0 12,0 18,1 3,-9 6,-19 9,-28 8,-9 15,-17 22,-25 3,-8 7,-16 10,-24 5,-1 10,-3 14,-4 3,-3 6,-6 8,-8 4,-2 8,-3 12,-4 9,2 17,5 26,7 0,0 1,0 1,1 7,-4 14,-8 21,-12 9,-1 18,-2 27,-3 6,-10 13,-20 19,-29 0,-4 0,-9 0,-13 4,-1 8,-3 12,-4 1,-6 3,-12 4,-18 9,-4 19,-9 28,-14 1,-6 2,-12 3,-18 3,-3 6,-6 10,-9 6,-3 12,-5 19,-8 0,0 0,0 1,0 6,-10 13,-21 20,-32 1,-5 2,-10 3,-15 -1,-1 -2,-3 -3,-5 -12,-2 -25,-4 -37,-6 -3,-3 -6,-6 -9,-9 -1,-4 -2,-8 -3,-11 -7,-2 -14,-3 -21,-5 -6,-2 -12,-5 -17,-7 -5,0 -9,1 -14,2 -4,3 -9,6 -13,9 -2,1 -3,1 -4,1 -3,0 -5,0 -8,-1 0,-5 0,-10 0,-15 -4,0 -7,-1 -10,-1 0,-2 -1,-4 -1,-7 6,-4 12,-9 18,-14 0,-16 1,-33 1,-49 9,5 17,10 25,15 7,1 13,2 19,3 7,-2 14,-4 21,-6 6,2 11,4 17,7 11,0 21,1 32,2 12,1 25,1 37,2 7,2 14,4 21,6 1,0 3,-1 4,-1 8,-2 16,-3 23,-5 7,-4 14,-7 21,-11 2,-4 5,-8 7,-12 7,0 14,-1 21,-1 2,-2 3,-3 4,-5 9,6 18,12 27,18 7,1 14,3 21,4 5,-2 10,-3 14,-5 6,-4 12,-7 18,-10 6,-2 11,-3 16,-4 2,-3 3,-7 5,-10 1,-4 1,-8 2,-12 1,-4 1,-7 1,-11 5,1 10,2 15,4 7,4 13,9 20,13 3,4 6,7 9,11 1,3 1,7 1,11z"/>
   <path fill="#326040" d="M762 131c12,11 23,22 35,33 4,3 8,6 12,9 1,4 1,9 2,13 2,3 4,5 5,8 4,2 8,4 11,7 4,0 7,1 11,1 4,0 8,-1 12,-2 4,-1 9,-1 14,-1 2,1 4,2 6,3 -2,7 -3,13 -4,20 -1,3 -3,7 -4,10 0,2 0,5 0,7 2,3 4,6 7,9 2,2 4,5 5,8 1,12 1,23 2,35 0,1 0,1 0,1 0,3 0,5 1,8 3,1 7,3 11,4 1,2 1,4 2,6 2,5 4,10 6,15 3,0 7,1 10,2 6,1 12,1 18,2 6,1 11,2 17,3 2,4 5,8 7,12 -2,4 -5,7 -7,11 -7,4 -14,9 -21,14 -2,3 -5,5 -7,8 -3,3 -6,7 -9,10 -4,3 -8,7 -12,10 -3,1 -7,3 -10,4 -3,1 -7,1 -11,1 -4,2 -8,5 -12,7 -1,5 -2,9 -2,14 1,6 2,12 3,18 -6,10 -12,19 -18,29 -4,0 -9,0 -14,0 -1,0 -3,0 -5,0 -7,3 -14,5 -22,8 -5,5 -10,10 -16,15 0,5 -1,11 -1,16 -8,4 -16,8 -24,12 0,7 1,15 1,23 7,5 13,10 20,16 0,2 -1,3 -1,5 -10,2 -19,3 -29,5 -2,10 -4,21 -6,31 -8,2 -16,4 -24,7 0,8 0,17 0,26 0,7 1,14 1,21 -5,3 -10,5 -16,7 -1,3 -1,6 -2,8 -3,8 -6,16 -9,24 -5,5 -10,9 -16,14 -7,-2 -14,-4 -21,-7 -10,-1 -21,-3 -31,-4 -15,1 -30,2 -45,3 -9,3 -19,6 -28,10 1,8 1,17 2,25 -5,5 -10,10 -14,15 -14,3 -28,5 -42,8 1,1 1,1 1,2 2,6 3,11 5,17 0,6 1,13 1,19 -2,8 -4,17 -6,25 2,3 5,6 7,9 2,11 4,23 7,35 -2,2 -3,5 -4,7 -1,3 -1,6 -1,10 3,4 6,8 9,12 0,12 -1,25 -1,37 10,3 20,6 31,9 9,2 19,3 28,5 4,1 8,3 13,4 0,5 1,10 2,14 -2,3 -4,6 -6,9 -11,-1 -23,-1 -35,-2 -2,4 -5,8 -8,12 -3,-2 -7,-4 -10,-6 -6,-3 -12,-7 -17,-10 -4,3 -8,6 -11,9 -3,1 -6,1 -8,1 -2,-6 -5,-12 -7,-19 -7,-5 -15,-10 -22,-15 -4,0 -9,0 -13,0 -2,-2 -4,-5 -6,-7 -7,0 -14,0 -21,0 -5,-5 -11,-10 -17,-15 -1,0 -1,-1 -2,-1 -2,-1 -5,-2 -7,-4 -3,1 -5,1 -8,2 0,0 1,1 1,2 2,3 4,6 5,9 0,5 -1,10 -1,15 0,5 1,10 1,16 5,6 9,13 14,19 7,4 14,8 21,13 1,18 2,37 3,56 7,6 14,13 22,19 -1,7 -2,13 -2,19 -2,16 -5,32 -7,48 4,4 8,7 12,10 3,5 7,10 11,15 1,6 2,11 3,17 -4,7 -9,14 -13,21 -4,0 -9,-1 -13,-1 -7,2 -14,4 -21,5 -8,6 -15,12 -22,19 0,0 0,0 0,0 -3,10 -5,19 -7,28 -8,8 -16,16 -24,23 -5,5 -10,10 -16,14 -8,4 -17,7 -26,10 -6,8 -12,16 -18,24 -2,5 -3,11 -5,16 0,4 -1,8 -1,12 -5,6 -10,13 -15,19 -1,8 -3,17 -4,25 -4,1 -8,1 -12,1 -5,1 -11,2 -16,3 -9,-1 -17,-1 -26,-2 -11,0 -23,0 -35,-1 -3,0 -5,-1 -8,-2 -2,-9 -4,-19 -6,-29 -1,-8 -2,-16 -3,-25 1,-4 2,-7 3,-11 0,-3 0,-6 1,-9 -2,-1 -4,-2 -5,-3 -1,-1 -1,-2 -2,-2 -3,1 -6,3 -9,4 -3,1 -6,1 -9,2 -2,-2 -4,-3 -6,-4 -2,0 -4,-1 -5,-1 -5,2 -9,3 -14,5 -2,0 -4,0 -7,0 0,-3 -1,-6 -1,-8 0,-3 1,-7 1,-10 1,-4 2,-7 4,-11 -1,-3 -1,-5 -2,-8 -1,-4 -3,-9 -5,-14 -2,-3 -3,-7 -5,-10 -6,-5 -13,-9 -19,-14 -1,-3 -1,-6 -2,-10 -3,-5 -7,-10 -10,-16 -8,1 -15,2 -22,2 -3,4 -5,8 -7,12 -9,-7 -19,-13 -28,-19 -3,-3 -7,-6 -11,-8 5,-1 9,-1 13,-1 2,-4 3,-8 5,-12 2,-4 5,-7 8,-10 1,-6 2,-11 3,-16 -5,-4 -10,-8 -15,-12 1,-3 2,-6 4,-9 3,-12 7,-24 11,-35 4,-6 8,-11 11,-16 9,-6 17,-11 25,-17 6,-1 12,-2 18,-3 1,3 2,6 3,9 11,0 22,0 32,0 5,-1 10,-2 16,-3 1,-4 3,-7 5,-10 0,-1 1,-1 1,-1 2,-5 5,-10 8,-16 4,-2 8,-4 12,-6 0,-5 -1,-10 -2,-15 -6,-1 -11,-3 -17,-4 -4,-2 -9,-3 -13,-4 -5,-2 -10,-4 -15,-6 -3,-1 -5,-2 -7,-2 -1,-6 -1,-12 -1,-18 0,-1 0,-1 0,-1 -4,-5 -7,-10 -11,-15 -11,-1 -21,-2 -32,-4 0,-11 -1,-22 -1,-33 6,-1 11,-2 17,-4 3,-4 5,-8 8,-13 -1,-7 -1,-14 -1,-21 -1,0 -1,0 -2,0 -4,-1 -9,-1 -13,-1 -1,-3 -2,-5 -3,-7 0,-6 0,-11 1,-16 3,-1 6,-1 9,-2 4,0 8,0 12,-1 2,-3 3,-5 5,-8 0,-3 0,-6 0,-8 3,-3 7,-5 10,-8 0,-9 1,-18 1,-26 -6,-4 -11,-8 -17,-12 -1,-5 -2,-10 -3,-14 2,-5 4,-10 6,-14 0,-13 0,-25 0,-37 -2,-2 -4,-5 -6,-7 -3,-1 -5,-2 -7,-3 -2,0 -5,0 -7,0 -1,-10 -1,-21 -2,-32 0,-3 -1,-7 -1,-11 7,-3 15,-5 22,-7 2,-2 3,-5 4,-7 5,-3 10,-6 15,-10 2,-3 3,-6 5,-9 -1,-4 -1,-8 -2,-11 3,-2 5,-4 8,-6 3,-2 5,-5 8,-7 1,-13 3,-26 4,-39 2,-6 4,-11 5,-16 4,-7 8,-13 12,-20 0,0 0,0 0,-1 1,-10 2,-20 3,-30 3,-6 6,-13 10,-19 2,-3 5,-7 7,-10 6,0 12,1 19,1 3,-9 6,-18 9,-28 7,-8 14,-17 21,-25 3,-8 7,-15 10,-23 5,-2 10,-3 15,-5 2,-3 5,-5 7,-8 4,-1 8,-2 12,-4 9,3 17,5 26,7 0,1 1,1 2,1 6,-4 13,-8 20,-12 9,-1 18,-2 27,-3 6,-9 13,-19 20,-29 0,-4 0,-8 0,-12 3,-2 7,-3 11,-5 1,-6 3,-11 4,-17 10,-5 19,-10 28,-14 1,-6 2,-12 3,-18 3,-4 7,-7 10,-10 6,-2 12,-5 19,-8 0,0 1,0 1,0 7,-10 13,-21 20,-31 1,-5 2,-10 3,-15 -1,-2 -2,-4 -3,-6 -12,-2 -24,-4 -37,-6 -3,-3 -5,-6 -8,-9 -2,-4 -3,-7 -4,-11 -7,-1 -14,-3 -21,-4 -6,-3 -11,-5 -17,-8 -5,1 -9,1 -14,2 -4,3 -9,7 -13,10 -2,0 -3,0 -4,1 -3,-1 -5,-1 -8,-1 0,-5 0,-11 0,-16 -4,0 -7,0 -10,0 0,-3 0,-5 -1,-7 6,-5 12,-10 18,-14 1,-17 1,-34 1,-50 9,5 17,11 25,16 7,1 13,2 20,2 6,-2 13,-4 20,-6 6,2 11,5 17,7 11,1 21,2 32,3 12,0 25,1 38,1 6,2 13,4 20,6 1,0 3,0 4,0 8,-2 16,-4 23,-6 7,-3 14,-7 21,-10 2,-4 5,-8 7,-12 7,-1 14,-1 21,-2 2,-1 3,-3 4,-5 9,6 18,12 28,18 6,2 13,3 20,5 5,-2 10,-4 15,-6 6,-3 12,-6 18,-10 5,-1 10,-2 15,-4 2,-3 3,-6 5,-10 1,-4 2,-8 2,-11 1,-4 1,-8 2,-12 5,1 10,3 15,4 6,5 12,9 19,14 3,3 6,7 9,10 1,4 1,7 1,11z"/>
   <path fill="#366545" d="M760 125c12,10 23,21 35,32 4,3 8,6 12,10 1,4 1,8 2,12 2,3 4,6 6,8 3,3 7,5 11,7 3,1 6,1 10,2 4,-1 8,-2 12,-3 5,0 9,-1 14,-1 2,1 4,3 6,4 -1,6 -3,13 -4,19 -1,4 -3,7 -4,10 0,3 0,5 0,8 2,3 5,5 7,8 2,3 4,6 6,8 0,12 0,24 1,36 0,0 0,0 0,1 0,2 1,5 1,7 4,2 7,3 11,4 1,2 2,4 2,6 2,5 4,10 6,15 4,1 7,1 10,2 6,1 12,2 18,3 6,1 11,2 17,3 2,4 5,8 7,11 -2,4 -5,8 -7,11 -7,5 -14,10 -21,14 -2,3 -5,6 -7,9 -3,3 -6,6 -9,9 -4,4 -8,7 -12,10 -3,2 -6,3 -10,5 -3,0 -7,0 -11,0 -4,3 -8,5 -12,8 -1,4 -1,9 -2,13 1,6 2,12 3,18 -6,10 -12,20 -17,29 -5,0 -10,0 -15,0 -1,0 -3,0 -4,0 -8,3 -15,6 -23,8 -5,5 -10,10 -16,15 0,6 0,11 -1,16 -8,4 -16,8 -24,12 0,8 1,16 1,23 7,6 13,11 20,16 0,2 -1,4 -1,5 -10,2 -19,4 -29,5 -2,11 -4,21 -6,32 -8,2 -16,4 -24,6 0,9 0,17 0,26 0,7 1,15 1,22 -5,2 -10,4 -16,7 0,2 -1,5 -2,8 -3,7 -6,15 -9,23 -5,5 -10,10 -15,15 -7,-3 -14,-5 -21,-7 -11,-2 -22,-3 -32,-5 -15,1 -30,2 -45,3 -9,4 -19,7 -28,10 1,9 1,17 2,25 -5,5 -9,10 -14,15 -14,3 -28,6 -41,8 0,1 0,2 0,2 2,6 4,12 5,18 1,6 1,12 1,19 -2,8 -4,16 -6,24 2,3 5,6 7,9 2,12 4,24 7,35 -2,3 -3,5 -4,7 -1,4 -1,7 -1,10 3,4 6,8 9,12 0,13 -1,25 -1,38 10,3 21,6 31,9 9,1 19,3 28,4 4,2 8,3 13,5 0,4 1,9 2,14 -2,3 -4,6 -6,8 -11,0 -23,-1 -35,-2 -2,5 -5,9 -8,13 -3,-2 -7,-4 -10,-7 -6,-3 -11,-6 -17,-10 -4,3 -7,6 -11,10 -3,0 -6,0 -8,0 -2,-6 -4,-12 -7,-18 -7,-5 -14,-11 -22,-16 -4,0 -9,0 -13,1 -2,-3 -4,-6 -6,-8 -7,0 -14,0 -21,1 -5,-6 -11,-11 -17,-16 0,0 -1,0 -2,-1 -2,-1 -5,-2 -7,-3 -3,0 -5,1 -8,1 0,1 1,1 1,2 2,3 4,6 5,10 0,4 0,9 -1,14 1,5 1,11 1,16 5,7 9,13 14,20 7,4 14,8 21,12 1,19 2,37 3,56 7,7 14,13 22,20 -1,6 -2,12 -2,18 -2,16 -4,33 -7,49 4,3 8,6 12,10 3,5 7,10 11,14 1,6 2,11 3,17 -4,7 -9,14 -13,21 -4,0 -9,0 -13,0 -7,1 -14,3 -21,5 -8,6 -15,12 -22,18 0,0 0,0 0,1 -2,9 -5,18 -7,28 -8,7 -16,15 -24,23 -5,4 -10,9 -15,14 -9,3 -18,7 -26,10 -7,8 -13,16 -19,23 -1,6 -3,11 -4,16 -1,4 -2,8 -2,12 -5,7 -10,13 -15,20 -1,8 -3,16 -4,25 -4,0 -8,0 -11,1 -6,1 -11,1 -17,2 -8,0 -17,-1 -25,-2 -12,0 -24,0 -36,0 -3,-1 -5,-2 -8,-2 -2,-10 -4,-20 -6,-29 -1,-9 -2,-17 -3,-25 1,-4 2,-8 3,-12 0,-3 0,-6 1,-9 -2,-1 -3,-2 -5,-3 -1,-1 -1,-1 -2,-2 -3,2 -6,3 -9,5 -3,0 -6,0 -9,1 -2,-1 -4,-2 -6,-3 -2,-1 -3,-1 -5,-2 -5,2 -9,4 -14,6 -2,-1 -4,-1 -7,-1 0,-3 -1,-5 -1,-8 0,-3 1,-6 1,-9 2,-4 3,-8 4,-12 -1,-2 -1,-5 -2,-7 -1,-5 -3,-10 -5,-14 -1,-4 -3,-7 -5,-11 -6,-4 -13,-9 -19,-14 -1,-3 -1,-6 -2,-9 -3,-6 -7,-11 -10,-16 -7,1 -15,1 -22,2 -3,4 -5,7 -7,11 -9,-6 -18,-13 -28,-19 -3,-3 -7,-5 -11,-8 5,0 9,-1 13,-1 2,-4 3,-8 5,-12 2,-3 5,-7 8,-10 1,-5 2,-11 3,-16 -5,-4 -10,-8 -15,-12 1,-3 2,-6 4,-9 4,-12 7,-23 11,-35 4,-5 8,-11 12,-16 8,-5 16,-11 25,-16 5,-2 11,-3 17,-4 1,4 2,7 3,10 11,0 22,0 32,0 5,-1 11,-3 16,-4 2,-3 3,-6 5,-10 0,0 1,-1 1,-1 3,-5 5,-10 8,-15 4,-2 8,-4 12,-6 0,-6 -1,-11 -2,-16 -5,-1 -11,-2 -17,-4 -4,-1 -9,-3 -13,-4 -5,-2 -10,-4 -15,-6 -3,-1 -5,-1 -7,-2 -1,-6 -1,-12 -1,-18 0,0 0,-1 0,-1 -4,-5 -7,-10 -11,-14 -10,-2 -21,-3 -32,-4 0,-11 -1,-22 -1,-33 6,-2 12,-3 17,-4 3,-5 5,-9 8,-13 -1,-7 -1,-15 -1,-22 -1,0 -1,0 -2,0 -4,0 -9,0 -13,-1 -1,-2 -2,-5 -3,-7 0,-5 1,-11 1,-16 3,0 6,-1 9,-1 4,-1 8,-1 12,-1 2,-3 3,-6 5,-9 0,-2 0,-5 0,-8 4,-2 7,-5 10,-8 1,-8 1,-17 1,-26 -6,-4 -11,-8 -17,-12 -1,-5 -2,-9 -3,-14 2,-5 4,-9 6,-14 0,-12 0,-24 0,-37 -2,-2 -4,-4 -6,-7 -2,-1 -5,-2 -7,-2 -2,0 -4,0 -7,0 -1,-11 -1,-22 -2,-32 0,-4 -1,-8 -1,-12 7,-2 15,-4 22,-7 2,-2 3,-4 4,-7 5,-3 10,-6 15,-9 2,-3 3,-7 5,-10 -1,-3 -1,-7 -2,-11 3,-2 5,-3 8,-5 3,-3 5,-5 8,-8 1,-13 3,-26 4,-39 2,-5 4,-11 5,-16 4,-6 8,-13 12,-19 0,-1 0,-1 1,-1 0,-10 1,-21 2,-31 3,-6 6,-12 10,-18 2,-4 5,-7 7,-11 6,1 13,1 19,2 3,-10 6,-19 9,-28 7,-9 14,-17 21,-26 4,-7 7,-15 10,-23 5,-1 10,-3 15,-5 2,-2 5,-5 7,-7 4,-2 8,-3 12,-4 9,2 17,4 26,7 1,0 1,0 2,0 7,-4 13,-8 20,-12 9,0 18,-1 27,-2 7,-10 13,-20 20,-29 0,-5 0,-9 0,-13 3,-1 7,-3 11,-4 2,-6 3,-12 5,-18 9,-5 18,-9 27,-14 1,-6 2,-12 3,-18 3,-3 7,-6 10,-10 6,-2 13,-5 19,-7 0,0 1,0 1,0 7,-11 13,-21 20,-32 1,-5 2,-10 3,-15 -1,-2 -2,-3 -3,-5 -12,-2 -24,-5 -36,-7 -3,-3 -6,-6 -9,-9 -2,-3 -3,-7 -4,-11 -7,-1 -14,-2 -21,-4 -6,-2 -11,-5 -17,-8 -4,1 -9,2 -14,3 -4,3 -9,6 -13,9 -2,0 -3,1 -4,1 -3,0 -5,-1 -8,-1 0,-5 0,-10 0,-15 -3,-1 -7,-1 -10,-1 0,-2 0,-5 0,-7 5,-5 11,-9 17,-14 1,-17 1,-33 2,-50 8,6 16,11 24,16 7,1 13,2 20,3 6,-2 13,-4 20,-7 6,3 11,5 17,7 11,1 21,2 32,3 12,1 25,1 38,2 6,2 13,4 20,6 1,-1 3,-1 4,-1 8,-2 16,-3 23,-5 7,-4 14,-7 21,-11 2,-4 5,-8 7,-12 8,0 15,-1 22,-1 1,-2 2,-4 3,-5 9,6 19,12 28,17 7,2 13,3 20,5 5,-2 10,-4 15,-5 6,-4 12,-7 18,-10 5,-2 10,-3 16,-4 1,-4 2,-7 4,-10 1,-4 2,-8 3,-12 0,-4 0,-8 1,-11 5,1 10,2 15,3 6,5 13,10 19,14 3,4 6,7 10,11 0,3 0,7 0,11z"/>
   <path fill="#3A6A49" d="M759 118c11,11 22,22 34,32 4,4 8,7 13,10 0,4 0,9 1,13 2,2 4,5 6,8 3,2 7,4 11,6 3,1 6,2 10,2 4,-1 8,-1 12,-2 5,-1 10,-1 14,-2 2,2 4,3 6,4 -1,7 -2,13 -3,20 -2,3 -4,6 -5,10 0,2 0,5 0,7 2,3 5,6 7,8 2,3 4,6 6,9 0,12 1,23 1,35 0,0 0,1 0,1 0,3 1,5 1,8 4,1 7,2 11,4 1,2 2,4 3,5 1,5 3,10 5,16 4,0 7,1 10,1 6,1 12,2 18,3 6,1 11,2 17,3 2,4 5,8 8,12 -3,3 -6,7 -8,11 -7,4 -14,9 -20,14 -3,2 -6,5 -8,8 -3,3 -6,7 -9,10 -4,3 -8,6 -12,10 -3,1 -6,3 -10,4 -3,0 -7,1 -10,1 -5,2 -9,5 -13,7 0,5 -1,9 -2,14 1,6 2,12 3,18 -6,9 -11,19 -17,29 -5,0 -10,0 -14,0 -2,0 -4,0 -5,0 -8,2 -15,5 -23,8 -5,5 -10,10 -15,15 -1,5 -1,10 -2,16 -8,4 -16,8 -24,12 0,7 1,15 1,23 7,5 13,10 20,16 0,1 0,3 -1,5 -9,2 -19,3 -29,5 -2,10 -4,21 -6,31 -8,2 -16,4 -24,6 0,9 0,18 0,27 0,7 1,14 1,21 -5,3 -10,5 -15,7 -1,3 -2,5 -3,8 -3,8 -6,16 -8,23 -6,5 -11,10 -16,15 -7,-2 -14,-5 -21,-7 -11,-1 -21,-3 -32,-4 -15,1 -30,2 -45,3 -9,3 -18,6 -28,9 1,9 1,17 2,26 -5,5 -9,10 -14,15 -14,2 -28,5 -41,8 0,0 0,1 0,2 2,5 4,11 5,17 1,6 1,13 1,19 -2,8 -4,17 -6,25 3,3 5,6 7,8 2,12 5,24 7,36 -2,2 -3,4 -4,7 0,3 -1,6 -1,9 3,4 6,8 9,12 0,13 -1,26 -1,38 10,3 21,6 31,9 9,2 19,3 28,5 4,1 9,3 13,4 0,5 1,9 2,14 -2,3 -4,6 -5,9 -12,-1 -24,-1 -36,-2 -2,4 -5,8 -8,12 -3,-2 -7,-4 -10,-6 -6,-4 -11,-7 -17,-10 -4,3 -7,6 -11,9 -3,0 -5,1 -8,1 -2,-6 -4,-13 -6,-19 -8,-5 -15,-10 -23,-16 -4,1 -9,1 -13,1 -2,-3 -4,-5 -6,-8 -7,1 -14,1 -20,1 -6,-5 -12,-10 -18,-15 0,-1 -1,-1 -1,-1 -3,-1 -6,-3 -8,-4 -3,1 -5,1 -8,2 1,0 1,1 1,2 2,3 4,6 6,9 -1,5 -1,10 -2,15 1,5 1,10 2,16 4,6 9,13 13,19 7,4 14,8 21,12 1,19 2,38 3,56 7,7 15,14 22,20 -1,6 -1,13 -2,19 -2,16 -4,32 -6,48 3,3 7,7 11,10 4,5 7,10 11,15 1,5 2,11 3,16 -4,7 -8,15 -13,22 -4,-1 -9,-1 -13,-1 -7,2 -14,3 -21,5 -7,6 -15,12 -22,18 0,1 0,1 0,1 -2,9 -4,19 -7,28 -8,8 -16,15 -24,23 -5,5 -10,9 -15,14 -9,4 -18,7 -26,10 -6,8 -13,16 -19,24 -1,5 -3,11 -4,16 -1,4 -2,8 -2,12 -5,6 -10,13 -15,19 -1,8 -2,17 -4,25 -4,0 -7,1 -11,1 -6,1 -11,2 -17,3 -8,-1 -17,-2 -25,-2 -12,0 -24,-1 -36,-1 -3,0 -5,-1 -8,-2 -2,-10 -4,-19 -6,-29 -1,-8 -2,-17 -2,-25 0,-4 1,-8 2,-11 0,-3 0,-6 1,-9 -2,-1 -3,-3 -5,-4 0,0 -1,-1 -2,-1 -3,1 -6,3 -9,4 -3,0 -6,1 -9,1 -2,-1 -4,-2 -6,-3 -2,0 -3,-1 -5,-1 -4,2 -9,3 -13,5 -3,0 -5,0 -7,-1 -1,-2 -2,-5 -2,-7 0,-4 1,-7 2,-10 1,-4 2,-7 3,-11 -1,-3 -1,-5 -1,-8 -2,-5 -4,-9 -6,-14 -1,-3 -3,-7 -5,-10 -6,-5 -12,-10 -19,-14 0,-3 -1,-7 -2,-10 -3,-5 -6,-10 -10,-16 -7,1 -15,2 -22,2 -2,4 -5,8 -7,12 -9,-7 -18,-13 -28,-19 -3,-3 -7,-6 -10,-9 4,0 8,0 12,0 2,-4 3,-8 5,-12 3,-4 5,-7 8,-11 1,-5 2,-10 3,-16 -5,-4 -10,-8 -15,-12 1,-3 3,-6 4,-9 4,-11 7,-23 11,-34 4,-6 8,-11 12,-17 8,-5 16,-11 25,-16 6,-1 11,-2 17,-3 1,3 2,6 4,9 10,0 21,0 31,0 6,-1 11,-2 16,-4 2,-3 4,-6 5,-9 1,-1 1,-1 1,-2 3,-5 5,-10 8,-15 4,-2 8,-4 13,-6 -1,-5 -2,-10 -3,-15 -5,-2 -11,-3 -17,-4 -4,-2 -9,-3 -13,-5 -5,-2 -10,-4 -15,-5 -3,-1 -5,-2 -7,-2 0,-6 -1,-13 -1,-19 0,0 0,0 0,0 -4,-5 -7,-10 -11,-15 -10,-1 -21,-3 -31,-4 -1,-11 -1,-22 -2,-33 6,-1 12,-3 17,-4 3,-4 5,-8 8,-13 0,-7 -1,-14 -1,-21 -1,0 -1,0 -2,0 -4,-1 -8,-1 -13,-1 -1,-3 -2,-5 -3,-8 0,-5 1,-10 1,-15 3,-1 6,-1 9,-2 4,0 8,-1 12,-1 2,-3 4,-6 5,-8 0,-3 0,-6 0,-8 4,-3 7,-6 10,-8 1,-9 1,-18 1,-26 -6,-4 -11,-9 -17,-13 -1,-4 -2,-9 -3,-13 2,-5 4,-10 7,-15 -1,-12 -1,-24 -1,-36 -2,-3 -4,-5 -6,-7 -2,-1 -4,-2 -7,-3 -2,0 -4,0 -7,0 0,-11 -1,-21 -2,-32 0,-4 -1,-8 -1,-11 8,-3 15,-5 23,-7 1,-3 2,-5 3,-7 5,-3 10,-7 16,-10 1,-3 2,-6 4,-9 -1,-4 -1,-8 -2,-11 3,-2 6,-4 8,-6 3,-2 5,-5 8,-8 2,-13 3,-26 5,-39 1,-5 3,-10 5,-16 3,-6 7,-12 11,-19 0,0 0,0 1,-1 0,-10 1,-20 2,-30 3,-7 7,-13 10,-19 2,-3 5,-7 7,-10 6,0 13,1 19,1 3,-9 6,-19 9,-28 7,-8 14,-17 22,-25 3,-8 6,-16 9,-23 5,-2 10,-4 15,-5 2,-3 5,-5 8,-8 4,-1 7,-3 11,-4 9,2 18,5 26,7 1,0 1,1 2,1 7,-4 13,-8 20,-12 9,-1 18,-2 27,-3 7,-10 13,-19 20,-29 0,-4 0,-8 0,-12 4,-2 7,-3 11,-5 2,-6 3,-12 5,-18 9,-4 18,-9 27,-14 1,-6 2,-12 3,-18 4,-3 7,-6 10,-9 6,-3 13,-5 19,-8 0,0 1,0 1,0 7,-10 13,-21 20,-31 1,-5 2,-10 3,-15 -1,-2 -2,-4 -3,-6 -12,-2 -24,-4 -36,-6 -3,-3 -6,-6 -9,-9 -1,-4 -3,-7 -4,-11 -7,-2 -14,-3 -21,-4 -6,-3 -11,-6 -17,-8 -4,1 -9,1 -14,2 -4,3 -9,6 -13,10 -1,0 -3,0 -4,1 -2,-1 -5,-1 -8,-1 0,-6 0,-11 0,-16 -3,0 -7,0 -10,-1 0,-2 0,-4 0,-7 6,-4 11,-9 17,-14 1,-16 1,-33 2,-49 8,5 16,10 25,16 6,1 12,1 19,2 7,-2 13,-4 20,-6 6,2 12,5 17,7 11,1 21,2 32,2 13,1 25,2 38,2 7,2 13,4 20,6 2,0 3,0 5,-1 7,-1 15,-3 23,-5 6,-3 13,-7 20,-11 2,-4 5,-8 8,-12 7,0 14,0 21,-1 1,-2 2,-3 3,-5 10,6 19,12 28,18 7,1 13,3 20,4 5,-1 10,-3 15,-5 6,-3 12,-7 18,-10 5,-1 10,-3 16,-4 1,-3 3,-7 4,-10 1,-4 2,-8 3,-12 0,-3 0,-7 1,-11 5,1 10,3 15,4 6,4 13,9 19,14 3,3 7,7 10,10 0,4 0,7 1,11z"/>
   <path fill="#3E6F4E" d="M757 111c11,11 23,22 34,33 4,3 8,6 13,9 0,5 1,9 1,13 2,3 4,6 6,8 3,2 7,5 11,7 3,0 6,1 10,2 4,-1 8,-2 12,-3 5,0 10,-1 15,-1 1,1 3,2 5,4 -1,6 -2,13 -3,19 -2,4 -3,7 -5,10 0,3 0,5 0,8 2,2 5,5 7,8 2,3 4,5 6,8 0,12 1,24 1,35 0,1 0,1 0,2 1,2 1,5 1,7 4,1 7,3 11,4 1,2 2,4 3,6 2,5 4,10 5,15 4,1 7,1 11,2 6,1 11,2 17,3 6,1 11,2 17,3 2,4 5,7 8,11 -3,4 -6,7 -8,11 -7,5 -14,9 -20,14 -3,3 -6,6 -8,8 -3,4 -6,7 -9,10 -4,4 -8,7 -12,10 -3,2 -6,3 -9,5 -4,0 -8,0 -11,0 -4,3 -8,5 -12,8 -1,4 -2,9 -3,13 1,6 2,12 3,18 -6,10 -11,20 -17,29 -5,0 -10,0 -14,0 -2,0 -4,0 -5,0 -8,3 -15,5 -22,8 -6,5 -11,10 -16,15 -1,5 -1,11 -2,16 -8,4 -16,8 -24,12 1,8 1,15 1,23 7,5 14,11 20,16 0,2 0,4 0,5 -10,2 -20,4 -30,5 -2,11 -4,21 -5,31 -9,3 -17,5 -25,7 0,9 0,17 0,26 1,7 1,14 2,22 -6,2 -11,4 -16,7 -1,2 -2,5 -3,7 -3,8 -5,16 -8,24 -6,5 -11,10 -16,15 -7,-3 -14,-5 -21,-7 -11,-2 -21,-4 -32,-5 -15,1 -30,2 -45,3 -9,3 -18,7 -28,10 1,8 2,17 2,25 -5,5 -9,10 -14,15 -14,3 -27,6 -41,8 0,1 0,1 0,2 2,6 4,12 6,17 0,7 0,13 0,19 -2,9 -4,17 -6,25 3,3 5,6 7,9 3,12 5,23 7,35 -1,3 -3,5 -4,7 0,3 0,7 -1,10 3,4 6,8 9,12 0,12 0,25 -1,38 10,3 21,6 31,9 10,1 19,2 28,4 4,1 9,3 13,4 1,5 1,10 2,15 -2,3 -4,5 -5,8 -12,0 -24,-1 -35,-2 -3,4 -6,9 -9,13 -3,-2 -6,-5 -10,-7 -6,-3 -11,-7 -17,-10 -4,3 -7,6 -11,9 -3,1 -5,1 -8,1 -2,-6 -4,-12 -6,-18 -8,-6 -15,-11 -23,-16 -4,0 -9,0 -13,0 -2,-2 -4,-5 -6,-7 -7,0 -13,0 -20,0 -6,-5 -12,-10 -18,-15 0,0 -1,0 -1,-1 -3,-1 -5,-2 -8,-3 -3,0 -5,1 -8,1 1,1 1,1 1,2 2,3 4,6 6,9 -1,5 -1,10 -2,15 1,5 1,11 2,16 4,7 9,13 13,20 7,4 14,8 21,12 1,18 2,37 3,56 7,6 15,13 22,20 -1,6 -1,12 -2,18 -2,16 -4,32 -6,49 4,3 7,6 11,10 4,5 7,9 11,14 1,6 2,11 3,17 -4,7 -8,14 -13,21 -4,0 -8,0 -13,-1 -7,2 -14,4 -21,5 -7,7 -15,13 -22,19 0,0 0,0 0,0 -2,10 -4,19 -6,28 -9,8 -17,16 -25,23 -5,5 -10,10 -15,15 -9,3 -18,6 -26,10 -6,8 -13,15 -19,23 -1,6 -3,11 -4,16 -1,4 -1,8 -2,12 -5,7 -10,13 -15,19 -1,9 -2,17 -3,25 -4,1 -8,1 -12,2 -6,0 -11,1 -17,2 -8,-1 -17,-1 -25,-2 -12,0 -24,0 -36,0 -2,-1 -5,-2 -8,-2 -2,-10 -4,-20 -6,-30 -1,-8 -1,-16 -2,-24 1,-4 1,-8 2,-12 0,-3 1,-6 1,-9 -2,-1 -3,-2 -5,-3 0,-1 -1,-1 -1,-2 -4,1 -7,3 -10,4 -3,1 -6,1 -9,2 -2,-1 -4,-2 -6,-3 -2,-1 -3,-1 -5,-2 -4,2 -9,4 -13,5 -3,0 -5,0 -7,0 -1,-3 -1,-5 -2,-8 1,-3 1,-6 2,-10 1,-3 2,-7 3,-11 -1,-2 -1,-5 -1,-8 -2,-4 -4,-9 -5,-13 -2,-4 -4,-7 -6,-11 -6,-4 -12,-9 -19,-14 0,-3 -1,-6 -1,-9 -4,-6 -7,-11 -11,-16 -7,0 -15,1 -22,2 -2,3 -5,7 -7,11 -9,-6 -18,-13 -27,-19 -4,-3 -8,-5 -11,-8 4,0 8,-1 12,-1 2,-4 3,-8 5,-12 3,-3 5,-7 8,-10 1,-6 2,-11 3,-16 -5,-4 -10,-8 -15,-12 1,-3 3,-6 4,-9 4,-12 8,-23 11,-35 4,-5 8,-11 12,-16 8,-6 16,-11 25,-17 6,-1 12,-2 17,-3 2,3 3,7 4,10 10,0 21,0 32,0 5,-2 10,-3 15,-4 2,-3 4,-7 5,-10 1,0 1,-1 1,-1 3,-5 5,-10 8,-15 4,-2 8,-5 13,-7 -1,-5 -2,-10 -2,-15 -6,-1 -12,-3 -18,-4 -4,-1 -8,-3 -13,-4 -5,-2 -10,-4 -15,-6 -2,-1 -5,-1 -7,-2 0,-6 -1,-12 -1,-18 0,0 0,-1 0,-1 -3,-5 -7,-10 -11,-15 -10,-1 -21,-2 -31,-4 -1,-11 -1,-22 -2,-33 6,-1 12,-2 18,-3 2,-5 5,-9 7,-13 0,-8 -1,-15 -1,-22 -1,0 -1,0 -2,0 -4,0 -8,-1 -13,-1 -1,-2 -2,-5 -3,-7 0,-5 1,-11 1,-16 3,0 6,-1 9,-1 4,-1 8,-1 12,-2 2,-2 4,-5 5,-8 0,-3 0,-5 0,-8 4,-3 7,-5 11,-8 0,-9 0,-17 0,-26 -5,-4 -11,-8 -17,-12 -1,-5 -2,-9 -3,-14 2,-5 4,-9 7,-14 -1,-12 -1,-25 -1,-37 -2,-2 -4,-5 -6,-7 -2,-1 -4,-2 -6,-3 -3,0 -5,0 -8,0 0,-10 -1,-21 -2,-31 0,-4 0,-8 -1,-12 8,-2 15,-5 23,-7 1,-2 2,-4 3,-7 6,-3 11,-6 16,-9 1,-4 3,-7 4,-10 -1,-4 -1,-7 -2,-11 3,-2 6,-4 8,-5 3,-3 6,-6 8,-8 2,-13 3,-26 5,-39 1,-5 3,-11 5,-16 3,-7 7,-13 11,-19 0,-1 1,-1 1,-1 1,-11 1,-21 2,-31 3,-6 7,-12 10,-18 2,-4 5,-7 7,-11 7,1 13,1 19,2 3,-10 6,-19 9,-28 7,-9 14,-17 22,-26 3,-7 6,-15 9,-23 5,-2 10,-3 15,-5 2,-2 5,-5 8,-8 4,-1 8,-2 12,-4 8,3 17,5 25,8 1,0 1,0 2,0 7,-4 14,-8 20,-12 9,-1 18,-2 27,-2 7,-10 13,-20 20,-30 0,-4 0,-8 0,-12 4,-1 8,-3 11,-4 2,-6 3,-12 5,-18 9,-5 18,-9 27,-14 1,-6 2,-12 4,-18 3,-3 6,-7 9,-10 6,-2 13,-5 19,-7 0,0 1,0 1,0 7,-11 14,-21 20,-32 1,-5 2,-10 3,-15 -1,-2 -2,-4 -3,-5 -12,-3 -24,-5 -36,-7 -3,-3 -6,-6 -9,-9 -1,-3 -3,-7 -4,-11 -7,-1 -14,-3 -21,-4 -5,-3 -11,-5 -17,-8 -4,1 -9,2 -13,2 -5,4 -10,7 -14,10 -1,0 -3,1 -4,1 -2,0 -5,-1 -8,-1 0,-5 0,-10 0,-16 -3,0 -6,0 -10,0 0,-2 0,-5 0,-7 6,-5 12,-9 17,-14 1,-17 1,-33 2,-50 8,5 16,11 25,16 6,1 12,2 19,3 7,-2 14,-5 20,-7 6,3 12,5 17,7 11,1 22,2 32,3 13,0 25,1 38,2 7,2 13,4 20,6 2,-1 3,-1 5,-1 7,-2 15,-4 23,-5 6,-4 13,-8 20,-11 3,-4 5,-8 8,-12 7,-1 14,-1 21,-1 1,-2 2,-4 4,-6 9,6 18,12 27,18 7,2 14,3 20,5 5,-2 10,-4 15,-6 6,-3 12,-6 18,-10 5,-1 11,-2 16,-3 1,-4 3,-7 4,-11 1,-3 2,-7 3,-11 0,-4 1,-8 1,-12 5,2 10,3 15,4 6,5 13,9 19,14 3,4 7,7 10,10 0,4 0,8 1,11z"/>
   <path fill="#437552" d="M755 105c11,11 23,21 34,32 4,4 9,7 13,10 0,4 1,8 1,13 2,2 4,5 6,8 4,2 7,4 11,6 3,1 7,1 10,2 4,-1 8,-2 12,-3 5,0 10,0 15,-1 1,2 3,3 5,4 -1,7 -2,13 -3,20 -2,3 -3,6 -5,9 0,3 0,6 0,8 3,3 5,6 7,8 2,3 4,6 6,9 0,11 1,23 1,35 0,0 0,1 0,1 1,3 1,5 1,8 4,1 8,2 11,3 1,2 2,4 3,6 2,5 4,10 6,15 3,1 6,2 10,2 6,1 12,2 18,3 5,1 11,2 16,3 3,4 5,8 8,12 -3,3 -5,7 -8,10 -7,5 -13,10 -20,14 -3,3 -5,6 -8,9 -3,3 -6,6 -9,10 -4,3 -8,6 -11,9 -4,2 -7,3 -10,5 -4,0 -8,0 -11,1 -4,2 -8,5 -12,7 -1,5 -2,9 -3,13 1,6 2,12 3,18 -5,10 -11,20 -17,30 -5,0 -9,0 -14,0 -2,0 -3,0 -5,0 -8,2 -15,5 -22,7 -6,5 -11,10 -16,15 -1,6 -1,11 -2,17 -8,4 -16,8 -24,11 1,8 1,16 2,23 6,6 13,11 19,16 0,2 0,4 0,6 -10,1 -20,3 -30,5 -2,10 -3,20 -5,31 -8,2 -17,4 -25,6 0,9 0,18 0,26 1,8 1,15 2,22 -6,2 -11,5 -16,7 -1,3 -2,5 -3,8 -3,8 -5,15 -8,23 -5,5 -11,10 -16,15 -7,-2 -14,-5 -21,-7 -11,-2 -21,-3 -32,-5 -15,1 -30,2 -44,4 -10,3 -19,6 -28,9 0,9 1,17 1,26 -4,5 -9,10 -14,15 -14,2 -27,5 -41,8 0,0 0,1 1,1 1,6 3,12 5,18 0,6 0,12 0,19 -2,8 -4,16 -5,25 2,3 4,5 6,8 3,12 5,24 7,36 -1,2 -3,4 -4,7 0,3 0,6 -1,9 3,4 7,8 10,12 -1,13 -1,25 -2,38 11,3 21,6 31,9 10,1 19,3 28,4 5,2 9,3 13,5 1,5 1,9 2,14 -2,3 -3,6 -5,9 -12,-1 -24,-2 -35,-2 -3,4 -6,8 -8,12 -4,-2 -7,-4 -11,-6 -5,-4 -11,-7 -17,-11 -3,4 -7,7 -11,10 -2,0 -5,0 -8,1 -2,-7 -4,-13 -6,-19 -8,-5 -15,-11 -22,-16 -5,0 -9,1 -14,1 -2,-3 -4,-5 -6,-8 -7,0 -13,1 -20,1 -6,-5 -12,-10 -17,-15 -1,-1 -2,-1 -2,-1 -3,-1 -5,-3 -8,-4 -2,1 -5,1 -7,1 0,1 0,2 0,2 2,4 4,7 6,10 -1,5 -1,10 -2,14 1,6 1,11 2,16 4,7 9,14 13,20 7,4 14,8 21,12 1,19 2,38 3,56 8,7 15,13 22,20 -1,6 -1,12 -2,19 -2,16 -4,32 -6,48 4,3 7,7 11,10 4,5 7,10 11,15 1,5 2,11 3,16 -4,7 -8,14 -12,21 -5,0 -9,0 -14,0 -7,2 -14,3 -21,5 -7,6 -15,12 -22,18 0,0 0,1 0,1 -2,9 -4,19 -6,28 -9,8 -17,15 -25,23 -5,5 -10,9 -15,14 -9,3 -17,7 -26,10 -6,8 -12,16 -19,24 -1,5 -3,10 -4,16 -1,4 -1,8 -2,12 -5,6 -10,12 -15,19 -1,8 -2,16 -3,25 -4,0 -8,1 -12,1 -6,1 -11,2 -17,2 -8,0 -17,-1 -25,-1 -12,-1 -24,-1 -36,-1 -2,-1 -5,-1 -7,-2 -3,-10 -5,-19 -7,-29 -1,-8 -1,-17 -2,-25 1,-4 1,-8 2,-12 0,-3 1,-6 1,-9 -2,-1 -3,-2 -5,-3 0,0 -1,-1 -1,-2 -4,2 -7,3 -10,5 -3,0 -6,1 -9,1 -2,-1 -4,-2 -6,-3 -1,0 -3,-1 -5,-1 -4,1 -9,3 -13,5 -3,0 -5,-1 -7,-1 -1,-2 -1,-5 -2,-8 1,-3 1,-6 2,-9 1,-4 2,-8 3,-11 0,-3 -1,-6 -1,-8 -2,-5 -4,-9 -5,-14 -2,-3 -4,-7 -6,-10 -6,-5 -12,-10 -19,-14 0,-4 -1,-7 -1,-10 -4,-5 -7,-11 -11,-16 -7,1 -15,1 -22,2 -2,4 -5,8 -7,11 -9,-6 -18,-12 -27,-19 -4,-2 -8,-5 -11,-8 4,0 8,0 13,-1 1,-4 3,-7 4,-11 3,-4 6,-7 8,-11 1,-5 2,-10 3,-16 -5,-4 -10,-8 -15,-12 2,-3 3,-6 4,-9 4,-11 8,-23 11,-35 4,-5 8,-10 12,-16 8,-5 17,-11 25,-16 6,-1 12,-2 18,-3 1,3 2,6 3,9 10,0 21,0 32,0 5,-1 10,-3 15,-4 2,-3 4,-6 6,-9 0,-1 0,-1 0,-2 3,-5 6,-10 8,-15 4,-2 9,-4 13,-6 -1,-5 -2,-10 -2,-15 -6,-2 -12,-3 -17,-4 -5,-2 -9,-3 -14,-5 -5,-2 -10,-4 -15,-6 -2,0 -5,-1 -7,-2 0,-6 0,-12 -1,-18 0,0 0,0 0,-1 -3,-4 -7,-9 -10,-14 -11,-1 -22,-3 -32,-4 -1,-11 -1,-22 -2,-33 6,-1 12,-3 18,-4 2,-4 5,-9 7,-13 0,-7 -1,-14 -1,-22 0,0 -1,0 -1,0 -5,0 -9,0 -14,-1 -1,-2 -2,-4 -3,-7 1,-5 1,-10 1,-16 3,0 6,0 9,-1 4,0 8,-1 12,-1 2,-3 4,-6 6,-9 0,-2 0,-5 0,-8 3,-2 6,-5 10,-7 0,-9 0,-18 0,-27 -5,-4 -11,-8 -16,-12 -2,-4 -3,-9 -4,-14 2,-4 4,-9 7,-14 0,-12 -1,-24 -1,-36 -2,-3 -4,-5 -6,-8 -2,0 -4,-1 -6,-2 -3,0 -5,0 -8,0 0,-11 -1,-21 -1,-32 -1,-4 -1,-8 -2,-12 8,-2 15,-4 23,-7 1,-2 2,-4 4,-6 5,-4 10,-7 15,-10 1,-3 3,-6 4,-10 0,-3 -1,-7 -2,-11 3,-1 6,-3 9,-5 2,-3 5,-5 7,-8 2,-13 3,-26 5,-39 1,-5 3,-10 5,-16 4,-6 7,-12 11,-19 0,0 1,-1 1,-1 1,-10 2,-20 2,-31 4,-6 7,-12 10,-18 3,-4 5,-7 8,-10 6,0 12,1 18,1 3,-9 6,-19 9,-28 7,-8 15,-17 22,-25 3,-8 6,-16 9,-23 5,-2 10,-4 15,-5 3,-3 5,-6 8,-8 4,-1 8,-3 12,-4 8,2 17,5 25,7 1,0 1,0 2,1 7,-4 14,-8 21,-12 8,-1 17,-2 26,-3 7,-10 13,-20 20,-29 0,-4 0,-8 0,-13 4,-1 8,-2 12,-4 1,-6 2,-12 4,-18 9,-4 18,-9 27,-14 2,-6 3,-12 4,-18 3,-3 6,-6 9,-9 7,-3 13,-5 19,-8 1,0 1,0 1,0 7,-10 14,-21 20,-32 1,-5 2,-10 3,-14 -1,-2 -2,-4 -3,-6 -12,-2 -24,-4 -36,-6 -3,-3 -6,-6 -9,-9 -1,-4 -3,-8 -4,-11 -7,-2 -14,-3 -21,-5 -5,-2 -11,-5 -17,-7 -4,0 -9,1 -13,2 -5,3 -9,6 -14,9 -1,1 -2,1 -4,1 -2,0 -5,0 -7,-1 -1,-5 -1,-10 -1,-15 -3,0 -6,-1 -10,-1 0,-2 0,-4 0,-7 6,-4 12,-9 18,-14 0,-16 0,-33 1,-49 8,5 16,10 25,15 6,1 13,2 19,3 7,-2 14,-4 20,-6 6,2 12,4 18,7 10,1 21,1 31,2 13,1 25,1 38,2 7,2 14,4 20,6 2,0 3,-1 5,-1 8,-2 15,-3 23,-5 7,-4 13,-7 20,-11 3,-4 5,-8 8,-12 7,0 14,-1 21,-1 1,-2 2,-3 4,-5 9,6 18,12 27,18 7,1 14,3 21,4 4,-2 9,-3 14,-5 6,-3 12,-7 18,-10 5,-1 11,-3 16,-4 1,-3 3,-7 4,-10 1,-4 2,-8 3,-12 0,-4 1,-7 1,-11 5,1 10,2 15,4 6,4 13,9 19,14 4,3 7,6 10,10 0,3 0,7 1,11z"/>
   <path fill="#477A57" d="M753 98c11,11 23,22 34,33 4,3 9,6 13,9 0,5 1,9 1,13 2,3 4,5 6,8 4,2 7,4 11,7 3,0 7,1 10,1 4,0 8,-1 12,-2 5,-1 10,-1 15,-1 2,1 3,2 5,3 -1,7 -2,14 -3,20 -2,3 -3,7 -5,10 0,2 0,5 0,8 3,2 5,5 7,8 2,3 4,5 6,8 0,12 1,23 1,35 0,1 0,1 0,1 1,3 1,5 1,8 4,1 8,3 11,4 1,2 2,4 3,6 2,5 4,10 6,15 3,0 6,1 10,2 6,1 12,1 18,2 5,1 11,2 16,4 3,3 5,7 8,11 -3,4 -5,7 -8,11 -7,5 -13,9 -20,14 -3,3 -5,5 -8,8 -3,3 -6,7 -9,10 -3,3 -7,7 -11,10 -4,1 -7,3 -10,4 -4,1 -8,1 -11,1 -4,2 -8,5 -12,8 -1,4 -2,8 -3,13 1,6 2,12 4,18 -6,10 -12,19 -18,29 -5,0 -9,0 -14,0 -2,0 -3,0 -5,0 -7,3 -15,5 -22,8 -5,5 -11,10 -16,15 -1,5 -1,11 -1,16 -9,4 -17,8 -25,12 1,8 1,15 2,23 6,5 13,10 19,16 0,2 0,3 0,5 -10,2 -20,3 -30,5 -1,11 -3,21 -5,31 -8,2 -16,5 -25,7 0,8 0,17 0,26 1,7 1,14 2,22 -6,2 -11,4 -16,6 -1,3 -2,6 -3,8 -2,8 -5,16 -8,24 -5,5 -11,10 -16,14 -7,-2 -14,-4 -21,-7 -11,-1 -21,-3 -32,-4 -15,1 -29,2 -44,3 -10,3 -19,6 -28,10 0,8 1,17 1,25 -4,5 -9,10 -14,15 -13,3 -27,5 -41,8 0,1 0,1 1,2 1,6 3,11 5,17 0,7 0,13 0,19 -2,9 -3,17 -5,25 2,3 4,6 7,9 2,11 4,23 6,35 -1,2 -3,5 -4,7 0,3 0,6 0,10 3,4 6,8 9,12 -1,12 -1,25 -2,37 11,3 21,6 31,9 10,2 19,3 28,5 5,1 9,3 13,4 1,5 1,10 2,14 -2,3 -3,6 -5,9 -12,-1 -23,-1 -35,-2 -3,4 -6,8 -8,12 -4,-2 -7,-4 -11,-6 -5,-3 -11,-7 -17,-10 -3,3 -7,6 -11,9 -2,1 -5,1 -8,1 -2,-6 -4,-12 -6,-19 -8,-5 -15,-10 -22,-15 -5,0 -9,0 -14,0 -2,-2 -4,-5 -6,-7 -6,0 -13,0 -20,0 -6,-5 -12,-10 -17,-15 -1,0 -2,-1 -2,-1 -3,-1 -5,-2 -8,-3 -2,0 -5,0 -7,1 0,0 0,1 0,2 2,3 4,6 6,9 -1,5 -1,10 -1,15 0,5 0,10 1,16 4,6 9,13 13,19 7,5 14,9 21,13 1,18 2,37 4,56 7,6 14,13 21,19 0,7 -1,13 -2,19 -2,16 -4,32 -6,48 4,4 8,7 11,10 4,5 8,10 11,15 1,6 2,11 3,17 -4,7 -8,14 -12,21 -5,0 -9,-1 -14,-1 -7,2 -14,4 -21,5 -7,6 -14,13 -22,19 0,0 0,0 0,0 -2,10 -4,19 -6,28 -8,8 -17,16 -25,23 -5,5 -10,10 -15,14 -9,4 -17,7 -26,11 -6,7 -12,15 -18,23 -2,5 -3,11 -5,16 -1,4 -1,8 -2,12 -5,7 -10,13 -15,19 -1,9 -2,17 -3,25 -4,1 -8,1 -12,1 -5,1 -11,2 -16,3 -9,-1 -17,-1 -26,-2 -12,0 -24,0 -36,-1 -2,0 -5,-1 -7,-2 -2,-9 -5,-19 -7,-29 0,-8 -1,-16 -2,-25 1,-3 2,-7 2,-11 1,-3 1,-6 1,-9 -1,-1 -3,-2 -4,-3 -1,-1 -2,-2 -2,-2 -3,1 -7,3 -10,4 -3,1 -6,1 -9,2 -2,-1 -4,-3 -6,-4 -1,0 -3,0 -5,-1 -4,2 -9,3 -13,5 -2,0 -5,0 -7,0 -1,-3 -1,-6 -2,-8 1,-3 1,-6 2,-10 1,-3 2,-7 3,-11 0,-3 -1,-5 -1,-8 -2,-4 -4,-9 -5,-14 -2,-3 -4,-7 -5,-10 -7,-5 -13,-9 -19,-14 -1,-3 -2,-6 -2,-10 -4,-5 -7,-10 -11,-15 -7,0 -14,1 -22,2 -2,3 -4,7 -7,11 -9,-7 -18,-13 -27,-19 -4,-3 -7,-6 -11,-8 4,-1 8,-1 13,-1 1,-4 3,-8 4,-12 3,-4 6,-7 8,-10 1,-6 2,-11 4,-16 -5,-4 -11,-8 -16,-12 2,-3 3,-6 4,-9 4,-12 8,-24 12,-35 3,-6 7,-11 11,-16 8,-6 17,-11 25,-17 6,-1 12,-2 18,-3 1,3 2,6 3,10 11,0 21,0 32,0 5,-2 10,-3 15,-4 2,-4 4,-7 6,-10 0,0 0,-1 1,-1 2,-5 5,-10 7,-15 4,-3 9,-5 13,-7 -1,-5 -2,-10 -2,-15 -6,-1 -12,-3 -17,-4 -5,-1 -9,-3 -14,-4 -5,-2 -10,-4 -15,-6 -2,-1 -5,-1 -7,-2 0,-6 0,-12 -1,-18 0,-1 0,-1 0,-1 -3,-5 -7,-10 -10,-15 -11,-1 -22,-2 -32,-4 -1,-11 -1,-22 -2,-33 6,-1 12,-2 18,-4 2,-4 5,-8 7,-12 0,-8 0,-15 -1,-22 0,0 -1,0 -1,0 -5,0 -9,-1 -14,-1 -1,-3 -2,-5 -3,-7 1,-6 1,-11 1,-16 3,-1 6,-1 9,-2 4,0 8,0 12,-1 2,-3 4,-5 6,-8 0,-3 0,-6 0,-8 3,-3 6,-5 10,-8 0,-9 0,-17 0,-26 -5,-4 -11,-8 -16,-12 -1,-5 -3,-10 -4,-14 2,-5 5,-10 7,-14 0,-13 0,-25 -1,-37 -2,-2 -4,-5 -6,-7 -2,-1 -4,-2 -6,-3 -3,0 -5,0 -7,0 -1,-10 -2,-21 -2,-32 -1,-3 -1,-7 -2,-11 8,-3 15,-5 23,-7 1,-2 2,-5 4,-7 5,-3 10,-6 15,-10 1,-3 3,-6 4,-9 0,-4 -1,-7 -1,-11 2,-2 5,-4 8,-6 2,-2 5,-5 7,-7 2,-13 3,-26 5,-39 2,-6 3,-11 5,-16 4,-7 7,-13 11,-19 1,-1 1,-1 1,-2 1,-10 2,-20 2,-30 4,-6 7,-13 10,-19 3,-3 5,-7 8,-10 6,0 12,1 18,1 3,-9 6,-18 9,-28 7,-8 15,-17 22,-25 3,-8 6,-15 9,-23 5,-2 10,-3 15,-5 3,-3 5,-5 8,-8 4,-1 8,-2 12,-4 8,3 17,5 25,7 1,1 2,1 2,1 7,-4 14,-8 21,-12 9,-1 18,-2 26,-3 7,-9 14,-19 20,-29 0,-4 0,-8 0,-12 4,-2 8,-3 12,-5 1,-5 3,-11 4,-17 9,-5 18,-10 28,-14 1,-6 2,-12 3,-18 3,-4 6,-7 9,-10 7,-2 13,-5 19,-7 1,0 1,0 2,0 6,-11 13,-22 19,-32 1,-5 3,-10 4,-15 -1,-2 -3,-4 -4,-6 -12,-2 -24,-4 -36,-6 -3,-3 -6,-6 -9,-9 -1,-4 -2,-7 -4,-11 -7,-1 -14,-3 -21,-4 -5,-3 -11,-5 -16,-8 -5,1 -10,2 -14,2 -5,3 -9,7 -14,10 -1,0 -2,0 -4,1 -2,-1 -5,-1 -7,-1 0,-5 -1,-11 -1,-16 -3,0 -6,0 -9,0 -1,-3 -1,-5 -1,-7 6,-5 12,-10 18,-14 0,-17 1,-33 1,-50 8,5 17,11 25,16 6,1 13,2 19,2 7,-2 14,-4 21,-6 5,2 11,5 17,7 10,1 21,2 31,3 13,0 26,1 38,1 7,2 14,4 20,6 2,0 3,0 5,0 8,-2 15,-4 23,-6 7,-3 13,-7 20,-10 3,-4 5,-8 8,-12 7,-1 14,-1 21,-2 1,-1 3,-3 4,-5 9,6 18,12 27,18 7,2 14,3 21,5 4,-2 9,-4 14,-6 6,-3 12,-6 18,-10 5,-1 11,-2 16,-4 2,-3 3,-6 4,-10 1,-4 2,-8 3,-11 0,-4 1,-8 1,-12 5,2 10,3 15,4 7,5 13,9 20,14 3,3 6,7 9,10 0,4 1,8 1,11z"/>
   <path fill="#4B7F5B" d="M751 92c11,10 23,21 34,32 5,3 9,7 13,10 0,4 1,8 1,12 2,3 4,6 6,9 4,2 7,4 11,6 3,1 7,1 10,2 4,-1 8,-2 12,-3 5,0 10,-1 15,-1 2,1 3,3 5,4 -1,6 -2,13 -3,20 -2,3 -3,6 -5,9 0,3 0,5 0,8 3,3 5,5 7,8 2,3 4,6 6,8 1,12 1,24 2,36 0,0 0,0 0,1 0,2 0,5 1,7 3,2 7,3 10,4 1,2 2,4 3,6 2,5 4,10 6,15 3,1 7,1 10,2 6,1 12,2 18,3 5,1 11,2 16,3 3,4 5,8 8,11 -3,4 -5,8 -8,11 -6,5 -13,10 -20,14 -3,3 -5,6 -8,9 -3,3 -6,6 -8,10 -4,3 -8,6 -12,9 -3,2 -7,3 -10,5 -4,0 -7,0 -11,0 -4,3 -8,5 -12,8 -1,4 -2,9 -3,13 1,6 3,12 4,18 -6,10 -12,20 -18,29 -5,0 -9,0 -14,0 -2,0 -3,0 -5,0 -7,3 -15,6 -22,8 -5,5 -11,10 -16,15 0,6 -1,11 -1,16 -8,4 -17,8 -25,12 1,8 1,16 2,23 6,6 13,11 19,16 0,2 0,4 0,6 -10,1 -20,3 -30,5 -1,10 -3,20 -5,31 -8,2 -16,4 -24,6 0,9 0,18 0,26 0,7 0,15 1,22 -5,2 -11,5 -16,7 -1,2 -2,5 -3,8 -2,7 -5,15 -8,23 -5,5 -11,10 -16,15 -7,-2 -14,-5 -21,-7 -10,-2 -21,-3 -32,-5 -14,1 -29,2 -44,3 -10,4 -19,7 -28,10 0,9 1,17 2,26 -5,5 -10,9 -15,14 -13,3 -27,6 -41,9 0,0 1,1 1,1 1,6 3,12 5,18 0,6 0,12 0,19 -1,8 -3,16 -5,24 2,3 4,6 7,9 2,12 4,24 6,35 -1,3 -2,5 -4,7 0,4 0,7 0,10 3,4 6,8 9,12 -1,13 -1,25 -2,38 11,3 21,6 32,9 9,1 18,3 28,4 4,2 8,3 12,5 1,4 2,9 2,14 -1,3 -3,6 -5,9 -12,-1 -23,-2 -35,-2 -3,4 -5,8 -8,12 -4,-2 -7,-4 -10,-6 -6,-4 -12,-7 -18,-11 -3,3 -7,7 -10,10 -3,0 -6,0 -9,1 -2,-7 -4,-13 -6,-19 -7,-5 -15,-11 -22,-16 -5,0 -9,0 -14,1 -2,-3 -4,-5 -5,-8 -7,0 -14,0 -21,1 -6,-5 -11,-11 -17,-16 -1,0 -1,0 -2,0 -3,-2 -5,-3 -8,-4 -2,0 -5,1 -7,1 0,1 0,2 1,2 1,3 3,7 5,10 0,5 -1,9 -1,14 0,6 1,11 1,16 5,7 9,13 14,20 7,4 13,8 20,12 1,19 3,37 4,56 7,7 14,13 21,20 0,6 -1,12 -2,18 -2,16 -4,33 -6,49 4,3 8,7 11,10 4,5 8,10 11,15 1,5 2,11 4,16 -5,7 -9,14 -13,21 -5,0 -9,0 -13,0 -7,1 -15,3 -22,5 -7,6 -14,12 -22,18 0,0 0,1 0,1 -2,9 -4,18 -6,28 -8,7 -16,15 -25,23 -5,4 -10,9 -15,14 -8,3 -17,7 -26,10 -6,8 -12,16 -18,24 -2,5 -3,10 -5,15 0,5 -1,9 -2,13 -5,6 -10,12 -15,19 -1,8 -2,16 -3,25 -4,0 -8,0 -12,1 -5,1 -11,1 -16,2 -9,0 -17,-1 -26,-2 -12,0 -24,0 -35,0 -3,-1 -6,-1 -8,-2 -2,-10 -4,-20 -7,-29 0,-9 -1,-17 -2,-25 1,-4 2,-8 2,-12 1,-3 1,-6 1,-9 -1,-1 -3,-2 -4,-3 -1,-1 -2,-1 -2,-2 -3,2 -6,3 -10,5 -3,0 -6,1 -9,1 -2,-1 -4,-2 -6,-3 -1,-1 -3,-1 -4,-2 -5,2 -9,4 -14,6 -2,-1 -5,-1 -7,-1 -1,-3 -1,-5 -2,-8 1,-3 1,-6 2,-9 1,-4 2,-8 3,-12 0,-2 -1,-5 -1,-7 -2,-5 -3,-10 -5,-14 -2,-4 -4,-7 -5,-11 -7,-4 -13,-9 -19,-14 -1,-3 -2,-6 -2,-9 -4,-5 -7,-11 -10,-16 -8,1 -15,1 -23,2 -2,4 -4,7 -7,11 -9,-6 -18,-12 -27,-19 -4,-3 -7,-5 -11,-8 4,0 9,0 13,-1 1,-4 3,-8 4,-12 3,-3 6,-7 8,-10 2,-5 3,-11 4,-16 -5,-4 -10,-8 -15,-12 1,-3 2,-6 3,-9 4,-12 8,-23 12,-35 3,-5 7,-11 11,-16 9,-5 17,-11 25,-16 6,-1 12,-3 18,-4 1,4 2,7 3,10 11,0 21,0 32,0 5,-1 10,-3 15,-4 2,-3 4,-6 6,-10 0,0 0,0 1,-1 2,-5 5,-10 7,-15 5,-2 9,-4 13,-6 -1,-5 -1,-11 -2,-16 -6,-1 -11,-2 -17,-4 -5,-1 -9,-3 -13,-4 -6,-2 -11,-4 -16,-6 -2,0 -4,-1 -7,-2 0,-6 0,-12 -1,-18 0,0 0,-1 0,-1 -3,-5 -7,-9 -10,-14 -11,-2 -21,-3 -32,-4 0,-11 -1,-22 -1,-33 5,-2 11,-3 17,-4 2,-4 5,-9 7,-13 0,-7 0,-15 -1,-22 0,0 -1,0 -1,0 -5,0 -9,0 -13,-1 -2,-2 -3,-4 -4,-7 1,-5 1,-10 2,-16 3,0 6,-1 9,-1 4,-1 8,-1 12,-1 1,-3 3,-6 5,-9 0,-2 0,-5 0,-8 3,-2 7,-5 10,-8 0,-8 0,-17 0,-26 -5,-4 -11,-8 -16,-12 -1,-5 -3,-9 -4,-14 2,-4 5,-9 7,-14 0,-12 0,-24 0,-37 -3,-2 -5,-4 -7,-7 -2,-1 -4,-1 -6,-2 -2,0 -5,0 -7,0 -1,-11 -2,-22 -2,-32 -1,-4 -1,-8 -1,-12 7,-2 15,-4 22,-7 1,-2 3,-4 4,-6 5,-4 10,-7 15,-10 2,-3 3,-7 4,-10 0,-3 -1,-7 -1,-11 2,-2 5,-3 8,-5 2,-3 5,-5 8,-8 1,-13 3,-26 4,-39 2,-5 3,-11 5,-16 4,-6 8,-13 11,-19 1,0 1,-1 1,-1 1,-10 2,-21 3,-31 3,-6 6,-12 9,-18 3,-4 5,-7 8,-11 6,1 12,1 18,2 3,-10 6,-19 9,-28 7,-9 15,-17 22,-26 3,-7 6,-15 10,-23 4,-1 9,-3 14,-5 3,-2 5,-5 8,-7 4,-2 8,-3 12,-4 8,2 17,4 26,7 0,0 1,0 1,0 7,-4 14,-7 21,-11 9,-1 18,-2 27,-3 6,-10 13,-20 19,-29 0,-5 0,-9 0,-13 4,-1 8,-3 12,-4 1,-6 3,-12 4,-18 9,-5 19,-9 28,-14 1,-6 2,-12 3,-18 3,-3 6,-6 9,-9 7,-3 13,-6 19,-8 1,0 1,0 2,0 6,-11 13,-21 20,-32 1,-5 2,-10 3,-15 -1,-1 -2,-3 -3,-5 -13,-2 -25,-4 -37,-7 -3,-3 -6,-6 -9,-9 -1,-3 -2,-7 -4,-10 -7,-2 -14,-3 -21,-5 -5,-2 -11,-5 -16,-8 -5,1 -10,2 -14,3 -5,3 -9,6 -14,9 -1,1 -2,1 -3,1 -3,0 -6,0 -8,-1 0,-5 0,-10 -1,-15 -3,-1 -6,-1 -9,-1 -1,-2 -1,-5 -1,-7 6,-5 12,-9 18,-14 0,-16 1,-33 1,-50 8,6 17,11 25,16 6,1 13,2 19,3 7,-2 14,-4 21,-6 5,2 11,4 17,6 10,1 21,2 32,3 12,1 25,1 37,2 7,2 14,4 21,6 1,0 3,-1 4,-1 8,-2 15,-3 23,-5 7,-4 14,-7 20,-11 3,-4 6,-8 8,-12 7,0 14,-1 21,-1 1,-2 3,-4 4,-5 9,6 18,12 27,18 7,1 14,3 21,4 5,-2 9,-3 14,-5 6,-4 12,-7 18,-10 6,-2 11,-3 16,-4 2,-4 3,-7 5,-10 0,-4 1,-8 2,-12 1,-4 1,-8 1,-11 5,1 10,2 15,3 7,5 13,10 20,14 3,4 6,7 9,11 0,3 1,7 1,11z"/>
   <path fill="#4F8460" d="M749 85c12,11 23,22 34,33 5,3 9,6 13,9 1,4 1,9 2,13 1,3 3,5 5,8 4,2 8,4 11,7 4,0 7,1 10,1 4,-1 8,-1 12,-2 5,-1 10,-1 15,-2 2,2 4,3 5,4 -1,7 -2,13 -3,20 -1,3 -3,6 -4,10 0,2 0,5 0,7 2,3 4,6 7,9 1,2 3,5 5,8 1,12 1,23 2,35 0,0 0,1 0,1 0,3 0,5 1,8 3,1 7,2 11,4 0,2 1,4 2,6 2,5 4,10 6,15 3,0 7,1 10,2 6,0 12,1 18,2 5,1 11,2 16,3 3,4 6,8 8,12 -2,3 -5,7 -8,11 -6,4 -13,9 -20,14 -2,2 -5,5 -8,8 -3,3 -5,7 -8,10 -4,3 -8,6 -12,10 -3,1 -7,3 -10,4 -4,0 -7,1 -11,1 -4,2 -8,5 -12,7 -1,5 -2,9 -3,14 2,6 3,12 4,18 -6,9 -12,19 -18,29 -4,0 -9,0 -14,0 -1,0 -3,0 -5,0 -7,2 -15,5 -22,8 -5,5 -11,10 -16,15 0,5 -1,10 -1,16 -8,4 -16,8 -24,12 0,7 0,15 1,23 6,5 13,10 20,16 -1,1 -1,3 -1,5 -10,2 -20,3 -29,5 -2,10 -4,21 -6,31 -8,2 -16,4 -24,6 0,9 0,18 0,27 0,7 1,14 1,21 -5,3 -11,5 -16,7 -1,3 -2,5 -2,8 -3,8 -6,16 -9,23 -5,5 -10,10 -16,15 -7,-2 -14,-4 -21,-7 -10,-1 -21,-3 -31,-4 -15,1 -30,2 -45,3 -9,3 -19,6 -28,10 0,8 1,16 2,25 -5,5 -10,10 -14,15 -14,3 -28,5 -42,8 0,1 1,1 1,2 2,5 3,11 5,17 0,6 0,13 1,19 -2,8 -4,17 -6,25 2,3 4,6 7,8 2,12 4,24 6,36 -1,2 -2,5 -4,7 0,3 0,6 0,9 3,4 6,9 9,13 -1,12 -1,25 -1,37 10,3 20,6 31,9 9,2 18,3 28,5 4,1 8,3 12,4 1,5 2,10 2,14 -1,3 -3,6 -5,9 -12,-1 -23,-1 -35,-2 -3,4 -5,8 -8,12 -4,-2 -7,-4 -10,-6 -6,-4 -12,-7 -17,-10 -4,3 -8,6 -11,9 -3,0 -6,1 -9,1 -2,-6 -4,-12 -6,-19 -7,-5 -15,-10 -22,-16 -5,1 -9,1 -14,1 -2,-2 -3,-5 -5,-8 -7,1 -14,1 -21,1 -6,-5 -11,-10 -17,-15 -1,-1 -1,-1 -2,-1 -2,-1 -5,-2 -8,-4 -2,1 -5,1 -7,2 0,0 0,1 1,2 1,3 3,6 5,9 0,5 -1,10 -1,15 0,5 1,10 1,16 5,6 9,13 14,19 7,4 14,8 21,12 1,19 2,38 3,56 7,7 14,14 21,20 0,6 -1,13 -1,19 -3,16 -5,32 -7,48 4,4 8,7 12,10 3,5 7,10 10,15 2,5 3,11 4,16 -5,8 -9,15 -13,22 -5,0 -9,-1 -13,-1 -7,2 -14,3 -21,5 -8,6 -15,12 -23,19 0,0 0,0 0,0 -2,9 -4,19 -6,28 -8,8 -16,15 -24,23 -6,5 -11,10 -16,14 -8,4 -17,7 -26,10 -6,8 -12,16 -18,24 -2,5 -3,11 -5,16 0,4 -1,8 -2,12 -4,6 -9,13 -14,19 -2,8 -3,17 -4,25 -4,0 -8,1 -12,1 -5,1 -11,2 -16,3 -9,-1 -17,-2 -26,-2 -12,0 -23,-1 -35,-1 -3,0 -6,-1 -8,-2 -2,-9 -4,-19 -6,-29 -1,-8 -2,-16 -3,-25 1,-4 2,-8 3,-11 0,-3 0,-6 0,-9 -1,-1 -3,-2 -4,-4 -1,0 -1,-1 -2,-1 -3,1 -6,3 -10,4 -3,0 -5,1 -8,1 -2,-1 -4,-2 -6,-3 -2,0 -4,-1 -5,-1 -5,2 -9,3 -14,5 -2,0 -5,0 -7,-1 0,-2 -1,-5 -2,-7 1,-3 2,-7 2,-10 1,-4 2,-7 3,-11 0,-3 0,-5 -1,-8 -2,-5 -3,-9 -5,-14 -2,-3 -3,-7 -5,-10 -7,-5 -13,-10 -19,-14 -1,-3 -1,-7 -2,-10 -3,-5 -7,-10 -10,-16 -8,1 -15,2 -23,2 -2,4 -4,8 -6,12 -10,-7 -19,-13 -28,-19 -4,-3 -7,-6 -11,-9 4,0 9,0 13,0 1,-4 3,-8 4,-12 3,-4 6,-7 9,-11 1,-5 2,-10 3,-15 -5,-4 -10,-9 -15,-13 1,-3 2,-5 3,-8 4,-12 8,-24 12,-35 4,-6 7,-11 11,-17 9,-5 17,-10 25,-16 6,-1 12,-2 18,-3 1,3 2,6 3,9 11,0 21,0 32,0 5,-1 10,-2 15,-4 2,-3 4,-6 6,-9 0,-1 0,-1 1,-2 2,-5 5,-10 7,-15 5,-2 9,-4 13,-6 -1,-5 -1,-10 -2,-15 -6,-2 -11,-3 -17,-4 -4,-2 -9,-3 -13,-5 -5,-2 -11,-3 -16,-5 -2,-1 -4,-2 -7,-2 0,-6 0,-12 0,-19 0,0 0,0 0,0 -4,-5 -8,-10 -11,-15 -11,-1 -21,-3 -32,-4 0,-11 -1,-22 -1,-33 5,-1 11,-2 17,-4 3,-4 5,-8 8,-13 -1,-7 -1,-14 -2,-21 0,0 -1,0 -1,0 -4,-1 -9,-1 -13,-1 -1,-3 -2,-5 -4,-7 1,-6 1,-11 2,-16 3,-1 6,-1 9,-2 4,0 8,-1 12,-1 1,-3 3,-5 5,-8 0,-3 0,-6 0,-8 3,-3 7,-6 10,-8 0,-9 0,-18 1,-26 -6,-4 -12,-8 -17,-12 -1,-5 -2,-10 -4,-14 3,-5 5,-10 7,-14 0,-13 0,-25 0,-37 -2,-3 -5,-5 -7,-7 -2,-1 -4,-2 -6,-3 -2,0 -5,0 -7,0 -1,-11 -1,-21 -2,-32 -1,-4 -1,-7 -1,-11 7,-3 15,-5 22,-7 1,-3 3,-5 4,-7 5,-3 10,-7 15,-10 2,-3 3,-6 5,-9 -1,-4 -2,-8 -2,-11 2,-2 5,-4 8,-6 2,-2 5,-5 8,-8 1,-13 3,-26 4,-38 2,-6 4,-11 5,-17 4,-6 8,-12 11,-19 1,0 1,0 1,-1 1,-10 2,-20 3,-30 3,-7 6,-13 9,-19 3,-3 5,-7 8,-10 6,0 12,1 18,1 3,-9 6,-18 9,-28 8,-8 15,-17 22,-25 3,-8 6,-16 10,-23 5,-2 9,-4 14,-5 3,-3 6,-5 8,-8 4,-1 8,-3 12,-4 9,3 17,5 26,7 0,0 1,1 1,1 7,-4 14,-8 21,-12 9,-1 18,-2 27,-3 6,-10 13,-19 19,-29 0,-4 0,-8 0,-12 4,-2 8,-3 12,-5 1,-6 3,-12 4,-18 9,-4 19,-9 28,-13 1,-6 2,-12 3,-19 3,-3 6,-6 10,-9 6,-3 12,-5 19,-8 0,0 0,0 1,0 6,-10 13,-21 20,-31 1,-5 2,-10 3,-15 -1,-2 -2,-4 -3,-6 -12,-2 -25,-4 -37,-6 -3,-3 -6,-6 -9,-9 -1,-4 -2,-7 -3,-11 -7,-1 -14,-3 -21,-4 -6,-3 -12,-6 -17,-8 -5,1 -9,1 -14,2 -5,3 -9,6 -14,10 -1,0 -2,0 -3,1 -3,-1 -5,-1 -8,-1 0,-6 0,-11 0,-16 -4,0 -7,0 -10,-1 0,-2 -1,-4 -1,-6 6,-5 12,-10 18,-15 0,-16 1,-33 1,-49 9,5 17,10 25,16 7,1 13,1 19,2 7,-2 14,-4 21,-6 5,2 11,5 17,7 10,1 21,2 32,2 12,1 25,2 37,2 7,2 14,4 21,6 1,0 3,0 4,-1 8,-1 16,-3 23,-5 7,-3 14,-7 20,-10 3,-4 6,-9 8,-13 7,0 14,0 21,-1 2,-1 3,-3 4,-5 9,6 18,12 27,18 7,1 14,3 21,5 5,-2 10,-4 14,-6 6,-3 12,-7 18,-10 6,-1 11,-2 16,-4 2,-3 3,-6 5,-10 1,-4 1,-8 2,-12 1,-3 1,-7 1,-11 5,1 10,3 15,4 7,5 13,9 20,14 3,3 6,7 9,10 1,4 1,7 1,11z"/>
   <path fill="#548964" d="M747 78c12,11 23,22 35,33 4,3 8,6 12,10 1,4 1,8 2,12 2,3 4,6 5,8 4,3 8,5 11,7 4,1 7,1 10,2 4,-1 9,-2 13,-3 4,0 9,-1 14,-1 2,1 4,2 5,4 -1,6 -2,13 -3,19 -1,4 -3,7 -4,10 0,3 0,5 0,8 2,3 4,5 7,8 2,3 3,6 5,8 1,12 1,24 2,35 0,1 0,1 0,2 0,2 0,5 1,7 3,2 7,3 11,4 1,2 1,4 2,6 2,5 4,10 6,15 3,1 7,1 10,2 6,1 12,2 18,3 6,1 11,2 16,3 3,4 6,7 8,11 -2,4 -5,8 -8,11 -6,5 -13,9 -20,14 -2,3 -5,6 -8,8 -2,4 -5,7 -8,10 -4,4 -8,7 -12,10 -3,2 -7,3 -10,5 -4,0 -7,0 -11,0 -4,3 -8,5 -12,8 -1,4 -2,9 -2,13 1,6 2,12 3,18 -6,10 -12,20 -18,29 -4,0 -9,0 -14,0 -1,0 -3,0 -5,0 -7,3 -14,5 -22,8 -5,5 -10,10 -16,15 0,5 -1,11 -1,16 -8,4 -16,8 -24,12 0,8 1,15 1,23 7,5 13,11 20,16 0,2 -1,4 -1,5 -10,2 -19,4 -29,5 -2,11 -4,21 -6,32 -8,2 -16,4 -24,6 0,9 0,17 0,26 0,7 1,15 1,22 -5,2 -10,4 -16,7 -1,2 -1,5 -2,7 -3,8 -6,16 -9,24 -5,5 -10,10 -16,15 -7,-3 -14,-5 -21,-7 -10,-2 -21,-3 -31,-5 -15,1 -30,2 -45,3 -9,3 -19,7 -28,10 1,8 1,17 2,25 -5,5 -10,10 -14,15 -14,3 -28,6 -42,8 1,1 1,2 1,2 2,6 3,12 5,17 0,7 1,13 1,19 -2,9 -4,17 -6,25 2,3 5,6 7,9 2,12 4,23 6,35 -1,3 -2,5 -4,7 0,4 0,7 0,10 3,4 6,8 9,12 0,13 -1,25 -1,38 10,3 20,6 31,9 9,1 18,3 28,4 4,2 8,3 13,5 0,4 1,9 1,14 -1,3 -3,5 -5,8 -11,0 -23,-1 -35,-2 -3,4 -5,9 -8,13 -3,-2 -7,-5 -10,-7 -6,-3 -12,-7 -17,-10 -4,3 -8,6 -11,10 -3,0 -6,0 -8,0 -3,-6 -5,-12 -7,-18 -7,-6 -15,-11 -22,-16 -4,0 -9,0 -13,0 -2,-2 -4,-5 -6,-7 -7,0 -14,0 -21,0 -5,-5 -11,-10 -17,-15 -1,0 -1,0 -2,-1 -2,-1 -5,-2 -7,-3 -3,0 -6,1 -8,1 0,1 0,1 1,2 2,3 3,6 5,9 0,5 -1,10 -1,15 0,5 1,11 1,16 5,7 9,13 14,20 7,4 14,8 21,12 1,18 2,37 3,56 7,6 14,13 21,20 0,6 -1,12 -1,18 -2,16 -5,32 -7,49 4,3 8,6 12,10 3,5 7,9 11,14 1,6 2,11 3,17 -4,7 -9,14 -13,21 -4,0 -9,0 -13,0 -7,1 -14,3 -21,4 -8,7 -15,13 -23,19 0,0 0,0 0,1 -2,9 -4,18 -6,28 -8,7 -16,15 -24,23 -5,4 -10,9 -16,14 -8,3 -17,6 -26,10 -6,8 -12,16 -18,23 -2,6 -3,11 -5,16 0,4 -1,8 -1,12 -5,7 -10,13 -15,19 -2,9 -3,17 -4,25 -4,1 -8,1 -12,2 -5,0 -11,1 -16,2 -9,-1 -17,-1 -26,-2 -12,0 -23,0 -35,0 -3,-1 -5,-2 -8,-2 -2,-10 -4,-20 -6,-29 -1,-9 -2,-17 -3,-25 1,-4 2,-8 3,-12 0,-3 0,-6 0,-9 -1,-1 -3,-2 -4,-3 -1,-1 -1,-1 -2,-2 -3,2 -6,3 -9,4 -3,1 -6,1 -9,2 -2,-1 -4,-2 -6,-3 -2,-1 -4,-1 -5,-2 -5,2 -9,4 -14,5 -2,0 -4,0 -7,0 0,-3 -1,-5 -1,-8 0,-3 1,-6 1,-9 1,-4 2,-8 3,-12 0,-2 0,-5 -1,-7 -1,-5 -3,-10 -5,-14 -2,-4 -3,-7 -5,-11 -6,-4 -13,-9 -19,-14 -1,-3 -1,-6 -2,-9 -3,-6 -7,-11 -10,-16 -8,0 -15,1 -22,2 -3,4 -5,7 -7,11 -10,-6 -19,-13 -28,-19 -3,-3 -7,-5 -11,-8 5,0 9,-1 13,-1 2,-4 3,-8 5,-12 2,-3 5,-7 8,-10 1,-5 2,-11 3,-16 -5,-4 -10,-8 -15,-12 1,-3 2,-6 4,-9 3,-12 7,-23 11,-35 4,-5 8,-11 11,-16 9,-6 17,-11 25,-17 6,-1 12,-2 18,-3 1,3 2,7 3,10 11,0 22,0 32,0 5,-2 10,-3 16,-4 1,-3 3,-7 5,-10 0,0 1,-1 1,-1 2,-5 5,-10 8,-15 4,-2 8,-4 12,-7 0,-5 -1,-10 -2,-15 -6,-1 -11,-2 -17,-4 -4,-1 -9,-3 -13,-4 -5,-2 -10,-4 -16,-6 -2,-1 -4,-1 -6,-2 -1,-6 -1,-12 -1,-18 0,0 0,-1 0,-1 -4,-5 -7,-10 -11,-14 -11,-2 -21,-3 -32,-4 0,-11 -1,-23 -1,-34 6,-1 11,-2 17,-3 3,-5 5,-9 8,-13 -1,-7 -1,-15 -2,-22 0,0 0,0 -1,0 -4,0 -9,-1 -13,-1 -1,-2 -2,-5 -3,-7 0,-5 0,-11 1,-16 3,0 6,-1 9,-1 4,-1 8,-1 12,-2 2,-2 3,-5 5,-8 0,-3 0,-5 0,-8 3,-3 7,-5 10,-8 0,-8 1,-17 1,-26 -6,-4 -11,-8 -17,-12 -1,-5 -2,-9 -4,-14 3,-5 5,-9 7,-14 0,-12 0,-25 0,-37 -2,-2 -4,-5 -7,-7 -2,-1 -4,-2 -6,-3 -2,0 -5,0 -7,0 -1,-10 -1,-21 -2,-31 0,-4 -1,-8 -1,-12 7,-2 15,-5 22,-7 2,-2 3,-4 4,-7 5,-3 10,-6 15,-9 2,-4 3,-7 5,-10 -1,-4 -2,-7 -2,-11 3,-2 5,-4 8,-5 3,-3 5,-6 8,-8 1,-13 3,-26 4,-39 2,-5 4,-11 5,-16 4,-6 8,-13 12,-19 0,-1 0,-1 0,-1 1,-11 2,-21 3,-31 3,-6 6,-12 10,-18 2,-4 5,-7 7,-11 6,1 12,1 19,2 2,-10 5,-19 8,-28 8,-9 15,-17 22,-26 3,-7 7,-15 10,-23 5,-1 10,-3 14,-5 3,-2 6,-5 8,-8 4,-1 8,-2 12,-3 9,2 17,4 26,7 0,0 1,0 2,0 6,-4 13,-8 20,-12 9,-1 18,-1 27,-2 6,-10 13,-20 19,-30 0,-4 0,-8 0,-12 4,-1 8,-3 12,-4 1,-6 3,-12 4,-18 10,-5 19,-9 28,-14 1,-6 2,-12 3,-18 3,-3 6,-6 10,-10 6,-2 12,-5 19,-7 0,0 0,0 1,0 6,-11 13,-21 20,-32 1,-5 2,-10 3,-15 -1,-2 -2,-4 -3,-5 -12,-2 -24,-5 -37,-7 -3,-3 -6,-6 -9,-9 -1,-3 -2,-7 -3,-11 -7,-1 -14,-3 -21,-4 -6,-3 -11,-5 -17,-8 -5,1 -9,2 -14,2 -4,4 -9,7 -13,10 -2,0 -3,1 -4,1 -3,0 -5,-1 -8,-1 0,-5 0,-10 0,-15 -4,-1 -7,-1 -10,-1 0,-2 0,-5 -1,-7 6,-5 12,-9 18,-14 0,-17 1,-33 1,-50 9,6 17,11 25,16 7,1 13,2 19,3 7,-2 14,-5 21,-7 6,3 11,5 17,7 11,1 21,2 32,3 12,0 25,1 37,2 7,2 14,4 21,6 1,-1 3,-1 4,-1 8,-2 16,-4 23,-5 7,-4 14,-7 21,-11 2,-4 5,-8 7,-12 7,-1 14,-1 21,-1 2,-2 3,-4 4,-5 9,5 18,11 28,17 6,2 13,3 20,5 5,-2 10,-4 14,-5 7,-4 13,-7 19,-11 5,-1 10,-2 15,-3 2,-4 3,-7 5,-10 1,-4 2,-8 2,-12 1,-4 1,-8 2,-11 5,1 9,2 14,3 7,5 13,10 20,14 3,4 6,7 9,11 1,3 1,7 1,10z"/>
   <path fill="#588E69" d="M745 72c12,11 23,22 35,32 4,4 8,7 12,10 1,4 1,8 2,13 2,2 4,5 6,8 3,2 7,4 10,6 4,1 7,2 11,2 4,-1 8,-2 12,-2 5,-1 9,-1 14,-2 2,2 4,3 6,4 -2,7 -3,13 -4,20 -1,3 -3,6 -4,9 0,3 0,6 0,8 2,3 4,6 7,8 2,3 4,6 6,9 0,11 0,23 1,35 0,0 0,1 0,1 0,3 1,5 1,8 4,1 7,2 11,4 1,1 2,3 2,5 2,5 4,10 6,15 4,1 7,2 10,2 6,1 12,2 18,3 6,1 11,2 17,3 2,4 5,8 7,12 -2,3 -5,7 -7,11 -7,4 -14,9 -21,13 -2,3 -5,6 -7,9 -3,3 -6,6 -9,10 -4,3 -8,6 -12,9 -3,2 -6,4 -10,5 -3,0 -7,0 -11,1 -4,2 -8,5 -12,7 -1,5 -1,9 -2,13 1,7 2,13 3,19 -6,9 -12,19 -17,29 -5,0 -10,0 -15,0 -1,0 -3,0 -4,0 -8,2 -15,5 -23,7 -5,5 -10,11 -16,16 0,5 -1,10 -1,16 -8,4 -16,8 -24,12 0,7 1,15 1,23 7,5 13,10 20,15 0,2 -1,4 -1,6 -10,1 -19,3 -29,5 -2,10 -4,21 -6,31 -8,2 -16,4 -24,6 0,9 0,18 0,27 0,7 1,14 1,21 -5,2 -10,5 -16,7 -1,3 -1,5 -2,8 -3,8 -6,15 -9,23 -5,5 -10,10 -15,15 -7,-2 -14,-5 -21,-7 -11,-2 -22,-3 -32,-5 -15,2 -30,3 -45,4 -9,3 -19,6 -28,9 1,9 1,17 2,26 -5,5 -10,10 -14,15 -14,2 -28,5 -42,8 1,0 1,1 1,2 2,5 4,11 5,17 0,6 1,13 1,19 -2,8 -4,16 -6,25 2,3 5,5 7,8 2,12 4,24 7,36 -2,2 -3,4 -4,7 -1,3 -1,6 -1,9 3,4 6,8 9,12 0,13 -1,26 -1,38 10,3 21,6 31,9 9,1 19,3 28,4 4,2 8,3 13,5 0,5 1,9 2,14 -2,3 -4,6 -6,9 -11,-1 -23,-2 -35,-2 -2,4 -5,8 -8,12 -3,-2 -7,-4 -10,-6 -6,-4 -12,-7 -17,-11 -4,4 -7,7 -11,10 -3,0 -6,0 -8,1 -2,-6 -5,-13 -7,-19 -7,-5 -14,-10 -22,-16 -4,0 -9,1 -13,1 -2,-3 -4,-5 -6,-8 -7,0 -14,1 -21,1 -5,-5 -11,-10 -17,-15 0,-1 -1,-1 -2,-1 -2,-1 -5,-3 -7,-4 -3,1 -5,1 -8,1 0,1 1,2 1,2 2,4 4,7 5,10 0,5 -1,10 -1,14 0,6 1,11 1,17 5,6 9,13 14,19 7,4 14,8 21,12 1,19 2,38 3,56 7,7 14,13 22,20 -1,6 -2,12 -2,19 -2,16 -4,32 -7,48 4,3 8,7 12,10 3,5 7,10 11,15 1,5 2,11 3,16 -4,7 -9,14 -13,22 -4,-1 -9,-1 -13,-1 -7,2 -14,3 -21,5 -8,6 -15,12 -22,18 0,1 0,1 0,1 -3,9 -5,19 -7,28 -8,8 -16,15 -24,23 -5,5 -10,9 -15,14 -9,3 -18,7 -26,10 -7,8 -13,16 -19,24 -1,5 -3,10 -5,16 0,4 -1,8 -1,12 -5,6 -10,13 -15,19 -1,8 -3,17 -4,25 -4,0 -8,1 -11,1 -6,1 -11,2 -17,2 -8,0 -17,-1 -26,-1 -11,0 -23,-1 -35,-1 -3,-1 -5,-1 -8,-2 -2,-10 -4,-19 -6,-29 -1,-8 -2,-17 -3,-25 1,-4 2,-8 3,-12 0,-3 0,-6 1,-9 -2,-1 -3,-2 -5,-3 -1,0 -1,-1 -2,-2 -3,2 -6,3 -9,5 -3,0 -6,1 -9,1 -2,-1 -4,-2 -6,-3 -2,0 -3,-1 -5,-1 -5,1 -9,3 -14,5 -2,0 -4,-1 -7,-1 0,-2 -1,-5 -1,-7 0,-4 1,-7 1,-10 1,-4 3,-8 4,-11 -1,-3 -1,-5 -2,-8 -1,-5 -3,-9 -5,-14 -1,-3 -3,-7 -5,-10 -6,-5 -13,-10 -19,-14 -1,-4 -1,-7 -2,-10 -3,-5 -7,-11 -10,-16 -7,1 -15,2 -22,2 -3,4 -5,8 -7,11 -9,-6 -19,-12 -28,-19 -3,-2 -7,-5 -11,-8 5,0 9,0 13,0 2,-4 3,-8 5,-12 2,-4 5,-7 8,-11 1,-5 2,-10 3,-16 -5,-4 -10,-8 -15,-12 1,-3 2,-6 4,-9 3,-11 7,-23 11,-35 4,-5 8,-10 12,-16 8,-5 16,-11 25,-16 5,-1 11,-2 17,-3 1,3 2,6 3,9 11,0 22,0 32,0 5,-1 11,-2 16,-4 1,-3 3,-6 5,-9 0,-1 1,-1 1,-2 3,-5 5,-10 8,-15 4,-2 8,-4 12,-6 0,-5 -1,-10 -2,-15 -5,-2 -11,-3 -17,-4 -4,-2 -9,-3 -13,-5 -5,-2 -10,-4 -15,-6 -3,0 -5,-1 -7,-1 -1,-7 -1,-13 -1,-19 0,0 0,0 0,-1 -4,-4 -7,-9 -11,-14 -10,-1 -21,-3 -32,-4 0,-11 -1,-22 -1,-33 6,-1 11,-3 17,-4 3,-4 5,-9 8,-13 -1,-7 -1,-14 -1,-21 -1,0 -1,0 -2,0 -4,-1 -9,-1 -13,-1 -1,-3 -2,-5 -3,-8 0,-5 1,-10 1,-16 3,0 6,0 9,-1 4,0 8,-1 12,-1 2,-3 3,-6 5,-8 0,-3 0,-6 0,-9 4,-2 7,-5 10,-7 0,-9 1,-18 1,-27 -6,-4 -11,-8 -17,-12 -1,-4 -2,-9 -3,-14 2,-4 4,-9 6,-14 0,-12 0,-24 0,-36 -2,-3 -4,-5 -6,-7 -3,-1 -5,-2 -7,-3 -2,0 -5,0 -7,0 -1,-11 -1,-21 -2,-32 0,-4 -1,-8 -1,-12 7,-2 15,-4 22,-6 2,-3 3,-5 4,-7 5,-3 10,-7 15,-10 2,-3 3,-6 5,-9 -1,-4 -1,-8 -2,-11 3,-2 5,-4 8,-6 3,-3 5,-5 8,-8 1,-13 3,-26 4,-39 2,-5 4,-10 5,-16 4,-6 8,-12 12,-19 0,0 0,-1 1,-1 0,-10 1,-20 2,-31 3,-6 6,-12 10,-18 2,-3 5,-7 7,-10 6,0 12,1 19,1 3,-9 6,-19 9,-28 7,-8 14,-17 21,-25 4,-8 7,-16 10,-23 5,-2 10,-4 15,-5 2,-3 5,-6 7,-8 4,-1 8,-3 12,-4 9,2 17,5 26,7 0,0 1,0 2,1 6,-4 13,-8 20,-12 9,-1 18,-2 27,-3 6,-10 13,-19 20,-29 0,-4 0,-8 0,-13 3,-1 7,-2 11,-4 2,-6 3,-12 4,-18 10,-4 19,-9 28,-14 1,-6 2,-12 3,-18 3,-3 7,-6 10,-9 6,-3 12,-5 19,-8 0,0 1,0 1,0 7,-10 13,-21 20,-32 1,-4 2,-9 3,-14 -1,-2 -2,-4 -3,-6 -12,-2 -24,-4 -36,-6 -3,-3 -6,-6 -9,-9 -2,-4 -3,-8 -4,-11 -7,-2 -14,-3 -21,-5 -6,-2 -11,-5 -17,-7 -5,0 -9,1 -14,2 -4,3 -9,6 -13,9 -2,1 -3,1 -4,1 -3,0 -5,0 -8,-1 0,-5 0,-10 0,-15 -3,0 -7,0 -10,-1 0,-2 0,-4 -1,-7 6,-4 12,-9 18,-14 1,-16 1,-33 2,-49 8,5 16,10 24,16 7,0 13,1 20,2 6,-2 13,-4 20,-6 6,2 11,4 17,7 11,1 21,1 32,2 12,1 25,2 38,2 6,2 13,4 20,6 1,0 3,0 4,-1 8,-1 16,-3 23,-5 7,-3 14,-7 21,-11 2,-4 5,-8 7,-12 7,0 14,-1 21,-1 2,-2 3,-3 4,-5 9,6 19,12 28,18 6,1 13,3 20,4 5,-1 10,-3 15,-5 6,-3 12,-7 18,-10 5,-1 10,-3 16,-4 1,-3 2,-7 4,-10 1,-4 2,-8 3,-12 0,-4 0,-7 1,-11 5,1 10,2 15,4 6,4 13,9 19,14 3,3 6,6 10,10 0,4 0,7 0,11z"/>
   <path fill="#5C936D" d="M743 65c12,11 23,22 35,33 4,3 8,6 13,9 0,5 0,9 1,13 2,3 4,5 6,8 3,2 7,5 11,7 3,0 6,1 10,2 4,-1 8,-2 12,-3 5,0 9,-1 14,-1 2,1 4,2 6,4 -1,6 -2,13 -4,19 -1,3 -3,7 -4,10 0,2 0,5 0,8 2,2 5,5 7,8 2,3 4,5 6,8 0,12 1,24 1,35 0,1 0,1 0,1 0,3 1,6 1,8 4,1 7,3 11,4 1,2 2,4 3,6 1,5 3,10 5,15 4,0 7,1 10,2 6,1 12,2 18,2 6,1 11,3 17,4 2,3 5,7 8,11 -3,4 -6,7 -8,11 -7,5 -14,9 -20,14 -3,3 -6,5 -8,8 -3,4 -6,7 -9,10 -4,3 -8,7 -12,10 -3,1 -6,3 -10,4 -3,1 -7,1 -11,1 -4,3 -8,5 -12,8 -1,4 -1,8 -2,13 1,6 2,12 3,18 -6,10 -12,19 -17,29 -5,0 -10,0 -14,0 -2,0 -4,0 -5,0 -8,3 -15,5 -23,8 -5,5 -10,10 -15,15 -1,5 -1,11 -2,16 -8,4 -16,8 -24,12 0,8 1,15 1,23 7,5 13,11 20,16 0,2 0,3 -1,5 -9,2 -19,4 -29,5 -2,11 -4,21 -6,31 -8,2 -16,5 -24,7 0,8 0,17 0,26 0,7 1,14 1,22 -5,2 -10,4 -16,7 0,2 -1,5 -2,7 -3,8 -6,16 -8,24 -6,5 -11,10 -16,15 -7,-3 -14,-5 -21,-8 -11,-1 -22,-3 -32,-4 -15,1 -30,2 -45,3 -9,3 -18,7 -28,10 1,8 1,17 2,25 -5,5 -9,10 -14,15 -14,3 -28,5 -41,8 0,1 0,1 0,2 2,6 4,11 5,17 1,7 1,13 1,19 -2,9 -4,17 -6,25 3,3 5,6 7,9 2,11 5,23 7,35 -2,2 -3,5 -4,7 0,3 -1,7 -1,10 3,4 6,8 9,12 0,12 -1,25 -1,37 10,3 21,6 31,9 9,2 19,3 28,5 4,1 9,3 13,4 0,5 1,10 2,14 -2,3 -4,6 -5,9 -12,0 -24,-1 -36,-2 -2,4 -5,8 -8,13 -3,-3 -7,-5 -10,-7 -6,-3 -11,-7 -17,-10 -4,3 -7,6 -11,9 -3,1 -5,1 -8,1 -2,-6 -4,-12 -6,-18 -8,-6 -15,-11 -23,-16 -4,0 -9,0 -13,0 -2,-2 -4,-5 -6,-7 -7,0 -14,0 -20,0 -6,-5 -12,-10 -18,-15 0,0 -1,-1 -2,-1 -2,-1 -5,-2 -7,-3 -3,0 -5,0 -8,1 0,0 1,1 1,2 2,3 4,6 6,9 -1,5 -1,10 -2,15 1,5 1,11 2,16 4,6 9,13 13,20 7,4 14,8 21,12 1,18 2,37 3,56 7,6 15,13 22,19 -1,7 -1,13 -2,19 -2,16 -4,32 -6,48 3,4 7,7 11,11 4,4 7,9 11,14 1,6 2,11 3,17 -4,7 -8,14 -13,21 -4,0 -9,0 -13,-1 -7,2 -14,4 -21,5 -7,6 -15,13 -22,19 0,0 0,0 0,0 -2,10 -5,19 -7,28 -8,8 -16,16 -24,23 -5,5 -10,10 -15,15 -9,3 -18,6 -26,10 -7,7 -13,15 -19,23 -1,6 -3,11 -4,16 -1,4 -2,8 -2,12 -5,7 -10,13 -15,19 -1,9 -2,17 -4,25 -4,1 -7,1 -11,2 -6,0 -11,1 -17,2 -8,-1 -17,-1 -25,-2 -12,0 -24,0 -36,0 -3,-1 -5,-2 -8,-2 -2,-10 -4,-20 -6,-30 -1,-8 -2,-16 -2,-24 0,-4 1,-8 2,-12 0,-3 0,-6 1,-9 -2,-1 -3,-2 -5,-3 0,-1 -1,-1 -2,-2 -3,1 -6,3 -9,4 -3,1 -6,1 -9,2 -2,-1 -4,-2 -6,-4 -2,0 -3,0 -5,-1 -5,2 -9,4 -14,5 -2,0 -4,0 -6,0 -1,-3 -2,-5 -2,-8 0,-3 1,-6 2,-10 1,-3 2,-7 3,-11 -1,-3 -1,-5 -1,-8 -2,-4 -4,-9 -6,-14 -1,-3 -3,-6 -5,-10 -6,-5 -13,-9 -19,-14 0,-3 -1,-6 -2,-10 -3,-5 -7,-10 -10,-15 -7,0 -15,1 -22,2 -3,3 -5,7 -7,11 -9,-6 -18,-13 -28,-19 -3,-3 -7,-6 -10,-8 4,-1 8,-1 12,-1 2,-4 3,-8 5,-12 3,-3 5,-7 8,-10 1,-6 2,-11 3,-16 -5,-4 -10,-8 -15,-12 1,-3 3,-6 4,-9 4,-12 7,-24 11,-35 4,-6 8,-11 12,-16 8,-6 16,-11 25,-17 6,-1 11,-2 17,-3 1,3 2,6 3,10 11,0 22,0 32,0 6,-2 11,-3 16,-4 2,-4 3,-7 5,-10 1,0 1,-1 1,-1 3,-5 5,-10 8,-15 4,-3 8,-5 13,-7 -1,-5 -2,-10 -3,-15 -5,-1 -11,-3 -17,-4 -4,-1 -9,-3 -13,-4 -5,-2 -10,-4 -15,-6 -3,-1 -5,-1 -7,-2 -1,-6 -1,-12 -1,-18 0,-1 0,-1 0,-1 -4,-5 -7,-10 -11,-15 -10,-1 -21,-2 -32,-4 0,-11 0,-22 -1,-33 6,-1 12,-2 17,-4 3,-4 5,-8 8,-12 0,-8 -1,-15 -1,-22 -1,0 -1,0 -2,0 -4,0 -9,-1 -13,-1 -1,-2 -2,-5 -3,-7 0,-6 1,-11 1,-16 3,-1 6,-1 9,-1 4,-1 8,-1 12,-2 2,-2 4,-5 5,-8 0,-3 0,-5 0,-8 4,-3 7,-5 10,-8 1,-9 1,-17 1,-26 -6,-4 -11,-8 -17,-12 -1,-5 -2,-9 -3,-14 2,-5 4,-10 6,-14 0,-12 0,-25 0,-37 -2,-2 -4,-5 -6,-7 -2,-1 -5,-2 -7,-3 -2,0 -4,0 -7,0 0,-10 -1,-21 -2,-31 0,-4 -1,-8 -1,-12 8,-2 15,-5 22,-7 2,-2 3,-5 4,-7 5,-3 10,-6 16,-10 1,-3 2,-6 4,-9 -1,-4 -1,-7 -2,-11 3,-2 6,-4 8,-6 3,-2 5,-5 8,-7 2,-13 3,-26 5,-39 1,-6 3,-11 5,-16 3,-7 7,-13 11,-19 0,-1 0,-1 1,-2 0,-10 1,-20 2,-30 3,-6 7,-12 10,-19 2,-3 5,-6 7,-10 6,1 13,1 19,1 3,-9 6,-18 9,-28 7,-8 14,-16 21,-25 4,-8 7,-15 10,-23 5,-2 10,-3 15,-5 2,-3 5,-5 8,-8 3,-1 7,-2 11,-4 9,3 17,5 26,8 1,0 1,0 2,0 7,-4 13,-8 20,-12 9,-1 18,-2 27,-3 7,-9 13,-19 20,-29 0,-4 0,-8 0,-12 4,-2 7,-3 11,-4 2,-6 3,-12 5,-18 9,-5 18,-10 27,-14 1,-6 2,-12 3,-18 4,-3 7,-7 10,-10 6,-2 13,-5 19,-7 0,0 1,0 1,0 7,-11 13,-22 20,-32 1,-5 2,-10 3,-15 -1,-2 -2,-4 -3,-6 -12,-2 -24,-4 -36,-6 -3,-3 -6,-6 -9,-9 -2,-4 -3,-7 -4,-11 -7,-1 -14,-3 -21,-4 -6,-3 -11,-5 -17,-8 -4,1 -9,2 -14,2 -4,3 -9,7 -13,10 -1,0 -3,1 -4,1 -3,0 -5,-1 -8,-1 0,-5 0,-10 0,-16 -3,0 -7,0 -10,0 0,-3 0,-5 0,-7 5,-5 11,-10 17,-14 1,-17 1,-33 2,-50 8,5 16,11 24,16 7,1 13,2 20,3 7,-3 13,-5 20,-7 6,3 12,5 17,7 11,1 21,2 32,3 13,0 25,1 38,2 6,1 13,3 20,5 2,0 3,0 5,0 7,-2 15,-4 23,-5 6,-4 13,-8 20,-11 2,-4 5,-8 8,-12 7,-1 14,-1 21,-2 1,-1 2,-3 3,-5 10,6 19,12 28,18 7,2 13,3 20,5 5,-2 10,-4 15,-6 6,-3 12,-6 18,-10 5,-1 10,-2 16,-3 1,-4 3,-7 4,-11 1,-4 2,-7 3,-11 0,-4 0,-8 1,-12 5,2 10,3 15,4 6,5 13,9 19,14 3,3 6,7 10,10 0,4 0,8 0,11z"/>
   <path fill="#609872" d="M742 59c11,11 22,21 34,32 4,3 8,7 13,10 0,4 1,8 1,12 2,3 4,6 6,9 3,2 7,4 11,6 3,1 6,1 10,2 4,-1 8,-2 12,-3 5,0 10,0 14,-1 2,1 4,3 6,4 -1,6 -2,13 -3,20 -2,3 -3,6 -5,9 0,3 0,5 0,8 2,3 5,5 7,8 2,3 4,6 6,9 0,11 1,23 1,35 0,0 0,0 0,1 0,2 1,5 1,7 4,2 7,3 11,4 1,2 2,4 3,6 2,5 3,10 5,15 4,1 7,2 11,2 5,1 11,2 17,3 6,1 11,2 17,3 2,4 5,8 8,11 -3,4 -6,8 -8,11 -7,5 -14,10 -20,14 -3,3 -6,6 -8,9 -3,3 -6,6 -9,10 -4,3 -8,6 -12,9 -3,2 -6,3 -10,5 -3,0 -7,0 -10,0 -4,3 -9,5 -13,8 0,4 -1,9 -2,13 1,6 2,12 3,18 -6,10 -11,20 -17,30 -5,0 -10,0 -14,0 -2,0 -4,0 -5,0 -8,2 -15,5 -22,7 -6,5 -11,10 -16,15 -1,6 -1,11 -2,16 -8,4 -16,8 -24,12 0,8 1,16 1,23 7,6 14,11 20,16 0,2 0,4 -1,6 -9,1 -19,3 -29,5 -2,10 -4,20 -5,31 -9,2 -17,4 -25,6 0,9 0,18 0,26 1,8 1,15 1,22 -5,2 -10,5 -15,7 -1,3 -2,5 -3,8 -3,7 -6,15 -8,23 -6,5 -11,10 -16,15 -7,-2 -14,-5 -21,-7 -11,-2 -21,-3 -32,-5 -15,1 -30,2 -45,3 -9,4 -18,7 -28,10 1,9 2,17 2,26 -5,5 -9,10 -14,14 -14,3 -28,6 -41,9 0,0 0,1 0,1 2,6 4,12 6,18 0,6 0,12 0,19 -2,8 -4,16 -6,25 3,2 5,5 7,8 2,12 5,24 7,35 -1,3 -3,5 -4,8 0,3 -1,6 -1,9 3,4 6,8 9,12 0,13 -1,25 -1,38 10,3 21,6 31,9 10,1 19,3 28,4 4,2 9,3 13,5 1,5 1,9 2,14 -2,3 -4,6 -5,9 -12,-1 -24,-2 -35,-2 -3,4 -6,8 -9,12 -3,-2 -6,-4 -10,-6 -6,-4 -11,-7 -17,-11 -4,3 -7,7 -11,10 -3,0 -5,0 -8,1 -2,-7 -4,-13 -6,-19 -8,-5 -15,-11 -23,-16 -4,0 -9,0 -13,1 -2,-3 -4,-5 -6,-8 -7,0 -14,1 -20,1 -6,-5 -12,-10 -18,-16 0,0 -1,0 -1,0 -3,-2 -6,-3 -8,-4 -3,0 -5,1 -8,1 1,1 1,2 1,2 2,3 4,7 6,10 -1,5 -1,9 -2,14 1,6 1,11 2,16 4,7 9,13 13,20 7,4 14,8 21,12 1,19 2,37 3,56 7,7 15,13 22,20 -1,6 -1,12 -2,18 -2,17 -4,33 -6,49 3,3 7,7 11,10 4,5 7,10 11,15 1,5 2,11 3,16 -4,7 -8,14 -13,21 -4,0 -8,0 -13,0 -7,1 -14,3 -21,5 -7,6 -15,12 -22,18 0,0 0,1 0,1 -2,9 -4,18 -7,28 -8,7 -16,15 -24,23 -5,5 -10,9 -15,14 -9,3 -18,7 -26,10 -6,8 -13,16 -19,24 -1,5 -3,10 -4,16 -1,4 -1,8 -2,12 -5,6 -10,12 -15,19 -1,8 -2,16 -4,25 -3,0 -7,1 -11,1 -6,1 -11,2 -17,2 -8,0 -17,-1 -25,-1 -12,-1 -24,-1 -36,-1 -2,-1 -5,-1 -8,-2 -2,-10 -4,-20 -6,-29 -1,-9 -2,-17 -2,-25 0,-4 1,-8 2,-12 0,-3 1,-6 1,-9 -2,-1 -3,-2 -5,-3 0,0 -1,-1 -2,-2 -3,2 -6,3 -9,5 -3,0 -6,1 -9,1 -2,-1 -4,-2 -6,-3 -2,-1 -3,-1 -5,-1 -4,1 -9,3 -13,5 -3,-1 -5,-1 -7,-1 -1,-2 -2,-5 -2,-8 0,-3 1,-6 2,-9 1,-4 2,-8 3,-12 -1,-2 -1,-5 -1,-7 -2,-5 -4,-9 -6,-14 -1,-4 -3,-7 -5,-10 -6,-5 -12,-10 -19,-15 0,-3 -1,-6 -2,-9 -3,-5 -6,-11 -10,-16 -7,1 -15,1 -22,2 -2,4 -5,8 -7,11 -9,-6 -18,-12 -27,-19 -4,-2 -8,-5 -11,-8 4,0 8,0 12,-1 2,-4 3,-8 5,-12 3,-3 5,-6 8,-10 1,-5 2,-10 3,-16 -5,-4 -10,-8 -15,-12 1,-3 3,-6 4,-9 4,-11 7,-23 11,-35 4,-5 8,-10 12,-16 8,-5 16,-11 25,-16 6,-1 12,-2 17,-4 1,4 3,7 4,10 10,0 21,0 32,0 5,-1 10,-3 15,-4 2,-3 4,-6 5,-9 1,-1 1,-1 1,-2 3,-5 5,-10 8,-15 4,-2 8,-4 13,-6 -1,-5 -2,-10 -3,-16 -5,-1 -11,-2 -17,-4 -4,-1 -8,-2 -13,-4 -5,-2 -10,-4 -15,-6 -2,0 -5,-1 -7,-2 0,-6 -1,-12 -1,-18 0,0 0,0 0,-1 -3,-5 -7,-9 -11,-14 -10,-2 -21,-3 -31,-4 -1,-11 -1,-22 -2,-33 6,-2 12,-3 17,-4 3,-4 6,-9 8,-13 0,-7 -1,-14 -1,-22 -1,0 -1,0 -2,0 -4,0 -8,0 -13,-1 -1,-2 -2,-4 -3,-7 0,-5 1,-10 1,-16 3,0 6,-1 9,-1 4,0 8,-1 12,-1 2,-3 4,-6 5,-9 0,-2 0,-5 0,-8 4,-2 7,-5 10,-7 1,-9 1,-18 1,-27 -5,-4 -11,-8 -17,-12 -1,-4 -2,-9 -3,-14 2,-4 4,-9 7,-14 -1,-12 -1,-24 -1,-37 -2,-2 -4,-4 -6,-7 -2,-1 -4,-1 -7,-2 -2,0 -4,0 -7,0 0,-11 -1,-21 -2,-32 0,-4 0,-8 -1,-12 8,-2 15,-4 23,-7 1,-2 2,-4 3,-6 5,-4 11,-7 16,-10 1,-3 3,-6 4,-10 -1,-3 -1,-7 -2,-11 3,-1 6,-3 8,-5 3,-3 6,-5 8,-8 2,-13 3,-26 5,-39 1,-5 3,-11 5,-16 3,-6 7,-13 11,-19 0,0 0,-1 1,-1 1,-10 1,-21 2,-31 3,-6 7,-12 10,-18 2,-4 5,-7 7,-11 7,1 13,1 19,2 3,-9 6,-19 9,-28 7,-9 14,-17 22,-25 3,-8 6,-16 9,-24 5,-1 10,-3 15,-4 2,-3 5,-6 8,-8 4,-2 8,-3 11,-4 9,2 18,5 26,7 1,0 1,0 2,1 7,-4 14,-8 20,-12 9,-1 18,-2 27,-3 7,-10 13,-20 20,-29 0,-4 0,-9 0,-13 4,-1 7,-3 11,-4 2,-6 3,-12 5,-18 9,-5 18,-9 27,-14 1,-6 2,-12 3,-18 4,-3 7,-6 10,-9 6,-3 13,-5 19,-8 0,0 1,0 1,0 7,-11 13,-21 20,-32 1,-5 2,-10 3,-15 -1,-1 -2,-3 -3,-5 -12,-2 -24,-4 -36,-7 -3,-2 -6,-5 -9,-8 -1,-4 -3,-8 -4,-11 -7,-2 -14,-3 -21,-5 -6,-2 -11,-5 -17,-7 -4,0 -9,1 -14,2 -4,3 -9,6 -13,9 -1,1 -3,1 -4,1 -2,0 -5,0 -8,-1 0,-5 0,-10 0,-15 -3,0 -6,-1 -10,-1 0,-2 0,-4 0,-7 6,-4 11,-9 17,-14 1,-16 1,-33 2,-50 8,6 16,11 25,16 6,1 12,2 19,3 7,-2 13,-4 20,-6 6,2 12,4 17,7 11,0 22,1 32,2 13,1 25,1 38,2 7,2 13,4 20,6 2,0 3,-1 5,-1 7,-2 15,-3 23,-5 6,-4 13,-7 20,-11 3,-4 5,-8 8,-12 7,0 14,-1 21,-1 1,-2 2,-4 4,-5 9,6 18,12 27,18 7,1 14,3 20,4 5,-2 10,-3 15,-5 6,-4 12,-7 18,-10 5,-2 10,-3 16,-4 1,-3 3,-7 4,-10 1,-4 2,-8 3,-12 0,-4 1,-7 1,-11 5,1 10,2 15,4 6,4 13,9 19,13 3,4 7,7 10,11 0,3 0,7 1,11z"/>
   <path fill="#659D76" d="M740 52c11,11 23,22 34,33 4,3 9,6 13,9 0,4 1,9 1,13 2,3 4,5 6,8 4,2 7,4 11,7 3,0 7,1 10,1 4,-1 8,-1 12,-2 5,-1 10,-1 15,-1 1,1 3,2 5,3 -1,7 -2,13 -3,20 -2,3 -3,6 -5,10 0,2 0,5 0,7 2,3 5,6 7,9 2,2 4,5 6,8 0,12 1,23 1,35 0,0 0,1 0,1 1,3 1,5 1,8 4,1 8,2 11,4 1,2 2,4 3,6 2,5 4,10 6,15 3,0 6,1 10,2 6,0 12,1 18,2 5,1 10,2 16,3 3,4 5,8 8,12 -3,4 -5,7 -8,11 -7,4 -14,9 -20,14 -3,3 -5,5 -8,8 -3,3 -6,7 -9,10 -4,3 -8,6 -11,10 -4,1 -7,3 -10,4 -4,0 -8,1 -11,1 -4,2 -8,5 -12,7 -1,5 -2,9 -3,14 1,6 2,12 3,18 -5,10 -11,19 -17,29 -5,0 -10,0 -14,0 -2,0 -4,0 -5,0 -8,3 -15,5 -22,8 -6,5 -11,10 -16,15 -1,5 -1,11 -2,16 -8,4 -16,8 -24,12 1,7 1,15 2,23 6,5 13,10 19,16 0,1 0,3 0,5 -10,2 -20,3 -30,5 -2,10 -4,21 -5,31 -9,2 -17,4 -25,7 0,8 0,17 0,26 1,7 1,14 2,21 -6,3 -11,5 -16,7 -1,3 -2,6 -3,8 -3,8 -5,16 -8,24 -6,4 -11,9 -16,14 -7,-2 -14,-4 -21,-7 -11,-1 -21,-3 -32,-4 -15,1 -30,2 -45,3 -9,3 -18,6 -28,10 1,8 2,17 2,25 -4,5 -9,10 -14,15 -14,3 -27,5 -41,8 0,1 0,1 0,2 2,6 4,11 6,17 0,6 0,13 0,19 -2,8 -4,17 -6,25 3,3 5,6 7,8 3,12 5,24 7,36 -1,2 -3,5 -4,7 0,3 0,6 -1,10 3,4 6,8 10,12 -1,12 -1,25 -2,37 11,3 21,6 31,9 10,2 19,3 28,5 5,1 9,3 13,4 1,5 1,10 2,14 -2,3 -3,6 -5,9 -12,-1 -24,-1 -35,-2 -3,4 -6,8 -8,12 -4,-2 -7,-4 -11,-6 -5,-3 -11,-7 -17,-10 -4,3 -7,6 -11,9 -2,0 -5,1 -8,1 -2,-6 -4,-12 -6,-19 -8,-5 -15,-10 -23,-16 -4,1 -9,1 -13,1 -2,-2 -4,-5 -6,-7 -7,0 -13,0 -20,0 -6,-5 -12,-10 -18,-15 0,0 -1,-1 -1,-1 -3,-1 -5,-2 -8,-4 -3,1 -5,1 -8,2 1,0 1,1 1,2 2,3 4,6 6,9 -1,5 -1,10 -2,15 1,5 1,10 2,16 4,6 9,13 13,19 7,4 14,8 21,12 1,19 2,38 3,56 8,7 15,14 22,20 -1,6 -1,13 -2,19 -2,16 -4,32 -6,48 4,4 7,7 11,10 4,5 7,10 11,15 1,6 2,11 3,17 -4,7 -8,14 -12,21 -5,0 -9,-1 -14,-1 -7,2 -14,3 -21,5 -7,6 -15,12 -22,19 0,0 0,0 0,0 -2,10 -4,19 -6,28 -9,8 -17,16 -25,23 -5,5 -10,10 -15,14 -9,4 -17,7 -26,10 -6,8 -12,16 -19,24 -1,5 -3,11 -4,16 -1,4 -1,8 -2,12 -5,6 -10,13 -15,19 -1,8 -2,17 -3,25 -4,1 -8,1 -12,1 -6,1 -11,2 -17,3 -8,-1 -17,-1 -25,-2 -12,0 -24,0 -36,-1 -2,0 -5,-1 -8,-2 -2,-9 -4,-19 -6,-29 -1,-8 -1,-16 -2,-25 1,-4 1,-7 2,-11 0,-3 1,-6 1,-9 -2,-1 -3,-2 -5,-3 0,-1 -1,-2 -1,-2 -4,1 -7,3 -10,4 -3,1 -6,1 -9,1 -2,-1 -4,-2 -6,-3 -1,0 -3,-1 -5,-1 -4,2 -9,3 -13,5 -3,0 -5,0 -7,-1 -1,-2 -1,-5 -2,-7 1,-3 1,-7 2,-10 1,-4 2,-7 3,-11 0,-3 -1,-5 -1,-8 -2,-4 -4,-9 -5,-14 -2,-3 -4,-7 -6,-10 -6,-5 -12,-9 -19,-14 0,-3 -1,-7 -1,-10 -4,-5 -7,-10 -11,-16 -7,1 -15,2 -22,2 -2,4 -5,8 -7,12 -9,-7 -18,-13 -27,-19 -4,-3 -8,-6 -11,-8 4,-1 8,-1 12,-1 2,-4 4,-8 5,-12 3,-4 5,-7 8,-11 1,-5 2,-10 3,-15 -5,-4 -10,-8 -15,-13 2,-2 3,-5 4,-8 4,-12 8,-24 11,-35 4,-6 8,-11 12,-16 8,-6 17,-11 25,-17 6,-1 12,-2 18,-3 1,3 2,6 3,9 10,0 21,0 32,0 5,-1 10,-2 15,-4 2,-3 4,-6 6,-9 0,-1 0,-1 0,-1 3,-5 5,-11 8,-16 4,-2 9,-4 13,-6 -1,-5 -2,-10 -2,-15 -6,-1 -12,-3 -17,-4 -5,-2 -9,-3 -14,-5 -5,-1 -10,-3 -15,-5 -2,-1 -5,-2 -7,-2 0,-6 -1,-12 -1,-19 0,0 0,0 0,0 -3,-5 -7,-10 -11,-15 -10,-1 -21,-2 -31,-4 -1,-11 -1,-22 -2,-33 6,-1 12,-2 18,-4 2,-4 5,-8 7,-13 0,-7 -1,-14 -1,-21 -1,0 -1,0 -1,0 -5,-1 -9,-1 -14,-1 -1,-3 -2,-5 -3,-7 0,-6 1,-11 1,-16 3,-1 6,-1 9,-2 4,0 8,0 12,-1 2,-3 4,-5 5,-8 0,-3 0,-6 0,-8 4,-3 7,-5 11,-8 0,-9 0,-18 0,-26 -5,-4 -11,-8 -16,-12 -2,-5 -3,-10 -4,-14 2,-5 4,-10 7,-14 0,-13 -1,-25 -1,-37 -2,-2 -4,-5 -6,-7 -2,-1 -4,-2 -6,-3 -3,0 -5,0 -8,0 0,-10 -1,-21 -2,-32 0,-4 0,-7 -1,-11 8,-3 15,-5 23,-7 1,-3 2,-5 3,-7 6,-3 11,-6 16,-10 1,-3 3,-6 4,-9 0,-4 -1,-8 -2,-11 3,-2 6,-4 8,-6 3,-2 6,-5 8,-7 2,-13 3,-26 5,-39 1,-6 3,-11 5,-16 4,-7 7,-13 11,-20 0,0 1,0 1,-1 1,-10 1,-20 2,-30 3,-6 7,-13 10,-19 2,-3 5,-7 7,-10 7,0 13,1 19,1 3,-9 6,-18 9,-28 7,-8 14,-17 22,-25 3,-8 6,-15 9,-23 5,-2 10,-3 15,-5 3,-3 5,-5 8,-8 4,-1 8,-3 12,-4 8,3 17,5 25,7 1,1 1,1 2,1 7,-4 14,-8 20,-12 9,-1 18,-2 27,-3 7,-9 13,-19 20,-29 0,-4 0,-8 0,-12 4,-2 8,-3 11,-5 2,-6 3,-12 5,-17 9,-5 18,-10 27,-14 1,-6 3,-12 4,-18 3,-4 6,-7 9,-10 6,-3 13,-5 19,-8 1,0 1,0 1,0 7,-10 14,-21 20,-31 1,-5 2,-10 3,-15 -1,-2 -2,-4 -3,-6 -12,-2 -24,-4 -36,-6 -3,-3 -6,-6 -9,-9 -1,-4 -3,-7 -4,-11 -7,-1 -14,-3 -21,-4 -5,-3 -11,-5 -17,-8 -4,1 -9,1 -13,2 -5,3 -9,7 -14,10 -1,0 -2,0 -4,1 -2,-1 -5,-1 -7,-1 -1,-5 -1,-11 -1,-16 -3,0 -6,0 -10,0 0,-3 0,-5 0,-7 6,-5 12,-10 17,-14 1,-17 1,-34 2,-50 8,5 16,10 25,16 6,1 13,1 19,2 7,-2 14,-4 20,-6 6,2 12,5 17,7 11,1 22,2 32,3 13,0 25,1 38,1 7,2 13,4 20,6 2,0 3,0 5,0 7,-2 15,-4 23,-6 7,-3 13,-7 20,-10 3,-4 5,-8 8,-12 7,-1 14,-1 21,-2 1,-1 2,-3 4,-5 9,6 18,12 27,18 7,2 14,3 20,5 5,-2 10,-4 15,-6 6,-3 12,-7 18,-10 5,-1 11,-2 16,-4 1,-3 3,-6 4,-10 1,-4 2,-8 3,-12 0,-3 1,-7 1,-11 5,1 10,3 15,4 6,5 13,9 19,14 4,3 7,7 10,10 0,4 0,7 1,11z"/>
   <path fill="#69A27B" d="M738 45c11,11 23,22 34,33 4,3 9,6 13,10 0,4 1,8 1,12 2,3 4,6 6,8 4,3 7,5 11,7 3,1 7,1 10,2 4,-1 8,-2 12,-3 5,0 10,-1 15,-1 1,1 3,3 5,4 -1,6 -2,13 -3,19 -2,4 -3,7 -5,10 0,3 0,5 0,8 3,3 5,5 7,8 2,3 4,6 6,8 0,12 1,24 1,36 0,0 0,0 0,1 1,2 1,5 1,7 4,2 8,3 11,4 1,2 2,4 3,6 2,5 4,10 6,15 3,1 6,1 10,2 6,1 12,2 18,3 5,1 11,2 16,3 3,4 5,7 8,11 -3,4 -5,8 -8,11 -7,5 -13,10 -20,14 -3,3 -5,6 -8,8 -3,4 -6,7 -9,10 -4,4 -7,7 -11,10 -4,2 -7,3 -10,5 -4,0 -8,0 -11,0 -4,3 -8,5 -12,8 -1,4 -2,9 -3,13 1,6 2,12 3,18 -5,10 -11,20 -17,29 -5,0 -9,0 -14,0 -2,0 -3,0 -5,0 -7,3 -15,6 -22,8 -6,5 -11,10 -16,15 -1,6 -1,11 -2,16 -8,4 -16,8 -24,12 1,8 1,16 2,23 6,6 13,11 19,16 0,2 0,4 0,5 -10,2 -20,4 -30,5 -2,11 -3,21 -5,32 -8,2 -17,4 -25,6 0,9 0,17 0,26 1,7 1,15 2,22 -6,2 -11,4 -16,7 -1,2 -2,5 -3,8 -3,7 -5,15 -8,23 -5,5 -11,10 -16,15 -7,-3 -14,-5 -21,-7 -11,-2 -21,-3 -32,-5 -15,1 -30,2 -44,3 -10,4 -19,7 -28,10 0,8 1,17 1,25 -4,5 -9,10 -14,15 -14,3 -27,6 -41,8 0,1 0,2 1,2 1,6 3,12 5,18 0,6 0,12 0,19 -2,8 -4,16 -5,24 2,3 4,6 7,9 2,12 4,23 6,35 -1,3 -3,5 -4,7 0,4 0,7 0,10 3,4 6,8 9,12 -1,13 -1,25 -2,38 11,3 21,6 31,9 10,1 19,3 28,4 5,2 9,3 13,5 1,4 1,9 2,14 -2,3 -3,6 -5,8 -12,0 -24,-1 -35,-2 -3,5 -6,9 -8,13 -4,-2 -7,-4 -11,-7 -5,-3 -11,-6 -17,-10 -3,3 -7,6 -11,10 -2,0 -5,0 -8,0 -2,-6 -4,-12 -6,-18 -8,-6 -15,-11 -22,-16 -5,0 -9,0 -14,1 -2,-3 -4,-6 -6,-8 -6,0 -13,0 -20,1 -6,-6 -12,-11 -17,-16 -1,0 -2,0 -2,-1 -3,-1 -5,-2 -8,-3 -2,0 -5,1 -7,1 0,1 0,1 0,2 2,3 4,6 6,10 -1,4 -1,9 -1,14 0,5 0,11 1,16 4,7 9,13 13,20 7,4 14,8 21,12 1,19 2,37 3,56 8,7 15,13 22,20 -1,6 -1,12 -2,18 -2,16 -4,33 -6,49 4,3 7,6 11,10 4,5 8,10 11,14 1,6 2,11 3,17 -4,7 -8,14 -12,21 -5,0 -9,0 -14,0 -7,1 -14,3 -21,5 -7,6 -15,12 -22,18 0,0 0,0 0,1 -2,9 -4,18 -6,28 -8,7 -17,15 -25,23 -5,4 -10,9 -15,14 -9,3 -17,6 -26,10 -6,8 -12,16 -18,23 -2,6 -4,11 -5,16 -1,4 -1,8 -2,12 -5,7 -10,13 -15,20 -1,8 -2,16 -3,25 -4,0 -8,0 -12,1 -6,1 -11,1 -16,2 -9,0 -18,-1 -26,-2 -12,0 -24,0 -36,0 -2,-1 -5,-2 -7,-2 -3,-10 -5,-20 -7,-29 -1,-9 -1,-17 -2,-25 1,-4 1,-8 2,-12 1,-3 1,-6 1,-9 -1,-1 -3,-2 -4,-3 -1,-1 -2,-1 -2,-2 -3,2 -7,3 -10,5 -3,0 -6,0 -9,1 -2,-1 -4,-2 -6,-3 -1,-1 -3,-1 -5,-2 -4,2 -9,4 -13,6 -2,-1 -5,-1 -7,-1 -1,-3 -1,-5 -2,-8 1,-3 1,-6 2,-9 1,-4 2,-8 3,-12 0,-2 -1,-5 -1,-7 -2,-5 -4,-10 -5,-14 -2,-4 -4,-7 -5,-11 -7,-4 -13,-9 -20,-14 0,-3 -1,-6 -1,-9 -4,-6 -7,-11 -11,-16 -7,1 -14,1 -22,2 -2,4 -4,7 -7,11 -9,-6 -18,-13 -27,-19 -4,-3 -7,-5 -11,-8 4,0 8,-1 13,-1 1,-4 3,-8 4,-12 3,-3 6,-7 8,-10 1,-5 2,-11 3,-16 -5,-4 -10,-8 -15,-12 2,-3 3,-6 4,-9 4,-12 8,-23 11,-35 4,-5 8,-11 12,-16 8,-6 17,-11 25,-16 6,-2 12,-3 18,-4 1,3 2,7 3,10 10,0 21,0 32,0 5,-1 10,-3 15,-4 2,-3 4,-6 6,-10 0,0 0,-1 0,-1 3,-5 6,-10 8,-15 4,-2 9,-4 13,-6 -1,-6 -2,-11 -2,-16 -6,-1 -12,-2 -17,-4 -5,-1 -9,-3 -14,-4 -5,-2 -10,-4 -15,-6 -2,-1 -5,-1 -7,-2 0,-6 0,-12 -1,-18 0,0 0,-1 0,-1 -3,-5 -7,-10 -10,-14 -11,-2 -22,-3 -32,-4 -1,-11 -1,-22 -2,-33 6,-2 12,-3 18,-4 2,-5 5,-9 7,-13 0,-7 -1,-15 -1,-22 0,0 -1,0 -1,0 -5,0 -9,0 -14,-1 -1,-2 -2,-5 -3,-7 1,-5 1,-11 1,-16 3,0 6,-1 9,-1 4,-1 8,-1 12,-1 2,-3 4,-6 6,-9 0,-2 0,-5 0,-8 3,-2 6,-5 10,-8 0,-8 0,-17 0,-26 -5,-4 -11,-8 -16,-12 -2,-5 -3,-9 -4,-14 2,-5 5,-9 7,-14 0,-12 0,-24 -1,-37 -2,-2 -4,-4 -6,-7 -2,-1 -4,-2 -6,-2 -3,0 -5,0 -7,0 -1,-11 -2,-22 -2,-32 -1,-4 -1,-8 -2,-12 8,-2 15,-5 23,-7 1,-2 2,-4 4,-7 5,-3 10,-6 15,-9 1,-3 3,-7 4,-10 0,-3 -1,-7 -2,-11 3,-2 6,-3 9,-5 2,-3 5,-5 7,-8 2,-13 3,-26 5,-39 2,-5 3,-11 5,-16 4,-6 7,-13 11,-19 0,-1 1,-1 1,-1 1,-11 2,-21 2,-31 4,-6 7,-12 10,-18 3,-4 5,-7 8,-11 6,1 12,1 18,2 3,-10 6,-19 9,-28 7,-9 15,-17 22,-26 3,-7 6,-15 9,-23 5,-1 10,-3 15,-5 3,-2 5,-5 8,-7 4,-2 8,-3 12,-4 8,2 17,4 25,7 1,0 2,0 2,0 7,-4 14,-8 21,-12 9,0 17,-1 26,-2 7,-10 14,-20 20,-30 0,-4 0,-8 0,-12 4,-1 8,-3 12,-4 1,-6 2,-12 4,-18 9,-5 18,-9 28,-14 1,-6 2,-12 3,-18 3,-3 6,-6 9,-10 7,-2 13,-5 19,-7 1,0 1,0 1,0 7,-11 14,-21 20,-32 1,-5 2,-10 4,-15 -2,-2 -3,-3 -4,-5 -12,-2 -24,-5 -36,-7 -3,-3 -6,-6 -9,-9 -1,-3 -2,-7 -4,-11 -7,-1 -14,-2 -21,-4 -5,-2 -11,-5 -16,-8 -5,1 -10,2 -14,3 -5,3 -9,6 -14,9 -1,0 -2,1 -4,1 -2,0 -5,-1 -7,-1 0,-5 -1,-10 -1,-15 -3,-1 -6,-1 -9,-1 -1,-2 -1,-5 -1,-7 6,-5 12,-9 18,-14 0,-17 1,-33 1,-50 8,6 17,11 25,16 6,1 13,2 19,3 7,-2 14,-4 21,-7 5,3 11,5 17,7 10,1 21,2 31,3 13,1 25,1 38,2 7,2 14,4 20,6 2,-1 3,-1 5,-1 8,-2 15,-4 23,-5 7,-4 13,-7 20,-11 3,-4 5,-8 8,-12 7,0 14,-1 21,-1 1,-2 2,-4 4,-5 9,6 18,11 27,17 7,2 14,3 21,5 4,-2 9,-4 14,-5 6,-4 12,-7 18,-10 5,-2 11,-3 16,-4 1,-4 3,-7 4,-10 1,-4 2,-8 3,-12 0,-4 1,-8 1,-11 5,1 10,2 15,3 7,5 13,10 20,14 3,4 6,7 9,11 0,3 1,7 1,10z"/>
  </g>
  <polygon fill="#6DA77F" points="736,39 770,71 783,81 784,94 790,102 801,108 811,110 823,108 838,106 843,110 840,130 835,140 835,147 842,155 848,164 849,199 849,200 850,208 861,212 864,217 870,232 880,234 898,237 914,240 922,252 914,263 894,277 886,285 877,295 866,305 856,309 845,310 833,317 830,331 834,349 816,378 802,378 797,378 775,386 759,401 758,417 733,429 735,452 754,468 754,473 724,478 719,509 694,515 694,542 696,563 680,570 677,578 669,601 653,616 632,609 600,605 556,608 528,617 529,643 515,658 474,666 475,668 480,685 480,704 475,729 482,737 488,773 484,780 484,789 493,801 491,839 523,848 551,852 563,857 565,871 560,880 525,878 517,890 506,884 489,874 478,883 470,884 464,865 442,849 428,850 422,842 402,843 385,828 383,827 375,823 368,824 368,826 374,836 373,850 374,867 388,886 408,898 412,954 433,974 431,993 425,1041 436,1051 447,1066 450,1082 438,1104 424,1103 403,1108 381,1126 381,1127 375,1155 350,1178 335,1192 309,1202 291,1226 286,1242 284,1254 269,1273 266,1298 254,1299 238,1302 212,1300 177,1299 169,1297 162,1268 160,1243 162,1231 163,1223 159,1219 157,1218 147,1222 138,1223 132,1220 127,1219 114,1224 107,1223 105,1216 107,1206 110,1195 109,1187 104,1173 99,1163 80,1149 78,1139 68,1123 45,1125 38,1137 11,1117 0,1109 13,1109 17,1097 25,1086 29,1070 14,1058 17,1049 29,1014 40,998 65,982 83,979 86,988 118,988 133,984 139,975 140,973 147,958 160,952 158,937 141,933 127,928 112,923 105,921 104,902 104,902 94,887 62,883 61,850 78,846 85,833 84,812 83,812 70,811 66,803 68,788 76,786 89,785 94,777 94,768 104,761 104,735 88,722 84,709 91,694 91,658 84,651 78,648 71,648 69,616 68,605 90,598 94,591 109,581 113,572 112,561 120,555 127,547 132,508 137,492 148,473 149,472 151,442 161,423 169,413 187,414 196,386 218,361 228,338 242,333 250,325 262,321 287,328 289,329 310,317 337,314 356,285 356,273 368,268 372,250 400,236 403,218 412,209 431,201 433,201 452,170 456,155 452,149 416,143 407,134 403,123 382,119 366,111 352,113 338,123 335,123 327,123 326,107 317,106 316,99 334,85 335,36 360,52 379,54 400,48 417,55 448,57 486,59 506,65 511,64 534,59 554,48 562,36 583,35 587,30 614,48 635,52 649,47 667,37 683,33 687,23 690,11 691,0 706,4 726,18 735,28 "/>
 </g>
</svg>
