<?xml version="1.0" encoding="UTF-8"?>
<!DOCTYPE svg PUBLIC "-//W3C//DTD SVG 1.1//EN" "http://www.w3.org/Graphics/SVG/1.1/DTD/svg11.dtd">
<!-- Creator: CorelDRAW X8 -->
<svg xmlns="http://www.w3.org/2000/svg" xml:space="preserve" width="100%" height="100%" version="1.1" shape-rendering="geometricPrecision" text-rendering="geometricPrecision" image-rendering="optimizeQuality" fill-rule="evenodd" clip-rule="evenodd"
viewBox="0 0 921 1071"
 xmlns:xlink="http://www.w3.org/1999/xlink">
 <g id="Layer_x0020_1">
  <metadata id="CorelCorpID_0Corel-Layer"/>
  <polygon fill="#143D21" points="835,354 841,463 841,463 839,517 865,561 873,593 852,635 834,673 834,673 842,712 823,772 819,781 808,808 761,813 735,842 676,925 672,932 660,920 648,909 642,897 633,887 621,875 619,860 623,849 633,846 641,834 636,816 619,809 601,809 586,812 577,825 574,837 565,849 558,861 541,886 526,889 512,895 502,901 477,905 457,902 445,897 429,892 420,891 413,891 391,891 374,889 361,875 350,868 336,868 322,873 304,878 282,883 262,882 260,882 238,882 222,893 213,903 211,919 216,935 223,951 217,962 199,974 187,989 181,1006 168,1032 165,1045 153,1062 136,1071 114,1070 96,1068 85,1063 73,1052 62,1044 56,1045 56,1040 64,1028 75,1018 76,1006 73,983 64,968 50,954 31,944 13,938 4,930 0,920 0,898 14,882 34,866 62,851 84,840 94,832 102,826 111,806 128,781 137,762 148,743 163,729 176,717 191,718 208,723 220,734 231,747 244,747 260,739 274,729 292,722 299,720 306,716 314,706 318,690 317,673 316,593 321,577 328,551 344,530 359,502 376,490 389,474 397,456 403,436 405,419 413,409 421,404 431,404 437,411 441,417 444,422 459,422 460,422 469,416 478,408 485,397 494,390 492,381 486,370 488,358 502,341 521,326 539,315 563,302 587,291 609,280 629,272 632,271 648,264 665,253 678,244 688,237 693,231 703,216 712,200 731,183 744,172 766,167 791,160 818,150 839,138 863,124 877,112 882,126 886,149 888,166 888,183 893,198 900,213 903,232 908,251 914,270 917,284 921,303 908,312 856,312 839,326 "/>
  <g id="_348173938080">
   <path fill="#184225" d="M835 349c2,36 4,72 6,108 0,0 0,0 0,1 -1,18 -1,36 -2,54 9,14 18,29 26,43 3,11 5,22 8,33 -7,14 -14,27 -21,41 -6,13 -12,26 -18,38 0,1 0,1 0,1 3,13 5,26 8,39 -6,20 -13,40 -19,60 -1,3 -3,6 -4,9 -3,9 -7,18 -11,27 -16,2 -31,3 -47,5 -9,9 -17,19 -26,29 -20,27 -40,55 -59,82 -2,3 -3,5 -4,7 -4,-4 -8,-8 -12,-12 -4,-3 -8,-7 -12,-11 -2,-4 -4,-7 -6,-11 -3,-4 -6,-7 -9,-11 -4,-4 -8,-8 -12,-11 -1,-5 -1,-10 -2,-15 1,-4 3,-8 4,-12 3,-1 7,-2 10,-2 3,-4 5,-8 8,-12 -2,-6 -3,-12 -5,-19 -6,-2 -11,-4 -17,-6 -6,0 -12,0 -18,0 -5,1 -10,2 -15,3 -3,4 -6,9 -9,13 -1,4 -2,8 -3,12 -3,4 -6,8 -9,12 -2,4 -5,8 -7,12 -6,8 -11,16 -17,24 -5,1 -10,3 -15,4 -4,2 -9,3 -14,5 -3,2 -6,4 -10,6 -8,2 -16,3 -25,4 -7,-1 -13,-2 -20,-3 -4,-1 -8,-3 -12,-4 -5,-2 -10,-4 -16,-6 -3,0 -6,0 -9,0 -3,0 -5,0 -7,0 -7,0 -15,0 -22,0 -5,-1 -11,-2 -17,-2 -4,-5 -9,-10 -13,-14 -4,-3 -8,-5 -11,-7 -5,0 -10,0 -14,0 -5,1 -10,3 -14,5 -6,1 -12,3 -18,4 -8,2 -15,4 -22,6 -7,-1 -13,-1 -20,-1 -1,0 -1,0 -2,0 -7,0 -15,0 -22,0 -5,3 -11,7 -16,10 -3,4 -6,7 -9,10 -1,6 -1,11 -2,16 2,6 4,12 5,17 3,5 5,11 7,16 -2,4 -4,7 -6,10 -6,5 -12,9 -18,13 -4,5 -8,10 -12,14 -2,6 -4,12 -6,18 -4,9 -9,17 -13,26 -1,4 -2,9 -3,13 -4,6 -8,11 -12,17 -5,3 -11,6 -17,9 -8,-1 -15,-1 -22,-1 -6,-1 -12,-1 -18,-2 -4,-2 -7,-4 -11,-5 -4,-4 -8,-7 -12,-11 -4,-3 -7,-5 -11,-8 -2,0 -4,0 -6,0 0,-1 0,-3 0,-4 2,-4 5,-9 8,-13 3,-3 7,-6 11,-10 0,-3 0,-7 1,-11 -1,-8 -2,-15 -3,-23 -3,-5 -6,-10 -9,-15 -5,-5 -10,-10 -14,-15 -7,-3 -13,-6 -19,-9 -6,-2 -12,-4 -18,-7 -3,-2 -6,-5 -9,-7 -2,-4 -3,-7 -4,-11 0,-7 0,-14 0,-21 5,-6 9,-11 14,-16 6,-6 13,-11 20,-16 9,-5 18,-10 28,-15 7,-4 14,-8 22,-12 3,-2 7,-5 10,-8 3,-1 6,-3 8,-5 3,-7 6,-14 9,-20 5,-9 11,-17 17,-25 3,-6 6,-13 9,-19 4,-6 7,-13 11,-19 5,-5 10,-10 15,-15 5,-4 9,-7 13,-11 5,0 10,1 15,1 6,2 12,3 17,5 4,4 8,7 12,11 4,4 8,9 11,13 5,0 9,0 13,0 5,-3 11,-5 16,-8 5,-3 9,-7 14,-10 6,-2 12,-5 18,-7 2,-1 4,-2 7,-3 2,-1 5,-2 7,-3 3,-4 5,-7 8,-11 1,-5 2,-10 4,-16 0,-5 -1,-11 -1,-16 0,-27 -1,-54 -1,-80 2,-6 3,-11 5,-16 2,-9 5,-18 7,-27 5,-7 11,-13 16,-20 5,-10 10,-19 15,-28 5,-4 11,-8 17,-12 4,-6 8,-11 13,-16 2,-6 5,-12 8,-18 2,-7 4,-13 6,-20 0,-6 1,-11 2,-17 3,-3 5,-7 8,-10 3,-2 6,-3 8,-5 4,0 7,0 10,0 2,2 4,5 6,7 1,2 3,4 4,6 1,2 2,3 3,5 5,0 10,0 15,0 0,0 1,0 1,0 3,-2 6,-5 9,-7 3,-2 6,-5 9,-8 3,-3 5,-7 7,-10 3,-2 6,-5 9,-7 0,-3 -1,-6 -2,-9 -2,-4 -4,-7 -6,-11 1,-4 1,-8 2,-12 5,-6 9,-11 14,-17 7,-5 13,-10 19,-15 6,-4 12,-8 18,-12 8,-4 16,-8 24,-12 8,-4 16,-8 24,-12 7,-3 15,-7 22,-10 7,-3 13,-6 20,-8 1,-1 2,-1 3,-1 5,-3 10,-5 16,-7 5,-4 11,-8 17,-12 4,-3 8,-6 13,-9 3,-2 7,-4 10,-7 2,-2 3,-4 5,-6 3,-5 7,-9 10,-14 3,-6 6,-11 9,-16 6,-6 13,-11 19,-17 4,-4 9,-8 13,-11 8,-2 15,-3 22,-5 9,-2 17,-5 25,-7 9,-3 18,-7 27,-10 7,-4 14,-8 21,-12 8,-5 16,-9 24,-14 5,-4 9,-8 14,-12 2,5 4,9 5,14 1,8 3,15 4,23 1,5 1,11 2,17 0,5 0,11 0,17 2,5 3,10 5,14 2,5 5,11 7,16 1,6 2,12 3,19 2,6 3,12 5,18 2,7 4,13 6,20 1,4 2,9 3,13 1,7 3,13 4,20 -4,3 -9,6 -13,9 -17,0 -35,0 -52,0 -6,5 -11,9 -17,14 -1,9 -3,18 -4,28z"/>
   <path fill="#1C472A" d="M835 343c2,37 4,73 6,109 0,0 0,0 0,0 -1,18 -1,36 -2,54 9,15 18,29 26,44 3,11 5,21 8,32 -7,14 -14,28 -21,42 -6,13 -12,25 -18,38 0,0 0,0 0,0 3,13 5,26 8,39 -6,20 -13,40 -19,61 -1,3 -3,5 -4,8 -3,9 -7,19 -11,28 -16,1 -31,3 -47,4 -9,10 -17,20 -26,29 -20,28 -40,55 -59,83 -2,2 -3,5 -4,7 -4,-4 -8,-8 -12,-12 -4,-4 -8,-7 -12,-11 -2,-4 -4,-8 -6,-12 -3,-3 -6,-7 -9,-10 -4,-4 -8,-8 -12,-12 -1,-5 -1,-10 -2,-15 1,-4 3,-7 4,-11 3,-1 7,-2 10,-3 3,-4 5,-8 8,-12 -2,-6 -3,-12 -5,-18 -6,-2 -11,-4 -17,-6 -6,-1 -12,-1 -18,-1 -5,1 -10,2 -15,3 -3,5 -6,9 -9,14 -1,3 -2,7 -3,11 -3,4 -6,8 -9,12 -2,4 -5,8 -7,12 -6,8 -11,17 -17,25 -5,1 -10,2 -15,3 -4,2 -9,4 -14,6 -3,2 -6,4 -10,6 -8,1 -16,3 -25,4 -7,-1 -13,-2 -20,-3 -4,-2 -8,-3 -12,-5 -5,-1 -10,-3 -16,-5 -3,0 -6,0 -9,0 -3,0 -5,-1 -7,-1 -7,0 -15,0 -22,0 -5,0 -11,-1 -17,-2 -4,-4 -9,-9 -13,-14 -4,-2 -8,-4 -11,-7 -5,0 -10,0 -14,0 -5,2 -10,4 -14,5 -6,2 -12,4 -18,5 -8,2 -15,4 -22,5 -7,0 -13,0 -20,-1 -1,0 -1,0 -2,0 -7,0 -15,0 -22,0 -5,4 -11,8 -16,11 -3,3 -6,7 -9,10 -1,5 -1,11 -2,16 2,6 4,11 5,17 3,5 5,10 7,16 -2,3 -4,7 -6,10 -6,4 -12,9 -18,13 -4,4 -8,9 -12,14 -2,6 -4,12 -6,18 -4,8 -9,17 -13,25 -1,5 -2,9 -3,14 -4,5 -8,11 -12,17 -5,2 -11,5 -17,8 -8,0 -15,0 -22,-1 -6,0 -12,-1 -18,-1 -4,-2 -7,-4 -11,-6 -4,-3 -8,-7 -12,-10 -4,-3 -7,-6 -11,-8 -2,0 -4,0 -6,0 0,-1 0,-3 0,-5 2,-4 5,-8 8,-12 3,-3 7,-7 11,-10 0,-4 0,-8 1,-11 -1,-8 -2,-16 -3,-23 -3,-5 -6,-10 -9,-15 -5,-5 -10,-10 -14,-15 -7,-3 -13,-6 -19,-9 -6,-2 -12,-5 -18,-7 -3,-3 -6,-5 -9,-8 -2,-3 -3,-7 -4,-10 0,-7 0,-15 0,-22 5,-5 9,-10 14,-16 6,-5 13,-10 20,-16 9,-5 18,-10 28,-15 7,-3 14,-7 22,-11 3,-3 7,-5 10,-8 3,-2 6,-4 8,-6 3,-6 6,-13 9,-20 5,-8 11,-16 17,-25 3,-6 6,-12 9,-18 4,-7 7,-13 11,-20 5,-4 10,-9 15,-14 5,-4 9,-8 13,-11 5,0 10,0 15,1 6,1 12,3 17,5 4,3 8,7 12,10 4,5 8,9 11,14 5,0 9,0 13,0 5,-3 11,-6 16,-8 5,-4 9,-7 14,-10 6,-3 12,-5 18,-7 2,-1 4,-2 7,-3 2,-1 5,-2 7,-3 3,-4 5,-8 8,-11 1,-5 2,-11 4,-16 0,-6 -1,-11 -1,-17 0,-26 -1,-53 -1,-80 2,-5 3,-10 5,-16 2,-9 5,-17 7,-26 5,-7 11,-14 16,-21 5,-9 10,-18 15,-28 5,-4 11,-8 17,-12 4,-5 8,-10 13,-15 2,-6 5,-12 8,-18 2,-7 4,-14 6,-21 0,-5 1,-11 2,-16 3,-4 5,-7 8,-10 3,-2 6,-4 8,-5 4,0 7,0 10,0 2,2 4,4 6,7 1,2 3,4 4,6 1,1 2,3 3,4 5,0 10,0 15,0 0,0 1,0 1,0 3,-2 6,-4 9,-6 3,-3 6,-6 9,-8 3,-4 5,-7 7,-10 3,-3 6,-5 9,-7 0,-3 -1,-6 -2,-9 -2,-4 -4,-8 -6,-11 1,-4 1,-8 2,-12 5,-6 9,-12 14,-17 7,-5 13,-10 19,-15 6,-4 12,-8 18,-12 8,-4 16,-8 24,-12 8,-4 16,-8 24,-12 7,-4 15,-7 22,-11 7,-2 13,-5 20,-8 1,0 2,0 3,-1 5,-2 10,-4 16,-7 5,-3 11,-7 17,-11 4,-3 8,-6 13,-9 3,-2 7,-5 10,-7 2,-2 3,-4 5,-6 3,-5 7,-10 10,-15 3,-5 6,-10 9,-16 6,-5 13,-11 19,-16 4,-4 9,-8 13,-12 8,-1 15,-3 22,-4 9,-3 17,-5 25,-7 9,-4 18,-7 27,-10 7,-4 14,-8 21,-12 8,-5 16,-10 24,-15 5,-3 9,-7 14,-11 2,4 4,9 5,14 1,7 3,15 4,22 1,6 1,12 2,17 0,6 0,12 0,18 2,4 3,9 5,14 2,5 5,10 7,15 1,7 2,13 3,19 2,7 3,13 5,19 2,7 4,13 6,19 1,5 2,9 3,14 1,6 3,13 4,19 -4,3 -9,7 -13,10 -17,0 -35,0 -52,0 -6,4 -11,9 -17,13 -1,10 -3,19 -4,28z"/>
   <path fill="#214C2E" d="M835 338c2,36 4,72 6,108 0,1 0,1 0,1 -1,18 -1,36 -2,54 9,14 18,29 26,43 3,11 5,22 8,33 -7,14 -14,28 -21,42 -6,12 -12,25 -18,38 0,0 0,0 0,0 3,13 5,26 8,39 -6,20 -13,40 -19,60 -1,3 -3,6 -4,9 -3,9 -7,18 -11,27 -16,2 -31,3 -47,5 -9,10 -17,19 -26,29 -20,28 -40,55 -59,83 -2,2 -3,4 -4,7 -4,-4 -8,-8 -12,-13 -4,-3 -8,-7 -12,-10 -2,-4 -4,-8 -6,-12 -3,-4 -6,-7 -9,-10 -4,-4 -8,-8 -12,-12 -1,-5 -1,-10 -2,-15 1,-4 3,-8 4,-11 3,-1 7,-2 10,-3 3,-4 5,-8 8,-12 -2,-6 -3,-12 -5,-18 -6,-2 -11,-5 -17,-7 -6,0 -12,0 -18,0 -5,1 -10,2 -15,3 -3,4 -6,9 -9,13 -1,4 -2,8 -3,12 -3,4 -6,8 -9,12 -2,4 -5,8 -7,12 -6,8 -11,16 -17,25 -5,1 -10,2 -15,3 -4,2 -9,4 -14,6 -3,2 -6,4 -10,6 -8,1 -16,2 -25,3 -7,0 -13,-1 -20,-2 -4,-2 -8,-4 -12,-5 -5,-2 -10,-4 -16,-5 -3,0 -6,-1 -9,-1 -3,0 -5,0 -7,0 -7,0 -15,0 -22,0 -5,-1 -11,-1 -17,-2 -4,-5 -9,-9 -13,-14 -4,-2 -8,-5 -11,-7 -5,0 -10,0 -14,0 -5,2 -10,3 -14,5 -6,2 -12,3 -18,5 -8,1 -15,3 -22,5 -7,0 -13,-1 -20,-1 -1,0 -1,0 -2,0 -7,0 -15,0 -22,0 -5,4 -11,7 -16,11 -3,3 -6,6 -9,10 -1,5 -1,10 -2,16 2,5 4,11 5,16 3,6 5,11 7,16 -2,4 -4,7 -6,11 -6,4 -12,8 -18,12 -4,5 -8,10 -12,15 -2,5 -4,11 -6,17 -4,9 -9,17 -13,26 -1,4 -2,9 -3,13 -4,6 -8,12 -12,17 -5,3 -11,6 -17,9 -8,0 -15,-1 -22,-1 -6,-1 -12,-1 -18,-2 -4,-2 -7,-3 -11,-5 -4,-4 -8,-7 -12,-11 -4,-2 -7,-5 -11,-8 -2,0 -4,1 -6,1 0,-2 0,-3 0,-5 2,-4 5,-8 8,-13 3,-3 7,-6 11,-9 0,-4 0,-8 1,-12 -1,-7 -2,-15 -3,-23 -3,-5 -6,-10 -9,-15 -5,-5 -10,-9 -14,-14 -7,-3 -13,-6 -19,-10 -6,-2 -12,-4 -18,-6 -3,-3 -6,-6 -9,-8 -2,-4 -3,-7 -4,-11 0,-7 0,-14 0,-21 5,-5 9,-11 14,-16 6,-5 13,-11 20,-16 9,-5 18,-10 28,-15 7,-4 14,-8 22,-11 3,-3 7,-6 10,-8 3,-2 6,-4 8,-6 3,-7 6,-13 9,-20 5,-8 11,-17 17,-25 3,-6 6,-12 9,-19 4,-6 7,-13 11,-19 5,-5 10,-10 15,-15 5,-3 9,-7 13,-11 5,1 10,1 15,1 6,2 12,4 17,5 4,4 8,8 12,11 4,5 8,9 11,13 5,0 9,0 13,0 5,-2 11,-5 16,-8 5,-3 9,-6 14,-10 6,-2 12,-4 18,-7 2,-1 4,-2 7,-2 2,-2 5,-3 7,-4 3,-3 5,-7 8,-11 1,-5 2,-10 4,-15 0,-6 -1,-11 -1,-17 0,-27 -1,-53 -1,-80 2,-5 3,-11 5,-16 2,-9 5,-18 7,-26 5,-7 11,-14 16,-21 5,-9 10,-19 15,-28 5,-4 11,-8 17,-12 4,-5 8,-11 13,-16 2,-6 5,-12 8,-18 2,-6 4,-13 6,-20 0,-6 1,-11 2,-17 3,-3 5,-6 8,-10 3,-1 6,-3 8,-5 4,0 7,0 10,0 2,3 4,5 6,7 1,2 3,4 4,6 1,2 2,4 3,5 5,0 10,0 15,0 0,0 1,0 1,0 3,-2 6,-4 9,-7 3,-2 6,-5 9,-8 3,-3 5,-6 7,-10 3,-2 6,-4 9,-7 0,-3 -1,-6 -2,-9 -2,-3 -4,-7 -6,-11 1,-4 1,-8 2,-12 5,-5 9,-11 14,-17 7,-5 13,-10 19,-15 6,-4 12,-7 18,-11 8,-4 16,-9 24,-13 8,-4 16,-7 24,-11 7,-4 15,-8 22,-11 7,-3 13,-5 20,-8 1,0 2,-1 3,-1 5,-2 10,-5 16,-7 5,-4 11,-8 17,-11 4,-3 8,-6 13,-9 3,-3 7,-5 10,-7 2,-2 3,-4 5,-6 3,-5 7,-10 10,-15 3,-5 6,-11 9,-16 6,-6 13,-11 19,-17 4,-4 9,-7 13,-11 8,-2 15,-3 22,-5 9,-2 17,-4 25,-7 9,-3 18,-6 27,-10 7,-4 14,-8 21,-12 8,-5 16,-9 24,-14 5,-4 9,-8 14,-12 2,5 4,10 5,14 1,8 3,15 4,23 1,6 1,11 2,17 0,6 0,11 0,17 2,5 3,10 5,15 2,5 5,10 7,15 1,6 2,13 3,19 2,6 3,13 5,19 2,6 4,13 6,19 1,5 2,9 3,14 1,6 3,12 4,19 -4,3 -9,6 -13,9 -17,0 -35,0 -52,0 -6,5 -11,9 -17,14 -1,9 -3,19 -4,28z"/>
   <path fill="#255133" d="M835 333c2,36 4,72 6,108 0,0 0,0 0,1 -1,18 -1,36 -2,53 9,15 18,30 26,44 3,11 5,22 8,33 -7,13 -14,27 -21,41 -6,13 -12,26 -18,38 0,0 0,1 0,1 3,13 5,26 8,39 -6,20 -13,40 -19,60 -1,3 -3,6 -4,9 -3,9 -7,18 -11,27 -16,1 -31,3 -47,5 -9,9 -17,19 -26,29 -20,27 -40,55 -59,82 -2,3 -3,5 -4,7 -4,-4 -8,-8 -12,-12 -4,-3 -8,-7 -12,-11 -2,-4 -4,-8 -6,-11 -3,-4 -6,-7 -9,-11 -4,-4 -8,-8 -12,-11 -1,-5 -1,-10 -2,-15 1,-4 3,-8 4,-12 3,-1 7,-2 10,-3 3,-3 5,-7 8,-11 -2,-6 -3,-12 -5,-19 -6,-2 -11,-4 -17,-6 -6,0 -12,0 -18,-1 -5,2 -10,3 -15,4 -3,4 -6,8 -9,13 -1,4 -2,8 -3,12 -3,4 -6,8 -9,12 -2,4 -5,8 -7,11 -6,9 -11,17 -17,25 -5,1 -10,3 -15,4 -4,2 -9,3 -14,5 -3,2 -6,4 -10,6 -8,2 -16,3 -25,4 -7,-1 -13,-2 -20,-3 -4,-1 -8,-3 -12,-4 -5,-2 -10,-4 -16,-6 -3,0 -6,0 -9,0 -3,0 -5,0 -7,-1 -7,0 -15,0 -22,0 -5,0 -11,-1 -17,-1 -4,-5 -9,-10 -13,-14 -4,-3 -8,-5 -11,-8 -5,0 -10,0 -14,0 -5,2 -10,4 -14,6 -6,1 -12,3 -18,4 -8,2 -15,4 -22,6 -7,-1 -13,-1 -20,-1 -1,0 -1,0 -2,0 -7,0 -15,0 -22,0 -5,3 -11,7 -16,10 -3,4 -6,7 -9,10 -1,6 -1,11 -2,16 2,6 4,11 5,17 3,5 5,11 7,16 -2,3 -4,7 -6,10 -6,5 -12,9 -18,13 -4,5 -8,9 -12,14 -2,6 -4,12 -6,18 -4,9 -9,17 -13,26 -1,4 -2,8 -3,13 -4,6 -8,11 -12,17 -5,3 -11,6 -17,9 -8,-1 -15,-1 -22,-1 -6,-1 -12,-1 -18,-2 -4,-2 -7,-4 -11,-5 -4,-4 -8,-7 -12,-11 -4,-3 -7,-5 -11,-8 -2,0 -4,0 -6,0 0,-1 0,-3 0,-4 2,-4 5,-9 8,-13 3,-3 7,-6 11,-10 0,-4 0,-7 1,-11 -1,-8 -2,-15 -3,-23 -3,-5 -6,-10 -9,-15 -5,-5 -10,-10 -14,-15 -7,-3 -13,-6 -19,-9 -6,-2 -12,-4 -18,-7 -3,-2 -6,-5 -9,-8 -2,-3 -3,-6 -4,-10 0,-7 0,-14 0,-21 5,-6 9,-11 14,-16 6,-6 13,-11 20,-16 9,-5 18,-10 28,-15 7,-4 14,-8 22,-12 3,-2 7,-5 10,-8 3,-2 6,-3 8,-5 3,-7 6,-14 9,-20 5,-9 11,-17 17,-25 3,-7 6,-13 9,-19 4,-6 7,-13 11,-19 5,-5 10,-10 15,-15 5,-4 9,-7 13,-11 5,0 10,0 15,1 6,2 12,3 17,5 4,4 8,7 12,11 4,4 8,9 11,13 5,0 9,0 13,0 5,-3 11,-5 16,-8 5,-3 9,-7 14,-10 6,-2 12,-5 18,-7 2,-1 4,-2 7,-3 2,-1 5,-2 7,-3 3,-4 5,-7 8,-11 1,-5 2,-10 4,-16 0,-5 -1,-11 -1,-16 0,-27 -1,-54 -1,-80 2,-6 3,-11 5,-16 2,-9 5,-18 7,-27 5,-7 11,-13 16,-20 5,-10 10,-19 15,-29 5,-3 11,-7 17,-11 4,-6 8,-11 13,-16 2,-6 5,-12 8,-18 2,-7 4,-14 6,-20 0,-6 1,-11 2,-17 3,-3 5,-7 8,-10 3,-2 6,-3 8,-5 4,0 7,0 10,0 2,2 4,5 6,7 1,2 3,4 4,6 1,2 2,3 3,5 5,0 10,0 15,0 0,0 1,0 1,0 3,-2 6,-5 9,-7 3,-3 6,-5 9,-8 3,-3 5,-7 7,-10 3,-3 6,-5 9,-7 0,-3 -1,-6 -2,-9 -2,-4 -4,-7 -6,-11 1,-4 1,-8 2,-12 5,-6 9,-11 14,-17 7,-5 13,-10 19,-15 6,-4 12,-8 18,-12 8,-4 16,-8 24,-12 8,-4 16,-8 24,-12 7,-3 15,-7 22,-10 7,-3 13,-6 20,-8 1,-1 2,-1 3,-1 5,-3 10,-5 16,-7 5,-4 11,-8 17,-12 4,-3 8,-6 13,-9 3,-2 7,-4 10,-7 2,-2 3,-4 5,-6 3,-5 7,-9 10,-14 3,-6 6,-11 9,-16 6,-6 13,-12 19,-17 4,-4 9,-8 13,-11 8,-2 15,-4 22,-5 9,-2 17,-5 25,-7 9,-3 18,-7 27,-10 7,-4 14,-8 21,-12 8,-5 16,-10 24,-14 5,-4 9,-8 14,-12 2,5 4,9 5,14 1,8 3,15 4,23 1,5 1,11 2,17 0,5 0,11 0,17 2,5 3,10 5,14 2,5 5,10 7,15 1,7 2,13 3,20 2,6 3,12 5,18 2,7 4,13 6,20 1,4 2,9 3,13 1,7 3,13 4,20 -4,3 -9,6 -13,9 -17,0 -35,0 -52,0 -6,4 -11,9 -17,13 -1,10 -3,19 -4,29z"/>
   <path fill="#295637" d="M835 327c2,36 4,73 6,109 0,0 0,0 0,0 -1,18 -1,36 -2,54 9,15 18,29 26,44 3,11 5,21 8,32 -7,14 -14,28 -21,42 -6,13 -12,25 -18,38 0,0 0,0 0,0 3,13 5,26 8,39 -6,20 -13,40 -19,60 -1,3 -3,6 -4,9 -3,9 -7,18 -11,28 -16,1 -31,3 -47,4 -9,10 -17,20 -26,29 -20,28 -40,55 -59,83 -2,2 -3,5 -4,7 -4,-4 -8,-8 -12,-12 -4,-4 -8,-7 -12,-11 -2,-4 -4,-8 -6,-12 -3,-3 -6,-7 -9,-10 -4,-4 -8,-8 -12,-12 -1,-5 -1,-10 -2,-15 1,-4 3,-7 4,-11 3,-1 7,-2 10,-3 3,-4 5,-8 8,-12 -2,-6 -3,-12 -5,-18 -6,-2 -11,-4 -17,-6 -6,-1 -12,-1 -18,-1 -5,1 -10,2 -15,3 -3,5 -6,9 -9,13 -1,4 -2,8 -3,12 -3,4 -6,8 -9,12 -2,4 -5,8 -7,12 -6,8 -11,17 -17,25 -5,1 -10,2 -15,3 -4,2 -9,4 -14,6 -3,2 -6,4 -10,6 -8,1 -16,3 -25,4 -7,-1 -13,-2 -20,-3 -4,-2 -8,-3 -12,-5 -5,-2 -10,-3 -16,-5 -3,0 -6,0 -9,0 -3,-1 -5,-1 -7,-1 -7,0 -15,0 -22,0 -5,0 -11,-1 -17,-2 -4,-4 -9,-9 -13,-14 -4,-2 -8,-5 -11,-7 -5,0 -10,0 -14,0 -5,2 -10,4 -14,5 -6,2 -12,3 -18,5 -8,2 -15,3 -22,5 -7,0 -13,0 -20,-1 -1,0 -1,0 -2,0 -7,0 -15,0 -22,0 -5,4 -11,7 -16,11 -3,3 -6,7 -9,10 -1,5 -1,11 -2,16 2,5 4,11 5,17 3,5 5,10 7,16 -2,3 -4,7 -6,10 -6,4 -12,8 -18,13 -4,4 -8,9 -12,14 -2,6 -4,12 -6,18 -4,8 -9,17 -13,25 -1,5 -2,9 -3,14 -4,5 -8,11 -12,16 -5,3 -11,6 -17,9 -8,0 -15,0 -22,-1 -6,0 -12,-1 -18,-1 -4,-2 -7,-4 -11,-6 -4,-3 -8,-7 -12,-10 -4,-3 -7,-6 -11,-8 -2,0 -4,0 -6,0 0,-2 0,-3 0,-5 2,-4 5,-8 8,-12 3,-4 7,-7 11,-10 0,-4 0,-8 1,-11 -1,-8 -2,-16 -3,-23 -3,-5 -6,-10 -9,-15 -5,-5 -10,-10 -14,-15 -7,-3 -13,-6 -19,-9 -6,-3 -12,-5 -18,-7 -3,-3 -6,-5 -9,-8 -2,-3 -3,-7 -4,-10 0,-7 0,-15 0,-22 5,-5 9,-10 14,-16 6,-5 13,-10 20,-16 9,-5 18,-10 28,-15 7,-3 14,-7 22,-11 3,-3 7,-5 10,-8 3,-2 6,-4 8,-6 3,-6 6,-13 9,-20 5,-8 11,-16 17,-25 3,-6 6,-12 9,-18 4,-7 7,-13 11,-20 5,-5 10,-9 15,-14 5,-4 9,-8 13,-12 5,1 10,1 15,1 6,2 12,4 17,6 4,3 8,7 12,10 4,5 8,9 11,14 5,0 9,0 13,0 5,-3 11,-6 16,-8 5,-4 9,-7 14,-10 6,-3 12,-5 18,-7 2,-1 4,-2 7,-3 2,-1 5,-2 7,-3 3,-4 5,-8 8,-11 1,-6 2,-11 4,-16 0,-6 -1,-11 -1,-17 0,-26 -1,-53 -1,-80 2,-5 3,-10 5,-16 2,-9 5,-17 7,-26 5,-7 11,-14 16,-21 5,-9 10,-18 15,-28 5,-4 11,-8 17,-12 4,-5 8,-10 13,-16 2,-5 5,-11 8,-17 2,-7 4,-14 6,-21 0,-5 1,-11 2,-16 3,-4 5,-7 8,-10 3,-2 6,-4 8,-5 4,0 7,0 10,0 2,2 4,4 6,7 1,2 3,4 4,6 1,1 2,3 3,4 5,0 10,0 15,0 0,0 1,0 1,0 3,-2 6,-4 9,-6 3,-3 6,-6 9,-8 3,-4 5,-7 7,-11 3,-2 6,-4 9,-7 0,-3 -1,-6 -2,-9 -2,-3 -4,-7 -6,-10 1,-4 1,-8 2,-13 5,-5 9,-11 14,-16 7,-5 13,-10 19,-15 6,-4 12,-8 18,-12 8,-4 16,-8 24,-12 8,-4 16,-8 24,-12 7,-4 15,-7 22,-11 7,-3 13,-5 20,-8 1,0 2,0 3,-1 5,-2 10,-4 16,-7 5,-4 11,-7 17,-11 4,-3 8,-6 13,-9 3,-2 7,-5 10,-7 2,-2 3,-4 5,-6 3,-5 7,-10 10,-15 3,-5 6,-10 9,-16 6,-5 13,-11 19,-17 4,-3 9,-7 13,-11 8,-1 15,-3 22,-4 9,-3 17,-5 25,-8 9,-3 18,-6 27,-9 7,-4 14,-8 21,-13 8,-4 16,-9 24,-14 5,-4 9,-7 14,-11 2,4 4,9 5,14 1,7 3,15 4,22 1,6 1,12 2,17 0,6 0,12 0,17 2,5 3,10 5,15 2,5 5,10 7,15 1,7 2,13 3,19 2,7 3,13 5,19 2,6 4,13 6,19 1,5 2,9 3,14 1,6 3,13 4,19 -4,3 -9,6 -13,10 -17,0 -35,0 -52,0 -6,4 -11,9 -17,13 -1,10 -3,19 -4,28z"/>
   <path fill="#2D5B3C" d="M835 322c2,36 4,72 6,108 0,1 0,1 0,1 -1,18 -1,36 -2,54 9,14 18,29 26,43 3,11 5,22 8,33 -7,14 -14,28 -21,42 -6,12 -12,25 -18,38 0,0 0,0 0,0 3,13 5,26 8,39 -6,20 -13,40 -19,60 -1,3 -3,6 -4,9 -3,9 -7,18 -11,27 -16,2 -31,3 -47,5 -9,10 -17,19 -26,29 -20,28 -40,55 -59,83 -2,2 -3,4 -4,7 -4,-4 -8,-8 -12,-13 -4,-3 -8,-7 -12,-10 -2,-4 -4,-8 -6,-12 -3,-4 -6,-7 -9,-10 -4,-4 -8,-8 -12,-12 -1,-5 -1,-10 -2,-15 1,-4 3,-8 4,-11 3,-1 7,-2 10,-3 3,-4 5,-8 8,-12 -2,-6 -3,-12 -5,-18 -6,-2 -11,-5 -17,-7 -6,0 -12,0 -18,0 -5,1 -10,2 -15,3 -3,4 -6,9 -9,13 -1,4 -2,8 -3,12 -3,4 -6,8 -9,12 -2,4 -5,8 -7,12 -6,8 -11,16 -17,25 -5,1 -10,2 -15,3 -4,2 -9,4 -14,6 -3,2 -6,4 -10,6 -8,1 -16,2 -25,3 -7,-1 -13,-1 -20,-2 -4,-2 -8,-4 -12,-5 -5,-2 -10,-4 -16,-5 -3,0 -6,-1 -9,-1 -3,0 -5,0 -7,0 -7,0 -15,0 -22,0 -5,-1 -11,-1 -17,-2 -4,-5 -9,-9 -13,-14 -4,-3 -8,-5 -11,-7 -5,0 -10,0 -14,0 -5,2 -10,3 -14,5 -6,2 -12,3 -18,5 -8,1 -15,3 -22,5 -7,0 -13,-1 -20,-1 -1,0 -1,0 -2,0 -7,0 -15,0 -22,0 -5,4 -11,7 -16,11 -3,3 -6,6 -9,10 -1,5 -1,10 -2,16 2,5 4,11 5,16 3,6 5,11 7,16 -2,4 -4,7 -6,11 -6,4 -12,8 -18,12 -4,5 -8,10 -12,14 -2,6 -4,12 -6,18 -4,9 -9,17 -13,26 -1,4 -2,9 -3,13 -4,6 -8,11 -12,17 -5,3 -11,6 -17,9 -8,0 -15,-1 -22,-1 -6,-1 -12,-1 -18,-2 -4,-2 -7,-3 -11,-5 -4,-4 -8,-7 -12,-11 -4,-2 -7,-5 -11,-8 -2,0 -4,1 -6,1 0,-2 0,-3 0,-5 2,-4 5,-8 8,-13 3,-3 7,-6 11,-9 0,-4 0,-8 1,-12 -1,-7 -2,-15 -3,-23 -3,-5 -6,-10 -9,-15 -5,-5 -10,-9 -14,-14 -7,-3 -13,-7 -19,-10 -6,-2 -12,-4 -18,-6 -3,-3 -6,-6 -9,-8 -2,-4 -3,-7 -4,-11 0,-7 0,-14 0,-21 5,-5 9,-11 14,-16 6,-5 13,-11 20,-16 9,-5 18,-10 28,-15 7,-4 14,-8 22,-11 3,-3 7,-6 10,-8 3,-2 6,-4 8,-6 3,-7 6,-13 9,-20 5,-8 11,-17 17,-25 3,-6 6,-13 9,-19 4,-6 7,-13 11,-19 5,-5 10,-10 15,-15 5,-3 9,-7 13,-11 5,0 10,1 15,1 6,2 12,4 17,5 4,4 8,7 12,11 4,4 8,9 11,13 5,0 9,0 13,0 5,-2 11,-5 16,-8 5,-3 9,-6 14,-10 6,-2 12,-4 18,-7 2,-1 4,-2 7,-3 2,-1 5,-2 7,-3 3,-3 5,-7 8,-11 1,-5 2,-10 4,-15 0,-6 -1,-11 -1,-17 0,-27 -1,-53 -1,-80 2,-5 3,-11 5,-16 2,-9 5,-18 7,-26 5,-7 11,-14 16,-21 5,-9 10,-19 15,-28 5,-4 11,-8 17,-12 4,-5 8,-11 13,-16 2,-6 5,-12 8,-18 2,-6 4,-13 6,-20 0,-6 1,-11 2,-17 3,-3 5,-6 8,-10 3,-1 6,-3 8,-5 4,0 7,0 10,0 2,3 4,5 6,7 1,2 3,4 4,6 1,2 2,3 3,5 5,0 10,0 15,0 0,0 1,0 1,0 3,-2 6,-4 9,-7 3,-2 6,-5 9,-8 3,-3 5,-6 7,-10 3,-2 6,-5 9,-7 0,-3 -1,-6 -2,-9 -2,-3 -4,-7 -6,-11 1,-4 1,-8 2,-12 5,-5 9,-11 14,-17 7,-5 13,-10 19,-15 6,-4 12,-8 18,-11 8,-5 16,-9 24,-13 8,-4 16,-7 24,-11 7,-4 15,-8 22,-11 7,-3 13,-6 20,-8 1,0 2,-1 3,-1 5,-2 10,-5 16,-7 5,-4 11,-8 17,-11 4,-3 8,-6 13,-9 3,-3 7,-5 10,-7 2,-2 3,-4 5,-6 3,-5 7,-10 10,-15 3,-5 6,-11 9,-16 6,-6 13,-11 19,-17 4,-4 9,-7 13,-11 8,-2 15,-3 22,-5 9,-2 17,-5 25,-7 9,-3 18,-6 27,-10 7,-4 14,-8 21,-12 8,-5 16,-9 24,-14 5,-4 9,-8 14,-12 2,5 4,10 5,14 1,8 3,15 4,23 1,6 1,11 2,17 0,6 0,11 0,17 2,5 3,10 5,15 2,5 5,10 7,15 1,6 2,13 3,19 2,6 3,12 5,19 2,6 4,13 6,19 1,5 2,9 3,14 1,6 3,12 4,19 -4,3 -9,6 -13,9 -17,0 -35,0 -52,0 -6,5 -11,9 -17,14 -1,9 -3,19 -4,28z"/>
   <path fill="#326040" d="M835 317c2,36 4,72 6,108 0,0 0,0 0,0 -1,18 -1,36 -2,54 9,15 18,30 26,44 3,11 5,22 8,32 -7,14 -14,28 -21,42 -6,13 -12,26 -18,38 0,0 0,1 0,1 3,13 5,26 8,39 -6,20 -13,40 -19,60 -1,3 -3,6 -4,9 -3,9 -7,18 -11,27 -16,1 -31,3 -47,5 -9,9 -17,19 -26,29 -20,27 -40,55 -59,82 -2,3 -3,5 -4,7 -4,-4 -8,-8 -12,-12 -4,-4 -8,-7 -12,-11 -2,-4 -4,-8 -6,-12 -3,-3 -6,-6 -9,-10 -4,-4 -8,-8 -12,-12 -1,-5 -1,-10 -2,-15 1,-3 3,-7 4,-11 3,-1 7,-2 10,-3 3,-3 5,-7 8,-11 -2,-6 -3,-13 -5,-19 -6,-2 -11,-4 -17,-6 -6,0 -12,0 -18,-1 -5,1 -10,3 -15,4 -3,4 -6,8 -9,13 -1,4 -2,8 -3,11 -3,5 -6,9 -9,13 -2,4 -5,8 -7,11 -6,9 -11,17 -17,25 -5,1 -10,2 -15,4 -4,1 -9,3 -14,5 -3,2 -6,4 -10,6 -8,2 -16,3 -25,4 -7,-1 -13,-2 -20,-3 -4,-1 -8,-3 -12,-5 -5,-1 -10,-3 -16,-5 -3,0 -6,0 -9,0 -3,0 -5,0 -7,-1 -7,0 -15,0 -22,0 -5,0 -11,-1 -17,-1 -4,-5 -9,-10 -13,-15 -4,-2 -8,-4 -11,-7 -5,0 -10,0 -14,0 -5,2 -10,4 -14,6 -6,1 -12,3 -18,4 -8,2 -15,4 -22,5 -7,0 -13,0 -20,0 -1,0 -1,0 -2,0 -7,0 -15,0 -22,0 -5,3 -11,7 -16,10 -3,4 -6,7 -9,10 -1,6 -1,11 -2,16 2,6 4,11 5,17 3,5 5,11 7,16 -2,3 -4,7 -6,10 -6,5 -12,9 -18,13 -4,5 -8,9 -12,14 -2,6 -4,12 -6,18 -4,8 -9,17 -13,26 -1,4 -2,8 -3,13 -4,5 -8,11 -12,17 -5,3 -11,6 -17,9 -8,-1 -15,-1 -22,-1 -6,-1 -12,-2 -18,-2 -4,-2 -7,-4 -11,-5 -4,-4 -8,-8 -12,-11 -4,-3 -7,-5 -11,-8 -2,0 -4,0 -6,0 0,-1 0,-3 0,-4 2,-5 5,-9 8,-13 3,-3 7,-7 11,-10 0,-4 0,-7 1,-11 -1,-8 -2,-15 -3,-23 -3,-5 -6,-10 -9,-15 -5,-5 -10,-10 -14,-15 -7,-3 -13,-6 -19,-9 -6,-2 -12,-4 -18,-7 -3,-2 -6,-5 -9,-8 -2,-3 -3,-6 -4,-10 0,-7 0,-14 0,-21 5,-6 9,-11 14,-16 6,-6 13,-11 20,-16 9,-5 18,-10 28,-15 7,-4 14,-8 22,-12 3,-2 7,-5 10,-8 3,-2 6,-3 8,-5 3,-7 6,-14 9,-21 5,-8 11,-16 17,-24 3,-7 6,-13 9,-19 4,-7 7,-13 11,-19 5,-5 10,-10 15,-15 5,-4 9,-7 13,-11 5,0 10,0 15,1 6,1 12,3 17,5 4,4 8,7 12,11 4,4 8,8 11,13 5,0 9,0 13,0 5,-3 11,-5 16,-8 5,-3 9,-7 14,-10 6,-2 12,-5 18,-7 2,-1 4,-2 7,-3 2,-1 5,-2 7,-3 3,-4 5,-7 8,-11 1,-5 2,-11 4,-16 0,-5 -1,-11 -1,-16 0,-27 -1,-54 -1,-81 2,-5 3,-10 5,-16 2,-8 5,-17 7,-26 5,-7 11,-14 16,-20 5,-10 10,-19 15,-29 5,-3 11,-7 17,-11 4,-6 8,-11 13,-16 2,-6 5,-12 8,-18 2,-7 4,-14 6,-20 0,-6 1,-12 2,-17 3,-3 5,-7 8,-10 3,-2 6,-3 8,-5 4,0 7,0 10,0 2,2 4,5 6,7 1,2 3,4 4,6 1,2 2,3 3,5 5,0 10,0 15,0 0,0 1,0 1,0 3,-3 6,-5 9,-7 3,-3 6,-5 9,-8 3,-3 5,-7 7,-10 3,-3 6,-5 9,-7 0,-3 -1,-6 -2,-9 -2,-4 -4,-7 -6,-11 1,-4 1,-8 2,-12 5,-6 9,-11 14,-17 7,-5 13,-10 19,-15 6,-4 12,-8 18,-12 8,-4 16,-8 24,-12 8,-4 16,-8 24,-12 7,-3 15,-7 22,-11 7,-2 13,-5 20,-8 1,0 2,0 3,0 5,-3 10,-5 16,-8 5,-3 11,-7 17,-11 4,-3 8,-6 13,-9 3,-2 7,-4 10,-7 2,-2 3,-4 5,-6 3,-5 7,-10 10,-14 3,-6 6,-11 9,-16 6,-6 13,-12 19,-17 4,-4 9,-8 13,-11 8,-2 15,-4 22,-5 9,-3 17,-5 25,-7 9,-3 18,-7 27,-10 7,-4 14,-8 21,-12 8,-5 16,-10 24,-14 5,-4 9,-8 14,-12 2,5 4,9 5,14 1,8 3,15 4,23 1,5 1,11 2,16 0,6 0,12 0,18 2,5 3,9 5,14 2,5 5,10 7,15 1,7 2,13 3,20 2,6 3,12 5,18 2,7 4,13 6,20 1,4 2,9 3,13 1,7 3,13 4,19 -4,4 -9,7 -13,10 -17,0 -35,0 -52,0 -6,4 -11,9 -17,13 -1,10 -3,19 -4,29z"/>
   <path fill="#366545" d="M835 311c2,36 4,73 6,109 0,0 0,0 0,0 -1,18 -1,36 -2,54 9,15 18,29 26,44 3,11 5,21 8,32 -7,14 -14,28 -21,42 -6,13 -12,25 -18,38 0,0 0,0 0,0 3,13 5,26 8,39 -6,20 -13,40 -19,60 -1,3 -3,6 -4,9 -3,9 -7,18 -11,27 -16,2 -31,4 -47,5 -9,10 -17,20 -26,29 -20,28 -40,55 -59,83 -2,2 -3,5 -4,7 -4,-4 -8,-8 -12,-12 -4,-4 -8,-7 -12,-11 -2,-4 -4,-8 -6,-12 -3,-3 -6,-7 -9,-10 -4,-4 -8,-8 -12,-12 -1,-5 -1,-10 -2,-15 1,-4 3,-7 4,-11 3,-1 7,-2 10,-3 3,-4 5,-8 8,-12 -2,-6 -3,-12 -5,-18 -6,-2 -11,-4 -17,-7 -6,0 -12,0 -18,0 -5,1 -10,2 -15,3 -3,5 -6,9 -9,13 -1,4 -2,8 -3,12 -3,4 -6,8 -9,12 -2,4 -5,8 -7,12 -6,8 -11,17 -17,25 -5,1 -10,2 -15,3 -4,2 -9,4 -14,6 -3,2 -6,4 -10,6 -8,1 -16,2 -25,4 -7,-1 -13,-2 -20,-3 -4,-2 -8,-3 -12,-5 -5,-2 -10,-3 -16,-5 -3,0 -6,0 -9,0 -3,-1 -5,-1 -7,-1 -7,0 -15,0 -22,0 -5,-1 -11,-1 -17,-2 -4,-4 -9,-9 -13,-14 -4,-2 -8,-5 -11,-7 -5,0 -10,0 -14,0 -5,2 -10,4 -14,5 -6,2 -12,3 -18,5 -8,2 -15,3 -22,5 -7,0 -13,0 -20,-1 -1,0 -1,0 -2,0 -7,0 -15,0 -22,0 -5,4 -11,7 -16,11 -3,3 -6,7 -9,10 -1,5 -1,10 -2,16 2,5 4,11 5,17 3,5 5,10 7,16 -2,3 -4,6 -6,10 -6,4 -12,8 -18,13 -4,4 -8,9 -12,14 -2,6 -4,12 -6,17 -4,9 -9,18 -13,26 -1,5 -2,9 -3,13 -4,6 -8,12 -12,17 -5,3 -11,6 -17,9 -8,0 -15,0 -22,-1 -6,0 -12,-1 -18,-2 -4,-1 -7,-3 -11,-5 -4,-3 -8,-7 -12,-11 -4,-2 -7,-5 -11,-7 -2,0 -4,0 -6,0 0,-2 0,-3 0,-5 2,-4 5,-8 8,-12 3,-4 7,-7 11,-10 0,-4 0,-8 1,-12 -1,-7 -2,-15 -3,-22 -3,-5 -6,-10 -9,-15 -5,-5 -10,-10 -14,-15 -7,-3 -13,-6 -19,-9 -6,-3 -12,-5 -18,-7 -3,-3 -6,-5 -9,-8 -2,-3 -3,-7 -4,-10 0,-7 0,-15 0,-22 5,-5 9,-10 14,-16 6,-5 13,-10 20,-16 9,-5 18,-10 28,-15 7,-4 14,-7 22,-11 3,-3 7,-5 10,-8 3,-2 6,-4 8,-6 3,-6 6,-13 9,-20 5,-8 11,-16 17,-25 3,-6 6,-12 9,-18 4,-7 7,-13 11,-20 5,-5 10,-9 15,-14 5,-4 9,-8 13,-12 5,1 10,1 15,1 6,2 12,4 17,6 4,3 8,7 12,10 4,5 8,9 11,14 5,0 9,0 13,0 5,-3 11,-6 16,-8 5,-4 9,-7 14,-10 6,-3 12,-5 18,-7 2,-1 4,-2 7,-3 2,-1 5,-2 7,-3 3,-4 5,-8 8,-11 1,-6 2,-11 4,-16 0,-6 -1,-11 -1,-17 0,-26 -1,-53 -1,-80 2,-5 3,-11 5,-16 2,-9 5,-17 7,-26 5,-7 11,-14 16,-21 5,-9 10,-19 15,-28 5,-4 11,-8 17,-12 4,-5 8,-10 13,-16 2,-6 5,-12 8,-17 2,-7 4,-14 6,-21 0,-5 1,-11 2,-17 3,-3 5,-6 8,-9 3,-2 6,-4 8,-6 4,0 7,0 10,0 2,3 4,5 6,8 1,2 3,4 4,6 1,1 2,3 3,4 5,0 10,0 15,0 0,0 1,0 1,0 3,-2 6,-4 9,-6 3,-3 6,-6 9,-8 3,-4 5,-7 7,-11 3,-2 6,-4 9,-7 0,-3 -1,-6 -2,-9 -2,-3 -4,-7 -6,-10 1,-4 1,-8 2,-13 5,-5 9,-11 14,-16 7,-5 13,-10 19,-15 6,-4 12,-8 18,-12 8,-4 16,-8 24,-12 8,-4 16,-8 24,-12 7,-4 15,-7 22,-11 7,-3 13,-5 20,-8 1,0 2,0 3,-1 5,-2 10,-5 16,-7 5,-4 11,-7 17,-11 4,-3 8,-6 13,-9 3,-2 7,-5 10,-7 2,-2 3,-4 5,-6 3,-5 7,-10 10,-15 3,-5 6,-10 9,-16 6,-5 13,-11 19,-17 4,-3 9,-7 13,-11 8,-1 15,-3 22,-5 9,-2 17,-4 25,-7 9,-3 18,-6 27,-9 7,-4 14,-9 21,-13 8,-4 16,-9 24,-14 5,-4 9,-7 14,-11 2,4 4,9 5,14 1,7 3,15 4,22 1,6 1,11 2,17 0,6 0,12 0,17 2,5 3,10 5,15 2,5 5,10 7,15 1,6 2,13 3,19 2,7 3,13 5,19 2,6 4,13 6,19 1,5 2,9 3,14 1,6 3,13 4,19 -4,3 -9,6 -13,10 -17,0 -35,0 -52,0 -6,4 -11,9 -17,13 -1,9 -3,19 -4,28z"/>
   <path fill="#3A6A49" d="M835 306c2,36 4,72 6,108 0,1 0,1 0,1 -1,18 -1,36 -2,54 9,14 18,29 26,43 3,11 5,22 8,33 -7,14 -14,28 -21,42 -6,12 -12,25 -18,38 0,0 0,0 0,0 3,13 5,26 8,39 -6,20 -13,40 -19,60 -1,3 -3,6 -4,9 -3,9 -7,18 -11,27 -16,2 -31,3 -47,5 -9,10 -17,19 -26,29 -20,27 -40,55 -59,83 -2,2 -3,4 -4,7 -4,-4 -8,-9 -12,-13 -4,-3 -8,-7 -12,-10 -2,-4 -4,-8 -6,-12 -3,-4 -6,-7 -9,-11 -4,-3 -8,-7 -12,-11 -1,-5 -1,-10 -2,-15 1,-4 3,-8 4,-11 3,-1 7,-2 10,-3 3,-4 5,-8 8,-12 -2,-6 -3,-12 -5,-18 -6,-3 -11,-5 -17,-7 -6,0 -12,0 -18,0 -5,1 -10,2 -15,3 -3,4 -6,9 -9,13 -1,4 -2,8 -3,12 -3,4 -6,8 -9,12 -2,4 -5,8 -7,12 -6,8 -11,16 -17,25 -5,1 -10,2 -15,3 -4,2 -9,4 -14,6 -3,2 -6,4 -10,6 -8,1 -16,2 -25,3 -7,-1 -13,-2 -20,-2 -4,-2 -8,-4 -12,-5 -5,-2 -10,-4 -16,-5 -3,-1 -6,-1 -9,-1 -3,0 -5,0 -7,0 -7,0 -15,0 -22,0 -5,-1 -11,-2 -17,-2 -4,-5 -9,-10 -13,-14 -4,-3 -8,-5 -11,-7 -5,0 -10,0 -14,0 -5,1 -10,3 -14,5 -6,1 -12,3 -18,5 -8,1 -15,3 -22,5 -7,-1 -13,-1 -20,-1 -1,0 -1,0 -2,0 -7,0 -15,0 -22,0 -5,3 -11,7 -16,11 -3,3 -6,6 -9,10 -1,5 -1,10 -2,15 2,6 4,12 5,17 3,6 5,11 7,16 -2,4 -4,7 -6,11 -6,4 -12,8 -18,12 -4,5 -8,10 -12,14 -2,6 -4,12 -6,18 -4,9 -9,17 -13,26 -1,4 -2,9 -3,13 -4,6 -8,11 -12,17 -5,3 -11,6 -17,9 -8,0 -15,-1 -22,-1 -6,-1 -12,-1 -18,-2 -4,-2 -7,-3 -11,-5 -4,-4 -8,-7 -12,-11 -4,-2 -7,-5 -11,-8 -2,0 -4,0 -6,1 0,-2 0,-3 0,-5 2,-4 5,-8 8,-13 3,-3 7,-6 11,-10 0,-3 0,-7 1,-11 -1,-7 -2,-15 -3,-23 -3,-5 -6,-10 -9,-15 -5,-5 -10,-10 -14,-14 -7,-3 -13,-7 -19,-10 -6,-2 -12,-4 -18,-6 -3,-3 -6,-6 -9,-8 -2,-4 -3,-7 -4,-11 0,-7 0,-14 0,-21 5,-6 9,-11 14,-16 6,-5 13,-11 20,-16 9,-5 18,-10 28,-15 7,-4 14,-8 22,-11 3,-3 7,-6 10,-8 3,-2 6,-4 8,-6 3,-7 6,-13 9,-20 5,-8 11,-17 17,-25 3,-6 6,-13 9,-19 4,-6 7,-13 11,-19 5,-5 10,-10 15,-15 5,-3 9,-7 13,-11 5,0 10,1 15,1 6,2 12,4 17,5 4,4 8,7 12,11 4,4 8,9 11,13 5,0 9,0 13,0 5,-2 11,-5 16,-8 5,-3 9,-6 14,-10 6,-2 12,-4 18,-7 2,-1 4,-2 7,-3 2,-1 5,-2 7,-3 3,-3 5,-7 8,-11 1,-5 2,-10 4,-16 0,-5 -1,-11 -1,-16 0,-27 -1,-53 -1,-80 2,-6 3,-11 5,-16 2,-9 5,-18 7,-26 5,-7 11,-14 16,-21 5,-10 10,-19 15,-28 5,-4 11,-8 17,-12 4,-5 8,-11 13,-16 2,-6 5,-12 8,-18 2,-7 4,-13 6,-20 0,-6 1,-11 2,-17 3,-3 5,-6 8,-10 3,-1 6,-3 8,-5 4,0 7,0 10,0 2,2 4,5 6,7 1,2 3,4 4,6 1,2 2,3 3,5 5,0 10,0 15,0 0,0 1,0 1,0 3,-2 6,-4 9,-7 3,-2 6,-5 9,-8 3,-3 5,-7 7,-10 3,-2 6,-5 9,-7 0,-3 -1,-6 -2,-9 -2,-4 -4,-7 -6,-11 1,-4 1,-8 2,-12 5,-6 9,-11 14,-17 7,-5 13,-10 19,-15 6,-4 12,-8 18,-11 8,-5 16,-9 24,-13 8,-4 16,-8 24,-11 7,-4 15,-8 22,-11 7,-3 13,-6 20,-8 1,-1 2,-1 3,-1 5,-2 10,-5 16,-7 5,-4 11,-8 17,-11 4,-3 8,-6 13,-9 3,-3 7,-5 10,-7 2,-2 3,-4 5,-7 3,-4 7,-9 10,-14 3,-5 6,-11 9,-16 6,-6 13,-11 19,-17 4,-4 9,-7 13,-11 8,-2 15,-3 22,-5 9,-2 17,-5 25,-7 9,-3 18,-6 27,-10 7,-4 14,-8 21,-12 8,-5 16,-9 24,-14 5,-4 9,-8 14,-12 2,5 4,10 5,14 1,8 3,15 4,23 1,5 1,11 2,17 0,6 0,11 0,17 2,5 3,10 5,15 2,5 5,10 7,15 1,6 2,13 3,19 2,6 3,12 5,19 2,6 4,13 6,19 1,4 2,9 3,14 1,6 3,12 4,19 -4,3 -9,6 -13,9 -17,0 -35,0 -52,0 -6,5 -11,9 -17,14 -1,9 -3,19 -4,28z"/>
   <path fill="#3E6F4E" d="M835 301c2,36 4,72 6,108 0,0 0,0 0,0 -1,18 -1,36 -2,54 9,15 18,29 26,44 3,11 5,22 8,32 -7,14 -14,28 -21,42 -6,13 -12,26 -18,38 0,0 0,0 0,1 3,13 5,26 8,39 -6,20 -13,40 -19,60 -1,3 -3,6 -4,9 -3,9 -7,18 -11,27 -16,1 -31,3 -47,4 -9,10 -17,20 -26,30 -20,27 -40,55 -59,82 -2,3 -3,5 -4,7 -4,-4 -8,-8 -12,-12 -4,-4 -8,-7 -12,-11 -2,-4 -4,-8 -6,-12 -3,-3 -6,-6 -9,-10 -4,-4 -8,-8 -12,-12 -1,-5 -1,-10 -2,-15 1,-3 3,-7 4,-11 3,-1 7,-2 10,-3 3,-4 5,-7 8,-11 -2,-7 -3,-13 -5,-19 -6,-2 -11,-4 -17,-6 -6,0 -12,-1 -18,-1 -5,1 -10,2 -15,4 -3,4 -6,8 -9,13 -1,4 -2,8 -3,11 -3,4 -6,9 -9,13 -2,4 -5,7 -7,11 -6,9 -11,17 -17,25 -5,1 -10,2 -15,4 -4,1 -9,3 -14,5 -3,2 -6,4 -10,6 -8,2 -16,3 -25,4 -7,-1 -13,-2 -20,-3 -4,-1 -8,-3 -12,-5 -5,-1 -10,-3 -16,-5 -3,0 -6,0 -9,0 -3,0 -5,0 -7,-1 -7,0 -15,0 -22,0 -5,0 -11,-1 -17,-1 -4,-5 -9,-10 -13,-15 -4,-2 -8,-4 -11,-7 -5,0 -10,0 -14,0 -5,2 -10,4 -14,6 -6,1 -12,3 -18,4 -8,2 -15,4 -22,5 -7,0 -13,0 -20,0 -1,0 -1,0 -2,0 -7,0 -15,0 -22,0 -5,3 -11,7 -16,10 -3,4 -6,7 -9,10 -1,5 -1,11 -2,16 2,6 4,11 5,17 3,5 5,11 7,16 -2,3 -4,7 -6,10 -6,4 -12,9 -18,13 -4,5 -8,9 -12,14 -2,6 -4,12 -6,18 -4,8 -9,17 -13,26 -1,4 -2,8 -3,13 -4,5 -8,11 -12,17 -5,3 -11,6 -17,9 -8,-1 -15,-1 -22,-1 -6,-1 -12,-2 -18,-2 -4,-2 -7,-4 -11,-5 -4,-4 -8,-8 -12,-11 -4,-3 -7,-5 -11,-8 -2,0 -4,0 -6,0 0,-1 0,-3 0,-4 2,-5 5,-9 8,-13 3,-3 7,-7 11,-10 0,-4 0,-7 1,-11 -1,-8 -2,-15 -3,-23 -3,-5 -6,-10 -9,-15 -5,-5 -10,-10 -14,-15 -7,-3 -13,-6 -19,-9 -6,-2 -12,-4 -18,-7 -3,-2 -6,-5 -9,-8 -2,-3 -3,-7 -4,-10 0,-7 0,-14 0,-22 5,-5 9,-10 14,-15 6,-6 13,-11 20,-16 9,-5 18,-10 28,-15 7,-4 14,-8 22,-12 3,-2 7,-5 10,-8 3,-2 6,-4 8,-5 3,-7 6,-14 9,-21 5,-8 11,-16 17,-24 3,-7 6,-13 9,-19 4,-7 7,-13 11,-19 5,-5 10,-10 15,-15 5,-4 9,-8 13,-11 5,0 10,0 15,1 6,1 12,3 17,5 4,3 8,7 12,11 4,4 8,8 11,13 5,0 9,0 13,0 5,-3 11,-6 16,-8 5,-3 9,-7 14,-10 6,-2 12,-5 18,-7 2,-1 4,-2 7,-3 2,-1 5,-2 7,-3 3,-4 5,-7 8,-11 1,-5 2,-11 4,-16 0,-5 -1,-11 -1,-16 0,-27 -1,-54 -1,-81 2,-5 3,-10 5,-16 2,-8 5,-17 7,-26 5,-7 11,-14 16,-20 5,-10 10,-19 15,-29 5,-4 11,-7 17,-11 4,-6 8,-11 13,-16 2,-6 5,-12 8,-18 2,-7 4,-14 6,-20 0,-6 1,-12 2,-17 3,-3 5,-7 8,-10 3,-2 6,-4 8,-5 4,0 7,0 10,0 2,2 4,4 6,7 1,2 3,4 4,6 1,1 2,3 3,5 5,0 10,0 15,0 0,0 1,0 1,0 3,-3 6,-5 9,-7 3,-3 6,-5 9,-8 3,-3 5,-7 7,-10 3,-3 6,-5 9,-7 0,-3 -1,-6 -2,-9 -2,-4 -4,-7 -6,-11 1,-4 1,-8 2,-12 5,-6 9,-12 14,-17 7,-5 13,-10 19,-15 6,-4 12,-8 18,-12 8,-4 16,-8 24,-12 8,-4 16,-8 24,-12 7,-3 15,-7 22,-11 7,-2 13,-5 20,-8 1,0 2,0 3,0 5,-3 10,-5 16,-8 5,-3 11,-7 17,-11 4,-3 8,-6 13,-9 3,-2 7,-4 10,-7 2,-2 3,-4 5,-6 3,-5 7,-10 10,-14 3,-6 6,-11 9,-16 6,-6 13,-12 19,-17 4,-4 9,-8 13,-12 8,-1 15,-3 22,-4 9,-3 17,-5 25,-7 9,-4 18,-7 27,-10 7,-4 14,-8 21,-12 8,-5 16,-10 24,-14 5,-4 9,-8 14,-12 2,5 4,9 5,14 1,7 3,15 4,22 1,6 1,12 2,17 0,6 0,12 0,18 2,5 3,9 5,14 2,5 5,10 7,15 1,7 2,13 3,20 2,6 3,12 5,18 2,7 4,13 6,20 1,4 2,9 3,13 1,7 3,13 4,19 -4,4 -9,7 -13,10 -17,0 -35,0 -52,0 -6,4 -11,9 -17,13 -1,10 -3,19 -4,29z"/>
   <path fill="#437552" d="M835 295c2,36 4,72 6,109 0,0 0,0 0,0 -1,18 -1,36 -2,54 9,15 18,29 26,44 3,10 5,21 8,32 -7,14 -14,28 -21,42 -6,13 -12,25 -18,38 0,0 0,0 0,0 3,13 5,26 8,39 -6,20 -13,40 -19,60 -1,3 -3,6 -4,9 -3,9 -7,18 -11,27 -16,2 -31,4 -47,5 -9,10 -17,20 -26,29 -20,28 -40,55 -59,83 -2,2 -3,5 -4,7 -4,-4 -8,-8 -12,-12 -4,-4 -8,-8 -12,-11 -2,-4 -4,-8 -6,-12 -3,-3 -6,-7 -9,-10 -4,-4 -8,-8 -12,-12 -1,-5 -1,-10 -2,-15 1,-4 3,-7 4,-11 3,-1 7,-2 10,-3 3,-4 5,-8 8,-12 -2,-6 -3,-12 -5,-18 -6,-2 -11,-4 -17,-7 -6,0 -12,0 -18,0 -5,1 -10,2 -15,3 -3,5 -6,9 -9,13 -1,4 -2,8 -3,12 -3,4 -6,8 -9,12 -2,4 -5,8 -7,12 -6,8 -11,17 -17,25 -5,1 -10,2 -15,3 -4,2 -9,4 -14,6 -3,2 -6,4 -10,6 -8,1 -16,2 -25,4 -7,-1 -13,-2 -20,-3 -4,-2 -8,-3 -12,-5 -5,-2 -10,-3 -16,-5 -3,0 -6,0 -9,-1 -3,0 -5,0 -7,0 -7,0 -15,0 -22,0 -5,-1 -11,-1 -17,-2 -4,-5 -9,-9 -13,-14 -4,-2 -8,-5 -11,-7 -5,0 -10,0 -14,0 -5,2 -10,3 -14,5 -6,2 -12,3 -18,5 -8,2 -15,3 -22,5 -7,0 -13,-1 -20,-1 -1,0 -1,0 -2,0 -7,0 -15,0 -22,0 -5,4 -11,7 -16,11 -3,3 -6,7 -9,10 -1,5 -1,10 -2,16 2,5 4,11 5,17 3,5 5,10 7,16 -2,3 -4,6 -6,10 -6,4 -12,8 -18,13 -4,4 -8,9 -12,14 -2,6 -4,12 -6,17 -4,9 -9,18 -13,26 -1,5 -2,9 -3,13 -4,6 -8,12 -12,17 -5,3 -11,6 -17,9 -8,0 -15,0 -22,-1 -6,0 -12,-1 -18,-2 -4,-1 -7,-3 -11,-5 -4,-3 -8,-7 -12,-11 -4,-2 -7,-5 -11,-8 -2,1 -4,1 -6,1 0,-2 0,-3 0,-5 2,-4 5,-8 8,-12 3,-4 7,-7 11,-10 0,-4 0,-8 1,-12 -1,-7 -2,-15 -3,-22 -3,-5 -6,-11 -9,-16 -5,-4 -10,-9 -14,-14 -7,-3 -13,-6 -19,-9 -6,-3 -12,-5 -18,-7 -3,-3 -6,-5 -9,-8 -2,-3 -3,-7 -4,-10 0,-8 0,-15 0,-22 5,-5 9,-11 14,-16 6,-5 13,-10 20,-16 9,-5 18,-10 28,-15 7,-4 14,-7 22,-11 3,-3 7,-5 10,-8 3,-2 6,-4 8,-6 3,-6 6,-13 9,-20 5,-8 11,-16 17,-25 3,-6 6,-12 9,-19 4,-6 7,-12 11,-19 5,-5 10,-9 15,-14 5,-4 9,-8 13,-12 5,1 10,1 15,1 6,2 12,4 17,6 4,3 8,7 12,10 4,5 8,9 11,13 5,0 9,0 13,0 5,-2 11,-5 16,-8 5,-3 9,-6 14,-9 6,-3 12,-5 18,-7 2,-1 4,-2 7,-3 2,-1 5,-2 7,-4 3,-3 5,-7 8,-10 1,-6 2,-11 4,-16 0,-6 -1,-11 -1,-17 0,-26 -1,-53 -1,-80 2,-5 3,-11 5,-16 2,-9 5,-17 7,-26 5,-7 11,-14 16,-21 5,-9 10,-19 15,-28 5,-4 11,-8 17,-12 4,-5 8,-10 13,-16 2,-6 5,-12 8,-18 2,-6 4,-13 6,-20 0,-5 1,-11 2,-17 3,-3 5,-6 8,-9 3,-2 6,-4 8,-6 4,0 7,0 10,0 2,3 4,5 6,7 1,2 3,5 4,7 1,1 2,3 3,4 5,0 10,0 15,0 0,0 1,0 1,0 3,-2 6,-4 9,-6 3,-3 6,-6 9,-8 3,-4 5,-7 7,-11 3,-2 6,-4 9,-7 0,-3 -1,-6 -2,-9 -2,-3 -4,-7 -6,-10 1,-4 1,-9 2,-13 5,-5 9,-11 14,-16 7,-5 13,-10 19,-16 6,-3 12,-7 18,-11 8,-4 16,-8 24,-12 8,-4 16,-8 24,-12 7,-4 15,-7 22,-11 7,-3 13,-5 20,-8 1,0 2,-1 3,-1 5,-2 10,-5 16,-7 5,-4 11,-7 17,-11 4,-3 8,-6 13,-9 3,-2 7,-5 10,-7 2,-2 3,-4 5,-6 3,-5 7,-10 10,-15 3,-5 6,-10 9,-16 6,-5 13,-11 19,-17 4,-3 9,-7 13,-11 8,-1 15,-3 22,-5 9,-2 17,-4 25,-7 9,-3 18,-6 27,-9 7,-4 14,-9 21,-13 8,-4 16,-9 24,-14 5,-4 9,-8 14,-11 2,4 4,9 5,14 1,7 3,15 4,22 1,6 1,11 2,17 0,6 0,12 0,17 2,5 3,10 5,15 2,5 5,10 7,15 1,6 2,13 3,19 2,6 3,13 5,19 2,6 4,13 6,19 1,5 2,9 3,14 1,6 3,13 4,19 -4,3 -9,6 -13,9 -17,0 -35,0 -52,0 -6,5 -11,10 -17,14 -1,9 -3,19 -4,28z"/>
   <path fill="#477A57" d="M835 290c2,36 4,72 6,108 0,0 0,1 0,1 -1,18 -1,36 -2,54 9,14 18,29 26,43 3,11 5,22 8,33 -7,14 -14,28 -21,42 -6,12 -12,25 -18,37 0,1 0,1 0,1 3,13 5,26 8,39 -6,20 -13,40 -19,60 -1,3 -3,6 -4,9 -3,9 -7,18 -11,27 -16,2 -31,3 -47,5 -9,9 -17,19 -26,29 -20,27 -40,55 -59,82 -2,3 -3,5 -4,8 -4,-5 -8,-9 -12,-13 -4,-3 -8,-7 -12,-10 -2,-4 -4,-8 -6,-12 -3,-4 -6,-7 -9,-11 -4,-3 -8,-7 -12,-11 -1,-5 -1,-10 -2,-15 1,-4 3,-8 4,-12 3,0 7,-1 10,-2 3,-4 5,-8 8,-12 -2,-6 -3,-12 -5,-18 -6,-3 -11,-5 -17,-7 -6,0 -12,0 -18,0 -5,1 -10,2 -15,3 -3,4 -6,9 -9,13 -1,4 -2,8 -3,12 -3,4 -6,8 -9,12 -2,4 -5,8 -7,12 -6,8 -11,16 -17,25 -5,1 -10,2 -15,3 -4,2 -9,4 -14,5 -3,3 -6,5 -10,7 -8,1 -16,2 -25,3 -7,-1 -13,-2 -20,-3 -4,-1 -8,-3 -12,-4 -5,-2 -10,-4 -16,-5 -3,-1 -6,-1 -9,-1 -3,0 -5,0 -7,0 -7,0 -15,0 -22,0 -5,-1 -11,-2 -17,-2 -4,-5 -9,-10 -13,-14 -4,-3 -8,-5 -11,-7 -5,0 -10,0 -14,0 -5,1 -10,3 -14,5 -6,1 -12,3 -18,5 -8,1 -15,3 -22,5 -7,-1 -13,-1 -20,-1 -1,0 -1,0 -2,0 -7,0 -15,0 -22,0 -5,3 -11,7 -16,11 -3,3 -6,6 -9,9 -1,6 -1,11 -2,16 2,6 4,12 5,17 3,6 5,11 7,16 -2,4 -4,7 -6,11 -6,4 -12,8 -18,12 -4,5 -8,10 -12,14 -2,6 -4,12 -6,18 -4,9 -9,17 -13,26 -1,4 -2,9 -3,13 -4,6 -8,11 -12,17 -5,3 -11,6 -17,9 -8,0 -15,-1 -22,-1 -6,-1 -12,-1 -18,-2 -4,-2 -7,-3 -11,-5 -4,-4 -8,-7 -12,-11 -4,-3 -7,-5 -11,-8 -2,0 -4,0 -6,1 0,-2 0,-4 0,-5 2,-4 5,-9 8,-13 3,-3 7,-6 11,-10 0,-3 0,-7 1,-11 -1,-8 -2,-15 -3,-23 -3,-5 -6,-10 -9,-15 -5,-5 -10,-10 -14,-14 -7,-4 -13,-7 -19,-10 -6,-2 -12,-4 -18,-6 -3,-3 -6,-6 -9,-8 -2,-4 -3,-7 -4,-11 0,-7 0,-14 0,-21 5,-6 9,-11 14,-16 6,-6 13,-11 20,-16 9,-5 18,-10 28,-15 7,-4 14,-8 22,-11 3,-3 7,-6 10,-8 3,-2 6,-4 8,-6 3,-7 6,-14 9,-20 5,-9 11,-17 17,-25 3,-6 6,-13 9,-19 4,-6 7,-13 11,-19 5,-5 10,-10 15,-15 5,-3 9,-7 13,-11 5,0 10,1 15,1 6,2 12,3 17,5 4,4 8,7 12,11 4,4 8,9 11,13 5,0 9,0 13,0 5,-3 11,-5 16,-8 5,-3 9,-6 14,-10 6,-2 12,-4 18,-7 2,-1 4,-2 7,-3 2,-1 5,-2 7,-3 3,-3 5,-7 8,-11 1,-5 2,-10 4,-16 0,-5 -1,-11 -1,-16 0,-27 -1,-54 -1,-80 2,-6 3,-11 5,-16 2,-9 5,-18 7,-27 5,-6 11,-13 16,-20 5,-10 10,-19 15,-28 5,-4 11,-8 17,-12 4,-5 8,-11 13,-16 2,-6 5,-12 8,-18 2,-7 4,-13 6,-20 0,-6 1,-11 2,-17 3,-3 5,-6 8,-10 3,-1 6,-3 8,-5 4,0 7,0 10,0 2,2 4,5 6,7 1,2 3,4 4,6 1,2 2,3 3,5 5,0 10,0 15,0 0,0 1,0 1,0 3,-2 6,-5 9,-7 3,-2 6,-5 9,-8 3,-3 5,-7 7,-10 3,-2 6,-5 9,-7 0,-3 -1,-6 -2,-9 -2,-4 -4,-7 -6,-11 1,-4 1,-8 2,-12 5,-6 9,-11 14,-17 7,-5 13,-10 19,-15 6,-4 12,-8 18,-12 8,-4 16,-8 24,-12 8,-4 16,-8 24,-11 7,-4 15,-8 22,-11 7,-3 13,-6 20,-8 1,-1 2,-1 3,-1 5,-3 10,-5 16,-7 5,-4 11,-8 17,-11 4,-3 8,-6 13,-9 3,-3 7,-5 10,-7 2,-2 3,-5 5,-7 3,-4 7,-9 10,-14 3,-5 6,-11 9,-16 6,-6 13,-11 19,-17 4,-4 9,-7 13,-11 8,-2 15,-3 22,-5 9,-2 17,-5 25,-7 9,-3 18,-7 27,-10 7,-4 14,-8 21,-12 8,-5 16,-9 24,-14 5,-4 9,-8 14,-12 2,5 4,10 5,14 1,8 3,15 4,23 1,5 1,11 2,17 0,5 0,11 0,17 2,5 3,10 5,15 2,5 5,10 7,15 1,6 2,12 3,19 2,6 3,12 5,19 2,6 4,12 6,19 1,4 2,9 3,13 1,7 3,13 4,20 -4,3 -9,6 -13,9 -17,0 -35,0 -52,0 -6,5 -11,9 -17,14 -1,9 -3,18 -4,28z"/>
   <path fill="#4B7F5B" d="M835 284c2,37 4,73 6,109 0,0 0,0 0,0 -1,18 -1,36 -2,54 9,15 18,29 26,44 3,11 5,22 8,32 -7,14 -14,28 -21,42 -6,13 -12,25 -18,38 0,0 0,0 0,1 3,13 5,26 8,39 -6,20 -13,40 -19,60 -1,3 -3,6 -4,9 -3,9 -7,18 -11,27 -16,1 -31,3 -47,4 -9,10 -17,20 -26,30 -20,27 -40,55 -59,82 -2,2 -3,5 -4,7 -4,-4 -8,-8 -12,-12 -4,-4 -8,-7 -12,-11 -2,-4 -4,-8 -6,-12 -3,-3 -6,-6 -9,-10 -4,-4 -8,-8 -12,-12 -1,-5 -1,-10 -2,-15 1,-3 3,-7 4,-11 3,-1 7,-2 10,-3 3,-4 5,-8 8,-11 -2,-7 -3,-13 -5,-19 -6,-2 -11,-4 -17,-6 -6,0 -12,-1 -18,-1 -5,1 -10,2 -15,4 -3,4 -6,8 -9,13 -1,4 -2,7 -3,11 -3,4 -6,8 -9,13 -2,3 -5,7 -7,11 -6,9 -11,17 -17,25 -5,1 -10,2 -15,3 -4,2 -9,4 -14,6 -3,2 -6,4 -10,6 -8,1 -16,3 -25,4 -7,-1 -13,-2 -20,-3 -4,-1 -8,-3 -12,-5 -5,-1 -10,-3 -16,-5 -3,0 -6,0 -9,0 -3,0 -5,-1 -7,-1 -7,0 -15,0 -22,0 -5,0 -11,-1 -17,-2 -4,-4 -9,-9 -13,-14 -4,-2 -8,-4 -11,-7 -5,0 -10,0 -14,0 -5,2 -10,4 -14,5 -6,2 -12,4 -18,5 -8,2 -15,4 -22,5 -7,0 -13,0 -20,-1 -1,0 -1,0 -2,0 -7,0 -15,0 -22,0 -5,4 -11,8 -16,11 -3,4 -6,7 -9,10 -1,5 -1,11 -2,16 2,6 4,11 5,17 3,5 5,11 7,16 -2,3 -4,7 -6,10 -6,4 -12,9 -18,13 -4,5 -8,9 -12,14 -2,6 -4,12 -6,18 -4,8 -9,17 -13,26 -1,4 -2,8 -3,13 -4,5 -8,11 -12,17 -5,3 -11,6 -17,9 -8,-1 -15,-1 -22,-1 -6,-1 -12,-2 -18,-2 -4,-2 -7,-4 -11,-5 -4,-4 -8,-8 -12,-11 -4,-3 -7,-6 -11,-8 -2,0 -4,0 -6,0 0,-1 0,-3 0,-4 2,-5 5,-9 8,-13 3,-3 7,-7 11,-10 0,-4 0,-7 1,-11 -1,-8 -2,-16 -3,-23 -3,-5 -6,-10 -9,-15 -5,-5 -10,-10 -14,-15 -7,-3 -13,-6 -19,-9 -6,-2 -12,-5 -18,-7 -3,-2 -6,-5 -9,-8 -2,-3 -3,-7 -4,-10 0,-7 0,-14 0,-22 5,-5 9,-10 14,-16 6,-5 13,-10 20,-16 9,-5 18,-10 28,-15 7,-3 14,-7 22,-11 3,-2 7,-5 10,-8 3,-2 6,-4 8,-5 3,-7 6,-14 9,-21 5,-8 11,-16 17,-24 3,-7 6,-13 9,-19 4,-7 7,-13 11,-20 5,-4 10,-9 15,-14 5,-4 9,-8 13,-11 5,0 10,0 15,1 6,1 12,3 17,5 4,3 8,7 12,11 4,4 8,8 11,13 5,0 9,0 13,0 5,-3 11,-6 16,-8 5,-4 9,-7 14,-10 6,-2 12,-5 18,-7 2,-1 4,-2 7,-3 2,-1 5,-2 7,-3 3,-4 5,-7 8,-11 1,-5 2,-11 4,-16 0,-5 -1,-11 -1,-16 0,-27 -1,-54 -1,-81 2,-5 3,-10 5,-16 2,-8 5,-17 7,-26 5,-7 11,-14 16,-21 5,-9 10,-18 15,-28 5,-4 11,-8 17,-11 4,-6 8,-11 13,-16 2,-6 5,-12 8,-18 2,-7 4,-14 6,-20 0,-6 1,-12 2,-17 3,-4 5,-7 8,-10 3,-2 6,-4 8,-5 4,0 7,0 10,0 2,2 4,4 6,7 1,2 3,4 4,6 1,1 2,3 3,5 5,0 10,0 15,0 0,0 1,0 1,0 3,-3 6,-5 9,-7 3,-3 6,-5 9,-8 3,-3 5,-7 7,-10 3,-3 6,-5 9,-7 0,-3 -1,-6 -2,-9 -2,-4 -4,-7 -6,-11 1,-4 1,-8 2,-12 5,-6 9,-12 14,-17 7,-5 13,-10 19,-15 6,-4 12,-8 18,-12 8,-4 16,-8 24,-12 8,-4 16,-8 24,-12 7,-3 15,-7 22,-11 7,-2 13,-5 20,-8 1,0 2,0 3,-1 5,-2 10,-4 16,-7 5,-3 11,-7 17,-11 4,-3 8,-6 13,-9 3,-2 7,-4 10,-7 2,-2 3,-4 5,-6 3,-5 7,-10 10,-14 3,-6 6,-11 9,-16 6,-6 13,-12 19,-17 4,-4 9,-8 13,-12 8,-1 15,-3 22,-4 9,-3 17,-5 25,-7 9,-4 18,-7 27,-10 7,-4 14,-8 21,-12 8,-5 16,-10 24,-14 5,-4 9,-8 14,-12 2,5 4,9 5,14 1,7 3,15 4,22 1,6 1,12 2,17 0,6 0,12 0,18 2,5 3,9 5,14 2,5 5,10 7,15 1,7 2,13 3,20 2,6 3,12 5,18 2,7 4,13 6,20 1,4 2,9 3,13 1,7 3,13 4,19 -4,3 -9,7 -13,10 -17,0 -35,0 -52,0 -6,4 -11,9 -17,13 -1,10 -3,19 -4,28z"/>
   <path fill="#4F8460" d="M835 279c2,36 4,72 6,109 0,0 0,0 0,0 -1,18 -1,36 -2,54 9,15 18,29 26,44 3,10 5,21 8,32 -7,14 -14,28 -21,42 -6,12 -12,25 -18,38 0,0 0,0 0,0 3,13 5,26 8,39 -6,20 -13,40 -19,60 -1,3 -3,6 -4,9 -3,9 -7,18 -11,27 -16,2 -31,4 -47,5 -9,10 -17,19 -26,29 -20,28 -40,55 -59,83 -2,2 -3,4 -4,7 -4,-4 -8,-8 -12,-12 -4,-4 -8,-8 -12,-11 -2,-4 -4,-8 -6,-12 -3,-3 -6,-7 -9,-10 -4,-4 -8,-8 -12,-12 -1,-5 -1,-10 -2,-15 1,-4 3,-7 4,-11 3,-1 7,-2 10,-3 3,-4 5,-8 8,-12 -2,-6 -3,-12 -5,-18 -6,-2 -11,-4 -17,-7 -6,0 -12,0 -18,0 -5,1 -10,2 -15,3 -3,5 -6,9 -9,13 -1,4 -2,8 -3,12 -3,4 -6,8 -9,12 -2,4 -5,8 -7,12 -6,8 -11,17 -17,25 -5,1 -10,2 -15,3 -4,2 -9,4 -14,6 -3,2 -6,4 -10,6 -8,1 -16,2 -25,4 -7,-1 -13,-2 -20,-3 -4,-2 -8,-3 -12,-5 -5,-2 -10,-3 -16,-5 -3,0 -6,0 -9,-1 -3,0 -5,0 -7,0 -7,0 -15,0 -22,0 -5,-1 -11,-1 -17,-2 -4,-5 -9,-9 -13,-14 -4,-2 -8,-5 -11,-7 -5,0 -10,0 -14,0 -5,2 -10,3 -14,5 -6,2 -12,3 -18,5 -8,2 -15,3 -22,5 -7,0 -13,-1 -20,-1 -1,0 -1,0 -2,0 -7,0 -15,0 -22,0 -5,4 -11,7 -16,11 -3,3 -6,6 -9,10 -1,5 -1,10 -2,16 2,5 4,11 5,17 3,5 5,10 7,15 -2,4 -4,7 -6,11 -6,4 -12,8 -18,13 -4,4 -8,9 -12,14 -2,6 -4,11 -6,17 -4,9 -9,18 -13,26 -1,5 -2,9 -3,13 -4,6 -8,12 -12,17 -5,3 -11,6 -17,9 -8,0 -15,0 -22,-1 -6,0 -12,-1 -18,-2 -4,-1 -7,-3 -11,-5 -4,-3 -8,-7 -12,-11 -4,-2 -7,-5 -11,-8 -2,1 -4,1 -6,1 0,-2 0,-3 0,-5 2,-4 5,-8 8,-12 3,-4 7,-7 11,-10 0,-4 0,-8 1,-12 -1,-7 -2,-15 -3,-23 -3,-5 -6,-10 -9,-15 -5,-4 -10,-9 -14,-14 -7,-3 -13,-6 -19,-9 -6,-3 -12,-5 -18,-7 -3,-3 -6,-5 -9,-8 -2,-4 -3,-7 -4,-10 0,-8 0,-15 0,-22 5,-5 9,-11 14,-16 6,-5 13,-11 20,-16 9,-5 18,-10 28,-15 7,-4 14,-7 22,-11 3,-3 7,-6 10,-8 3,-2 6,-4 8,-6 3,-7 6,-13 9,-20 5,-8 11,-17 17,-25 3,-6 6,-12 9,-19 4,-6 7,-12 11,-19 5,-5 10,-10 15,-14 5,-4 9,-8 13,-12 5,1 10,1 15,1 6,2 12,4 17,5 4,4 8,8 12,11 4,5 8,9 11,13 5,0 9,0 13,0 5,-2 11,-5 16,-8 5,-3 9,-6 14,-9 6,-3 12,-5 18,-8 2,0 4,-1 7,-2 2,-1 5,-2 7,-4 3,-3 5,-7 8,-10 1,-6 2,-11 4,-16 0,-6 -1,-11 -1,-17 0,-27 -1,-53 -1,-80 2,-5 3,-11 5,-16 2,-9 5,-18 7,-26 5,-7 11,-14 16,-21 5,-9 10,-19 15,-28 5,-4 11,-8 17,-12 4,-5 8,-10 13,-16 2,-6 5,-12 8,-18 2,-6 4,-13 6,-20 0,-5 1,-11 2,-17 3,-3 5,-6 8,-9 3,-2 6,-4 8,-6 4,0 7,0 10,0 2,3 4,5 6,7 1,2 3,4 4,6 1,2 2,4 3,5 5,0 10,0 15,0 0,0 1,0 1,0 3,-2 6,-4 9,-6 3,-3 6,-6 9,-8 3,-4 5,-7 7,-11 3,-2 6,-4 9,-7 0,-3 -1,-6 -2,-9 -2,-3 -4,-7 -6,-10 1,-5 1,-9 2,-13 5,-5 9,-11 14,-17 7,-5 13,-10 19,-15 6,-3 12,-7 18,-11 8,-4 16,-8 24,-12 8,-4 16,-8 24,-12 7,-4 15,-7 22,-11 7,-3 13,-5 20,-8 1,0 2,-1 3,-1 5,-2 10,-5 16,-7 5,-4 11,-7 17,-11 4,-3 8,-6 13,-9 3,-2 7,-5 10,-7 2,-2 3,-4 5,-6 3,-5 7,-10 10,-15 3,-5 6,-10 9,-16 6,-5 13,-11 19,-17 4,-3 9,-7 13,-11 8,-1 15,-3 22,-5 9,-2 17,-4 25,-7 9,-3 18,-6 27,-9 7,-5 14,-9 21,-13 8,-4 16,-9 24,-14 5,-4 9,-8 14,-12 2,5 4,10 5,15 1,7 3,15 4,22 1,6 1,11 2,17 0,6 0,12 0,17 2,5 3,10 5,15 2,5 5,10 7,15 1,6 2,13 3,19 2,6 3,13 5,19 2,6 4,13 6,19 1,5 2,9 3,14 1,6 3,13 4,19 -4,3 -9,6 -13,9 -17,0 -35,0 -52,0 -6,5 -11,9 -17,14 -1,9 -3,19 -4,28z"/>
   <path fill="#548964" d="M835 274c2,36 4,72 6,108 0,0 0,1 0,1 -1,18 -1,36 -2,54 9,14 18,29 26,43 3,11 5,22 8,33 -7,14 -14,28 -21,41 -6,13 -12,26 -18,38 0,1 0,1 0,1 3,13 5,26 8,39 -6,20 -13,40 -19,60 -1,3 -3,6 -4,9 -3,9 -7,18 -11,27 -16,2 -31,3 -47,5 -9,9 -17,19 -26,29 -20,27 -40,55 -59,82 -2,3 -3,5 -4,7 -4,-4 -8,-8 -12,-12 -4,-3 -8,-7 -12,-11 -2,-3 -4,-7 -6,-11 -3,-4 -6,-7 -9,-11 -4,-4 -8,-7 -12,-11 -1,-5 -1,-10 -2,-15 1,-4 3,-8 4,-12 3,-1 7,-1 10,-2 3,-4 5,-8 8,-12 -2,-6 -3,-12 -5,-18 -6,-3 -11,-5 -17,-7 -6,0 -12,0 -18,0 -5,1 -10,2 -15,3 -3,4 -6,9 -9,13 -1,4 -2,8 -3,12 -3,4 -6,8 -9,12 -2,4 -5,8 -7,12 -6,8 -11,16 -17,24 -5,2 -10,3 -15,4 -4,2 -9,4 -14,5 -3,2 -6,4 -10,7 -8,1 -16,2 -25,3 -7,-1 -13,-2 -20,-3 -4,-1 -8,-3 -12,-4 -5,-2 -10,-4 -16,-5 -3,-1 -6,-1 -9,-1 -3,0 -5,0 -7,0 -7,0 -15,0 -22,0 -5,-1 -11,-2 -17,-2 -4,-5 -9,-10 -13,-14 -4,-3 -8,-5 -11,-7 -5,0 -10,0 -14,0 -5,1 -10,3 -14,5 -6,1 -12,3 -18,4 -8,2 -15,4 -22,6 -7,-1 -13,-1 -20,-1 -1,0 -1,0 -2,0 -7,0 -15,0 -22,0 -5,3 -11,7 -16,11 -3,3 -6,6 -9,9 -1,6 -1,11 -2,16 2,6 4,12 5,17 3,6 5,11 7,16 -2,4 -4,7 -6,10 -6,5 -12,9 -18,13 -4,5 -8,10 -12,14 -2,6 -4,12 -6,18 -4,9 -9,17 -13,26 -1,4 -2,9 -3,13 -4,6 -8,11 -12,17 -5,3 -11,6 -17,9 -8,0 -15,-1 -22,-1 -6,-1 -12,-1 -18,-2 -4,-2 -7,-3 -11,-5 -4,-4 -8,-7 -12,-11 -4,-3 -7,-5 -11,-8 -2,0 -4,0 -6,1 0,-2 0,-4 0,-5 2,-4 5,-9 8,-13 3,-3 7,-6 11,-10 0,-3 0,-7 1,-11 -1,-8 -2,-15 -3,-23 -3,-5 -6,-10 -9,-15 -5,-5 -10,-10 -14,-14 -7,-4 -13,-7 -19,-10 -6,-2 -12,-4 -18,-6 -3,-3 -6,-6 -9,-8 -2,-4 -3,-7 -4,-11 0,-7 0,-14 0,-21 5,-6 9,-11 14,-16 6,-6 13,-11 20,-16 9,-5 18,-10 28,-15 7,-4 14,-8 22,-12 3,-2 7,-5 10,-8 3,-1 6,-3 8,-5 3,-7 6,-14 9,-20 5,-9 11,-17 17,-25 3,-6 6,-13 9,-19 4,-6 7,-13 11,-19 5,-5 10,-10 15,-15 5,-4 9,-7 13,-11 5,0 10,1 15,1 6,2 12,3 17,5 4,4 8,7 12,11 4,4 8,9 11,13 5,0 9,0 13,0 5,-3 11,-5 16,-8 5,-3 9,-7 14,-10 6,-2 12,-5 18,-7 2,-1 4,-2 7,-3 2,-1 5,-2 7,-3 3,-4 5,-7 8,-11 1,-5 2,-10 4,-16 0,-5 -1,-11 -1,-16 0,-27 -1,-54 -1,-80 2,-6 3,-11 5,-16 2,-9 5,-18 7,-27 5,-6 11,-13 16,-20 5,-10 10,-19 15,-28 5,-4 11,-8 17,-12 4,-5 8,-11 13,-16 2,-6 5,-12 8,-18 2,-7 4,-13 6,-20 0,-6 1,-11 2,-17 3,-3 5,-7 8,-10 3,-2 6,-3 8,-5 4,0 7,0 10,0 2,2 4,5 6,7 1,2 3,4 4,6 1,2 2,3 3,5 5,0 10,0 15,0 0,0 1,0 1,0 3,-2 6,-5 9,-7 3,-2 6,-5 9,-8 3,-3 5,-7 7,-10 3,-2 6,-5 9,-7 0,-3 -1,-6 -2,-9 -2,-4 -4,-7 -6,-11 1,-4 1,-8 2,-12 5,-6 9,-11 14,-17 7,-5 13,-10 19,-15 6,-4 12,-8 18,-12 8,-4 16,-8 24,-12 8,-4 16,-8 24,-12 7,-3 15,-7 22,-10 7,-3 13,-6 20,-8 1,-1 2,-1 3,-1 5,-3 10,-5 16,-7 5,-4 11,-8 17,-12 4,-3 8,-6 13,-9 3,-2 7,-4 10,-7 2,-2 3,-4 5,-6 3,-4 7,-9 10,-14 3,-5 6,-11 9,-16 6,-6 13,-11 19,-17 4,-4 9,-8 13,-11 8,-2 15,-3 22,-5 9,-2 17,-5 25,-7 9,-3 18,-7 27,-10 7,-4 14,-8 21,-12 8,-5 16,-9 24,-14 5,-4 9,-8 14,-12 2,5 4,9 5,14 1,8 3,15 4,23 1,5 1,11 2,17 0,5 0,11 0,17 2,5 3,10 5,15 2,5 5,10 7,15 1,6 2,12 3,19 2,6 3,12 5,19 2,6 4,12 6,19 1,4 2,9 3,13 1,7 3,13 4,20 -4,3 -9,6 -13,9 -17,0 -35,0 -52,0 -6,5 -11,9 -17,14 -1,9 -3,18 -4,28z"/>
   <path fill="#588E69" d="M835 268c2,37 4,73 6,109 0,0 0,0 0,0 -1,18 -1,36 -2,54 9,15 18,29 26,44 3,11 5,22 8,32 -7,14 -14,28 -21,42 -6,13 -12,25 -18,38 0,0 0,0 0,0 3,13 5,26 8,39 -6,21 -13,41 -19,61 -1,3 -3,6 -4,8 -3,10 -7,19 -11,28 -16,1 -31,3 -47,4 -9,10 -17,20 -26,29 -20,28 -40,56 -59,83 -2,2 -3,5 -4,7 -4,-4 -8,-8 -12,-12 -4,-4 -8,-7 -12,-11 -2,-4 -4,-8 -6,-12 -3,-3 -6,-7 -9,-10 -4,-4 -8,-8 -12,-12 -1,-5 -1,-10 -2,-15 1,-3 3,-7 4,-11 3,-1 7,-2 10,-3 3,-4 5,-8 8,-12 -2,-6 -3,-12 -5,-18 -6,-2 -11,-4 -17,-6 -6,0 -12,-1 -18,-1 -5,1 -10,2 -15,3 -3,5 -6,9 -9,14 -1,3 -2,7 -3,11 -3,4 -6,8 -9,12 -2,4 -5,8 -7,12 -6,9 -11,17 -17,25 -5,1 -10,2 -15,3 -4,2 -9,4 -14,6 -3,2 -6,4 -10,6 -8,1 -16,3 -25,4 -7,-1 -13,-2 -20,-3 -4,-2 -8,-3 -12,-5 -5,-1 -10,-3 -16,-5 -3,0 -6,0 -9,0 -3,0 -5,-1 -7,-1 -7,0 -15,0 -22,0 -5,0 -11,-1 -17,-2 -4,-4 -9,-9 -13,-14 -4,-2 -8,-4 -11,-7 -5,0 -10,0 -14,0 -5,2 -10,4 -14,5 -6,2 -12,4 -18,5 -8,2 -15,4 -22,5 -7,0 -13,0 -20,-1 -1,0 -1,0 -2,0 -7,0 -15,0 -22,0 -5,4 -11,8 -16,11 -3,3 -6,7 -9,10 -1,5 -1,11 -2,16 2,6 4,11 5,17 3,5 5,10 7,16 -2,3 -4,7 -6,10 -6,4 -12,9 -18,13 -4,5 -8,9 -12,14 -2,6 -4,12 -6,18 -4,8 -9,17 -13,25 -1,5 -2,9 -3,14 -4,5 -8,11 -12,17 -5,3 -11,5 -17,8 -8,0 -15,0 -22,0 -6,-1 -12,-2 -18,-2 -4,-2 -7,-4 -11,-6 -4,-3 -8,-7 -12,-10 -4,-3 -7,-6 -11,-8 -2,0 -4,0 -6,0 0,-1 0,-3 0,-5 2,-4 5,-8 8,-12 3,-3 7,-7 11,-10 0,-4 0,-8 1,-11 -1,-8 -2,-16 -3,-23 -3,-5 -6,-10 -9,-15 -5,-5 -10,-10 -14,-15 -7,-3 -13,-6 -19,-9 -6,-2 -12,-5 -18,-7 -3,-2 -6,-5 -9,-8 -2,-3 -3,-7 -4,-10 0,-7 0,-14 0,-22 5,-5 9,-10 14,-16 6,-5 13,-10 20,-16 9,-5 18,-10 28,-15 7,-3 14,-7 22,-11 3,-3 7,-5 10,-8 3,-2 6,-4 8,-6 3,-6 6,-13 9,-20 5,-8 11,-16 17,-25 3,-6 6,-12 9,-18 4,-7 7,-13 11,-20 5,-4 10,-9 15,-14 5,-4 9,-8 13,-11 5,0 10,0 15,1 6,1 12,3 17,5 4,3 8,7 12,11 4,4 8,8 11,13 5,0 9,0 13,0 5,-3 11,-6 16,-8 5,-4 9,-7 14,-10 6,-3 12,-5 18,-7 2,-1 4,-2 7,-3 2,-1 5,-2 7,-3 3,-4 5,-7 8,-11 1,-5 2,-11 4,-16 0,-5 -1,-11 -1,-17 0,-26 -1,-53 -1,-80 2,-5 3,-10 5,-16 2,-8 5,-17 7,-26 5,-7 11,-14 16,-21 5,-9 10,-18 15,-28 5,-4 11,-8 17,-12 4,-5 8,-10 13,-15 2,-6 5,-12 8,-18 2,-7 4,-14 6,-20 0,-6 1,-12 2,-17 3,-4 5,-7 8,-10 3,-2 6,-4 8,-5 4,0 7,0 10,0 2,2 4,4 6,7 1,2 3,4 4,6 1,1 2,3 3,4 5,0 10,0 15,0 0,0 1,0 1,0 3,-2 6,-4 9,-6 3,-3 6,-5 9,-8 3,-4 5,-7 7,-10 3,-3 6,-5 9,-7 0,-3 -1,-6 -2,-9 -2,-4 -4,-8 -6,-11 1,-4 1,-8 2,-12 5,-6 9,-12 14,-17 7,-5 13,-10 19,-15 6,-4 12,-8 18,-12 8,-4 16,-8 24,-12 8,-4 16,-8 24,-12 7,-3 15,-7 22,-11 7,-2 13,-5 20,-8 1,0 2,0 3,-1 5,-2 10,-4 16,-7 5,-3 11,-7 17,-11 4,-3 8,-6 13,-9 3,-2 7,-5 10,-7 2,-2 3,-4 5,-6 3,-5 7,-10 10,-15 3,-5 6,-10 9,-15 6,-6 13,-12 19,-17 4,-4 9,-8 13,-12 8,-1 15,-3 22,-4 9,-3 17,-5 25,-7 9,-4 18,-7 27,-10 7,-4 14,-8 21,-12 8,-5 16,-10 24,-14 5,-4 9,-8 14,-12 2,4 4,9 5,14 1,7 3,15 4,22 1,6 1,12 2,17 0,6 0,12 0,18 2,4 3,9 5,14 2,5 5,10 7,15 1,7 2,13 3,19 2,7 3,13 5,19 2,7 4,13 6,19 1,5 2,10 3,14 1,6 3,13 4,19 -4,3 -9,7 -13,10 -17,0 -35,0 -52,0 -6,4 -11,9 -17,13 -1,10 -3,19 -4,28z"/>
   <path fill="#5C936D" d="M835 263c2,36 4,72 6,109 0,0 0,0 0,0 -1,18 -1,36 -2,54 9,14 18,29 26,44 3,10 5,21 8,32 -7,14 -14,28 -21,42 -6,12 -12,25 -18,38 0,0 0,0 0,0 3,13 5,26 8,39 -6,20 -13,40 -19,60 -1,3 -3,6 -4,9 -3,9 -7,18 -11,27 -16,2 -31,3 -47,5 -9,10 -17,19 -26,29 -20,28 -40,55 -59,83 -2,2 -3,4 -4,7 -4,-4 -8,-8 -12,-12 -4,-4 -8,-8 -12,-11 -2,-4 -4,-8 -6,-12 -3,-3 -6,-7 -9,-10 -4,-4 -8,-8 -12,-12 -1,-5 -1,-10 -2,-15 1,-4 3,-8 4,-11 3,-1 7,-2 10,-3 3,-4 5,-8 8,-12 -2,-6 -3,-12 -5,-18 -6,-2 -11,-5 -17,-7 -6,0 -12,0 -18,0 -5,1 -10,2 -15,3 -3,4 -6,9 -9,13 -1,4 -2,8 -3,12 -3,4 -6,8 -9,12 -2,4 -5,8 -7,12 -6,8 -11,16 -17,25 -5,1 -10,2 -15,3 -4,2 -9,4 -14,6 -3,2 -6,4 -10,6 -8,1 -16,2 -25,4 -7,-1 -13,-2 -20,-3 -4,-2 -8,-3 -12,-5 -5,-2 -10,-3 -16,-5 -3,0 -6,0 -9,-1 -3,0 -5,0 -7,0 -7,0 -15,0 -22,0 -5,-1 -11,-1 -17,-2 -4,-5 -9,-9 -13,-14 -4,-2 -8,-5 -11,-7 -5,0 -10,0 -14,0 -5,2 -10,3 -14,5 -6,2 -12,3 -18,5 -8,1 -15,3 -22,5 -7,0 -13,-1 -20,-1 -1,0 -1,0 -2,0 -7,0 -15,0 -22,0 -5,4 -11,7 -16,11 -3,3 -6,6 -9,10 -1,5 -1,10 -2,16 2,5 4,11 5,17 3,5 5,10 7,15 -2,4 -4,7 -6,11 -6,4 -12,8 -18,12 -4,5 -8,10 -12,15 -2,5 -4,11 -6,17 -4,9 -9,18 -13,26 -1,5 -2,9 -3,13 -4,6 -8,12 -12,17 -5,3 -11,6 -17,9 -8,0 -15,0 -22,-1 -6,0 -12,-1 -18,-2 -4,-1 -7,-3 -11,-5 -4,-3 -8,-7 -12,-11 -4,-2 -7,-5 -11,-8 -2,1 -4,1 -6,1 0,-2 0,-3 0,-5 2,-4 5,-8 8,-12 3,-4 7,-7 11,-10 0,-4 0,-8 1,-12 -1,-7 -2,-15 -3,-23 -3,-5 -6,-10 -9,-15 -5,-4 -10,-9 -14,-14 -7,-3 -13,-6 -19,-10 -6,-2 -12,-4 -18,-6 -3,-3 -6,-5 -9,-8 -2,-4 -3,-7 -4,-10 0,-8 0,-15 0,-22 5,-5 9,-11 14,-16 6,-5 13,-11 20,-16 9,-5 18,-10 28,-15 7,-4 14,-7 22,-11 3,-3 7,-6 10,-8 3,-2 6,-4 8,-6 3,-7 6,-13 9,-20 5,-8 11,-17 17,-25 3,-6 6,-12 9,-19 4,-6 7,-12 11,-19 5,-5 10,-10 15,-14 5,-4 9,-8 13,-12 5,1 10,1 15,1 6,2 12,4 17,5 4,4 8,8 12,11 4,5 8,9 11,13 5,0 9,0 13,0 5,-2 11,-5 16,-8 5,-3 9,-6 14,-9 6,-3 12,-5 18,-8 2,-1 4,-1 7,-2 2,-1 5,-3 7,-4 3,-3 5,-7 8,-10 1,-6 2,-11 4,-16 0,-6 -1,-11 -1,-17 0,-27 -1,-53 -1,-80 2,-5 3,-11 5,-16 2,-9 5,-18 7,-26 5,-7 11,-14 16,-21 5,-9 10,-19 15,-28 5,-4 11,-8 17,-12 4,-5 8,-10 13,-16 2,-6 5,-12 8,-18 2,-6 4,-13 6,-20 0,-5 1,-11 2,-17 3,-3 5,-6 8,-10 3,-1 6,-3 8,-5 4,0 7,0 10,0 2,3 4,5 6,7 1,2 3,4 4,6 1,2 2,4 3,5 5,0 10,0 15,0 0,0 1,0 1,0 3,-2 6,-4 9,-6 3,-3 6,-6 9,-8 3,-4 5,-7 7,-11 3,-2 6,-4 9,-7 0,-3 -1,-6 -2,-9 -2,-3 -4,-7 -6,-10 1,-5 1,-9 2,-13 5,-5 9,-11 14,-17 7,-5 13,-10 19,-15 6,-4 12,-7 18,-11 8,-4 16,-8 24,-13 8,-3 16,-7 24,-11 7,-4 15,-7 22,-11 7,-3 13,-5 20,-8 1,0 2,-1 3,-1 5,-2 10,-5 16,-7 5,-4 11,-8 17,-11 4,-3 8,-6 13,-9 3,-3 7,-5 10,-7 2,-2 3,-4 5,-6 3,-5 7,-10 10,-15 3,-5 6,-11 9,-16 6,-5 13,-11 19,-17 4,-3 9,-7 13,-11 8,-2 15,-3 22,-5 9,-2 17,-4 25,-7 9,-3 18,-6 27,-10 7,-4 14,-8 21,-12 8,-4 16,-9 24,-14 5,-4 9,-8 14,-12 2,5 4,10 5,14 1,8 3,16 4,23 1,6 1,11 2,17 0,6 0,11 0,17 2,5 3,10 5,15 2,5 5,10 7,15 1,6 2,13 3,19 2,6 3,13 5,19 2,6 4,13 6,19 1,5 2,9 3,14 1,6 3,13 4,19 -4,3 -9,6 -13,9 -17,0 -35,0 -52,0 -6,5 -11,9 -17,14 -1,9 -3,19 -4,28z"/>
   <path fill="#609872" d="M835 258c2,36 4,72 6,108 0,0 0,0 0,1 -1,18 -1,36 -2,54 9,14 18,29 26,43 3,11 5,22 8,33 -7,14 -14,27 -21,41 -6,13 -12,26 -18,38 0,1 0,1 0,1 3,13 5,26 8,39 -6,20 -13,40 -19,60 -1,3 -3,6 -4,9 -3,9 -7,18 -11,27 -16,2 -31,3 -47,5 -9,9 -17,19 -26,29 -20,27 -40,55 -59,82 -2,3 -3,5 -4,7 -4,-4 -8,-8 -12,-12 -4,-3 -8,-7 -12,-11 -2,-4 -4,-7 -6,-11 -3,-4 -6,-7 -9,-11 -4,-4 -8,-7 -12,-11 -1,-5 -1,-10 -2,-15 1,-4 3,-8 4,-12 3,-1 7,-2 10,-2 3,-4 5,-8 8,-12 -2,-6 -3,-12 -5,-19 -6,-2 -11,-4 -17,-6 -6,0 -12,0 -18,0 -5,1 -10,2 -15,3 -3,4 -6,9 -9,13 -1,4 -2,8 -3,12 -3,4 -6,8 -9,12 -2,4 -5,8 -7,12 -6,8 -11,16 -17,24 -5,2 -10,3 -15,4 -4,2 -9,3 -14,5 -3,2 -6,4 -10,6 -8,2 -16,3 -25,4 -7,-1 -13,-2 -20,-3 -4,-1 -8,-3 -12,-4 -5,-2 -10,-4 -16,-6 -3,0 -6,0 -9,0 -3,0 -5,0 -7,0 -7,0 -15,0 -22,0 -5,-1 -11,-2 -17,-2 -4,-5 -9,-10 -13,-14 -4,-3 -8,-5 -11,-7 -5,0 -10,0 -14,0 -5,1 -10,3 -14,5 -6,1 -12,3 -18,4 -8,2 -15,4 -22,6 -7,-1 -13,-1 -20,-1 -1,0 -1,0 -2,0 -7,0 -15,0 -22,0 -5,3 -11,7 -16,10 -3,4 -6,7 -9,10 -1,6 -1,11 -2,16 2,6 4,12 5,17 3,5 5,11 7,16 -2,4 -4,7 -6,10 -6,5 -12,9 -18,13 -4,5 -8,10 -12,14 -2,6 -4,12 -6,18 -4,9 -9,17 -13,26 -1,4 -2,9 -3,13 -4,6 -8,11 -12,17 -5,3 -11,6 -17,9 -8,-1 -15,-1 -22,-1 -6,-1 -12,-1 -18,-2 -4,-2 -7,-4 -11,-5 -4,-4 -8,-7 -12,-11 -4,-3 -7,-5 -11,-8 -2,0 -4,0 -6,0 0,-1 0,-3 0,-4 2,-4 5,-9 8,-13 3,-3 7,-6 11,-10 0,-3 0,-7 1,-11 -1,-8 -2,-15 -3,-23 -3,-5 -6,-10 -9,-15 -5,-5 -10,-10 -14,-15 -7,-3 -13,-6 -19,-9 -6,-2 -12,-4 -18,-7 -3,-2 -6,-5 -9,-7 -2,-4 -3,-7 -4,-11 0,-7 0,-14 0,-21 5,-6 9,-11 14,-16 6,-6 13,-11 20,-16 9,-5 18,-10 28,-15 7,-4 14,-8 22,-12 3,-2 7,-5 10,-8 3,-1 6,-3 8,-5 3,-7 6,-14 9,-20 5,-9 11,-17 17,-25 3,-6 6,-13 9,-19 4,-6 7,-13 11,-19 5,-5 10,-10 15,-15 5,-4 9,-7 13,-11 5,0 10,1 15,1 6,2 12,3 17,5 4,4 8,7 12,11 4,4 8,9 11,13 5,0 9,0 13,0 5,-3 11,-5 16,-8 5,-3 9,-7 14,-10 6,-2 12,-5 18,-7 2,-1 4,-2 7,-3 2,-1 5,-2 7,-3 3,-4 5,-7 8,-11 1,-5 2,-10 4,-16 0,-5 -1,-11 -1,-16 0,-27 -1,-54 -1,-80 2,-6 3,-11 5,-16 2,-9 5,-18 7,-27 5,-7 11,-13 16,-20 5,-10 10,-19 15,-28 5,-4 11,-8 17,-12 4,-6 8,-11 13,-16 2,-6 5,-12 8,-18 2,-7 4,-13 6,-20 0,-6 1,-11 2,-17 3,-3 5,-7 8,-10 3,-2 6,-3 8,-5 4,0 7,0 10,0 2,2 4,5 6,7 1,2 3,4 4,6 1,2 2,3 3,5 5,0 10,0 15,0 0,0 1,0 1,0 3,-2 6,-5 9,-7 3,-2 6,-5 9,-8 3,-3 5,-7 7,-10 3,-2 6,-5 9,-7 0,-3 -1,-6 -2,-9 -2,-4 -4,-7 -6,-11 1,-4 1,-8 2,-12 5,-6 9,-11 14,-17 7,-5 13,-10 19,-15 6,-4 12,-8 18,-12 8,-4 16,-8 24,-12 8,-4 16,-8 24,-12 7,-3 15,-7 22,-10 7,-3 13,-6 20,-8 1,-1 2,-1 3,-1 5,-3 10,-5 16,-7 5,-4 11,-8 17,-12 4,-3 8,-6 13,-9 3,-2 7,-4 10,-7 2,-2 3,-4 5,-6 3,-5 7,-9 10,-14 3,-6 6,-11 9,-16 6,-6 13,-11 19,-17 4,-4 9,-8 13,-11 8,-2 15,-3 22,-5 9,-2 17,-5 25,-7 9,-3 18,-7 27,-10 7,-4 14,-8 21,-12 8,-5 16,-9 24,-14 5,-4 9,-8 14,-12 2,5 4,9 5,14 1,8 3,15 4,23 1,5 1,11 2,17 0,5 0,11 0,17 2,5 3,10 5,14 2,6 5,11 7,16 1,6 2,12 3,19 2,6 3,12 5,18 2,7 4,13 6,20 1,4 2,9 3,13 1,7 3,13 4,20 -4,3 -9,6 -13,9 -17,0 -35,0 -52,0 -6,5 -11,9 -17,14 -1,9 -3,18 -4,28z"/>
   <path fill="#659D76" d="M835 252c2,37 4,73 6,109 0,0 0,0 0,0 -1,18 -1,36 -2,54 9,15 18,29 26,44 3,11 5,21 8,32 -7,14 -14,28 -21,42 -6,13 -12,25 -18,38 0,0 0,0 0,0 3,13 5,26 8,39 -6,20 -13,40 -19,61 -1,3 -3,5 -4,8 -3,9 -7,19 -11,28 -16,1 -31,3 -47,4 -9,10 -17,20 -26,29 -20,28 -40,55 -59,83 -2,2 -3,5 -4,7 -4,-4 -8,-8 -12,-12 -4,-4 -8,-7 -12,-11 -2,-4 -4,-8 -6,-12 -3,-3 -6,-7 -9,-10 -4,-4 -8,-8 -12,-12 -1,-5 -1,-10 -2,-15 1,-4 3,-7 4,-11 3,-1 7,-2 10,-3 3,-4 5,-8 8,-12 -2,-6 -3,-12 -5,-18 -6,-2 -11,-4 -17,-6 -6,-1 -12,-1 -18,-1 -5,1 -10,2 -15,3 -3,5 -6,9 -9,14 -1,3 -2,7 -3,11 -3,4 -6,8 -9,12 -2,4 -5,8 -7,12 -6,8 -11,17 -17,25 -5,1 -10,2 -15,3 -4,2 -9,4 -14,6 -3,2 -6,4 -10,6 -8,1 -16,3 -25,4 -7,-1 -13,-2 -20,-3 -4,-2 -8,-3 -12,-5 -5,-1 -10,-3 -16,-5 -3,0 -6,0 -9,0 -3,0 -5,-1 -7,-1 -7,0 -15,0 -22,0 -5,0 -11,-1 -17,-2 -4,-4 -9,-9 -13,-14 -4,-2 -8,-4 -11,-7 -5,0 -10,0 -14,0 -5,2 -10,4 -14,5 -6,2 -12,4 -18,5 -8,2 -15,4 -22,5 -7,0 -13,0 -20,-1 -1,0 -1,0 -2,0 -7,0 -15,0 -22,0 -5,4 -11,8 -16,11 -3,3 -6,7 -9,10 -1,5 -1,11 -2,16 2,6 4,11 5,17 3,5 5,10 7,16 -2,3 -4,7 -6,10 -6,4 -12,9 -18,13 -4,4 -8,9 -12,14 -2,6 -4,12 -6,18 -4,8 -9,17 -13,25 -1,5 -2,9 -3,14 -4,5 -8,11 -12,17 -5,2 -11,5 -17,8 -8,0 -15,0 -22,-1 -6,0 -12,-1 -18,-1 -4,-2 -7,-4 -11,-6 -4,-3 -8,-7 -12,-10 -4,-3 -7,-6 -11,-8 -2,0 -4,0 -6,0 0,-1 0,-3 0,-5 2,-4 5,-8 8,-12 3,-3 7,-7 11,-10 0,-4 0,-8 1,-11 -1,-8 -2,-16 -3,-23 -3,-5 -6,-10 -9,-15 -5,-5 -10,-10 -14,-15 -7,-3 -13,-6 -19,-9 -6,-2 -12,-5 -18,-7 -3,-3 -6,-5 -9,-8 -2,-3 -3,-7 -4,-10 0,-7 0,-15 0,-22 5,-5 9,-10 14,-16 6,-5 13,-10 20,-16 9,-5 18,-10 28,-15 7,-3 14,-7 22,-11 3,-3 7,-5 10,-8 3,-2 6,-4 8,-6 3,-6 6,-13 9,-20 5,-8 11,-16 17,-25 3,-6 6,-12 9,-18 4,-7 7,-13 11,-20 5,-4 10,-9 15,-14 5,-4 9,-8 13,-11 5,0 10,0 15,1 6,1 12,3 17,5 4,3 8,7 12,10 4,5 8,9 11,14 5,0 9,0 13,0 5,-3 11,-6 16,-8 5,-4 9,-7 14,-10 6,-3 12,-5 18,-7 2,-1 4,-2 7,-3 2,-1 5,-2 7,-3 3,-4 5,-8 8,-11 1,-5 2,-11 4,-16 0,-6 -1,-11 -1,-17 0,-26 -1,-53 -1,-80 2,-5 3,-10 5,-16 2,-9 5,-17 7,-26 5,-7 11,-14 16,-21 5,-9 10,-18 15,-28 5,-4 11,-8 17,-12 4,-5 8,-10 13,-15 2,-6 5,-12 8,-18 2,-7 4,-14 6,-21 0,-5 1,-11 2,-16 3,-4 5,-7 8,-10 3,-2 6,-4 8,-5 4,0 7,0 10,0 2,2 4,4 6,7 1,2 3,4 4,6 1,1 2,3 3,4 5,0 10,0 15,0 0,0 1,0 1,0 3,-2 6,-4 9,-6 3,-3 6,-6 9,-8 3,-4 5,-7 7,-10 3,-3 6,-5 9,-7 0,-3 -1,-6 -2,-9 -2,-4 -4,-8 -6,-11 1,-4 1,-8 2,-12 5,-6 9,-12 14,-17 7,-5 13,-10 19,-15 6,-4 12,-8 18,-12 8,-4 16,-8 24,-12 8,-4 16,-8 24,-12 7,-4 15,-7 22,-11 7,-2 13,-5 20,-8 1,0 2,0 3,-1 5,-2 10,-4 16,-7 5,-3 11,-7 17,-11 4,-3 8,-6 13,-9 3,-2 7,-5 10,-7 2,-2 3,-4 5,-6 3,-5 7,-10 10,-15 3,-5 6,-10 9,-16 6,-5 13,-11 19,-16 4,-4 9,-8 13,-12 8,-1 15,-3 22,-4 9,-3 17,-5 25,-7 9,-4 18,-7 27,-10 7,-4 14,-8 21,-12 8,-5 16,-10 24,-15 5,-3 9,-7 14,-11 2,4 4,9 5,14 1,7 3,15 4,22 1,6 1,12 2,17 0,6 0,12 0,18 2,4 3,9 5,14 2,5 5,10 7,15 1,7 2,13 3,19 2,7 3,13 5,19 2,7 4,13 6,19 1,5 2,9 3,14 1,6 3,13 4,19 -4,3 -9,7 -13,10 -17,0 -35,0 -52,0 -6,4 -11,9 -17,13 -1,10 -3,19 -4,28z"/>
   <path fill="#69A27B" d="M835 247c2,36 4,72 6,108 0,1 0,1 0,1 -1,18 -1,36 -2,54 9,14 18,29 26,43 3,11 5,22 8,33 -7,14 -14,28 -21,42 -6,12 -12,25 -18,38 0,0 0,0 0,0 3,13 5,26 8,39 -6,20 -13,40 -19,60 -1,3 -3,6 -4,9 -3,9 -7,18 -11,27 -16,2 -31,3 -47,5 -9,10 -17,19 -26,29 -20,28 -40,55 -59,83 -2,2 -3,4 -4,7 -4,-4 -8,-8 -12,-13 -4,-3 -8,-7 -12,-10 -2,-4 -4,-8 -6,-12 -3,-4 -6,-7 -9,-10 -4,-4 -8,-8 -12,-12 -1,-5 -1,-10 -2,-15 1,-4 3,-8 4,-11 3,-1 7,-2 10,-3 3,-4 5,-8 8,-12 -2,-6 -3,-12 -5,-18 -6,-2 -11,-5 -17,-7 -6,0 -12,0 -18,0 -5,1 -10,2 -15,3 -3,4 -6,9 -9,13 -1,4 -2,8 -3,12 -3,4 -6,8 -9,12 -2,4 -5,8 -7,12 -6,8 -11,16 -17,25 -5,1 -10,2 -15,3 -4,2 -9,4 -14,6 -3,2 -6,4 -10,6 -8,1 -16,2 -25,3 -7,0 -13,-1 -20,-2 -4,-2 -8,-4 -12,-5 -5,-2 -10,-4 -16,-5 -3,0 -6,-1 -9,-1 -3,0 -5,0 -7,0 -7,0 -15,0 -22,0 -5,-1 -11,-1 -17,-2 -4,-5 -9,-9 -13,-14 -4,-2 -8,-5 -11,-7 -5,0 -10,0 -14,0 -5,2 -10,3 -14,5 -6,2 -12,3 -18,5 -8,1 -15,3 -22,5 -7,0 -13,-1 -20,-1 -1,0 -1,0 -2,0 -7,0 -15,0 -22,0 -5,4 -11,7 -16,11 -3,3 -6,6 -9,10 -1,5 -1,10 -2,16 2,5 4,11 5,16 3,6 5,11 7,16 -2,4 -4,7 -6,11 -6,4 -12,8 -18,12 -4,5 -8,10 -12,15 -2,5 -4,11 -6,17 -4,9 -9,17 -13,26 -1,4 -2,9 -3,13 -4,6 -8,12 -12,17 -5,3 -11,6 -17,9 -8,0 -15,-1 -22,-1 -6,0 -12,-1 -18,-2 -4,-1 -7,-3 -11,-5 -4,-4 -8,-7 -12,-11 -4,-2 -7,-5 -11,-8 -2,0 -4,1 -6,1 0,-2 0,-3 0,-5 2,-4 5,-8 8,-13 3,-3 7,-6 11,-9 0,-4 0,-8 1,-12 -1,-7 -2,-15 -3,-23 -3,-5 -6,-10 -9,-15 -5,-5 -10,-9 -14,-14 -7,-3 -13,-6 -19,-10 -6,-2 -12,-4 -18,-6 -3,-3 -6,-6 -9,-8 -2,-4 -3,-7 -4,-11 0,-7 0,-14 0,-21 5,-5 9,-11 14,-16 6,-5 13,-11 20,-16 9,-5 18,-10 28,-15 7,-4 14,-8 22,-11 3,-3 7,-6 10,-8 3,-2 6,-4 8,-6 3,-7 6,-13 9,-20 5,-8 11,-17 17,-25 3,-6 6,-12 9,-19 4,-6 7,-13 11,-19 5,-5 10,-10 15,-14 5,-4 9,-8 13,-12 5,1 10,1 15,1 6,2 12,4 17,5 4,4 8,8 12,11 4,5 8,9 11,13 5,0 9,0 13,0 5,-2 11,-5 16,-8 5,-3 9,-6 14,-10 6,-2 12,-4 18,-7 2,-1 4,-2 7,-2 2,-2 5,-3 7,-4 3,-3 5,-7 8,-10 1,-6 2,-11 4,-16 0,-6 -1,-11 -1,-17 0,-27 -1,-53 -1,-80 2,-5 3,-11 5,-16 2,-9 5,-18 7,-26 5,-7 11,-14 16,-21 5,-9 10,-19 15,-28 5,-4 11,-8 17,-12 4,-5 8,-11 13,-16 2,-6 5,-12 8,-18 2,-6 4,-13 6,-20 0,-6 1,-11 2,-17 3,-3 5,-6 8,-10 3,-1 6,-3 8,-5 4,0 7,0 10,0 2,3 4,5 6,7 1,2 3,4 4,6 1,2 2,4 3,5 5,0 10,0 15,0 0,0 1,0 1,0 3,-2 6,-4 9,-7 3,-2 6,-5 9,-8 3,-3 5,-6 7,-10 3,-2 6,-4 9,-7 0,-3 -1,-6 -2,-9 -2,-3 -4,-7 -6,-11 1,-4 1,-8 2,-12 5,-5 9,-11 14,-17 7,-5 13,-10 19,-15 6,-4 12,-7 18,-11 8,-4 16,-9 24,-13 8,-3 16,-7 24,-11 7,-4 15,-8 22,-11 7,-3 13,-5 20,-8 1,0 2,-1 3,-1 5,-2 10,-5 16,-7 5,-4 11,-8 17,-11 4,-3 8,-6 13,-9 3,-3 7,-5 10,-7 2,-2 3,-4 5,-6 3,-5 7,-10 10,-15 3,-5 6,-11 9,-16 6,-6 13,-11 19,-17 4,-4 9,-7 13,-11 8,-2 15,-3 22,-5 9,-2 17,-4 25,-7 9,-3 18,-6 27,-10 7,-4 14,-8 21,-12 8,-5 16,-9 24,-14 5,-4 9,-8 14,-12 2,5 4,10 5,14 1,8 3,15 4,23 1,6 1,11 2,17 0,6 0,11 0,17 2,5 3,10 5,15 2,5 5,10 7,15 1,6 2,13 3,19 2,6 3,13 5,19 2,6 4,13 6,19 1,5 2,9 3,14 1,6 3,12 4,19 -4,3 -9,6 -13,9 -17,0 -35,0 -52,0 -6,5 -11,9 -17,14 -1,9 -3,19 -4,28z"/>
  </g>
  <polygon fill="#6DA77F" points="835,242 841,350 841,351 839,404 865,448 873,481 852,522 834,560 834,561 842,600 823,660 819,669 808,696 761,701 735,730 676,812 672,819 660,807 648,796 642,785 633,774 621,763 619,748 623,736 633,733 641,722 636,703 619,697 601,696 586,700 577,713 574,725 565,737 558,749 541,773 526,777 512,782 502,788 477,792 457,789 445,785 429,779 420,779 413,779 391,779 374,777 361,763 350,756 336,756 322,761 304,765 282,771 262,770 260,770 238,770 222,780 213,790 211,806 216,823 223,839 217,849 199,862 187,876 181,894 168,920 165,933 153,950 136,959 114,958 96,956 85,951 73,940 62,932 56,932 56,928 64,915 75,905 76,894 73,871 64,856 50,841 31,832 13,825 4,817 0,807 0,786 14,770 34,754 62,739 84,727 94,719 102,714 111,694 128,669 137,650 148,631 163,616 176,605 191,606 208,611 220,622 231,635 244,635 260,627 274,617 292,610 299,607 306,604 314,593 318,577 317,561 316,481 321,465 328,438 344,418 359,390 376,378 389,362 397,344 403,324 405,307 413,297 421,292 431,292 437,299 441,305 444,310 459,310 460,310 469,303 478,295 485,285 494,278 492,269 486,258 488,246 502,229 521,214 539,202 563,190 587,178 609,168 629,160 632,159 648,152 665,140 678,131 688,124 693,118 703,104 712,88 731,71 744,60 766,55 791,48 818,38 839,26 863,12 877,0 882,14 886,37 888,54 888,71 893,85 900,100 903,120 908,138 914,158 917,171 921,191 908,200 856,200 839,214 "/>
 </g>
</svg>
