<?xml version="1.0" encoding="UTF-8"?>
<!DOCTYPE svg PUBLIC "-//W3C//DTD SVG 1.1//EN" "http://www.w3.org/Graphics/SVG/1.1/DTD/svg11.dtd">
<!-- Creator: CorelDRAW X8 -->
<svg xmlns="http://www.w3.org/2000/svg" xml:space="preserve" width="100%" height="100%" version="1.1" shape-rendering="geometricPrecision" text-rendering="geometricPrecision" image-rendering="optimizeQuality" fill-rule="evenodd" clip-rule="evenodd"
viewBox="0 0 1343 1335"
 xmlns:xlink="http://www.w3.org/1999/xlink">
 <g id="Layer_x0020_1">
  <metadata id="CorelCorpID_0Corel-Layer"/>
  <polygon fill="#143D21" points="648,278 691,332 713,347 730,359 778,362 808,355 850,371 894,407 916,427 977,456 994,464 1025,481 1027,528 1036,538 1097,560 1161,580 1219,583 1238,603 1268,652 1342,681 1343,704 1280,705 1283,773 1257,797 1184,823 1141,864 1123,884 1096,927 1064,980 1039,1014 1040,1051 1040,1080 1013,1138 969,1196 969,1197 947,1245 944,1260 955,1282 981,1302 965,1314 954,1331 935,1335 915,1323 899,1304 874,1284 859,1275 833,1282 813,1291 794,1292 778,1283 753,1267 730,1264 711,1268 692,1243 649,1208 612,1184 591,1170 571,1145 554,1129 540,1134 515,1146 495,1144 481,1136 461,1100 430,1079 421,1072 425,1063 447,1058 472,1047 474,1033 477,1024 463,1012 409,985 374,961 355,940 321,892 295,865 280,867 275,871 260,882 238,894 203,894 177,918 156,934 142,934 114,925 109,896 105,876 85,874 63,885 47,897 38,876 36,842 37,810 40,754 48,724 72,705 100,679 105,666 107,661 102,650 78,636 57,625 38,622 25,616 19,598 11,593 30,577 47,556 57,537 65,518 69,509 68,495 57,480 39,472 32,460 32,434 29,413 41,402 50,395 60,389 68,378 75,364 86,346 92,339 96,334 99,314 104,296 113,284 127,274 138,270 156,268 169,263 191,257 211,250 227,238 250,237 271,234 286,224 299,215 320,221 343,231 365,236 390,247 408,251 421,255 437,264 455,261 473,265 482,275 490,285 502,290 515,291 525,280 528,265 528,249 522,236 517,222 510,210 505,202 496,186 522,167 537,148 553,151 599,210 "/>
  <g id="_348177451792">
   <path fill="#184225" d="M647 271c14,18 29,36 43,54 7,5 15,10 22,15 6,4 12,8 17,12 17,1 33,2 49,3 10,-3 19,-5 29,-7 14,5 28,11 42,16 15,12 30,24 45,36 7,7 14,13 21,20 21,10 41,19 62,29 5,2 11,5 17,8 10,5 20,11 30,17 1,16 2,31 2,47 3,3 6,7 10,10 20,7 40,14 60,22 22,6 43,13 65,20 19,1 38,2 57,3 7,7 13,13 19,20 10,16 21,33 31,49 24,10 49,19 74,29 0,8 0,15 1,23 -21,0 -43,1 -64,1 1,23 2,45 3,68 -8,8 -17,16 -26,24 -24,8 -48,17 -72,25 -15,14 -29,28 -44,42 -6,7 -12,13 -18,20 -9,14 -17,29 -26,43 -11,18 -21,35 -32,53 -9,11 -17,22 -26,33 1,13 1,25 1,38 0,10 0,19 1,29 -9,20 -18,39 -27,58 -15,20 -30,39 -44,58 0,0 -1,1 -1,1 -7,16 -14,32 -21,48 -1,5 -3,10 -4,15 4,7 8,14 12,22 8,6 17,13 25,19 -5,5 -10,9 -15,13 -4,6 -8,11 -12,17 -6,1 -12,2 -19,4 -6,-4 -13,-8 -19,-13 -6,-6 -11,-12 -17,-18 -8,-6 -17,-13 -25,-20 -5,-3 -9,-6 -14,-9 -9,2 -17,5 -26,7 -7,3 -14,6 -20,9 -7,0 -13,1 -20,1 -5,-3 -10,-6 -15,-9 -9,-5 -17,-11 -26,-16 -8,-1 -15,-2 -23,-3 -6,1 -12,2 -18,4 -6,-8 -13,-17 -19,-25 -15,-12 -29,-24 -44,-36 -12,-7 -25,-15 -37,-23 -7,-5 -14,-9 -21,-14 -6,-8 -13,-16 -19,-25 -6,-5 -12,-10 -18,-16 -4,2 -9,4 -13,5 -9,4 -17,8 -25,12 -7,-1 -14,-1 -21,-2 -4,-3 -9,-5 -14,-8 -6,-12 -13,-24 -20,-36 -10,-7 -20,-14 -30,-21 -3,-3 -6,-5 -9,-7 1,-3 2,-6 4,-9 7,-1 14,-3 22,-5 8,-4 16,-8 24,-11 1,-5 2,-9 3,-14 1,-3 2,-6 2,-9 -4,-4 -9,-8 -13,-12 -18,-9 -36,-18 -55,-27 -11,-8 -23,-16 -34,-24 -7,-7 -13,-14 -20,-21 -11,-16 -22,-32 -34,-48 -9,-9 -17,-18 -26,-27 -5,1 -10,2 -14,2 -2,1 -4,3 -5,4 -5,4 -10,7 -15,11 -8,4 -15,8 -23,12 -11,0 -23,0 -34,0 -9,8 -18,16 -26,24 -7,5 -14,10 -21,15 -5,0 -9,0 -14,0 -10,-2 -19,-5 -29,-8 -1,-9 -3,-19 -5,-29 -1,-7 -3,-13 -4,-20 -6,-1 -13,-1 -19,-2 -7,4 -15,8 -22,11 -6,4 -11,8 -17,12 -3,-7 -5,-14 -8,-21 -1,-12 -2,-23 -3,-34 1,-11 1,-21 2,-32 1,-18 1,-37 2,-56 3,-10 6,-20 9,-30 8,-7 15,-13 23,-19 10,-9 19,-18 28,-27 2,-4 4,-8 5,-12 1,-2 2,-4 2,-5 -1,-4 -3,-8 -5,-11 -7,-5 -15,-10 -23,-14 -7,-4 -15,-7 -22,-11 -6,-1 -12,-2 -18,-3 -5,-2 -9,-4 -13,-6 -2,-6 -4,-12 -6,-18 -3,-2 -6,-3 -9,-5 7,-5 13,-11 20,-16 5,-7 11,-14 16,-21 4,-6 7,-13 11,-19 2,-6 5,-13 8,-19 1,-3 2,-6 3,-9 0,-5 0,-10 0,-15 -4,-4 -8,-9 -11,-14 -6,-3 -12,-5 -18,-8 -3,-4 -5,-8 -7,-12 0,-8 0,-17 0,-26 -1,-7 -2,-14 -3,-21 4,-4 7,-8 11,-11 3,-3 7,-5 10,-7 3,-2 6,-4 9,-6 3,-4 6,-7 9,-11 2,-4 4,-9 7,-14 3,-6 7,-12 11,-18 2,-2 3,-5 5,-7 2,-2 3,-4 4,-5 2,-7 3,-14 4,-20 2,-6 3,-12 5,-18 3,-4 6,-8 9,-12 4,-3 9,-6 13,-10 4,-1 8,-3 11,-4 6,-1 13,-1 19,-2 4,-2 8,-3 13,-5 7,-2 14,-4 21,-6 7,-2 14,-5 20,-7 6,-4 11,-8 17,-12 7,0 15,0 22,-1 8,-1 15,-2 22,-3 5,-4 10,-7 15,-10 4,-3 8,-6 13,-9 7,2 14,4 21,6 7,3 15,7 23,10 7,2 14,3 22,5 8,4 16,7 24,11 6,1 12,2 18,4 5,1 9,3 14,4 5,3 10,6 15,8 7,-1 13,-2 19,-2 6,1 11,3 17,4 3,3 6,7 9,10 3,3 5,7 8,10 4,1 9,3 13,4 4,1 8,1 13,2 3,-4 6,-8 10,-11 1,-5 1,-10 2,-15 0,-6 0,-11 0,-16 -2,-5 -4,-9 -6,-14 -1,-4 -3,-8 -4,-13 -3,-4 -5,-8 -8,-12 -1,-3 -3,-5 -4,-8 -3,-6 -7,-11 -10,-16 9,-7 18,-13 27,-19 4,-6 9,-12 14,-19 6,1 11,2 16,3 16,20 31,39 47,58 16,23 32,46 48,69z"/>
   <path fill="#1C472A" d="M647 264c14,18 28,36 43,54 7,5 14,10 22,15 5,4 11,8 17,12 16,1 32,2 48,2 10,-2 20,-4 30,-7 14,6 28,12 42,17 15,12 29,24 44,36 8,7 15,13 22,20 20,10 41,19 61,28 6,3 12,6 17,9 10,5 21,11 31,17 1,16 1,31 2,47 3,3 6,7 9,10 20,7 41,14 61,21 21,7 43,14 64,21 20,1 39,2 58,3 6,7 12,13 19,20 10,16 20,33 30,49 25,9 49,19 74,29 0,7 1,15 1,23 -21,0 -42,1 -63,1 1,23 2,45 3,68 -9,8 -18,16 -26,24 -25,8 -49,17 -73,25 -14,14 -29,28 -43,42 -6,7 -12,13 -18,19 -9,15 -18,29 -27,44 -10,18 -21,35 -32,53 -8,11 -17,22 -25,33 0,13 0,25 1,38 0,9 0,19 0,29 -9,20 -18,39 -27,58 -14,19 -29,39 -44,58 0,0 0,1 0,1 -7,16 -15,32 -22,48 -1,5 -2,10 -3,15 4,7 7,14 11,22 9,6 17,13 26,19 -5,5 -11,9 -16,13 -4,6 -8,11 -11,17 -7,1 -13,2 -19,4 -7,-5 -13,-9 -20,-13 -5,-6 -11,-12 -16,-18 -9,-6 -17,-13 -26,-20 -4,-3 -9,-6 -14,-9 -8,2 -17,5 -26,7 -6,3 -13,6 -20,9 -6,0 -13,1 -19,1 -5,-3 -11,-6 -16,-9 -8,-5 -17,-11 -25,-16 -8,-1 -16,-2 -23,-3 -7,1 -13,2 -19,4 -6,-9 -12,-17 -19,-25 -14,-12 -29,-24 -43,-36 -13,-8 -25,-15 -37,-23 -7,-5 -14,-9 -21,-14 -7,-8 -13,-16 -20,-25 -6,-5 -12,-11 -17,-16 -5,2 -9,3 -14,5 -8,4 -17,8 -25,12 -7,-1 -13,-1 -20,-2 -5,-3 -9,-5 -14,-8 -7,-12 -14,-24 -20,-36 -10,-7 -21,-14 -31,-22 -3,-2 -6,-4 -9,-7 1,-2 3,-5 4,-8 8,-2 15,-3 22,-5 8,-4 17,-8 25,-11 1,-5 2,-9 2,-14 1,-3 2,-6 3,-9 -5,-4 -9,-8 -14,-12 -18,-9 -36,-18 -54,-27 -12,-8 -23,-16 -35,-24 -6,-7 -13,-14 -19,-21 -11,-16 -23,-32 -34,-48 -9,-9 -18,-18 -26,-27 -5,1 -10,1 -15,2 -2,1 -3,3 -5,4 -5,4 -10,7 -15,11 -7,4 -15,8 -22,12 -12,0 -23,0 -35,0 -8,8 -17,16 -26,24 -7,5 -14,10 -21,15 -4,0 -9,0 -14,0 -9,-2 -19,-5 -28,-8 -2,-9 -4,-19 -5,-29 -2,-7 -3,-13 -4,-20 -7,-1 -13,-1 -20,-2 -7,4 -14,7 -22,11 -5,4 -11,8 -16,12 -3,-7 -6,-14 -9,-21 -1,-12 -2,-23 -2,-34 0,-11 1,-21 1,-32 1,-19 2,-37 3,-56 3,-10 5,-20 8,-30 8,-7 16,-13 24,-19 9,-9 19,-18 28,-27 2,-4 3,-8 5,-12 0,-2 1,-4 2,-5 -2,-4 -3,-8 -5,-12 -8,-4 -16,-9 -24,-14 -7,-3 -14,-7 -21,-10 -7,-1 -13,-2 -19,-3 -4,-2 -8,-4 -13,-6 -2,-6 -4,-12 -6,-18 -3,-2 -6,-3 -8,-5 6,-5 13,-11 19,-16 6,-7 11,-14 17,-21 3,-6 7,-13 10,-19 3,-6 5,-13 8,-19 1,-3 3,-6 4,-9 -1,-5 -1,-10 -1,-15 -4,-4 -7,-9 -11,-14 -6,-3 -12,-5 -18,-8 -2,-4 -5,-8 -7,-12 0,-9 0,-17 0,-26 -1,-7 -2,-14 -3,-21 4,-4 8,-8 12,-12 3,-2 6,-4 9,-6 3,-2 7,-4 10,-6 3,-4 5,-7 8,-11 2,-5 5,-9 7,-14 4,-6 7,-12 11,-18 2,-2 4,-5 6,-7 1,-2 3,-4 4,-5 1,-7 2,-14 3,-20 2,-6 4,-12 5,-18 3,-4 6,-8 9,-12 5,-3 9,-6 14,-10 3,-1 7,-3 11,-4 6,-1 12,-1 18,-2 5,-2 9,-4 13,-5 7,-2 14,-4 22,-6 6,-2 13,-5 20,-7 5,-4 11,-8 16,-12 8,0 15,0 23,-1 7,-1 14,-2 21,-3 5,-4 10,-7 15,-10 5,-3 9,-6 13,-9 7,2 14,4 21,6 8,3 16,7 23,10 8,2 15,3 22,5 8,4 17,7 25,11 6,1 12,2 18,3 4,2 9,4 13,5 5,3 11,6 16,8 6,-1 12,-2 18,-3 6,2 12,4 18,5 3,3 6,7 9,10 2,3 5,7 8,10 4,1 8,3 12,4 5,1 9,1 13,2 3,-4 7,-8 10,-11 1,-5 2,-10 3,-15 0,-6 0,-11 0,-16 -2,-5 -4,-9 -6,-14 -2,-4 -3,-8 -5,-13 -2,-4 -5,-8 -7,-12 -2,-3 -3,-6 -5,-8 -3,-6 -6,-11 -9,-16 8,-7 17,-13 26,-19 5,-6 10,-12 15,-19 5,1 10,2 16,3 15,20 31,39 46,58 16,23 33,46 49,69z"/>
   <path fill="#214C2E" d="M646 257c14,18 29,36 43,54 7,5 15,10 22,15 6,4 12,8 17,12 17,1 33,2 49,2 10,-2 19,-4 29,-7 14,6 28,12 42,17 15,12 30,24 45,36 7,6 14,13 21,20 21,9 41,19 62,28 5,3 11,6 17,8 10,6 20,12 30,18 1,15 2,31 2,46 3,4 6,7 9,11 21,7 41,14 61,21 22,7 43,14 65,21 19,1 38,2 57,3 7,7 13,13 19,20 10,16 21,32 31,49 24,9 49,19 74,29 0,7 0,15 1,23 -21,0 -43,1 -64,1 1,23 2,45 3,68 -8,8 -17,16 -26,24 -24,8 -48,17 -72,25 -15,14 -29,28 -44,42 -6,7 -12,13 -18,19 -9,15 -17,29 -26,44 -11,18 -21,35 -32,53 -9,11 -17,22 -26,33 1,13 1,25 1,38 0,9 0,19 1,29 -9,19 -18,39 -27,58 -15,19 -30,39 -44,58 0,0 -1,1 -1,1 -7,16 -14,32 -21,47 -1,6 -3,11 -4,16 4,7 8,14 12,22 8,6 17,13 25,19 -5,5 -10,9 -15,13 -4,6 -8,11 -12,16 -6,2 -12,3 -19,4 -6,-4 -13,-8 -19,-12 -6,-6 -11,-12 -17,-18 -8,-6 -17,-13 -25,-20 -5,-3 -9,-6 -14,-9 -9,2 -17,5 -26,7 -7,3 -14,6 -20,9 -7,0 -13,1 -20,1 -5,-3 -10,-6 -15,-9 -9,-5 -17,-11 -26,-16 -8,-1 -15,-2 -23,-3 -6,1 -12,2 -18,4 -6,-9 -13,-17 -19,-25 -15,-12 -29,-24 -44,-36 -12,-8 -25,-16 -37,-23 -7,-5 -14,-9 -21,-14 -6,-8 -13,-17 -19,-25 -6,-5 -12,-11 -18,-16 -4,2 -9,3 -13,5 -9,4 -17,8 -25,12 -7,-1 -14,-1 -21,-2 -4,-3 -9,-5 -14,-8 -6,-12 -13,-24 -20,-36 -10,-7 -20,-14 -30,-22 -3,-2 -6,-4 -9,-7 1,-2 2,-5 4,-8 7,-2 14,-4 22,-5 8,-4 16,-8 24,-12 1,-4 2,-8 3,-13 1,-3 2,-6 2,-9 -4,-4 -9,-8 -13,-12 -18,-9 -36,-18 -55,-27 -11,-8 -23,-16 -34,-24 -7,-7 -13,-14 -20,-21 -11,-16 -22,-32 -34,-48 -9,-9 -17,-18 -26,-27 -5,1 -10,1 -14,2 -2,1 -4,2 -5,4 -5,3 -10,7 -15,11 -8,4 -15,8 -23,12 -11,0 -23,0 -34,0 -9,8 -18,16 -26,24 -7,5 -14,10 -21,15 -5,0 -9,0 -14,0 -10,-2 -19,-5 -29,-8 -1,-10 -3,-19 -5,-29 -1,-7 -3,-13 -4,-20 -6,-1 -13,-1 -19,-2 -7,4 -15,7 -22,11 -6,4 -11,8 -17,12 -3,-7 -5,-14 -8,-21 -1,-12 -2,-23 -3,-35 1,-10 1,-20 2,-31 1,-19 1,-37 2,-56 3,-10 6,-20 9,-30 8,-7 15,-13 23,-20 10,-8 19,-17 28,-26 2,-4 4,-8 5,-12 1,-2 2,-4 2,-6 -1,-3 -3,-7 -5,-11 -7,-4 -15,-9 -23,-14 -7,-3 -15,-7 -22,-10 -6,-1 -12,-2 -18,-3 -5,-2 -9,-4 -13,-6 -2,-6 -4,-12 -6,-18 -3,-2 -6,-3 -9,-5 7,-5 13,-11 20,-16 5,-7 11,-14 16,-21 4,-7 7,-13 11,-19 2,-6 5,-13 8,-19 1,-3 2,-6 3,-9 0,-5 0,-10 0,-15 -4,-4 -8,-9 -11,-14 -6,-3 -12,-6 -18,-8 -3,-4 -5,-8 -7,-12 0,-9 0,-17 0,-26 -1,-7 -2,-14 -3,-22 3,-3 7,-7 11,-11 3,-2 7,-4 10,-6 3,-2 6,-4 9,-6 3,-4 6,-7 9,-11 2,-5 4,-9 7,-14 3,-6 7,-12 11,-18 2,-2 3,-5 5,-7 2,-2 3,-4 4,-5 2,-7 3,-14 4,-20 2,-6 3,-12 5,-18 3,-4 6,-8 9,-12 4,-3 9,-6 13,-10 4,-1 8,-3 11,-4 6,-1 13,-2 19,-2 4,-2 8,-4 13,-5 7,-2 14,-4 21,-6 7,-2 14,-5 20,-7 6,-4 11,-8 17,-12 7,0 15,0 22,-1 8,-1 15,-2 22,-3 5,-4 10,-7 15,-10 4,-3 8,-6 13,-10 7,3 14,5 21,7 7,3 15,6 23,10 7,2 14,3 22,5 8,4 16,7 24,11 6,1 12,2 18,3 5,2 9,4 14,5 5,3 10,6 15,8 6,-1 13,-2 19,-3 6,2 11,3 17,5 3,3 6,7 9,10 3,3 5,6 8,10 4,1 9,3 13,4 4,1 8,1 13,2 3,-4 6,-8 10,-12 1,-5 1,-10 2,-15 0,-5 0,-10 0,-15 -2,-5 -4,-9 -6,-14 -1,-4 -3,-8 -4,-13 -3,-4 -5,-8 -8,-12 -1,-3 -3,-6 -4,-8 -3,-6 -7,-11 -10,-16 9,-7 18,-13 27,-19 4,-6 9,-13 14,-19 6,1 11,2 16,3 16,20 31,39 47,58 16,23 32,46 48,69z"/>
   <path fill="#255133" d="M646 250c14,18 28,36 43,54 7,5 14,10 22,15 5,4 11,8 17,12 16,1 32,2 48,2 10,-2 20,-4 30,-7 14,6 28,12 42,17 15,12 29,24 44,36 8,6 15,13 22,20 20,9 41,19 61,28 6,3 12,6 17,8 10,6 21,12 31,18 1,15 1,31 2,46 3,4 6,7 9,11 20,7 41,14 61,21 21,7 43,14 64,21 20,1 39,2 58,3 6,7 12,13 19,20 10,16 20,32 30,49 25,9 49,19 74,29 0,7 1,15 1,23 -21,0 -42,1 -63,1 1,23 2,45 3,67 -9,9 -18,17 -26,25 -25,8 -49,17 -73,25 -14,14 -29,28 -43,42 -6,7 -12,13 -18,19 -9,15 -18,29 -27,44 -10,17 -21,35 -32,53 -8,11 -17,22 -25,33 0,13 0,25 1,37 0,10 0,20 0,30 -9,19 -18,39 -27,58 -14,19 -29,39 -44,58 0,0 0,0 0,1 -7,16 -15,32 -22,47 -1,5 -2,10 -3,16 4,7 7,14 11,22 9,6 17,13 26,19 -5,5 -11,9 -16,13 -4,5 -8,11 -11,16 -7,2 -13,3 -19,4 -7,-4 -13,-8 -20,-12 -5,-6 -11,-12 -16,-18 -9,-7 -17,-13 -26,-20 -4,-3 -9,-6 -14,-9 -8,2 -17,5 -26,7 -6,3 -13,6 -20,9 -6,0 -13,1 -19,1 -5,-3 -11,-6 -16,-9 -8,-6 -17,-11 -25,-16 -8,-1 -16,-2 -24,-3 -6,1 -12,2 -18,4 -6,-9 -12,-17 -19,-25 -14,-12 -29,-24 -43,-36 -13,-8 -25,-16 -37,-24 -7,-4 -14,-8 -21,-13 -7,-8 -13,-17 -20,-25 -6,-5 -12,-11 -17,-16 -5,2 -9,3 -14,5 -8,4 -17,8 -25,12 -7,-1 -13,-1 -20,-2 -5,-3 -9,-5 -14,-8 -7,-12 -14,-24 -20,-36 -10,-7 -21,-15 -31,-22 -3,-2 -6,-4 -9,-7 1,-2 3,-5 4,-8 8,-2 15,-4 22,-6 8,-3 17,-7 25,-11 1,-4 2,-9 2,-13 1,-3 2,-6 3,-9 -5,-4 -9,-8 -14,-12 -18,-9 -36,-18 -54,-27 -12,-8 -23,-16 -35,-24 -6,-7 -13,-14 -19,-21 -12,-16 -23,-32 -34,-48 -9,-9 -18,-18 -27,-27 -4,1 -9,1 -14,2 -2,1 -3,2 -5,4 -5,3 -10,7 -15,11 -7,4 -15,8 -22,12 -12,0 -23,0 -35,0 -8,8 -17,16 -26,24 -7,5 -14,10 -21,15 -4,0 -9,0 -14,0 -9,-3 -19,-5 -28,-8 -2,-10 -4,-19 -5,-29 -2,-7 -3,-14 -4,-20 -7,-1 -13,-2 -20,-2 -7,4 -14,7 -22,11 -5,4 -11,8 -16,12 -3,-7 -6,-14 -9,-21 -1,-12 -2,-23 -2,-35 0,-10 1,-20 1,-31 1,-19 2,-37 3,-56 3,-10 5,-20 8,-30 8,-7 16,-13 24,-20 9,-8 19,-17 28,-26 1,-4 3,-8 5,-13 0,-1 1,-3 2,-5 -2,-3 -3,-7 -5,-11 -8,-4 -16,-9 -24,-14 -7,-3 -14,-7 -21,-10 -7,-1 -13,-2 -19,-3 -4,-2 -8,-4 -13,-6 -2,-6 -4,-12 -6,-18 -3,-2 -6,-3 -8,-5 6,-5 13,-11 19,-16 6,-7 11,-14 17,-21 3,-7 7,-13 10,-19 3,-7 5,-13 8,-19 1,-3 3,-6 4,-9 -1,-5 -1,-10 -1,-15 -4,-5 -7,-9 -11,-14 -6,-3 -12,-6 -18,-8 -2,-4 -5,-8 -7,-12 0,-9 0,-17 0,-26 -1,-7 -2,-14 -3,-22 4,-3 8,-7 12,-11 3,-2 6,-4 9,-6 3,-2 7,-4 10,-6 3,-4 5,-7 8,-11 2,-5 5,-10 7,-14 4,-6 7,-12 11,-18 2,-2 4,-5 6,-7 1,-2 3,-4 4,-6 1,-6 2,-13 3,-19 2,-6 4,-12 5,-18 3,-4 6,-8 9,-12 5,-3 9,-7 14,-10 3,-1 7,-3 11,-4 6,-1 12,-2 18,-2 5,-2 9,-4 13,-5 7,-2 14,-4 22,-6 6,-3 13,-5 20,-7 5,-4 11,-8 16,-12 8,0 15,-1 23,-1 7,-1 14,-2 21,-3 5,-4 10,-7 15,-10 5,-3 9,-7 13,-10 7,2 14,5 21,7 8,3 16,6 23,10 8,1 15,3 22,5 8,4 17,7 25,11 6,1 12,2 18,3 4,2 9,3 13,5 5,3 11,6 16,8 6,-1 12,-2 18,-3 6,2 12,3 18,5 3,3 6,7 9,10 2,3 5,6 8,10 4,1 8,3 12,4 5,1 9,1 13,1 3,-3 7,-7 10,-11 1,-5 2,-10 3,-15 0,-5 0,-10 0,-15 -2,-5 -4,-9 -7,-14 -1,-4 -3,-9 -4,-13 -2,-4 -5,-8 -7,-12 -2,-3 -3,-6 -5,-8 -3,-6 -6,-11 -9,-17 8,-6 17,-12 26,-18 5,-6 10,-13 15,-19 5,1 10,2 16,3 15,20 31,39 46,58 16,23 33,46 49,69z"/>
   <path fill="#295637" d="M645 243c14,18 29,36 43,54 7,5 15,10 22,15 6,4 12,8 17,12 17,1 33,1 49,2 10,-2 19,-4 29,-7 14,6 28,11 42,17 15,12 30,24 45,36 7,6 14,13 21,20 21,9 41,19 62,28 5,3 11,6 17,8 10,6 20,12 30,18 1,15 2,31 2,46 3,4 6,7 9,11 21,7 41,14 61,21 22,7 43,14 65,20 19,2 38,3 57,4 7,7 13,13 19,20 10,16 21,32 31,49 24,9 49,19 73,29 1,7 1,15 2,23 -21,0 -43,1 -64,1 1,22 2,45 3,67 -8,8 -17,17 -26,25 -24,8 -48,17 -73,25 -14,14 -28,28 -43,42 -6,6 -12,13 -18,19 -9,15 -17,29 -26,44 -11,17 -21,35 -32,53 -9,11 -17,22 -26,33 1,13 1,25 1,37 0,10 0,20 1,30 -9,19 -18,39 -27,58 -15,19 -30,38 -44,58 0,0 -1,0 -1,1 -7,16 -14,31 -21,47 -1,5 -3,10 -4,15 4,8 8,15 12,23 8,6 17,13 25,19 -5,4 -10,9 -15,13 -4,5 -8,11 -12,16 -6,2 -12,3 -19,4 -6,-4 -13,-8 -19,-12 -6,-6 -11,-12 -17,-18 -8,-7 -17,-13 -25,-20 -5,-3 -9,-6 -14,-9 -9,2 -17,5 -26,7 -7,3 -14,6 -20,9 -7,0 -13,1 -20,1 -5,-3 -10,-6 -15,-9 -9,-6 -17,-11 -26,-16 -8,-1 -15,-2 -23,-3 -6,1 -12,2 -18,4 -6,-9 -13,-17 -19,-25 -15,-12 -29,-24 -44,-36 -12,-8 -25,-16 -37,-24 -7,-4 -14,-9 -21,-13 -6,-8 -13,-17 -19,-25 -6,-5 -12,-11 -18,-16 -4,2 -9,3 -13,5 -9,4 -17,8 -25,12 -7,-1 -14,-1 -21,-2 -4,-3 -9,-6 -14,-8 -6,-12 -13,-24 -20,-36 -10,-7 -20,-15 -30,-22 -3,-2 -6,-4 -9,-7 1,-2 2,-5 4,-8 7,-2 14,-4 22,-6 8,-3 16,-7 24,-11 1,-4 2,-9 3,-13 1,-3 2,-6 2,-9 -4,-4 -9,-8 -13,-12 -18,-9 -36,-18 -55,-27 -11,-8 -23,-16 -34,-25 -7,-6 -13,-13 -20,-20 -11,-16 -22,-32 -34,-48 -9,-9 -17,-18 -26,-27 -5,0 -10,1 -14,2 -2,1 -4,2 -5,3 -5,4 -10,8 -15,12 -8,4 -15,8 -23,12 -11,0 -23,0 -34,0 -9,8 -18,16 -26,24 -7,5 -14,10 -21,15 -5,0 -9,0 -14,0 -10,-3 -19,-5 -29,-8 -1,-10 -3,-19 -5,-29 -1,-7 -3,-14 -4,-20 -6,-1 -13,-2 -19,-2 -7,4 -15,7 -22,11 -6,4 -11,8 -17,12 -3,-7 -5,-14 -8,-21 -1,-12 -2,-23 -3,-35 1,-10 1,-21 2,-31 1,-19 1,-38 2,-56 3,-10 6,-20 9,-31 8,-6 15,-12 23,-19 10,-8 19,-17 28,-26 2,-4 4,-8 5,-13 1,-1 2,-3 2,-5 -1,-3 -3,-7 -5,-11 -7,-4 -15,-9 -23,-14 -7,-3 -15,-7 -22,-10 -6,-1 -12,-2 -18,-3 -5,-2 -9,-4 -13,-6 -2,-6 -4,-12 -6,-18 -3,-2 -6,-4 -9,-5 7,-5 13,-11 20,-16 5,-7 11,-14 16,-21 4,-7 7,-13 10,-19 3,-7 6,-13 9,-19 1,-3 2,-6 3,-9 0,-5 0,-10 0,-15 -4,-5 -8,-9 -12,-14 -5,-3 -11,-6 -17,-8 -3,-4 -5,-8 -7,-12 0,-9 0,-17 0,-26 -1,-7 -2,-15 -3,-22 3,-3 7,-7 11,-11 3,-2 7,-4 10,-6 3,-2 6,-4 9,-7 3,-3 6,-6 9,-10 2,-5 4,-10 7,-14 3,-6 7,-12 11,-18 1,-2 3,-5 5,-7 2,-2 3,-4 4,-6 2,-6 3,-13 4,-19 2,-6 3,-12 5,-18 3,-4 6,-8 9,-12 4,-3 9,-7 13,-10 4,-1 8,-3 11,-4 6,-1 13,-2 19,-2 4,-2 8,-4 13,-5 7,-2 14,-4 21,-6 7,-3 14,-5 20,-7 6,-4 11,-8 17,-12 7,0 15,-1 22,-1 8,-1 15,-2 22,-4 5,-3 10,-6 15,-9 4,-3 8,-7 13,-10 7,2 14,5 21,7 7,3 15,6 23,10 7,1 14,3 22,5 8,3 16,7 24,11 6,1 12,2 18,3 5,2 9,3 14,5 5,3 10,5 15,8 6,-1 13,-2 19,-3 6,2 11,3 17,5 3,3 6,6 9,10 3,3 5,6 8,10 4,1 9,3 13,4 4,1 8,1 13,1 3,-3 6,-7 10,-11 0,-5 1,-10 2,-15 0,-5 0,-10 0,-15 -2,-5 -4,-9 -6,-14 -2,-4 -3,-9 -5,-13 -2,-4 -4,-8 -7,-12 -1,-3 -3,-6 -4,-8 -3,-6 -7,-11 -10,-17 9,-6 18,-12 27,-18 4,-7 9,-13 14,-19 6,1 11,2 16,3 16,19 31,39 47,58 16,23 32,46 48,69z"/>
   <path fill="#2D5B3C" d="M645 236c14,18 28,36 43,54 7,5 14,10 22,15 5,4 11,8 17,12 16,1 32,1 48,2 10,-2 20,-5 30,-7 14,6 28,11 42,17 15,12 29,24 44,35 7,7 15,14 22,21 20,9 41,19 61,28 6,3 12,6 17,8 10,6 21,12 31,18 1,15 1,31 2,46 3,4 6,7 9,11 20,7 41,14 61,21 21,7 43,14 64,20 20,2 39,3 58,4 6,7 12,13 19,20 10,16 20,32 30,49 25,9 49,19 74,28 0,8 1,16 1,24 -21,0 -42,0 -63,1 1,22 2,45 3,67 -9,8 -18,16 -26,25 -25,8 -49,17 -73,25 -14,14 -29,28 -43,42 -6,6 -12,13 -18,19 -9,15 -18,29 -27,44 -10,17 -21,35 -32,52 -8,12 -17,23 -25,34 0,13 0,25 1,37 0,10 0,20 0,30 -9,19 -18,39 -27,58 -14,19 -29,38 -44,58 0,0 0,0 0,1 -7,16 -15,31 -22,47 -1,5 -2,10 -3,15 4,8 7,15 11,22 9,7 17,14 26,20 -5,4 -11,9 -16,13 -4,5 -8,11 -11,16 -7,2 -13,3 -19,4 -7,-4 -13,-8 -20,-12 -5,-6 -11,-12 -16,-18 -9,-7 -17,-13 -26,-20 -4,-3 -9,-6 -14,-9 -8,2 -17,4 -26,7 -6,3 -13,6 -20,9 -6,0 -13,0 -19,1 -5,-3 -11,-6 -16,-9 -8,-6 -17,-11 -25,-16 -8,-1 -16,-2 -24,-4 -6,2 -12,3 -18,4 -6,-8 -12,-16 -19,-24 -14,-12 -29,-24 -43,-36 -13,-8 -25,-16 -37,-24 -7,-4 -14,-9 -21,-13 -7,-8 -13,-17 -20,-25 -6,-5 -12,-11 -17,-16 -5,1 -9,3 -14,5 -8,4 -17,8 -25,12 -7,-1 -13,-2 -20,-2 -5,-3 -9,-6 -14,-8 -7,-12 -14,-24 -20,-36 -10,-8 -21,-15 -31,-22 -3,-2 -6,-4 -9,-7 1,-3 3,-5 4,-8 8,-2 15,-4 22,-6 8,-3 17,-7 25,-11 1,-4 2,-9 2,-13 1,-3 2,-6 3,-9 -5,-4 -9,-8 -14,-12 -18,-9 -36,-18 -54,-27 -12,-8 -23,-16 -35,-25 -6,-6 -13,-13 -19,-20 -12,-16 -23,-32 -34,-48 -9,-9 -18,-18 -27,-27 -4,0 -9,1 -14,2 -2,1 -3,2 -5,3 -5,4 -10,8 -15,12 -7,4 -15,8 -22,12 -12,0 -23,0 -35,0 -8,8 -17,16 -26,24 -7,5 -14,10 -21,15 -4,0 -9,0 -14,0 -9,-3 -19,-5 -28,-8 -2,-10 -4,-19 -5,-29 -2,-7 -3,-14 -4,-21 -7,0 -13,-1 -20,-1 -7,3 -14,7 -22,11 -5,4 -11,8 -16,12 -3,-7 -6,-14 -9,-22 -1,-11 -2,-22 -2,-34 0,-10 1,-21 1,-31 1,-19 2,-38 3,-56 3,-10 5,-21 8,-31 8,-6 16,-12 24,-19 9,-8 18,-17 28,-26 1,-4 3,-8 5,-13 0,-1 1,-3 2,-5 -2,-3 -4,-7 -5,-11 -8,-5 -16,-9 -24,-14 -7,-3 -14,-7 -22,-10 -6,-1 -12,-2 -18,-3 -4,-2 -8,-4 -13,-6 -2,-6 -4,-12 -6,-18 -3,-2 -6,-4 -8,-5 6,-6 13,-11 19,-16 6,-7 11,-14 17,-21 3,-7 7,-13 10,-20 3,-6 5,-12 8,-18 1,-3 2,-6 4,-9 -1,-5 -1,-10 -1,-15 -4,-5 -7,-10 -11,-14 -6,-3 -12,-6 -18,-8 -2,-4 -5,-8 -7,-12 0,-9 0,-18 0,-26 -1,-7 -2,-15 -3,-22 4,-3 8,-7 12,-11 3,-2 6,-4 9,-6 3,-2 7,-4 10,-7 3,-3 5,-7 8,-10 2,-5 5,-10 7,-14 4,-6 7,-12 11,-18 2,-2 4,-5 6,-8 1,-1 3,-3 4,-5 1,-6 2,-13 3,-19 2,-6 4,-12 5,-18 3,-4 6,-8 9,-12 5,-3 9,-7 14,-10 3,-2 7,-3 11,-5 6,0 12,-1 18,-1 5,-2 9,-4 13,-6 7,-1 14,-3 22,-5 6,-3 13,-5 20,-7 5,-4 11,-8 16,-12 8,0 15,-1 23,-1 7,-1 14,-2 21,-4 5,-3 10,-6 15,-9 5,-4 9,-7 13,-10 7,2 14,4 21,7 8,3 16,6 23,10 8,1 15,3 22,5 8,3 17,7 25,11 6,1 12,2 18,3 4,2 9,3 13,5 5,3 11,5 16,8 6,-1 12,-2 18,-3 6,2 12,3 18,5 3,3 6,6 8,10 3,3 6,6 9,10 4,1 8,3 12,4 5,1 9,1 13,1 3,-3 7,-7 10,-11 1,-5 2,-10 3,-15 0,-5 0,-10 0,-16 -2,-4 -4,-8 -7,-13 -1,-4 -3,-9 -4,-13 -2,-4 -5,-8 -7,-12 -2,-3 -3,-6 -5,-9 -3,-5 -6,-10 -9,-16 8,-6 17,-12 26,-18 5,-7 10,-13 15,-19 5,1 10,2 16,3 15,19 31,39 46,58 16,23 32,46 49,69z"/>
   <path fill="#326040" d="M644 229c14,18 29,36 43,54 7,5 15,10 22,15 6,4 12,8 17,12 16,1 33,1 49,2 10,-2 19,-5 29,-7 14,6 28,11 42,17 15,12 30,24 45,35 7,7 14,14 21,21 21,9 41,19 62,28 5,3 11,6 17,8 10,6 20,12 30,18 1,15 2,31 2,46 3,4 6,7 9,11 21,7 41,14 61,21 22,7 43,14 65,20 19,2 38,3 57,4 7,6 13,13 19,20 10,16 20,32 31,48 24,10 49,20 73,29 1,8 1,16 2,24 -21,0 -43,0 -64,1 1,22 2,45 3,67 -8,8 -17,16 -26,24 -24,9 -48,18 -73,26 -14,14 -28,28 -43,42 -6,6 -12,13 -18,19 -9,15 -17,29 -26,44 -11,17 -21,35 -32,52 -9,12 -17,23 -26,34 1,12 1,25 1,37 0,10 0,20 0,30 -8,19 -17,39 -26,58 -15,19 -30,38 -44,57 0,1 -1,1 -1,2 -7,15 -14,31 -21,47 -1,5 -3,10 -4,15 4,8 8,15 12,22 8,7 17,13 25,20 -5,4 -10,9 -15,13 -4,5 -8,11 -12,16 -6,2 -12,3 -19,4 -6,-4 -13,-8 -19,-12 -6,-6 -11,-12 -17,-18 -8,-7 -17,-13 -25,-20 -5,-3 -9,-6 -14,-10 -9,3 -17,5 -26,8 -7,3 -14,6 -20,9 -7,0 -13,0 -20,1 -5,-3 -10,-6 -15,-9 -9,-6 -17,-11 -26,-16 -8,-1 -15,-2 -23,-4 -6,2 -12,3 -18,4 -6,-8 -13,-16 -19,-24 -15,-12 -29,-24 -44,-36 -12,-8 -25,-16 -37,-24 -7,-4 -14,-9 -21,-13 -6,-8 -13,-17 -19,-25 -6,-6 -12,-11 -18,-16 -4,1 -9,3 -13,5 -9,4 -17,8 -25,12 -7,-1 -14,-2 -21,-2 -4,-3 -9,-6 -14,-8 -6,-12 -13,-24 -20,-36 -10,-8 -20,-15 -30,-22 -3,-2 -6,-5 -9,-7 1,-3 2,-5 4,-8 7,-2 14,-4 22,-6 8,-3 16,-7 24,-11 1,-4 2,-9 3,-13 1,-3 2,-6 2,-9 -4,-4 -9,-8 -13,-12 -18,-9 -36,-18 -55,-27 -11,-8 -23,-17 -34,-25 -7,-7 -13,-13 -20,-20 -11,-16 -22,-32 -34,-48 -9,-9 -17,-18 -26,-27 -5,0 -10,1 -14,2 -2,1 -4,2 -5,3 -5,4 -10,8 -15,12 -8,4 -15,8 -23,12 -11,0 -23,0 -34,0 -9,8 -18,16 -26,24 -7,5 -14,10 -21,15 -5,0 -9,0 -14,0 -10,-3 -19,-5 -29,-8 -1,-10 -3,-20 -5,-29 -1,-7 -3,-14 -4,-21 -6,0 -13,-1 -19,-1 -7,3 -15,7 -22,11 -6,4 -11,8 -17,12 -3,-7 -5,-14 -8,-22 -1,-11 -2,-22 -3,-34 1,-10 1,-21 2,-31 1,-19 1,-38 2,-56 3,-11 6,-21 9,-31 8,-6 15,-12 23,-19 10,-9 19,-17 28,-26 2,-4 4,-8 5,-13 1,-1 2,-3 2,-5 -1,-4 -3,-7 -5,-11 -7,-5 -15,-9 -23,-14 -7,-3 -15,-7 -22,-10 -6,-1 -12,-2 -18,-3 -5,-2 -9,-4 -13,-6 -2,-6 -4,-12 -6,-19 -3,-1 -6,-3 -9,-4 7,-6 13,-11 20,-16 5,-7 11,-14 16,-21 4,-7 7,-13 10,-20 3,-6 6,-12 9,-18 1,-3 2,-6 3,-10 0,-4 0,-9 0,-14 -4,-5 -8,-10 -12,-14 -5,-3 -11,-6 -17,-9 -3,-3 -5,-7 -7,-11 0,-9 0,-18 0,-26 -1,-8 -2,-15 -3,-22 3,-4 7,-7 11,-11 3,-2 7,-4 10,-6 3,-2 6,-5 9,-7 3,-3 6,-7 9,-10 2,-5 4,-10 7,-15 3,-5 7,-11 11,-17 1,-3 3,-5 5,-8 2,-1 3,-3 4,-5 2,-6 3,-13 4,-20 2,-6 3,-12 5,-18 3,-3 6,-7 9,-11 4,-3 9,-7 13,-10 4,-2 8,-3 11,-5 6,0 13,-1 19,-1 4,-2 8,-4 13,-6 7,-2 14,-4 21,-6 7,-2 14,-4 20,-6 6,-4 11,-8 17,-12 7,0 15,-1 22,-1 8,-1 15,-3 22,-4 5,-3 10,-6 15,-10 4,-3 8,-6 13,-9 7,2 14,4 21,7 7,3 15,6 23,10 7,1 14,3 22,5 8,3 16,7 24,11 6,1 12,2 18,3 5,2 9,3 14,5 5,3 10,5 15,8 6,-1 13,-2 19,-3 6,2 11,3 17,5 3,3 6,6 9,10 3,3 5,6 8,10 4,1 9,3 13,4 4,0 8,1 13,1 3,-3 6,-7 10,-11 0,-5 1,-10 2,-15 0,-5 0,-10 0,-16 -2,-4 -4,-9 -6,-13 -2,-4 -3,-9 -5,-13 -2,-4 -4,-8 -7,-13 -1,-2 -3,-5 -4,-8 -3,-5 -7,-10 -10,-16 9,-6 18,-12 27,-18 4,-7 9,-13 14,-19 6,1 11,2 16,3 16,19 31,39 47,58 16,23 32,46 48,69z"/>
   <path fill="#366545" d="M644 222c14,18 28,36 43,53 7,5 14,11 22,16 5,4 11,8 17,12 16,0 32,1 48,2 10,-2 20,-5 30,-7 14,6 28,11 42,17 15,12 29,24 44,35 7,7 15,14 22,21 20,9 41,19 61,28 6,3 12,5 17,8 10,6 21,12 31,18 1,15 1,31 2,46 3,4 6,7 9,11 20,7 41,14 61,21 21,7 43,14 64,20 20,1 39,3 58,4 6,6 12,13 19,19 10,17 20,33 30,49 25,10 49,20 74,29 0,8 1,16 1,24 -21,0 -42,0 -63,1 1,22 2,45 3,67 -9,8 -18,16 -26,24 -25,9 -49,17 -73,26 -14,14 -29,28 -43,42 -6,6 -12,13 -19,19 -8,15 -17,29 -26,44 -10,17 -21,35 -32,52 -8,12 -17,23 -25,34 0,12 0,25 1,37 0,10 0,20 0,30 -9,19 -18,38 -27,58 -14,19 -29,38 -44,57 0,1 0,1 0,2 -7,15 -15,31 -22,47 -1,5 -2,10 -3,15 4,8 7,15 11,22 9,7 17,13 26,20 -5,4 -11,8 -16,13 -4,5 -8,11 -11,16 -7,1 -13,3 -19,4 -7,-4 -13,-8 -20,-12 -5,-6 -11,-12 -16,-18 -9,-7 -17,-14 -26,-20 -4,-3 -9,-7 -14,-10 -8,3 -17,5 -26,8 -6,3 -13,6 -20,9 -6,0 -13,0 -19,1 -5,-3 -11,-6 -16,-10 -8,-5 -17,-10 -25,-15 -8,-1 -16,-3 -24,-4 -6,2 -12,3 -18,4 -6,-8 -12,-16 -19,-25 -14,-11 -29,-23 -43,-35 -13,-8 -25,-16 -37,-24 -7,-4 -14,-9 -21,-13 -7,-9 -13,-17 -20,-25 -6,-6 -12,-11 -17,-16 -5,1 -9,3 -14,5 -8,4 -17,8 -25,11 -7,0 -13,-1 -20,-1 -5,-3 -9,-6 -14,-9 -7,-11 -14,-23 -20,-35 -10,-8 -21,-15 -31,-22 -3,-2 -6,-5 -9,-7 1,-3 3,-5 4,-8 7,-2 15,-4 22,-6 8,-4 17,-7 25,-11 1,-4 2,-9 2,-13 1,-3 2,-6 3,-9 -5,-4 -9,-8 -14,-12 -18,-9 -36,-18 -54,-27 -12,-8 -23,-17 -35,-25 -6,-7 -13,-13 -19,-20 -12,-16 -23,-32 -34,-48 -9,-9 -18,-18 -27,-28 -4,1 -9,2 -14,3 -2,1 -3,2 -5,3 -5,4 -10,8 -15,12 -7,4 -15,8 -22,11 -12,0 -23,0 -35,0 -8,9 -17,17 -26,25 -7,5 -14,10 -21,15 -4,0 -9,0 -14,0 -9,-3 -19,-6 -28,-8 -2,-10 -4,-20 -5,-29 -2,-7 -3,-14 -4,-21 -7,0 -13,-1 -20,-1 -7,3 -14,7 -22,11 -5,4 -11,8 -16,12 -3,-7 -6,-14 -9,-22 -1,-11 -2,-22 -2,-34 0,-10 1,-21 1,-31 1,-19 2,-38 3,-57 3,-10 5,-20 8,-30 8,-6 16,-12 24,-19 9,-9 18,-17 28,-26 1,-4 3,-9 5,-13 0,-2 1,-3 2,-5 -2,-4 -4,-7 -5,-11 -8,-5 -16,-9 -24,-14 -7,-3 -14,-7 -22,-10 -6,-1 -12,-2 -18,-3 -4,-2 -8,-4 -13,-6 -2,-6 -4,-12 -6,-19 -3,-1 -6,-3 -8,-4 6,-6 13,-11 19,-16 6,-8 11,-15 17,-22 3,-6 6,-12 10,-19 3,-6 5,-12 8,-18 1,-3 2,-6 4,-10 -1,-4 -1,-9 -1,-14 -4,-5 -7,-10 -11,-15 -6,-2 -12,-5 -18,-8 -2,-3 -5,-7 -7,-11 0,-9 0,-18 0,-26 -1,-8 -2,-15 -3,-22 4,-4 8,-7 12,-11 3,-2 6,-4 9,-6 3,-2 7,-5 10,-7 3,-3 5,-7 8,-10 2,-5 5,-10 7,-15 4,-5 7,-11 11,-17 2,-3 4,-5 6,-8 1,-1 3,-3 4,-5 1,-6 2,-13 3,-20 2,-6 4,-12 5,-18 3,-3 6,-7 9,-11 5,-4 9,-7 14,-10 3,-2 7,-3 11,-5 6,0 12,-1 18,-2 5,-1 9,-3 13,-5 7,-2 14,-4 22,-6 6,-2 13,-4 20,-6 5,-4 11,-8 16,-12 8,0 15,-1 23,-1 7,-1 14,-3 21,-4 5,-3 10,-6 15,-10 5,-3 9,-6 13,-9 7,2 14,4 21,6 8,4 15,7 23,10 8,2 15,4 22,6 8,3 17,7 25,11 6,1 12,2 18,3 4,2 9,3 13,5 5,2 11,5 16,8 6,-1 12,-2 18,-3 6,2 12,3 18,5 3,3 6,6 8,10 3,3 6,6 9,9 4,2 8,3 12,5 5,0 9,1 13,1 3,-3 7,-7 10,-11 1,-5 2,-10 3,-15 0,-5 0,-10 0,-16 -2,-4 -4,-9 -7,-13 -1,-4 -3,-9 -4,-13 -2,-4 -5,-8 -7,-13 -2,-2 -3,-5 -5,-8 -3,-5 -6,-10 -10,-16 9,-6 18,-12 27,-19 5,-6 10,-12 15,-18 5,1 10,2 16,3 15,19 31,39 46,58 16,23 32,46 49,69z"/>
   <path fill="#3A6A49" d="M643 215c14,18 29,36 43,53 7,5 15,10 22,15 6,5 12,9 17,13 16,0 33,1 49,2 10,-2 19,-5 29,-7 14,6 28,11 42,17 15,12 30,23 45,35 7,7 14,14 21,21 21,9 41,18 62,28 5,3 11,5 17,8 10,6 20,12 30,18 1,15 2,31 2,46 3,4 6,7 9,10 21,8 41,15 61,22 22,7 43,13 65,20 19,1 38,3 57,4 7,6 13,13 19,19 10,17 20,33 31,49 24,10 49,20 73,29 1,8 1,16 2,23 -21,1 -43,1 -64,2 1,22 2,45 3,67 -9,8 -17,16 -26,24 -24,9 -48,17 -73,26 -14,14 -28,28 -43,42 -6,6 -12,13 -18,19 -9,14 -17,29 -26,44 -11,17 -21,35 -32,52 -9,11 -17,23 -26,34 1,12 1,25 1,37 0,10 0,20 0,30 -8,19 -17,38 -26,58 -15,19 -30,38 -44,57 0,1 -1,1 -1,1 -7,16 -14,32 -21,48 -1,5 -3,10 -4,15 4,8 8,15 12,22 8,7 17,13 25,20 -5,4 -10,8 -15,13 -4,5 -8,11 -12,16 -6,1 -12,3 -19,4 -6,-4 -13,-8 -19,-12 -6,-6 -11,-12 -17,-18 -8,-7 -17,-14 -25,-20 -5,-3 -9,-7 -14,-10 -9,3 -17,5 -26,8 -7,3 -14,6 -20,8 -7,1 -13,1 -20,2 -5,-3 -10,-7 -15,-10 -9,-5 -17,-10 -26,-15 -8,-1 -15,-3 -23,-4 -6,2 -12,3 -18,4 -6,-8 -13,-16 -19,-25 -15,-11 -29,-23 -44,-35 -12,-8 -25,-16 -37,-24 -7,-4 -14,-9 -21,-13 -6,-9 -13,-17 -19,-25 -6,-6 -12,-11 -18,-16 -4,1 -9,3 -13,5 -9,4 -17,7 -25,11 -7,0 -14,-1 -21,-1 -4,-3 -9,-6 -14,-9 -6,-12 -13,-24 -20,-36 -10,-7 -20,-14 -30,-21 -3,-2 -6,-5 -9,-7 1,-3 2,-5 4,-8 7,-2 14,-4 22,-6 8,-4 16,-7 24,-11 1,-4 2,-9 3,-13 1,-3 2,-6 2,-10 -4,-3 -9,-7 -13,-11 -18,-9 -36,-18 -55,-27 -11,-9 -23,-17 -34,-25 -7,-7 -13,-13 -20,-20 -11,-16 -22,-32 -34,-48 -9,-9 -17,-19 -26,-28 -5,1 -10,2 -14,3 -2,1 -4,2 -5,3 -5,4 -10,8 -15,12 -8,4 -15,7 -23,11 -11,0 -23,0 -34,0 -9,9 -18,17 -26,25 -7,5 -14,10 -21,15 -5,0 -9,0 -14,0 -10,-3 -19,-6 -29,-8 -1,-10 -3,-20 -5,-29 -1,-7 -3,-14 -4,-21 -6,0 -13,-1 -19,-1 -7,3 -15,7 -22,11 -6,4 -11,8 -17,12 -3,-7 -5,-15 -8,-22 -1,-11 -2,-23 -3,-34 1,-10 1,-21 2,-31 1,-19 1,-38 2,-57 3,-10 6,-20 9,-30 8,-6 15,-13 23,-19 10,-9 19,-17 28,-26 2,-4 4,-9 5,-13 1,-2 2,-3 2,-5 -1,-4 -3,-7 -5,-11 -7,-5 -15,-9 -23,-14 -7,-4 -15,-7 -22,-10 -6,-1 -12,-2 -18,-3 -5,-2 -9,-4 -13,-6 -2,-6 -4,-13 -6,-19 -3,-1 -6,-3 -9,-4 7,-6 13,-11 20,-17 5,-7 11,-14 16,-21 4,-6 7,-12 10,-19 3,-6 6,-12 9,-18 1,-3 2,-7 3,-10 0,-4 0,-9 0,-14 -4,-5 -8,-10 -12,-15 -5,-2 -11,-5 -17,-8 -3,-4 -5,-7 -7,-11 0,-9 0,-18 0,-27 -1,-7 -2,-14 -3,-21 3,-4 7,-7 11,-11 3,-2 6,-4 10,-6 3,-3 6,-5 9,-7 3,-3 6,-7 9,-10 2,-5 4,-10 7,-15 3,-6 7,-11 11,-17 1,-3 3,-5 5,-8 2,-1 3,-3 4,-5 2,-7 3,-13 4,-20 2,-6 3,-12 5,-18 3,-4 6,-7 9,-11 4,-4 9,-7 13,-10 4,-2 8,-3 11,-5 6,0 13,-1 19,-2 4,-1 8,-3 13,-5 7,-2 14,-4 21,-6 7,-2 14,-4 20,-6 6,-4 11,-8 17,-12 7,-1 15,-1 22,-1 8,-1 15,-3 22,-4 5,-3 10,-6 15,-10 4,-3 8,-6 13,-9 7,2 14,4 21,6 7,4 15,7 23,10 7,2 14,4 22,5 8,4 16,8 24,12 6,1 12,2 18,3 5,2 9,3 14,5 5,2 10,5 15,8 6,-1 13,-2 19,-3 6,2 11,3 17,5 3,3 6,6 9,9 3,4 5,7 8,10 4,2 9,3 13,5 4,0 8,1 13,1 3,-4 6,-7 10,-11 0,-5 1,-10 2,-15 0,-5 0,-10 0,-16 -2,-4 -4,-9 -6,-13 -2,-5 -3,-9 -5,-13 -2,-4 -4,-9 -7,-13 -1,-2 -3,-5 -4,-8 -3,-5 -7,-11 -10,-16 9,-6 18,-12 27,-19 4,-6 9,-12 14,-18 6,1 11,2 16,3 16,19 31,39 47,58 16,23 32,46 48,69z"/>
   <path fill="#3E6F4E" d="M643 208c14,18 28,35 43,53 7,5 14,10 22,15 5,4 11,9 17,13 16,0 32,1 48,2 10,-2 20,-5 30,-7 14,5 28,11 42,17 15,12 29,23 44,35 7,7 15,14 22,20 20,10 41,19 61,29 6,3 12,5 17,8 10,6 21,12 31,17 1,16 1,31 2,47 3,3 6,7 9,10 20,8 41,15 61,22 21,7 43,13 64,20 20,1 39,3 58,4 6,6 12,13 19,19 10,17 20,33 30,49 25,10 49,20 74,29 0,8 1,16 1,23 -21,1 -42,1 -63,2 1,22 2,45 3,67 -9,8 -18,16 -26,24 -25,9 -49,17 -73,26 -15,14 -29,28 -43,42 -6,6 -12,12 -19,19 -8,14 -17,29 -26,43 -10,18 -21,36 -32,53 -8,11 -17,23 -25,34 0,12 0,25 1,37 0,10 0,20 0,30 -9,19 -18,38 -27,58 -14,19 -29,38 -44,57 0,1 0,1 0,1 -7,16 -15,32 -22,48 -1,5 -2,10 -3,15 4,7 7,15 11,22 9,7 17,13 26,20 -5,4 -11,8 -16,13 -4,5 -8,11 -11,16 -7,1 -13,3 -19,4 -7,-4 -13,-8 -20,-12 -5,-6 -11,-12 -16,-18 -9,-7 -17,-14 -26,-20 -4,-4 -9,-7 -14,-10 -8,3 -17,5 -26,8 -6,3 -13,5 -20,8 -6,1 -13,1 -19,2 -5,-3 -11,-7 -16,-10 -8,-5 -17,-10 -25,-15 -8,-2 -16,-3 -24,-4 -6,2 -12,3 -18,4 -6,-8 -12,-16 -19,-25 -14,-12 -29,-23 -43,-35 -13,-8 -25,-16 -37,-24 -7,-4 -14,-9 -21,-13 -7,-9 -13,-17 -20,-25 -6,-6 -12,-11 -18,-16 -4,1 -8,3 -13,5 -8,4 -17,7 -25,11 -7,0 -13,-1 -20,-1 -5,-3 -9,-6 -14,-9 -7,-12 -14,-24 -20,-36 -10,-7 -21,-14 -31,-21 -3,-2 -6,-5 -9,-7 1,-3 3,-6 4,-8 7,-2 15,-4 22,-6 8,-4 17,-7 25,-11 1,-4 2,-9 2,-13 1,-3 2,-7 3,-10 -5,-3 -9,-7 -14,-11 -18,-9 -36,-18 -54,-27 -12,-9 -23,-17 -35,-25 -6,-7 -13,-14 -19,-20 -12,-16 -23,-32 -34,-48 -9,-10 -18,-19 -27,-28 -4,1 -9,2 -14,3 -2,1 -3,2 -5,3 -5,4 -10,8 -15,12 -7,4 -15,7 -23,11 -11,0 -22,0 -34,0 -8,8 -17,17 -26,25 -7,5 -14,10 -21,15 -4,0 -9,0 -14,0 -9,-3 -19,-6 -28,-8 -2,-10 -4,-20 -5,-29 -2,-7 -3,-14 -4,-21 -7,0 -13,-1 -20,-2 -7,4 -14,8 -22,12 -5,4 -11,8 -16,12 -3,-7 -6,-15 -9,-22 -1,-11 -2,-23 -3,-34 1,-10 2,-21 2,-31 1,-19 2,-38 3,-57 3,-10 5,-20 8,-30 8,-6 16,-13 24,-19 9,-9 18,-17 28,-26 1,-4 3,-9 5,-13 0,-2 1,-3 2,-5 -2,-4 -4,-7 -5,-11 -8,-5 -16,-9 -24,-14 -7,-4 -14,-7 -22,-11 -6,0 -12,-1 -18,-2 -4,-2 -9,-4 -13,-6 -2,-6 -4,-13 -6,-19 -3,-1 -6,-3 -8,-4 6,-6 13,-11 19,-17 6,-7 11,-14 17,-21 3,-6 6,-12 10,-19 3,-6 5,-12 8,-18 1,-3 2,-7 4,-10 -1,-5 -1,-9 -1,-14 -4,-5 -7,-10 -11,-15 -6,-2 -12,-5 -18,-8 -2,-4 -5,-8 -7,-11 0,-9 0,-18 0,-27 -1,-7 -2,-14 -3,-21 4,-4 8,-7 12,-11 3,-2 6,-4 9,-6 3,-3 7,-5 10,-7 3,-3 5,-7 8,-10 2,-5 5,-10 7,-15 4,-6 7,-11 11,-17 2,-3 4,-5 6,-8 1,-2 3,-3 4,-5 1,-7 2,-13 3,-20 2,-6 4,-12 5,-18 3,-4 6,-7 9,-11 5,-4 9,-7 14,-10 3,-2 7,-3 11,-5 6,0 12,-1 18,-2 5,-1 9,-3 13,-5 7,-2 14,-4 22,-6 6,-2 13,-4 20,-7 5,-3 11,-7 16,-11 8,-1 15,-1 23,-1 7,-2 14,-3 21,-4 5,-3 10,-6 15,-10 5,-3 9,-6 13,-9 7,2 14,4 21,6 8,4 15,7 23,10 8,2 15,4 22,5 8,4 17,8 25,11 6,2 12,3 18,4 4,1 9,3 13,5 5,2 11,5 16,8 6,-1 12,-2 18,-3 6,1 12,3 18,5 3,3 6,6 8,9 3,4 6,7 9,10 4,2 8,3 12,5 5,0 9,1 13,1 3,-4 7,-7 10,-11 1,-5 2,-10 3,-15 0,-5 0,-11 0,-16 -2,-4 -4,-9 -7,-13 -1,-5 -3,-9 -4,-13 -2,-5 -5,-9 -7,-13 -2,-2 -3,-5 -5,-8 -3,-5 -6,-11 -10,-16 9,-6 18,-12 27,-19 5,-6 10,-12 15,-18 5,1 10,2 16,3 15,19 31,38 46,58 16,23 32,46 49,69z"/>
   <path fill="#437552" d="M642 201c14,18 29,35 43,53 7,5 15,10 22,15 6,4 12,8 17,12 16,1 33,2 49,3 10,-3 19,-5 29,-7 14,5 28,11 42,17 15,11 30,23 45,35 7,7 14,14 21,20 21,10 41,19 62,29 5,3 11,5 17,8 10,6 20,12 30,17 1,16 2,31 2,47 3,3 6,7 9,10 21,8 41,15 61,22 22,7 43,13 65,20 19,1 38,2 57,4 7,6 13,13 19,19 10,17 20,33 31,49 24,10 49,19 73,29 1,8 1,16 2,23 -21,1 -43,1 -64,2 1,22 2,44 3,67 -9,8 -17,16 -26,24 -24,9 -48,17 -73,26 -14,14 -28,28 -43,42 -6,6 -12,12 -18,19 -9,14 -17,29 -26,43 -11,18 -21,36 -32,53 -9,11 -17,23 -26,34 1,12 1,25 1,37 0,10 0,20 0,30 -8,19 -17,38 -26,58 -15,19 -30,38 -44,57 0,1 -1,1 -1,1 -7,16 -14,32 -21,48 -1,5 -3,10 -4,15 4,7 8,15 12,22 8,7 17,13 25,20 -5,4 -10,8 -15,13 -4,5 -8,10 -12,16 -6,1 -12,3 -19,4 -6,-4 -13,-8 -19,-12 -6,-6 -11,-12 -17,-18 -8,-7 -17,-14 -25,-21 -5,-3 -9,-6 -14,-9 -9,3 -18,5 -26,8 -7,3 -14,5 -20,8 -7,1 -13,1 -20,2 -5,-4 -10,-7 -15,-10 -9,-5 -17,-10 -26,-16 -8,-1 -15,-2 -23,-3 -6,1 -12,3 -18,4 -7,-8 -13,-16 -19,-25 -15,-12 -29,-23 -44,-35 -12,-8 -25,-16 -37,-24 -7,-5 -14,-9 -21,-13 -6,-9 -13,-17 -19,-25 -6,-6 -12,-11 -18,-17 -4,2 -9,4 -13,6 -9,3 -17,7 -25,11 -7,0 -14,-1 -21,-2 -4,-2 -9,-5 -14,-8 -6,-12 -13,-24 -20,-36 -10,-7 -20,-14 -30,-21 -3,-2 -6,-5 -9,-7 1,-3 2,-6 4,-8 7,-2 14,-4 22,-6 8,-4 16,-7 24,-11 1,-5 2,-9 3,-13 1,-4 1,-7 2,-10 -4,-4 -9,-7 -13,-11 -18,-9 -36,-18 -55,-28 -11,-8 -23,-16 -34,-24 -7,-7 -13,-14 -20,-20 -11,-16 -22,-32 -34,-49 -9,-9 -17,-18 -26,-27 -5,1 -10,2 -14,3 -2,1 -4,2 -5,3 -5,4 -10,8 -15,12 -8,3 -15,7 -23,11 -11,0 -23,0 -34,0 -9,8 -18,17 -26,25 -7,5 -14,10 -21,15 -5,0 -9,0 -14,0 -10,-3 -19,-6 -29,-8 -1,-10 -3,-20 -5,-29 -1,-7 -3,-14 -4,-21 -6,0 -13,-1 -19,-2 -7,4 -15,8 -22,12 -6,4 -11,8 -17,12 -3,-8 -5,-15 -8,-22 -1,-11 -2,-23 -3,-34 1,-11 1,-21 2,-31 1,-19 1,-38 2,-57 3,-10 6,-20 9,-30 7,-6 15,-13 23,-19 10,-9 19,-18 28,-26 2,-4 4,-9 5,-13 1,-2 2,-3 2,-5 -1,-4 -3,-7 -5,-11 -8,-5 -15,-10 -23,-14 -7,-4 -15,-7 -22,-11 -6,-1 -12,-1 -18,-2 -5,-2 -9,-4 -13,-6 -2,-7 -4,-13 -6,-19 -3,-1 -6,-3 -9,-5 7,-5 13,-10 20,-16 5,-7 11,-14 16,-21 4,-6 7,-13 10,-19 3,-6 6,-12 9,-18 1,-4 2,-7 3,-10 0,-5 0,-9 0,-14 -4,-5 -8,-10 -12,-15 -6,-2 -11,-5 -17,-8 -3,-4 -5,-8 -7,-11 0,-9 0,-18 0,-27 -1,-7 -2,-14 -3,-21 3,-4 7,-7 11,-11 3,-2 6,-4 10,-7 3,-2 6,-4 9,-6 3,-3 6,-7 9,-10 2,-5 4,-10 6,-15 4,-6 8,-11 12,-17 1,-3 3,-5 5,-8 2,-2 3,-3 4,-5 2,-7 3,-13 4,-20 1,-6 3,-12 5,-18 3,-4 6,-8 9,-11 4,-4 9,-7 13,-10 4,-2 8,-3 11,-5 6,0 13,-1 19,-2 4,-1 8,-3 13,-5 7,-2 14,-4 21,-6 7,-2 14,-4 20,-7 6,-4 11,-7 17,-11 7,-1 15,-1 22,-1 7,-2 15,-3 22,-4 5,-3 10,-7 15,-10 4,-3 8,-6 13,-9 7,2 14,4 21,6 7,4 15,7 23,10 7,2 14,4 22,5 8,4 16,8 24,11 6,2 12,3 18,4 5,1 9,3 14,4 5,3 10,6 15,9 6,-1 13,-2 19,-3 6,1 11,3 17,4 3,4 6,7 9,10 3,4 5,7 8,10 4,2 9,3 13,5 4,0 8,1 13,1 3,-4 6,-7 10,-11 0,-5 1,-10 2,-15 0,-5 0,-11 0,-16 -2,-4 -4,-9 -6,-13 -2,-5 -3,-9 -5,-13 -2,-5 -4,-9 -7,-13 -1,-3 -3,-5 -4,-8 -3,-5 -7,-11 -10,-16 9,-6 18,-13 27,-19 4,-6 9,-12 14,-18 6,1 11,2 16,3 16,19 31,38 47,58 16,23 32,46 48,69z"/>
   <path fill="#477A57" d="M642 194c14,17 28,35 43,53 7,5 14,10 22,15 5,4 11,8 17,12 16,1 32,2 48,3 10,-3 20,-5 30,-7 14,5 28,11 42,17 15,11 29,23 44,35 7,7 15,14 22,20 20,10 41,19 61,29 6,2 12,5 17,8 10,6 21,11 31,17 1,16 1,31 2,47 3,3 6,7 9,10 20,7 41,15 61,22 21,7 43,13 64,20 20,1 39,2 58,4 6,6 12,13 19,19 10,17 20,33 30,49 25,10 49,19 74,29 0,8 1,16 1,23 -21,1 -42,1 -63,1 1,23 2,45 3,68 -9,8 -18,16 -26,24 -25,9 -49,17 -73,26 -15,14 -29,28 -43,42 -6,6 -12,12 -19,19 -8,14 -17,29 -26,43 -10,18 -21,35 -32,53 -8,11 -17,22 -25,34 0,12 0,25 1,37 0,10 0,20 0,29 -9,20 -18,39 -27,59 -14,19 -29,38 -44,57 0,1 0,1 0,1 -7,16 -15,32 -22,48 -1,5 -2,10 -3,15 4,7 7,15 11,22 9,7 17,13 26,20 -5,4 -11,8 -16,12 -4,6 -8,11 -11,17 -7,1 -13,2 -19,4 -7,-4 -13,-8 -20,-12 -5,-6 -11,-12 -16,-18 -9,-7 -17,-14 -26,-21 -4,-3 -9,-6 -14,-9 -8,3 -17,5 -26,8 -6,2 -13,5 -20,8 -6,1 -13,1 -19,1 -5,-3 -11,-6 -16,-9 -8,-5 -17,-10 -25,-16 -8,-1 -16,-2 -24,-3 -6,1 -12,3 -18,4 -6,-8 -12,-17 -19,-25 -14,-12 -29,-23 -43,-35 -13,-8 -25,-16 -37,-24 -7,-5 -14,-9 -21,-14 -7,-8 -13,-16 -20,-24 -6,-6 -12,-11 -18,-17 -4,2 -8,4 -13,5 -8,4 -17,8 -25,12 -7,0 -13,-1 -20,-2 -5,-2 -9,-5 -14,-8 -7,-12 -14,-24 -20,-36 -10,-7 -21,-14 -31,-21 -3,-3 -6,-5 -9,-7 1,-3 3,-6 4,-8 7,-2 15,-4 22,-6 8,-4 17,-7 25,-11 1,-5 1,-9 2,-14 1,-3 2,-6 3,-9 -5,-4 -9,-8 -14,-11 -18,-9 -36,-19 -54,-28 -12,-8 -23,-16 -35,-24 -6,-7 -13,-14 -19,-20 -12,-17 -23,-33 -34,-49 -9,-9 -18,-18 -27,-27 -4,1 -9,2 -14,3 -2,1 -3,2 -5,3 -5,4 -10,8 -15,11 -7,4 -15,8 -23,12 -11,0 -22,0 -34,0 -8,8 -17,16 -26,25 -7,5 -14,10 -21,15 -4,0 -9,0 -14,0 -9,-3 -19,-6 -28,-9 -2,-9 -4,-19 -5,-29 -2,-6 -3,-13 -4,-20 -7,-1 -13,-1 -20,-2 -7,4 -14,8 -22,11 -5,4 -11,9 -16,13 -3,-8 -6,-15 -9,-22 -1,-11 -2,-23 -3,-34 1,-11 2,-21 2,-31 1,-19 2,-38 3,-57 3,-10 5,-20 8,-30 8,-6 16,-13 24,-19 9,-9 18,-18 28,-26 1,-5 3,-9 5,-13 0,-2 1,-3 2,-5 -2,-4 -4,-8 -5,-11 -8,-5 -16,-10 -24,-14 -7,-4 -14,-7 -22,-11 -6,-1 -12,-2 -18,-2 -4,-2 -9,-4 -13,-6 -2,-7 -4,-13 -6,-19 -3,-1 -6,-3 -8,-5 6,-5 13,-10 19,-16 6,-7 11,-14 17,-21 3,-6 6,-13 10,-19 3,-6 5,-12 8,-18 1,-4 2,-7 4,-10 -1,-5 -1,-9 -1,-14 -4,-5 -7,-10 -11,-15 -6,-2 -12,-5 -18,-8 -2,-4 -5,-8 -7,-12 0,-8 0,-17 0,-26 -1,-7 -2,-14 -3,-21 4,-4 8,-8 12,-11 3,-2 6,-4 9,-7 3,-2 7,-4 10,-6 3,-3 5,-7 8,-10 2,-5 5,-10 7,-15 4,-6 7,-12 11,-17 2,-3 4,-5 6,-8 1,-2 3,-3 4,-5 1,-7 2,-13 3,-20 2,-6 4,-12 5,-18 3,-4 6,-8 9,-11 5,-4 9,-7 14,-10 3,-2 7,-3 11,-5 6,-1 12,-1 18,-2 5,-2 9,-3 13,-5 7,-2 14,-4 22,-6 6,-2 13,-4 20,-7 5,-4 11,-7 16,-11 8,-1 15,-1 23,-1 7,-2 14,-3 21,-4 5,-3 10,-7 15,-10 5,-3 9,-6 13,-9 7,2 14,4 21,6 8,4 15,7 23,10 8,2 15,4 22,5 8,4 17,8 25,11 6,1 12,3 18,4 4,1 9,3 13,4 5,3 11,6 16,9 6,-1 12,-2 18,-3 6,1 12,3 18,4 3,4 6,7 8,10 3,4 6,7 9,10 4,2 8,3 12,5 5,0 9,0 13,1 3,-4 7,-7 10,-11 1,-5 2,-10 3,-15 0,-5 0,-11 0,-16 -2,-4 -4,-9 -7,-13 -1,-5 -3,-9 -4,-14 -2,-4 -5,-8 -7,-12 -2,-3 -3,-5 -5,-8 -3,-5 -6,-11 -10,-16 9,-6 18,-13 27,-19 5,-6 10,-12 15,-18 5,1 10,2 16,3 15,19 31,38 46,58 16,23 32,46 49,69z"/>
   <path fill="#4B7F5B" d="M641 187c14,17 29,35 43,53 7,5 15,10 22,15 6,4 12,8 17,12 16,1 33,2 49,3 9,-3 19,-5 29,-7 14,5 28,11 42,17 15,11 30,23 45,35 7,7 14,13 21,20 21,10 41,19 62,29 5,2 11,5 17,8 10,6 20,11 30,17 1,16 2,31 2,47 3,3 6,7 9,10 21,7 41,15 61,22 22,6 43,13 65,20 19,1 38,2 57,4 7,6 13,13 19,19 10,16 20,33 31,49 24,10 49,19 73,29 1,8 1,15 2,23 -22,1 -43,1 -64,1 1,23 2,45 3,68 -9,8 -17,16 -26,24 -24,9 -48,17 -73,26 -14,14 -28,28 -43,42 -6,6 -12,12 -18,19 -9,14 -17,29 -26,43 -11,18 -21,35 -32,53 -9,11 -17,22 -26,34 1,12 1,24 1,37 0,10 0,20 0,29 -8,20 -17,39 -26,58 -15,20 -30,39 -44,58 -1,0 -1,1 -1,1 -7,16 -14,32 -21,48 -2,5 -3,10 -4,15 4,7 8,15 12,22 8,7 17,13 25,20 -5,4 -10,8 -15,12 -4,6 -8,11 -12,17 -6,1 -12,2 -19,4 -6,-4 -13,-8 -19,-12 -6,-6 -11,-12 -17,-18 -8,-7 -17,-14 -25,-21 -5,-3 -9,-6 -14,-9 -9,3 -18,5 -26,7 -7,3 -14,6 -20,9 -7,1 -13,1 -20,1 -5,-3 -10,-6 -15,-9 -9,-5 -17,-10 -26,-16 -8,-1 -15,-2 -23,-3 -6,1 -12,3 -18,4 -7,-8 -13,-17 -19,-25 -15,-12 -29,-24 -44,-35 -12,-8 -25,-16 -37,-24 -7,-5 -14,-9 -21,-14 -6,-8 -13,-16 -19,-25 -6,-5 -12,-10 -18,-16 -4,2 -9,4 -13,5 -9,4 -17,8 -25,12 -7,0 -14,-1 -21,-2 -4,-2 -9,-5 -14,-8 -6,-12 -13,-24 -20,-36 -10,-7 -20,-14 -30,-21 -3,-3 -6,-5 -9,-7 1,-3 2,-6 4,-8 7,-2 14,-4 22,-6 8,-4 16,-8 24,-11 1,-5 2,-9 3,-14 1,-3 1,-6 2,-9 -4,-4 -9,-8 -13,-11 -18,-10 -36,-19 -55,-28 -11,-8 -23,-16 -34,-24 -7,-7 -13,-14 -20,-21 -11,-16 -22,-32 -34,-48 -9,-9 -17,-18 -26,-27 -5,1 -10,2 -14,2 -2,2 -4,3 -5,4 -5,4 -10,8 -15,11 -8,4 -15,8 -23,12 -11,0 -23,0 -34,0 -9,8 -18,16 -26,25 -7,5 -14,10 -21,15 -5,0 -9,0 -14,0 -10,-3 -19,-6 -29,-9 -1,-9 -3,-19 -5,-29 -1,-6 -3,-13 -4,-20 -6,-1 -13,-1 -19,-2 -7,4 -15,8 -22,11 -6,4 -11,8 -17,12 -3,-7 -5,-14 -8,-21 -1,-11 -2,-23 -3,-34 1,-11 1,-21 2,-32 1,-18 1,-37 2,-56 3,-10 6,-20 9,-30 7,-6 15,-13 23,-19 10,-9 19,-18 28,-26 2,-5 3,-9 5,-13 1,-2 2,-4 2,-5 -1,-4 -3,-8 -5,-11 -8,-5 -15,-10 -23,-14 -7,-4 -15,-7 -22,-11 -6,-1 -12,-2 -18,-3 -5,-2 -9,-3 -13,-5 -2,-7 -4,-13 -6,-19 -3,-2 -6,-3 -9,-5 7,-5 13,-10 20,-16 5,-7 11,-14 16,-21 3,-6 7,-13 10,-19 3,-6 6,-12 9,-19 1,-3 2,-6 3,-9 0,-5 0,-10 0,-14 -4,-5 -8,-10 -12,-15 -6,-3 -11,-5 -17,-8 -3,-4 -5,-8 -7,-12 0,-8 0,-17 0,-26 -1,-7 -2,-14 -3,-21 3,-4 7,-8 11,-11 3,-2 6,-5 10,-7 3,-2 6,-4 9,-6 3,-4 6,-7 9,-11 2,-4 4,-9 6,-14 4,-6 8,-12 12,-17 1,-3 3,-5 5,-8 2,-2 3,-3 4,-5 2,-7 3,-13 4,-20 1,-6 3,-12 5,-18 3,-4 6,-8 9,-12 4,-3 9,-6 13,-10 4,-1 8,-3 11,-4 6,-1 13,-1 19,-2 4,-2 8,-3 13,-5 7,-2 14,-4 21,-6 7,-2 14,-4 20,-7 6,-4 11,-8 17,-11 7,-1 15,-1 22,-2 7,-1 15,-2 22,-3 5,-3 10,-7 15,-10 4,-3 8,-6 13,-9 7,2 14,4 21,6 7,3 15,7 23,10 7,2 14,4 22,5 8,4 16,8 24,11 6,1 12,3 18,4 5,1 9,3 14,4 5,3 10,6 15,9 6,-1 13,-2 19,-3 6,1 11,3 17,4 3,4 6,7 9,10 3,3 5,7 8,10 4,2 9,3 13,5 4,0 8,0 13,1 3,-4 6,-8 10,-11 0,-5 1,-10 2,-15 0,-6 0,-11 0,-16 -2,-4 -4,-9 -6,-13 -2,-5 -3,-9 -5,-14 -2,-4 -4,-8 -7,-12 -1,-3 -3,-5 -4,-8 -3,-5 -7,-11 -10,-16 9,-6 18,-13 27,-19 4,-6 9,-12 14,-18 6,1 11,2 16,3 16,19 31,38 47,58 16,23 32,46 48,69z"/>
   <path fill="#4F8460" d="M641 179c14,18 28,36 42,54 8,5 15,10 23,15 5,4 11,8 17,12 16,1 32,2 48,3 10,-3 20,-5 30,-7 14,5 28,11 42,16 14,12 29,24 44,36 7,7 15,13 22,20 20,10 41,19 61,29 6,2 12,5 17,8 10,6 21,11 31,17 1,16 1,31 2,47 3,3 6,7 9,10 20,7 41,14 61,22 21,6 43,13 64,20 20,1 39,2 58,3 6,7 12,14 19,20 10,16 20,33 30,49 25,10 49,19 74,29 0,8 1,15 1,23 -21,1 -42,1 -63,1 1,23 2,45 3,68 -9,8 -18,16 -26,24 -25,9 -49,17 -73,26 -15,14 -29,27 -43,41 -6,7 -13,13 -19,20 -8,14 -17,29 -26,43 -10,18 -21,35 -32,53 -8,11 -17,22 -25,34 0,12 0,24 1,37 0,10 0,19 0,29 -9,20 -18,39 -27,58 -14,20 -29,39 -44,58 0,0 0,1 0,1 -7,16 -15,32 -22,48 -1,5 -2,10 -3,15 3,7 7,15 11,22 9,6 17,13 26,20 -5,4 -11,8 -16,12 -4,6 -8,11 -11,17 -7,1 -13,2 -19,4 -7,-4 -13,-8 -20,-12 -5,-6 -11,-12 -16,-18 -9,-7 -17,-14 -26,-21 -4,-3 -9,-6 -14,-9 -8,2 -17,5 -26,7 -6,3 -13,6 -20,9 -6,1 -13,1 -19,1 -5,-3 -11,-6 -16,-9 -8,-5 -17,-10 -25,-16 -8,-1 -16,-2 -24,-3 -6,1 -12,3 -18,4 -6,-8 -12,-17 -19,-25 -14,-12 -29,-24 -43,-35 -13,-8 -25,-16 -37,-24 -7,-5 -14,-9 -21,-14 -7,-8 -13,-16 -20,-25 -6,-5 -12,-10 -18,-16 -4,2 -8,4 -13,5 -8,4 -17,8 -25,12 -7,-1 -13,-1 -20,-2 -5,-2 -9,-5 -14,-8 -7,-12 -14,-24 -20,-36 -10,-7 -21,-14 -31,-21 -3,-3 -6,-5 -9,-7 1,-3 3,-6 4,-9 7,-1 15,-3 22,-5 8,-4 16,-8 25,-11 1,-5 1,-9 2,-14 1,-3 2,-6 3,-9 -5,-4 -9,-8 -14,-12 -18,-9 -36,-18 -54,-27 -12,-8 -23,-16 -35,-24 -6,-7 -13,-14 -19,-21 -12,-16 -23,-32 -34,-48 -9,-9 -18,-18 -27,-27 -4,1 -9,2 -14,2 -2,2 -3,3 -5,4 -5,4 -10,8 -15,11 -7,4 -15,8 -23,12 -11,0 -22,0 -34,0 -8,8 -17,16 -26,24 -7,5 -14,10 -21,16 -4,0 -9,0 -14,0 -9,-3 -19,-6 -28,-9 -2,-9 -4,-19 -5,-29 -2,-6 -3,-13 -4,-20 -7,-1 -13,-1 -20,-2 -7,4 -14,8 -22,11 -5,4 -11,8 -16,12 -3,-7 -6,-14 -9,-21 -1,-11 -2,-23 -3,-34 1,-11 2,-21 2,-32 1,-18 2,-37 3,-56 3,-10 5,-20 8,-30 8,-7 16,-13 24,-19 9,-9 18,-18 28,-26 1,-5 3,-9 5,-13 0,-2 1,-4 2,-5 -2,-4 -4,-8 -5,-11 -8,-5 -16,-10 -24,-14 -7,-4 -14,-7 -22,-11 -6,-1 -12,-2 -18,-3 -4,-2 -9,-4 -13,-6 -2,-6 -4,-12 -6,-18 -3,-2 -6,-3 -8,-5 6,-5 13,-11 19,-16 6,-7 11,-14 17,-21 3,-6 6,-13 10,-19 3,-6 5,-12 8,-19 1,-3 2,-6 4,-9 -1,-5 -1,-10 -1,-14 -4,-5 -7,-10 -11,-15 -6,-3 -12,-5 -18,-8 -2,-4 -5,-8 -7,-12 0,-8 0,-17 0,-26 -1,-7 -2,-14 -3,-21 4,-4 8,-8 12,-11 3,-3 6,-5 9,-7 3,-2 7,-4 10,-6 3,-4 5,-7 8,-11 2,-4 5,-9 7,-14 4,-6 7,-12 11,-18 2,-2 4,-5 6,-7 1,-2 2,-4 4,-5 1,-7 2,-13 3,-20 2,-6 4,-12 5,-18 3,-4 6,-8 9,-12 5,-3 9,-6 14,-10 3,-1 7,-3 11,-4 6,-1 12,-1 18,-2 5,-2 9,-3 13,-5 7,-2 14,-4 22,-6 6,-2 13,-5 20,-7 5,-4 11,-8 16,-12 8,0 15,0 23,-1 7,-1 14,-2 21,-3 5,-3 10,-7 15,-10 5,-3 9,-6 13,-9 7,2 14,4 21,6 8,3 15,7 23,10 8,2 15,3 22,5 8,4 17,8 25,11 6,1 12,2 18,4 4,1 9,3 13,4 5,3 11,6 16,9 6,-1 12,-2 18,-3 6,1 12,3 18,4 3,4 6,7 8,10 3,3 6,7 9,10 4,2 8,3 12,5 5,0 9,0 13,1 3,-4 7,-8 10,-11 1,-5 2,-10 3,-15 0,-6 0,-11 0,-16 -2,-5 -4,-9 -7,-13 -1,-5 -3,-9 -4,-14 -2,-4 -5,-8 -7,-12 -2,-3 -3,-5 -5,-8 -3,-5 -6,-11 -10,-16 9,-7 18,-13 27,-19 5,-6 10,-12 15,-18 5,0 10,1 16,2 15,20 31,39 46,59 16,23 32,46 49,68z"/>
   <path fill="#548964" d="M640 172c14,18 29,36 43,54 7,5 15,10 22,15 6,4 12,8 17,12 16,1 33,2 49,3 9,-3 19,-5 29,-7 14,5 28,11 42,16 15,12 30,24 45,36 7,7 14,13 21,20 21,10 41,19 62,29 5,2 11,5 17,8 10,5 20,11 30,17 1,16 2,31 2,47 3,3 6,7 9,10 21,7 41,14 61,22 22,6 43,13 65,20 19,1 38,2 57,3 7,7 13,13 19,20 10,16 20,33 31,49 24,10 49,19 73,29 1,8 1,15 2,23 -22,0 -43,1 -64,1 1,23 2,45 3,68 -9,8 -17,16 -26,24 -24,8 -48,17 -73,25 -14,14 -28,28 -43,42 -6,7 -12,13 -18,20 -9,14 -17,29 -26,43 -11,18 -21,35 -32,53 -9,11 -17,22 -26,33 1,13 1,25 1,38 0,10 0,19 0,29 -8,20 -17,39 -26,58 -15,20 -30,39 -44,58 -1,0 -1,1 -1,1 -7,16 -14,32 -21,48 -2,5 -3,10 -4,15 4,7 8,14 12,22 8,6 17,13 25,19 -5,5 -10,9 -15,13 -4,6 -8,11 -12,17 -6,1 -12,2 -19,4 -6,-4 -13,-8 -19,-13 -6,-6 -11,-12 -17,-18 -8,-6 -17,-13 -25,-20 -5,-3 -9,-6 -14,-9 -9,2 -18,5 -26,7 -7,3 -14,6 -20,9 -7,0 -13,1 -20,1 -5,-3 -10,-6 -15,-9 -9,-5 -17,-11 -26,-16 -8,-1 -15,-2 -23,-3 -6,1 -12,3 -18,4 -7,-8 -13,-17 -19,-25 -15,-12 -29,-24 -44,-36 -12,-7 -25,-15 -37,-23 -7,-5 -14,-9 -21,-14 -6,-8 -13,-16 -19,-25 -6,-5 -12,-10 -18,-16 -4,2 -9,4 -13,5 -9,4 -17,8 -25,12 -7,-1 -14,-1 -21,-2 -4,-3 -9,-5 -14,-8 -6,-12 -13,-24 -20,-36 -10,-7 -20,-14 -30,-21 -3,-3 -6,-5 -9,-7 1,-3 2,-6 4,-9 7,-1 14,-3 22,-5 8,-4 16,-8 24,-11 1,-5 2,-9 3,-14 1,-3 1,-6 2,-9 -4,-4 -9,-8 -13,-12 -18,-9 -36,-18 -55,-27 -11,-8 -23,-16 -34,-24 -7,-7 -13,-14 -20,-21 -11,-16 -22,-32 -34,-48 -9,-9 -17,-18 -26,-27 -5,1 -10,2 -14,2 -2,1 -4,3 -5,4 -5,4 -10,7 -15,11 -8,4 -15,8 -23,12 -11,0 -23,0 -34,0 -9,8 -18,16 -26,24 -7,5 -14,10 -21,15 -5,0 -10,0 -14,0 -10,-2 -19,-5 -29,-8 -1,-9 -3,-19 -5,-29 -1,-7 -3,-13 -4,-20 -6,-1 -13,-1 -19,-2 -7,4 -15,8 -22,11 -6,4 -11,8 -17,12 -3,-7 -5,-14 -8,-21 -1,-12 -2,-23 -3,-34 1,-11 1,-21 2,-32 1,-18 1,-37 2,-56 3,-10 6,-20 9,-30 7,-7 15,-13 23,-19 10,-9 19,-18 28,-27 2,-4 3,-8 5,-12 1,-2 2,-4 2,-5 -1,-4 -3,-8 -5,-11 -8,-5 -15,-10 -23,-14 -7,-4 -15,-7 -22,-11 -6,-1 -12,-2 -18,-3 -5,-2 -9,-4 -13,-6 -2,-6 -4,-12 -6,-18 -3,-2 -6,-3 -9,-5 7,-5 13,-11 20,-16 5,-7 11,-14 16,-21 3,-6 7,-13 10,-19 3,-6 6,-13 9,-19 1,-3 2,-6 3,-9 0,-5 0,-10 -1,-15 -3,-4 -7,-9 -11,-14 -6,-3 -11,-5 -17,-8 -3,-4 -5,-8 -7,-12 0,-8 0,-17 0,-26 -1,-7 -2,-14 -3,-21 3,-4 7,-8 11,-11 3,-3 6,-5 10,-7 3,-2 6,-4 9,-6 3,-4 6,-7 8,-11 3,-4 5,-9 7,-14 4,-6 8,-12 12,-18 1,-2 3,-5 5,-7 2,-2 3,-4 4,-5 2,-7 3,-14 4,-20 1,-6 3,-12 5,-18 3,-4 6,-8 9,-12 4,-3 9,-6 13,-10 4,-1 8,-3 11,-4 6,-1 13,-1 19,-2 4,-2 8,-3 13,-5 7,-2 14,-4 21,-6 7,-2 14,-5 20,-7 6,-4 11,-8 17,-12 7,0 15,0 22,-1 7,-1 15,-2 22,-3 5,-4 10,-7 15,-10 4,-3 8,-6 13,-9 7,2 14,4 20,6 8,3 16,7 24,10 7,2 14,3 22,5 8,4 16,7 24,11 6,1 12,2 18,4 5,1 9,3 14,4 5,3 10,6 15,8 6,-1 13,-1 19,-2 6,1 11,3 17,4 3,3 6,7 9,10 3,3 5,7 8,10 4,1 9,3 13,4 4,1 8,1 13,2 3,-4 6,-8 10,-11 0,-5 1,-10 2,-15 0,-6 0,-11 0,-16 -2,-5 -4,-9 -6,-14 -2,-4 -3,-8 -5,-13 -2,-4 -4,-8 -7,-12 -1,-3 -3,-5 -4,-8 -3,-6 -7,-11 -10,-16 9,-7 18,-13 27,-19 4,-6 9,-12 14,-19 5,1 11,2 16,3 16,20 31,39 47,58 16,23 32,46 48,69z"/>
   <path fill="#588E69" d="M640 165c14,18 28,36 42,54 8,5 15,10 23,15 5,4 11,8 17,12 16,1 32,2 48,2 10,-2 20,-4 30,-7 14,6 28,12 42,17 14,12 29,24 44,36 7,7 15,13 22,20 20,10 41,19 61,28 6,3 12,6 17,9 10,5 21,11 31,17 0,16 1,31 2,47 3,3 6,7 9,10 20,7 41,14 61,21 21,7 43,14 64,21 20,1 39,2 58,3 6,7 12,13 19,20 10,16 20,33 30,49 25,9 49,19 74,29 0,7 1,15 1,23 -21,0 -42,1 -63,1 1,23 2,45 3,68 -9,8 -18,16 -26,24 -25,8 -49,17 -73,25 -15,14 -29,28 -43,42 -6,7 -13,13 -19,19 -8,15 -17,29 -26,44 -10,18 -21,35 -32,53 -8,11 -17,22 -25,33 0,13 0,25 1,38 0,9 0,19 0,29 -9,20 -18,39 -27,58 -14,19 -29,39 -44,58 0,0 0,1 0,1 -8,16 -15,32 -22,48 -1,5 -2,10 -3,15 3,7 7,14 11,22 9,6 17,13 26,19 -5,5 -11,9 -16,13 -4,6 -8,11 -11,17 -7,1 -13,2 -19,4 -7,-5 -13,-9 -20,-13 -5,-6 -11,-12 -16,-18 -9,-6 -17,-13 -26,-20 -4,-3 -9,-6 -14,-9 -8,2 -17,5 -26,7 -7,3 -13,6 -20,9 -6,0 -13,1 -19,1 -5,-3 -11,-6 -16,-9 -8,-5 -17,-11 -25,-16 -8,-1 -16,-2 -24,-3 -6,1 -12,2 -18,4 -6,-9 -12,-17 -19,-25 -14,-12 -29,-24 -43,-36 -13,-8 -25,-15 -37,-23 -7,-5 -14,-9 -21,-14 -7,-8 -13,-16 -20,-25 -6,-5 -12,-11 -18,-16 -4,2 -8,3 -13,5 -8,4 -17,8 -25,12 -7,-1 -13,-1 -20,-2 -5,-3 -10,-5 -14,-8 -7,-12 -14,-24 -20,-36 -10,-7 -21,-14 -31,-22 -3,-2 -6,-4 -9,-7 1,-2 3,-5 4,-8 7,-2 15,-3 22,-5 8,-4 16,-8 25,-11 1,-5 1,-9 2,-14 1,-3 2,-6 3,-9 -5,-4 -9,-8 -14,-12 -18,-9 -36,-18 -54,-27 -12,-8 -23,-16 -35,-24 -6,-7 -13,-14 -19,-21 -12,-16 -23,-32 -34,-48 -9,-9 -18,-18 -27,-27 -4,1 -9,1 -14,2 -2,1 -3,3 -5,4 -5,4 -10,7 -15,11 -7,4 -15,8 -23,12 -11,0 -22,0 -34,0 -8,8 -17,16 -26,24 -7,5 -14,10 -21,15 -4,0 -9,0 -14,0 -9,-2 -19,-5 -28,-8 -2,-9 -4,-19 -5,-29 -2,-7 -3,-13 -4,-20 -7,-1 -13,-1 -20,-2 -7,4 -14,7 -22,11 -5,4 -11,8 -16,12 -3,-7 -6,-14 -9,-21 -1,-12 -2,-23 -3,-34 1,-11 2,-21 2,-32 1,-19 2,-37 3,-56 2,-10 5,-20 8,-30 8,-7 16,-13 24,-19 9,-9 18,-18 28,-27 1,-4 3,-8 5,-12 0,-2 1,-4 2,-5 -2,-4 -4,-8 -5,-12 -8,-4 -16,-9 -24,-14 -7,-3 -14,-7 -22,-10 -6,-1 -12,-2 -18,-3 -4,-2 -9,-4 -13,-6 -2,-6 -4,-12 -6,-18 -3,-2 -6,-3 -8,-5 6,-5 13,-11 19,-16 6,-7 11,-14 17,-21 3,-6 6,-13 10,-19 3,-6 5,-13 8,-19 1,-3 2,-6 4,-9 -1,-5 -1,-10 -1,-15 -4,-4 -7,-9 -11,-14 -6,-3 -12,-5 -18,-8 -2,-4 -5,-8 -7,-12 0,-9 0,-17 0,-26 -1,-7 -2,-14 -3,-21 4,-4 8,-8 12,-12 3,-2 6,-4 9,-6 3,-2 7,-4 10,-6 3,-4 5,-7 8,-11 2,-5 5,-9 7,-14 4,-6 7,-12 11,-18 2,-2 4,-5 6,-7 1,-2 2,-4 4,-5 1,-7 2,-14 3,-20 2,-6 4,-12 5,-18 3,-4 6,-8 9,-12 5,-3 9,-6 14,-10 3,-1 7,-3 11,-4 6,-1 12,-1 18,-2 5,-2 9,-4 13,-5 7,-2 14,-4 21,-6 7,-2 14,-5 21,-7 5,-4 11,-8 16,-12 8,0 15,0 23,-1 7,-1 14,-2 21,-3 5,-4 10,-7 15,-10 5,-3 9,-6 13,-9 7,2 14,4 21,6 8,3 15,7 23,10 8,2 15,3 22,5 8,4 17,7 25,11 6,1 12,2 18,3 4,2 9,4 13,5 5,3 11,6 16,8 6,-1 12,-2 18,-3 6,2 12,4 18,5 3,3 6,7 8,10 3,3 6,7 9,10 4,1 8,3 12,4 5,1 9,1 13,2 3,-4 7,-8 10,-11 1,-5 2,-10 3,-15 0,-6 0,-11 0,-16 -2,-5 -4,-9 -7,-14 -1,-4 -3,-8 -4,-13 -2,-4 -5,-8 -7,-12 -2,-3 -3,-6 -5,-8 -3,-6 -6,-11 -10,-16 9,-7 18,-13 27,-19 5,-6 10,-12 15,-19 5,1 10,2 16,3 15,20 31,39 46,58 16,23 32,46 49,69z"/>
   <path fill="#5C936D" d="M639 158c14,18 29,36 43,54 7,5 15,10 22,15 6,4 12,8 17,12 16,1 33,2 49,2 9,-2 19,-4 29,-7 14,6 28,12 42,17 15,12 30,24 45,36 7,6 14,13 21,20 21,9 41,19 62,28 5,3 11,6 17,8 10,6 20,12 30,18 1,15 2,31 2,46 3,4 6,7 9,11 21,7 41,14 61,21 22,7 43,14 65,21 19,1 38,2 57,3 7,7 13,13 19,20 10,16 20,32 31,49 24,9 49,19 73,29 1,7 1,15 2,23 -22,0 -43,1 -64,1 1,23 2,45 3,68 -9,8 -17,16 -26,24 -24,8 -48,17 -73,25 -14,14 -28,28 -43,42 -6,7 -12,13 -18,19 -9,15 -17,29 -26,44 -11,18 -21,35 -32,53 -9,11 -17,22 -26,33 1,13 1,25 1,38 0,9 0,19 0,29 -8,19 -17,39 -26,58 -15,19 -30,39 -44,58 -1,0 -1,1 -1,1 -7,16 -14,32 -21,47 -2,6 -3,11 -4,16 4,7 8,14 12,22 8,6 17,13 25,19 -5,5 -10,9 -15,13 -4,6 -8,11 -12,16 -6,2 -12,3 -19,4 -6,-4 -13,-8 -19,-12 -6,-6 -11,-12 -17,-18 -8,-6 -17,-13 -25,-20 -5,-3 -9,-6 -14,-9 -9,2 -18,5 -26,7 -7,3 -14,6 -21,9 -6,0 -12,1 -19,1 -5,-3 -10,-6 -15,-9 -9,-5 -17,-11 -26,-16 -8,-1 -15,-2 -23,-3 -6,1 -12,2 -18,4 -7,-9 -13,-17 -19,-25 -15,-12 -29,-24 -44,-36 -12,-8 -25,-16 -37,-23 -7,-5 -14,-9 -21,-14 -6,-8 -13,-17 -19,-25 -6,-5 -12,-11 -18,-16 -4,2 -9,3 -13,5 -9,4 -17,8 -25,12 -7,-1 -14,-1 -21,-2 -4,-3 -9,-5 -14,-8 -6,-12 -13,-24 -20,-36 -10,-7 -20,-14 -30,-22 -3,-2 -6,-4 -9,-7 1,-2 2,-5 4,-8 7,-2 14,-4 22,-5 8,-4 16,-8 24,-12 1,-4 2,-8 3,-13 1,-3 1,-6 2,-9 -4,-4 -9,-8 -13,-12 -18,-9 -36,-18 -55,-27 -11,-8 -23,-16 -35,-24 -6,-7 -12,-14 -19,-21 -11,-16 -22,-32 -34,-48 -9,-9 -17,-18 -26,-27 -5,1 -10,1 -15,2 -1,1 -3,2 -4,4 -5,3 -10,7 -15,11 -8,4 -15,8 -23,12 -11,0 -23,0 -34,0 -9,8 -18,16 -26,24 -7,5 -14,10 -21,15 -5,0 -10,0 -14,0 -10,-2 -19,-5 -29,-8 -1,-10 -3,-19 -5,-29 -1,-7 -3,-13 -4,-20 -6,-1 -13,-1 -19,-2 -7,4 -15,7 -22,11 -6,4 -11,8 -17,12 -3,-7 -5,-14 -8,-21 -1,-12 -2,-23 -3,-35 1,-10 1,-20 2,-31 1,-19 1,-37 2,-56 3,-10 6,-20 9,-30 7,-7 15,-13 23,-20 10,-8 19,-17 28,-26 2,-4 3,-8 5,-12 1,-2 2,-4 2,-6 -1,-3 -3,-7 -5,-11 -8,-4 -15,-9 -23,-14 -7,-3 -15,-7 -22,-10 -6,-1 -12,-2 -18,-3 -5,-2 -9,-4 -13,-6 -2,-6 -4,-12 -6,-18 -3,-2 -6,-3 -9,-5 7,-5 13,-11 20,-16 5,-7 11,-14 16,-21 3,-7 7,-13 10,-19 3,-6 6,-13 9,-19 1,-3 2,-6 3,-9 0,-5 0,-10 -1,-15 -3,-4 -7,-9 -11,-14 -6,-3 -12,-6 -17,-8 -3,-4 -5,-8 -7,-12 0,-9 0,-17 0,-26 -1,-7 -2,-14 -3,-22 3,-3 7,-7 11,-11 3,-2 6,-4 10,-6 3,-2 6,-4 9,-6 3,-4 6,-7 8,-11 3,-5 5,-9 7,-14 4,-6 8,-12 12,-18 1,-2 3,-5 5,-7 2,-2 3,-4 4,-5 2,-7 3,-14 4,-20 1,-6 3,-12 5,-18 3,-4 6,-8 9,-12 4,-3 9,-6 13,-10 4,-1 8,-3 11,-4 6,-1 13,-2 19,-2 4,-2 8,-4 13,-5 7,-2 14,-4 21,-6 7,-2 14,-5 20,-7 6,-4 11,-8 17,-12 7,0 15,0 22,-1 7,-1 15,-2 22,-3 5,-4 10,-7 15,-10 4,-3 8,-6 13,-10 7,3 14,5 20,7 8,3 16,6 24,10 7,2 14,3 22,5 8,4 16,7 24,11 6,1 12,2 18,3 5,2 9,4 14,5 5,3 10,6 15,8 6,-1 13,-2 19,-3 6,2 11,3 17,5 3,3 6,7 9,10 3,3 5,6 8,10 4,1 9,3 13,4 4,1 8,1 13,2 3,-4 6,-8 10,-12 0,-5 1,-10 2,-15 0,-5 0,-10 0,-15 -2,-5 -4,-9 -6,-14 -2,-4 -3,-8 -5,-13 -2,-4 -4,-8 -7,-12 -1,-3 -3,-6 -4,-8 -4,-6 -7,-11 -10,-16 9,-7 18,-13 27,-19 4,-6 9,-13 14,-19 5,1 11,2 16,3 16,20 31,39 47,58 16,23 32,46 48,69z"/>
   <path fill="#609872" d="M639 151c14,18 28,36 42,54 8,5 15,10 23,15 5,4 11,8 17,12 16,1 32,2 48,2 10,-2 20,-4 30,-7 14,6 28,12 42,17 14,12 29,24 44,36 7,6 15,13 22,20 20,9 41,19 61,28 6,3 12,6 17,8 10,6 21,12 31,18 0,15 1,31 2,46 3,4 6,7 9,11 20,7 41,14 61,21 21,7 43,14 64,21 20,1 39,2 58,3 6,7 12,13 18,20 11,16 21,32 31,49 25,9 49,19 74,29 0,7 1,15 1,23 -21,0 -42,1 -63,1 1,23 2,45 3,67 -9,9 -18,17 -26,25 -25,8 -49,17 -73,25 -15,14 -29,28 -43,42 -6,7 -13,13 -19,19 -8,15 -17,29 -26,44 -10,17 -21,35 -32,53 -8,11 -17,22 -25,33 0,13 0,25 0,37 1,10 1,20 1,30 -9,19 -18,39 -27,58 -14,19 -29,39 -44,58 0,0 0,0 0,1 -8,16 -15,32 -22,47 -1,5 -2,10 -3,16 3,7 7,14 11,22 9,6 17,13 26,19 -5,5 -11,9 -16,13 -4,5 -8,11 -11,16 -7,2 -13,3 -19,4 -7,-4 -13,-8 -20,-12 -5,-6 -11,-12 -16,-18 -9,-7 -17,-13 -26,-20 -4,-3 -9,-6 -14,-9 -8,2 -17,5 -26,7 -7,3 -13,6 -20,9 -6,0 -13,1 -19,1 -5,-3 -11,-6 -16,-9 -8,-6 -17,-11 -25,-16 -8,-1 -16,-2 -24,-3 -6,1 -12,2 -18,4 -6,-9 -12,-17 -19,-25 -14,-12 -29,-24 -43,-36 -13,-8 -25,-16 -37,-24 -7,-4 -14,-8 -21,-13 -7,-8 -13,-17 -20,-25 -6,-5 -12,-11 -18,-16 -4,2 -8,3 -13,5 -8,4 -17,8 -25,12 -7,-1 -13,-1 -20,-2 -5,-3 -10,-5 -14,-8 -7,-12 -14,-24 -20,-36 -11,-7 -21,-15 -31,-22 -3,-2 -6,-4 -9,-7 1,-2 3,-5 4,-8 7,-2 15,-4 22,-6 8,-3 16,-7 25,-11 1,-4 1,-9 2,-13 1,-3 2,-6 3,-9 -5,-4 -9,-8 -14,-12 -18,-9 -36,-18 -54,-27 -12,-8 -23,-16 -35,-24 -6,-7 -13,-14 -19,-21 -12,-16 -23,-32 -34,-48 -9,-9 -18,-18 -27,-27 -4,1 -9,1 -14,2 -2,1 -3,2 -5,4 -5,3 -10,7 -15,11 -7,4 -15,8 -23,12 -11,0 -22,0 -34,0 -8,8 -17,16 -26,24 -7,5 -14,10 -21,15 -4,0 -9,0 -14,0 -9,-3 -19,-5 -28,-8 -2,-10 -4,-19 -5,-29 -2,-7 -3,-14 -4,-20 -7,-1 -13,-2 -20,-2 -7,4 -14,7 -22,11 -5,4 -11,8 -17,12 -2,-7 -5,-14 -8,-21 -1,-12 -2,-23 -3,-35 1,-10 2,-20 2,-31 1,-19 2,-37 3,-56 2,-10 5,-20 8,-30 8,-7 16,-13 24,-20 9,-8 18,-17 28,-26 1,-4 3,-8 5,-13 0,-1 1,-3 2,-5 -2,-3 -4,-7 -5,-11 -8,-4 -16,-9 -24,-14 -7,-3 -14,-7 -22,-10 -6,-1 -12,-2 -18,-3 -4,-2 -9,-4 -13,-6 -2,-6 -4,-12 -6,-18 -3,-2 -6,-3 -8,-5 6,-5 13,-11 19,-16 6,-7 11,-14 16,-21 4,-7 7,-13 11,-19 3,-7 5,-13 8,-19 1,-3 2,-6 4,-9 -1,-5 -1,-10 -1,-15 -4,-5 -7,-9 -11,-14 -6,-3 -12,-6 -18,-8 -2,-4 -5,-8 -7,-12 0,-9 0,-17 0,-26 -1,-7 -2,-14 -3,-22 4,-3 8,-7 12,-11 3,-2 6,-4 9,-6 3,-2 7,-4 10,-6 3,-4 5,-7 8,-11 2,-5 5,-10 7,-14 4,-6 7,-12 11,-18 2,-2 4,-5 6,-7 1,-2 2,-4 4,-6 1,-6 2,-13 3,-19 2,-6 4,-12 5,-18 3,-4 6,-8 9,-12 5,-3 9,-7 14,-10 3,-1 7,-3 11,-4 6,-1 12,-2 18,-2 4,-2 9,-4 13,-5 7,-2 14,-4 21,-6 7,-3 14,-5 21,-7 5,-4 11,-8 16,-12 8,0 15,-1 23,-1 7,-1 14,-2 21,-3 5,-4 10,-7 15,-10 5,-3 9,-7 13,-10 7,2 14,5 21,7 8,3 15,6 23,10 8,1 15,3 22,5 8,4 17,7 25,11 6,1 12,2 18,3 4,2 9,3 13,5 5,3 10,6 16,8 6,-1 12,-2 18,-3 6,2 12,3 18,5 3,3 6,7 8,10 3,3 6,6 9,10 4,1 8,3 12,4 5,1 9,1 13,1 3,-3 7,-7 10,-11 1,-5 2,-10 3,-15 0,-5 0,-10 0,-15 -2,-5 -4,-9 -7,-14 -1,-4 -3,-9 -4,-13 -2,-4 -5,-8 -7,-12 -2,-3 -3,-6 -5,-8 -3,-6 -6,-11 -10,-17 9,-6 18,-12 27,-18 5,-6 10,-13 15,-19 5,1 10,2 16,3 15,20 31,39 46,58 16,23 32,46 49,69z"/>
   <path fill="#659D76" d="M638 144c14,18 29,36 43,54 7,5 15,10 22,15 6,4 12,8 17,12 16,1 33,1 49,2 9,-2 19,-4 29,-7 14,6 28,11 42,17 15,12 30,24 45,36 7,6 14,13 21,20 21,9 41,19 62,28 5,3 11,6 17,8 10,6 20,12 30,18 1,15 2,31 2,46 3,4 6,7 9,11 21,7 41,14 61,21 22,7 43,14 65,20 19,2 38,3 57,4 7,7 13,13 19,20 10,16 20,32 31,49 24,9 49,19 73,29 1,7 1,15 2,23 -22,0 -43,1 -64,1 1,22 2,45 3,67 -9,8 -17,17 -26,25 -24,8 -48,17 -73,25 -14,14 -29,28 -43,42 -6,6 -12,13 -18,19 -9,15 -17,29 -26,44 -11,17 -21,35 -32,53 -9,11 -17,22 -26,33 1,13 1,25 1,37 0,10 0,20 0,30 -8,19 -17,39 -26,58 -15,19 -30,38 -44,58 -1,0 -1,0 -1,1 -7,16 -14,31 -21,47 -2,5 -3,10 -4,15 4,8 8,15 12,23 8,6 17,13 25,19 -5,4 -10,9 -15,13 -4,5 -8,11 -12,16 -6,2 -12,3 -19,4 -6,-4 -13,-8 -19,-12 -6,-6 -11,-12 -17,-18 -8,-7 -17,-13 -25,-20 -5,-3 -9,-6 -14,-9 -9,2 -18,5 -26,7 -7,3 -14,6 -21,9 -6,0 -12,1 -19,1 -5,-3 -10,-6 -15,-9 -9,-6 -17,-11 -26,-16 -8,-1 -15,-2 -23,-3 -6,1 -12,2 -18,4 -7,-9 -13,-17 -19,-25 -15,-12 -29,-24 -44,-36 -12,-8 -25,-16 -37,-24 -7,-4 -14,-9 -21,-13 -6,-8 -13,-17 -19,-25 -6,-5 -12,-11 -18,-16 -4,2 -9,3 -13,5 -9,4 -17,8 -25,12 -7,-1 -14,-1 -21,-2 -4,-3 -9,-6 -14,-8 -6,-12 -13,-24 -20,-36 -10,-7 -20,-15 -30,-22 -3,-2 -6,-4 -9,-7 1,-2 2,-5 4,-8 7,-2 14,-4 22,-6 8,-3 16,-7 24,-11 1,-4 2,-9 3,-13 1,-3 1,-6 2,-9 -4,-4 -9,-8 -13,-12 -18,-9 -36,-18 -55,-27 -11,-8 -23,-16 -35,-25 -6,-6 -12,-13 -19,-20 -11,-16 -22,-32 -34,-48 -9,-9 -17,-18 -26,-27 -5,0 -10,1 -15,2 -1,1 -3,2 -4,3 -5,4 -10,8 -15,12 -8,4 -15,8 -23,12 -11,0 -23,0 -34,0 -9,8 -18,16 -26,24 -7,5 -14,10 -21,15 -5,0 -10,0 -14,0 -10,-3 -19,-5 -29,-8 -1,-10 -3,-19 -5,-29 -1,-7 -3,-14 -4,-20 -6,-1 -13,-2 -19,-2 -7,4 -15,7 -22,11 -6,4 -11,8 -17,12 -3,-7 -5,-14 -8,-21 -1,-12 -2,-23 -3,-35 1,-10 1,-21 2,-31 1,-19 1,-38 2,-56 3,-10 6,-20 9,-31 7,-6 15,-12 23,-19 9,-8 19,-17 28,-26 2,-4 3,-8 5,-13 1,-1 2,-3 2,-5 -1,-3 -3,-7 -5,-11 -8,-4 -15,-9 -23,-14 -7,-3 -15,-7 -22,-10 -6,-1 -12,-2 -18,-3 -5,-2 -9,-4 -13,-6 -2,-6 -4,-12 -6,-18 -3,-2 -6,-4 -9,-5 7,-5 13,-11 20,-16 5,-7 11,-14 16,-21 3,-7 7,-13 10,-19 3,-7 6,-13 9,-19 1,-3 2,-6 3,-9 0,-5 0,-10 -1,-15 -3,-5 -7,-9 -11,-14 -6,-3 -12,-6 -17,-8 -3,-4 -5,-8 -8,-12 0,-9 0,-17 0,-26 0,-7 -1,-15 -2,-22 3,-3 7,-7 11,-11 3,-2 6,-4 10,-6 3,-2 6,-4 9,-7 3,-3 6,-6 8,-10 3,-5 5,-10 7,-14 4,-6 8,-12 11,-18 2,-2 4,-5 6,-7 2,-2 3,-4 4,-6 2,-6 3,-13 4,-19 1,-6 3,-12 5,-18 3,-4 6,-8 9,-12 4,-3 9,-7 13,-10 4,-1 8,-3 11,-4 6,-1 13,-2 19,-2 4,-2 8,-4 13,-5 7,-2 14,-4 21,-6 7,-3 14,-5 20,-7 6,-4 11,-8 17,-12 7,0 15,-1 22,-1 7,-1 15,-2 22,-4 5,-3 10,-6 15,-9 4,-3 8,-7 13,-10 7,2 14,5 20,7 8,3 16,6 24,10 7,1 14,3 22,5 8,3 16,7 24,11 6,1 12,2 18,3 5,2 9,3 14,5 5,3 10,5 15,8 6,-1 13,-2 19,-3 6,2 11,3 17,5 3,3 6,6 9,10 3,3 5,6 8,10 4,1 9,3 13,4 4,1 8,1 13,1 3,-3 6,-7 10,-11 0,-5 1,-10 2,-15 0,-5 0,-10 0,-15 -2,-5 -4,-9 -6,-14 -2,-4 -3,-9 -5,-13 -2,-4 -4,-8 -7,-12 -1,-3 -3,-6 -4,-8 -4,-6 -7,-11 -10,-17 9,-6 18,-12 27,-18 4,-7 9,-13 14,-19 5,1 11,2 16,3 16,19 31,39 47,58 16,23 32,46 48,69z"/>
   <path fill="#69A27B" d="M638 137c14,18 28,36 42,54 8,5 15,10 23,15 5,4 11,8 17,12 16,1 32,1 48,2 10,-2 20,-4 30,-7 14,6 28,11 42,17 14,12 29,24 44,35 7,7 15,14 22,21 20,9 41,19 61,28 6,3 12,6 17,8 10,6 21,12 31,18 0,15 1,31 2,46 3,4 6,7 9,11 20,7 41,14 61,21 21,7 43,14 64,20 20,2 39,3 58,4 6,7 12,13 18,20 11,16 21,32 31,49 25,9 49,19 74,28 0,8 1,16 1,24 -21,0 -42,0 -63,1 1,22 2,45 3,67 -9,8 -18,16 -26,25 -25,8 -49,17 -73,25 -15,14 -29,28 -43,42 -7,6 -13,13 -19,19 -8,15 -17,29 -26,44 -10,17 -21,35 -32,52 -8,12 -17,23 -25,34 0,13 0,25 0,37 1,10 1,20 1,30 -9,19 -18,39 -27,58 -14,19 -29,38 -44,58 0,0 0,0 0,1 -8,16 -15,31 -22,47 -1,5 -2,10 -3,15 3,8 7,15 11,22 9,7 17,14 26,20 -5,4 -11,9 -16,13 -4,5 -8,11 -11,16 -7,2 -13,3 -19,4 -7,-4 -13,-8 -20,-12 -5,-6 -11,-12 -16,-18 -9,-7 -17,-13 -26,-20 -4,-3 -9,-6 -14,-9 -8,2 -17,4 -26,7 -7,3 -13,6 -20,9 -6,0 -13,1 -19,1 -5,-3 -11,-6 -16,-9 -8,-6 -17,-11 -25,-16 -8,-1 -16,-2 -24,-4 -6,2 -12,3 -18,4 -6,-8 -12,-16 -19,-24 -14,-12 -29,-24 -43,-36 -13,-8 -25,-16 -37,-24 -7,-4 -14,-9 -21,-13 -7,-8 -13,-17 -20,-25 -6,-5 -12,-11 -18,-16 -4,2 -8,3 -13,5 -8,4 -17,8 -25,12 -7,-1 -13,-2 -20,-2 -5,-3 -10,-6 -14,-8 -7,-12 -14,-24 -20,-36 -11,-7 -21,-15 -31,-22 -3,-2 -6,-4 -9,-7 1,-3 3,-5 4,-8 7,-2 15,-4 22,-6 8,-3 16,-7 25,-11 1,-4 1,-9 2,-13 1,-3 2,-6 3,-9 -5,-4 -9,-8 -14,-12 -18,-9 -36,-18 -54,-27 -12,-8 -23,-16 -35,-25 -6,-6 -13,-13 -19,-20 -12,-16 -23,-32 -34,-48 -9,-9 -18,-18 -27,-27 -4,0 -9,1 -14,2 -2,1 -3,2 -5,3 -5,4 -10,8 -15,12 -7,4 -15,8 -23,12 -11,0 -22,0 -34,0 -8,8 -17,16 -26,24 -7,5 -14,10 -21,15 -4,0 -9,0 -14,0 -9,-3 -19,-5 -28,-8 -2,-10 -4,-19 -5,-29 -2,-7 -3,-14 -4,-21 -7,0 -13,-1 -20,-1 -7,3 -14,7 -22,11 -5,4 -11,8 -17,12 -2,-7 -5,-14 -8,-22 -1,-11 -2,-22 -3,-34 1,-10 2,-21 2,-31 1,-19 2,-38 3,-56 2,-10 5,-21 8,-31 8,-6 16,-12 24,-19 9,-8 18,-17 28,-26 1,-4 3,-8 5,-13 0,-1 1,-3 2,-5 -2,-3 -4,-7 -5,-11 -8,-4 -16,-9 -24,-14 -7,-3 -14,-7 -22,-10 -6,-1 -12,-2 -18,-3 -4,-2 -9,-4 -13,-6 -2,-6 -4,-12 -6,-18 -3,-2 -6,-4 -8,-5 6,-6 13,-11 19,-16 6,-7 11,-14 16,-21 4,-7 7,-13 11,-20 3,-6 5,-12 8,-18 1,-3 2,-6 4,-9 -1,-5 -1,-10 -1,-15 -4,-5 -7,-10 -11,-14 -6,-3 -12,-6 -18,-8 -2,-4 -5,-8 -7,-12 0,-9 0,-18 0,-26 -1,-7 -2,-15 -3,-22 4,-3 8,-7 12,-11 3,-2 6,-4 9,-6 3,-2 7,-4 10,-7 3,-3 5,-7 8,-10 2,-5 5,-10 7,-14 4,-6 7,-12 11,-18 2,-2 4,-5 6,-8 1,-1 2,-3 4,-5 1,-6 2,-13 3,-19 2,-6 4,-12 5,-18 3,-4 6,-8 9,-12 5,-3 9,-7 14,-10 3,-2 7,-3 11,-5 6,0 12,-1 18,-1 4,-2 9,-4 13,-5 7,-2 14,-4 21,-6 7,-3 14,-5 21,-7 5,-4 11,-8 16,-12 8,0 15,-1 23,-1 7,-1 14,-2 21,-4 5,-3 10,-6 15,-9 5,-4 9,-7 13,-10 7,2 14,4 21,7 8,3 15,6 23,10 8,1 15,3 22,5 8,3 17,7 25,11 6,1 12,2 18,3 4,2 9,3 13,5 5,3 10,5 16,8 6,-1 12,-2 18,-3 6,2 12,3 18,5 3,3 5,6 8,10 3,3 6,6 9,10 4,1 8,3 12,4 5,1 9,1 13,1 3,-3 7,-7 10,-11 1,-5 2,-10 3,-15 0,-5 0,-10 0,-16 -2,-4 -4,-8 -7,-13 -1,-4 -3,-9 -4,-13 -2,-4 -5,-8 -7,-12 -2,-3 -3,-6 -5,-9 -3,-5 -6,-10 -10,-16 9,-6 18,-12 27,-18 5,-7 10,-13 15,-19 5,1 10,2 16,3 15,19 31,39 46,58 16,23 32,46 49,69z"/>
  </g>
  <polygon fill="#6DA77F" points="637,130 680,184 702,199 719,211 768,213 797,206 839,223 884,258 905,279 967,307 984,315 1014,333 1016,379 1025,390 1086,411 1151,431 1208,435 1227,455 1258,503 1331,532 1333,556 1269,557 1272,624 1246,648 1173,674 1130,716 1112,735 1086,779 1054,831 1028,865 1029,902 1029,932 1003,990 959,1048 958,1049 937,1096 933,1111 945,1133 970,1153 955,1166 943,1182 924,1186 905,1174 888,1156 863,1136 849,1126 823,1134 802,1143 783,1144 768,1135 742,1119 719,1115 701,1119 682,1095 638,1059 601,1035 580,1022 561,997 543,981 530,986 504,998 484,996 470,988 450,952 420,930 411,923 415,915 437,909 461,898 464,885 466,876 453,864 398,837 363,812 344,792 310,744 284,717 269,719 265,722 250,734 227,746 193,746 167,770 146,785 132,785 103,777 98,748 94,727 75,726 53,737 36,749 28,727 25,693 27,662 29,606 38,575 61,556 89,530 94,517 96,512 91,501 68,487 46,477 28,474 15,468 9,449 0,445 20,429 36,408 46,388 55,370 58,361 57,346 46,332 29,323 21,312 21,286 19,264 30,253 40,247 49,240 57,230 64,215 75,198 81,190 85,185 89,165 94,147 103,136 116,126 127,121 146,120 159,114 180,109 200,102 217,90 239,89 261,85 276,75 289,66 309,73 333,83 355,88 379,99 397,102 411,107 426,115 445,112 462,117 471,127 479,137 492,141 504,142 514,131 517,116 517,100 511,87 506,74 499,61 495,53 485,37 512,19 526,0 542,3 589,61 "/>
 </g>
</svg>
