<?xml version="1.0" encoding="UTF-8"?>
<!DOCTYPE svg PUBLIC "-//W3C//DTD SVG 1.1//EN" "http://www.w3.org/Graphics/SVG/1.1/DTD/svg11.dtd">
<!-- Creator: CorelDRAW X8 -->
<svg xmlns="http://www.w3.org/2000/svg" xml:space="preserve" width="100%" height="100%" version="1.1" shape-rendering="geometricPrecision" text-rendering="geometricPrecision" image-rendering="optimizeQuality" fill-rule="evenodd" clip-rule="evenodd"
viewBox="0 0 967 1213"
 xmlns:xlink="http://www.w3.org/1999/xlink">
 <g id="Layer_x0020_1">
  <metadata id="CorelCorpID_0Corel-Layer"/>
  <polygon fill="#143D21" points="911,1087 888,1110 902,1128 871,1134 842,1134 795,1122 745,1107 671,1101 616,1122 589,1138 569,1151 510,1204 430,1213 406,1198 386,1186 380,1186 342,1184 304,1201 275,1208 251,1213 227,1195 189,1169 116,1098 66,1079 40,1069 45,902 46,880 47,851 90,758 123,688 182,562 201,432 179,363 211,297 368,297 481,289 610,135 674,126 783,238 851,345 814,458 778,680 808,815 832,836 961,943 967,988 "/>
  <g id="_349549542944">
   <path fill="#184225" d="M909 1081c-8,8 -15,15 -22,23 4,6 9,12 13,18 -10,2 -21,4 -31,6 -10,0 -19,0 -29,0 -16,-4 -31,-8 -47,-12 -17,-5 -33,-10 -50,-15 -25,-2 -49,-4 -74,-6 -18,7 -37,14 -55,21 -9,5 -18,11 -26,16 -7,4 -14,9 -21,13 -20,18 -40,35 -59,53 -27,3 -53,6 -80,9 -8,-5 -16,-10 -24,-15 -7,-4 -13,-8 -20,-12 -2,0 -4,0 -6,0 -12,-1 -25,-2 -38,-2 -12,6 -25,11 -38,17 -9,2 -19,4 -29,7 -8,1 -16,3 -24,5 -8,-6 -16,-12 -24,-18 -13,-8 -25,-17 -38,-26 -24,-24 -49,-47 -73,-71 -17,-6 -33,-13 -50,-19 -9,-4 -17,-7 -26,-10 2,-56 3,-112 5,-167 1,-8 1,-15 1,-22 1,-10 1,-20 1,-29 15,-31 29,-62 43,-93 11,-23 22,-46 33,-70 20,-42 40,-84 59,-126 7,-44 13,-87 19,-130 -7,-23 -15,-46 -22,-69 10,-22 21,-44 32,-66 52,0 105,0 157,0 38,-3 75,-5 113,-8 43,-51 86,-102 129,-154 22,-3 43,-6 64,-9 37,37 73,75 109,112 23,36 45,72 68,107 -12,38 -25,76 -37,113 -12,74 -24,148 -36,222 10,45 20,90 30,135 8,7 16,14 24,21 43,35 86,71 130,107 2,15 3,30 5,45 -18,33 -37,66 -56,99z"/>
   <path fill="#1C472A" d="M907 1075c-7,8 -15,15 -22,23 4,6 9,12 13,18 -10,2 -21,4 -31,6 -10,0 -19,0 -29,0 -16,-4 -31,-8 -47,-12 -17,-5 -33,-10 -50,-15 -24,-2 -49,-4 -73,-6 -19,7 -38,14 -56,21 -9,5 -18,11 -26,16 -7,4 -14,9 -21,13 -20,18 -39,35 -59,53 -27,3 -53,6 -79,9 -9,-5 -17,-10 -25,-15 -7,-4 -13,-8 -20,-12 -2,0 -4,0 -5,0 -13,-1 -26,-2 -39,-2 -12,6 -25,11 -38,17 -9,2 -19,4 -29,7 -8,1 -16,3 -24,5 -8,-6 -16,-12 -24,-18 -13,-8 -25,-17 -37,-26 -25,-24 -49,-47 -74,-71 -17,-6 -33,-13 -50,-19 -9,-4 -17,-7 -26,-10 2,-56 3,-112 5,-167 1,-8 1,-15 1,-22 1,-10 1,-20 1,-29 15,-31 29,-62 44,-93 10,-23 21,-46 32,-70 20,-42 40,-84 60,-126 6,-44 12,-87 18,-130 -7,-23 -15,-46 -22,-69 10,-22 21,-44 32,-66 52,0 105,0 157,0 38,-3 76,-5 113,-8 43,-51 86,-102 129,-154 22,-3 43,-6 64,-9 37,37 73,75 109,112 23,36 45,72 68,107 -12,38 -25,76 -37,113 -12,74 -24,148 -36,222 10,45 20,90 30,135 8,7 16,14 24,21 43,35 87,71 130,107 2,15 4,30 6,45 -19,33 -38,66 -57,99z"/>
   <path fill="#214C2E" d="M905 1069c-7,8 -15,15 -22,23 4,6 9,12 13,18 -10,2 -20,4 -31,6 -9,0 -19,0 -29,0 -16,-4 -31,-8 -47,-12 -16,-5 -33,-10 -50,-15 -24,-2 -49,-4 -73,-6 -19,7 -37,14 -56,21 -9,5 -17,11 -26,16 -7,4 -14,9 -21,13 -20,18 -39,35 -59,53 -26,3 -53,6 -79,9 -9,-5 -17,-10 -25,-15 -6,-4 -13,-8 -20,-12 -1,0 -3,0 -5,0 -13,-1 -26,-2 -39,-2 -12,6 -25,11 -37,17 -10,2 -20,4 -30,7 -8,1 -16,3 -24,5 -8,-6 -16,-12 -24,-18 -13,-8 -25,-17 -37,-26 -25,-24 -49,-47 -74,-71 -17,-6 -33,-13 -50,-19 -9,-3 -17,-7 -26,-10 2,-56 4,-112 5,-167 1,-8 1,-15 1,-22 1,-10 1,-20 1,-29 15,-31 29,-62 44,-93 10,-23 21,-46 32,-70 20,-42 40,-84 60,-126 6,-44 12,-87 18,-130 -7,-23 -15,-46 -22,-69 11,-22 21,-44 32,-66 52,0 105,0 157,0 38,-3 76,-5 113,-8 43,-51 86,-102 130,-154 21,-3 42,-6 63,-9 37,37 73,75 109,112 23,36 46,72 68,107 -12,38 -25,76 -37,113 -12,74 -24,148 -36,222 10,45 20,90 30,135 8,7 16,14 24,21 44,35 87,71 130,107 2,15 4,30 6,45 -19,33 -38,66 -57,99z"/>
   <path fill="#255133" d="M903 1063c-7,8 -15,15 -22,23 4,6 9,12 13,18 -10,2 -20,4 -31,6 -9,0 -19,0 -29,0 -15,-4 -31,-8 -47,-12 -16,-5 -33,-10 -50,-15 -24,-2 -49,-4 -73,-6 -19,7 -37,14 -56,21 -9,5 -17,11 -26,16 -7,4 -14,9 -21,13 -20,18 -39,35 -59,53 -26,3 -53,6 -79,9 -8,-5 -17,-10 -25,-15 -6,-4 -13,-8 -19,-12 -2,0 -4,0 -6,0 -13,-1 -26,-2 -38,-2 -13,6 -26,11 -38,17 -10,2 -20,4 -30,7 -8,1 -16,3 -24,5 -8,-6 -16,-12 -24,-18 -12,-8 -25,-17 -37,-26 -25,-24 -49,-47 -74,-71 -16,-6 -33,-13 -50,-19 -8,-3 -17,-7 -26,-10 2,-56 4,-112 6,-167 0,-8 0,-15 0,-22 1,-10 1,-20 2,-29 14,-31 28,-62 43,-93 11,-23 21,-46 32,-70 20,-42 40,-84 60,-126 6,-44 12,-87 18,-130 -7,-23 -15,-46 -22,-69 11,-22 21,-44 32,-66 53,0 105,0 157,0 38,-3 76,-5 113,-8 43,-51 87,-102 130,-154 21,-3 42,-6 64,-9 36,37 72,75 109,112 22,36 45,72 67,107 -12,38 -25,76 -37,113 -12,74 -24,148 -36,222 10,45 20,90 30,135 8,7 16,14 25,21 43,35 86,71 129,107 2,15 4,30 6,45 -19,33 -38,66 -57,99z"/>
   <path fill="#295637" d="M901 1057c-7,8 -15,15 -22,23 4,6 9,12 13,18 -10,2 -20,4 -30,6 -10,0 -20,0 -30,0 -15,-4 -31,-8 -47,-12 -16,-5 -33,-10 -50,-15 -24,-2 -49,-4 -73,-6 -19,7 -37,14 -56,21 -9,5 -17,11 -26,16 -7,4 -14,9 -21,13 -19,18 -39,35 -59,53 -26,3 -53,6 -79,9 -8,-5 -16,-10 -25,-15 -6,-4 -13,-8 -19,-12 -2,0 -4,0 -6,0 -13,-1 -26,-2 -38,-2 -13,6 -26,11 -38,17 -10,2 -20,4 -30,7 -7,1 -15,3 -23,5 -9,-6 -17,-12 -25,-18 -12,-8 -25,-17 -37,-26 -25,-24 -49,-47 -74,-71 -16,-6 -33,-13 -50,-19 -8,-3 -17,-7 -26,-10 2,-56 4,-112 6,-167 0,-8 0,-15 1,-22 0,-10 0,-20 1,-29 14,-31 28,-62 43,-93 11,-23 21,-46 32,-70 20,-42 40,-84 60,-126 6,-44 12,-87 19,-130 -8,-23 -15,-46 -23,-69 11,-22 21,-44 32,-66 53,0 105,0 158,0 37,-3 75,-5 112,-8 44,-51 87,-102 130,-154 21,-3 42,-6 64,-9 36,37 72,75 109,113 22,35 45,71 67,107 -12,37 -24,75 -37,112 -12,74 -24,148 -36,222 10,45 20,90 30,135 8,7 17,14 25,21 43,35 86,71 129,107 2,15 4,30 6,45 -19,33 -38,66 -57,99z"/>
   <path fill="#2D5B3C" d="M899 1051c-7,8 -14,15 -22,23 5,6 9,12 14,18 -11,2 -21,4 -31,6 -10,0 -20,0 -30,0 -15,-4 -31,-8 -46,-12 -17,-5 -34,-10 -50,-15 -25,-2 -49,-4 -74,-6 -19,7 -37,14 -56,21 -8,5 -17,11 -26,16 -7,4 -14,9 -21,13 -19,18 -39,35 -59,53 -26,3 -53,6 -79,9 -8,-5 -16,-10 -25,-15 -6,-4 -13,-8 -19,-12 -2,0 -4,0 -6,0 -13,-1 -25,-2 -38,-2 -13,6 -25,11 -38,17 -10,2 -20,5 -29,7 -8,1 -16,3 -24,5 -8,-6 -17,-12 -25,-18 -12,-8 -25,-17 -37,-26 -25,-24 -49,-47 -74,-71 -16,-6 -33,-13 -50,-19 -8,-3 -17,-7 -26,-10 2,-56 4,-112 6,-167 0,-8 0,-15 1,-22 0,-10 0,-20 1,-29 14,-31 29,-62 43,-93 11,-23 22,-46 32,-70 20,-42 40,-84 60,-126 6,-44 12,-87 19,-130 -8,-23 -15,-46 -23,-69 11,-22 22,-44 32,-66 53,0 105,0 158,0 37,-3 75,-5 113,-8 43,-51 86,-102 129,-154 21,-3 43,-6 64,-9 36,37 72,75 109,113 22,35 45,71 68,107 -13,37 -25,75 -38,112 -12,74 -24,148 -35,222 9,45 19,90 29,135 8,7 17,14 25,21 43,35 86,71 129,107 2,15 4,30 6,45 -19,33 -38,66 -57,99z"/>
   <path fill="#326040" d="M898 1045c-8,8 -15,15 -23,23 5,6 9,12 14,18 -11,2 -21,4 -31,6 -10,0 -20,0 -30,0 -15,-4 -31,-8 -46,-12 -17,-5 -34,-10 -50,-15 -25,-2 -49,-4 -74,-6 -18,7 -37,14 -56,21 -8,5 -17,11 -26,16 -7,4 -14,9 -20,13 -20,18 -40,35 -60,53 -26,3 -52,6 -79,9 -8,-5 -16,-10 -24,-15 -7,-4 -14,-8 -20,-12 -2,0 -4,0 -6,0 -13,-1 -25,-2 -38,-2 -13,6 -25,11 -38,17 -10,2 -20,5 -29,7 -8,1 -16,3 -24,5 -8,-6 -16,-12 -25,-18 -12,-8 -24,-17 -37,-26 -24,-24 -49,-47 -73,-71 -17,-6 -34,-13 -50,-19 -9,-3 -18,-7 -27,-10 2,-56 4,-112 6,-167 0,-8 0,-15 1,-22 0,-10 1,-20 1,-29 14,-31 29,-62 43,-93 11,-23 22,-46 33,-70 19,-42 39,-84 59,-126 6,-44 13,-87 19,-130 -8,-23 -15,-46 -23,-69 11,-22 22,-44 32,-66 53,0 105,0 158,0 37,-3 75,-5 113,-8 43,-51 86,-102 129,-154 21,-3 43,-6 64,-9 36,37 73,75 109,113 22,35 45,71 68,107 -13,37 -25,75 -38,112 -12,74 -23,148 -35,222 10,45 19,90 29,135 9,7 17,14 25,21 43,35 86,71 129,107 2,15 4,30 6,45 -19,33 -38,66 -56,99z"/>
   <path fill="#366545" d="M896 1039c-8,8 -15,15 -23,23 5,6 9,12 14,18 -11,2 -21,4 -31,6 -10,0 -20,0 -29,0 -16,-4 -32,-8 -47,-12 -17,-5 -34,-10 -50,-15 -25,-2 -49,-4 -74,-6 -18,7 -37,14 -56,21 -8,5 -17,11 -26,16 -7,4 -13,9 -20,13 -20,18 -40,35 -60,53 -26,3 -52,6 -79,9 -8,-5 -16,-10 -24,-15 -7,-4 -13,-8 -20,-12 -2,0 -4,0 -6,0 -13,-1 -25,-2 -38,-2 -13,6 -25,11 -38,17 -10,2 -19,5 -29,7 -8,1 -16,3 -24,5 -8,-6 -16,-12 -25,-18 -12,-8 -24,-17 -37,-26 -24,-24 -49,-47 -73,-71 -17,-6 -34,-13 -50,-19 -9,-3 -18,-7 -26,-10 1,-56 3,-112 5,-167 0,-8 1,-15 1,-22 0,-10 1,-20 1,-29 14,-31 29,-62 43,-93 11,-23 22,-46 33,-70 19,-42 39,-84 59,-126 6,-44 13,-87 19,-130 -8,-23 -15,-46 -23,-69 11,-22 22,-44 33,-66 52,0 104,0 157,0 38,-3 75,-5 113,-8 43,-51 86,-102 129,-154 21,-3 43,-6 64,-9 36,37 73,75 109,113 23,35 45,71 68,107 -13,37 -25,75 -38,112 -11,74 -23,148 -35,222 10,45 20,90 29,135 9,7 17,14 25,21 43,35 86,71 129,107 2,15 4,30 6,45 -19,33 -37,66 -56,99z"/>
   <path fill="#3A6A49" d="M894 1033c-8,8 -15,15 -23,23 5,6 9,12 14,18 -10,2 -21,4 -31,6 -10,0 -20,0 -29,0 -16,-4 -32,-8 -47,-12 -17,-5 -33,-10 -50,-15 -25,-2 -49,-4 -74,-6 -18,7 -37,14 -55,21 -9,5 -18,11 -27,16 -6,4 -13,9 -20,13 -20,18 -40,35 -59,53 -27,3 -53,6 -80,9 -8,-5 -16,-10 -24,-15 -7,-4 -13,-8 -20,-12 -2,0 -4,0 -6,0 -12,-1 -25,-1 -38,-2 -13,6 -25,11 -38,17 -10,2 -19,5 -29,7 -8,1 -16,3 -24,5 -8,-6 -16,-12 -24,-17 -13,-9 -25,-18 -38,-27 -24,-24 -49,-47 -73,-71 -17,-6 -34,-13 -50,-19 -9,-3 -18,-7 -26,-10 1,-56 3,-112 5,-167 0,-8 1,-15 1,-22 0,-10 1,-20 1,-29 14,-31 29,-62 43,-93 11,-23 22,-46 33,-70 20,-42 39,-84 59,-126 7,-44 13,-87 19,-130 -7,-23 -15,-46 -22,-69 10,-22 21,-44 32,-66 52,0 105,0 157,0 38,-3 75,-5 113,-8 43,-51 86,-102 129,-154 22,-3 43,-6 64,-9 36,37 73,75 109,113 23,35 45,71 68,107 -13,37 -25,75 -37,112 -12,74 -24,148 -36,222 10,45 20,90 30,135 8,7 16,14 24,21 43,35 86,71 129,107 2,15 4,30 6,45 -18,33 -37,66 -56,99z"/>
   <path fill="#3E6F4E" d="M892 1027c-8,8 -15,15 -22,23 4,6 8,12 13,18 -10,2 -21,4 -31,6 -10,0 -19,0 -29,0 -16,-4 -31,-8 -47,-12 -17,-5 -33,-10 -50,-15 -25,-2 -49,-4 -74,-6 -18,7 -37,14 -55,21 -9,5 -18,11 -26,16 -7,4 -14,9 -21,13 -20,18 -40,35 -59,53 -27,3 -53,6 -80,9 -8,-5 -16,-10 -24,-15 -7,-4 -13,-8 -20,-12 -2,0 -4,0 -6,0 -12,-1 -25,-1 -38,-2 -12,6 -25,11 -38,17 -9,2 -19,5 -29,7 -8,1 -16,3 -24,5 -8,-6 -16,-12 -24,-17 -13,-9 -25,-18 -38,-27 -24,-24 -49,-47 -73,-71 -17,-6 -33,-13 -50,-19 -9,-3 -18,-7 -26,-10 2,-56 3,-112 5,-167 0,-8 1,-15 1,-22 1,-10 1,-19 1,-29 15,-31 29,-62 43,-93 11,-23 22,-46 33,-70 20,-42 40,-84 59,-126 7,-44 13,-87 19,-130 -7,-23 -15,-46 -22,-69 10,-22 21,-44 32,-66 52,0 105,0 157,0 38,-3 75,-5 113,-8 43,-51 86,-102 129,-154 22,-3 43,-6 64,-9 37,37 73,75 109,113 23,35 45,71 68,107 -12,37 -25,75 -37,112 -12,74 -24,148 -36,222 10,45 20,90 30,135 8,7 16,14 24,21 43,35 86,71 130,107 1,15 3,30 5,45 -18,33 -37,66 -56,99z"/>
   <path fill="#437552" d="M890 1021c-7,8 -15,15 -22,23 4,6 9,12 13,18 -10,2 -21,4 -31,6 -10,0 -19,0 -29,0 -16,-4 -31,-8 -47,-12 -17,-5 -33,-10 -50,-15 -24,-2 -49,-4 -73,-6 -19,7 -38,14 -56,21 -9,5 -18,11 -26,16 -7,4 -14,9 -21,13 -20,18 -39,35 -59,53 -27,3 -53,6 -79,9 -9,-5 -17,-10 -25,-15 -7,-4 -13,-8 -20,-12 -2,0 -4,0 -5,0 -13,-1 -26,-1 -39,-2 -12,6 -25,12 -38,17 -9,2 -19,5 -29,7 -8,1 -16,3 -24,5 -8,-6 -16,-12 -24,-17 -13,-9 -25,-18 -37,-27 -25,-24 -49,-47 -74,-71 -17,-6 -33,-13 -50,-19 -9,-3 -17,-7 -26,-10 2,-56 3,-112 5,-167 1,-8 1,-15 1,-22 1,-10 1,-19 1,-29 15,-31 29,-62 44,-92 10,-24 21,-47 32,-71 20,-42 40,-84 60,-126 6,-44 12,-87 18,-130 -7,-23 -15,-46 -22,-69 10,-22 21,-44 32,-66 52,0 105,0 157,0 38,-3 75,-5 113,-8 43,-51 86,-102 129,-154 22,-3 43,-6 64,-9 37,37 73,75 109,113 23,35 45,71 68,107 -12,37 -25,75 -37,113 -12,73 -24,147 -36,221 10,45 20,90 30,135 8,7 16,14 24,21 43,35 87,71 130,107 2,15 4,30 6,45 -19,33 -38,66 -57,99z"/>
   <path fill="#477A57" d="M888 1015c-7,8 -15,15 -22,23 4,6 9,12 13,18 -10,2 -20,4 -31,6 -9,0 -19,0 -29,0 -16,-4 -31,-8 -47,-12 -16,-5 -33,-10 -50,-15 -24,-2 -49,-4 -73,-6 -19,7 -37,14 -56,21 -9,5 -17,11 -26,16 -7,4 -14,9 -21,13 -20,18 -39,35 -59,53 -27,3 -53,6 -79,9 -9,-5 -17,-10 -25,-15 -6,-4 -13,-8 -20,-12 -1,0 -3,0 -5,0 -13,-1 -26,-1 -39,-2 -12,6 -25,12 -37,17 -10,2 -20,5 -30,7 -8,2 -16,3 -24,5 -8,-6 -16,-12 -24,-17 -13,-9 -25,-18 -37,-27 -25,-24 -49,-47 -74,-71 -17,-6 -33,-13 -50,-19 -9,-3 -17,-7 -26,-10 2,-56 4,-112 5,-167 1,-7 1,-15 1,-22 1,-10 1,-19 1,-29 15,-31 29,-62 44,-92 10,-24 21,-47 32,-71 20,-42 40,-84 60,-126 6,-44 12,-87 18,-130 -7,-23 -15,-46 -22,-69 11,-22 21,-44 32,-66 52,0 105,0 157,0 38,-3 76,-5 113,-8 43,-51 86,-102 130,-154 21,-3 42,-6 63,-9 37,37 73,75 109,113 23,35 46,71 68,107 -12,37 -25,75 -37,113 -12,73 -24,147 -36,221 10,45 20,90 30,135 8,7 16,14 24,21 44,35 87,71 130,107 2,15 4,30 6,45 -19,33 -38,66 -57,99z"/>
   <path fill="#4B7F5B" d="M886 1009c-7,8 -15,15 -22,23 4,6 9,12 13,18 -10,2 -20,4 -31,6 -9,0 -19,0 -29,0 -15,-4 -31,-8 -47,-12 -16,-5 -33,-10 -50,-15 -24,-2 -49,-4 -73,-6 -19,7 -37,14 -56,21 -9,5 -17,11 -26,16 -7,4 -14,9 -21,13 -20,18 -39,35 -59,53 -26,3 -53,6 -79,9 -8,-5 -17,-10 -25,-15 -6,-4 -13,-8 -19,-12 -2,0 -4,0 -6,0 -13,-1 -26,-1 -38,-2 -13,6 -26,12 -38,17 -10,2 -20,5 -30,7 -8,2 -16,3 -24,5 -8,-6 -16,-12 -24,-17 -12,-9 -25,-18 -37,-27 -25,-24 -49,-47 -74,-71 -16,-6 -33,-13 -50,-19 -8,-3 -17,-7 -26,-10 2,-56 4,-112 5,-167 1,-7 1,-15 1,-22 1,-10 1,-19 2,-29 14,-31 28,-62 43,-92 11,-24 21,-47 32,-71 20,-42 40,-84 60,-126 6,-44 12,-87 18,-130 -7,-23 -15,-46 -22,-69 11,-22 21,-44 32,-66 53,0 105,0 157,0 38,-3 76,-5 113,-8 43,-51 87,-102 130,-154 21,-3 42,-6 64,-9 36,37 72,75 109,113 22,35 45,71 67,107 -12,37 -25,75 -37,113 -12,73 -24,147 -36,221 10,45 20,90 30,135 8,7 16,14 25,21 43,35 86,71 129,107 2,15 4,30 6,45 -19,33 -38,66 -57,99z"/>
   <path fill="#4F8460" d="M884 1003c-7,8 -15,15 -22,23 4,6 9,12 13,18 -10,2 -20,4 -31,6 -9,0 -19,0 -29,0 -15,-4 -31,-8 -47,-12 -16,-5 -33,-10 -50,-15 -24,-2 -49,-4 -73,-6 -19,7 -37,14 -56,21 -9,5 -17,11 -26,16 -7,4 -14,9 -21,13 -19,18 -39,35 -59,53 -26,3 -53,6 -79,9 -8,-5 -16,-10 -25,-15 -6,-4 -13,-8 -19,-12 -2,0 -4,0 -6,0 -13,-1 -26,-1 -38,-2 -13,6 -26,12 -38,17 -10,3 -20,5 -30,7 -7,2 -15,3 -23,5 -9,-6 -17,-12 -25,-17 -12,-9 -25,-18 -37,-27 -25,-24 -49,-47 -74,-71 -16,-6 -33,-13 -50,-19 -8,-3 -17,-7 -26,-10 2,-56 4,-112 6,-167 0,-7 0,-15 1,-22 0,-10 0,-19 1,-29 14,-31 28,-62 43,-92 11,-24 21,-47 32,-71 20,-42 40,-84 60,-126 6,-44 12,-87 19,-130 -8,-23 -15,-46 -23,-69 11,-22 21,-44 32,-66 53,0 105,0 158,0 37,-3 75,-5 112,-8 44,-51 87,-102 130,-154 21,-3 42,-6 64,-9 36,37 72,75 109,113 22,35 45,71 67,107 -12,37 -24,75 -37,113 -12,73 -24,147 -36,221 10,45 20,90 30,135 8,7 16,14 25,21 43,36 86,71 129,107 2,15 4,30 6,45 -19,33 -38,66 -57,99z"/>
   <path fill="#548964" d="M882 997c-7,8 -14,15 -22,23 5,6 9,12 13,18 -10,2 -20,4 -30,6 -10,0 -20,0 -30,0 -15,-4 -31,-8 -46,-12 -17,-5 -34,-10 -50,-15 -25,-2 -49,-4 -74,-6 -19,7 -37,14 -56,21 -8,5 -17,11 -26,16 -7,5 -14,9 -21,13 -19,18 -39,35 -59,53 -26,3 -53,6 -79,9 -8,-5 -16,-10 -25,-15 -6,-4 -13,-8 -19,-12 -2,0 -4,0 -6,0 -13,-1 -25,-1 -38,-2 -13,6 -25,12 -38,17 -10,3 -20,5 -29,7 -8,2 -16,3 -24,5 -8,-6 -17,-12 -25,-17 -12,-9 -25,-18 -37,-27 -25,-24 -49,-47 -74,-71 -16,-6 -33,-13 -50,-19 -8,-3 -17,-7 -26,-10 2,-56 4,-111 6,-167 0,-7 0,-15 1,-22 0,-10 0,-19 1,-29 14,-31 29,-62 43,-92 11,-24 22,-47 32,-71 20,-42 40,-84 60,-126 6,-44 12,-87 19,-130 -8,-23 -15,-46 -23,-69 11,-22 22,-44 32,-66 53,0 105,0 158,0 37,-3 75,-5 113,-8 43,-51 86,-102 129,-154 21,-3 43,-6 64,-9 36,38 72,75 109,113 22,35 45,71 67,107 -12,37 -24,75 -37,113 -12,73 -24,147 -35,221 9,45 19,90 29,135 8,7 17,14 25,21 43,36 86,71 129,107 2,15 4,30 6,45 -19,33 -38,66 -57,99z"/>
   <path fill="#588E69" d="M881 991c-8,8 -15,15 -23,23 5,6 9,12 14,18 -11,2 -21,4 -31,6 -10,0 -20,0 -30,0 -15,-4 -31,-8 -46,-12 -17,-5 -34,-10 -50,-15 -25,-2 -49,-4 -74,-6 -18,7 -37,14 -56,21 -8,5 -17,11 -26,16 -7,5 -14,9 -20,13 -20,18 -40,35 -60,53 -26,3 -52,6 -79,9 -8,-5 -16,-10 -24,-15 -7,-4 -14,-8 -20,-12 -2,0 -4,0 -6,0 -13,-1 -25,-1 -38,-2 -13,6 -25,12 -38,17 -10,3 -20,5 -29,7 -8,2 -16,3 -24,5 -8,-6 -17,-12 -25,-17 -12,-9 -25,-18 -37,-27 -24,-24 -49,-47 -73,-71 -17,-6 -34,-13 -50,-19 -9,-3 -18,-7 -27,-10 2,-56 4,-111 6,-167 0,-7 0,-15 1,-22 0,-10 1,-19 1,-29 14,-31 29,-62 43,-92 11,-24 22,-47 33,-71 19,-42 39,-84 59,-126 6,-43 13,-87 19,-130 -8,-23 -15,-46 -23,-69 11,-22 22,-44 32,-66 53,0 105,0 158,0 37,-3 75,-5 113,-8 43,-51 86,-102 129,-153 21,-4 43,-7 64,-10 36,38 73,75 109,113 22,35 45,71 68,107 -13,37 -25,75 -38,113 -12,73 -23,147 -35,221 10,45 19,90 29,135 9,7 17,14 25,21 43,36 86,71 129,107 2,15 4,30 6,45 -19,33 -38,66 -56,99z"/>
   <path fill="#5C936D" d="M879 985c-8,8 -15,15 -23,23 5,6 9,12 14,18 -11,2 -21,4 -31,6 -10,0 -20,0 -29,0 -16,-4 -32,-8 -47,-12 -17,-5 -34,-10 -50,-15 -25,-2 -49,-4 -74,-6 -18,7 -37,14 -56,21 -8,5 -17,11 -26,16 -7,5 -13,9 -20,13 -20,18 -40,35 -60,53 -26,3 -52,6 -79,9 -8,-5 -16,-10 -24,-15 -7,-4 -13,-8 -20,-12 -2,0 -4,0 -6,0 -13,-1 -25,-1 -38,-2 -13,6 -25,12 -38,17 -10,3 -19,5 -29,7 -8,2 -16,3 -24,5 -8,-6 -16,-12 -25,-17 -12,-9 -24,-18 -37,-27 -24,-24 -49,-47 -73,-71 -17,-6 -34,-13 -50,-19 -9,-3 -18,-7 -26,-10 1,-56 3,-111 5,-167 0,-7 1,-15 1,-22 0,-10 1,-19 1,-29 14,-31 29,-62 43,-92 11,-24 22,-47 33,-71 19,-42 39,-84 59,-126 6,-43 13,-87 19,-130 -8,-23 -15,-46 -23,-69 11,-22 22,-44 32,-66 53,0 105,0 158,0 38,-3 75,-5 113,-8 43,-51 86,-102 129,-153 21,-4 43,-7 64,-10 36,38 73,75 109,113 23,35 45,71 68,107 -13,37 -25,75 -38,113 -11,73 -23,147 -35,221 10,45 20,90 29,135 9,7 17,14 25,21 43,36 86,71 129,107 2,15 4,30 6,45 -19,33 -37,66 -56,99z"/>
   <path fill="#609872" d="M877 979c-8,8 -15,16 -23,23 5,6 9,12 14,18 -10,2 -21,4 -31,6 -10,0 -20,0 -29,0 -16,-4 -32,-8 -47,-12 -17,-5 -33,-10 -50,-15 -25,-2 -49,-4 -74,-6 -18,7 -37,14 -55,21 -9,5 -18,11 -27,16 -6,5 -13,9 -20,13 -20,18 -40,35 -59,53 -27,3 -53,6 -80,9 -8,-5 -16,-10 -24,-15 -7,-4 -13,-8 -20,-12 -2,0 -4,0 -6,0 -12,-1 -25,-1 -38,-2 -13,6 -25,12 -38,17 -10,3 -19,5 -29,7 -8,2 -16,3 -24,5 -8,-6 -16,-12 -24,-17 -13,-9 -25,-18 -38,-27 -24,-24 -49,-47 -73,-71 -17,-6 -34,-13 -50,-19 -9,-3 -18,-7 -26,-10 1,-56 3,-111 5,-167 0,-7 1,-15 1,-22 0,-10 1,-19 1,-29 14,-31 29,-62 43,-92 11,-24 22,-47 33,-71 20,-42 39,-84 59,-126 7,-43 13,-87 19,-130 -7,-23 -15,-46 -22,-69 10,-22 21,-44 32,-66 52,0 105,0 157,0 38,-3 75,-5 113,-8 43,-51 86,-102 129,-153 22,-4 43,-7 64,-10 36,38 73,75 109,113 23,35 45,71 68,107 -13,37 -25,75 -37,113 -12,73 -24,147 -36,221 10,45 20,90 30,135 8,7 16,14 24,21 43,36 86,71 129,107 2,15 4,30 6,45 -19,33 -37,66 -56,99z"/>
   <path fill="#659D76" d="M875 974c-8,7 -15,15 -22,22 4,6 8,12 13,18 -10,2 -21,4 -31,6 -10,0 -19,0 -29,0 -16,-4 -31,-8 -47,-12 -17,-5 -33,-10 -50,-15 -25,-2 -49,-4 -74,-6 -18,7 -37,14 -55,21 -9,6 -18,11 -26,16 -7,5 -14,9 -21,13 -20,18 -40,36 -59,53 -27,3 -53,6 -80,9 -8,-5 -16,-10 -24,-15 -7,-4 -13,-8 -20,-11 -2,-1 -4,-1 -6,-1 -12,-1 -25,-1 -38,-2 -12,6 -25,12 -38,17 -9,3 -19,5 -29,7 -8,2 -16,3 -24,5 -8,-6 -16,-11 -24,-17 -13,-9 -25,-18 -38,-27 -24,-24 -49,-47 -73,-71 -17,-6 -33,-12 -50,-19 -9,-3 -18,-7 -26,-10 2,-56 3,-111 5,-167 0,-7 1,-15 1,-22 0,-10 1,-19 1,-29 15,-31 29,-62 43,-92 11,-24 22,-47 33,-70 20,-43 40,-85 59,-127 7,-43 13,-87 19,-130 -7,-23 -15,-46 -22,-69 10,-22 21,-44 32,-66 52,0 105,0 157,0 38,-3 75,-5 113,-8 43,-51 86,-102 129,-153 22,-4 43,-7 64,-10 37,38 73,75 109,113 23,35 45,71 68,107 -12,37 -25,75 -37,113 -12,73 -24,147 -36,221 10,45 20,90 30,135 8,7 16,14 24,21 43,36 86,71 129,107 2,15 4,30 6,45 -18,33 -37,66 -56,100z"/>
   <path fill="#69A27B" d="M873 968c-7,7 -15,15 -22,22 4,6 9,12 13,18 -10,2 -21,4 -31,6 -10,0 -19,0 -29,0 -16,-4 -31,-8 -47,-12 -17,-5 -33,-10 -50,-15 -24,-2 -49,-4 -73,-6 -19,7 -38,14 -56,21 -9,6 -18,11 -26,16 -7,5 -14,9 -21,13 -20,18 -39,36 -59,53 -27,3 -53,6 -79,9 -9,-5 -17,-10 -25,-15 -7,-4 -13,-8 -20,-11 -2,-1 -4,-1 -5,-1 -13,-1 -26,-1 -39,-2 -12,6 -25,12 -38,17 -9,3 -19,5 -29,7 -8,2 -16,3 -24,5 -8,-6 -16,-11 -24,-17 -13,-9 -25,-18 -37,-27 -25,-24 -49,-47 -74,-71 -17,-6 -33,-12 -50,-19 -9,-3 -17,-7 -26,-10 2,-56 3,-111 5,-167 1,-7 1,-15 1,-22 1,-10 1,-19 1,-29 15,-31 29,-62 44,-92 10,-24 21,-47 32,-70 20,-43 40,-85 60,-127 6,-43 12,-87 18,-130 -7,-23 -15,-46 -22,-69 10,-22 21,-44 32,-66 52,0 105,0 157,0 38,-3 75,-5 113,-8 43,-51 86,-102 129,-153 22,-4 43,-7 64,-10 37,38 73,75 109,113 23,35 45,71 68,107 -12,37 -25,75 -37,113 -12,73 -24,147 -36,221 10,45 20,90 30,135 8,7 16,14 24,21 43,36 87,71 130,107 2,15 4,30 6,45 -19,33 -38,66 -57,100z"/>
  </g>
  <polygon fill="#6DA77F" points="871,962 849,984 862,1002 831,1008 802,1008 755,996 705,981 632,976 576,996 550,1012 529,1025 470,1078 391,1087 366,1072 346,1061 341,1060 302,1058 265,1075 235,1082 211,1087 187,1070 150,1043 76,972 26,953 0,943 5,776 6,754 7,725 51,633 83,563 143,436 161,306 139,237 171,171 328,171 441,163 571,10 634,0 743,113 811,220 774,333 738,554 768,689 792,710 922,817 928,862 "/>
 </g>
</svg>
