<?xml version="1.0" encoding="UTF-8"?>
<!DOCTYPE svg PUBLIC "-//W3C//DTD SVG 1.1//EN" "http://www.w3.org/Graphics/SVG/1.1/DTD/svg11.dtd">
<!-- Creator: CorelDRAW X8 -->
<svg xmlns="http://www.w3.org/2000/svg" xml:space="preserve" width="100%" height="100%" version="1.1" shape-rendering="geometricPrecision" text-rendering="geometricPrecision" image-rendering="optimizeQuality" fill-rule="evenodd" clip-rule="evenodd"
viewBox="0 0 418 1011"
 xmlns:xlink="http://www.w3.org/1999/xlink">
 <g id="Layer_x0020_1">
  <metadata id="CorelCorpID_0Corel-Layer"/>
  <polygon fill="#143D21" points="206,145 207,146 210,143 210,136 216,131 227,129 238,130 246,134 251,143 250,151 247,164 241,178 241,190 245,200 250,214 256,234 260,242 268,250 282,255 301,255 311,255 317,258 326,259 326,260 345,287 348,292 390,321 382,346 379,369 395,397 392,497 397,560 383,597 368,614 341,611 317,609 314,613 306,624 306,664 309,675 315,717 310,753 313,781 314,805 331,861 337,878 330,901 303,923 289,953 279,968 255,970 227,954 215,948 198,949 189,967 174,1011 149,1006 157,908 148,852 128,765 108,733 89,701 63,678 61,628 42,600 36,574 48,541 52,529 56,520 43,495 18,440 12,410 2,404 8,394 12,387 18,376 21,361 23,351 21,339 18,320 14,305 14,286 13,271 11,253 8,234 0,225 6,220 16,213 26,207 46,205 51,211 52,224 53,231 60,234 72,234 83,233 90,227 92,225 97,217 105,212 112,206 117,199 118,187 120,176 126,166 132,155 140,141 146,131 153,124 161,118 173,118 180,123 184,129 191,136 200,137 202,141 "/>
  <g id="_348050412592">
   <path fill="#184225" d="M207 140c0,0 0,0 1,1 1,-2 2,-3 3,-4 0,-2 0,-5 0,-7 2,-2 4,-3 6,-5 3,0 7,-1 11,-1 4,0 7,0 11,0 3,2 5,3 8,4 2,3 3,6 5,9 0,3 0,6 -1,9 -1,4 -2,8 -3,12 -2,5 -4,10 -6,14 0,4 0,8 0,12 1,4 3,7 4,10 2,5 3,10 5,14 2,7 4,13 6,20 1,3 2,6 4,9 3,2 5,5 8,7 5,2 10,4 14,5 7,0 13,0 19,0 4,0 7,0 10,0 2,1 4,2 6,3 3,1 6,1 9,1 0,1 0,1 0,1 7,9 13,18 19,28 1,1 2,3 3,5 14,9 28,19 42,29 -2,8 -5,16 -8,24 -1,8 -2,15 -3,23 5,9 10,19 16,28 -1,33 -2,67 -3,100 2,22 3,43 5,64 -4,12 -9,24 -14,36 -5,6 -10,11 -15,17 -9,-1 -18,-2 -27,-3 -8,-1 -16,-1 -24,-2 -1,1 -2,3 -3,4 -2,4 -5,8 -8,12 0,13 0,26 0,39 1,4 2,8 3,12 2,14 4,27 6,41 -1,12 -3,25 -5,37 1,9 2,18 3,28 0,8 1,15 1,23 6,19 12,37 17,56 2,6 4,12 6,18 -2,7 -5,15 -7,22 -9,8 -18,15 -27,23 -5,9 -10,19 -14,29 -4,5 -7,10 -10,15 -8,1 -16,1 -24,2 -9,-5 -19,-10 -28,-15 -4,-2 -8,-5 -12,-7 -6,1 -11,1 -17,1 -3,6 -6,12 -9,18 -5,15 -10,29 -15,44 -9,-2 -17,-3 -25,-5 3,-33 6,-65 8,-98 -3,-19 -6,-37 -9,-56 -6,-29 -13,-58 -20,-87 -6,-10 -13,-21 -20,-32 -6,-10 -12,-21 -19,-31 -8,-8 -17,-16 -26,-24 -1,-16 -1,-33 -2,-49 -7,-10 -13,-19 -19,-29 -2,-9 -4,-17 -6,-26 4,-11 8,-22 12,-32 1,-5 3,-9 4,-13 2,-3 3,-6 4,-8 -4,-9 -9,-17 -13,-25 -8,-19 -16,-37 -25,-56 -2,-10 -4,-20 -6,-30 -4,-2 -7,-4 -10,-6 2,-3 4,-6 6,-9 1,-3 3,-5 4,-7 2,-4 4,-8 6,-12 1,-5 2,-10 3,-14 1,-4 1,-7 2,-11 -1,-4 -2,-8 -2,-12 -1,-6 -2,-12 -3,-18 -2,-5 -3,-11 -4,-16 0,-6 0,-12 0,-18 0,-5 -1,-11 -1,-16 -1,-6 -1,-12 -2,-17 -1,-7 -2,-13 -3,-19 -3,-3 -5,-6 -8,-9 2,-2 4,-4 6,-5 3,-3 7,-5 10,-7 4,-2 7,-4 10,-6 7,-1 13,-2 20,-3 2,2 3,4 5,6 0,5 0,9 1,13 0,3 1,5 1,7 2,1 5,2 7,3 4,0 8,0 12,0 4,0 8,-1 11,-1 2,-2 5,-4 7,-6 0,0 1,-1 2,-1 1,-3 3,-6 5,-9 3,-1 5,-3 8,-5 3,-2 5,-3 7,-5 2,-3 4,-5 5,-8 0,-4 0,-8 1,-12 0,-3 1,-7 2,-10 2,-4 4,-7 6,-10 2,-4 4,-8 6,-11 2,-5 5,-10 8,-14 2,-4 4,-7 6,-10 2,-3 4,-5 7,-8 3,-2 6,-4 8,-6 4,0 8,0 12,1 2,1 4,3 7,4 1,2 2,4 4,6 2,3 4,5 7,7 3,1 6,1 9,2 1,1 2,2 2,4 2,1 3,2 4,4z"/>
   <path fill="#1C472A" d="M208 134c0,0 0,1 1,1 1,-1 2,-2 3,-4 0,-2 0,-4 0,-7 2,-1 4,-3 6,-4 3,-1 7,-1 11,-2 4,0 7,1 11,1 3,1 5,2 8,4 2,3 3,5 5,8 0,3 0,6 -1,9 -1,4 -2,8 -3,12 -2,5 -4,10 -6,15 0,4 0,8 0,12 1,3 3,6 4,10 2,4 3,9 5,14 2,6 4,13 6,19 1,3 2,6 4,9 3,2 5,5 8,7 5,2 10,4 14,6 7,0 13,-1 19,-1 4,0 7,0 10,0 2,1 4,3 6,4 3,0 6,0 9,1 0,0 0,0 0,1 7,9 13,18 19,27 1,2 2,3 3,5 14,10 28,19 42,29 -2,8 -5,16 -8,25 -1,7 -2,15 -3,22 5,10 10,19 16,28 -1,34 -2,67 -3,101 2,21 3,42 5,63 -4,12 -9,24 -14,36 -5,6 -10,12 -15,18 -9,-1 -18,-2 -27,-3 -8,-1 -16,-2 -24,-3 -1,2 -2,3 -3,5 -2,4 -5,7 -8,11 0,13 0,27 0,40 1,4 2,7 3,11 2,14 4,28 6,42 -1,12 -3,24 -5,36 1,9 2,19 3,28 0,8 1,16 1,24 6,18 12,37 17,56 2,5 4,11 6,17 -2,7 -5,15 -7,22 -9,8 -18,16 -27,23 -5,10 -10,20 -14,29 -4,5 -7,11 -10,16 -8,0 -16,1 -24,1 -9,-5 -19,-10 -28,-15 -4,-2 -8,-4 -12,-7 -6,1 -11,1 -17,2 -3,6 -6,11 -9,17 -5,15 -10,30 -15,44 -9,-1 -17,-3 -25,-4 3,-33 6,-66 8,-99 -3,-18 -6,-37 -9,-56 -6,-28 -13,-57 -20,-86 -6,-11 -13,-22 -20,-32 -6,-11 -12,-22 -19,-32 -8,-8 -17,-15 -26,-23 -1,-17 -1,-33 -2,-50 -7,-9 -13,-19 -19,-28 -2,-9 -4,-18 -6,-27 4,-10 8,-21 12,-32 1,-4 3,-8 4,-13 2,-2 3,-5 4,-8 -4,-8 -9,-17 -13,-25 -8,-18 -16,-37 -25,-55 -2,-10 -4,-20 -6,-31 -4,-2 -7,-4 -10,-6 2,-3 4,-6 6,-9 1,-2 3,-4 4,-7 2,-4 4,-8 6,-12 1,-4 2,-9 3,-14 1,-4 1,-7 2,-11 -1,-4 -2,-7 -2,-11 -1,-6 -2,-13 -3,-19 -2,-5 -3,-10 -4,-15 0,-7 0,-13 0,-19 0,-5 -1,-10 -1,-16 -1,-5 -1,-11 -2,-17 -1,-6 -2,-13 -3,-19 -3,-3 -5,-6 -8,-9 2,-2 4,-3 6,-5 3,-2 7,-4 10,-7 4,-2 7,-4 10,-6 7,-1 13,-1 20,-2 2,2 3,4 5,6 0,4 0,8 1,13 0,2 1,4 1,7 2,1 5,1 7,2 4,0 8,0 12,0 4,0 8,0 11,-1 2,-2 5,-3 7,-5 0,-1 1,-1 2,-2 1,-3 3,-6 5,-8 3,-2 5,-4 8,-6 3,-1 5,-3 7,-5 2,-2 4,-5 5,-8 0,-4 0,-8 1,-11 0,-4 1,-7 2,-11 2,-3 4,-7 6,-10 2,-4 4,-7 6,-11 2,-5 5,-9 8,-14 2,-3 4,-7 6,-10 2,-2 4,-5 7,-7 3,-2 6,-4 8,-7 4,1 8,1 12,1 2,2 4,3 7,5 1,2 2,4 4,6 2,2 4,4 7,7 3,0 6,1 9,1 1,1 2,3 2,4 2,1 3,3 4,4z"/>
   <path fill="#214C2E" d="M209 128c0,1 0,1 1,1 1,-1 2,-2 3,-3 0,-3 0,-5 0,-7 2,-2 4,-3 6,-5 3,0 7,-1 11,-1 4,0 7,0 11,0 3,1 5,3 8,4 2,3 3,6 5,9 0,3 0,6 -1,9 -1,4 -2,8 -3,12 -2,5 -4,9 -6,14 0,4 0,8 0,12 1,3 3,7 4,10 2,5 3,9 5,14 2,7 4,13 6,20 1,3 2,6 4,8 3,3 5,5 8,8 5,2 10,3 14,5 7,0 13,0 19,0 4,0 7,0 10,0 2,1 4,2 6,3 3,0 6,1 9,1 0,0 0,1 0,1 7,9 13,18 19,27 1,2 2,4 3,5 14,10 28,20 42,30 -2,8 -5,16 -8,24 -1,8 -2,15 -3,23 5,9 10,18 16,28 -1,33 -2,67 -3,100 2,21 3,43 5,64 -4,12 -9,24 -14,36 -5,6 -10,11 -15,17 -9,-1 -18,-2 -27,-3 -8,-1 -16,-2 -24,-2 -1,1 -2,3 -3,4 -2,4 -5,8 -8,11 0,14 0,27 0,40 1,4 2,8 3,12 2,13 4,27 6,41 -1,12 -3,24 -5,36 1,10 2,19 3,28 0,8 1,16 1,24 6,19 12,37 17,56 2,6 4,12 6,17 -2,8 -5,15 -7,23 -9,7 -18,15 -27,22 -5,10 -10,20 -14,30 -4,5 -7,10 -10,15 -8,1 -16,1 -24,2 -9,-5 -19,-10 -28,-16 -4,-2 -8,-4 -12,-6 -6,0 -11,1 -17,1 -3,6 -6,12 -9,18 -5,14 -10,29 -15,44 -9,-2 -17,-3 -25,-5 3,-33 6,-66 8,-98 -3,-19 -6,-38 -9,-56 -6,-29 -13,-58 -20,-87 -6,-11 -13,-21 -20,-32 -6,-11 -12,-21 -19,-32 -8,-7 -17,-15 -26,-23 -1,-16 -1,-33 -2,-50 -7,-9 -13,-19 -19,-28 -2,-9 -4,-17 -6,-26 4,-11 8,-22 12,-33 1,-4 3,-8 4,-12 2,-3 3,-6 4,-9 -4,-8 -9,-16 -13,-24 -8,-19 -16,-38 -25,-56 -2,-10 -4,-20 -6,-30 -4,-2 -7,-4 -10,-6 2,-3 4,-6 6,-9 1,-3 3,-5 4,-7 2,-4 4,-8 6,-12 1,-5 2,-10 3,-15 1,-3 1,-7 2,-10 -1,-4 -2,-8 -2,-12 -1,-6 -2,-12 -3,-18 -2,-6 -3,-11 -4,-16 0,-6 0,-12 0,-18 0,-6 -1,-11 -1,-16 -1,-6 -1,-12 -2,-18 -1,-6 -2,-12 -3,-18 -3,-4 -5,-7 -8,-10 2,-1 4,-3 6,-4 3,-3 7,-5 10,-7 4,-2 7,-4 10,-7 7,0 13,-1 20,-2 2,2 3,4 5,6 0,4 0,9 1,13 0,2 1,5 1,7 2,1 5,2 7,3 4,0 8,0 12,0 4,-1 8,-1 11,-1 2,-2 5,-4 7,-6 0,0 1,-1 2,-2 1,-2 3,-5 5,-8 3,-2 5,-3 8,-5 3,-2 5,-4 7,-5 2,-3 4,-6 5,-8 0,-4 0,-8 1,-12 0,-4 1,-7 2,-11 2,-3 4,-6 6,-10 2,-3 4,-7 6,-11 2,-4 5,-9 8,-14 2,-3 4,-6 6,-10 2,-2 4,-5 7,-7 3,-2 6,-4 8,-6 4,0 8,0 12,0 2,2 4,4 7,5 1,2 2,4 4,6 2,3 4,5 7,7 3,1 6,1 9,1 1,2 2,3 2,4 2,2 3,3 4,4z"/>
   <path fill="#255133" d="M210 123c0,0 0,0 1,1 1,-1 2,-3 3,-4 0,-2 0,-4 0,-7 2,-1 4,-3 6,-5 3,0 7,0 11,-1 4,0 7,0 11,0 3,2 5,3 8,4 2,3 3,6 5,9 0,3 0,6 -1,9 -1,4 -2,8 -3,12 -2,5 -4,10 -6,15 0,4 0,7 0,11 1,4 3,7 4,10 2,5 3,10 5,14 2,7 4,14 6,20 1,3 2,6 4,9 3,2 5,5 8,7 5,2 10,4 14,5 7,0 13,0 19,0 4,0 7,0 10,0 2,1 4,2 6,4 3,0 6,0 9,0 0,1 0,1 0,1 7,10 13,19 19,28 1,1 2,3 3,5 14,9 28,19 42,29 -2,8 -5,16 -8,24 -1,8 -2,16 -3,23 5,10 10,19 16,28 -1,34 -2,67 -3,101 2,21 3,42 5,63 -4,12 -9,24 -14,36 -5,6 -10,12 -15,17 -9,-1 -18,-2 -27,-3 -8,0 -16,-1 -24,-2 -1,2 -2,3 -3,5 -2,3 -5,7 -8,11 0,13 0,26 0,40 1,3 2,7 3,11 2,14 4,28 6,42 -1,12 -3,24 -5,36 1,9 2,19 3,28 0,8 1,16 1,23 6,19 12,38 17,56 2,6 4,12 6,18 -2,7 -5,15 -7,22 -9,8 -18,15 -27,23 -5,10 -10,19 -14,29 -4,5 -7,10 -10,15 -8,1 -16,2 -24,2 -9,-5 -19,-10 -28,-15 -4,-2 -8,-5 -12,-7 -6,1 -11,1 -17,2 -3,5 -6,11 -9,17 -5,15 -10,30 -15,44 -9,-1 -17,-3 -25,-5 3,-32 6,-65 8,-98 -3,-19 -6,-37 -9,-56 -6,-29 -13,-58 -20,-86 -6,-11 -13,-22 -20,-33 -6,-10 -12,-21 -19,-31 -8,-8 -17,-16 -26,-23 -1,-17 -1,-34 -2,-50 -7,-10 -13,-19 -19,-29 -2,-8 -4,-17 -6,-26 4,-11 8,-21 12,-32 1,-4 3,-9 4,-13 2,-3 3,-5 4,-8 -4,-8 -9,-17 -13,-25 -8,-19 -16,-37 -25,-56 -2,-10 -4,-20 -6,-30 -4,-2 -7,-4 -10,-6 2,-3 4,-6 6,-9 1,-2 3,-5 4,-7 2,-4 4,-8 6,-12 1,-5 2,-9 3,-14 1,-4 1,-7 2,-11 -1,-4 -2,-8 -2,-12 -1,-6 -2,-12 -3,-18 -2,-5 -3,-10 -4,-16 0,-6 0,-12 0,-18 0,-5 -1,-10 -1,-16 -1,-6 -1,-11 -2,-17 -1,-7 -2,-13 -3,-19 -3,-3 -5,-6 -8,-9 2,-2 4,-3 6,-5 3,-2 7,-5 10,-7 4,-2 7,-4 10,-6 7,-1 13,-2 20,-2 2,2 3,3 5,5 0,5 0,9 1,13 0,3 1,5 1,7 2,1 5,2 7,3 4,0 8,0 12,0 4,0 8,-1 11,-1 2,-2 5,-4 7,-5 0,-1 1,-2 2,-2 1,-3 3,-6 5,-8 3,-2 5,-4 8,-6 3,-2 5,-3 7,-5 2,-3 4,-5 5,-8 0,-4 0,-8 1,-12 0,-3 1,-7 2,-10 2,-3 4,-7 6,-10 2,-4 4,-8 6,-11 2,-5 5,-10 8,-14 2,-4 4,-7 6,-10 2,-3 4,-5 7,-8 3,-2 6,-4 8,-6 4,0 8,1 12,1 2,1 4,3 7,4 1,3 2,5 4,7 2,2 4,4 7,7 3,0 6,0 9,1 1,1 2,3 2,4 2,1 3,2 4,4z"/>
   <path fill="#295637" d="M211 117c0,0 0,1 1,1 1,-1 2,-2 3,-3 0,-3 0,-5 0,-7 2,-2 4,-4 6,-5 3,-1 7,-1 11,-2 4,1 7,1 11,1 3,1 5,2 8,4 2,3 3,6 5,9 0,3 0,5 -1,8 -1,4 -2,8 -3,13 -2,4 -4,9 -6,14 0,4 0,8 0,12 1,3 3,6 4,10 2,4 3,9 5,14 2,6 4,13 6,19 1,3 2,6 4,9 3,3 5,5 8,8 5,1 10,3 14,5 7,0 13,0 19,-1 4,0 7,0 10,0 2,2 4,3 6,4 3,0 6,1 9,1 0,0 0,0 0,1 7,9 13,18 19,27 1,2 2,3 3,5 14,10 28,20 42,29 -2,9 -5,17 -8,25 -1,7 -2,15 -3,23 5,9 10,18 16,28 -1,33 -2,67 -3,100 2,21 3,42 5,63 -4,13 -9,25 -14,37 -5,5 -10,11 -15,17 -9,-1 -18,-2 -27,-3 -8,-1 -16,-2 -24,-2 -1,1 -2,2 -3,4 -2,4 -5,8 -8,11 0,14 0,27 0,40 1,4 2,8 3,11 2,14 4,28 6,42 -1,12 -3,24 -5,36 1,10 2,19 3,28 0,8 1,16 1,24 6,18 12,37 17,56 2,6 4,11 6,17 -2,8 -5,15 -7,23 -9,7 -18,15 -27,22 -5,10 -10,20 -14,30 -4,5 -7,10 -10,15 -8,0 -16,1 -24,2 -9,-6 -19,-11 -28,-16 -4,-2 -8,-4 -12,-6 -6,0 -11,1 -17,1 -3,6 -6,12 -9,17 -5,15 -10,30 -15,45 -9,-2 -17,-4 -25,-5 3,-33 6,-66 8,-98 -3,-19 -6,-38 -9,-56 -6,-29 -13,-58 -20,-87 -6,-11 -13,-22 -20,-32 -6,-11 -12,-21 -19,-32 -8,-8 -17,-15 -26,-23 -1,-17 -1,-33 -2,-50 -7,-9 -13,-19 -19,-28 -2,-9 -4,-18 -6,-26 4,-11 8,-22 12,-33 1,-4 3,-8 4,-12 2,-3 3,-6 4,-9 -4,-8 -9,-16 -13,-25 -8,-18 -16,-37 -25,-55 -2,-10 -4,-20 -6,-30 -4,-2 -7,-4 -10,-6 2,-4 4,-7 6,-10 1,-2 3,-4 4,-7 2,-4 4,-7 6,-11 1,-5 2,-10 3,-15 1,-3 1,-7 2,-10 -1,-4 -2,-8 -2,-12 -1,-6 -2,-12 -3,-19 -2,-5 -3,-10 -4,-15 0,-6 0,-12 0,-19 0,-5 -1,-10 -1,-15 -1,-6 -1,-12 -2,-18 -1,-6 -2,-12 -3,-19 -3,-3 -5,-6 -8,-9 2,-1 4,-3 6,-5 3,-2 7,-4 10,-7 4,-2 7,-4 10,-6 7,0 13,-1 20,-2 2,2 3,4 5,6 0,4 0,8 1,13 0,2 1,5 1,7 2,1 5,2 7,2 4,0 8,0 12,0 4,0 8,0 11,0 2,-2 5,-4 7,-6 0,-1 1,-1 2,-2 1,-3 3,-5 5,-8 3,-2 5,-4 8,-5 3,-2 5,-4 7,-6 2,-2 4,-5 5,-7 0,-4 0,-8 1,-12 0,-4 1,-7 2,-11 2,-3 4,-6 6,-10 2,-3 4,-7 6,-11 2,-4 5,-9 8,-14 2,-3 4,-6 6,-10 2,-2 4,-5 7,-7 3,-2 6,-4 8,-6 4,0 8,0 12,0 2,2 4,3 7,5 1,2 2,4 4,6 2,2 4,5 7,7 3,0 6,1 9,1 1,2 2,3 2,4 2,2 3,3 4,4z"/>
   <path fill="#2D5B3C" d="M212 112c0,0 0,0 1,0 1,-1 2,-2 3,-3 0,-2 0,-5 0,-7 2,-2 4,-3 6,-5 3,0 7,-1 11,-1 4,0 7,0 11,0 3,2 5,3 8,4 2,3 3,6 5,9 0,3 0,6 -1,9 -1,4 -2,8 -3,12 -2,5 -4,10 -6,14 0,4 0,8 0,12 1,3 3,7 4,10 2,5 3,10 5,14 2,7 4,13 6,20 1,3 2,6 4,9 3,2 5,5 8,7 5,2 10,4 14,5 7,0 13,0 19,0 4,0 7,0 10,0 2,1 4,2 6,3 3,1 6,1 9,1 0,1 0,1 0,1 7,9 13,18 19,28 1,1 2,3 3,5 14,9 28,19 42,29 -2,8 -5,16 -8,24 -1,8 -2,15 -3,23 5,9 10,19 16,28 -1,33 -2,67 -3,100 2,22 3,43 5,64 -4,12 -9,24 -14,36 -5,6 -10,11 -15,17 -9,-1 -18,-2 -27,-3 -8,-1 -16,-1 -24,-2 -1,1 -2,3 -3,4 -2,4 -5,8 -8,12 0,13 0,26 0,39 1,4 2,8 3,12 2,14 4,27 6,41 -1,12 -3,25 -5,37 1,9 2,18 3,28 0,7 1,15 1,23 6,19 12,37 17,56 2,6 4,12 6,18 -2,7 -5,15 -7,22 -9,8 -18,15 -27,23 -5,9 -10,19 -14,29 -4,5 -7,10 -10,15 -8,1 -16,1 -24,2 -9,-5 -19,-10 -28,-15 -4,-3 -8,-5 -12,-7 -6,1 -11,1 -17,1 -3,6 -6,12 -9,18 -5,15 -10,29 -15,44 -9,-2 -17,-3 -25,-5 3,-33 6,-65 8,-98 -3,-19 -6,-37 -9,-56 -6,-29 -13,-58 -20,-87 -6,-10 -13,-21 -20,-32 -6,-10 -12,-21 -19,-31 -8,-8 -17,-16 -26,-24 -1,-16 -1,-33 -2,-49 -7,-10 -13,-19 -19,-29 -2,-9 -4,-17 -6,-26 4,-11 8,-22 12,-32 1,-5 3,-9 4,-13 2,-3 3,-6 4,-8 -4,-9 -9,-17 -13,-25 -8,-19 -16,-37 -25,-56 -2,-10 -4,-20 -6,-30 -4,-2 -7,-4 -10,-6 2,-3 4,-6 6,-9 1,-3 3,-5 4,-7 2,-4 4,-8 6,-12 1,-5 2,-10 3,-14 1,-4 1,-7 2,-11 -1,-4 -2,-8 -2,-12 -1,-6 -2,-12 -3,-18 -2,-5 -3,-11 -4,-16 0,-6 0,-12 0,-18 0,-5 -1,-11 -1,-16 -1,-6 -1,-12 -2,-17 -1,-7 -2,-13 -3,-19 -3,-3 -5,-6 -8,-9 2,-2 4,-4 6,-5 3,-3 7,-5 10,-7 4,-2 7,-4 10,-6 7,-1 13,-2 20,-3 2,2 3,4 5,6 0,5 0,9 1,13 0,3 1,5 1,7 2,1 5,2 7,3 4,0 8,0 12,0 4,0 8,-1 11,-1 2,-2 5,-4 7,-6 0,0 1,-1 2,-1 1,-3 3,-6 5,-9 3,-1 5,-3 8,-5 3,-2 5,-3 7,-5 2,-3 4,-5 5,-8 0,-4 0,-8 1,-12 0,-3 1,-7 2,-10 2,-4 4,-7 6,-10 2,-4 4,-8 6,-11 2,-5 5,-10 8,-14 2,-4 4,-7 6,-10 2,-3 4,-5 7,-8 3,-2 6,-4 8,-6 4,0 8,0 12,0 2,2 4,4 7,5 1,2 2,4 4,6 2,3 4,5 7,7 3,1 6,1 9,2 1,1 2,2 2,4 2,1 3,2 4,4z"/>
   <path fill="#326040" d="M213 106c0,0 0,1 1,1 1,-1 2,-2 3,-4 0,-2 0,-4 0,-7 2,-1 4,-3 6,-4 3,-1 7,-1 11,-2 4,0 7,1 11,1 3,1 5,2 8,4 2,3 3,5 5,8 0,3 0,6 -1,9 -1,4 -2,8 -3,12 -2,5 -4,10 -6,15 0,4 0,8 0,12 1,3 3,6 4,10 2,4 3,9 5,14 2,6 4,13 6,19 1,3 2,6 4,9 3,2 5,5 8,7 5,2 10,4 14,6 7,0 13,-1 19,-1 4,0 7,0 10,0 2,1 4,3 6,4 3,0 6,0 9,1 0,0 0,0 0,1 7,9 13,18 19,27 1,2 2,3 3,5 14,10 28,19 42,29 -2,8 -5,16 -8,25 -1,7 -2,15 -3,22 5,10 10,19 16,28 -1,34 -2,67 -3,101 2,21 3,42 5,63 -4,12 -9,24 -14,36 -5,6 -10,12 -15,18 -9,-1 -18,-2 -27,-3 -8,-1 -16,-2 -24,-3 -1,2 -2,3 -3,5 -2,4 -5,7 -8,11 0,13 0,27 0,40 1,4 2,7 3,11 2,14 4,28 6,42 -1,12 -3,24 -5,36 1,9 2,19 3,28 0,8 1,16 1,24 6,18 12,37 17,56 2,5 4,11 6,17 -2,7 -5,15 -7,22 -9,8 -18,15 -27,23 -5,10 -10,20 -14,29 -4,5 -7,11 -10,16 -8,0 -16,1 -24,1 -9,-5 -19,-10 -28,-15 -4,-2 -8,-4 -12,-7 -6,1 -11,1 -17,2 -3,6 -6,11 -9,17 -5,15 -10,30 -15,44 -9,-1 -17,-3 -25,-4 3,-33 6,-66 8,-99 -3,-18 -6,-37 -9,-56 -6,-29 -13,-57 -20,-86 -6,-11 -13,-22 -20,-32 -6,-11 -12,-22 -19,-32 -8,-8 -17,-15 -26,-23 -1,-17 -1,-33 -2,-50 -7,-9 -13,-19 -19,-28 -2,-9 -4,-18 -6,-27 4,-10 8,-21 12,-32 1,-4 3,-8 4,-13 2,-2 3,-5 4,-8 -4,-8 -9,-17 -13,-25 -8,-18 -16,-37 -25,-55 -2,-10 -4,-21 -6,-31 -4,-2 -7,-4 -10,-6 2,-3 4,-6 6,-9 1,-2 3,-4 4,-7 2,-4 4,-8 6,-12 1,-4 2,-9 3,-14 1,-4 1,-7 2,-11 -1,-4 -2,-7 -2,-11 -1,-6 -2,-13 -3,-19 -2,-5 -3,-10 -4,-15 0,-7 0,-13 0,-19 0,-5 -1,-10 -1,-16 -1,-5 -1,-11 -2,-17 -1,-6 -2,-13 -3,-19 -3,-3 -5,-6 -8,-9 2,-2 4,-3 6,-5 3,-2 7,-4 10,-7 4,-2 7,-4 10,-6 7,-1 13,-1 20,-2 2,2 3,4 5,6 0,4 0,8 1,13 0,2 1,4 1,7 2,1 5,1 7,2 4,0 8,0 12,0 4,0 8,0 11,-1 2,-2 5,-3 7,-5 0,-1 1,-1 2,-2 1,-3 3,-6 5,-8 3,-2 5,-4 8,-6 3,-1 5,-3 7,-5 2,-2 4,-5 5,-8 0,-4 0,-8 1,-11 0,-4 1,-7 2,-11 2,-3 4,-7 6,-10 2,-4 4,-7 6,-11 2,-5 5,-9 8,-14 2,-3 4,-7 6,-10 2,-2 4,-5 7,-7 3,-2 6,-5 8,-7 4,1 8,1 12,1 2,1 4,3 7,5 1,2 2,4 4,6 2,2 4,4 7,7 3,0 6,1 9,1 1,1 2,3 2,4 2,1 3,3 4,4z"/>
   <path fill="#366545" d="M214 100c0,1 0,1 1,1 1,-1 2,-2 3,-3 0,-3 0,-5 0,-7 2,-2 4,-3 6,-5 3,0 7,-1 11,-1 4,0 7,0 11,0 3,1 5,3 8,4 2,3 3,6 5,9 0,3 0,6 -1,8 -1,5 -2,9 -3,13 -2,5 -4,9 -6,14 0,4 0,8 0,12 1,3 3,7 4,10 2,5 3,9 5,14 2,7 4,13 6,20 1,3 2,5 4,8 3,3 5,5 8,8 5,2 10,3 14,5 7,0 13,0 19,0 4,0 7,0 10,0 2,1 4,2 6,3 3,0 6,1 9,1 0,0 0,1 0,1 7,9 13,18 19,27 1,2 2,4 3,5 14,10 28,20 42,30 -2,8 -5,16 -8,24 -1,8 -2,15 -3,23 5,9 10,18 16,28 -1,33 -2,67 -3,100 2,21 3,43 5,64 -4,12 -9,24 -14,36 -5,6 -10,11 -15,17 -9,-1 -18,-2 -27,-3 -8,-1 -16,-2 -24,-2 -1,1 -2,3 -3,4 -2,4 -5,8 -8,11 0,14 0,27 0,40 1,4 2,8 3,12 2,13 4,27 6,41 -1,12 -3,24 -5,36 1,10 2,19 3,28 0,8 1,16 1,24 6,19 12,37 17,56 2,6 4,12 6,17 -2,8 -5,15 -7,23 -9,7 -18,15 -27,22 -5,10 -10,20 -14,30 -4,5 -7,10 -10,15 -8,1 -16,1 -24,2 -9,-5 -19,-10 -28,-16 -4,-2 -8,-4 -12,-6 -6,0 -11,1 -17,1 -3,6 -6,12 -9,18 -5,14 -10,29 -15,44 -9,-2 -17,-3 -25,-5 3,-33 6,-66 8,-98 -3,-19 -6,-38 -9,-56 -6,-29 -13,-58 -20,-87 -6,-11 -13,-21 -20,-32 -6,-11 -12,-21 -19,-32 -8,-7 -17,-15 -26,-23 -1,-16 -1,-33 -2,-50 -7,-9 -13,-19 -19,-28 -2,-9 -4,-17 -6,-26 4,-11 8,-22 12,-33 1,-4 3,-8 4,-12 2,-3 3,-6 4,-9 -4,-8 -9,-16 -13,-24 -8,-19 -16,-38 -25,-56 -2,-10 -4,-20 -6,-30 -4,-2 -7,-4 -10,-6 2,-3 4,-6 6,-9 1,-3 3,-5 4,-7 2,-4 4,-8 6,-12 1,-5 2,-10 3,-15 1,-3 1,-7 2,-10 -1,-4 -2,-8 -2,-12 -1,-6 -2,-12 -3,-18 -2,-6 -3,-11 -4,-16 0,-6 0,-12 0,-18 0,-6 -1,-11 -1,-16 -1,-6 -1,-12 -2,-18 -1,-6 -2,-12 -3,-18 -3,-4 -5,-7 -8,-10 2,-1 4,-3 6,-4 3,-3 7,-5 10,-7 4,-2 7,-5 10,-7 7,0 13,-1 20,-2 2,2 3,4 5,6 0,4 0,9 1,13 0,2 1,5 1,7 2,1 5,2 7,3 4,0 8,0 12,0 4,-1 8,-1 11,-1 2,-2 5,-4 7,-6 0,0 1,-1 2,-2 1,-2 3,-5 5,-8 3,-2 5,-3 8,-5 3,-2 5,-4 7,-5 2,-3 4,-6 5,-8 0,-4 0,-8 1,-12 0,-4 1,-7 2,-11 2,-3 4,-6 6,-10 2,-3 4,-7 6,-11 2,-4 5,-9 8,-14 2,-3 4,-6 6,-10 2,-2 4,-5 7,-7 3,-2 6,-4 8,-6 4,0 8,0 12,0 2,2 4,3 7,5 1,2 2,4 4,6 2,3 4,5 7,7 3,1 6,1 9,1 1,2 2,3 2,4 2,2 3,3 4,4z"/>
   <path fill="#3A6A49" d="M215 95c0,0 0,0 1,1 1,-1 2,-3 3,-4 0,-2 0,-5 0,-7 2,-1 4,-3 6,-5 3,0 7,-1 11,-1 4,0 7,0 11,0 3,2 5,3 8,4 2,3 3,6 5,9 0,3 0,6 -1,9 -1,4 -2,8 -3,12 -2,5 -4,10 -6,15 0,3 0,7 0,11 1,4 3,7 4,10 2,5 3,10 5,14 2,7 4,14 6,20 1,3 2,6 4,9 3,2 5,5 8,7 5,2 10,4 14,5 7,0 13,0 19,0 4,0 7,0 10,0 2,1 4,2 6,4 3,0 6,0 9,0 0,1 0,1 0,1 7,9 13,19 19,28 1,1 2,3 3,5 14,9 28,19 42,29 -2,8 -5,16 -8,24 -1,8 -2,16 -3,23 5,10 10,19 16,28 -1,34 -2,67 -3,101 2,21 3,42 5,63 -4,12 -9,24 -14,36 -5,6 -10,12 -15,17 -9,-1 -18,-2 -27,-3 -8,0 -16,-1 -24,-2 -1,2 -2,3 -3,5 -2,3 -5,7 -8,11 0,13 0,26 0,40 1,3 2,7 3,11 2,14 4,28 6,42 -1,12 -3,24 -5,36 1,9 2,18 3,28 0,8 1,16 1,23 6,19 12,38 17,56 2,6 4,12 6,18 -2,7 -5,15 -7,22 -9,8 -18,15 -27,23 -5,10 -10,19 -14,29 -4,5 -7,10 -10,15 -8,1 -16,2 -24,2 -9,-5 -19,-10 -28,-15 -4,-2 -8,-5 -12,-7 -6,1 -11,1 -17,2 -3,5 -6,11 -9,17 -5,15 -10,30 -15,44 -9,-1 -17,-3 -25,-5 3,-32 6,-65 8,-98 -3,-19 -6,-37 -9,-56 -6,-29 -13,-58 -20,-86 -6,-11 -13,-22 -20,-33 -6,-10 -12,-21 -19,-31 -8,-8 -17,-16 -26,-23 -1,-17 -1,-34 -2,-50 -7,-10 -13,-19 -19,-29 -2,-8 -4,-17 -6,-26 4,-11 8,-21 12,-32 1,-4 3,-9 4,-13 2,-3 3,-5 4,-8 -4,-9 -9,-17 -13,-25 -8,-19 -16,-37 -25,-56 -2,-10 -4,-20 -6,-30 -4,-2 -7,-4 -10,-6 2,-3 4,-6 6,-9 1,-2 3,-5 4,-7 2,-4 4,-8 6,-12 1,-5 2,-9 3,-14 1,-4 1,-7 2,-11 -1,-4 -2,-8 -2,-12 -1,-6 -2,-12 -3,-18 -2,-5 -3,-10 -4,-16 0,-6 0,-12 0,-18 0,-5 -1,-11 -1,-16 -1,-6 -1,-11 -2,-17 -1,-7 -2,-13 -3,-19 -3,-3 -5,-6 -8,-9 2,-2 4,-3 6,-5 3,-2 7,-5 10,-7 4,-2 7,-4 10,-6 7,-1 13,-2 20,-2 2,2 3,3 5,5 0,5 0,9 1,13 0,3 1,5 1,7 2,1 5,2 7,3 4,0 8,0 12,0 4,0 8,-1 11,-1 2,-2 5,-4 7,-6 0,0 1,-1 2,-1 1,-3 3,-6 5,-9 3,-1 5,-3 8,-5 3,-2 5,-3 7,-5 2,-3 4,-5 5,-8 0,-4 0,-8 1,-12 0,-3 1,-7 2,-10 2,-4 4,-7 6,-10 2,-4 4,-8 6,-11 2,-5 5,-10 8,-14 2,-4 4,-7 6,-10 2,-3 4,-5 7,-8 3,-2 6,-4 8,-6 4,0 8,1 12,1 2,1 4,3 7,4 1,3 2,5 4,7 2,2 4,4 7,7 3,0 6,0 9,1 1,1 2,2 2,4 2,1 3,2 4,4z"/>
   <path fill="#3E6F4E" d="M216 89c0,0 0,1 1,1 1,-1 2,-2 3,-3 0,-3 0,-5 0,-7 2,-2 4,-4 6,-5 3,-1 7,-1 11,-2 4,1 7,1 11,1 3,1 5,2 8,4 2,3 3,6 5,9 0,3 0,5 -1,8 -1,4 -2,8 -3,13 -2,4 -4,9 -6,14 0,4 0,8 0,12 1,3 3,6 4,10 2,4 3,9 5,14 2,6 4,13 6,19 1,3 2,6 4,9 3,3 5,5 8,8 5,1 10,3 14,5 7,0 13,0 19,-1 4,0 7,0 10,0 2,2 4,3 6,4 3,0 6,1 9,1 0,0 0,0 0,1 7,9 13,18 19,27 1,2 2,3 3,5 14,10 28,20 42,29 -2,9 -5,17 -8,25 -1,7 -2,15 -3,23 5,9 10,18 16,28 -1,33 -2,67 -3,100 2,21 3,42 5,63 -4,13 -9,25 -14,37 -5,5 -10,11 -15,17 -9,-1 -18,-2 -27,-3 -8,-1 -16,-2 -24,-3 -1,2 -2,3 -3,5 -2,4 -5,7 -8,11 0,14 0,27 0,40 1,4 2,8 3,11 2,14 4,28 6,42 -1,12 -3,24 -5,36 1,10 2,19 3,28 0,8 1,16 1,24 6,18 12,37 17,56 2,6 4,11 6,17 -2,8 -5,15 -7,23 -9,7 -18,15 -27,22 -5,10 -10,20 -14,30 -4,5 -7,10 -10,15 -8,0 -16,1 -24,2 -9,-6 -19,-11 -28,-16 -4,-2 -8,-4 -12,-6 -6,0 -11,1 -17,1 -3,6 -6,12 -9,17 -5,15 -10,30 -15,45 -9,-2 -17,-4 -25,-5 3,-33 6,-66 8,-98 -3,-19 -6,-38 -9,-56 -6,-29 -13,-58 -20,-87 -6,-11 -13,-22 -20,-32 -6,-11 -12,-21 -19,-32 -8,-8 -17,-15 -26,-23 -1,-17 -1,-33 -2,-50 -7,-9 -13,-19 -19,-28 -2,-9 -4,-18 -6,-26 4,-11 8,-22 12,-33 1,-4 3,-8 4,-12 2,-3 3,-6 4,-9 -4,-8 -9,-16 -13,-25 -8,-18 -16,-37 -25,-55 -2,-10 -4,-20 -6,-30 -4,-2 -7,-4 -10,-6 2,-4 4,-7 6,-10 1,-2 3,-4 4,-7 2,-4 4,-8 6,-11 1,-5 2,-10 3,-15 1,-3 1,-7 2,-10 -1,-4 -2,-8 -2,-12 -1,-6 -2,-12 -3,-19 -2,-5 -3,-10 -4,-15 0,-6 0,-12 0,-19 0,-5 -1,-10 -1,-15 -1,-6 -1,-12 -2,-18 -1,-6 -2,-12 -3,-19 -3,-3 -5,-6 -8,-9 2,-1 4,-3 6,-5 3,-2 7,-4 10,-7 4,-2 7,-4 10,-6 7,0 13,-1 20,-2 2,2 3,4 5,6 0,4 0,8 1,13 0,2 1,4 1,7 2,1 5,2 7,2 4,0 8,0 12,0 4,0 8,0 11,0 2,-2 5,-4 7,-6 0,-1 1,-1 2,-2 1,-3 3,-5 5,-8 3,-2 5,-4 8,-5 3,-2 5,-4 7,-6 2,-2 4,-5 5,-7 0,-4 0,-8 1,-12 0,-4 1,-7 2,-11 2,-3 4,-6 6,-10 2,-3 4,-7 6,-11 2,-4 5,-9 8,-14 2,-3 4,-6 6,-10 2,-2 4,-5 7,-7 3,-2 6,-4 8,-6 4,0 8,0 12,0 2,2 4,3 7,5 1,2 2,4 4,6 2,2 4,5 7,7 3,0 6,1 9,1 1,2 2,3 2,4 2,2 3,3 4,4z"/>
   <path fill="#437552" d="M217 84c0,0 0,0 1,0 1,-1 2,-2 3,-3 0,-2 0,-5 0,-7 2,-2 4,-3 6,-5 3,0 7,-1 11,-1 4,0 7,0 11,0 3,2 5,3 8,4 2,3 3,6 5,9 0,3 0,6 -1,9 -1,4 -2,8 -3,12 -2,5 -4,10 -6,14 0,4 0,8 0,12 1,3 3,7 4,10 2,5 3,10 5,14 2,7 4,13 6,20 1,3 2,6 4,9 3,2 5,5 8,7 5,2 10,4 14,5 7,0 13,0 19,0 4,0 7,0 10,0 2,1 4,2 6,3 3,1 6,1 9,1 0,0 0,1 0,1 7,9 13,18 19,28 1,1 2,3 3,4 14,10 28,20 42,30 -2,8 -5,16 -8,24 -1,8 -2,15 -3,23 5,9 10,19 16,28 -1,33 -2,67 -3,100 2,22 3,43 5,64 -4,12 -9,24 -14,36 -5,6 -10,11 -15,17 -9,-1 -18,-2 -27,-3 -8,-1 -16,-1 -24,-2 -1,1 -2,3 -3,4 -2,4 -5,8 -8,12 0,13 0,26 0,39 1,4 2,8 3,12 2,14 4,27 6,41 -1,12 -3,25 -5,37 1,9 2,18 3,28 0,7 1,15 1,23 6,19 12,37 17,56 2,6 4,12 6,18 -2,7 -5,14 -7,22 -9,8 -18,15 -27,23 -5,9 -10,19 -14,29 -4,5 -7,10 -10,15 -8,1 -16,1 -24,2 -9,-5 -19,-10 -28,-15 -4,-3 -8,-5 -12,-7 -6,1 -11,1 -17,1 -3,6 -6,12 -9,18 -5,15 -10,29 -15,44 -9,-2 -17,-3 -25,-5 3,-33 6,-65 8,-98 -3,-19 -6,-37 -9,-56 -6,-29 -13,-58 -20,-87 -6,-10 -13,-21 -20,-32 -6,-10 -12,-21 -19,-31 -8,-8 -17,-16 -26,-24 -1,-16 -1,-33 -2,-49 -7,-10 -13,-19 -19,-29 -2,-9 -4,-17 -6,-26 4,-11 8,-22 12,-32 1,-5 3,-9 4,-13 2,-3 3,-6 4,-8 -4,-9 -8,-17 -13,-25 -8,-19 -16,-37 -25,-56 -2,-10 -4,-20 -6,-30 -4,-2 -7,-4 -10,-6 2,-3 4,-6 6,-9 1,-3 3,-5 4,-7 2,-4 4,-8 6,-12 1,-5 2,-10 3,-14 1,-4 1,-8 2,-11 -1,-4 -2,-8 -2,-12 -1,-6 -2,-12 -3,-18 -2,-5 -3,-11 -4,-16 0,-6 0,-12 0,-18 0,-5 -1,-11 -1,-16 -1,-6 -1,-12 -2,-18 -1,-6 -2,-12 -3,-18 -3,-3 -5,-6 -8,-9 2,-2 4,-4 6,-5 3,-3 7,-5 10,-7 4,-2 7,-4 10,-6 7,-1 13,-2 20,-3 2,2 3,4 5,6 0,5 0,9 1,13 0,3 1,5 1,7 2,1 5,2 7,3 4,0 8,0 12,0 4,0 8,-1 11,-1 3,-2 5,-4 7,-6 0,0 1,-1 2,-1 1,-3 3,-6 5,-9 3,-1 5,-3 8,-5 3,-2 5,-4 7,-5 2,-3 4,-5 5,-8 0,-4 0,-8 1,-12 0,-3 1,-7 2,-10 2,-4 4,-7 6,-10 2,-4 4,-8 6,-11 2,-5 5,-10 8,-14 2,-4 4,-7 6,-10 2,-3 5,-5 7,-8 3,-2 6,-4 8,-6 4,0 8,0 12,0 2,2 4,4 7,5 1,2 2,4 4,6 2,3 4,5 7,7 3,1 6,1 9,2 1,1 2,2 2,4 2,1 3,2 4,4z"/>
   <path fill="#477A57" d="M218 78c0,0 0,1 1,1 1,-1 2,-2 3,-4 0,-2 0,-4 0,-7 2,-1 4,-3 6,-4 3,-1 7,-1 11,-2 4,0 7,1 11,1 3,1 5,2 8,4 2,3 3,5 5,8 0,3 0,6 -1,9 -1,4 -2,8 -3,12 -2,5 -4,10 -6,15 0,4 0,8 0,12 1,3 3,6 4,10 2,4 3,9 5,14 2,6 4,13 6,19 1,3 2,6 4,9 3,2 5,5 8,7 5,2 10,4 14,6 7,0 13,-1 19,-1 4,0 7,0 10,0 2,1 4,3 6,4 3,0 6,0 9,1 0,0 0,0 0,1 7,9 13,18 19,27 1,2 2,3 3,5 14,10 28,19 42,29 -2,8 -5,16 -8,25 -1,7 -2,15 -3,22 5,10 10,19 16,28 -1,34 -2,67 -3,101 2,21 3,42 5,63 -4,12 -9,24 -14,36 -5,6 -10,12 -15,18 -9,-1 -18,-2 -27,-4 -8,0 -16,-1 -24,-2 -1,2 -2,3 -3,5 -2,3 -5,7 -8,11 0,13 0,27 0,40 1,4 2,7 3,11 2,14 4,28 6,42 -1,12 -3,24 -5,36 1,9 2,19 3,28 0,8 1,16 1,24 6,18 12,37 17,56 2,5 4,11 6,17 -2,7 -5,15 -7,22 -9,8 -18,15 -27,23 -5,10 -10,20 -14,29 -4,5 -7,11 -10,16 -8,0 -16,1 -24,1 -9,-5 -19,-10 -28,-15 -4,-2 -8,-4 -12,-7 -6,1 -11,1 -17,2 -3,6 -6,11 -9,17 -5,15 -10,30 -15,44 -9,-1 -17,-3 -25,-4 3,-33 6,-66 8,-99 -3,-18 -6,-37 -9,-56 -6,-29 -13,-57 -20,-86 -6,-11 -13,-22 -20,-33 -6,-10 -12,-21 -19,-31 -8,-8 -17,-15 -26,-23 -1,-17 -1,-33 -2,-50 -7,-9 -13,-19 -19,-28 -2,-9 -4,-18 -6,-27 4,-10 8,-21 12,-32 1,-4 3,-8 4,-13 2,-2 3,-5 4,-8 -4,-8 -8,-17 -13,-25 -8,-18 -16,-37 -25,-55 -2,-10 -4,-21 -6,-31 -4,-2 -7,-4 -10,-6 2,-3 4,-6 6,-9 1,-2 3,-5 4,-7 2,-4 4,-8 6,-12 1,-4 2,-9 3,-14 1,-4 1,-7 2,-11 -1,-4 -2,-7 -2,-11 -1,-6 -2,-13 -3,-19 -2,-5 -3,-10 -4,-15 0,-7 0,-13 0,-19 0,-5 -1,-10 -1,-16 -1,-5 -1,-11 -2,-17 -1,-6 -2,-13 -3,-19 -3,-3 -5,-6 -8,-9 2,-2 4,-3 6,-5 3,-2 7,-4 10,-7 4,-2 7,-4 10,-6 7,-1 13,-1 20,-2 2,2 3,4 5,6 0,4 0,8 1,13 0,2 1,4 1,7 2,1 5,1 7,2 4,0 8,0 12,0 4,0 8,0 11,-1 3,-2 5,-3 7,-5 0,-1 1,-1 2,-2 1,-3 3,-6 5,-8 3,-2 5,-4 8,-6 3,-1 5,-3 7,-5 2,-2 4,-5 5,-8 0,-4 0,-8 1,-11 0,-4 1,-7 2,-11 2,-3 4,-7 6,-10 2,-4 4,-7 6,-11 2,-5 5,-9 8,-14 2,-3 4,-7 6,-10 2,-2 5,-5 7,-7 3,-2 6,-5 8,-7 4,1 8,1 12,1 2,1 4,3 7,5 1,2 2,4 4,6 2,2 4,4 7,7 3,0 6,1 9,1 1,1 2,3 2,4 2,1 3,3 4,4z"/>
   <path fill="#4B7F5B" d="M219 72c0,1 0,1 1,1 1,-1 2,-2 3,-3 0,-3 0,-5 0,-7 2,-2 4,-3 6,-5 3,0 7,-1 11,-1 4,0 7,0 11,0 3,1 5,3 8,4 2,3 3,6 5,9 0,3 0,6 -1,8 -1,5 -2,9 -3,13 -2,5 -4,9 -6,14 0,4 0,8 0,12 1,3 3,7 4,10 2,5 3,9 5,14 2,7 4,13 6,20 1,3 2,5 4,8 3,3 5,5 8,8 5,2 10,3 14,5 7,0 13,0 19,0 4,0 7,0 10,0 2,1 4,2 6,3 3,0 6,1 9,1 0,0 0,1 0,1 7,9 13,18 19,27 1,2 2,4 3,5 14,10 28,20 42,30 -2,8 -5,16 -8,24 -1,8 -2,15 -3,23 5,9 10,18 16,28 -1,33 -2,67 -3,100 2,21 3,43 5,64 -4,12 -9,24 -14,36 -5,6 -10,11 -15,17 -9,-1 -18,-2 -27,-3 -8,-1 -16,-2 -24,-2 -1,1 -2,3 -3,4 -2,4 -5,8 -8,11 0,14 0,27 0,40 1,4 2,8 3,12 2,13 4,27 6,41 -1,12 -3,24 -5,36 1,10 2,19 3,28 0,8 1,16 1,24 6,19 12,37 17,56 2,6 4,12 6,17 -2,8 -5,15 -7,23 -9,7 -18,15 -27,22 -5,10 -10,20 -14,30 -4,5 -7,10 -10,15 -8,1 -16,1 -24,2 -9,-5 -19,-10 -28,-16 -4,-2 -8,-4 -12,-6 -6,0 -11,1 -17,1 -3,6 -6,12 -9,18 -5,14 -10,29 -15,44 -9,-2 -17,-3 -25,-5 3,-33 6,-66 8,-98 -3,-19 -6,-38 -9,-56 -6,-29 -13,-58 -20,-87 -6,-11 -13,-21 -20,-32 -6,-11 -12,-21 -19,-32 -8,-7 -17,-15 -26,-23 -1,-16 -1,-33 -2,-50 -7,-9 -13,-19 -19,-28 -2,-9 -4,-18 -6,-26 4,-11 8,-22 12,-33 1,-4 3,-8 4,-12 2,-3 3,-6 4,-9 -4,-8 -8,-16 -13,-24 -8,-19 -16,-38 -25,-56 -2,-10 -4,-20 -6,-30 -4,-2 -7,-4 -10,-6 2,-3 4,-6 6,-9 1,-3 3,-5 4,-7 2,-4 4,-8 6,-12 1,-5 2,-10 3,-15 1,-3 1,-7 2,-10 -1,-4 -2,-8 -2,-12 -1,-6 -2,-12 -3,-18 -2,-6 -3,-11 -4,-16 0,-6 0,-12 0,-18 0,-6 -1,-11 -1,-16 -1,-6 -1,-12 -2,-18 -1,-6 -2,-12 -3,-19 -3,-3 -5,-6 -8,-9 2,-1 4,-3 6,-4 3,-3 7,-5 10,-7 4,-2 7,-5 10,-7 7,0 13,-1 20,-2 2,2 3,4 5,6 0,4 0,9 1,13 0,2 1,5 1,7 2,1 5,2 7,3 4,0 8,0 12,0 4,-1 8,-1 11,-1 3,-2 5,-4 7,-6 0,-1 1,-1 2,-2 1,-2 3,-5 5,-8 3,-2 5,-3 8,-5 3,-2 5,-4 7,-5 2,-3 4,-6 5,-8 0,-4 0,-8 1,-12 0,-4 1,-7 2,-11 2,-3 4,-6 6,-10 2,-3 4,-7 6,-11 2,-4 5,-9 8,-14 2,-3 4,-6 6,-10 2,-2 5,-5 7,-7 3,-2 6,-4 8,-6 4,0 8,0 12,0 2,2 4,3 7,5 1,2 2,4 4,6 2,3 4,5 7,7 3,1 6,1 9,1 1,2 2,3 2,4 2,2 3,3 4,4z"/>
   <path fill="#4F8460" d="M220 67c0,0 0,0 1,1 1,-1 2,-3 3,-4 0,-2 0,-5 0,-7 2,-1 4,-3 6,-5 3,0 7,-1 11,-1 4,0 7,0 11,0 3,2 5,3 8,4 2,3 3,6 5,9 0,3 0,6 -1,9 -1,4 -2,8 -3,12 -2,5 -4,10 -6,15 0,3 0,7 0,11 1,4 3,7 4,10 2,5 3,10 5,14 2,7 4,13 6,20 1,3 2,6 4,9 3,2 5,5 8,7 5,2 10,4 14,5 7,0 13,0 19,0 4,0 7,0 10,0 2,1 4,2 6,4 3,0 6,0 9,0 0,1 0,1 0,1 7,9 13,19 19,28 1,1 2,3 3,5 14,9 28,19 42,29 -2,8 -5,16 -8,24 -1,8 -2,16 -3,23 5,9 10,19 16,28 -1,34 -2,67 -3,101 2,21 3,42 5,63 -4,12 -9,24 -14,36 -5,6 -10,12 -15,17 -9,-1 -18,-2 -27,-3 -8,0 -16,-1 -24,-2 -1,2 -2,3 -3,4 -2,4 -5,8 -8,12 0,13 0,26 0,40 1,3 2,7 3,11 2,14 4,28 6,41 -1,13 -3,25 -5,37 1,9 2,18 3,28 0,8 1,16 1,23 6,19 12,38 17,56 2,6 4,12 6,18 -2,7 -5,15 -7,22 -9,8 -18,15 -27,23 -5,10 -10,19 -14,29 -4,5 -7,10 -10,15 -8,1 -16,2 -24,2 -9,-5 -19,-10 -28,-15 -4,-2 -8,-5 -12,-7 -6,1 -11,1 -17,2 -3,5 -6,11 -9,17 -5,15 -10,30 -15,44 -9,-1 -17,-3 -25,-5 3,-32 6,-65 8,-98 -3,-19 -6,-37 -9,-56 -6,-29 -13,-58 -20,-86 -6,-11 -13,-22 -20,-33 -6,-10 -12,-21 -19,-31 -8,-8 -17,-16 -26,-23 -1,-17 -1,-34 -2,-50 -7,-10 -13,-19 -19,-29 -2,-8 -4,-17 -6,-26 4,-11 8,-21 12,-32 1,-4 3,-9 4,-13 2,-3 3,-5 4,-8 -4,-9 -8,-17 -13,-25 -8,-19 -16,-37 -25,-56 -2,-10 -4,-20 -6,-30 -4,-2 -7,-4 -10,-6 2,-3 4,-6 6,-9 1,-2 3,-5 4,-7 2,-4 4,-8 6,-12 1,-5 2,-9 3,-14 1,-4 1,-7 2,-11 -1,-4 -2,-8 -2,-12 -1,-6 -2,-12 -3,-18 -2,-5 -3,-10 -4,-16 0,-6 0,-12 0,-18 0,-5 -1,-11 -1,-16 -1,-6 -1,-11 -2,-17 -1,-7 -2,-13 -3,-19 -3,-3 -5,-6 -8,-9 2,-2 4,-3 6,-5 3,-2 7,-5 10,-7 4,-2 7,-4 10,-6 7,-1 13,-2 20,-2 2,2 3,3 5,5 0,5 0,9 1,13 0,3 1,5 1,7 2,1 5,2 7,3 4,0 8,0 12,0 4,0 8,-1 11,-1 3,-2 5,-4 7,-6 0,0 1,-1 2,-1 1,-3 3,-6 5,-9 3,-1 5,-3 8,-5 3,-2 5,-3 7,-5 2,-3 4,-5 5,-8 0,-4 0,-8 1,-12 0,-3 1,-7 2,-10 2,-4 4,-7 6,-10 2,-4 4,-8 6,-11 2,-5 5,-10 8,-14 2,-4 4,-7 6,-10 2,-3 5,-5 7,-8 3,-2 6,-4 8,-6 4,0 8,1 12,1 2,1 4,3 7,4 1,3 2,5 4,7 2,2 4,4 7,7 3,0 6,0 9,1 1,1 2,2 2,4 2,1 3,2 4,4z"/>
   <path fill="#548964" d="M221 61c0,0 0,1 1,1 1,-1 2,-2 3,-3 0,-3 0,-5 0,-7 2,-2 4,-4 6,-5 3,-1 7,-1 11,-2 4,1 7,1 11,1 3,1 5,2 8,4 2,3 3,6 5,9 0,2 0,5 -1,8 -1,4 -2,8 -3,12 -2,5 -4,10 -6,15 0,4 0,8 0,12 1,3 3,6 4,10 2,4 3,9 5,14 2,6 4,13 6,19 1,3 2,6 4,9 3,3 5,5 8,8 5,1 10,3 14,5 7,0 13,0 19,-1 4,0 7,0 10,0 2,2 4,3 6,4 3,0 6,0 9,1 0,0 0,0 0,1 7,9 13,18 19,27 1,2 2,3 3,5 14,10 28,20 42,29 -2,8 -5,17 -8,25 -1,7 -2,15 -3,23 5,9 10,18 16,28 -1,33 -2,67 -3,100 2,21 3,42 5,63 -4,13 -9,25 -14,37 -5,5 -10,11 -15,17 -9,-1 -18,-2 -27,-3 -8,-1 -16,-2 -24,-3 -1,2 -2,3 -3,5 -2,4 -5,7 -8,11 0,14 0,27 0,40 1,4 2,8 3,11 2,14 4,28 6,42 -1,12 -3,24 -5,36 1,10 2,19 3,28 0,8 1,16 1,24 6,18 12,37 17,56 2,6 4,11 6,17 -2,8 -5,15 -7,23 -9,7 -18,15 -27,22 -5,10 -10,20 -14,30 -4,5 -7,10 -10,15 -8,0 -16,1 -24,2 -9,-6 -19,-11 -28,-16 -4,-2 -8,-4 -12,-6 -6,0 -11,1 -17,1 -3,6 -6,12 -9,17 -5,15 -10,30 -15,45 -9,-2 -17,-4 -25,-5 3,-33 6,-66 8,-99 -3,-18 -6,-37 -9,-55 -6,-29 -13,-58 -20,-87 -6,-11 -13,-22 -20,-32 -6,-11 -12,-21 -19,-32 -8,-8 -17,-15 -26,-23 -1,-17 -1,-33 -2,-50 -7,-9 -13,-19 -19,-28 -2,-9 -4,-18 -6,-26 4,-11 8,-22 12,-33 1,-4 3,-8 4,-12 2,-3 3,-6 4,-9 -4,-8 -8,-16 -13,-25 -8,-18 -16,-37 -25,-55 -2,-10 -4,-20 -6,-30 -4,-2 -7,-4 -10,-7 2,-3 4,-6 6,-9 1,-2 3,-4 4,-7 2,-4 4,-8 6,-11 1,-5 2,-10 3,-15 1,-3 1,-7 2,-10 -1,-4 -2,-8 -2,-12 -1,-6 -2,-12 -3,-19 -2,-5 -3,-10 -4,-15 0,-6 0,-12 0,-19 0,-5 -1,-10 -1,-15 -1,-6 -1,-12 -2,-18 -1,-6 -2,-12 -3,-19 -3,-3 -5,-6 -8,-9 2,-1 4,-3 6,-5 3,-2 7,-4 10,-7 4,-2 7,-4 10,-6 7,-1 13,-1 20,-2 2,2 3,4 5,6 0,4 0,8 1,13 0,2 1,4 1,7 2,1 5,2 7,2 4,0 8,0 12,0 4,0 8,0 11,0 3,-2 5,-4 7,-6 0,-1 1,-1 2,-2 1,-3 3,-5 5,-8 3,-2 5,-4 8,-5 3,-2 5,-4 7,-6 2,-2 4,-5 5,-7 0,-4 0,-8 1,-12 0,-4 1,-7 2,-11 2,-3 4,-6 6,-10 2,-3 4,-7 6,-11 2,-4 5,-9 8,-14 2,-3 4,-6 6,-10 2,-2 5,-5 7,-7 3,-2 6,-4 8,-6 4,0 8,0 12,0 2,2 4,3 7,5 1,2 2,4 4,6 2,2 4,5 7,7 3,0 6,1 9,1 1,2 2,3 2,4 2,2 3,3 4,4z"/>
   <path fill="#588E69" d="M222 56c0,0 0,0 1,0 1,-1 2,-2 3,-3 0,-2 0,-5 0,-7 2,-2 4,-3 6,-5 3,0 7,-1 11,-1 4,0 7,0 11,0 3,2 5,3 8,4 2,3 3,6 5,9 0,3 0,6 -1,9 -1,4 -2,8 -3,12 -2,5 -4,10 -6,14 0,4 0,8 0,12 1,3 3,7 4,10 2,5 3,9 5,14 2,7 4,13 6,20 1,3 2,6 4,9 3,2 5,5 8,7 5,2 10,3 14,5 7,0 13,0 19,0 4,0 7,0 10,0 2,1 4,2 6,3 3,1 6,1 9,1 0,0 0,1 0,1 7,9 13,18 19,28 1,1 2,3 3,4 14,10 28,20 42,30 -2,8 -5,16 -8,24 -1,8 -2,15 -3,23 5,9 10,19 16,28 -1,33 -2,67 -3,100 2,22 3,43 5,64 -4,12 -9,24 -14,36 -5,6 -10,11 -15,17 -9,-1 -18,-2 -27,-3 -8,-1 -16,-1 -24,-2 -1,1 -2,3 -3,4 -2,4 -5,8 -8,12 0,13 0,26 0,39 1,4 2,8 3,12 2,14 4,27 6,41 -1,12 -3,24 -5,37 1,9 2,18 3,28 0,7 1,15 1,23 6,19 12,37 17,56 2,6 4,12 6,18 -2,7 -5,14 -7,22 -9,7 -18,15 -27,23 -5,9 -10,19 -14,29 -4,5 -7,10 -10,15 -8,1 -16,1 -24,2 -9,-5 -19,-10 -28,-15 -4,-3 -8,-5 -12,-7 -6,1 -11,1 -17,1 -3,6 -6,12 -9,18 -5,15 -10,29 -15,44 -9,-2 -17,-3 -25,-5 3,-33 6,-65 8,-98 -3,-19 -6,-37 -9,-56 -6,-29 -13,-58 -20,-87 -6,-10 -13,-21 -20,-32 -6,-10 -12,-21 -19,-31 -8,-8 -17,-16 -26,-24 -1,-16 -1,-33 -2,-49 -7,-10 -13,-19 -19,-29 -2,-9 -4,-17 -6,-26 4,-11 8,-22 12,-32 1,-5 3,-9 4,-13 2,-3 3,-6 4,-8 -4,-9 -8,-17 -13,-25 -8,-19 -16,-37 -25,-56 -2,-10 -4,-20 -6,-30 -4,-2 -7,-4 -10,-6 2,-3 4,-6 6,-9 1,-3 3,-5 4,-7 2,-4 4,-8 6,-12 1,-5 2,-10 3,-14 1,-4 1,-8 2,-11 -1,-4 -2,-8 -2,-12 -1,-6 -2,-12 -3,-18 -2,-5 -3,-11 -4,-16 0,-6 0,-12 0,-18 0,-5 -1,-11 -1,-16 -1,-6 -1,-12 -2,-18 -1,-6 -2,-12 -3,-18 -3,-3 -5,-6 -8,-9 2,-2 4,-4 6,-5 3,-3 7,-5 10,-7 4,-2 7,-4 10,-6 7,-1 13,-2 20,-3 2,2 3,4 5,6 0,4 0,9 1,13 0,3 1,5 1,7 2,1 5,2 7,3 4,0 8,0 12,0 4,0 8,-1 11,-1 3,-2 5,-4 7,-6 0,0 1,-1 2,-1 1,-3 3,-6 5,-9 3,-1 5,-3 8,-5 3,-2 5,-4 7,-5 2,-3 4,-5 5,-8 0,-4 0,-8 1,-12 0,-3 1,-7 2,-10 2,-4 4,-7 6,-10 2,-4 4,-8 6,-11 2,-5 5,-10 8,-14 2,-4 4,-7 6,-10 2,-3 5,-5 7,-8 3,-2 6,-4 8,-6 4,0 8,0 12,0 2,2 4,4 7,5 1,2 2,4 4,6 2,3 4,5 7,7 3,1 6,1 9,2 1,1 2,2 2,4 2,1 3,2 4,4z"/>
   <path fill="#5C936D" d="M223 50c0,0 0,1 1,1 1,-1 2,-2 3,-4 0,-2 0,-4 0,-7 2,-1 4,-3 6,-4 3,-1 7,-1 11,-2 4,0 7,0 11,1 3,1 5,2 8,4 2,2 3,5 5,8 0,3 0,6 -1,9 -1,4 -2,8 -3,12 -2,5 -4,10 -6,15 0,4 0,8 0,11 1,4 3,7 4,11 2,4 3,9 5,14 2,6 4,13 6,19 1,3 2,6 4,9 3,2 5,5 8,7 5,2 10,4 14,6 7,0 13,-1 19,-1 4,0 7,0 10,0 2,1 4,3 6,4 3,0 6,0 9,1 0,0 0,0 0,0 7,10 13,19 19,28 1,2 2,3 3,5 14,10 28,19 42,29 -2,8 -5,16 -8,25 -1,7 -2,15 -3,22 5,10 10,19 16,28 -1,34 -2,67 -3,101 2,21 3,42 5,63 -4,12 -9,24 -14,36 -5,6 -10,12 -15,18 -9,-2 -18,-3 -27,-4 -8,0 -16,-1 -24,-2 -1,2 -2,3 -3,5 -2,3 -5,7 -8,11 0,13 0,27 0,40 1,4 2,7 3,11 2,14 4,28 6,42 -1,12 -3,24 -5,36 1,9 2,19 3,28 0,8 1,16 1,24 6,18 12,37 17,55 2,6 4,12 6,18 -2,7 -5,15 -7,22 -9,8 -18,15 -27,23 -5,10 -10,20 -14,29 -4,5 -7,11 -10,16 -8,0 -16,1 -24,1 -9,-5 -19,-10 -28,-15 -4,-2 -8,-4 -12,-7 -6,1 -11,1 -17,2 -3,6 -6,11 -9,17 -5,15 -10,30 -15,44 -9,-1 -17,-3 -25,-4 3,-33 6,-66 8,-99 -3,-18 -6,-37 -9,-56 -6,-29 -13,-57 -20,-86 -6,-11 -13,-22 -20,-33 -6,-10 -12,-21 -19,-31 -8,-8 -17,-15 -26,-23 -1,-17 -1,-33 -2,-50 -7,-9 -13,-19 -19,-28 -2,-9 -4,-18 -6,-27 4,-10 8,-21 12,-32 1,-4 3,-8 4,-13 2,-2 3,-5 4,-8 -4,-8 -8,-17 -13,-25 -8,-18 -16,-37 -25,-55 -2,-10 -4,-21 -6,-31 -4,-2 -7,-4 -10,-6 2,-3 4,-6 6,-9 1,-2 3,-5 4,-7 2,-4 4,-8 6,-12 1,-4 2,-9 3,-14 1,-4 1,-7 2,-11 -1,-4 -2,-7 -2,-11 -1,-7 -2,-13 -3,-19 -2,-5 -3,-10 -4,-15 0,-7 0,-13 0,-19 0,-5 -1,-10 -1,-16 -1,-5 -1,-11 -2,-17 -1,-6 -2,-13 -3,-19 -3,-3 -5,-6 -8,-9 2,-2 4,-3 6,-5 3,-2 7,-4 10,-7 4,-2 7,-4 10,-6 7,-1 13,-1 20,-2 2,2 3,4 5,6 0,4 0,8 1,13 0,2 1,4 1,7 2,0 5,1 7,2 4,0 8,0 12,0 4,0 8,0 11,-1 3,-2 5,-3 7,-5 0,-1 1,-2 2,-2 1,-3 3,-6 5,-8 3,-2 5,-4 8,-6 3,-1 5,-3 7,-5 2,-2 4,-5 5,-8 0,-4 0,-8 1,-12 0,-3 1,-6 2,-10 2,-3 4,-7 6,-10 2,-4 4,-7 6,-11 2,-5 5,-9 8,-14 2,-3 4,-7 6,-10 2,-2 5,-5 7,-7 3,-2 6,-5 8,-7 4,1 8,1 12,1 2,1 4,3 7,5 1,2 2,4 4,6 2,2 4,4 7,7 3,0 6,1 9,1 1,1 2,3 2,4 2,1 3,3 4,4z"/>
   <path fill="#609872" d="M224 44c0,1 0,1 1,1 1,-1 2,-2 3,-3 0,-3 0,-5 0,-7 2,-2 4,-3 6,-5 3,-1 7,-1 11,-1 4,0 7,0 11,0 3,1 5,3 8,4 2,3 3,6 5,9 0,3 0,6 -1,8 -1,5 -2,9 -3,13 -2,5 -4,9 -6,14 0,4 0,8 0,12 1,3 3,7 4,10 2,5 3,9 5,14 2,7 4,13 6,20 1,3 2,5 4,8 3,3 5,5 8,8 5,2 10,3 14,5 7,0 13,0 19,0 4,0 7,0 10,0 2,1 4,2 6,3 3,0 6,1 9,1 0,0 0,1 0,1 7,9 13,18 19,27 1,2 2,4 3,5 14,10 28,20 42,30 -2,8 -5,16 -8,24 -1,8 -2,15 -3,23 5,9 10,18 16,28 -1,33 -2,67 -3,100 2,21 3,43 5,64 -4,12 -9,24 -14,36 -5,6 -10,11 -15,17 -9,-1 -18,-2 -27,-3 -8,-1 -16,-2 -24,-2 -1,1 -2,3 -3,4 -2,4 -5,8 -8,11 0,14 0,27 0,40 1,4 2,8 3,12 2,13 4,27 6,41 -1,12 -3,24 -5,36 1,10 2,19 3,28 0,8 1,16 1,24 6,19 12,37 17,56 2,6 4,12 6,17 -2,8 -5,15 -7,23 -9,7 -18,15 -27,22 -5,10 -10,20 -14,30 -4,5 -7,10 -10,15 -8,1 -16,1 -24,2 -9,-5 -19,-10 -28,-16 -4,-2 -8,-4 -12,-6 -6,0 -11,1 -17,1 -3,6 -6,12 -9,18 -5,14 -10,29 -15,44 -9,-2 -17,-3 -25,-5 3,-33 6,-66 8,-98 -3,-19 -6,-38 -9,-56 -6,-29 -13,-58 -20,-87 -6,-11 -13,-21 -20,-32 -6,-11 -12,-21 -19,-32 -8,-7 -17,-15 -26,-23 -1,-16 -1,-33 -2,-50 -7,-9 -13,-19 -19,-28 -2,-9 -4,-18 -6,-26 4,-11 8,-22 12,-33 1,-4 3,-8 4,-12 2,-3 3,-6 4,-9 -4,-8 -8,-16 -13,-25 -8,-18 -16,-37 -25,-55 -2,-10 -4,-20 -6,-30 -4,-2 -7,-4 -10,-6 2,-3 4,-6 6,-9 1,-3 3,-5 4,-7 2,-4 4,-8 6,-12 1,-5 2,-10 3,-15 1,-3 1,-7 2,-10 -1,-4 -2,-8 -2,-12 -1,-6 -2,-12 -3,-18 -2,-6 -3,-11 -4,-16 0,-6 0,-12 0,-18 0,-6 -1,-11 -1,-16 -1,-6 -1,-12 -2,-18 -1,-6 -2,-12 -3,-19 -3,-3 -5,-6 -8,-9 2,-1 4,-3 6,-4 3,-3 7,-5 10,-7 4,-2 7,-5 10,-7 7,0 13,-1 20,-2 2,2 3,4 5,6 0,4 0,9 1,13 0,2 1,5 1,7 2,1 5,2 7,3 4,0 8,0 12,0 4,-1 8,-1 11,-1 3,-2 5,-4 7,-6 0,-1 1,-1 2,-2 1,-2 3,-5 5,-8 3,-2 5,-3 8,-5 3,-2 5,-4 7,-5 2,-3 4,-6 5,-8 0,-4 0,-8 1,-12 0,-4 1,-7 2,-11 2,-3 4,-6 6,-10 2,-3 4,-7 6,-11 2,-4 5,-9 8,-14 2,-3 4,-6 6,-10 2,-2 5,-5 7,-7 3,-2 6,-4 8,-6 4,0 8,0 12,0 2,2 4,3 7,5 1,2 2,4 4,6 2,3 4,5 7,7 3,1 6,1 9,1 1,2 2,3 2,4 2,2 3,3 4,4z"/>
   <path fill="#659D76" d="M225 39c0,0 0,0 1,1 1,-2 2,-3 3,-4 0,-2 0,-5 0,-7 2,-1 4,-3 6,-5 3,0 7,-1 11,-1 4,0 7,0 11,0 3,2 5,3 8,4 2,3 3,6 5,9 0,3 0,6 -1,9 -1,4 -2,8 -3,12 -2,5 -4,10 -6,15 0,3 0,7 0,11 1,4 3,7 4,10 2,5 3,10 5,14 2,7 4,13 6,20 1,3 2,6 4,9 3,2 5,5 8,7 5,2 10,4 14,5 7,0 13,0 19,0 4,0 7,0 10,0 2,1 4,2 6,4 3,0 6,0 9,0 0,1 0,1 0,1 7,9 13,19 19,28 1,1 2,3 3,5 14,9 28,19 42,29 -2,8 -5,16 -8,24 -1,8 -2,16 -3,23 5,9 10,19 16,28 -1,34 -2,67 -3,101 2,21 3,42 5,63 -4,12 -9,24 -14,36 -5,6 -10,12 -15,17 -9,-1 -18,-2 -27,-3 -8,0 -16,-1 -24,-2 -1,2 -2,3 -3,4 -2,4 -5,8 -8,12 0,13 0,26 0,40 1,3 2,7 3,11 2,14 4,28 6,41 -1,13 -3,25 -5,37 1,9 2,18 3,28 0,8 1,15 1,23 6,19 12,38 17,56 2,6 4,12 6,18 -2,7 -5,15 -7,22 -9,8 -18,15 -27,23 -5,10 -10,19 -14,29 -4,5 -7,10 -10,15 -8,1 -16,2 -24,2 -9,-5 -19,-10 -28,-15 -4,-2 -8,-5 -12,-7 -6,1 -11,1 -17,2 -3,5 -6,11 -9,17 -5,15 -10,30 -15,44 -9,-1 -17,-3 -25,-5 3,-32 6,-65 8,-98 -3,-19 -6,-37 -9,-56 -6,-29 -13,-58 -20,-86 -6,-11 -13,-22 -20,-33 -6,-10 -12,-21 -19,-31 -8,-8 -17,-16 -26,-23 -1,-17 -1,-34 -2,-50 -7,-10 -13,-19 -19,-29 -2,-8 -4,-17 -6,-26 4,-11 8,-21 12,-32 1,-4 3,-9 4,-13 2,-3 3,-5 4,-8 -4,-9 -8,-17 -13,-25 -8,-19 -16,-37 -25,-56 -2,-10 -4,-20 -6,-30 -4,-2 -7,-4 -10,-6 2,-3 4,-6 6,-9 1,-2 3,-5 4,-7 2,-4 4,-8 6,-12 1,-5 2,-9 3,-14 1,-4 1,-7 2,-11 -1,-4 -2,-8 -2,-12 -1,-6 -2,-12 -3,-18 -2,-5 -3,-10 -4,-16 0,-6 0,-12 0,-18 0,-5 -1,-11 -1,-16 -1,-6 -1,-11 -2,-17 -1,-7 -2,-13 -3,-19 -3,-3 -5,-6 -8,-9 2,-2 4,-3 6,-5 3,-2 7,-5 10,-7 4,-2 7,-4 10,-6 7,-1 13,-2 20,-2 2,2 3,3 5,5 0,5 0,9 1,13 0,3 1,5 1,7 2,1 5,2 7,3 4,0 8,0 12,0 4,0 8,-1 11,-1 3,-2 5,-4 7,-6 0,0 1,-1 2,-1 1,-3 3,-6 5,-9 3,-1 5,-3 8,-5 3,-2 5,-3 7,-5 2,-3 4,-5 5,-8 0,-4 0,-8 1,-12 0,-3 1,-7 2,-10 2,-4 4,-7 6,-10 2,-4 4,-8 6,-11 2,-5 5,-10 8,-14 2,-4 4,-7 6,-10 2,-3 5,-5 7,-8 3,-2 6,-4 8,-6 4,0 8,1 12,1 2,1 4,3 7,4 1,3 2,5 4,7 2,2 4,4 7,7 3,0 6,0 9,1 1,1 2,2 2,4 2,1 3,2 4,4z"/>
   <path fill="#69A27B" d="M226 33c0,0 0,1 1,1 1,-1 2,-2 3,-3 0,-3 0,-5 0,-7 2,-2 4,-4 6,-5 3,-1 7,-1 11,-2 4,1 7,1 11,1 3,1 5,2 8,4 2,3 3,6 5,9 0,2 0,5 -1,8 -1,4 -2,8 -3,12 -2,5 -4,10 -6,15 0,4 0,8 0,12 1,3 3,6 4,10 2,4 3,9 5,14 2,6 4,13 6,19 1,3 2,6 4,9 3,3 5,5 8,8 5,1 10,3 14,5 7,0 13,0 19,-1 4,0 7,0 10,0 2,2 4,3 6,4 3,0 6,0 9,1 0,0 0,0 0,1 7,9 13,18 19,27 1,2 2,3 3,5 14,10 28,20 42,29 -2,8 -5,17 -8,25 -1,7 -2,15 -3,23 5,9 10,18 16,28 -1,33 -2,67 -3,100 2,21 3,42 5,63 -4,12 -9,25 -14,37 -5,5 -10,11 -15,17 -9,-1 -18,-2 -27,-3 -8,-1 -16,-2 -24,-3 -1,2 -2,3 -3,5 -2,4 -5,7 -8,11 0,13 0,27 0,40 1,4 2,8 3,11 2,14 4,28 6,42 -1,12 -3,24 -5,36 1,10 2,19 3,28 0,8 1,16 1,24 6,18 12,37 17,56 2,6 4,11 6,17 -2,8 -5,15 -7,22 -9,8 -18,16 -27,23 -5,10 -10,20 -14,30 -4,5 -7,10 -10,15 -8,0 -16,1 -24,2 -9,-6 -19,-11 -28,-16 -4,-2 -8,-4 -12,-6 -6,0 -11,1 -17,1 -3,6 -6,12 -9,17 -5,15 -10,30 -15,45 -9,-2 -17,-4 -25,-5 3,-33 6,-66 8,-99 -3,-18 -6,-37 -9,-56 -6,-28 -13,-57 -20,-86 -6,-11 -13,-22 -20,-32 -6,-11 -12,-21 -19,-32 -8,-8 -17,-15 -26,-23 -1,-17 -1,-33 -2,-50 -7,-9 -13,-19 -19,-28 -2,-9 -4,-18 -6,-26 4,-11 8,-22 12,-33 1,-4 3,-8 4,-13 2,-2 3,-5 4,-8 -4,-8 -8,-16 -13,-25 -8,-18 -16,-37 -25,-55 -2,-10 -4,-20 -6,-30 -4,-2 -7,-4 -10,-7 2,-3 4,-6 6,-9 1,-2 3,-4 4,-7 2,-4 4,-8 6,-11 1,-5 2,-10 3,-15 1,-3 1,-7 2,-10 -1,-4 -2,-8 -2,-12 -1,-6 -2,-12 -3,-19 -2,-5 -3,-10 -4,-15 0,-6 0,-13 0,-19 0,-5 -1,-10 -1,-15 -1,-6 -1,-12 -2,-18 -1,-6 -2,-12 -3,-19 -3,-3 -5,-6 -8,-9 2,-1 4,-3 6,-5 3,-2 7,-4 10,-7 4,-2 7,-4 10,-6 7,-1 13,-1 20,-2 2,2 3,4 5,6 0,4 0,8 1,13 0,2 1,4 1,7 2,1 5,2 7,2 4,0 8,0 12,0 4,0 8,0 11,0 3,-2 5,-4 7,-6 0,-1 1,-1 2,-2 1,-3 3,-5 5,-8 3,-2 5,-4 8,-5 3,-2 5,-4 7,-6 2,-2 4,-5 5,-8 0,-3 0,-7 1,-11 0,-4 1,-7 2,-11 2,-3 4,-7 6,-10 2,-4 4,-7 6,-11 2,-4 5,-9 8,-14 2,-3 4,-6 6,-10 2,-2 5,-5 7,-7 3,-2 6,-4 8,-6 4,0 8,0 12,0 2,2 4,3 7,5 1,2 2,4 4,6 2,2 4,5 7,7 3,0 6,1 9,1 1,2 2,3 2,4 2,1 3,3 4,4z"/>
  </g>
  <polygon fill="#6DA77F" points="227,28 228,28 231,25 231,18 237,13 248,12 259,12 267,16 272,25 271,34 268,46 262,60 262,72 266,82 271,96 277,116 281,125 289,132 303,137 322,137 332,137 338,140 347,141 347,142 366,170 369,174 411,204 403,228 400,251 416,279 413,379 418,443 404,479 389,496 362,493 338,491 335,495 327,507 327,546 330,558 336,599 331,636 334,664 335,687 352,743 358,761 351,783 324,806 310,835 300,850 276,852 248,837 236,830 219,831 210,849 195,893 170,888 178,790 169,734 149,647 129,615 110,584 84,560 82,511 63,482 57,456 69,424 73,411 77,403 64,378 39,322 33,292 23,286 29,277 33,270 39,258 42,243 44,233 42,221 39,203 35,187 35,169 34,153 32,135 29,117 21,107 27,103 37,96 47,90 67,87 72,93 73,106 74,113 81,116 93,116 104,115 111,109 113,107 118,99 126,94 133,89 138,81 139,69 141,59 147,49 153,38 161,24 167,14 174,6 182,0 194,0 201,5 205,11 212,18 221,20 223,24 "/>
 </g>
</svg>
