<?xml version="1.0" encoding="UTF-8"?>
<!DOCTYPE svg PUBLIC "-//W3C//DTD SVG 1.1//EN" "http://www.w3.org/Graphics/SVG/1.1/DTD/svg11.dtd">
<!-- Creator: CorelDRAW X8 -->
<svg xmlns="http://www.w3.org/2000/svg" xml:space="preserve" width="100%" height="100%" version="1.1" shape-rendering="geometricPrecision" text-rendering="geometricPrecision" image-rendering="optimizeQuality" fill-rule="evenodd" clip-rule="evenodd"
viewBox="0 0 1081 1211"
 xmlns:xlink="http://www.w3.org/1999/xlink">
 <g id="Layer_x0020_1">
  <metadata id="CorelCorpID_0Corel-Layer"/>
  <polygon fill="#143D21" points="740,186 727,203 712,218 685,231 671,245 661,264 662,283 672,289 675,291 688,298 704,305 714,311 720,320 737,323 752,325 762,330 763,344 763,360 768,375 782,394 787,403 798,423 804,437 809,456 809,475 810,477 814,488 821,503 827,516 840,540 859,567 872,573 877,575 891,574 901,571 915,554 923,549 931,552 950,568 964,583 998,607 1003,615 1003,623 1002,631 999,642 999,657 1002,665 1006,675 1008,693 1009,708 1011,712 1016,723 1024,732 1039,742 1046,748 1043,766 1048,777 1042,779 1018,801 1015,818 1032,834 1063,843 1070,861 1075,867 1072,876 1072,887 1072,902 1070,918 1065,926 1054,929 1044,920 1033,909 1024,907 1018,906 1007,914 1005,920 1005,933 1001,943 984,949 965,957 953,969 953,983 958,999 958,1009 953,1015 930,1021 911,1023 909,1016 897,997 886,991 875,997 868,1004 852,1008 834,1010 821,1013 812,1030 805,1054 804,1075 809,1099 806,1110 792,1116 783,1121 780,1123 770,1132 755,1138 745,1146 725,1148 711,1144 704,1130 693,1118 673,1112 658,1113 654,1113 641,1118 623,1128 604,1132 587,1128 580,1121 567,1113 544,1116 539,1120 527,1132 514,1142 501,1150 491,1166 483,1191 480,1204 474,1211 465,1210 459,1203 456,1192 451,1172 451,1156 450,1145 457,1137 466,1125 467,1115 464,1105 457,1105 454,1105 444,1108 436,1107 435,1099 435,1089 433,1075 427,1070 413,1068 396,1066 385,1059 375,1052 356,1042 334,1030 317,1027 291,1029 288,1030 280,1035 271,1038 254,1041 231,1039 211,1041 211,1039 187,1023 179,1024 139,1026 42,1023 7,1010 8,986 22,954 16,931 0,915 21,902 25,873 7,845 12,812 84,749 168,679 264,635 280,618 282,611 283,602 258,592 229,593 216,587 238,548 293,469 290,462 285,441 255,420 247,389 244,357 288,326 356,278 410,270 443,265 549,240 571,212 568,202 578,202 600,195 617,196 634,200 646,197 658,185 670,171 685,157 710,145 727,140 741,134 742,139 747,146 753,153 758,164 751,176 "/>
  <g id="_348169117792">
   <path fill="#184225" d="M740 180c-4,5 -9,11 -13,16 -5,5 -10,10 -15,15 -9,5 -17,9 -26,13 -5,5 -10,10 -15,15 -3,6 -6,12 -10,19 1,6 1,12 1,19 4,2 7,4 10,6 1,1 2,1 3,2 5,2 9,4 14,6 5,3 10,5 15,8 4,2 7,3 11,5 1,4 3,7 5,10 6,1 12,2 18,3 5,0 10,1 15,2 3,1 6,3 10,5 0,4 0,9 0,13 0,6 0,11 1,16 1,6 3,11 4,16 5,6 10,12 14,18 2,3 4,7 5,10 4,6 8,13 11,19 2,5 5,10 7,15 1,6 3,12 4,18 0,7 0,13 0,20 0,1 1,1 1,2 1,4 3,7 4,11 3,5 5,10 8,15 1,4 3,9 5,13 4,8 9,15 14,23 6,9 12,19 18,28 5,2 9,4 14,6 1,1 3,1 4,2 5,-1 9,-1 14,-1 4,-1 7,-2 11,-4 4,-5 9,-11 13,-16 3,-2 5,-4 8,-5 3,1 6,1 9,2 6,6 12,11 19,16 4,5 8,11 13,16 11,8 23,15 35,23 1,3 3,6 4,9 0,2 0,5 0,8 0,3 -1,5 -1,8 -1,3 -2,7 -2,11 0,5 0,10 0,15 1,2 2,5 2,8 2,3 3,6 5,9 0,6 1,13 1,19 0,5 1,10 1,15 0,1 1,2 2,4 2,3 4,7 6,11 2,3 5,6 7,9 5,3 10,6 15,9 3,2 5,5 7,7 -1,6 -2,12 -2,18 1,4 3,7 4,11 -2,1 -4,1 -6,2 -8,7 -16,14 -24,22 -1,5 -2,11 -3,17 6,5 12,10 17,15 11,4 21,7 31,10 3,6 5,12 7,17 2,3 4,5 5,7 -1,3 -2,6 -2,9 0,3 0,7 0,11 -1,5 -1,10 -1,15 -1,5 -1,10 -2,15 -2,3 -3,6 -4,9 -4,1 -8,2 -11,3 -4,-3 -7,-7 -10,-10 -4,-3 -8,-7 -12,-11 -3,0 -6,-1 -9,-1 -2,-1 -4,-1 -5,-1 -4,2 -8,5 -11,7 -1,2 -2,4 -3,6 0,5 0,9 0,14 -1,3 -3,7 -4,10 -6,2 -11,4 -16,5 -7,3 -14,6 -20,9 -4,4 -8,8 -12,12 0,4 0,9 0,14 2,5 3,10 5,16 0,3 0,6 1,9 -2,2 -4,4 -6,6 -7,2 -15,5 -23,7 -6,0 -12,1 -18,1 -1,-2 -2,-4 -2,-6 -4,-7 -8,-13 -12,-19 -4,-2 -8,-4 -12,-6 -4,2 -8,4 -11,5 -2,3 -5,5 -7,8 -5,1 -10,2 -15,3 -7,1 -13,2 -19,3 -4,1 -9,2 -13,3 -3,5 -6,11 -8,16 -3,8 -5,16 -7,24 -1,7 -1,14 -1,21 1,8 3,16 5,25 -2,3 -3,7 -4,11 -4,2 -9,4 -13,6 -3,2 -6,3 -9,5 -2,0 -3,1 -4,2 -3,3 -7,5 -10,8 -5,3 -10,5 -14,7 -4,3 -7,5 -10,7 -7,1 -14,2 -21,2 -4,-1 -9,-2 -14,-3 -2,-5 -4,-9 -7,-14 -3,-4 -7,-8 -11,-12 -6,-3 -13,-5 -20,-7 -5,1 -10,1 -15,1 -1,0 -2,0 -3,0 -5,2 -9,4 -13,6 -7,3 -13,6 -19,10 -6,1 -13,2 -19,3 -6,-1 -11,-2 -17,-3 -2,-2 -5,-5 -7,-7 -4,-3 -8,-6 -12,-9 -8,2 -16,3 -24,4 -2,1 -3,2 -4,4 -4,4 -9,7 -13,11 -4,4 -8,7 -13,11 -4,2 -8,5 -12,7 -4,6 -7,11 -10,17 -3,8 -6,16 -9,24 -1,5 -2,9 -3,14 -2,2 -4,5 -5,7 -3,-1 -7,-1 -10,-1 -2,-2 -4,-5 -6,-7 -1,-4 -2,-7 -3,-11 -2,-7 -3,-14 -4,-20 0,-6 0,-11 0,-17 -1,-3 -1,-7 -2,-10 3,-3 5,-6 7,-9 3,-4 6,-8 9,-12 0,-3 1,-6 1,-10 -1,-3 -2,-6 -3,-10 -2,0 -5,0 -7,0 -1,0 -2,0 -3,0 -3,1 -6,2 -9,4 -3,-1 -6,-1 -9,-1 0,-3 0,-5 0,-8 0,-3 0,-7 0,-10 -1,-5 -2,-10 -3,-15 -2,-1 -4,-3 -6,-5 -4,0 -9,-1 -13,-2 -6,0 -12,-1 -17,-2 -4,-2 -8,-4 -11,-7 -4,-2 -7,-4 -10,-6 -7,-3 -13,-7 -19,-10 -8,-4 -15,-8 -22,-13 -6,-1 -12,-2 -17,-3 -9,1 -18,2 -27,3 -1,0 -1,1 -2,1 -3,1 -6,3 -8,4 -3,1 -6,3 -9,4 -6,1 -12,2 -18,3 -7,-1 -15,-2 -23,-3 -6,1 -13,2 -19,3 0,-1 -1,-1 -1,-2 -8,-6 -16,-11 -24,-16 -3,0 -5,0 -8,0 -13,1 -26,2 -40,3 -32,-1 -64,-3 -97,-4 -11,-4 -23,-8 -34,-13 0,-7 0,-15 0,-23 5,-11 9,-22 14,-32 -2,-8 -4,-16 -6,-23 -5,-6 -10,-11 -16,-16 7,-5 14,-9 21,-14 2,-9 3,-19 5,-28 -6,-9 -12,-19 -18,-28 1,-11 2,-22 4,-33 24,-21 48,-42 72,-63 28,-24 56,-47 84,-71 32,-14 64,-29 96,-44 5,-5 11,-11 17,-17 0,-2 1,-4 1,-7 1,-2 1,-5 1,-8 -8,-3 -16,-7 -24,-10 -10,0 -20,0 -29,0 -5,-1 -9,-3 -14,-5 8,-13 15,-27 22,-40 18,-26 37,-52 55,-78 -1,-3 -2,-5 -2,-8 -2,-7 -4,-13 -6,-20 -10,-7 -20,-14 -30,-21 -3,-11 -5,-21 -8,-31 -1,-11 -2,-22 -3,-33 15,-10 29,-20 44,-30 23,-16 45,-32 68,-49 18,-2 36,-5 54,-8 11,-1 23,-3 34,-4 35,-9 70,-17 106,-26 7,-9 14,-18 22,-27 -2,-3 -3,-7 -4,-10 4,0 7,-1 11,-1 7,-2 14,-4 21,-6 6,0 11,0 17,1 6,1 11,2 17,3 4,-1 8,-1 13,-2 4,-4 8,-8 12,-13 4,-4 7,-9 11,-13 5,-5 10,-9 15,-14 8,-4 17,-8 25,-12 6,-2 12,-4 18,-6 4,-2 9,-3 13,-5 1,1 1,3 1,4 2,3 4,5 6,8 2,2 4,4 6,6 1,4 3,8 4,11 -2,5 -5,9 -7,13 -4,3 -7,6 -11,10z"/>
   <path fill="#1C472A" d="M740 173c-4,6 -8,11 -12,17 -5,5 -10,10 -15,15 -9,4 -18,9 -27,13 -5,5 -10,9 -14,14 -4,7 -7,13 -10,19 0,7 0,13 1,19 3,2 6,4 9,7 1,0 2,1 3,2 5,2 9,4 14,6 5,2 11,5 16,7 3,2 6,4 10,6 2,3 4,6 6,10 5,0 11,1 17,2 5,1 10,2 15,2 3,2 7,4 10,5 0,5 0,9 0,14 1,5 1,11 1,16 1,5 3,10 5,15 4,7 9,13 13,19 2,3 4,6 6,9 3,7 7,13 11,20 2,5 4,10 6,15 1,6 3,12 4,18 0,7 0,13 0,19 1,1 1,2 1,3 2,3 3,7 4,11 3,5 5,10 8,14 2,5 3,9 5,14 5,7 9,15 14,23 6,9 12,18 18,27 5,2 9,4 14,7 1,0 3,1 4,1 5,0 10,0 14,0 4,-2 7,-3 11,-4 5,-6 9,-11 14,-17 2,-1 5,-3 7,-5 3,1 6,2 9,3 6,5 13,11 19,16 4,5 9,10 13,16 12,7 23,15 35,23 2,3 3,5 5,8 0,3 -1,6 -1,9 0,2 0,5 -1,8 -1,3 -1,7 -2,10 0,5 0,10 0,15 1,3 2,6 3,8 1,3 3,7 4,10 0,6 1,12 2,18 0,5 0,10 0,16 1,1 1,2 2,3 2,4 4,8 6,11 2,3 5,6 7,9 5,3 11,7 16,10 2,2 4,4 6,7 0,6 -1,12 -2,18 1,3 3,7 5,11 -2,0 -4,1 -6,2 -8,7 -16,14 -24,21 -2,6 -3,12 -4,18 6,5 12,10 18,15 10,3 20,6 30,10 3,5 5,11 8,17 1,2 3,4 4,7 0,3 -1,5 -2,8 0,4 0,8 0,11 0,5 -1,10 -1,15 0,6 -1,11 -2,16 -1,3 -3,5 -4,8 -4,1 -7,2 -11,3 -3,-3 -7,-6 -10,-9 -4,-4 -8,-8 -12,-11 -3,-1 -6,-1 -9,-2 -1,0 -3,-1 -5,-1 -4,3 -7,5 -11,8 -1,2 -2,4 -3,6 0,4 0,9 0,14 -1,3 -2,6 -4,10 -5,1 -11,3 -16,5 -7,3 -13,6 -20,8 -4,4 -8,8 -12,12 0,5 0,10 0,14 2,6 4,11 5,17 1,3 1,6 1,9 -2,2 -4,4 -5,6 -8,2 -16,4 -23,7 -7,0 -13,0 -19,1 -1,-2 -1,-4 -2,-7 -4,-6 -8,-12 -12,-19 -4,-1 -8,-3 -12,-5 -4,1 -7,3 -11,5 -2,2 -4,5 -7,7 -5,1 -10,3 -15,4 -6,1 -12,2 -18,3 -5,0 -9,1 -14,2 -2,6 -5,11 -8,17 -2,8 -5,16 -7,24 0,7 -1,14 -1,21 2,8 3,16 5,24 -1,4 -2,8 -3,11 -5,2 -10,4 -14,7 -3,1 -6,3 -9,4 -1,1 -3,2 -4,2 -3,3 -6,6 -10,9 -5,2 -9,4 -14,7 -3,2 -7,5 -10,7 -7,1 -14,1 -21,2 -4,-1 -9,-2 -13,-4 -3,-4 -5,-9 -8,-13 -3,-4 -7,-9 -10,-13 -7,-2 -14,-4 -20,-6 -5,0 -10,1 -16,1 -1,0 -2,0 -3,0 -4,2 -9,4 -13,6 -6,3 -13,6 -19,9 -6,1 -13,3 -19,4 -5,-1 -11,-2 -17,-3 -2,-3 -4,-5 -7,-8 -4,-3 -8,-5 -12,-8 -8,1 -16,2 -24,4 -1,1 -3,2 -4,3 -4,4 -8,8 -12,12 -5,3 -9,7 -13,10 -5,3 -9,5 -13,8 -3,5 -7,11 -10,17 -3,8 -6,16 -9,24 -1,4 -2,9 -3,14 -2,2 -3,4 -5,6 -3,0 -6,0 -9,-1 -3,-2 -5,-4 -7,-7 -1,-3 -2,-7 -3,-11 -1,-6 -3,-13 -4,-20 0,-5 0,-11 0,-16 -1,-3 -1,-7 -1,-10 2,-3 4,-6 7,-9 2,-4 5,-8 8,-12 1,-3 1,-7 2,-10 -1,-3 -3,-7 -4,-10 -2,0 -4,0 -7,0 -1,0 -2,0 -3,0 -3,1 -6,2 -9,3 -3,0 -6,0 -8,0 -1,-3 -1,-6 -1,-8 0,-4 0,-7 0,-11 -1,-5 -2,-9 -3,-14 -2,-2 -4,-3 -5,-5 -5,-1 -10,-1 -14,-2 -6,-1 -11,-1 -17,-2 -4,-2 -7,-5 -11,-7 -3,-2 -7,-4 -10,-6 -6,-4 -13,-7 -19,-11 -7,-4 -15,-8 -22,-12 -6,-1 -11,-2 -17,-3 -9,1 -18,2 -26,3 -1,0 -2,0 -3,1 -3,1 -5,2 -8,4 -3,1 -6,2 -9,4 -6,1 -12,2 -17,3 -8,-1 -16,-2 -24,-3 -6,1 -13,2 -19,3 0,-1 0,-2 -1,-2 -8,-6 -16,-11 -24,-17 -3,0 -5,1 -8,1 -13,1 -26,2 -39,2 -33,-1 -65,-2 -97,-3 -12,-5 -23,-9 -35,-13 0,-8 0,-16 0,-24 5,-10 10,-21 14,-32 -2,-7 -4,-15 -6,-23 -5,-5 -10,-10 -15,-16 7,-4 14,-9 21,-13 1,-9 2,-19 4,-28 -6,-10 -12,-19 -18,-28 1,-11 3,-22 4,-34 24,-21 48,-42 72,-63 28,-23 56,-47 84,-70 32,-15 64,-29 96,-44 6,-6 11,-12 17,-17 1,-2 1,-5 2,-7 0,-3 0,-6 1,-8 -9,-4 -17,-7 -25,-10 -10,0 -19,0 -29,0 -4,-2 -9,-4 -13,-6 7,-13 14,-26 21,-39 19,-26 37,-53 55,-79 -1,-2 -1,-5 -2,-7 -2,-7 -4,-14 -6,-21 -10,-7 -20,-14 -30,-21 -2,-10 -5,-20 -8,-31 -1,-11 -2,-21 -3,-32 15,-10 30,-20 44,-31 23,-16 46,-32 68,-48 18,-3 37,-5 55,-8 11,-2 22,-3 33,-5 35,-8 71,-17 106,-25 7,-9 15,-18 22,-27 -1,-4 -3,-7 -4,-11 4,0 7,0 11,0 7,-2 14,-5 22,-7 5,0 11,1 16,1 6,1 12,3 17,4 4,-1 9,-2 13,-3 4,-4 8,-8 12,-12 4,-4 8,-9 12,-14 5,-4 9,-9 14,-13 9,-4 17,-8 25,-13 6,-1 12,-3 18,-5 5,-2 9,-4 14,-6 0,2 0,3 0,5 2,2 4,5 6,8 2,2 4,4 6,6 1,4 3,7 5,11 -3,4 -5,8 -8,13 -3,3 -7,6 -11,9z"/>
   <path fill="#214C2E" d="M740 167c-4,5 -8,11 -12,17 -5,5 -10,9 -15,14 -9,5 -18,9 -27,14 -5,4 -9,9 -14,14 -3,6 -7,13 -10,19 0,6 1,12 1,19 3,2 6,4 9,6 1,1 3,1 4,2 4,2 9,4 13,6 6,3 11,5 16,8 3,2 7,4 10,6 2,3 4,6 6,9 6,1 12,2 17,3 5,0 10,1 15,2 4,2 7,3 10,5 0,4 0,9 1,13 0,6 0,11 0,17 2,5 3,10 5,15 5,6 9,12 14,18 1,4 3,7 5,10 4,6 7,13 11,19 2,5 4,10 6,15 2,6 3,13 5,19 0,6 0,13 0,19 0,1 0,2 1,2 1,4 2,8 4,11 2,5 5,10 7,15 2,4 4,9 5,13 5,8 10,16 14,23 6,10 12,19 19,28 4,2 9,4 13,6 2,1 3,1 5,2 4,0 9,-1 14,-1 3,-1 7,-2 10,-4 5,-5 9,-11 14,-16 2,-2 5,-3 7,-5 3,1 6,2 9,3 7,5 13,10 19,15 5,6 9,11 13,16 12,8 24,16 35,23 2,3 3,6 5,9 0,3 0,5 0,8 -1,3 -1,6 -2,8 0,4 -1,7 -2,11 0,5 0,10 0,15 1,3 2,5 3,8 1,3 3,6 4,9 1,7 1,13 2,19 0,5 0,10 0,15 1,1 2,3 2,4 2,4 4,7 6,11 3,3 5,6 8,9 5,3 10,6 15,9 2,3 4,5 7,7 -1,6 -2,12 -3,18 2,4 3,7 5,11 -2,1 -4,2 -6,2 -8,7 -16,15 -24,22 -1,6 -2,11 -3,17 5,5 11,10 17,16 10,3 20,6 31,9 2,6 5,12 7,18 2,2 3,4 5,6 -1,3 -2,6 -3,9 0,3 0,7 0,11 0,5 0,10 0,15 -1,5 -2,10 -3,15 -1,3 -2,6 -4,9 -3,1 -7,2 -11,3 -3,-3 -7,-6 -10,-10 -4,-3 -8,-7 -11,-11 -3,0 -6,-1 -9,-1 -2,-1 -4,-1 -6,-1 -3,2 -7,5 -11,8 -1,2 -2,4 -2,5 0,5 0,10 0,14 -2,4 -3,7 -5,10 -5,2 -10,4 -16,6 -6,2 -13,5 -19,8 -4,4 -9,8 -13,12 0,5 0,9 0,14 2,5 4,11 6,16 0,3 0,6 0,10 -2,2 -3,3 -5,5 -8,3 -15,5 -23,7 -6,1 -13,1 -19,1 0,-2 -1,-4 -2,-6 -4,-6 -8,-13 -12,-19 -4,-2 -8,-4 -12,-6 -3,2 -7,4 -11,5 -2,3 -4,5 -6,8 -6,1 -11,2 -16,3 -6,1 -12,2 -18,3 -5,1 -9,2 -13,3 -3,5 -6,11 -9,17 -2,8 -4,16 -7,23 0,7 0,14 -1,22 2,8 4,16 5,24 -1,3 -2,7 -3,11 -5,2 -9,4 -14,6 -3,2 -6,3 -9,5 -1,1 -2,1 -3,2 -4,3 -7,6 -10,8 -5,3 -10,5 -15,7 -3,3 -6,5 -10,8 -7,0 -13,1 -20,2 -5,-2 -9,-3 -14,-4 -2,-5 -5,-9 -7,-14 -4,-4 -7,-8 -11,-12 -7,-2 -13,-4 -20,-7 -5,1 -10,1 -15,1 -1,0 -3,0 -4,0 -4,2 -8,4 -13,6 -6,3 -12,7 -19,10 -6,1 -12,2 -19,3 -5,-1 -11,-2 -16,-3 -3,-2 -5,-5 -7,-7 -4,-3 -9,-6 -13,-9 -8,2 -16,3 -24,4 -1,1 -2,3 -4,4 -4,4 -8,8 -12,11 -4,4 -9,7 -13,11 -4,2 -9,5 -13,7 -3,6 -7,12 -10,17 -3,8 -5,16 -8,25 -1,4 -2,9 -3,13 -2,2 -4,5 -6,7 -3,0 -6,-1 -9,-1 -2,-2 -4,-5 -7,-7 -1,-4 -2,-7 -3,-11 -1,-7 -2,-13 -4,-20 0,-5 0,-11 0,-16 0,-4 -1,-7 -1,-11 2,-3 5,-5 7,-8 3,-4 6,-8 8,-12 1,-4 1,-7 2,-11 -1,-3 -2,-6 -3,-9 -3,0 -5,0 -8,0 0,0 -1,0 -2,0 -3,1 -7,2 -10,3 -3,0 -5,-1 -8,-1 0,-3 -1,-5 -1,-8 0,-3 0,-7 0,-10 -1,-5 -1,-10 -2,-14 -2,-2 -4,-4 -6,-5 -5,-1 -9,-2 -14,-2 -6,-1 -11,-2 -17,-2 -3,-3 -7,-5 -11,-7 -3,-2 -6,-5 -10,-7 -6,-3 -12,-7 -19,-10 -7,-4 -15,-8 -22,-12 -6,-1 -11,-2 -17,-3 -9,0 -17,1 -26,2 -1,1 -2,1 -3,1 -2,2 -5,3 -8,4 -3,2 -6,3 -9,4 -5,1 -11,2 -17,3 -8,-1 -15,-1 -23,-2 -7,1 -13,1 -20,2 0,0 0,-1 0,-2 -8,-5 -16,-11 -25,-16 -2,0 -5,0 -7,0 -14,1 -27,2 -40,3 -32,-1 -65,-2 -97,-4 -12,-4 -23,-8 -35,-12 0,-8 1,-16 1,-24 4,-11 9,-21 13,-32 -1,-8 -3,-15 -5,-23 -6,-5 -11,-11 -16,-16 7,-5 14,-9 21,-13 1,-10 3,-19 4,-29 -6,-9 -12,-18 -18,-28 2,-11 3,-22 4,-33 25,-21 49,-42 73,-63 28,-24 56,-47 83,-70 32,-15 64,-30 96,-45 6,-5 12,-11 17,-17 1,-2 1,-4 2,-6 0,-3 1,-6 1,-9 -8,-3 -17,-7 -25,-10 -9,0 -19,1 -29,1 -4,-2 -9,-4 -13,-6 7,-13 14,-26 22,-40 18,-26 36,-52 54,-78 0,-3 -1,-5 -2,-8 -2,-6 -4,-13 -5,-20 -10,-7 -20,-14 -30,-21 -3,-10 -6,-21 -8,-31 -1,-11 -3,-22 -4,-32 15,-11 30,-21 45,-31 22,-16 45,-32 68,-48 18,-3 36,-6 54,-8 11,-2 22,-4 33,-5 36,-9 71,-17 106,-25 8,-10 15,-19 22,-28 -1,-3 -2,-7 -3,-10 3,0 7,0 10,0 7,-3 15,-5 22,-7 5,0 11,0 17,1 5,1 11,2 16,4 5,-1 9,-2 13,-3 4,-4 8,-8 12,-12 4,-5 8,-9 12,-14 5,-5 10,-9 15,-14 8,-4 16,-8 24,-12 6,-2 12,-4 18,-6 5,-1 9,-3 14,-5 0,2 0,3 1,4 1,3 3,6 5,8 2,2 4,5 6,7 2,3 3,7 5,11 -3,4 -5,8 -7,12 -4,3 -8,7 -12,10z"/>
   <path fill="#255133" d="M741 160c-5,6 -9,12 -13,17 -5,5 -10,10 -15,15 -9,4 -18,9 -27,13 -4,5 -9,10 -14,14 -3,7 -7,13 -10,19 1,7 1,13 1,19 3,3 7,5 10,7 1,0 2,1 3,2 4,2 9,4 14,6 5,3 10,5 15,7 4,2 7,4 10,6 2,3 4,7 6,10 6,1 12,2 18,2 5,1 10,2 14,2 4,2 7,4 10,5 1,5 1,9 1,14 0,5 0,11 0,16 2,5 4,11 5,16 5,6 9,12 14,18 2,3 3,6 5,10 4,6 8,13 11,19 2,5 4,10 7,15 1,6 2,12 4,18 0,7 0,13 0,20 0,0 0,1 1,2 1,4 3,7 4,11 2,5 5,10 7,15 2,4 4,8 6,13 4,8 9,15 13,23 7,9 13,18 19,27 4,3 9,5 14,7 1,0 2,1 4,1 5,0 9,0 14,0 4,-1 7,-3 11,-4 4,-5 9,-11 13,-17 3,-1 5,-3 8,-5 3,1 6,2 9,3 6,5 12,11 19,16 4,5 8,11 13,16 11,8 23,15 35,23 1,3 3,6 4,9 0,2 0,5 0,8 -1,2 -1,5 -1,8 -1,3 -2,7 -2,10 0,5 0,11 0,16 0,2 1,5 2,8 2,3 3,6 5,9 0,6 1,12 1,19 0,5 0,10 1,15 0,1 1,2 2,3 2,4 3,8 5,11 3,3 5,6 8,10 5,3 10,6 15,9 2,2 5,4 7,7 -1,6 -2,12 -3,18 2,3 4,7 5,11 -2,0 -4,1 -6,2 -8,7 -16,14 -24,21 -1,6 -2,12 -3,18 6,5 11,10 17,15 10,3 21,7 31,10 2,6 5,11 7,17 2,2 3,5 5,7 -1,3 -2,6 -3,8 0,4 0,8 0,11 0,6 0,11 0,16 -1,5 -2,10 -2,15 -2,3 -3,6 -5,8 -3,2 -7,3 -11,4 -3,-4 -6,-7 -10,-10 -3,-4 -7,-7 -11,-11 -3,0 -6,-1 -9,-2 -2,0 -4,0 -5,-1 -4,3 -8,6 -11,8 -1,2 -2,4 -3,6 0,5 0,9 0,14 -2,3 -3,6 -4,10 -6,2 -11,3 -17,5 -6,3 -13,6 -19,9 -4,4 -8,8 -12,12 0,4 0,9 0,13 1,6 3,11 5,17 0,3 0,6 0,9 -1,2 -3,4 -5,6 -7,2 -15,5 -23,7 -6,0 -12,1 -18,1 -1,-2 -2,-4 -3,-6 -4,-7 -8,-13 -12,-19 -3,-2 -7,-4 -11,-6 -4,2 -8,3 -11,5 -3,3 -5,5 -7,7 -5,2 -10,3 -16,4 -6,1 -12,2 -18,3 -4,1 -9,2 -13,2 -3,6 -6,12 -9,17 -2,8 -4,16 -6,24 -1,7 -1,14 -1,21 1,8 3,16 4,24 -1,4 -2,8 -3,11 -4,3 -9,5 -14,7 -3,1 -6,3 -8,4 -2,1 -3,2 -4,3 -4,2 -7,5 -10,8 -5,2 -10,5 -14,7 -4,2 -7,5 -10,7 -7,1 -14,2 -21,2 -5,-1 -9,-2 -14,-3 -2,-5 -5,-10 -7,-14 -4,-4 -7,-8 -11,-13 -6,-2 -13,-4 -20,-6 -5,0 -10,1 -15,1 -1,0 -2,0 -4,0 -4,2 -8,4 -12,6 -7,3 -13,6 -19,9 -7,2 -13,3 -19,4 -6,-1 -11,-2 -17,-3 -2,-3 -5,-5 -7,-8 -4,-2 -8,-5 -13,-8 -7,1 -15,3 -23,4 -2,1 -3,2 -5,3 -4,4 -8,8 -12,12 -4,4 -8,7 -13,11 -4,2 -8,4 -13,7 -3,6 -6,11 -10,17 -2,8 -5,16 -8,24 -1,5 -2,9 -3,14 -2,2 -4,4 -5,7 -4,-1 -7,-1 -10,-1 -2,-3 -4,-5 -6,-7 -1,-4 -2,-8 -3,-11 -2,-7 -3,-14 -5,-20 0,-6 0,-11 0,-17 0,-3 0,-7 -1,-10 3,-3 5,-6 7,-9 3,-4 6,-8 9,-12 0,-3 1,-7 1,-10 -1,-3 -2,-7 -3,-10 -2,0 -5,0 -7,0 -1,0 -2,0 -3,0 -3,1 -6,2 -10,3 -2,0 -5,0 -8,0 0,-3 0,-6 0,-8 0,-4 0,-7 0,-11 -1,-4 -2,-9 -3,-14 -2,-2 -4,-3 -6,-5 -4,0 -9,-1 -14,-2 -5,0 -11,-1 -16,-2 -4,-2 -8,-4 -11,-7 -4,-2 -7,-4 -11,-6 -6,-4 -12,-7 -18,-11 -8,-4 -15,-8 -23,-12 -5,-1 -11,-2 -17,-3 -8,1 -17,2 -26,3 -1,0 -2,0 -3,1 -2,1 -5,3 -7,4 -3,1 -6,3 -9,4 -6,1 -12,2 -18,3 -7,-1 -15,-2 -23,-3 -6,1 -13,2 -19,3 -1,-1 -1,-2 -1,-2 -8,-6 -16,-11 -24,-17 -3,1 -6,1 -8,1 -13,1 -27,2 -40,3 -32,-2 -64,-3 -97,-4 -11,-4 -23,-9 -34,-13 0,-8 0,-16 0,-24 5,-10 9,-21 14,-32 -2,-7 -4,-15 -6,-22 -5,-6 -11,-11 -16,-17 7,-4 14,-8 21,-13 2,-9 3,-19 4,-28 -6,-10 -12,-19 -17,-28 1,-11 2,-22 4,-33 24,-21 48,-43 72,-64 28,-23 56,-46 84,-70 32,-15 64,-29 96,-44 5,-6 11,-11 17,-17 0,-2 1,-4 1,-7 1,-3 1,-5 1,-8 -8,-4 -16,-7 -25,-10 -9,0 -19,0 -28,0 -5,-2 -9,-4 -14,-5 7,-14 15,-27 22,-40 18,-26 36,-52 55,-79 -1,-2 -2,-5 -2,-7 -2,-7 -4,-14 -6,-20 -10,-7 -20,-15 -30,-22 -3,-10 -5,-20 -8,-31 -1,-10 -2,-21 -3,-32 14,-10 29,-20 44,-30 23,-17 45,-33 68,-49 18,-2 36,-5 54,-8 11,-1 22,-3 34,-5 35,-8 70,-16 105,-25 8,-9 15,-18 23,-27 -2,-4 -3,-7 -4,-10 3,-1 7,-1 10,-1 8,-2 15,-4 22,-7 6,1 11,1 17,1 5,2 11,3 17,4 4,-1 8,-2 12,-3 4,-4 9,-8 13,-12 3,-4 7,-9 11,-13 5,-5 10,-10 15,-14 8,-4 16,-8 25,-12 6,-2 12,-4 18,-6 4,-2 9,-4 13,-5 0,1 1,3 1,4 2,3 4,5 6,8 2,2 3,4 5,6 2,4 4,8 5,11 -2,4 -5,9 -7,13 -4,3 -8,6 -11,9z"/>
   <path fill="#295637" d="M741 154c-4,6 -8,11 -13,17 -5,5 -9,10 -14,15 -9,4 -18,8 -27,13 -5,5 -10,9 -15,14 -3,6 -6,13 -10,19 1,6 1,13 2,19 3,2 6,4 9,6 1,1 2,2 3,2 5,2 9,5 14,7 5,2 10,5 16,7 3,2 6,4 10,6 2,3 4,6 5,9 6,1 12,2 18,3 5,1 10,1 15,2 3,2 6,3 10,5 0,5 0,9 0,14 0,5 1,10 1,16 1,5 3,10 5,15 4,6 9,13 13,19 2,3 4,6 5,9 4,7 8,13 11,20 3,5 5,10 7,14 1,7 3,13 4,19 0,6 0,13 0,19 0,1 1,2 1,2 1,4 3,8 4,11 3,5 5,10 8,15 1,5 3,9 5,13 5,8 9,16 14,24 6,9 12,18 18,27 5,2 9,4 14,6 1,1 3,1 4,2 5,0 10,0 14,-1 4,-1 7,-2 11,-3 4,-6 9,-11 14,-17 2,-2 5,-3 7,-5 3,1 6,2 9,3 6,5 13,10 19,16 4,5 9,10 13,15 12,8 23,16 35,24 1,2 3,5 5,8 -1,3 -1,6 -1,8 0,3 -1,6 -1,8 -1,4 -1,7 -2,11 0,5 0,10 0,15 1,3 2,6 3,8 1,3 2,6 4,10 0,6 1,12 1,18 1,5 1,10 1,15 1,2 1,3 2,4 2,4 4,7 6,11 2,3 5,6 7,9 5,3 10,6 15,10 3,2 5,4 7,6 -1,6 -1,12 -2,18 1,4 3,8 4,11 -2,1 -4,2 -5,2 -8,8 -17,15 -25,22 -1,6 -2,12 -3,17 6,6 12,11 18,16 10,3 20,6 30,9 3,6 5,12 8,18 1,2 3,4 4,6 -1,3 -1,6 -2,9 0,4 0,7 0,11 -1,5 -1,10 -1,15 -1,5 -1,11 -2,16 -1,2 -3,5 -4,8 -4,1 -8,2 -11,3 -4,-3 -7,-6 -10,-9 -4,-4 -8,-8 -12,-11 -3,-1 -6,-1 -9,-2 -2,0 -3,-1 -5,-1 -4,3 -8,5 -11,8 -1,2 -2,4 -3,6 0,4 0,9 0,13 -1,4 -3,7 -4,10 -5,2 -11,4 -16,6 -7,3 -13,5 -20,8 -4,4 -8,8 -12,12 0,5 0,9 0,14 2,5 3,11 5,16 0,4 1,7 1,10 -2,2 -4,4 -5,6 -8,2 -16,4 -24,6 -6,1 -12,1 -18,2 -1,-3 -2,-5 -2,-7 -4,-6 -8,-12 -12,-19 -4,-2 -8,-4 -12,-6 -4,2 -7,4 -11,6 -2,2 -5,5 -7,7 -5,1 -10,2 -15,4 -6,1 -12,1 -19,2 -4,1 -8,2 -13,3 -3,6 -5,11 -8,17 -3,8 -5,16 -7,24 0,7 -1,14 -1,21 1,8 3,16 5,24 -1,4 -2,7 -4,11 -4,2 -9,4 -13,6 -3,2 -6,4 -9,5 -1,1 -3,1 -4,2 -3,3 -7,6 -10,9 -5,2 -9,4 -14,6 -4,3 -7,5 -10,8 -7,1 -14,1 -21,2 -4,-1 -9,-3 -13,-4 -3,-4 -5,-9 -8,-13 -3,-5 -7,-9 -10,-13 -7,-2 -14,-4 -20,-6 -6,0 -11,0 -16,1 -1,0 -2,0 -3,0 -5,2 -9,4 -13,6 -6,3 -13,6 -19,9 -6,1 -13,2 -19,4 -6,-1 -11,-3 -17,-4 -2,-2 -4,-4 -7,-7 -4,-3 -8,-6 -12,-8 -8,1 -16,2 -24,3 -1,2 -3,3 -4,4 -4,4 -8,8 -12,12 -5,3 -9,7 -14,10 -4,3 -8,5 -12,8 -4,5 -7,11 -10,16 -3,9 -6,17 -9,25 -1,4 -2,9 -3,13 -2,3 -3,5 -5,7 -3,0 -6,0 -10,-1 -2,-2 -4,-4 -6,-7 -1,-3 -2,-7 -3,-11 -1,-6 -3,-13 -4,-20 0,-5 0,-11 0,-16 -1,-4 -1,-7 -1,-11 2,-2 4,-5 6,-8 3,-4 6,-8 9,-12 0,-4 1,-7 1,-10 -1,-4 -2,-7 -3,-10 -2,0 -5,0 -7,0 -1,0 -2,0 -3,0 -3,1 -6,2 -9,3 -3,0 -6,0 -9,-1 0,-2 0,-5 0,-8 0,-3 0,-7 0,-10 -1,-5 -2,-10 -3,-14 -2,-2 -4,-4 -6,-5 -4,-1 -9,-1 -13,-2 -6,-1 -12,-1 -17,-2 -4,-2 -7,-5 -11,-7 -4,-2 -7,-4 -10,-6 -7,-4 -13,-7 -19,-11 -8,-4 -15,-8 -22,-12 -6,-1 -12,-2 -17,-3 -9,1 -18,1 -27,2 0,1 -1,1 -2,1 -3,2 -6,3 -8,5 -3,1 -6,2 -9,3 -6,1 -12,2 -17,4 -8,-1 -16,-2 -24,-3 -6,1 -13,2 -19,3 0,-1 -1,-2 -1,-3 -8,-5 -16,-11 -24,-16 -3,0 -5,0 -8,1 -13,0 -26,1 -39,2 -33,-1 -65,-2 -97,-3 -12,-5 -24,-9 -35,-13 0,-8 0,-16 0,-24 5,-11 9,-21 14,-32 -2,-8 -4,-15 -6,-23 -5,-5 -10,-11 -16,-16 7,-4 14,-9 21,-13 2,-10 3,-19 5,-29 -6,-9 -12,-18 -18,-28 1,-11 3,-22 4,-33 24,-21 48,-42 72,-63 28,-23 56,-47 84,-70 32,-15 64,-30 96,-44 6,-6 11,-12 17,-17 0,-3 1,-5 2,-7 0,-3 0,-6 1,-9 -9,-3 -17,-6 -25,-10 -10,1 -20,1 -29,1 -5,-2 -9,-4 -13,-6 7,-13 14,-26 21,-39 18,-27 37,-53 55,-79 -1,-2 -1,-5 -2,-7 -2,-7 -4,-14 -6,-21 -10,-7 -20,-14 -30,-21 -3,-10 -5,-21 -8,-31 -1,-11 -2,-21 -3,-32 15,-10 30,-21 44,-31 23,-16 46,-32 68,-48 18,-3 36,-6 55,-8 11,-2 22,-3 33,-5 35,-8 70,-17 106,-25 7,-9 14,-19 22,-28 -1,-3 -3,-6 -4,-10 4,0 7,0 11,0 7,-3 14,-5 21,-7 6,0 12,1 17,1 6,1 11,2 17,4 4,-1 8,-2 13,-3 4,-4 8,-8 12,-12 4,-5 8,-9 11,-14 5,-4 10,-9 15,-13 8,-5 17,-9 25,-13 6,-2 12,-4 18,-5 4,-2 9,-4 14,-6 0,2 0,3 0,5 2,2 4,5 6,7 2,3 4,5 6,7 1,4 3,7 5,11 -3,4 -5,8 -8,12 -4,4 -7,7 -11,10z"/>
   <path fill="#2D5B3C" d="M741 148c-4,5 -8,11 -12,16 -5,5 -10,10 -15,15 -9,5 -18,9 -27,13 -5,5 -10,10 -14,15 -4,6 -7,12 -10,19 0,6 0,12 1,19 3,2 6,4 9,6 1,1 2,1 3,2 5,2 10,4 14,6 5,3 11,5 16,8 3,2 7,3 10,5 2,4 4,7 6,10 6,1 11,2 17,3 5,0 10,1 15,2 3,1 7,3 10,5 0,4 0,9 0,13 1,6 1,11 1,16 2,6 3,11 5,16 4,6 9,12 14,18 1,3 3,7 5,10 3,6 7,13 11,19 2,5 4,10 6,15 2,6 3,12 4,18 0,7 0,13 0,20 1,1 1,1 1,2 2,4 3,7 5,11 2,5 5,10 7,15 2,4 4,9 5,13 5,8 9,16 14,23 6,9 12,19 18,28 5,2 10,4 14,6 2,1 3,1 4,2 5,-1 10,-1 15,-1 3,-1 7,-2 10,-4 5,-5 9,-11 14,-16 2,-2 5,-4 7,-5 3,1 6,1 9,2 7,6 13,11 19,16 5,6 9,11 13,16 12,8 24,15 35,23 2,3 3,6 5,9 0,2 0,5 -1,8 0,3 0,5 -1,8 0,3 -1,7 -2,11 0,5 0,10 0,15 1,2 2,5 3,8 1,3 3,6 4,9 1,6 1,13 2,19 0,5 0,10 0,15 1,1 2,2 2,4 2,3 4,7 6,11 2,3 5,6 7,9 6,3 11,6 16,9 2,2 4,5 7,7 -1,6 -2,12 -3,18 2,4 3,7 5,11 -2,1 -4,1 -6,2 -8,7 -16,14 -24,22 -1,5 -2,11 -4,17 6,5 12,10 18,15 10,4 20,7 31,10 2,6 4,12 7,17 1,3 3,5 5,7 -1,3 -2,6 -3,9 0,3 0,7 0,11 0,5 0,10 -1,15 0,5 -1,10 -2,15 -1,3 -3,6 -4,9 -4,1 -7,2 -11,3 -3,-3 -7,-7 -10,-10 -4,-3 -8,-7 -12,-11 -3,0 -6,-1 -9,-1 -1,-1 -3,-1 -5,-1 -4,2 -7,5 -11,7 -1,2 -2,4 -3,6 0,5 0,9 0,14 -1,3 -2,7 -4,10 -5,2 -11,4 -16,5 -7,3 -13,6 -20,9 -4,4 -8,8 -12,12 0,4 0,9 0,14 2,5 4,11 5,16 1,3 1,6 1,9 -2,2 -3,4 -5,6 -8,3 -16,5 -23,7 -7,0 -13,1 -19,1 -1,-2 -1,-4 -2,-6 -4,-7 -8,-13 -12,-19 -4,-2 -8,-4 -12,-6 -3,2 -7,4 -11,5 -2,3 -4,5 -7,8 -5,1 -10,2 -15,3 -6,1 -12,2 -18,3 -5,1 -9,2 -13,3 -3,5 -6,11 -9,17 -2,7 -5,15 -7,23 0,7 -1,14 -1,21 2,8 3,17 5,25 -1,3 -2,7 -3,11 -5,2 -9,4 -14,6 -3,2 -6,3 -9,5 -1,0 -2,1 -4,2 -3,3 -6,5 -10,8 -4,3 -9,5 -14,7 -3,3 -7,5 -10,8 -7,0 -14,1 -20,2 -5,-2 -10,-3 -14,-4 -3,-5 -5,-9 -7,-14 -4,-4 -8,-8 -11,-12 -7,-3 -13,-5 -20,-7 -5,1 -10,1 -15,1 -2,0 -3,0 -4,0 -4,2 -9,4 -13,6 -6,3 -12,6 -19,10 -6,1 -12,2 -19,3 -5,-1 -11,-2 -16,-3 -3,-2 -5,-5 -7,-7 -5,-3 -9,-6 -13,-9 -8,2 -16,3 -24,4 -1,1 -3,2 -4,4 -4,4 -8,7 -12,11 -5,4 -9,7 -13,11 -5,2 -9,5 -13,7 -3,6 -7,11 -10,17 -3,8 -6,16 -8,24 -1,5 -3,9 -4,14 -1,2 -3,5 -5,7 -3,0 -6,-1 -9,-1 -2,-2 -5,-5 -7,-7 -1,-4 -2,-7 -3,-11 -1,-7 -3,-14 -4,-20 0,-6 0,-11 0,-17 0,-3 -1,-7 -1,-10 2,-3 4,-6 7,-8 3,-5 5,-9 8,-13 1,-3 1,-6 2,-10 -1,-3 -2,-6 -3,-10 -3,0 -5,0 -8,0 -1,0 -1,0 -2,0 -4,1 -7,2 -10,4 -3,-1 -6,-1 -8,-1 0,-3 -1,-5 -1,-8 0,-3 0,-7 0,-10 -1,-5 -2,-10 -3,-15 -1,-1 -3,-3 -5,-5 -5,0 -9,-1 -14,-2 -6,0 -11,-1 -17,-2 -4,-2 -7,-4 -11,-7 -3,-2 -7,-4 -10,-6 -6,-3 -13,-7 -19,-10 -7,-4 -15,-8 -22,-12 -6,-2 -11,-3 -17,-4 -9,1 -17,2 -26,3 -1,0 -2,1 -3,1 -3,1 -5,3 -8,4 -3,2 -6,3 -9,4 -6,1 -11,2 -17,3 -8,-1 -16,-2 -23,-3 -7,1 -13,2 -20,3 0,-1 0,-1 0,-2 -9,-5 -17,-11 -25,-16 -2,0 -5,0 -8,0 -13,1 -26,2 -39,3 -32,-1 -65,-3 -97,-4 -12,-4 -23,-8 -35,-13 0,-7 0,-15 1,-23 4,-11 9,-22 13,-32 -2,-8 -4,-16 -5,-23 -6,-6 -11,-11 -16,-16 7,-5 14,-9 21,-14 1,-9 3,-19 4,-28 -6,-9 -12,-19 -18,-28 2,-11 3,-22 4,-33 24,-21 48,-42 73,-63 27,-24 55,-47 83,-71 32,-14 64,-29 96,-44 6,-5 12,-11 17,-17 1,-2 1,-4 2,-7 0,-2 0,-5 1,-8 -8,-3 -17,-7 -25,-10 -10,0 -19,0 -29,1 -4,-2 -9,-4 -13,-6 7,-13 14,-27 21,-40 19,-26 37,-52 55,-78 0,-3 -1,-5 -2,-8 -2,-7 -4,-13 -6,-20 -10,-7 -20,-14 -30,-21 -2,-11 -5,-21 -8,-31 -1,-11 -2,-22 -3,-33 15,-10 30,-20 45,-30 22,-16 45,-32 68,-49 18,-2 36,-5 54,-8 11,-1 22,-3 33,-4 35,-9 71,-17 106,-26 7,-9 15,-18 22,-27 -1,-3 -2,-7 -4,-10 4,0 7,0 11,-1 7,-2 14,-4 22,-6 5,0 11,0 16,1 6,1 12,2 17,3 5,-1 9,-1 13,-2 4,-4 8,-8 12,-13 4,-4 8,-9 12,-13 5,-5 10,-9 14,-14 9,-4 17,-8 25,-12 6,-2 12,-4 18,-6 5,-2 9,-3 14,-5 0,1 0,3 0,4 2,3 4,5 6,8 2,2 4,4 6,6 2,4 3,8 5,11 -3,5 -5,9 -8,13 -3,3 -7,6 -11,10z"/>
   <path fill="#326040" d="M742 141c-5,6 -9,11 -13,17 -5,5 -10,10 -15,15 -9,4 -18,9 -27,13 -4,5 -9,9 -14,14 -3,7 -7,13 -10,19 0,7 1,13 1,19 3,2 6,4 10,7 1,0 2,1 3,2 4,2 9,4 13,6 6,2 11,5 16,7 4,2 7,4 10,6 2,3 4,6 6,10 6,0 12,1 17,2 5,1 10,2 15,2 4,2 7,4 10,5 0,5 1,9 1,14 0,5 0,11 0,16 2,5 4,10 5,16 5,6 9,12 14,18 2,3 3,6 5,9 4,7 7,13 11,20 2,5 4,10 6,15 2,6 3,12 5,18 0,7 0,13 0,20 0,0 0,1 1,2 1,3 2,7 4,11 2,5 5,10 7,15 2,4 4,8 6,13 4,7 9,15 13,23 6,9 13,18 19,27 4,2 9,5 13,7 2,0 3,1 5,1 4,0 9,0 14,0 3,-2 7,-3 10,-4 5,-6 10,-11 14,-17 3,-1 5,-3 8,-5 3,1 6,2 8,3 7,5 13,11 19,16 5,5 9,10 14,16 11,7 23,15 34,23 2,3 4,5 5,8 0,3 0,6 0,9 -1,2 -1,5 -1,8 -1,3 -2,7 -3,10 0,5 0,10 0,15 1,3 2,6 3,8 2,4 3,7 4,10 1,6 1,12 2,18 0,5 0,11 1,16 0,1 1,2 2,3 1,4 3,8 5,11 3,3 5,6 8,9 5,3 10,7 15,10 2,2 5,4 7,7 -1,6 -2,12 -3,18 2,3 3,7 5,11 -2,0 -4,1 -6,2 -8,7 -16,14 -24,21 -1,6 -2,12 -3,18 6,5 11,10 17,15 10,3 21,6 31,10 2,5 5,11 7,17 2,2 3,4 5,7 -1,3 -2,5 -3,8 0,4 0,8 0,11 0,5 0,10 0,16 -1,5 -2,10 -2,15 -2,3 -3,5 -5,8 -3,1 -7,2 -11,3 -3,-3 -6,-6 -10,-9 -4,-4 -7,-7 -11,-11 -3,-1 -6,-1 -9,-2 -2,0 -4,0 -6,-1 -3,3 -7,5 -11,8 -1,2 -1,4 -2,6 0,4 0,9 0,14 -2,3 -3,6 -4,10 -6,1 -11,3 -17,5 -6,3 -13,6 -19,8 -4,4 -8,8 -12,12 0,5 0,10 0,14 1,6 3,11 5,17 0,3 0,6 0,9 -1,2 -3,4 -5,6 -8,2 -15,4 -23,7 -6,0 -12,0 -19,1 0,-2 -1,-4 -2,-7 -4,-6 -8,-12 -12,-19 -4,-1 -8,-3 -11,-5 -4,1 -8,3 -11,5 -3,2 -5,5 -7,7 -5,1 -11,3 -16,4 -6,1 -12,2 -18,3 -4,0 -9,1 -13,2 -3,6 -6,12 -9,17 -2,8 -4,16 -7,24 0,7 0,14 -1,21 2,8 4,16 5,24 -1,4 -2,8 -3,11 -5,2 -9,4 -14,7 -3,1 -6,3 -9,4 -1,1 -2,2 -3,2 -4,3 -7,6 -10,9 -5,2 -10,4 -15,7 -3,2 -6,5 -10,7 -6,1 -13,1 -20,2 -5,-1 -9,-2 -14,-4 -2,-4 -5,-9 -7,-13 -4,-4 -7,-9 -11,-13 -6,-2 -13,-4 -20,-6 -5,0 -10,1 -15,1 -1,0 -3,0 -4,0 -4,2 -8,4 -13,6 -6,3 -12,6 -18,9 -7,1 -13,3 -19,4 -6,-1 -12,-2 -17,-3 -2,-3 -5,-5 -7,-8 -4,-3 -9,-5 -13,-8 -8,1 -16,2 -23,4 -2,1 -3,2 -5,3 -4,4 -8,8 -12,12 -4,3 -9,7 -13,10 -4,3 -8,5 -13,8 -3,5 -6,11 -10,17 -3,8 -5,16 -8,24 -1,5 -2,9 -3,14 -2,2 -4,4 -6,6 -3,0 -6,0 -9,-1 -2,-2 -4,-4 -6,-6 -1,-4 -2,-8 -3,-12 -2,-6 -3,-13 -5,-20 0,-5 0,-11 0,-16 0,-3 0,-7 -1,-10 2,-3 5,-6 7,-9 3,-4 6,-8 9,-12 0,-3 1,-7 1,-10 -1,-3 -2,-7 -3,-10 -3,0 -5,0 -7,0 -1,0 -2,0 -3,0 -3,1 -6,2 -10,3 -2,0 -5,0 -8,0 0,-3 0,-6 -1,-8 0,-4 0,-7 0,-11 0,-5 -1,-9 -2,-14 -2,-2 -4,-3 -6,-5 -5,-1 -9,-1 -14,-2 -5,-1 -11,-1 -17,-2 -3,-2 -7,-5 -11,-7 -3,-2 -6,-4 -10,-6 -6,-4 -12,-7 -19,-11 -7,-4 -14,-8 -22,-12 -5,-1 -11,-2 -17,-3 -8,1 -17,2 -26,3 -1,0 -2,0 -3,1 -2,1 -5,2 -8,4 -3,1 -6,2 -9,4 -5,1 -11,2 -17,3 -8,-1 -15,-2 -23,-3 -7,1 -13,2 -20,3 0,-1 0,-2 0,-2 -8,-6 -16,-11 -24,-17 -3,0 -6,1 -8,1 -13,1 -27,2 -40,2 -32,-1 -65,-2 -97,-3 -11,-4 -23,-9 -35,-13 1,-8 1,-16 1,-24 4,-10 9,-21 14,-32 -2,-7 -4,-15 -6,-23 -5,-5 -11,-10 -16,-16 7,-4 14,-9 21,-13 1,-9 3,-19 4,-28 -6,-10 -12,-19 -18,-28 2,-11 3,-22 5,-34 24,-21 48,-42 72,-63 28,-23 56,-47 84,-70 32,-15 64,-29 96,-44 5,-6 11,-11 16,-17 1,-2 2,-5 2,-7 0,-3 1,-6 1,-8 -8,-4 -16,-7 -25,-10 -9,0 -19,0 -29,0 -4,-2 -8,-4 -13,-6 7,-13 14,-26 22,-39 18,-26 36,-53 55,-79 -1,-2 -2,-5 -3,-7 -2,-7 -3,-14 -5,-21 -10,-7 -20,-14 -30,-21 -3,-10 -6,-20 -8,-31 -1,-11 -2,-21 -3,-32 14,-10 29,-20 44,-31 23,-16 45,-32 68,-48 18,-3 36,-5 54,-8 11,-2 22,-3 33,-5 36,-8 71,-17 106,-25 8,-9 15,-18 22,-27 -1,-4 -2,-7 -3,-11 3,0 7,0 10,0 8,-2 15,-5 22,-7 6,1 11,1 17,1 5,1 11,3 17,4 4,-1 8,-2 12,-3 4,-4 8,-8 12,-12 4,-4 8,-9 12,-14 5,-4 10,-9 15,-13 8,-4 16,-8 25,-12 6,-2 11,-4 17,-6 5,-2 10,-4 14,-5 0,1 0,2 1,4 2,2 4,5 5,8 2,2 4,4 6,6 2,4 3,7 5,11 -2,4 -5,8 -7,13 -4,3 -8,6 -11,9z"/>
   <path fill="#366545" d="M742 135c-4,5 -9,11 -13,17 -5,5 -10,9 -15,14 -9,5 -17,9 -26,14 -5,4 -10,9 -15,14 -3,6 -6,13 -10,19 1,6 1,13 1,19 4,2 7,4 10,6 1,1 2,2 3,2 5,2 9,4 14,6 5,3 10,5 15,8 4,2 7,4 11,6 1,3 3,6 5,9 6,1 12,2 18,3 5,1 10,1 15,2 3,2 6,3 10,5 0,4 0,9 0,13 0,6 0,11 1,17 1,5 3,10 4,15 5,6 10,12 14,18 2,4 4,7 5,10 4,6 8,13 11,19 2,5 5,10 7,15 1,6 3,13 4,19 0,6 0,13 0,19 0,1 1,2 1,2 1,4 3,8 4,11 3,5 5,10 8,15 1,4 3,9 5,13 4,8 9,16 14,23 6,10 12,19 18,28 5,2 9,4 14,6 1,1 3,1 4,2 5,0 9,-1 14,-1 4,-1 7,-2 11,-3 4,-6 9,-12 13,-17 3,-2 5,-3 8,-5 3,1 6,2 9,3 6,5 12,10 19,15 4,6 8,11 13,16 11,8 23,16 35,23 1,3 3,6 4,9 0,3 0,5 0,8 0,3 -1,6 -1,8 -1,4 -2,7 -2,11 0,5 0,10 0,15 1,3 2,5 2,8 2,3 3,6 5,9 0,7 1,13 1,19 0,5 1,10 1,15 0,1 1,3 2,4 2,4 4,7 6,11 2,3 5,6 7,9 5,3 10,6 15,9 3,3 5,5 7,7 -1,6 -2,12 -2,18 1,4 3,7 4,11 -2,1 -4,2 -6,2 -8,7 -16,15 -24,22 -1,6 -2,11 -3,17 6,5 12,10 17,16 11,3 21,6 31,9 3,6 5,12 7,18 2,2 4,4 5,6 -1,3 -2,6 -2,9 0,4 0,7 0,11 -1,5 -1,10 -1,15 -1,5 -1,10 -2,16 -2,2 -3,5 -4,8 -4,1 -8,2 -11,3 -4,-3 -7,-6 -10,-10 -4,-3 -8,-7 -12,-11 -3,0 -6,-1 -9,-1 -2,0 -4,-1 -5,-1 -4,2 -8,5 -11,8 -1,2 -2,4 -3,5 0,5 0,10 0,14 -1,4 -3,7 -4,10 -6,2 -11,4 -16,6 -7,2 -14,5 -20,8 -4,4 -8,8 -12,12 0,5 0,9 0,14 2,5 3,11 5,16 0,3 0,7 1,10 -2,2 -4,4 -6,5 -7,3 -15,5 -23,7 -6,1 -12,1 -18,1 -1,-2 -2,-4 -2,-6 -4,-6 -8,-13 -12,-19 -4,-2 -8,-4 -12,-6 -4,2 -8,4 -11,6 -2,2 -5,4 -7,7 -5,1 -10,2 -15,4 -7,0 -13,1 -19,2 -4,1 -9,2 -13,3 -3,6 -6,11 -8,17 -3,8 -5,16 -7,23 -1,7 -1,15 -1,22 1,8 3,16 5,24 -2,4 -3,7 -4,11 -4,2 -9,4 -13,6 -3,2 -6,3 -9,5 -2,1 -3,1 -4,2 -3,3 -7,6 -10,8 -5,3 -10,5 -14,7 -4,3 -7,5 -10,8 -7,0 -14,1 -21,2 -4,-1 -9,-3 -14,-4 -2,-5 -4,-9 -7,-14 -3,-4 -7,-8 -11,-12 -6,-2 -13,-4 -20,-7 -5,1 -10,1 -15,2 -1,0 -2,0 -3,0 -5,1 -9,3 -13,5 -7,4 -13,7 -19,10 -6,1 -13,2 -19,3 -6,-1 -11,-2 -17,-3 -2,-2 -5,-5 -7,-7 -4,-3 -8,-6 -12,-8 -8,1 -16,2 -24,3 -2,1 -3,3 -4,4 -4,4 -9,8 -13,11 -4,4 -8,7 -13,11 -4,2 -8,5 -12,7 -4,6 -7,12 -10,17 -3,8 -6,16 -9,25 -1,4 -2,9 -3,13 -2,3 -4,5 -5,7 -3,0 -7,-1 -10,-1 -2,-2 -4,-5 -6,-7 -1,-4 -2,-7 -3,-11 -2,-7 -3,-13 -4,-20 0,-5 0,-11 0,-16 -1,-4 -1,-7 -2,-11 3,-3 5,-5 7,-8 3,-4 6,-8 9,-12 0,-4 1,-7 1,-10 -1,-4 -2,-7 -3,-10 -2,0 -5,0 -7,0 -1,0 -2,0 -3,0 -3,1 -6,2 -9,3 -3,0 -6,-1 -9,-1 0,-2 0,-5 0,-8 0,-3 0,-7 0,-10 -1,-5 -2,-10 -3,-14 -2,-2 -4,-4 -6,-5 -4,-1 -9,-2 -13,-2 -6,-1 -12,-2 -17,-2 -4,-3 -8,-5 -11,-7 -4,-2 -7,-5 -10,-7 -7,-3 -13,-7 -19,-10 -8,-4 -15,-8 -22,-12 -6,-1 -12,-2 -17,-3 -9,0 -18,1 -27,2 -1,1 -1,1 -2,1 -3,2 -6,3 -8,5 -3,1 -6,2 -9,3 -6,1 -12,2 -18,3 -7,-1 -15,-1 -23,-2 -6,1 -13,1 -19,2 0,0 -1,-1 -1,-2 -8,-5 -16,-11 -24,-16 -3,0 -5,0 -8,0 -13,1 -26,2 -40,3 -32,-1 -64,-2 -97,-4 -11,-4 -23,-8 -34,-12 0,-8 0,-16 0,-24 5,-11 9,-21 14,-32 -2,-8 -4,-15 -6,-23 -5,-5 -10,-11 -16,-16 7,-5 14,-9 21,-13 2,-10 3,-19 5,-29 -6,-9 -12,-18 -18,-28 1,-11 2,-22 4,-33 24,-21 48,-42 72,-63 28,-24 56,-47 84,-70 32,-15 64,-30 96,-45 5,-5 11,-11 17,-17 0,-2 1,-4 1,-6 1,-3 1,-6 1,-9 -8,-3 -16,-6 -24,-10 -10,0 -20,1 -29,1 -5,-2 -9,-4 -14,-6 8,-13 15,-26 22,-40 18,-26 37,-52 55,-78 -1,-3 -2,-5 -2,-8 -2,-6 -4,-13 -6,-20 -10,-7 -20,-14 -30,-21 -3,-10 -5,-21 -8,-31 -1,-11 -2,-22 -3,-32 15,-11 29,-21 44,-31 23,-16 45,-32 68,-48 18,-3 36,-6 54,-8 11,-2 23,-4 34,-5 35,-9 70,-17 106,-25 7,-10 14,-19 22,-28 -2,-3 -3,-7 -4,-10 4,0 7,0 11,0 7,-3 14,-5 21,-7 6,0 11,0 17,1 6,1 11,2 17,4 4,-1 8,-2 13,-3 4,-4 8,-8 12,-12 4,-5 7,-9 11,-14 5,-5 10,-9 15,-14 8,-4 17,-8 25,-12 6,-2 12,-4 18,-6 4,-1 9,-3 13,-5 1,2 1,3 1,4 2,3 4,6 6,8 2,2 4,5 6,7 1,3 3,7 4,11 -2,4 -5,8 -7,12 -4,3 -7,7 -11,10z"/>
   <path fill="#3A6A49" d="M742 128c-4,6 -8,12 -12,17 -5,5 -10,10 -15,15 -9,4 -18,9 -27,13 -5,5 -10,10 -14,14 -4,7 -7,13 -10,19 0,7 0,13 1,19 3,3 6,5 9,7 1,0 2,1 3,2 5,2 9,4 14,6 5,3 11,5 16,7 3,2 6,4 10,6 2,3 4,7 6,10 5,1 11,2 17,2 5,1 10,2 15,3 3,1 7,3 10,4 0,5 0,9 0,14 1,5 1,11 1,16 1,5 3,11 5,16 4,6 9,12 13,18 2,3 4,6 6,10 3,6 7,13 11,19 2,5 4,10 6,15 1,6 3,12 4,18 0,7 0,13 0,20 1,0 1,1 1,2 2,4 3,7 4,11 3,5 5,10 8,15 2,4 3,8 5,13 5,8 9,15 14,23 6,9 12,18 18,27 5,3 9,5 14,7 1,0 3,1 4,1 5,0 10,0 14,0 4,-1 7,-3 11,-4 5,-5 9,-11 14,-17 2,-1 5,-3 7,-4 3,0 6,1 9,2 6,5 13,11 19,16 4,5 9,11 13,16 12,8 23,15 35,23 2,3 3,6 5,9 0,2 -1,5 -1,8 0,2 0,5 -1,8 -1,3 -1,7 -2,10 0,5 0,11 0,16 1,2 2,5 3,8 1,3 3,6 4,9 0,6 1,12 2,19 0,5 0,10 0,15 1,1 1,2 2,3 2,4 4,8 6,11 2,4 5,7 7,10 5,3 11,6 16,9 2,2 4,5 6,7 0,6 -1,12 -2,18 1,3 3,7 5,11 -2,0 -4,1 -6,2 -8,7 -16,14 -24,21 -2,6 -3,12 -4,18 6,5 12,10 18,15 10,3 20,7 30,10 3,6 5,11 8,17 1,2 3,5 5,7 -1,3 -2,6 -3,8 0,4 0,8 0,11 0,6 -1,11 -1,16 0,5 -1,10 -2,15 -1,3 -3,6 -4,8 -4,2 -7,3 -11,4 -3,-3 -7,-7 -10,-10 -4,-4 -8,-7 -12,-11 -3,0 -6,-1 -9,-2 -1,0 -3,0 -5,-1 -4,3 -7,6 -11,8 -1,2 -2,4 -3,6 0,5 0,9 0,14 -1,3 -2,6 -4,10 -5,2 -11,3 -16,5 -7,3 -13,6 -20,9 -4,4 -8,8 -12,12 0,4 0,9 0,13 2,6 4,11 5,17 1,3 1,6 1,9 -2,2 -4,4 -5,6 -8,2 -16,5 -23,7 -7,0 -13,1 -19,1 -1,-2 -1,-4 -2,-6 -4,-7 -8,-13 -12,-19 -4,-2 -8,-4 -12,-6 -4,2 -7,3 -11,5 -2,3 -4,5 -7,7 -5,2 -10,3 -15,4 -6,1 -12,2 -18,3 -5,1 -9,2 -14,2 -2,6 -5,12 -8,17 -2,8 -5,16 -7,24 0,7 -1,14 -1,21 2,8 3,16 5,24 -1,4 -2,8 -3,11 -5,3 -10,5 -14,7 -3,1 -6,3 -9,4 -1,1 -3,2 -4,3 -3,2 -6,5 -10,8 -5,2 -9,5 -14,7 -3,2 -7,5 -10,7 -7,1 -14,2 -21,2 -4,-1 -9,-2 -13,-3 -3,-5 -5,-9 -8,-14 -3,-4 -7,-8 -10,-13 -7,-2 -14,-4 -20,-6 -5,0 -10,1 -16,1 -1,0 -2,0 -3,0 -4,2 -9,4 -13,6 -6,3 -13,6 -19,9 -6,2 -13,3 -19,4 -5,-1 -11,-2 -17,-3 -2,-3 -4,-5 -7,-8 -4,-2 -8,-5 -12,-8 -8,1 -16,3 -24,4 -1,1 -3,2 -4,3 -4,4 -8,8 -12,12 -5,4 -9,7 -13,11 -5,2 -9,5 -13,7 -3,6 -7,11 -10,17 -3,8 -6,16 -9,24 -1,5 -2,9 -3,14 -1,2 -3,4 -5,7 -3,-1 -6,-1 -9,-1 -3,-3 -5,-5 -7,-7 -1,-4 -2,-8 -3,-11 -1,-7 -3,-14 -4,-20 0,-6 0,-11 0,-17 -1,-3 -1,-7 -1,-10 2,-3 4,-6 7,-9 2,-4 5,-8 8,-12 1,-3 1,-7 2,-10 -1,-3 -3,-6 -4,-10 -2,0 -4,0 -7,0 -1,0 -2,0 -2,0 -4,1 -7,2 -10,3 -3,0 -6,0 -8,0 -1,-3 -1,-6 -1,-8 0,-4 0,-7 0,-11 -1,-4 -2,-9 -3,-14 -2,-1 -4,-3 -5,-5 -5,0 -10,-1 -14,-2 -6,0 -11,-1 -17,-2 -4,-2 -7,-4 -11,-7 -3,-2 -7,-4 -10,-6 -6,-4 -13,-7 -19,-11 -7,-4 -15,-8 -22,-12 -6,-1 -11,-2 -17,-3 -9,1 -18,2 -26,3 -1,0 -2,1 -3,1 -3,1 -5,3 -8,4 -3,1 -6,3 -9,4 -6,1 -12,2 -17,3 -8,-1 -16,-2 -24,-3 -6,1 -13,2 -19,3 0,-1 0,-1 -1,-2 -8,-6 -16,-11 -24,-17 -2,1 -5,1 -8,1 -13,1 -26,2 -39,3 -33,-2 -65,-3 -97,-4 -12,-4 -23,-9 -35,-13 0,-8 0,-16 0,-23 5,-11 10,-22 14,-33 -2,-7 -4,-15 -6,-22 -5,-6 -10,-11 -15,-17 7,-4 14,-8 21,-13 1,-9 2,-19 4,-28 -6,-10 -12,-19 -18,-28 1,-11 3,-22 4,-33 24,-21 48,-43 72,-64 28,-23 56,-46 84,-70 32,-14 64,-29 96,-44 6,-6 11,-11 17,-17 1,-2 1,-4 2,-7 0,-3 0,-5 1,-8 -9,-4 -17,-7 -25,-10 -10,0 -19,0 -29,0 -4,-2 -9,-4 -13,-5 7,-14 14,-27 21,-40 19,-26 37,-52 55,-79 -1,-2 -1,-4 -2,-7 -2,-7 -4,-14 -6,-20 -10,-7 -20,-14 -30,-21 -2,-11 -5,-21 -8,-32 -1,-10 -2,-21 -3,-32 15,-10 30,-20 44,-30 23,-16 46,-33 68,-49 19,-2 37,-5 55,-8 11,-1 22,-3 33,-5 35,-8 71,-16 106,-25 7,-9 15,-18 22,-27 -1,-4 -3,-7 -4,-10 4,0 7,-1 11,-1 7,-2 14,-4 22,-7 5,1 11,1 16,1 6,2 12,3 17,4 4,-1 9,-2 13,-3 4,-4 8,-8 12,-12 4,-4 8,-9 12,-13 5,-5 9,-9 14,-14 9,-4 17,-8 25,-12 6,-2 12,-4 18,-6 5,-2 9,-4 14,-5 0,1 0,3 0,4 2,3 4,5 6,8 2,2 4,4 6,6 1,4 3,8 5,11 -3,4 -5,9 -8,13 -3,3 -7,6 -11,9z"/>
   <path fill="#3E6F4E" d="M742 122c-4,6 -8,11 -12,17 -5,5 -10,10 -15,15 -9,4 -18,8 -27,13 -5,5 -9,9 -14,14 -3,6 -7,13 -10,19 0,6 1,13 1,19 3,2 6,4 9,6 1,1 3,2 4,2 4,2 9,5 13,7 6,2 11,5 16,7 3,2 7,4 10,6 2,3 4,6 6,9 6,1 12,2 17,3 5,1 10,1 15,2 4,2 7,3 10,5 0,5 0,9 1,14 0,5 0,10 0,16 2,5 3,10 5,15 5,6 9,13 14,19 1,3 3,6 5,9 4,7 7,13 11,20 2,5 4,10 6,15 2,6 3,12 5,18 0,6 0,13 0,19 0,1 0,2 1,2 1,4 2,8 4,11 2,5 5,10 7,15 2,5 4,9 5,13 5,8 10,16 14,24 6,9 12,18 19,27 4,2 9,4 13,6 2,1 3,1 5,2 4,0 9,0 14,-1 3,-1 7,-2 10,-3 5,-6 9,-11 14,-17 2,-2 5,-3 7,-5 3,1 6,2 9,3 7,5 13,10 19,16 5,5 9,10 13,15 12,8 24,16 35,24 2,2 3,5 5,8 0,3 0,6 0,8 -1,3 -1,6 -2,8 0,4 -1,7 -2,11 0,5 0,10 0,15 1,3 2,6 3,8 1,3 3,6 4,10 1,6 1,12 2,18 0,5 0,10 0,15 1,2 2,3 2,4 2,4 4,7 6,11 3,3 5,6 8,9 5,3 10,6 15,10 2,2 4,4 7,6 -1,6 -2,12 -3,18 2,4 3,8 5,11 -2,1 -4,2 -6,3 -8,7 -16,14 -24,21 -1,6 -2,12 -3,17 5,6 11,11 17,16 10,3 20,6 31,9 2,6 5,12 7,18 2,2 3,4 5,7 -1,2 -2,5 -3,8 0,4 0,7 0,11 0,5 0,10 0,15 -1,5 -2,11 -3,16 -1,3 -2,5 -4,8 -3,1 -7,2 -11,3 -3,-3 -7,-6 -10,-9 -4,-4 -8,-8 -11,-11 -3,-1 -6,-1 -9,-2 -2,0 -4,-1 -6,-1 -3,3 -7,5 -11,8 -1,2 -2,4 -2,6 0,4 0,9 0,13 -2,4 -3,7 -5,10 -5,2 -10,4 -16,6 -6,3 -13,5 -19,8 -4,4 -9,8 -13,12 0,5 0,9 0,14 2,5 4,11 6,16 0,4 0,7 0,10 -2,2 -3,4 -5,6 -8,2 -15,4 -23,6 -6,1 -13,1 -19,2 0,-3 -1,-5 -2,-7 -4,-6 -8,-12 -12,-19 -4,-2 -8,-4 -12,-6 -3,2 -7,4 -11,6 -2,2 -4,5 -6,7 -6,1 -11,3 -16,4 -6,1 -12,2 -18,2 -5,1 -9,2 -13,3 -3,6 -6,11 -9,17 -2,8 -4,16 -7,24 0,7 0,14 -1,21 2,8 4,16 5,24 -1,4 -2,7 -3,11 -5,2 -9,4 -14,6 -3,2 -6,4 -9,5 -1,1 -2,1 -3,2 -4,3 -7,6 -10,9 -5,2 -10,4 -15,6 -3,3 -6,5 -10,8 -7,1 -13,1 -20,2 -5,-1 -9,-3 -14,-4 -2,-4 -5,-9 -7,-13 -4,-5 -7,-9 -11,-13 -7,-2 -13,-4 -20,-6 -5,0 -10,0 -15,1 -1,0 -3,0 -4,0 -4,2 -8,4 -13,6 -6,3 -12,6 -19,9 -6,1 -12,2 -19,4 -5,-1 -11,-2 -16,-4 -3,-2 -5,-4 -7,-7 -4,-3 -9,-5 -13,-8 -8,1 -16,2 -24,3 -1,2 -2,3 -4,4 -4,4 -8,8 -12,12 -4,3 -9,7 -13,10 -4,3 -9,5 -13,8 -3,5 -7,11 -10,16 -3,9 -5,17 -8,25 -1,4 -2,9 -3,13 -2,3 -4,5 -6,7 -3,0 -6,0 -9,-1 -2,-2 -4,-4 -7,-7 -1,-3 -2,-7 -3,-11 -1,-6 -2,-13 -4,-20 0,-5 0,-11 0,-16 0,-4 -1,-7 -1,-11 2,-2 5,-5 7,-8 3,-4 6,-8 8,-12 1,-4 1,-7 2,-10 -1,-4 -2,-7 -3,-10 -3,0 -5,0 -8,0 0,0 -1,0 -2,0 -3,1 -7,2 -10,3 -3,0 -5,0 -8,-1 0,-2 -1,-5 -1,-8 0,-3 0,-7 0,-10 -1,-5 -1,-10 -2,-14 -2,-2 -4,-3 -6,-5 -5,-1 -9,-1 -14,-2 -6,-1 -11,-1 -17,-2 -3,-2 -7,-5 -11,-7 -3,-2 -6,-4 -10,-6 -6,-4 -12,-7 -19,-11 -7,-4 -15,-8 -22,-12 -6,-1 -11,-2 -17,-3 -9,1 -17,2 -26,2 -1,1 -2,1 -3,1 -2,2 -5,3 -8,5 -3,1 -6,2 -9,3 -5,1 -11,2 -17,4 -8,-1 -15,-2 -23,-3 -7,1 -13,2 -20,3 0,-1 0,-2 0,-3 -8,-5 -16,-11 -25,-16 -2,0 -5,0 -7,1 -14,0 -27,1 -40,2 -32,-1 -65,-2 -97,-3 -12,-5 -23,-9 -35,-13 0,-8 1,-16 1,-24 4,-11 9,-21 13,-32 -1,-8 -3,-15 -5,-23 -6,-5 -11,-11 -16,-16 7,-4 14,-9 21,-13 1,-10 3,-19 4,-29 -6,-9 -12,-18 -18,-27 2,-12 3,-23 4,-34 25,-21 49,-42 73,-63 28,-23 56,-47 83,-70 32,-15 64,-30 96,-44 6,-6 12,-12 17,-17 1,-3 1,-5 2,-7 0,-3 1,-6 1,-9 -8,-3 -17,-6 -25,-10 -9,1 -19,1 -29,1 -4,-2 -9,-4 -13,-6 7,-13 14,-26 22,-39 18,-27 36,-53 54,-79 0,-2 -1,-5 -2,-7 -2,-7 -4,-14 -5,-21 -10,-7 -20,-14 -30,-21 -3,-10 -6,-21 -8,-31 -1,-11 -3,-21 -4,-32 15,-10 30,-21 45,-31 22,-16 45,-32 68,-48 18,-3 36,-5 54,-8 11,-2 22,-3 33,-5 36,-8 71,-17 106,-25 8,-9 15,-18 22,-28 -1,-3 -2,-6 -3,-10 3,0 7,0 10,0 7,-2 15,-5 22,-7 5,0 11,1 17,1 5,1 11,3 16,4 5,-1 9,-2 13,-3 4,-4 8,-8 12,-12 4,-5 8,-9 12,-14 5,-4 10,-9 15,-13 8,-5 16,-9 24,-13 6,-2 12,-3 18,-5 5,-2 9,-4 14,-6 0,2 0,3 1,5 1,2 3,5 5,7 2,3 4,5 6,7 2,4 3,7 5,11 -3,4 -5,8 -7,12 -4,4 -8,7 -12,10z"/>
   <path fill="#437552" d="M743 116c-4,5 -9,11 -13,17 -5,4 -10,9 -15,14 -9,5 -18,9 -27,13 -4,5 -9,10 -14,15 -3,6 -7,12 -10,19 1,6 1,12 1,19 3,2 7,4 10,6 1,1 2,1 3,2 4,2 9,4 14,6 5,3 10,5 15,8 4,2 7,4 10,5 2,4 4,7 6,10 6,1 12,2 18,3 5,0 10,1 14,2 4,1 7,3 10,5 1,4 1,9 1,13 0,6 0,11 0,16 2,6 4,11 5,16 5,6 9,12 14,18 2,3 3,7 5,10 4,6 8,13 11,19 2,5 4,10 7,15 1,6 2,12 4,18 0,7 0,13 0,20 0,1 0,1 1,2 1,4 3,7 4,11 2,5 5,10 7,15 2,4 4,9 6,13 4,8 9,16 13,23 7,9 13,19 19,28 4,2 9,4 14,6 1,1 2,1 4,2 5,-1 9,-1 14,-1 4,-1 7,-2 11,-4 4,-5 9,-11 13,-16 3,-2 5,-4 8,-5 3,1 6,2 9,2 6,6 12,11 19,16 4,6 8,11 13,16 11,8 23,16 35,23 1,3 3,6 4,9 0,3 0,5 0,8 0,3 -1,5 -1,8 -1,4 -2,7 -2,11 0,5 0,10 0,15 1,3 1,5 2,8 2,3 3,6 5,9 0,6 1,13 1,19 0,5 0,10 1,15 0,1 1,2 2,4 2,3 4,7 5,11 3,3 5,6 8,9 5,3 10,6 15,9 2,2 5,5 7,7 -1,6 -2,12 -3,18 2,4 4,7 5,11 -2,1 -4,1 -6,2 -8,7 -16,15 -24,22 -1,6 -2,11 -3,17 6,5 11,10 17,15 10,4 21,7 31,10 2,6 5,12 7,17 2,3 3,5 5,7 -1,3 -2,6 -3,9 0,3 0,7 0,11 0,5 0,10 0,15 -1,5 -2,10 -2,15 -2,3 -3,6 -5,9 -3,1 -7,2 -11,3 -3,-3 -6,-6 -10,-10 -3,-3 -7,-7 -11,-11 -3,0 -6,-1 -9,-1 -2,-1 -4,-1 -5,-1 -4,2 -8,5 -11,7 -1,2 -2,4 -3,6 0,5 0,9 0,14 -2,3 -3,7 -4,10 -6,2 -11,4 -17,5 -6,3 -13,6 -19,9 -4,4 -8,8 -12,12 0,4 0,9 0,14 1,5 3,11 5,16 0,3 0,6 0,9 -1,2 -3,4 -5,6 -7,3 -15,5 -23,7 -6,0 -12,1 -18,1 -1,-2 -2,-4 -3,-6 -4,-6 -8,-13 -12,-19 -3,-2 -7,-4 -11,-6 -4,2 -8,4 -11,5 -3,3 -5,5 -7,8 -5,1 -10,2 -16,3 -6,1 -12,2 -18,3 -4,1 -9,2 -13,3 -3,5 -6,11 -9,17 -2,7 -4,15 -6,23 -1,7 -1,14 -1,21 1,8 3,17 4,25 -1,3 -2,7 -3,11 -4,2 -9,4 -14,6 -3,2 -6,3 -8,5 -2,0 -3,1 -4,2 -3,3 -7,5 -10,8 -5,3 -10,5 -14,7 -4,3 -7,5 -10,8 -7,0 -14,1 -21,2 -5,-2 -9,-3 -14,-4 -2,-5 -5,-9 -7,-14 -4,-4 -7,-8 -11,-12 -6,-3 -13,-5 -20,-7 -5,1 -10,1 -15,1 -1,0 -2,0 -4,0 -4,2 -8,4 -12,6 -7,3 -13,6 -19,10 -7,1 -13,2 -19,3 -6,-1 -11,-2 -17,-3 -2,-2 -5,-5 -7,-7 -4,-3 -8,-6 -13,-9 -7,2 -15,3 -23,4 -2,1 -3,2 -5,4 -4,4 -8,7 -12,11 -4,4 -8,7 -13,11 -4,2 -8,5 -13,7 -3,6 -6,11 -10,17 -2,8 -5,16 -8,24 -1,5 -2,9 -3,14 -2,2 -4,5 -5,7 -4,0 -7,-1 -10,-1 -2,-2 -4,-5 -6,-7 -1,-4 -2,-7 -3,-11 -2,-7 -3,-13 -5,-20 0,-6 0,-11 0,-17 0,-3 0,-7 -1,-10 3,-3 5,-6 7,-8 3,-5 6,-9 9,-13 0,-3 1,-6 1,-10 -1,-3 -2,-6 -3,-10 -2,0 -5,0 -7,0 -1,0 -2,0 -3,0 -3,1 -6,3 -10,4 -2,-1 -5,-1 -8,-1 0,-3 0,-5 0,-8 0,-3 0,-7 0,-10 -1,-5 -2,-10 -3,-15 -2,-1 -4,-3 -6,-4 -4,-1 -9,-2 -14,-2 -5,-1 -11,-2 -16,-3 -4,-2 -8,-4 -11,-6 -4,-3 -7,-5 -10,-7 -7,-3 -13,-7 -19,-10 -8,-4 -15,-8 -23,-12 -5,-2 -11,-3 -17,-4 -8,1 -17,2 -26,3 -1,0 -2,1 -3,1 -2,1 -5,3 -7,4 -3,2 -6,3 -9,4 -6,1 -12,2 -18,3 -7,-1 -15,-2 -23,-3 -6,1 -13,2 -19,3 -1,-1 -1,-1 -1,-2 -8,-5 -16,-11 -24,-16 -3,0 -6,0 -8,0 -13,1 -26,2 -40,3 -32,-1 -64,-3 -97,-4 -11,-4 -23,-8 -34,-13 0,-7 0,-15 0,-23 5,-11 9,-22 14,-32 -2,-8 -4,-16 -6,-23 -5,-6 -11,-11 -16,-16 7,-5 14,-9 21,-14 2,-9 3,-19 4,-28 -6,-9 -12,-19 -17,-28 1,-11 2,-22 4,-33 24,-21 48,-42 72,-63 28,-24 56,-47 84,-71 32,-14 64,-29 96,-44 5,-5 11,-11 17,-17 0,-2 1,-4 1,-6 1,-3 1,-6 1,-9 -8,-3 -16,-7 -24,-10 -10,0 -20,0 -29,1 -5,-2 -9,-4 -14,-6 7,-13 15,-27 22,-40 18,-26 36,-52 55,-78 -1,-3 -2,-5 -2,-8 -2,-7 -4,-13 -6,-20 -10,-7 -20,-14 -30,-21 -3,-11 -5,-21 -8,-31 -1,-11 -2,-22 -3,-33 14,-10 29,-20 44,-30 23,-16 45,-32 68,-49 18,-2 36,-5 54,-8 11,-1 22,-3 34,-4 35,-9 70,-17 105,-26 8,-9 15,-18 23,-27 -2,-3 -3,-7 -4,-10 3,0 7,0 10,-1 8,-2 15,-4 22,-6 6,0 11,0 17,1 5,1 11,2 17,3 4,-1 8,-1 12,-2 5,-4 9,-8 13,-12 3,-5 7,-10 11,-14 5,-5 10,-9 15,-14 8,-4 16,-8 25,-12 6,-2 12,-4 18,-6 4,-2 9,-3 13,-5 0,1 1,3 1,4 2,3 4,5 6,8 2,2 3,4 5,6 2,4 4,8 5,11 -2,5 -5,9 -7,13 -4,3 -8,6 -11,10z"/>
   <path fill="#477A57" d="M743 109c-4,6 -8,12 -13,17 -5,5 -9,10 -14,15 -9,4 -18,9 -27,13 -5,5 -10,10 -15,14 -3,7 -6,13 -10,19 1,7 1,13 2,19 3,2 6,4 9,7 1,0 2,1 3,2 5,2 9,4 14,6 5,2 10,5 16,7 3,2 6,4 10,6 2,3 4,6 5,10 6,1 12,1 18,2 5,1 10,2 15,2 3,2 6,4 10,5 0,5 0,9 0,14 0,5 1,11 1,16 1,5 3,10 5,16 4,6 9,12 13,18 2,3 4,6 5,9 4,7 8,13 11,20 3,5 5,10 7,15 1,6 3,12 4,18 0,7 0,13 0,20 0,0 1,1 1,2 1,3 3,7 4,11 3,5 5,10 8,15 1,4 3,8 5,13 5,7 9,15 14,23 6,9 12,18 18,27 5,2 9,5 14,7 1,0 3,1 4,1 5,0 10,0 14,0 4,-2 7,-3 11,-4 4,-6 9,-11 14,-17 2,-1 5,-3 7,-5 3,1 6,2 9,3 6,5 13,11 19,16 4,5 9,10 13,16 12,7 23,15 35,23 1,3 3,6 5,8 -1,3 -1,6 -1,9 0,2 -1,5 -1,8 -1,3 -1,7 -2,10 0,5 0,10 0,15 1,3 2,6 3,8 1,4 2,7 4,10 0,6 1,12 1,18 1,5 1,11 1,16 1,1 1,2 2,3 2,4 4,8 6,11 2,3 5,6 7,9 5,4 10,7 15,10 3,2 5,4 7,7 -1,6 -1,12 -2,18 1,3 3,7 4,11 -2,0 -4,1 -5,2 -8,7 -17,14 -25,21 -1,6 -2,12 -3,18 6,5 12,10 18,15 10,3 20,6 30,10 3,5 5,11 8,17 1,2 3,4 4,7 -1,3 -1,5 -2,8 0,4 0,8 0,11 -1,5 -1,10 -1,16 -1,5 -1,10 -2,15 -1,3 -3,6 -4,8 -4,1 -8,2 -11,4 -4,-4 -7,-7 -10,-10 -4,-4 -8,-7 -12,-11 -3,-1 -6,-1 -9,-2 -2,0 -3,0 -5,-1 -4,3 -8,5 -11,8 -1,2 -2,4 -3,6 0,4 0,9 0,14 -1,3 -3,6 -4,10 -5,1 -11,3 -16,5 -7,3 -13,6 -20,8 -4,4 -8,8 -12,13 0,4 0,9 0,13 2,6 3,11 5,17 0,3 1,6 1,9 -2,2 -4,4 -5,6 -8,2 -16,4 -24,7 -6,0 -12,0 -18,1 -1,-2 -2,-4 -2,-7 -4,-6 -8,-12 -12,-19 -4,-1 -8,-3 -12,-5 -4,1 -7,3 -11,5 -2,2 -5,5 -7,7 -5,1 -10,3 -15,4 -6,1 -12,2 -19,3 -4,1 -8,1 -13,2 -3,6 -5,12 -8,17 -3,8 -5,16 -7,24 0,7 -1,14 -1,21 1,8 3,16 5,24 -1,4 -2,8 -4,11 -4,2 -9,5 -13,7 -3,1 -6,3 -9,4 -1,1 -3,2 -4,2 -3,3 -7,6 -10,9 -5,2 -9,4 -14,7 -4,2 -7,5 -10,7 -7,1 -14,1 -21,2 -4,-1 -9,-2 -13,-4 -3,-4 -5,-9 -8,-13 -3,-4 -7,-9 -10,-13 -7,-2 -14,-4 -20,-6 -6,0 -11,1 -16,1 -1,0 -2,0 -3,0 -5,2 -9,4 -13,6 -6,3 -13,6 -19,9 -6,1 -13,3 -19,4 -6,-1 -11,-2 -17,-3 -2,-3 -4,-5 -7,-8 -4,-2 -8,-5 -12,-8 -8,1 -16,2 -24,4 -1,1 -3,2 -4,3 -4,4 -8,8 -12,12 -5,3 -9,7 -14,10 -4,3 -8,5 -12,8 -4,5 -7,11 -10,17 -3,8 -6,16 -9,24 -1,5 -2,9 -3,14 -2,2 -3,4 -5,6 -3,0 -6,0 -10,-1 -2,-2 -4,-4 -6,-6 -1,-4 -2,-8 -3,-11 -1,-7 -3,-14 -4,-21 0,-5 0,-10 0,-16 -1,-3 -1,-7 -1,-10 2,-3 4,-6 6,-9 3,-4 6,-8 9,-12 0,-3 1,-7 1,-10 -1,-3 -2,-7 -3,-10 -2,0 -5,0 -7,0 -1,0 -2,0 -3,0 -3,1 -6,2 -9,3 -3,0 -6,0 -9,0 0,-3 0,-6 0,-8 0,-4 0,-7 0,-11 -1,-5 -2,-9 -3,-14 -2,-2 -4,-3 -6,-5 -4,-1 -9,-1 -13,-2 -6,-1 -12,-1 -17,-2 -4,-2 -7,-5 -11,-7 -4,-2 -7,-4 -10,-6 -7,-4 -13,-7 -19,-11 -8,-4 -15,-8 -22,-12 -6,-1 -12,-2 -17,-3 -9,1 -18,2 -27,3 0,0 -1,0 -2,1 -3,1 -6,3 -8,4 -3,1 -6,2 -9,4 -6,1 -12,2 -17,3 -8,-1 -16,-2 -24,-3 -6,1 -13,2 -19,3 0,-1 -1,-2 -1,-2 -8,-6 -16,-11 -24,-17 -3,0 -5,1 -8,1 -13,1 -26,2 -39,2 -33,-1 -65,-2 -97,-3 -12,-4 -24,-9 -35,-13 0,-8 0,-16 0,-24 5,-10 9,-21 14,-32 -2,-7 -4,-15 -6,-22 -5,-6 -10,-11 -16,-17 7,-4 14,-9 21,-13 2,-9 3,-19 5,-28 -6,-10 -12,-19 -18,-28 1,-11 3,-22 4,-33 24,-22 48,-43 72,-64 28,-23 56,-47 84,-70 32,-15 64,-29 96,-44 6,-6 11,-11 17,-17 0,-2 1,-5 2,-7 0,-3 0,-6 1,-8 -9,-4 -17,-7 -25,-10 -10,0 -20,0 -29,0 -5,-2 -9,-4 -13,-6 7,-13 14,-26 21,-39 18,-26 37,-53 55,-79 -1,-2 -1,-5 -2,-7 -2,-7 -4,-14 -6,-21 -10,-7 -20,-14 -30,-21 -3,-10 -5,-20 -8,-31 -1,-11 -2,-21 -3,-32 15,-10 30,-20 44,-31 23,-16 46,-32 68,-48 18,-3 36,-5 55,-8 11,-2 22,-3 33,-5 35,-8 70,-17 106,-25 7,-9 14,-18 22,-27 -1,-4 -3,-7 -4,-10 4,-1 7,-1 11,-1 7,-2 14,-5 21,-7 6,1 12,1 17,1 6,1 11,3 17,4 4,-1 8,-2 13,-3 4,-4 8,-8 12,-12 4,-4 8,-9 11,-14 5,-4 10,-9 15,-13 8,-4 17,-8 25,-12 6,-2 12,-4 18,-6 4,-2 9,-4 14,-5 0,1 0,2 0,4 2,2 4,5 6,8 2,2 4,4 6,6 1,4 3,7 5,11 -3,4 -5,8 -8,13 -4,3 -7,6 -11,9z"/>
   <path fill="#4B7F5B" d="M743 103c-4,5 -8,11 -12,17 -5,5 -10,10 -15,14 -9,5 -18,9 -27,14 -5,4 -10,9 -14,14 -4,6 -7,13 -10,19 0,6 0,13 1,19 3,2 6,4 9,6 1,1 2,2 3,2 5,2 10,4 14,7 5,2 11,4 16,7 3,2 7,4 10,6 2,3 4,6 6,9 6,1 11,2 17,3 5,1 10,1 15,2 3,2 7,3 10,5 0,4 0,9 0,13 1,6 1,11 1,17 2,5 3,10 5,15 4,6 9,12 14,19 1,3 3,6 5,9 3,6 7,13 11,19 2,5 4,10 6,15 2,6 3,13 4,19 0,6 0,13 0,19 1,1 1,2 1,2 2,4 3,8 5,11 2,5 5,10 7,15 2,5 4,9 5,13 5,8 9,16 14,23 6,10 12,19 18,28 5,2 10,4 14,6 2,1 3,1 4,2 5,0 10,-1 15,-1 3,-1 7,-2 10,-3 5,-6 9,-12 14,-17 2,-2 5,-3 7,-5 3,1 6,2 9,3 7,5 13,10 19,15 5,6 9,11 13,16 12,8 24,16 35,23 2,3 3,6 5,9 0,3 0,6 -1,8 0,3 0,6 -1,8 0,4 -1,7 -2,11 0,5 0,10 0,15 1,3 2,5 3,8 1,3 3,6 4,9 1,7 1,13 2,19 0,5 0,10 0,15 1,1 2,3 2,4 2,4 4,7 6,11 2,3 5,6 7,9 6,3 11,6 16,9 2,3 4,5 7,7 -1,6 -2,12 -3,18 2,4 3,8 5,11 -2,1 -4,2 -6,2 -8,8 -16,15 -24,22 -1,6 -2,12 -4,17 6,5 12,10 18,16 10,3 20,6 31,9 2,6 4,12 7,18 1,2 3,4 5,6 -1,3 -2,6 -3,9 0,4 0,7 0,11 0,5 0,10 -1,15 0,5 -1,10 -2,16 -1,2 -3,5 -4,8 -4,1 -7,2 -11,3 -3,-3 -7,-6 -10,-9 -4,-4 -8,-8 -12,-12 -3,0 -6,-1 -9,-1 -1,0 -3,-1 -5,-1 -4,2 -7,5 -11,8 -1,2 -2,4 -3,6 0,4 0,9 0,13 -1,4 -2,7 -4,10 -5,2 -11,4 -16,6 -7,2 -13,5 -20,8 -4,4 -8,8 -12,12 0,5 0,9 0,14 2,5 4,11 5,16 1,3 1,7 1,10 -2,2 -3,4 -5,5 -8,3 -16,5 -23,7 -7,1 -13,1 -19,1 -1,-2 -1,-4 -2,-6 -4,-6 -8,-13 -12,-19 -4,-2 -8,-4 -12,-6 -3,2 -7,4 -11,6 -2,2 -4,4 -7,7 -5,1 -10,2 -15,4 -6,0 -12,1 -18,2 -5,1 -9,2 -13,3 -3,6 -6,11 -9,17 -2,8 -5,16 -7,23 0,8 -1,15 -1,22 2,8 3,16 5,24 -1,4 -2,7 -3,11 -5,2 -9,4 -14,6 -3,2 -6,3 -9,5 -1,1 -2,1 -4,2 -3,3 -6,6 -10,9 -4,2 -9,4 -14,6 -3,3 -7,5 -10,8 -7,0 -14,1 -20,2 -5,-1 -10,-3 -14,-4 -3,-4 -5,-9 -7,-14 -4,-4 -8,-8 -11,-12 -7,-2 -13,-4 -20,-7 -5,1 -10,1 -15,2 -2,0 -3,0 -4,0 -4,1 -9,3 -13,5 -6,4 -12,7 -19,10 -6,1 -12,2 -19,4 -5,-2 -11,-3 -16,-4 -3,-2 -5,-5 -7,-7 -5,-3 -9,-6 -13,-8 -8,1 -16,2 -24,3 -1,1 -3,3 -4,4 -4,4 -8,8 -12,12 -5,3 -9,6 -13,10 -5,2 -9,5 -13,7 -3,6 -7,12 -10,17 -3,8 -6,16 -8,25 -1,4 -3,9 -4,13 -1,3 -3,5 -5,7 -3,0 -6,-1 -9,-1 -2,-2 -5,-5 -7,-7 -1,-4 -2,-7 -3,-11 -1,-7 -3,-13 -4,-20 0,-5 0,-11 0,-16 0,-4 -1,-7 -1,-11 2,-3 4,-5 7,-8 3,-4 5,-8 8,-12 1,-4 1,-7 2,-10 -1,-4 -2,-7 -3,-10 -3,0 -5,0 -8,0 -1,0 -1,0 -2,0 -4,1 -7,2 -10,3 -3,0 -6,-1 -8,-1 0,-2 -1,-5 -1,-8 0,-3 0,-7 0,-10 -1,-5 -2,-10 -3,-14 -1,-2 -3,-4 -5,-5 -5,-1 -9,-2 -14,-2 -6,-1 -11,-2 -17,-2 -4,-3 -7,-5 -11,-7 -3,-2 -7,-5 -10,-7 -6,-3 -13,-7 -19,-10 -7,-4 -15,-8 -22,-12 -6,-1 -11,-2 -17,-3 -9,0 -17,1 -26,2 -1,1 -2,1 -3,1 -3,2 -5,3 -8,5 -3,1 -6,2 -9,3 -6,1 -11,2 -17,3 -8,-1 -16,-1 -23,-2 -7,1 -13,1 -20,2 0,0 0,-1 0,-2 -9,-5 -17,-11 -25,-16 -2,0 -5,0 -8,0 -13,1 -26,2 -39,3 -32,-1 -65,-2 -97,-4 -12,-4 -23,-8 -35,-12 0,-8 0,-16 1,-24 4,-11 9,-21 13,-32 -2,-8 -4,-15 -5,-23 -6,-5 -11,-11 -16,-16 7,-5 14,-9 21,-13 1,-10 3,-19 4,-29 -6,-9 -12,-18 -18,-28 2,-11 3,-22 4,-33 24,-21 48,-42 73,-63 27,-24 55,-47 83,-70 32,-15 64,-30 96,-45 6,-5 12,-11 17,-17 1,-2 1,-4 2,-6 0,-3 0,-6 1,-9 -8,-3 -17,-6 -25,-10 -10,0 -19,1 -29,1 -4,-2 -9,-4 -13,-6 7,-13 14,-26 21,-40 19,-26 37,-52 55,-78 0,-3 -1,-5 -2,-8 -2,-6 -4,-13 -6,-20 -10,-7 -20,-14 -30,-21 -2,-10 -5,-21 -8,-31 -1,-11 -2,-22 -3,-32 15,-11 30,-21 45,-31 22,-16 45,-32 68,-48 18,-3 36,-6 54,-8 11,-2 22,-4 33,-5 35,-9 71,-17 106,-25 7,-10 15,-19 22,-28 -1,-3 -2,-7 -4,-10 4,0 7,0 11,0 7,-3 14,-5 22,-7 5,0 11,0 16,1 6,1 12,2 17,4 5,-1 9,-2 13,-3 4,-4 8,-8 12,-12 4,-5 8,-9 12,-14 5,-5 10,-9 14,-14 9,-4 17,-8 25,-12 6,-2 12,-4 18,-6 5,-1 9,-3 14,-5 0,2 0,3 0,4 2,3 4,6 6,8 2,2 4,5 6,7 2,3 3,7 5,11 -3,4 -5,8 -8,12 -3,3 -7,7 -11,10z"/>
   <path fill="#4F8460" d="M744 96c-5,6 -9,12 -13,17 -5,5 -10,10 -15,15 -9,4 -18,9 -27,13 -4,5 -9,10 -14,14 -3,7 -7,13 -10,20 0,6 1,12 1,18 3,3 6,5 10,7 1,0 2,1 3,2 4,2 9,4 13,6 6,3 11,5 16,7 4,2 7,4 10,6 2,3 4,7 6,10 6,1 12,2 17,2 5,1 10,2 15,3 4,1 7,3 10,4 0,5 1,10 1,14 0,5 0,11 0,16 2,5 4,11 5,16 5,6 9,12 14,18 2,3 3,6 5,10 4,6 7,13 11,19 2,5 4,10 6,15 2,6 3,12 5,18 0,7 0,13 0,20 0,0 0,1 1,2 1,4 2,7 4,11 2,5 5,10 7,15 2,4 4,9 6,13 4,8 9,15 13,23 6,9 13,18 19,28 4,2 9,4 13,6 2,0 3,1 5,1 4,0 9,0 14,0 3,-1 7,-3 10,-4 5,-5 10,-11 14,-17 3,-1 5,-3 8,-4 3,0 6,1 8,2 7,6 13,11 19,16 5,5 9,11 14,16 11,8 23,15 34,23 2,3 4,6 5,9 0,2 0,5 0,8 -1,3 -1,5 -1,8 -1,3 -2,7 -3,10 0,6 0,11 0,16 1,2 2,5 3,8 2,3 3,6 4,9 1,6 1,12 2,19 0,5 0,10 1,15 0,1 1,2 2,4 1,3 3,7 5,11 3,3 5,6 8,9 5,3 10,6 15,9 2,2 5,5 7,7 -1,6 -2,12 -3,18 2,3 3,7 5,11 -2,1 -4,1 -6,2 -8,7 -16,14 -24,22 -1,5 -2,11 -3,17 6,5 11,10 17,15 10,3 21,7 31,10 2,6 5,11 7,17 2,2 3,5 5,7 -1,3 -2,6 -3,8 0,4 0,8 0,11 0,6 0,11 0,16 -1,5 -2,10 -2,15 -2,3 -3,6 -5,8 -3,2 -7,3 -11,4 -3,-3 -6,-7 -10,-10 -4,-4 -7,-7 -11,-11 -3,0 -6,-1 -9,-1 -2,-1 -4,-1 -6,-2 -3,3 -7,6 -11,8 -1,2 -1,4 -2,6 0,5 0,9 0,14 -2,3 -3,7 -4,10 -6,2 -11,3 -17,5 -6,3 -13,6 -19,9 -4,4 -8,8 -12,12 0,4 0,9 0,13 1,6 3,11 5,17 0,3 0,6 0,9 -1,2 -3,4 -5,6 -8,2 -15,5 -23,7 -6,0 -12,1 -19,1 0,-2 -1,-4 -2,-6 -4,-7 -8,-13 -12,-19 -4,-2 -8,-4 -11,-6 -4,2 -8,3 -11,5 -3,3 -5,5 -7,7 -5,2 -11,3 -16,4 -6,1 -12,2 -18,3 -4,1 -9,2 -13,3 -3,5 -6,11 -9,16 -2,8 -4,16 -7,24 0,7 0,14 -1,21 2,8 4,16 5,24 -1,4 -2,8 -3,11 -5,3 -9,5 -14,7 -3,1 -6,3 -9,5 -1,0 -2,1 -3,2 -4,2 -7,5 -10,8 -5,2 -10,5 -15,7 -3,2 -6,5 -10,7 -6,1 -13,2 -20,2 -5,-1 -9,-2 -14,-3 -2,-5 -5,-9 -7,-14 -4,-4 -7,-8 -11,-13 -6,-2 -13,-4 -20,-6 -5,0 -10,1 -15,1 -1,0 -3,0 -4,0 -4,2 -8,4 -13,6 -6,3 -12,6 -18,9 -7,2 -13,3 -19,4 -6,-1 -12,-2 -17,-3 -2,-3 -5,-5 -7,-7 -4,-3 -9,-6 -13,-9 -8,1 -16,3 -23,4 -2,1 -3,2 -5,4 -4,3 -8,7 -12,11 -4,4 -9,7 -13,11 -4,2 -8,5 -13,7 -3,6 -6,11 -10,17 -3,8 -5,16 -8,24 -1,5 -2,9 -3,14 -2,2 -4,4 -6,7 -3,-1 -6,-1 -9,-1 -2,-3 -4,-5 -6,-7 -1,-4 -2,-8 -3,-11 -2,-7 -3,-14 -5,-20 0,-6 0,-11 0,-17 0,-3 0,-7 -1,-10 2,-3 5,-6 7,-9 3,-4 6,-8 9,-12 0,-3 1,-6 1,-10 -1,-3 -2,-6 -3,-10 -3,0 -5,0 -7,0 -1,0 -2,0 -3,0 -3,1 -6,2 -10,3 -2,0 -5,0 -8,0 0,-3 0,-5 -1,-8 0,-4 0,-7 0,-11 0,-4 -1,-9 -2,-14 -2,-1 -4,-3 -6,-5 -5,0 -9,-1 -14,-2 -5,0 -11,-1 -17,-2 -3,-2 -7,-4 -11,-7 -3,-2 -6,-4 -10,-6 -6,-4 -12,-7 -19,-10 -7,-5 -14,-9 -22,-13 -5,-1 -11,-2 -17,-3 -8,1 -17,2 -26,3 -1,0 -2,1 -3,1 -2,1 -5,3 -8,4 -3,1 -6,3 -8,4 -6,1 -12,2 -18,3 -8,-1 -15,-2 -23,-3 -7,1 -13,2 -20,3 0,-1 0,-1 0,-2 -8,-6 -16,-11 -24,-17 -3,1 -6,1 -8,1 -13,1 -27,2 -40,3 -32,-2 -65,-3 -97,-4 -11,-4 -23,-8 -35,-13 1,-8 1,-16 1,-23 4,-11 9,-22 14,-33 -2,-7 -4,-15 -6,-22 -5,-6 -11,-11 -16,-17 7,-4 14,-8 21,-13 1,-9 3,-19 4,-28 -6,-9 -12,-19 -18,-28 2,-11 3,-22 5,-33 24,-21 48,-42 72,-64 28,-23 56,-46 84,-70 32,-14 64,-29 96,-44 5,-6 11,-11 16,-17 1,-2 2,-4 2,-7 0,-2 1,-5 1,-8 -8,-4 -16,-7 -25,-10 -9,0 -19,0 -29,0 -4,-2 -8,-3 -13,-5 7,-14 14,-27 22,-40 18,-26 36,-52 55,-79 -1,-2 -2,-4 -3,-7 -1,-7 -3,-14 -5,-20 -10,-7 -20,-14 -30,-21 -3,-11 -6,-21 -8,-32 -1,-10 -2,-21 -3,-32 14,-10 29,-20 44,-30 23,-16 45,-33 68,-49 18,-2 36,-5 54,-8 11,-1 22,-3 33,-4 36,-9 71,-17 106,-26 8,-9 15,-18 22,-27 -1,-4 -2,-7 -3,-10 3,0 7,-1 10,-1 8,-2 15,-4 22,-7 6,1 11,1 17,1 5,2 11,3 17,4 4,-1 8,-2 12,-3 4,-4 8,-8 12,-12 4,-4 8,-9 12,-13 5,-5 10,-9 15,-14 8,-4 16,-8 25,-12 6,-2 11,-4 17,-6 5,-2 10,-3 14,-5 0,1 1,3 1,4 2,3 4,5 5,8 2,2 4,4 6,6 2,4 3,8 5,11 -2,4 -5,9 -7,13 -4,3 -8,6 -11,9z"/>
   <path fill="#548964" d="M744 90c-4,6 -9,11 -13,17 -5,5 -10,10 -15,15 -9,4 -17,8 -26,13 -5,5 -10,9 -15,14 -3,6 -6,13 -10,19 1,6 1,13 1,19 4,2 7,4 10,6 1,1 2,2 3,2 5,3 9,5 14,7 5,2 10,5 15,7 4,2 7,4 11,6 1,3 3,6 5,9 6,1 12,2 18,3 5,1 10,1 15,2 3,2 6,3 10,5 0,5 0,9 0,14 0,5 0,11 1,16 1,5 3,10 4,15 5,6 10,13 14,19 2,3 4,6 5,9 4,7 8,13 11,20 2,5 5,10 7,15 1,6 3,12 4,18 0,6 0,13 0,19 0,1 1,2 1,3 1,3 3,7 4,11 3,4 5,9 8,14 1,5 3,9 5,13 4,8 9,16 14,24 6,9 12,18 18,27 5,2 9,4 14,6 1,1 3,2 4,2 5,0 9,0 14,-1 4,-1 7,-2 11,-3 4,-6 9,-11 13,-17 3,-2 5,-3 8,-5 3,1 6,2 9,3 6,5 12,10 19,16 4,5 8,10 13,16 11,7 23,15 35,23 1,3 3,5 4,8 0,3 0,6 0,8 0,3 -1,6 -1,8 -1,4 -2,7 -2,11 0,5 0,10 0,15 1,3 2,6 2,8 2,3 3,7 5,10 0,6 1,12 1,18 0,5 1,10 1,15 0,2 1,3 2,4 2,4 4,7 6,11 2,3 5,6 7,9 5,3 10,6 15,10 3,2 5,4 7,6 -1,6 -2,12 -2,18 1,4 3,8 4,11 -2,1 -4,2 -6,3 -8,7 -16,14 -24,21 -1,6 -2,12 -3,18 6,5 12,10 17,15 11,3 21,6 31,9 3,6 5,12 7,18 2,2 4,4 5,7 -1,2 -2,5 -2,8 0,4 0,7 0,11 -1,5 -1,10 -1,15 -1,5 -1,11 -2,16 -2,3 -3,5 -4,8 -4,1 -8,2 -11,3 -4,-3 -7,-6 -10,-9 -4,-4 -8,-8 -12,-11 -3,-1 -6,-1 -9,-2 -2,0 -4,-1 -5,-1 -4,3 -8,5 -11,8 -1,2 -2,4 -3,6 0,4 0,9 0,13 -1,4 -3,7 -4,10 -6,2 -11,4 -16,6 -7,3 -14,5 -20,8 -4,4 -8,8 -12,12 0,5 0,9 0,14 2,5 3,11 5,16 0,4 0,7 1,10 -2,2 -4,4 -6,6 -7,2 -15,4 -23,7 -6,0 -12,0 -18,1 -1,-3 -2,-5 -2,-7 -4,-6 -8,-12 -12,-19 -4,-2 -8,-4 -12,-5 -4,1 -8,3 -11,5 -2,2 -5,5 -7,7 -5,1 -10,3 -15,4 -7,1 -13,2 -19,2 -4,1 -9,2 -13,3 -3,6 -6,11 -8,17 -3,8 -5,16 -7,24 -1,7 -1,14 -1,21 1,8 3,16 5,24 -2,4 -3,7 -4,11 -4,2 -9,4 -13,6 -3,2 -6,4 -9,5 -2,1 -3,2 -4,2 -3,3 -7,6 -10,9 -5,2 -10,4 -14,7 -4,2 -7,4 -10,7 -7,1 -14,1 -21,2 -4,-1 -9,-2 -14,-4 -2,-4 -4,-9 -7,-13 -3,-5 -7,-9 -11,-13 -6,-2 -13,-4 -20,-6 -5,0 -10,0 -15,1 -1,0 -2,0 -3,0 -5,2 -9,4 -13,6 -7,3 -13,6 -19,9 -6,1 -13,3 -19,4 -6,-1 -11,-2 -17,-4 -2,-2 -5,-4 -7,-7 -4,-3 -8,-5 -12,-8 -8,1 -16,2 -24,3 -2,2 -3,3 -4,4 -4,4 -9,8 -13,12 -4,3 -8,7 -13,10 -4,3 -8,5 -12,8 -4,5 -7,11 -10,16 -3,9 -6,17 -9,25 -1,4 -2,9 -3,13 -2,3 -4,5 -5,7 -3,0 -7,0 -10,-1 -2,-2 -4,-4 -6,-7 -1,-3 -2,-7 -3,-11 -2,-6 -3,-13 -4,-20 0,-5 0,-11 0,-16 -1,-4 -1,-7 -2,-11 3,-2 5,-5 7,-8 3,-4 6,-8 9,-12 0,-4 1,-7 1,-10 -1,-4 -2,-7 -3,-10 -2,0 -5,0 -7,0 -1,0 -2,0 -3,0 -3,1 -6,2 -9,3 -3,0 -6,0 -9,-1 0,-2 0,-5 0,-8 0,-3 0,-6 0,-10 -1,-5 -2,-9 -3,-14 -2,-2 -4,-3 -6,-5 -4,-1 -9,-1 -13,-2 -6,-1 -12,-1 -17,-2 -4,-2 -8,-5 -11,-7 -4,-2 -7,-4 -10,-6 -7,-4 -13,-7 -19,-11 -8,-4 -15,-8 -22,-12 -6,-1 -12,-2 -17,-3 -9,1 -18,2 -27,2 -1,1 -1,1 -2,2 -3,1 -6,2 -8,4 -3,1 -6,2 -9,3 -6,1 -12,3 -18,4 -7,-1 -15,-2 -23,-3 -6,1 -13,2 -19,3 0,-1 -1,-2 -1,-3 -8,-5 -16,-10 -24,-16 -3,0 -5,0 -8,1 -13,0 -26,1 -40,2 -32,-1 -64,-2 -97,-3 -11,-5 -23,-9 -34,-13 0,-8 0,-16 0,-24 5,-11 9,-21 14,-32 -2,-7 -4,-15 -6,-23 -5,-5 -10,-11 -16,-16 7,-4 14,-9 21,-13 2,-10 3,-19 5,-29 -6,-9 -12,-18 -18,-27 1,-12 2,-23 4,-34 24,-21 48,-42 72,-63 28,-23 56,-47 84,-70 32,-15 64,-30 96,-44 5,-6 11,-12 17,-17 0,-3 1,-5 1,-7 1,-3 1,-6 1,-9 -8,-3 -16,-6 -24,-10 -10,1 -20,1 -29,1 -5,-2 -9,-4 -14,-6 8,-13 15,-26 22,-39 18,-27 37,-53 55,-79 -1,-2 -2,-5 -2,-7 -2,-7 -4,-14 -6,-21 -10,-7 -20,-14 -30,-21 -3,-10 -5,-21 -8,-31 -1,-11 -2,-21 -3,-32 15,-10 29,-21 44,-31 23,-16 45,-32 68,-48 18,-3 36,-5 54,-8 11,-2 23,-3 34,-5 35,-8 70,-17 106,-25 7,-9 14,-18 22,-28 -2,-3 -3,-6 -4,-10 4,0 7,0 11,0 7,-2 14,-5 21,-7 6,0 11,1 17,1 6,1 11,3 17,4 4,-1 8,-2 13,-3 4,-4 8,-8 12,-12 4,-5 7,-9 11,-14 5,-4 10,-9 15,-13 8,-4 17,-9 25,-13 6,-2 12,-3 18,-5 4,-2 9,-4 13,-6 1,2 1,3 1,5 2,2 4,5 6,8 2,2 4,4 6,6 1,4 3,7 4,11 -2,4 -5,8 -7,12 -4,4 -7,7 -11,10z"/>
   <path fill="#588E69" d="M744 84c-4,5 -8,11 -12,17 -5,4 -10,9 -15,14 -9,5 -18,9 -27,14 -5,4 -10,9 -14,14 -4,6 -7,12 -10,19 0,6 0,12 1,19 3,2 6,4 9,6 1,1 2,1 3,2 5,2 9,4 14,6 5,3 11,5 16,8 3,2 6,4 10,5 2,4 4,7 6,10 5,1 11,2 17,3 5,0 10,1 15,2 3,1 7,3 10,5 0,4 0,9 0,13 1,6 1,11 1,17 1,5 3,10 5,15 4,6 9,12 13,18 2,3 4,7 6,10 3,6 7,13 11,19 2,5 4,10 6,15 1,6 3,12 4,19 0,6 0,12 0,19 1,1 1,1 1,2 2,4 3,7 4,11 3,5 5,10 8,15 2,4 3,9 5,13 5,8 9,16 14,23 6,9 12,19 18,28 5,2 9,4 14,6 1,1 3,1 4,2 5,-1 10,-1 14,-1 4,-1 7,-2 11,-4 5,-5 9,-11 14,-16 2,-2 5,-4 7,-5 3,1 6,2 9,2 6,6 13,11 19,16 4,6 9,11 13,16 12,8 23,16 35,23 2,3 3,6 5,9 0,3 -1,5 -1,8 0,3 0,5 -1,8 -1,4 -1,7 -2,11 0,5 0,10 0,15 1,3 2,5 3,8 1,3 3,6 4,9 0,6 1,13 2,19 0,5 0,10 0,15 1,1 1,2 2,4 2,3 4,7 6,11 2,3 5,6 7,9 5,3 11,6 16,9 2,3 4,5 6,7 0,6 -1,12 -2,18 1,4 3,7 5,11 -2,1 -4,1 -6,2 -8,7 -16,15 -24,22 -2,6 -3,11 -4,17 6,5 12,10 18,15 10,4 20,7 30,10 3,6 5,12 8,17 1,3 3,5 5,7 -1,3 -2,6 -3,9 0,3 0,7 0,11 0,5 -1,10 -1,15 0,5 -1,10 -2,15 -1,3 -3,6 -4,9 -4,1 -7,2 -11,3 -3,-3 -7,-6 -10,-10 -4,-3 -8,-7 -12,-11 -3,0 -6,-1 -9,-1 -1,-1 -3,-1 -5,-1 -4,2 -7,5 -11,8 -1,1 -2,3 -3,5 0,5 0,9 0,14 -1,3 -2,7 -4,10 -5,2 -11,4 -16,5 -7,3 -13,6 -20,9 -4,4 -8,8 -12,12 0,4 0,9 0,14 2,5 4,11 5,16 1,3 1,6 1,10 -2,1 -4,3 -5,5 -8,3 -16,5 -23,7 -7,0 -13,1 -19,1 -1,-2 -1,-4 -2,-6 -4,-6 -8,-13 -12,-19 -4,-2 -8,-4 -12,-6 -4,2 -7,4 -11,5 -2,3 -4,5 -7,8 -5,1 -10,2 -15,3 -6,1 -12,2 -18,3 -5,1 -9,2 -14,3 -2,5 -5,11 -8,17 -2,7 -5,15 -7,23 0,7 -1,14 -1,21 2,8 3,17 5,25 -1,3 -2,7 -3,11 -5,2 -10,4 -14,6 -3,2 -6,3 -9,5 -1,0 -3,1 -4,2 -3,3 -6,5 -10,8 -5,3 -9,5 -14,7 -3,3 -7,5 -10,8 -7,0 -14,1 -21,2 -4,-2 -9,-3 -13,-4 -3,-5 -5,-9 -8,-14 -3,-4 -7,-8 -10,-12 -7,-3 -14,-5 -20,-7 -5,1 -10,1 -16,1 -1,0 -2,0 -3,0 -4,2 -9,4 -13,6 -6,3 -13,6 -19,10 -6,1 -13,2 -19,3 -5,-1 -11,-2 -17,-3 -2,-2 -4,-5 -7,-7 -4,-3 -8,-6 -12,-9 -8,2 -16,3 -24,4 -1,1 -3,3 -4,4 -4,4 -8,7 -12,11 -5,4 -9,7 -13,11 -5,2 -9,5 -13,7 -3,6 -7,11 -10,17 -3,8 -6,16 -9,24 -1,5 -2,10 -3,14 -1,2 -3,5 -5,7 -3,0 -6,-1 -9,-1 -3,-2 -5,-5 -7,-7 -1,-4 -2,-7 -3,-11 -1,-7 -3,-13 -4,-20 0,-6 0,-11 0,-17 -1,-3 -1,-6 -1,-10 2,-3 4,-6 7,-8 2,-4 5,-9 8,-13 1,-3 1,-6 2,-10 -1,-3 -3,-6 -4,-10 -2,0 -4,0 -7,0 -1,0 -2,0 -2,0 -4,1 -7,3 -10,4 -3,-1 -6,-1 -8,-1 -1,-3 -1,-5 -1,-8 0,-3 0,-7 0,-10 -1,-5 -2,-10 -3,-15 -2,-1 -4,-3 -5,-4 -5,-1 -10,-2 -14,-2 -6,-1 -11,-2 -17,-3 -4,-2 -7,-4 -11,-6 -3,-3 -7,-5 -10,-7 -6,-3 -13,-7 -19,-10 -7,-4 -15,-8 -22,-12 -6,-1 -11,-3 -17,-4 -9,1 -18,2 -26,3 -1,0 -2,1 -3,1 -3,2 -5,3 -8,4 -3,2 -6,3 -9,4 -6,1 -12,2 -17,3 -8,-1 -16,-2 -24,-3 -6,1 -13,2 -19,3 0,-1 0,-1 -1,-2 -8,-5 -16,-11 -24,-16 -2,0 -5,0 -8,0 -13,1 -26,2 -39,3 -33,-1 -65,-3 -97,-4 -12,-4 -23,-8 -35,-12 0,-8 0,-16 0,-24 5,-11 10,-22 14,-32 -2,-8 -4,-15 -6,-23 -5,-5 -10,-11 -15,-16 7,-5 14,-9 21,-13 1,-10 2,-20 4,-29 -6,-9 -12,-19 -18,-28 1,-11 3,-22 4,-33 24,-21 48,-42 72,-63 28,-24 56,-47 84,-70 32,-15 64,-30 96,-45 6,-5 11,-11 17,-17 1,-2 1,-4 2,-6 0,-3 0,-6 1,-9 -9,-3 -17,-7 -25,-10 -10,0 -19,0 -29,1 -4,-2 -9,-4 -13,-6 7,-13 14,-27 21,-40 19,-26 37,-52 55,-78 -1,-3 -1,-5 -2,-8 -2,-7 -4,-13 -6,-20 -10,-7 -20,-14 -30,-21 -2,-11 -5,-21 -8,-31 -1,-11 -2,-22 -3,-33 15,-10 30,-20 44,-30 23,-16 46,-32 68,-49 19,-2 37,-5 55,-8 11,-1 22,-3 33,-4 35,-9 71,-17 106,-26 7,-9 15,-18 22,-27 -1,-3 -3,-7 -4,-10 4,0 7,0 11,-1 7,-2 14,-4 22,-6 5,0 11,0 16,1 6,1 12,2 17,3 4,0 9,-1 13,-2 4,-4 8,-8 12,-12 4,-5 8,-10 12,-14 5,-5 9,-9 14,-14 9,-4 17,-8 25,-12 6,-2 12,-4 18,-6 5,-2 9,-3 14,-5 0,1 0,3 0,4 2,3 4,5 6,8 2,2 4,4 6,6 1,4 3,8 5,11 -3,5 -5,9 -8,13 -3,3 -7,7 -11,10z"/>
   <path fill="#5C936D" d="M744 77c-4,6 -8,12 -12,17 -5,5 -10,10 -15,15 -9,4 -18,9 -27,13 -5,5 -9,10 -14,14 -3,7 -7,13 -10,19 0,7 1,13 1,19 3,2 6,5 9,7 1,0 3,1 4,2 4,2 9,4 13,6 6,2 11,5 16,7 3,2 7,4 10,6 2,3 4,6 6,10 6,1 12,1 17,2 5,1 10,2 15,2 4,2 7,4 10,5 0,5 0,9 1,14 0,5 0,11 0,16 2,5 3,10 5,16 5,6 9,12 14,18 1,3 3,6 5,9 4,7 7,13 11,20 2,5 4,10 6,15 2,6 3,12 5,18 0,7 0,13 0,20 0,0 0,1 1,2 1,3 2,7 4,11 2,5 5,10 7,15 2,4 4,8 6,13 4,7 9,15 13,23 6,9 12,18 19,27 4,2 9,5 13,7 2,0 3,1 5,1 4,0 9,0 14,0 3,-2 7,-3 10,-4 5,-6 9,-11 14,-17 2,-1 5,-3 7,-5 3,1 6,2 9,3 7,5 13,11 19,16 5,5 9,10 13,16 12,7 24,15 35,23 2,3 3,6 5,8 0,3 0,6 0,9 -1,2 -1,5 -2,8 0,3 -1,7 -2,10 0,5 0,10 0,16 1,2 2,5 3,7 1,4 3,7 4,10 1,6 1,12 2,18 0,5 0,11 0,16 1,1 2,2 2,3 2,4 4,8 6,11 3,3 5,6 8,9 5,4 10,7 15,10 2,2 4,4 7,7 -1,6 -2,12 -3,18 2,3 3,7 5,11 -2,0 -4,1 -6,2 -8,7 -16,14 -24,21 -1,6 -2,12 -3,18 5,5 11,10 17,15 10,3 20,6 31,10 2,5 5,11 7,17 2,2 3,5 5,7 -1,3 -2,5 -3,8 0,4 0,8 0,11 0,5 0,10 0,16 -1,5 -2,10 -3,15 -1,3 -2,6 -4,8 -3,1 -7,2 -11,4 -3,-4 -7,-7 -10,-10 -4,-4 -8,-7 -11,-11 -3,-1 -6,-1 -9,-2 -2,0 -4,0 -6,-1 -3,3 -7,5 -11,8 -1,2 -2,4 -2,6 0,5 0,9 0,14 -2,3 -3,6 -5,10 -5,1 -10,3 -16,5 -6,3 -13,6 -19,8 -4,4 -9,8 -13,13 0,4 0,9 0,13 2,6 4,11 6,17 0,3 0,6 0,9 -2,2 -3,4 -5,6 -8,2 -15,4 -23,7 -6,0 -13,0 -19,1 0,-2 -1,-4 -2,-7 -4,-6 -8,-12 -12,-18 -4,-2 -8,-4 -12,-6 -3,1 -7,3 -11,5 -2,2 -4,5 -6,7 -6,2 -11,3 -16,4 -6,1 -12,2 -18,3 -5,1 -9,1 -13,2 -3,6 -6,12 -9,17 -2,8 -4,16 -7,24 0,7 0,14 -1,21 2,8 4,16 5,24 -1,4 -2,8 -3,11 -5,2 -9,5 -14,7 -3,1 -6,3 -9,4 -1,1 -2,2 -3,2 -4,3 -7,6 -10,9 -5,2 -10,4 -15,7 -3,2 -6,5 -10,7 -7,1 -13,2 -20,2 -5,-1 -9,-2 -14,-4 -2,-4 -5,-9 -7,-13 -4,-4 -7,-9 -11,-13 -7,-2 -13,-4 -20,-6 -5,0 -10,1 -15,1 -1,0 -3,0 -4,0 -4,2 -8,4 -13,6 -6,3 -12,6 -19,9 -6,1 -12,3 -19,4 -5,-1 -11,-2 -16,-3 -3,-3 -5,-5 -7,-8 -4,-2 -9,-5 -13,-8 -8,1 -16,2 -24,4 -1,1 -2,2 -4,3 -4,4 -8,8 -12,12 -4,3 -9,7 -13,10 -4,3 -9,5 -13,8 -3,5 -7,11 -10,17 -3,8 -5,16 -8,24 -1,5 -2,9 -3,14 -2,2 -4,4 -6,7 -3,-1 -6,-1 -9,-1 -2,-3 -4,-5 -7,-7 -1,-4 -2,-8 -3,-11 -1,-7 -2,-14 -4,-21 0,-5 0,-10 0,-16 0,-3 -1,-7 -1,-10 2,-3 5,-6 7,-9 3,-4 6,-8 8,-12 1,-3 1,-7 2,-10 -1,-3 -2,-7 -3,-10 -3,0 -5,0 -8,0 0,0 -1,0 -2,0 -3,1 -7,2 -10,3 -3,0 -5,0 -8,0 0,-3 0,-6 -1,-8 0,-4 0,-7 0,-11 -1,-5 -1,-9 -2,-14 -2,-2 -4,-3 -6,-5 -5,-1 -9,-1 -14,-2 -5,-1 -11,-1 -17,-2 -3,-2 -7,-5 -11,-7 -3,-2 -6,-4 -10,-6 -6,-4 -12,-7 -19,-11 -7,-4 -14,-8 -22,-12 -6,-1 -11,-2 -17,-3 -9,1 -17,2 -26,3 -1,0 -2,0 -3,1 -2,1 -5,3 -8,4 -3,1 -6,2 -9,4 -5,1 -11,2 -17,3 -8,-1 -15,-2 -23,-3 -7,1 -13,2 -20,3 0,-1 0,-2 0,-2 -8,-6 -16,-11 -25,-17 -2,0 -5,1 -7,1 -14,1 -27,2 -40,2 -32,-1 -65,-2 -97,-3 -12,-4 -23,-9 -35,-13 0,-8 1,-16 1,-24 4,-10 9,-21 13,-32 -1,-7 -3,-15 -5,-22 -6,-6 -11,-11 -16,-17 7,-4 14,-8 21,-13 1,-9 3,-19 4,-28 -6,-10 -12,-19 -18,-28 2,-11 3,-22 4,-33 25,-22 49,-43 73,-64 28,-23 56,-47 84,-70 31,-15 63,-29 95,-44 6,-6 12,-11 17,-17 1,-2 1,-5 2,-7 0,-3 1,-6 1,-8 -8,-4 -17,-7 -25,-10 -9,0 -19,0 -29,0 -4,-2 -9,-4 -13,-6 7,-13 14,-26 22,-39 18,-26 36,-53 54,-79 0,-2 -1,-5 -2,-7 -2,-7 -4,-14 -5,-21 -10,-7 -20,-14 -30,-21 -3,-10 -6,-20 -8,-31 -1,-10 -3,-21 -4,-32 15,-10 30,-20 45,-30 22,-17 45,-33 68,-49 18,-3 36,-5 54,-8 11,-1 22,-3 33,-5 36,-8 71,-17 106,-25 8,-9 15,-18 22,-27 -1,-4 -2,-7 -3,-10 3,-1 7,-1 10,-1 7,-2 15,-5 22,-7 5,1 11,1 17,1 5,1 11,3 16,4 5,-1 9,-2 13,-3 4,-4 8,-8 12,-12 4,-4 8,-9 12,-14 5,-4 10,-9 15,-13 8,-4 16,-8 24,-12 6,-2 12,-4 18,-6 5,-2 9,-4 14,-5 0,1 0,2 1,4 1,2 3,5 5,8 2,2 4,4 6,6 2,4 3,7 5,11 -3,4 -5,9 -7,13 -4,3 -8,6 -12,9z"/>
   <path fill="#609872" d="M745 71c-4,6 -9,11 -13,17 -5,5 -10,10 -15,14 -9,5 -18,9 -27,14 -4,4 -9,9 -14,14 -3,6 -7,13 -10,19 1,6 1,13 1,19 3,2 7,4 10,6 1,1 2,2 3,2 4,2 9,4 14,7 5,2 10,4 15,7 4,2 7,4 10,6 2,3 4,6 6,9 6,1 12,2 18,3 5,1 10,1 14,2 4,2 7,3 10,5 1,4 1,9 1,13 0,6 0,11 0,17 2,5 4,10 5,15 5,6 9,12 14,19 2,3 3,6 5,9 4,7 8,13 11,20 2,4 4,9 7,14 1,6 2,13 4,19 0,6 0,13 0,19 0,1 0,2 1,2 1,4 3,8 4,11 2,5 5,10 7,15 2,5 4,9 6,13 4,8 9,16 13,24 7,9 13,18 19,27 4,2 9,4 14,6 1,1 2,1 4,2 5,0 9,-1 14,-1 4,-1 7,-2 11,-3 4,-6 9,-12 13,-17 3,-2 5,-3 8,-5 3,1 6,2 9,3 6,5 12,10 19,15 4,6 8,11 13,16 11,8 23,16 35,23 1,3 3,6 4,9 0,3 0,6 0,8 0,3 -1,6 -1,8 -1,4 -2,7 -2,11 0,5 0,10 0,15 1,3 1,5 2,8 2,3 3,6 5,9 0,7 1,13 1,19 0,5 0,10 1,15 0,1 1,3 2,4 2,4 4,7 5,11 3,3 5,6 8,9 5,3 10,6 15,9 2,3 5,5 7,7 -1,6 -2,12 -3,18 2,4 4,8 5,11 -2,1 -4,2 -6,2 -8,8 -16,15 -24,22 -1,6 -2,12 -3,17 6,5 11,11 17,16 10,3 21,6 31,9 2,6 5,12 7,18 2,2 3,4 5,6 -1,3 -2,6 -3,9 0,4 0,7 0,11 0,5 0,10 0,15 -1,5 -2,10 -2,16 -2,2 -3,5 -5,8 -3,1 -7,2 -11,3 -3,-3 -6,-6 -10,-9 -3,-4 -7,-8 -11,-12 -3,0 -6,-1 -9,-1 -2,0 -4,-1 -5,-1 -4,2 -8,5 -11,8 -1,2 -2,4 -3,6 0,4 0,9 0,13 -2,4 -3,7 -4,10 -6,2 -11,4 -17,6 -6,2 -13,5 -19,8 -4,4 -8,8 -12,12 0,5 0,9 0,14 1,5 3,11 5,16 0,3 0,7 0,10 -1,2 -3,4 -5,5 -7,3 -15,5 -23,7 -6,1 -12,1 -18,1 -1,-2 -2,-4 -3,-6 -4,-6 -8,-13 -12,-19 -3,-2 -7,-4 -11,-6 -4,2 -8,4 -11,6 -3,2 -5,4 -7,7 -5,1 -10,2 -16,4 -6,0 -12,1 -18,2 -4,1 -9,2 -13,3 -3,6 -6,11 -9,17 -2,8 -4,16 -6,24 -1,7 -1,14 -1,21 1,8 3,16 4,24 -1,4 -2,7 -3,11 -4,2 -9,4 -14,6 -3,2 -6,3 -8,5 -2,1 -3,1 -4,2 -3,3 -7,6 -10,9 -5,2 -10,4 -14,6 -4,3 -7,5 -10,8 -7,0 -14,1 -21,2 -5,-1 -9,-3 -14,-4 -2,-4 -5,-9 -7,-14 -4,-4 -7,-8 -11,-12 -6,-2 -13,-4 -20,-7 -5,1 -10,1 -15,2 -1,0 -2,0 -4,0 -4,2 -8,3 -12,5 -7,4 -13,7 -19,10 -7,1 -13,2 -19,4 -6,-2 -11,-3 -17,-4 -2,-2 -5,-5 -7,-7 -4,-3 -8,-6 -13,-8 -7,1 -15,2 -23,3 -2,1 -3,3 -5,4 -4,4 -8,8 -12,12 -4,3 -8,7 -13,10 -4,2 -8,5 -13,7 -3,6 -6,12 -10,17 -2,8 -5,16 -8,25 -1,4 -2,9 -3,13 -2,3 -4,5 -5,7 -4,0 -7,-1 -10,-1 -2,-2 -4,-5 -6,-7 -1,-3 -2,-7 -3,-11 -2,-7 -3,-13 -5,-20 0,-5 0,-11 0,-16 0,-4 0,-7 -1,-11 3,-3 5,-5 7,-8 3,-4 6,-8 9,-12 0,-4 1,-7 1,-10 -1,-4 -2,-7 -3,-10 -2,0 -5,0 -7,0 -1,0 -2,0 -3,0 -3,1 -6,2 -10,3 -2,0 -5,-1 -8,-1 0,-2 0,-5 0,-8 0,-3 0,-7 0,-10 -1,-5 -2,-10 -3,-14 -2,-2 -4,-4 -6,-5 -4,-1 -9,-2 -14,-2 -5,-1 -11,-2 -16,-2 -4,-3 -8,-5 -11,-7 -4,-2 -7,-4 -10,-7 -7,-3 -13,-7 -19,-10 -8,-4 -15,-8 -23,-12 -5,-1 -11,-2 -17,-3 -8,1 -17,1 -26,2 -1,1 -2,1 -3,1 -2,2 -5,3 -7,5 -3,1 -6,2 -9,3 -6,1 -12,2 -18,3 -7,-1 -15,-1 -23,-2 -6,1 -13,1 -19,2 -1,0 -1,-1 -1,-2 -8,-5 -16,-11 -24,-16 -3,0 -6,0 -8,0 -13,1 -26,2 -40,3 -32,-1 -64,-2 -97,-4 -11,-4 -23,-8 -34,-12 0,-8 0,-16 0,-24 5,-11 9,-21 14,-32 -2,-8 -4,-15 -6,-23 -5,-5 -11,-11 -16,-16 7,-5 14,-9 21,-13 2,-10 3,-19 4,-29 -6,-9 -12,-18 -17,-28 1,-11 2,-22 4,-33 24,-21 48,-42 72,-63 28,-24 56,-47 84,-70 32,-15 64,-30 96,-45 5,-5 11,-11 17,-16 0,-3 1,-5 1,-7 1,-3 1,-6 1,-9 -8,-3 -16,-6 -24,-10 -10,0 -20,1 -29,1 -5,-2 -9,-4 -14,-6 7,-13 15,-26 22,-40 18,-26 36,-52 55,-78 -1,-3 -2,-5 -2,-8 -2,-6 -4,-13 -6,-20 -10,-7 -20,-14 -30,-21 -3,-10 -5,-21 -8,-31 -1,-11 -2,-22 -3,-32 14,-11 29,-21 44,-31 23,-16 45,-32 68,-48 18,-3 36,-6 54,-8 11,-2 22,-3 34,-5 35,-9 70,-17 105,-25 8,-10 15,-19 23,-28 -2,-3 -3,-6 -4,-10 3,0 7,0 10,0 8,-3 15,-5 22,-7 6,0 11,0 17,1 5,1 11,2 17,4 4,-1 8,-2 12,-3 5,-4 9,-8 13,-12 3,-5 7,-9 11,-14 5,-4 10,-9 15,-14 8,-4 16,-8 25,-12 6,-2 12,-4 18,-6 4,-1 9,-3 13,-5 0,2 1,3 1,4 2,3 4,6 6,8 2,2 3,5 5,7 2,3 4,7 5,11 -2,4 -5,8 -7,12 -4,4 -8,7 -11,10z"/>
   <path fill="#659D76" d="M745 65c-4,5 -8,11 -13,16 -5,5 -9,10 -14,15 -9,4 -18,9 -27,13 -5,5 -10,10 -15,14 -3,7 -6,13 -10,20 1,6 1,12 2,18 3,3 6,5 9,7 1,1 2,1 3,2 5,2 9,4 14,6 5,3 10,5 16,8 3,1 6,3 10,5 2,4 4,7 5,10 6,1 12,2 18,2 5,1 10,2 15,3 3,1 6,3 10,4 0,5 0,10 0,14 0,6 1,11 1,16 1,5 3,11 5,16 4,6 9,12 13,18 2,3 4,6 5,10 4,6 8,13 11,19 3,5 5,10 7,15 1,6 3,12 4,18 0,7 0,13 0,20 0,1 1,1 1,2 2,4 3,7 4,11 3,5 5,10 8,15 1,4 3,9 5,13 5,8 9,15 14,23 6,9 12,18 18,28 5,2 9,4 14,6 1,0 3,1 4,1 5,0 10,0 14,0 4,-1 7,-3 11,-4 4,-5 9,-11 14,-17 2,-1 5,-3 7,-4 3,0 6,1 9,2 6,6 13,11 19,16 4,5 9,11 13,16 12,8 23,15 35,23 1,3 3,6 5,9 -1,2 -1,5 -1,8 0,3 -1,5 -1,8 -1,3 -1,7 -2,10 0,6 0,11 0,16 1,2 2,5 3,8 1,3 2,6 4,9 0,6 1,12 1,19 1,5 1,10 1,15 1,1 1,2 2,4 2,3 4,7 6,11 2,3 5,6 7,9 5,3 10,6 15,9 3,2 5,5 7,7 -1,6 -1,12 -2,18 1,3 3,7 4,11 -2,1 -3,1 -5,2 -8,7 -17,14 -25,22 -1,5 -2,11 -3,17 6,5 12,10 18,15 10,3 20,7 30,10 3,6 5,11 8,17 1,2 3,5 4,7 -1,3 -1,6 -2,8 0,4 0,8 0,11 0,6 -1,11 -1,16 -1,5 -1,10 -2,15 -1,3 -3,6 -4,9 -4,1 -8,2 -11,3 -4,-3 -7,-7 -10,-10 -4,-4 -8,-7 -12,-11 -3,0 -6,-1 -9,-1 -2,-1 -3,-1 -5,-2 -4,3 -8,6 -11,8 -1,2 -2,4 -3,6 0,5 0,9 0,14 -1,3 -3,7 -4,10 -5,2 -11,3 -16,5 -7,3 -13,6 -20,9 -4,4 -8,8 -12,12 0,4 0,9 0,13 2,6 3,11 5,17 0,3 1,6 1,9 -2,2 -4,4 -5,6 -8,2 -16,5 -24,7 -6,0 -12,1 -18,1 -1,-2 -2,-4 -2,-6 -4,-7 -8,-13 -12,-19 -4,-2 -8,-4 -12,-6 -4,2 -7,3 -11,5 -2,3 -5,5 -7,7 -5,2 -10,3 -15,4 -6,1 -12,2 -19,3 -4,1 -8,2 -13,3 -3,5 -5,11 -8,16 -3,8 -5,16 -7,24 0,7 -1,14 -1,21 1,8 3,16 5,24 -1,4 -2,8 -4,11 -4,3 -9,5 -13,7 -3,1 -6,3 -9,5 -1,0 -3,1 -4,2 -3,2 -7,5 -10,8 -5,2 -9,5 -14,7 -4,2 -7,5 -10,7 -7,1 -14,2 -21,2 -4,-1 -9,-2 -13,-3 -3,-5 -5,-9 -8,-14 -3,-4 -7,-8 -10,-13 -7,-2 -14,-4 -20,-6 -6,0 -11,1 -16,1 -1,0 -2,0 -3,0 -5,2 -9,4 -13,6 -6,3 -13,6 -19,9 -6,2 -13,3 -19,4 -6,-1 -11,-2 -17,-3 -2,-3 -4,-5 -7,-7 -4,-3 -8,-6 -12,-9 -8,1 -16,3 -24,4 -1,1 -3,2 -4,4 -4,3 -8,7 -12,11 -5,4 -9,7 -14,11 -4,2 -8,5 -12,7 -4,6 -7,11 -10,17 -3,8 -6,16 -9,24 -1,5 -2,9 -3,14 -2,2 -3,4 -5,7 -3,-1 -6,-1 -10,-1 -2,-3 -4,-5 -6,-7 -1,-4 -2,-8 -3,-11 -1,-7 -3,-14 -4,-20 0,-6 0,-11 0,-17 -1,-3 -1,-7 -1,-10 2,-3 4,-6 6,-9 3,-4 6,-8 9,-12 0,-3 1,-6 2,-10 -2,-3 -3,-6 -4,-10 -2,0 -5,0 -7,0 -1,0 -2,0 -3,0 -3,1 -6,2 -9,3 -3,0 -6,0 -9,0 0,-3 0,-5 0,-8 0,-4 0,-7 0,-11 -1,-4 -2,-9 -3,-14 -2,-1 -4,-3 -6,-5 -4,0 -9,-1 -13,-2 -6,0 -12,-1 -17,-2 -4,-2 -7,-4 -11,-7 -3,-2 -7,-4 -10,-6 -7,-3 -13,-7 -19,-10 -8,-5 -15,-9 -22,-13 -6,-1 -12,-2 -17,-3 -9,1 -18,2 -27,3 0,0 -1,1 -2,1 -3,1 -6,3 -8,4 -3,1 -6,3 -9,4 -6,1 -12,2 -17,3 -8,-1 -16,-2 -24,-3 -6,1 -13,2 -19,3 0,-1 -1,-1 -1,-2 -8,-6 -16,-11 -24,-17 -3,1 -5,1 -8,1 -13,1 -26,2 -39,3 -33,-2 -65,-3 -97,-4 -12,-4 -24,-8 -35,-13 0,-8 0,-16 0,-23 5,-11 9,-22 14,-32 -2,-8 -4,-16 -6,-23 -5,-6 -10,-11 -16,-17 7,-4 14,-8 22,-13 1,-9 2,-19 4,-28 -6,-9 -12,-19 -18,-28 1,-11 3,-22 4,-33 24,-21 48,-42 72,-64 28,-23 56,-46 84,-70 32,-14 64,-29 96,-44 6,-6 11,-11 17,-17 0,-2 1,-4 2,-7 0,-2 0,-5 1,-8 -9,-3 -17,-7 -25,-10 -10,0 -20,0 -29,0 -5,-2 -9,-3 -13,-5 7,-14 14,-27 21,-40 18,-26 37,-52 55,-79 -1,-2 -1,-4 -2,-7 -2,-7 -4,-14 -6,-20 -10,-7 -20,-14 -30,-21 -3,-11 -5,-21 -8,-32 -1,-10 -2,-21 -3,-32 15,-10 30,-20 44,-30 23,-16 46,-33 68,-49 18,-2 36,-5 55,-8 11,-1 22,-3 33,-4 35,-9 70,-17 106,-26 7,-9 14,-18 22,-27 -1,-4 -3,-7 -4,-10 4,0 7,-1 11,-1 7,-2 14,-4 21,-7 6,1 12,1 17,1 6,2 11,3 17,4 4,-1 8,-2 13,-2 4,-5 8,-9 12,-13 4,-4 8,-9 11,-13 5,-5 10,-9 15,-14 8,-4 17,-8 25,-12 6,-2 12,-4 18,-6 4,-2 9,-3 14,-5 0,1 0,3 0,4 2,3 4,5 6,8 2,2 4,4 6,6 1,4 3,8 5,11 -3,5 -5,9 -8,13 -4,3 -7,6 -11,10z"/>
   <path fill="#69A27B" d="M745 58c-4,6 -8,11 -12,17 -5,5 -10,10 -15,15 -9,4 -18,9 -27,13 -5,5 -10,9 -14,14 -4,6 -7,13 -10,19 0,6 0,13 1,19 3,2 6,4 9,6 1,1 2,2 3,2 5,3 10,5 14,7 5,2 11,5 16,7 3,2 7,4 10,6 2,3 4,6 6,10 6,0 11,1 17,2 5,1 10,1 15,2 3,2 7,3 10,5 0,5 0,9 0,14 1,5 1,11 1,16 2,5 3,10 5,15 4,7 9,13 14,19 1,3 3,6 5,9 3,7 7,13 11,20 2,5 4,10 6,15 2,6 3,12 4,18 0,6 0,13 0,19 1,1 1,2 1,3 2,3 3,7 5,11 2,4 5,9 7,14 2,5 4,9 5,14 5,7 9,15 14,23 6,9 12,18 18,27 5,2 10,4 14,6 2,1 3,2 4,2 5,0 10,0 15,-1 3,-1 7,-2 10,-3 5,-6 9,-11 14,-17 2,-2 5,-3 7,-5 3,1 6,2 9,3 7,5 13,10 19,16 5,5 9,10 13,16 12,7 24,15 35,23 2,3 3,5 5,8 0,3 0,6 -1,9 0,2 0,5 -1,7 0,4 -1,8 -2,11 0,5 0,10 0,15 1,3 2,6 3,8 1,3 3,7 4,10 1,6 1,12 2,18 0,5 0,10 0,15 1,2 2,3 2,4 2,4 4,7 6,11 2,3 5,6 7,9 6,3 11,7 16,10 2,2 4,4 7,6 -1,6 -2,12 -3,18 2,4 3,8 5,11 -2,1 -4,2 -6,3 -8,7 -16,14 -24,21 -1,6 -2,12 -4,18 6,5 12,10 18,15 10,3 20,6 31,9 2,6 4,12 7,18 1,2 3,4 5,7 -1,2 -2,5 -3,8 0,4 0,7 0,11 0,5 0,10 -1,15 0,6 -1,11 -2,16 -1,3 -3,5 -4,8 -4,1 -7,2 -11,3 -3,-3 -7,-6 -10,-9 -4,-4 -8,-8 -12,-11 -3,-1 -6,-1 -9,-2 -1,0 -3,-1 -5,-1 -4,3 -7,5 -11,8 -1,2 -2,4 -3,6 0,4 0,9 0,13 -1,4 -2,7 -4,11 -5,1 -11,3 -16,5 -7,3 -13,5 -20,8 -4,4 -8,8 -12,12 0,5 0,9 0,14 2,6 4,11 5,16 1,4 1,7 1,10 -2,2 -3,4 -5,6 -8,2 -16,4 -23,7 -7,0 -13,0 -19,1 -1,-2 -1,-5 -2,-7 -4,-6 -8,-12 -12,-19 -4,-2 -8,-4 -12,-5 -3,1 -7,3 -11,5 -2,2 -4,5 -7,7 -5,1 -10,3 -15,4 -6,1 -12,2 -18,2 -5,1 -9,2 -13,3 -3,6 -6,11 -9,17 -2,8 -5,16 -7,24 0,7 -1,14 -1,21 2,8 3,16 5,24 -1,4 -2,7 -3,11 -5,2 -9,4 -14,6 -3,2 -6,4 -9,5 -1,1 -2,2 -4,2 -3,3 -6,6 -10,9 -4,2 -9,4 -14,7 -3,2 -7,5 -10,7 -7,1 -14,1 -20,2 -5,-1 -10,-2 -14,-4 -3,-4 -5,-9 -7,-13 -4,-5 -8,-9 -11,-13 -7,-2 -13,-4 -20,-6 -5,0 -10,0 -15,1 -2,0 -3,0 -4,0 -4,2 -9,4 -13,6 -6,3 -12,6 -19,9 -6,1 -12,3 -19,4 -5,-1 -11,-2 -16,-4 -3,-2 -5,-4 -7,-7 -5,-3 -9,-5 -13,-8 -8,1 -16,2 -24,3 -1,2 -3,3 -4,4 -4,4 -8,8 -12,12 -5,3 -9,7 -13,10 -5,3 -9,5 -13,8 -3,5 -7,11 -10,17 -3,8 -6,16 -8,24 -1,4 -3,9 -4,13 -1,3 -3,5 -5,7 -3,0 -6,0 -9,-1 -2,-2 -5,-4 -7,-7 -1,-3 -2,-7 -3,-11 -1,-6 -3,-13 -4,-20 0,-5 0,-11 0,-16 0,-4 -1,-7 -1,-11 2,-2 4,-5 7,-8 3,-4 5,-8 8,-12 1,-4 1,-7 2,-10 -1,-4 -2,-7 -3,-10 -3,0 -5,0 -8,0 -1,0 -1,0 -2,0 -4,1 -7,2 -10,3 -3,0 -6,0 -8,-1 0,-2 -1,-5 -1,-8 0,-3 0,-6 0,-10 -1,-5 -2,-9 -3,-14 -1,-2 -3,-3 -5,-5 -5,-1 -9,-1 -14,-2 -6,-1 -11,-1 -17,-2 -4,-2 -7,-5 -11,-7 -3,-2 -7,-4 -10,-6 -6,-4 -13,-7 -19,-11 -7,-4 -15,-8 -22,-12 -6,-1 -11,-2 -17,-3 -9,1 -17,2 -26,2 -1,1 -2,1 -3,2 -3,1 -5,2 -8,4 -3,1 -6,2 -9,3 -6,2 -11,3 -17,4 -8,-1 -16,-2 -23,-3 -7,1 -13,2 -20,3 0,-1 0,-2 0,-3 -9,-5 -17,-10 -25,-16 -2,0 -5,0 -8,1 -13,1 -26,1 -39,2 -32,-1 -65,-2 -97,-3 -12,-5 -23,-9 -35,-13 0,-8 0,-16 1,-24 4,-11 9,-21 13,-32 -2,-7 -4,-15 -5,-23 -6,-5 -11,-10 -16,-16 7,-4 14,-9 21,-13 1,-10 3,-19 4,-29 -6,-9 -12,-18 -18,-27 2,-11 3,-23 4,-34 24,-21 48,-42 73,-63 27,-23 55,-47 83,-70 32,-15 64,-30 96,-44 6,-6 12,-12 17,-17 1,-3 1,-5 2,-7 0,-3 0,-6 1,-9 -8,-3 -17,-6 -25,-10 -10,1 -19,1 -29,1 -4,-2 -9,-4 -13,-6 7,-13 14,-26 21,-39 19,-27 37,-53 55,-79 0,-2 -1,-5 -2,-7 -2,-7 -4,-14 -6,-21 -10,-7 -20,-14 -30,-21 -2,-10 -5,-21 -8,-31 -1,-11 -2,-21 -3,-32 15,-10 30,-20 45,-31 22,-16 45,-32 68,-48 18,-3 36,-5 54,-8 11,-2 22,-3 33,-5 35,-8 71,-17 106,-25 7,-9 15,-18 22,-28 -1,-3 -2,-6 -4,-10 4,0 7,0 11,0 7,-2 14,-5 22,-7 5,0 11,1 16,1 6,1 12,3 17,4 5,-1 9,-2 13,-3 4,-4 8,-8 12,-12 4,-5 8,-9 12,-14 5,-4 10,-9 14,-13 9,-4 17,-9 25,-13 6,-2 12,-3 18,-5 5,-2 9,-4 14,-6 0,2 0,3 0,5 2,2 4,5 6,8 2,2 4,4 6,6 2,4 3,7 5,11 -3,4 -5,8 -8,13 -3,3 -7,6 -11,9z"/>
  </g>
  <polygon fill="#6DA77F" points="746,52 733,69 718,83 691,97 677,111 667,130 668,149 678,155 681,157 694,163 710,171 720,177 726,186 743,189 758,191 768,196 769,209 769,226 774,241 788,259 793,269 804,288 810,303 815,322 815,341 816,343 820,354 827,369 833,382 846,405 865,433 878,439 883,441 897,440 907,436 921,420 929,415 937,417 956,433 970,449 1004,472 1009,481 1009,489 1008,497 1005,508 1005,523 1008,531 1012,540 1014,559 1015,574 1017,578 1022,589 1030,598 1045,607 1052,614 1049,632 1054,643 1048,645 1024,667 1021,684 1038,699 1069,709 1076,726 1081,733 1078,742 1078,753 1078,768 1076,783 1071,792 1060,795 1050,785 1039,774 1030,773 1024,772 1013,780 1011,785 1011,799 1007,809 990,814 971,823 959,835 959,849 964,865 964,875 959,880 936,887 917,888 915,882 903,863 892,857 881,862 874,870 858,873 840,876 827,879 818,896 811,919 810,940 815,965 812,976 798,982 789,987 786,989 776,997 761,1004 751,1012 731,1014 717,1010 710,996 699,984 679,977 664,978 660,978 647,984 629,994 610,997 593,994 586,987 573,978 550,982 545,986 533,997 520,1008 507,1015 497,1032 489,1056 486,1070 480,1077 471,1076 465,1069 462,1058 457,1038 457,1022 456,1011 463,1003 472,990 473,980 470,970 463,970 460,970 450,974 442,973 441,965 441,955 439,940 433,936 419,934 402,931 391,925 381,918 362,908 340,896 323,892 297,895 294,896 286,900 278,904 260,907 237,905 217,907 217,905 193,889 185,889 145,892 48,888 13,876 14,852 28,820 22,797 6,781 27,768 31,739 13,711 18,678 90,615 174,545 270,500 286,483 288,477 289,468 264,458 235,459 222,453 244,413 299,335 296,327 291,307 261,286 253,255 250,222 294,192 362,143 416,136 449,131 555,105 577,78 574,68 584,67 606,61 623,62 640,65 652,63 664,51 676,37 691,23 716,11 733,5 747,0 748,4 753,12 759,19 764,30 757,42 "/>
 </g>
</svg>
