<?xml version="1.0" encoding="UTF-8"?>
<!DOCTYPE svg PUBLIC "-//W3C//DTD SVG 1.1//EN" "http://www.w3.org/Graphics/SVG/1.1/DTD/svg11.dtd">
<!-- Creator: CorelDRAW X8 -->
<svg xmlns="http://www.w3.org/2000/svg" xml:space="preserve" width="100%" height="100%" version="1.1" shape-rendering="geometricPrecision" text-rendering="geometricPrecision" image-rendering="optimizeQuality" fill-rule="evenodd" clip-rule="evenodd"
viewBox="0 0 1172 1593"
 xmlns:xlink="http://www.w3.org/1999/xlink">
 <g id="Layer_x0020_1">
  <metadata id="CorelCorpID_0Corel-Layer"/>
  <polygon fill="#143D21" points="690,414 708,467 741,457 803,409 810,414 927,423 1014,431 1068,464 1084,548 1063,622 1080,684 1091,697 1130,739 1151,801 1151,864 1130,921 1101,980 1126,1046 1172,1084 1143,1121 1126,1154 1114,1275 1101,1358 1056,1396 985,1424 897,1487 844,1541 809,1593 711,1448 591,1355 428,1163 426,1073 422,866 408,830 390,785 296,751 265,615 197,416 122,195 309,183 354,167 436,172 586,308 "/>
  <g id="_348018301024">
   <path fill="#184225" d="M685 406c5,18 11,36 17,53 11,-3 22,-7 33,-10 21,-16 41,-32 62,-48 2,2 5,3 8,5 38,3 77,6 116,9 29,3 58,5 87,8 18,11 36,22 54,33 5,28 11,56 17,84 -7,24 -14,49 -21,74 5,21 11,42 17,62 3,4 7,9 11,13 13,14 26,28 39,42 7,20 14,41 21,62 0,21 0,42 0,63 -7,19 -14,38 -21,57 -10,20 -20,40 -30,59 9,22 17,44 25,66 16,13 31,25 46,38 -10,12 -19,25 -29,37 -5,11 -11,22 -17,33 -4,41 -8,81 -12,121 -4,28 -8,55 -13,83 -15,13 -30,25 -45,38 -24,9 -47,19 -71,28 -29,21 -58,42 -87,63 -18,18 -36,36 -54,54 -12,17 -23,34 -35,52 -33,-49 -65,-97 -98,-145 -40,-31 -80,-62 -120,-93 -54,-64 -109,-128 -163,-192 -1,-30 -1,-60 -2,-90 -1,-69 -3,-138 -4,-207 -5,-12 -9,-24 -14,-36 -6,-15 -12,-30 -17,-45 -32,-12 -63,-23 -95,-34 -10,-45 -21,-91 -31,-136 -23,-66 -45,-133 -68,-199 -25,-74 -50,-148 -75,-221 62,-4 125,-8 187,-12 15,-5 30,-10 45,-16 27,2 55,3 82,5 50,45 100,90 150,136 35,35 70,71 105,106z"/>
   <path fill="#1C472A" d="M679 398c5,18 11,36 17,53 11,-3 22,-7 34,-10 20,-16 41,-32 61,-48 3,2 5,3 8,5 39,3 77,6 116,9 29,3 58,5 87,8 18,11 36,22 54,33 6,28 11,56 17,84 -7,24 -14,49 -21,74 5,21 11,42 17,62 3,4 7,9 11,13 13,14 26,28 39,42 7,20 14,41 21,62 0,21 0,42 0,63 -7,19 -14,38 -21,57 -10,20 -20,40 -29,59 8,22 16,44 25,66 15,13 30,26 45,38 -10,12 -19,25 -28,37 -6,11 -12,22 -17,33 -5,41 -9,81 -13,121 -4,28 -8,55 -12,83 -16,13 -31,25 -46,38 -24,9 -47,19 -71,28 -29,21 -58,42 -87,63 -18,18 -36,36 -54,54 -11,17 -23,34 -35,52 -32,-49 -65,-97 -97,-145 -40,-31 -80,-62 -120,-93 -55,-64 -109,-128 -164,-192 0,-30 -1,-60 -2,-90 -1,-69 -3,-138 -4,-207 -5,-12 -9,-24 -14,-36 -6,-15 -11,-30 -17,-45 -32,-12 -63,-23 -94,-34 -11,-45 -21,-91 -32,-136 -22,-66 -45,-133 -67,-199 -26,-74 -51,-148 -76,-221 62,-4 125,-8 187,-12 15,-5 30,-10 45,-16 28,2 55,3 82,5 50,45 100,90 151,136 34,35 69,71 104,106z"/>
   <path fill="#214C2E" d="M673 390c6,18 11,36 17,53 11,-3 23,-7 34,-10 20,-16 41,-32 61,-48 3,2 5,4 8,5 39,3 78,6 116,9 29,3 59,5 88,8 17,11 35,22 53,34 6,27 11,55 17,83 -7,25 -14,49 -21,74 6,21 11,42 17,62 4,5 7,9 11,13 13,14 26,28 39,42 7,20 14,41 21,62 0,21 0,42 0,63 -7,19 -14,38 -21,58 -10,19 -19,39 -29,58 8,22 17,44 25,66 15,13 30,26 45,38 -9,12 -19,25 -28,37 -6,11 -12,22 -17,33 -4,41 -9,81 -13,121 -4,28 -8,55 -12,83 -15,13 -31,25 -46,38 -23,9 -47,19 -71,28 -29,21 -58,42 -87,63 -18,18 -36,36 -54,54 -11,17 -23,34 -35,52 -32,-49 -65,-97 -97,-145 -40,-31 -80,-62 -120,-93 -55,-64 -109,-128 -164,-192 0,-30 -1,-60 -2,-89 -1,-70 -2,-139 -4,-208 -4,-12 -9,-24 -14,-36 -5,-15 -11,-30 -17,-45 -31,-12 -63,-23 -94,-34 -11,-45 -21,-91 -32,-136 -22,-66 -45,-133 -67,-199 -25,-74 -51,-148 -76,-221 63,-4 125,-8 187,-12 15,-5 31,-10 46,-16 27,2 54,3 81,5 50,45 101,90 151,136 35,35 69,71 104,106z"/>
   <path fill="#255133" d="M667 382c6,18 12,36 17,53 12,-3 23,-7 34,-10 20,-16 41,-32 61,-48 3,2 6,4 8,5 39,3 78,6 117,9 29,3 58,5 87,8 18,11 36,22 53,34 6,27 12,55 17,83 -7,25 -14,49 -21,74 6,21 12,42 17,62 4,5 8,9 11,13 13,14 26,28 39,42 7,20 14,41 21,62 0,21 0,42 0,63 -7,19 -14,38 -21,58 -9,19 -19,39 -29,58 8,22 17,44 25,66 15,13 30,26 45,38 -9,12 -19,25 -28,37 -6,11 -11,22 -17,33 -4,41 -8,81 -13,121 -4,28 -8,56 -12,83 -15,13 -30,25 -45,38 -24,9 -48,19 -72,28 -29,21 -58,42 -87,63 -18,18 -35,36 -53,54 -12,17 -24,34 -35,52 -33,-48 -65,-97 -98,-145 -40,-31 -80,-62 -120,-93 -54,-64 -109,-128 -163,-192 -1,-30 -2,-60 -2,-89 -2,-69 -3,-138 -5,-208 -4,-12 -9,-24 -14,-36 -5,-15 -11,-30 -17,-45 -31,-12 -63,-23 -94,-34 -11,-45 -21,-91 -31,-136 -23,-66 -46,-133 -68,-199 -25,-74 -50,-148 -75,-221 62,-4 124,-8 187,-12 15,-5 30,-10 45,-16 27,2 54,3 81,5 51,45 101,90 151,136 35,35 69,71 104,106z"/>
   <path fill="#295637" d="M661 374c6,18 12,36 18,53 11,-3 22,-6 33,-10 21,-16 41,-32 62,-48 2,2 5,4 7,5 39,3 78,6 117,9 29,3 58,5 87,8 18,11 36,22 54,34 5,27 11,55 16,83 -7,25 -14,49 -21,74 6,21 12,42 17,62 4,5 8,9 11,13 13,14 26,28 39,42 7,20 14,41 21,62 0,21 0,42 0,63 -7,19 -14,38 -21,58 -9,19 -19,39 -29,58 9,22 17,44 25,66 15,13 30,26 46,38 -10,12 -19,25 -29,37 -5,11 -11,22 -17,34 -4,40 -8,80 -12,120 -5,28 -9,56 -13,83 -15,13 -30,25 -45,38 -24,9 -48,19 -71,29 -29,20 -58,41 -87,62 -18,18 -36,36 -54,54 -12,17 -24,34 -35,52 -33,-48 -65,-97 -98,-145 -40,-31 -80,-62 -120,-93 -54,-64 -109,-128 -163,-192 -1,-30 -1,-60 -2,-89 -2,-69 -3,-138 -4,-207 -5,-13 -10,-25 -14,-37 -6,-15 -12,-30 -18,-45 -31,-11 -62,-23 -94,-34 -10,-45 -21,-90 -31,-136 -23,-66 -45,-133 -68,-199 -25,-74 -50,-148 -75,-221 62,-4 124,-8 187,-12 15,-5 30,-10 45,-15 27,1 54,2 82,4 50,45 100,90 150,136 35,35 70,71 104,106z"/>
   <path fill="#2D5B3C" d="M656 366c5,18 11,36 17,53 11,-3 22,-6 33,-10 21,-16 41,-32 62,-48 2,2 5,4 8,5 38,3 77,6 116,9 29,3 58,5 87,8 18,11 36,23 54,34 5,27 11,55 17,83 -7,25 -14,49 -21,74 5,21 11,42 17,62 3,5 7,9 11,13 13,14 26,28 39,42 7,21 14,41 21,62 0,21 0,42 0,63 -7,19 -14,38 -21,58 -10,19 -20,39 -30,58 9,22 17,44 26,67 15,12 30,25 45,37 -10,13 -19,25 -29,37 -5,11 -11,22 -16,34 -5,40 -9,80 -13,120 -4,28 -8,56 -13,83 -15,13 -30,25 -45,38 -24,9 -47,19 -71,29 -29,20 -58,41 -87,62 -18,18 -36,36 -54,54 -12,17 -23,34 -35,52 -33,-48 -65,-97 -98,-145 -40,-31 -80,-62 -120,-93 -54,-64 -108,-128 -163,-192 -1,-30 -1,-60 -2,-89 -1,-69 -3,-138 -4,-207 -5,-13 -9,-25 -14,-37 -6,-15 -12,-30 -17,-45 -32,-11 -63,-23 -95,-34 -10,-45 -21,-90 -31,-136 -23,-66 -45,-133 -68,-199 -25,-74 -50,-148 -75,-221 62,-4 125,-8 187,-12 15,-5 30,-10 45,-15 27,1 55,2 82,4 50,45 100,90 151,136 34,35 69,71 104,106z"/>
   <path fill="#326040" d="M650 358c6,18 11,36 17,53 11,-3 22,-6 34,-10 20,-16 41,-32 61,-48 3,2 5,4 8,5 39,3 77,6 116,9 29,3 58,6 87,8 18,11 36,23 54,34 6,27 11,55 17,83 -7,25 -14,49 -21,74 6,21 11,42 17,62 3,5 7,9 11,13 13,14 26,28 39,42 7,21 14,41 21,62 0,21 0,42 0,63 -7,19 -14,38 -21,58 -10,19 -20,39 -29,58 8,22 16,44 25,67 15,12 30,25 45,37 -10,13 -19,25 -28,37 -6,11 -12,22 -17,34 -5,40 -9,80 -13,120 -4,28 -8,56 -12,83 -16,13 -31,25 -46,38 -24,9 -47,19 -71,29 -29,20 -58,41 -87,62 -18,18 -36,36 -54,54 -11,17 -23,35 -35,52 -32,-48 -65,-97 -97,-145 -40,-31 -80,-62 -120,-93 -55,-64 -109,-128 -164,-192 0,-30 -1,-60 -2,-89 -1,-69 -3,-138 -4,-207 -5,-13 -9,-25 -14,-37 -6,-15 -11,-30 -17,-45 -32,-11 -63,-23 -94,-34 -11,-45 -21,-90 -32,-136 -22,-66 -45,-133 -67,-199 -26,-74 -51,-147 -76,-221 62,-4 125,-8 187,-11 15,-6 30,-11 45,-16 28,1 55,2 82,4 50,45 100,90 151,136 34,35 69,71 104,106z"/>
   <path fill="#366545" d="M644 351c6,17 11,35 17,53 11,-4 23,-7 34,-11 20,-16 41,-32 61,-48 3,2 5,4 8,6 39,2 78,5 116,8 29,3 59,6 88,8 18,11 35,23 53,34 6,27 11,55 17,83 -7,25 -14,50 -21,74 6,21 11,42 17,63 4,4 7,8 11,12 13,14 26,28 39,42 7,21 14,41 21,62 0,21 0,42 0,63 -7,19 -14,38 -21,58 -10,19 -19,39 -29,58 8,22 17,44 25,67 15,12 30,25 45,37 -9,13 -19,25 -28,37 -6,11 -11,22 -17,34 -4,40 -9,80 -13,120 -4,28 -8,56 -12,83 -15,13 -30,25 -46,38 -23,10 -47,19 -71,29 -29,21 -58,41 -87,62 -18,18 -36,36 -54,54 -11,17 -23,35 -35,52 -32,-48 -65,-96 -97,-145 -40,-31 -80,-62 -120,-93 -55,-64 -109,-128 -164,-192 0,-30 -1,-60 -1,-89 -2,-69 -3,-138 -5,-207 -4,-12 -9,-25 -14,-37 -5,-15 -11,-30 -17,-45 -31,-11 -63,-23 -94,-34 -11,-45 -21,-90 -32,-136 -22,-66 -45,-133 -67,-199 -25,-74 -51,-147 -76,-221 63,-4 125,-8 187,-11 15,-6 31,-11 46,-16 27,1 54,2 81,4 50,45 101,90 151,136 35,35 69,71 104,107z"/>
   <path fill="#3A6A49" d="M638 343c6,17 12,35 17,53 12,-4 23,-7 34,-11 20,-16 41,-32 61,-48 3,2 6,4 8,6 39,2 78,5 117,8 29,3 58,6 87,8 18,11 36,23 54,34 5,27 11,55 16,83 -7,25 -14,50 -21,74 6,21 12,42 17,63 4,4 8,8 11,12 13,14 26,28 39,42 7,21 14,41 21,62 0,21 0,42 0,63 -7,19 -14,38 -21,58 -9,19 -19,39 -29,58 8,22 17,44 25,67 15,12 30,25 45,37 -9,13 -19,25 -28,37 -6,11 -11,22 -17,34 -4,40 -8,80 -13,120 -4,28 -8,56 -12,83 -15,13 -30,25 -45,38 -24,10 -48,19 -71,29 -30,21 -59,41 -88,62 -18,18 -35,36 -53,54 -12,17 -24,35 -35,52 -33,-48 -65,-96 -98,-145 -40,-31 -80,-62 -120,-93 -54,-64 -109,-128 -163,-192 -1,-30 -2,-60 -2,-89 -2,-69 -3,-138 -5,-207 -4,-12 -9,-25 -13,-37 -6,-15 -12,-30 -18,-45 -31,-11 -63,-23 -94,-34 -10,-45 -21,-90 -31,-135 -23,-67 -45,-134 -68,-200 -25,-74 -50,-147 -75,-221 62,-4 124,-8 187,-11 15,-6 30,-11 45,-16 27,1 54,2 81,4 51,45 101,91 151,136 35,35 69,71 104,107z"/>
   <path fill="#3E6F4E" d="M632 335c6,17 12,35 18,53 11,-4 22,-7 33,-11 21,-16 41,-32 62,-48 2,2 5,4 7,6 39,2 78,5 117,8 29,3 58,6 87,8 18,12 36,23 54,34 5,27 11,55 16,83 -7,25 -14,50 -20,74 5,21 11,42 16,63 4,4 8,8 11,12 13,14 26,28 39,42 7,21 14,41 21,62 0,21 0,42 0,63 -7,19 -14,38 -21,58 -9,19 -19,39 -29,58 9,22 17,45 25,67 15,12 30,25 46,37 -10,13 -19,25 -29,37 -5,11 -11,23 -17,34 -4,40 -8,80 -12,120 -4,28 -9,56 -13,83 -15,13 -30,25 -45,38 -24,10 -48,19 -71,29 -29,21 -58,42 -87,62 -18,18 -36,36 -54,54 -12,17 -24,35 -35,52 -33,-48 -65,-96 -98,-145 -40,-31 -80,-62 -120,-93 -54,-64 -109,-128 -163,-192 -1,-30 -1,-59 -2,-89 -1,-69 -3,-138 -4,-207 -5,-12 -10,-25 -14,-37 -6,-15 -12,-30 -18,-45 -31,-11 -62,-23 -94,-34 -10,-45 -21,-90 -31,-135 -23,-67 -45,-134 -68,-200 -25,-74 -50,-147 -75,-221 62,-4 124,-8 187,-11 15,-6 30,-11 45,-16 27,1 54,2 82,4 50,45 100,91 150,136 35,35 70,71 104,107z"/>
   <path fill="#437552" d="M627 327c5,17 11,35 17,53 11,-4 22,-7 33,-11 21,-16 41,-32 62,-48 2,2 5,4 8,6 38,2 77,5 116,8 29,3 58,6 87,8 18,12 36,23 54,34 5,27 11,55 17,83 -7,25 -14,50 -21,74 5,21 11,42 17,63 3,4 7,8 11,12 13,14 26,28 39,42 7,21 14,41 21,62 0,21 0,42 0,63 -7,19 -14,38 -21,58 -10,19 -20,39 -30,58 9,22 17,45 26,67 15,12 30,25 45,37 -10,13 -19,25 -29,37 -5,11 -11,23 -16,34 -5,40 -9,80 -13,120 -4,28 -8,56 -13,83 -15,13 -30,26 -45,38 -24,10 -47,19 -71,29 -29,21 -58,42 -87,62 -18,18 -36,36 -54,54 -12,17 -23,35 -35,52 -33,-48 -65,-96 -98,-145 -40,-31 -80,-62 -120,-93 -54,-64 -108,-128 -163,-192 -1,-30 -1,-59 -2,-89 -1,-69 -3,-138 -4,-207 -5,-12 -9,-24 -14,-37 -6,-15 -12,-30 -17,-45 -32,-11 -63,-23 -95,-34 -10,-45 -21,-90 -31,-135 -23,-67 -45,-133 -68,-200 -25,-74 -50,-147 -75,-221 62,-4 125,-8 187,-11 15,-6 30,-11 45,-16 27,1 55,3 82,4 50,45 100,91 151,136 34,35 69,71 104,107z"/>
   <path fill="#477A57" d="M621 319c6,17 11,35 17,53 11,-4 22,-7 34,-11 20,-16 41,-32 61,-48 3,2 5,4 8,6 39,2 77,5 116,8 29,3 58,6 87,9 18,11 36,22 54,33 6,28 11,55 17,83 -7,25 -14,50 -21,75 6,20 11,41 17,62 3,4 7,8 11,12 13,14 26,28 39,42 7,21 14,41 21,62 0,21 0,42 0,63 -7,19 -14,38 -21,58 -10,19 -20,39 -29,58 8,23 16,45 25,67 15,12 30,25 45,37 -10,13 -19,25 -28,37 -6,11 -12,23 -17,34 -4,40 -9,80 -13,120 -4,28 -8,56 -12,83 -16,13 -31,26 -46,38 -24,10 -47,19 -71,29 -29,21 -58,42 -87,63 -18,17 -36,35 -54,53 -11,17 -23,35 -35,52 -32,-48 -65,-96 -97,-144 -40,-32 -80,-63 -120,-94 -55,-64 -109,-128 -164,-192 0,-30 -1,-59 -2,-89 -1,-69 -2,-138 -4,-207 -5,-12 -9,-24 -14,-37 -6,-15 -11,-30 -17,-45 -32,-11 -63,-23 -94,-34 -11,-45 -21,-90 -32,-135 -22,-67 -45,-133 -67,-200 -26,-74 -51,-147 -76,-221 62,-4 125,-8 187,-11 15,-6 30,-11 45,-16 28,1 55,3 82,4 50,45 101,91 151,136 34,36 69,71 104,107z"/>
   <path fill="#4B7F5B" d="M615 311c6,17 12,35 17,53 11,-4 23,-7 34,-11 20,-16 41,-32 61,-48 3,2 5,4 8,6 39,3 78,5 116,8 30,3 59,6 88,9 18,11 35,22 53,33 6,28 11,55 17,83 -7,25 -14,50 -21,75 6,20 11,41 17,62 4,4 7,8 11,12 13,14 26,28 39,42 7,21 14,41 21,62 0,21 0,42 0,63 -7,19 -14,39 -21,58 -10,19 -19,39 -29,58 8,23 17,45 25,67 15,12 30,25 45,37 -9,13 -19,25 -28,37 -6,11 -11,23 -17,34 -4,40 -9,80 -13,120 -4,28 -8,56 -12,83 -15,13 -30,26 -46,38 -23,10 -47,19 -71,29 -29,21 -58,42 -87,63 -18,17 -36,35 -54,53 -11,17 -23,35 -35,52 -32,-48 -65,-96 -97,-144 -40,-32 -80,-63 -120,-94 -55,-64 -109,-128 -163,-192 -1,-30 -2,-59 -2,-89 -2,-69 -3,-138 -5,-207 -4,-12 -9,-24 -14,-37 -5,-15 -11,-30 -17,-45 -31,-11 -63,-23 -94,-34 -11,-45 -21,-90 -32,-135 -22,-67 -45,-133 -67,-200 -25,-74 -50,-147 -76,-221 63,-4 125,-7 187,-11 15,-6 31,-11 46,-16 27,1 54,3 81,4 50,45 101,91 151,136 35,36 69,71 104,107z"/>
   <path fill="#4F8460" d="M609 303c6,17 12,35 18,53 11,-4 22,-7 33,-11 20,-16 41,-32 61,-48 3,2 6,4 8,6 39,3 78,5 117,8 29,3 58,6 87,9 18,11 36,22 54,33 5,28 11,55 16,83 -7,25 -14,50 -21,75 6,20 12,41 17,62 4,4 8,8 11,12 13,14 26,28 39,42 7,21 14,41 21,62 0,21 0,42 0,63 -7,19 -14,39 -21,58 -9,19 -19,39 -29,58 8,23 17,45 25,67 15,12 30,25 45,37 -9,13 -19,25 -28,37 -6,12 -11,23 -17,34 -4,40 -8,80 -13,120 -4,28 -8,56 -12,83 -15,13 -30,26 -45,38 -24,10 -48,19 -71,29 -30,21 -59,42 -88,63 -18,17 -35,35 -53,53 -12,18 -24,35 -35,52 -33,-48 -65,-96 -98,-144 -40,-32 -80,-63 -120,-94 -54,-64 -109,-128 -163,-192 -1,-30 -2,-59 -2,-89 -2,-69 -3,-138 -4,-207 -5,-12 -10,-24 -14,-37 -6,-15 -12,-30 -18,-45 -31,-11 -63,-23 -94,-34 -10,-45 -21,-90 -31,-135 -23,-67 -45,-133 -68,-200 -25,-74 -50,-147 -75,-221 62,-4 124,-7 187,-11 15,-6 30,-11 45,-16 27,1 54,3 81,4 51,45 101,91 151,136 35,36 69,71 104,107z"/>
   <path fill="#548964" d="M603 295c6,17 12,35 18,53 11,-4 22,-7 33,-11 21,-16 41,-32 62,-48 2,2 5,4 7,6 39,3 78,5 117,8 29,3 58,6 87,9 18,11 36,22 54,33 5,28 11,55 16,83 -7,25 -14,50 -20,75 5,20 11,41 16,62 4,4 8,8 11,12 13,14 27,28 40,42 6,21 13,42 20,62 0,21 0,42 0,63 -7,19 -14,39 -20,58 -10,19 -20,39 -30,58 9,23 17,45 25,67 15,12 30,25 46,37 -10,13 -19,25 -29,37 -5,12 -11,23 -17,34 -4,40 -8,80 -12,121 -4,27 -9,55 -13,83 -15,12 -30,25 -45,37 -24,10 -48,19 -71,29 -29,21 -58,42 -87,63 -18,18 -36,35 -54,53 -12,18 -23,35 -35,52 -33,-48 -65,-96 -98,-144 -40,-32 -80,-63 -120,-94 -54,-64 -109,-128 -163,-192 -1,-30 -1,-59 -2,-89 -1,-69 -3,-138 -4,-207 -5,-12 -10,-24 -14,-36 -6,-16 -12,-31 -18,-46 -31,-11 -62,-23 -94,-34 -10,-45 -21,-90 -31,-135 -23,-67 -45,-133 -68,-200 -25,-74 -50,-147 -75,-221 62,-4 124,-7 187,-11 15,-6 30,-11 45,-16 27,1 54,3 82,4 50,45 100,91 150,136 35,36 70,71 104,107z"/>
   <path fill="#588E69" d="M598 287c5,17 11,35 17,53 11,-4 22,-7 33,-11 21,-16 41,-32 62,-48 2,2 5,4 8,6 38,3 77,5 116,8 29,3 58,6 87,9 18,11 36,22 54,33 5,28 11,55 17,83 -7,25 -14,50 -21,75 5,20 11,41 17,62 3,4 7,8 11,12 13,14 26,28 39,42 7,21 14,42 21,62 0,21 0,42 0,63 -7,19 -14,39 -21,58 -10,19 -20,39 -30,59 9,22 17,44 26,66 15,12 30,25 45,38 -10,12 -19,24 -29,36 -5,12 -11,23 -16,34 -5,40 -9,80 -13,121 -4,27 -8,55 -13,83 -15,12 -30,25 -45,37 -24,10 -47,19 -71,29 -29,21 -58,42 -87,63 -18,18 -36,35 -54,53 -12,18 -23,35 -35,52 -32,-48 -65,-96 -98,-144 -40,-32 -80,-63 -120,-94 -54,-64 -108,-128 -163,-192 -1,-30 -1,-59 -2,-89 -1,-69 -3,-138 -4,-207 -5,-12 -9,-24 -14,-36 -6,-16 -12,-31 -17,-46 -32,-11 -63,-23 -95,-34 -10,-45 -21,-90 -31,-135 -23,-67 -45,-133 -68,-200 -25,-74 -50,-147 -75,-221 62,-4 125,-7 187,-11 15,-6 30,-11 45,-16 27,1 55,3 82,4 50,45 100,91 151,136 34,36 69,71 104,107z"/>
   <path fill="#5C936D" d="M592 279c6,17 11,35 17,53 11,-4 22,-7 34,-11 20,-16 41,-32 61,-48 3,2 5,4 8,6 39,3 77,5 116,8 29,3 58,6 87,9 18,11 36,22 54,33 6,28 11,55 17,83 -7,25 -14,50 -21,75 6,20 11,41 17,62 3,4 7,8 11,12 13,14 26,28 39,42 7,21 14,42 21,62 0,21 0,42 0,63 -7,19 -14,39 -21,58 -10,19 -20,39 -29,59 8,22 16,44 25,66 15,12 30,25 45,38 -9,12 -19,24 -28,36 -6,12 -12,23 -17,34 -4,40 -9,80 -13,121 -4,27 -8,55 -12,83 -16,12 -31,25 -46,37 -23,10 -47,19 -71,29 -29,21 -58,42 -87,63 -18,18 -36,35 -54,53 -11,18 -23,35 -35,52 -32,-48 -65,-96 -97,-144 -40,-31 -80,-63 -120,-94 -55,-64 -109,-128 -164,-192 0,-29 -1,-59 -2,-89 -1,-69 -2,-138 -4,-207 -5,-12 -9,-24 -14,-36 -6,-16 -11,-31 -17,-46 -32,-11 -63,-22 -94,-34 -11,-45 -21,-90 -32,-135 -22,-67 -45,-133 -67,-200 -26,-74 -51,-147 -76,-221 63,-4 125,-7 187,-11 15,-5 30,-11 45,-16 28,1 55,3 82,4 50,45 101,91 151,136 34,36 69,71 104,107z"/>
   <path fill="#609872" d="M586 271c6,18 12,35 17,53 11,-4 23,-7 34,-11 20,-16 41,-32 61,-48 3,2 5,4 8,6 39,3 78,5 116,8 30,3 59,6 88,9 18,11 35,22 53,33 6,28 11,55 17,83 -7,25 -14,50 -21,75 6,20 11,41 17,62 4,4 7,8 11,12 13,14 26,28 39,42 7,21 14,42 21,62 0,21 0,42 0,63 -7,19 -14,39 -21,58 -10,20 -19,39 -29,59 8,22 17,44 25,66 15,12 30,25 45,38 -9,12 -19,24 -28,36 -6,12 -11,23 -17,34 -4,40 -8,80 -13,121 -4,27 -8,55 -12,83 -15,12 -30,25 -46,37 -23,10 -47,19 -71,29 -29,21 -58,42 -87,63 -18,18 -36,36 -54,53 -11,18 -23,35 -35,52 -32,-48 -65,-96 -97,-144 -40,-31 -80,-63 -120,-94 -55,-64 -109,-128 -163,-192 -1,-29 -2,-59 -2,-89 -2,-69 -3,-138 -5,-207 -4,-12 -9,-24 -14,-36 -5,-15 -11,-31 -17,-46 -31,-11 -63,-22 -94,-34 -11,-45 -21,-90 -32,-135 -22,-67 -45,-133 -67,-200 -25,-73 -50,-147 -76,-221 63,-4 125,-7 187,-11 15,-5 31,-11 46,-16 27,1 54,3 81,4 51,45 101,91 151,136 35,36 69,71 104,107z"/>
   <path fill="#659D76" d="M580 263c6,18 12,35 18,53 11,-4 22,-7 33,-11 21,-16 41,-32 61,-48 3,2 6,4 8,6 39,3 78,5 117,8 29,3 58,6 87,9 18,11 36,22 54,33 5,28 11,55 16,83 -7,25 -14,50 -21,75 6,20 12,41 17,62 4,4 8,8 11,12 13,14 26,28 39,42 7,21 14,42 21,62 0,21 0,42 0,63 -7,19 -14,39 -21,58 -9,20 -19,39 -29,59 8,22 17,44 25,66 15,12 30,25 45,38 -9,12 -19,24 -28,36 -6,12 -11,23 -17,34 -4,40 -8,80 -12,121 -5,27 -9,55 -13,83 -15,12 -30,25 -45,37 -24,10 -48,19 -71,29 -30,21 -59,42 -88,63 -18,18 -35,36 -53,53 -12,18 -24,35 -35,52 -33,-48 -65,-96 -98,-144 -40,-31 -80,-63 -120,-94 -54,-64 -109,-128 -163,-192 -1,-29 -2,-59 -2,-89 -2,-69 -3,-138 -4,-207 -5,-12 -10,-24 -14,-36 -6,-15 -12,-31 -18,-46 -31,-11 -63,-22 -94,-34 -10,-45 -21,-90 -31,-135 -23,-67 -45,-133 -68,-200 -25,-73 -50,-147 -75,-221 62,-4 124,-7 187,-11 15,-5 30,-11 45,-16 27,1 54,3 81,4 51,46 101,91 151,136 35,36 70,71 104,107z"/>
   <path fill="#69A27B" d="M574 255c6,18 12,35 18,53 11,-4 22,-7 33,-11 21,-16 41,-32 62,-48 2,2 5,4 7,6 39,3 78,6 117,8 29,3 58,6 87,9 18,11 36,22 54,33 5,28 11,55 16,83 -7,25 -13,50 -20,75 5,20 11,41 16,62 4,4 8,8 12,12 13,14 26,28 39,42 6,21 13,42 20,62 0,21 0,42 0,63 -7,19 -14,39 -20,58 -10,20 -20,39 -30,59 9,22 17,44 25,66 15,13 31,25 46,38 -10,12 -19,24 -29,37 -5,11 -11,22 -17,33 -4,40 -8,80 -12,121 -4,27 -9,55 -13,83 -15,12 -30,25 -45,37 -24,10 -48,19 -71,29 -29,21 -58,42 -87,63 -18,18 -36,36 -54,53 -12,18 -23,35 -35,52 -33,-48 -65,-96 -98,-144 -40,-31 -80,-63 -120,-94 -54,-64 -109,-128 -163,-192 -1,-29 -1,-59 -2,-89 -1,-69 -3,-138 -4,-207 -5,-12 -10,-24 -14,-36 -6,-15 -12,-31 -18,-46 -31,-11 -62,-22 -94,-34 -10,-45 -21,-90 -31,-135 -23,-67 -45,-133 -68,-200 -25,-73 -50,-147 -75,-221 62,-4 124,-7 187,-11 15,-5 30,-11 45,-16 27,1 54,3 82,4 50,46 100,91 150,136 35,36 70,71 104,107z"/>
  </g>
  <polygon fill="#6DA77F" points="569,247 586,300 619,290 681,241 689,247 805,255 892,264 946,297 963,380 942,455 959,517 970,529 1009,571 1030,633 1030,696 1009,754 979,813 1005,879 1050,917 1021,954 1005,987 992,1108 979,1191 934,1228 863,1257 776,1320 722,1374 687,1425 589,1281 469,1187 306,995 304,906 300,699 286,663 269,617 174,583 143,448 75,248 0,27 187,16 232,0 314,4 465,140 "/>
 </g>
</svg>
