<?xml version="1.0" encoding="UTF-8"?>
<!DOCTYPE svg PUBLIC "-//W3C//DTD SVG 1.1//EN" "http://www.w3.org/Graphics/SVG/1.1/DTD/svg11.dtd">
<!-- Creator: CorelDRAW X8 -->
<svg xmlns="http://www.w3.org/2000/svg" xml:space="preserve" width="100%" height="100%" version="1.1" shape-rendering="geometricPrecision" text-rendering="geometricPrecision" image-rendering="optimizeQuality" fill-rule="evenodd" clip-rule="evenodd"
viewBox="0 0 1252 1307"
 xmlns:xlink="http://www.w3.org/1999/xlink">
 <g id="Layer_x0020_1">
  <metadata id="CorelCorpID_0Corel-Layer"/>
  <g id="_641325129040">
   <g id="_579246087584">
    <g id="Layers">
     <g id="Himachal_Pradesh">
      <polygon fill="#143D21" points="463,184 472,189 485,202 489,220 495,236 499,247 504,260 526,264 556,266 572,270 591,288 599,295 623,319 635,325 651,324 663,315 677,309 693,312 706,315 724,309 743,300 760,290 773,286 789,289 801,297 807,309 812,319 821,326 832,326 840,335 847,362 859,394 871,403 882,413 910,416 935,417 950,408 959,395 971,385 984,379 994,375 1000,373 1009,377 1013,387 1014,397 1010,409 1003,425 994,439 982,452 977,462 977,472 981,481 993,489 1005,485 1009,476 1016,466 1022,459 1026,452 1032,445 1070,483 1066,525 1045,546 1046,575 1089,585 1132,645 1139,654 1159,701 1144,747 1149,816 1135,840 1121,862 1129,889 1153,924 1187,934 1199,926 1208,941 1212,948 1219,959 1223,971 1229,983 1229,997 1226,1011 1217,1021 1205,1021 1194,1016 1186,1007 1179,998 1163,994 1145,997 1131,989 1118,985 1102,982 1080,972 1060,967 1038,958 1020,952 1019,952 1008,960 994,969 974,973 953,974 939,984 920,991 900,996 889,1001 871,1002 862,1007 849,1016 841,1026 837,1043 834,1061 824,1073 815,1089 808,1102 801,1112 791,1117 783,1123 772,1133 773,1134 775,1153 775,1177 782,1188 798,1195 808,1208 809,1221 805,1230 798,1247 788,1265 773,1284 755,1298 750,1295 729,1301 714,1307 700,1297 689,1288 672,1275 653,1276 634,1278 611,1270 583,1258 568,1245 563,1223 556,1200 545,1175 533,1153 517,1142 515,1141 499,1126 483,1112 461,1090 431,1082 420,1090 420,1091 412,1084 396,1073 388,1063 379,1047 378,1030 377,1010 372,999 369,991 369,974 372,963 373,955 373,945 373,944 368,936 330,911 316,894 296,877 295,876 285,873 277,879 262,897 251,901 235,902 216,893 196,863 180,838 175,824 167,807 161,793 161,772 156,752 150,736 138,715 132,704 117,684 112,667 112,659 111,649 110,635 100,630 84,627 64,624 58,614 47,607 30,600 15,593 2,583 0,563 11,542 27,527 56,513 72,496 86,478 98,467 106,454 106,453 101,442 95,434 88,426 87,415 96,402 107,385 117,352 117,335 112,321 103,303 97,285 107,271 131,269 154,271 171,272 183,266 194,256 196,245 198,234 204,225 211,220 221,219 228,223 236,226 245,221 251,210 259,193 267,184 282,174 301,170 344,171 374,171 387,180 399,184 410,184 417,183 428,175 437,167 440,165 444,162 451,166 453,179 "/>
     </g>
    </g>
   </g>
  </g>
  <g id="_348050421712">
   <g>
    <path fill="#184225" d="M464 176c4,2 7,4 10,6 4,4 8,8 12,12 2,6 3,12 4,18 2,5 4,11 7,17 1,3 2,7 3,11 2,4 4,8 5,13 8,1 15,2 22,4 10,0 20,0 31,1 5,1 10,3 15,4 6,6 13,12 19,18 2,3 5,5 8,8 8,8 16,16 24,24 4,2 8,4 12,6 6,-1 11,-1 16,-1 4,-4 8,-7 13,-10 4,-2 9,-4 13,-5 5,0 11,1 16,2 5,1 9,3 13,4 6,-2 12,-4 18,-6 6,-4 13,-7 19,-10 6,-3 12,-6 17,-10 5,-1 9,-2 13,-3 6,0 11,1 16,2 4,3 8,6 12,8 2,4 4,8 6,13 2,3 3,6 5,9 3,2 6,5 9,7 4,0 7,0 11,0 3,3 5,7 8,10 3,9 5,18 7,27 4,10 8,21 12,32 4,2 8,5 12,8 4,3 7,7 11,10 9,1 19,2 28,3 9,0 17,1 25,1 5,-3 10,-6 15,-9 3,-4 6,-8 9,-12 4,-4 8,-7 12,-11 4,-2 9,-4 14,-6 3,-1 6,-3 9,-4 2,-1 4,-1 6,-2 3,2 6,3 9,4 1,3 3,7 4,10 0,3 1,6 1,10 -1,4 -2,8 -4,12 -2,5 -5,11 -7,16 -3,5 -6,10 -9,14 -4,5 -8,9 -12,13 -1,4 -3,7 -5,10 0,4 0,7 0,11 1,2 3,5 4,8 4,3 8,5 12,8 4,-2 8,-3 12,-4 1,-3 3,-6 4,-9 3,-3 5,-7 7,-10 2,-2 4,-4 6,-6 2,-3 3,-6 4,-8 2,-2 4,-5 6,-7 13,13 26,25 38,38 -1,14 -2,28 -4,42 -7,7 -14,14 -21,21 1,10 1,19 1,29 15,4 29,7 43,11 15,20 29,39 43,59 2,3 4,6 7,10 6,15 13,31 20,46 -5,16 -10,31 -15,47 2,22 4,45 5,68 -4,8 -9,16 -14,25 -5,7 -9,14 -14,21 3,9 6,18 8,27 8,12 16,24 24,36 11,3 23,6 34,9 4,-3 8,-5 12,-8 3,5 6,10 9,15 2,2 3,5 4,7 2,4 5,7 7,11 1,4 2,8 4,12 2,4 4,8 6,13 0,4 0,9 0,14 -1,4 -2,9 -3,14 -3,3 -6,6 -9,10 -4,-1 -8,-1 -12,-1 -3,-1 -7,-3 -11,-4 -2,-3 -5,-6 -8,-9 -2,-3 -5,-6 -7,-9 -6,-2 -11,-3 -16,-5 -6,1 -12,2 -18,3 -4,-2 -9,-5 -14,-7 -4,-2 -8,-3 -12,-5 -6,-1 -11,-2 -17,-3 -7,-3 -15,-6 -22,-10 -7,-1 -13,-3 -20,-5 -7,-3 -14,-6 -22,-9 -6,-2 -12,-4 -18,-6 0,0 0,0 -1,0 -3,3 -7,6 -11,9 -4,3 -9,6 -14,9 -7,1 -13,2 -20,3 -7,0 -14,1 -21,1 -5,4 -9,7 -14,11 -6,2 -13,4 -19,6 -6,2 -13,3 -19,5 -4,2 -8,3 -12,5 -6,0 -12,1 -18,2 -3,1 -6,3 -9,4 -4,3 -8,6 -12,9 -3,4 -6,7 -9,11 -1,5 -3,11 -4,16 -1,6 -2,12 -3,18 -3,4 -6,8 -10,12 -3,5 -6,11 -9,16 -2,4 -5,8 -7,13 -2,3 -5,6 -7,10 -3,2 -6,4 -10,5 -2,3 -5,5 -8,7 -3,3 -7,6 -11,9 0,1 1,1 1,1 1,7 1,13 2,19 0,8 0,16 0,24 2,4 5,7 7,11 5,3 11,5 16,7 3,5 7,9 10,13 0,5 1,9 1,14 -1,2 -3,5 -4,8 -2,6 -5,12 -7,18 -3,5 -7,11 -10,17 -5,6 -10,13 -15,19 -6,5 -12,10 -17,14 -2,0 -4,-1 -6,-2 -7,2 -14,3 -21,5 -5,2 -10,4 -14,6 -5,-3 -10,-7 -14,-10 -4,-3 -8,-6 -12,-9 -6,-4 -11,-9 -17,-13 -6,0 -12,1 -18,2 -7,0 -13,0 -20,1 -7,-3 -15,-5 -23,-8 -9,-3 -19,-7 -28,-11 -5,-5 -10,-9 -15,-13 -2,-8 -3,-15 -5,-23 -2,-8 -4,-15 -6,-23 -4,-8 -8,-17 -12,-25 -4,-7 -8,-15 -12,-22 -5,-4 -10,-7 -16,-10 0,-1 -1,-1 -1,-1 -6,-6 -11,-11 -17,-16 -5,-4 -10,-9 -16,-14 -7,-7 -14,-15 -22,-22 -10,-2 -19,-5 -29,-7 -4,2 -8,5 -12,7 0,0 0,1 0,1 -3,-2 -5,-5 -8,-7 -5,-4 -11,-7 -16,-11 -3,-3 -6,-7 -8,-10 -3,-5 -6,-10 -9,-16 0,-5 0,-11 -1,-16 0,-7 -1,-14 -1,-20 -2,-4 -3,-8 -5,-11 -1,-3 -2,-6 -3,-9 0,-5 0,-11 0,-16 1,-4 2,-8 3,-12 0,-2 0,-5 1,-8 0,-3 0,-6 0,-10 0,0 0,0 0,-1 -2,-2 -4,-5 -5,-7 -13,-9 -25,-17 -38,-26 -5,-6 -9,-11 -14,-17 -6,-6 -13,-11 -19,-16 -1,-1 -1,-1 -2,-1 -3,-1 -6,-2 -10,-3 -2,2 -5,3 -8,5 -5,6 -10,12 -15,18 -4,2 -7,3 -11,5 -5,0 -10,0 -15,0 -7,-3 -14,-6 -20,-9 -7,-10 -14,-19 -20,-29 -5,-9 -10,-17 -15,-26 -2,-4 -4,-9 -6,-14 -3,-5 -5,-11 -8,-16 -2,-5 -4,-10 -5,-14 0,-8 0,-15 0,-22 -2,-7 -4,-13 -6,-20 -2,-5 -4,-11 -6,-16 -4,-7 -8,-14 -12,-21 -2,-3 -4,-7 -6,-10 -5,-7 -10,-14 -15,-21 -2,-5 -3,-11 -5,-16 0,-3 0,-6 0,-8 -1,-4 -1,-7 -1,-10 0,-5 0,-10 0,-15 -4,-2 -8,-3 -11,-5 -5,-1 -11,-2 -16,-2 -6,-1 -13,-3 -19,-4 -2,-3 -5,-6 -7,-10 -3,-2 -7,-4 -11,-6 -6,-3 -11,-6 -17,-8 -5,-2 -10,-5 -15,-7 -4,-3 -9,-6 -13,-10 -1,-6 -1,-13 -2,-20 4,-7 8,-14 11,-20 6,-6 11,-11 16,-16 10,-5 20,-9 29,-14 6,-6 11,-11 16,-16 5,-7 9,-13 14,-19 4,-3 8,-7 12,-10 3,-5 6,-9 9,-14 -1,0 -1,-1 -1,-1 -2,-4 -3,-7 -5,-11 -2,-2 -4,-5 -6,-8 -2,-2 -5,-5 -7,-7 0,-4 0,-8 0,-12 2,-4 5,-9 8,-13 4,-6 7,-11 11,-16 3,-11 7,-22 10,-33 0,-6 0,-12 0,-18 -2,-4 -4,-9 -5,-13 -3,-7 -6,-13 -9,-19 -2,-6 -4,-12 -6,-18 3,-4 7,-9 10,-14 8,-1 16,-1 24,-2 8,1 15,1 23,2 6,0 12,1 18,1 4,-2 7,-4 11,-6 4,-3 7,-6 11,-10 1,-3 1,-7 2,-11 0,-3 1,-7 2,-11 2,-3 4,-6 6,-9 2,-2 5,-3 7,-5 3,0 7,-1 10,-1 3,2 5,3 7,5 3,0 5,1 8,2 3,-2 6,-3 9,-4 2,-4 4,-8 6,-12 2,-5 5,-11 8,-17 3,-3 6,-6 8,-9 5,-3 10,-7 16,-10 6,-1 12,-3 18,-4 14,1 29,1 43,2 10,0 20,0 30,0 5,3 9,6 13,9 4,1 8,2 12,4 4,-1 8,-1 11,-1 3,0 5,0 8,-1 3,-2 6,-5 10,-7 3,-3 6,-6 9,-8 1,-1 2,-2 3,-3 1,-1 3,-1 4,-2 2,1 5,2 7,4 1,4 2,8 2,12 4,2 7,3 10,5z"/>
   </g>
   <g>
    <path fill="#1C472A" d="M466 168c3,2 6,4 9,6 4,4 8,8 12,12 2,6 3,12 4,18 2,6 5,11 7,17 1,4 2,7 3,11 2,4 4,9 6,13 7,1 14,3 21,4 10,0 20,1 31,1 5,2 10,3 15,4 6,6 13,12 19,18 2,3 5,5 8,8 8,8 16,16 24,24 4,2 8,4 13,6 5,0 10,-1 15,-1 4,-3 8,-6 13,-10 4,-2 9,-3 13,-5 6,1 11,2 16,3 5,1 9,2 13,3 6,-2 12,-4 18,-6 7,-3 13,-7 19,-10 6,-3 12,-6 18,-9 4,-2 8,-3 12,-4 6,1 11,2 16,3 4,2 8,5 12,7 2,5 4,9 6,13 2,3 3,6 5,9 3,3 6,5 9,8 4,0 7,0 11,0 3,3 5,6 8,9 3,9 5,18 7,27 4,11 8,21 12,32 4,3 8,5 12,8 4,4 8,7 11,10 10,1 19,2 28,3 9,1 17,1 25,1 5,-3 10,-6 15,-9 3,-4 6,-8 9,-12 4,-4 8,-7 12,-11 4,-2 9,-4 14,-6 3,-1 6,-2 9,-4 2,0 4,-1 6,-1 3,1 6,2 9,4 1,3 3,6 4,9 1,3 1,7 1,10 -1,4 -2,8 -3,12 -3,6 -6,11 -8,16 -3,5 -6,10 -9,15 -4,4 -8,8 -12,13 -1,3 -3,6 -5,10 0,3 0,6 0,10 2,3 3,5 4,8 4,3 8,5 12,8 4,-1 8,-3 12,-4 1,-3 3,-6 4,-9 3,-3 5,-7 7,-10 2,-2 4,-4 6,-6 2,-3 3,-5 4,-8 2,-2 4,-4 6,-7 13,13 26,26 39,38 -2,14 -3,28 -4,42 -8,8 -15,15 -22,22 1,9 1,19 1,28 15,4 29,7 44,11 14,20 28,40 42,59 2,4 5,7 7,10 7,15 13,31 20,46 -5,16 -10,31 -15,47 2,23 4,46 6,68 -5,9 -10,17 -15,25 -4,7 -9,14 -13,21 2,9 5,18 7,27 8,12 16,24 24,36 11,3 23,6 34,10 4,-3 8,-6 12,-9 3,5 6,10 9,15 2,3 3,5 4,7 3,4 5,8 7,11 1,4 3,8 4,12 2,5 4,9 6,13 0,4 0,9 0,14 -1,5 -2,9 -3,14 -3,3 -6,7 -9,10 -4,0 -8,0 -11,-1 -4,-1 -8,-3 -12,-4 -2,-3 -5,-6 -7,-9 -3,-3 -6,-6 -8,-9 -6,-2 -11,-3 -16,-4 -6,0 -12,1 -17,2 -5,-2 -10,-5 -14,-7 -5,-2 -9,-3 -13,-5 -6,-1 -11,-2 -17,-3 -7,-3 -15,-6 -22,-9 -7,-2 -13,-4 -20,-5 -7,-3 -14,-6 -21,-9 -7,-2 -13,-4 -19,-7 0,0 0,0 -1,0 -3,3 -7,6 -11,9 -4,3 -9,6 -14,9 -6,1 -13,2 -20,3 -7,1 -14,1 -21,1 -5,4 -9,7 -14,11 -6,2 -12,4 -19,7 -6,1 -13,3 -19,4 -4,2 -8,3 -12,5 -6,1 -12,1 -17,2 -4,1 -7,3 -10,4 -4,3 -8,6 -12,9 -3,4 -6,7 -9,11 -1,5 -3,11 -4,16 -1,6 -2,13 -3,19 -3,4 -6,8 -9,11 -4,6 -7,11 -10,16 -2,4 -4,9 -7,13 -2,3 -5,7 -7,10 -3,2 -6,4 -10,6 -2,2 -5,4 -7,6 -4,3 -8,6 -12,9 1,1 1,1 1,1 1,7 1,13 2,20 0,7 0,15 0,23 2,4 5,8 7,11 5,3 11,5 16,8 4,4 7,8 10,12 0,5 1,9 1,14 -1,3 -2,6 -4,8 -2,6 -4,12 -7,18 -3,6 -7,11 -10,17 -5,6 -10,13 -15,19 -5,5 -11,10 -17,15 -2,-1 -4,-2 -5,-3 -8,2 -15,4 -22,6 -5,2 -9,4 -14,6 -5,-4 -10,-7 -14,-11 -4,-3 -8,-6 -12,-8 -5,-5 -11,-9 -16,-14 -7,1 -13,1 -19,2 -7,0 -13,1 -20,1 -7,-2 -15,-5 -23,-7 -9,-4 -19,-8 -28,-12 -5,-4 -10,-9 -15,-13 -1,-7 -3,-15 -5,-22 -2,-8 -4,-16 -6,-24 -4,-8 -8,-16 -12,-25 -4,-7 -8,-14 -12,-22 -5,-3 -10,-7 -16,-10 0,0 -1,-1 -1,-1 -6,-5 -11,-10 -17,-15 -5,-5 -10,-10 -16,-15 -7,-7 -14,-14 -22,-22 -9,-2 -19,-5 -29,-7 -4,2 -8,5 -12,7 0,1 0,1 0,1 -3,-2 -5,-4 -7,-7 -6,-3 -12,-7 -17,-11 -3,-3 -5,-6 -8,-10 -3,-5 -6,-10 -9,-15 0,-6 0,-12 -1,-17 0,-7 -1,-14 -1,-20 -2,-4 -3,-7 -5,-11 -1,-3 -2,-6 -2,-8 0,-6 0,-12 0,-17 0,-4 1,-8 2,-11 0,-3 0,-6 1,-9 0,-3 0,-6 0,-9 0,-1 0,-1 0,-1 -2,-3 -4,-6 -5,-8 -13,-9 -25,-17 -38,-26 -4,-5 -9,-11 -14,-17 -6,-5 -13,-11 -19,-16 -1,0 -1,-1 -1,-1 -4,-1 -7,-2 -11,-3 -2,2 -5,4 -7,6 -5,6 -11,12 -16,18 -3,1 -7,3 -11,4 -5,0 -10,0 -15,1 -7,-3 -14,-6 -20,-9 -7,-10 -14,-20 -20,-30 -5,-8 -10,-17 -15,-25 -2,-5 -4,-10 -6,-15 -3,-5 -5,-11 -8,-16 -2,-5 -4,-9 -5,-14 0,-7 0,-15 0,-22 -2,-6 -4,-13 -5,-20 -3,-5 -5,-10 -7,-16 -4,-7 -8,-14 -12,-21 -2,-3 -4,-7 -6,-10 -5,-7 -10,-14 -15,-20 -2,-6 -3,-12 -5,-17 0,-3 0,-5 0,-8 0,-3 -1,-7 -1,-10 0,-5 0,-10 0,-15 -4,-1 -8,-3 -11,-5 -5,-1 -11,-1 -16,-2 -6,-1 -13,-2 -19,-3 -2,-4 -4,-7 -7,-10 -3,-3 -7,-5 -11,-7 -6,-3 -11,-5 -17,-8 -5,-2 -10,-4 -15,-7 -4,-3 -9,-6 -13,-9 -1,-7 -1,-14 -2,-21 4,-7 8,-13 11,-20 6,-5 11,-11 16,-16 10,-5 20,-9 29,-14 6,-5 11,-11 17,-16 4,-6 9,-12 13,-19 4,-3 8,-7 12,-10 3,-5 6,-9 9,-14 -1,0 -1,0 -1,-1 -2,-3 -3,-7 -5,-10 -2,-3 -4,-6 -6,-8 -2,-3 -5,-6 -7,-8 0,-4 0,-8 0,-11 2,-5 5,-9 8,-14 4,-5 7,-11 11,-16 4,-11 7,-22 10,-33 0,-6 0,-12 0,-18 -2,-4 -3,-8 -5,-13 -3,-6 -6,-13 -9,-19 -2,-6 -4,-12 -6,-17 3,-5 7,-10 10,-15 8,0 16,-1 24,-2 8,1 16,2 23,2 6,1 12,1 18,1 4,-2 8,-3 11,-5 4,-4 8,-7 11,-10 1,-4 1,-8 2,-12 1,-3 1,-7 2,-10 2,-3 4,-7 6,-10 2,-2 5,-3 7,-5 3,0 7,0 11,0 2,1 4,3 6,4 3,1 6,1 8,2 3,-1 6,-3 9,-4 2,-4 4,-8 6,-11 3,-6 5,-12 8,-17 3,-3 6,-7 8,-10 6,-3 11,-6 16,-10 6,-1 12,-2 18,-4 14,1 29,1 43,2 10,0 20,0 30,0 5,3 9,6 13,9 4,1 8,2 12,4 4,0 8,-1 11,-1 3,0 5,0 8,0 3,-3 6,-6 10,-8 3,-3 6,-5 9,-8 1,-1 2,-2 3,-2 1,-1 3,-2 4,-3 2,1 5,3 7,4 1,4 2,8 3,12 3,2 6,4 10,5z"/>
   </g>
   <g>
    <path fill="#214C2E" d="M467 160c3,2 6,4 9,6 4,4 8,8 13,12 1,6 2,12 4,18 2,6 4,12 6,17 1,4 2,8 3,11 2,5 4,9 6,13 7,2 14,3 21,4 10,1 21,1 31,1 5,2 10,3 15,5 7,6 13,12 19,18 3,2 5,5 8,7 8,8 16,16 24,24 5,2 9,4 13,6 5,0 10,0 15,-1 4,-3 8,-6 13,-9 4,-2 9,-4 13,-6 6,1 11,2 16,3 5,1 9,2 13,3 6,-2 12,-4 18,-6 7,-3 13,-6 19,-10 6,-3 12,-6 18,-9 4,-1 8,-3 13,-4 5,1 10,2 15,3 4,2 8,5 12,8 2,4 4,8 6,12 2,3 4,6 5,10 3,2 6,4 9,7 4,0 7,0 11,0 3,3 6,6 8,9 3,9 5,18 8,27 4,11 7,22 11,32 4,3 8,6 12,9 4,3 8,6 11,10 10,1 19,2 28,2 9,1 17,1 26,2 4,-3 9,-6 14,-9 3,-4 6,-9 9,-13 4,-3 8,-7 12,-10 5,-2 9,-4 14,-7 3,-1 6,-2 9,-4 2,0 4,-1 6,-1 3,1 6,3 9,4 1,3 3,6 4,9 1,4 1,7 1,10 -1,4 -2,9 -3,13 -3,5 -6,10 -8,15 -3,5 -6,10 -9,15 -4,4 -8,9 -11,13 -2,3 -4,7 -5,10 0,3 0,7 0,10 1,3 2,6 3,9 4,2 8,5 12,7 4,-1 8,-2 12,-4 2,-3 3,-6 5,-9 2,-3 4,-6 6,-10 2,-2 4,-4 6,-6 2,-2 3,-5 4,-8 2,-2 4,-4 7,-6 12,12 25,25 38,38 -2,14 -3,28 -4,42 -7,7 -14,14 -22,21 1,9 1,19 2,29 14,3 28,7 43,10 14,20 28,40 42,60 2,3 5,6 7,9 7,16 13,31 20,47 -5,15 -10,31 -15,46 2,23 4,46 6,69 -5,8 -10,16 -15,24 -4,7 -9,14 -13,22 2,8 5,17 7,26 8,12 16,24 24,36 11,3 23,7 34,10 4,-3 8,-6 12,-9 3,5 7,10 10,15 1,3 2,5 3,8 3,3 5,7 7,10 1,5 3,9 4,13 2,4 4,8 6,12 0,5 0,9 0,14 -1,5 -2,9 -3,14 -3,3 -6,7 -9,10 -3,0 -7,0 -11,0 -4,-2 -8,-3 -12,-5 -2,-3 -5,-6 -7,-9 -3,-3 -6,-6 -8,-9 -5,-1 -11,-3 -16,-4 -6,1 -12,2 -17,3 -5,-3 -10,-5 -14,-8 -5,-1 -9,-3 -13,-4 -6,-1 -11,-2 -16,-4 -8,-3 -15,-6 -23,-9 -6,-2 -13,-3 -19,-5 -8,-3 -15,-6 -22,-9 -6,-2 -13,-4 -19,-6 0,0 0,0 0,0 -4,3 -8,5 -12,8 -4,3 -9,6 -14,9 -6,1 -13,2 -20,3 -7,1 -14,1 -21,2 -4,3 -9,7 -14,10 -6,2 -12,5 -19,7 -6,1 -13,3 -19,4 -4,2 -8,4 -12,5 -6,1 -12,2 -17,2 -4,2 -7,3 -10,5 -4,3 -8,6 -12,8 -3,4 -6,8 -9,11 -1,6 -3,11 -4,16 -1,7 -2,13 -3,19 -3,4 -6,8 -9,12 -4,5 -7,10 -10,15 -2,5 -4,9 -7,13 -2,4 -4,7 -7,10 -3,2 -6,4 -9,6 -3,2 -6,4 -8,6 -4,3 -8,7 -11,10 0,0 0,0 0,1 1,6 2,13 2,19 0,8 0,16 0,23 2,4 5,8 7,12 5,2 11,5 16,7 4,4 7,8 10,13 1,4 1,9 1,13 -1,3 -2,6 -3,9 -3,5 -5,11 -8,17 -3,6 -6,12 -10,17 -5,7 -10,13 -14,19 -6,5 -12,10 -18,15 -2,-1 -4,-2 -5,-3 -7,2 -15,4 -22,6 -5,2 -9,4 -14,6 -5,-4 -10,-7 -14,-11 -4,-2 -8,-5 -12,-8 -5,-5 -11,-9 -16,-14 -7,1 -13,2 -19,2 -7,0 -13,1 -19,1 -8,-2 -16,-5 -24,-7 -9,-4 -19,-8 -28,-12 -5,-4 -10,-8 -15,-13 -1,-7 -3,-15 -5,-22 -2,-8 -4,-16 -6,-24 -4,-8 -8,-16 -12,-24 -4,-8 -8,-15 -12,-23 -5,-3 -10,-6 -15,-10 -1,0 -2,-1 -2,-1 -6,-5 -11,-10 -16,-15 -6,-5 -11,-10 -17,-15 -7,-7 -14,-14 -21,-22 -10,-2 -20,-4 -30,-7 -4,3 -8,5 -12,7 0,1 0,1 0,2 -2,-3 -5,-5 -7,-8 -6,-3 -12,-7 -17,-10 -3,-4 -5,-7 -8,-10 -3,-6 -6,-11 -9,-16 0,-6 0,-11 0,-17 -1,-7 -2,-13 -2,-20 -2,-4 -3,-7 -5,-11 -1,-3 -1,-5 -2,-8 0,-6 0,-11 0,-17 0,-4 1,-7 2,-11 0,-3 1,-6 1,-9 0,-3 0,-6 0,-9 0,0 0,-1 0,-1 -2,-3 -3,-5 -5,-8 -13,-8 -25,-17 -38,-25 -4,-6 -9,-12 -14,-18 -6,-5 -13,-10 -19,-16 -1,0 -1,-1 -1,-1 -4,-1 -7,-2 -11,-3 -2,2 -5,4 -7,6 -5,6 -10,12 -15,18 -4,1 -8,3 -12,4 -5,0 -10,1 -15,1 -7,-3 -13,-6 -20,-9 -7,-10 -13,-20 -20,-30 -5,-8 -10,-17 -15,-25 -2,-5 -4,-10 -6,-15 -2,-5 -5,-10 -8,-16 -2,-4 -3,-9 -5,-14 0,-7 0,-14 0,-22 -2,-6 -4,-13 -5,-19 -3,-6 -5,-11 -7,-17 -4,-6 -8,-13 -12,-20 -2,-4 -4,-7 -6,-11 -5,-7 -10,-13 -15,-20 -2,-6 -3,-11 -5,-17 0,-3 0,-5 0,-8 0,-3 -1,-7 -1,-10 0,-5 0,-10 0,-15 -4,-1 -7,-3 -11,-4 -5,-1 -10,-2 -16,-3 -6,-1 -13,-2 -19,-3 -2,-3 -4,-7 -6,-10 -4,-2 -8,-5 -12,-7 -5,-2 -11,-5 -17,-8 -5,-2 -10,-4 -15,-6 -4,-4 -9,-7 -13,-10 -1,-7 -1,-14 -2,-21 4,-6 8,-13 12,-20 5,-5 10,-10 15,-16 10,-4 20,-9 29,-14 6,-5 11,-10 17,-16 4,-6 9,-12 13,-18 4,-4 8,-7 12,-11 3,-4 6,-9 9,-13 0,-1 -1,-1 -1,-2 -1,-3 -3,-7 -5,-10 -2,-3 -4,-5 -6,-8 -2,-3 -4,-5 -7,-8 0,-4 0,-7 0,-11 3,-5 5,-9 8,-14 4,-5 8,-10 11,-16 4,-11 7,-22 10,-33 0,-6 0,-11 0,-17 -1,-5 -3,-9 -5,-14 -3,-6 -6,-12 -9,-19 -2,-5 -4,-11 -6,-17 4,-5 7,-10 10,-15 8,0 16,-1 24,-1 8,0 16,1 23,1 6,1 12,1 18,2 4,-2 8,-4 12,-6 3,-3 7,-7 10,-10 1,-4 1,-8 2,-11 1,-4 1,-7 2,-11 2,-3 4,-6 6,-10 2,-1 5,-3 7,-5 4,0 7,0 11,0 2,1 4,3 6,4 3,1 6,2 8,2 3,-1 6,-2 9,-4 2,-4 4,-7 6,-11 3,-6 5,-11 8,-17 3,-3 6,-6 9,-10 5,-3 10,-6 15,-10 6,-1 12,-2 18,-4 15,1 29,2 43,2 10,0 21,0 31,0 4,3 8,6 12,9 4,1 8,3 12,4 4,0 8,0 11,-1 3,0 5,0 8,0 3,-3 7,-5 10,-8 3,-2 6,-5 9,-8 1,-1 2,-1 3,-2 1,-1 3,-2 4,-3 3,2 5,3 7,4 1,4 2,8 3,12 3,2 6,4 10,5z"/>
   </g>
   <g>
    <path fill="#255133" d="M468 153c3,2 6,4 9,5 4,4 8,9 13,13 1,6 2,12 4,18 2,5 4,11 6,16 1,4 2,8 3,12 2,4 4,8 6,12 7,2 14,3 21,5 10,0 21,0 31,1 5,1 10,3 16,4 6,6 12,12 18,18 3,2 5,5 8,7 8,8 16,16 25,24 4,2 8,4 12,7 5,-1 10,-1 15,-2 4,-3 9,-6 13,-9 4,-2 9,-4 13,-6 6,1 11,2 17,3 4,1 8,2 12,4 6,-3 12,-5 18,-7 7,-3 13,-6 19,-9 6,-3 12,-7 18,-10 4,-1 8,-2 13,-4 5,1 10,2 15,3 4,3 8,5 12,8 2,4 4,8 6,12 2,3 4,7 5,10 3,2 6,5 9,7 4,0 7,0 11,0 3,3 6,6 8,10 3,9 5,18 8,27 4,10 8,21 12,31 3,3 7,6 11,9 4,3 8,7 11,10 10,1 19,2 28,3 9,0 17,0 26,1 5,-3 9,-6 14,-9 3,-4 6,-8 9,-12 4,-4 8,-8 12,-11 5,-2 9,-4 14,-6 3,-2 6,-3 10,-4 1,-1 3,-1 5,-2 3,1 6,3 9,4 2,3 3,6 5,10 0,3 0,6 0,10 -1,4 -2,8 -3,12 -3,5 -5,10 -8,16 -3,5 -6,9 -9,14 -4,5 -8,9 -11,13 -2,4 -4,7 -5,10 0,4 0,7 0,10 1,3 2,6 3,9 4,2 8,5 12,8 4,-2 8,-3 12,-4 2,-3 3,-6 5,-9 2,-4 4,-7 6,-10 2,-2 5,-4 7,-7 1,-2 2,-5 3,-7 3,-3 5,-5 7,-7 12,13 25,25 38,38 -2,14 -3,28 -4,42 -7,7 -14,14 -21,21 0,10 0,19 1,29 14,3 28,7 43,11 14,19 28,39 42,59 3,3 5,6 7,9 7,16 14,31 20,47 -5,15 -10,31 -15,46 2,23 4,46 6,69 -5,8 -10,16 -15,24 -4,8 -9,15 -13,22 2,9 5,18 8,27 7,12 15,24 23,35 12,4 23,7 34,10 4,-3 8,-6 13,-8 3,5 6,10 9,15 1,2 2,5 3,7 3,4 5,7 7,11 2,4 3,8 4,12 2,4 4,8 6,12 0,5 0,10 0,14 -1,5 -2,10 -2,14 -3,4 -6,7 -9,10 -4,0 -8,0 -12,0 -4,-2 -8,-3 -11,-4 -3,-4 -6,-7 -8,-10 -3,-3 -5,-6 -8,-9 -5,-1 -11,-2 -16,-4 -6,1 -11,2 -17,3 -5,-3 -10,-5 -14,-7 -5,-2 -9,-4 -13,-5 -6,-1 -11,-2 -16,-3 -8,-3 -15,-7 -23,-10 -6,-1 -13,-3 -19,-5 -8,-3 -15,-6 -22,-9 -6,-2 -13,-4 -19,-6 0,0 0,0 0,0 -4,3 -8,6 -11,8 -5,3 -10,6 -14,9 -7,1 -14,3 -21,4 -7,0 -14,0 -20,1 -5,3 -10,7 -15,10 -6,3 -12,5 -18,7 -7,2 -14,3 -20,5 -4,1 -8,3 -12,5 -6,0 -11,1 -17,1 -3,2 -7,3 -10,5 -4,3 -8,6 -12,9 -3,3 -6,7 -9,11 -1,5 -2,10 -4,16 -1,6 -2,12 -3,18 -3,4 -6,8 -9,12 -3,5 -7,10 -10,16 -2,4 -4,8 -6,13 -3,3 -5,6 -8,10 -3,1 -6,3 -9,5 -3,2 -6,4 -8,6 -4,4 -8,7 -11,10 0,0 0,1 0,1 1,6 2,13 2,19 0,8 0,16 0,24 3,3 5,7 7,11 6,2 11,5 16,7 4,4 7,9 11,13 0,5 0,9 0,13 -1,3 -2,6 -3,9 -3,6 -5,12 -8,17 -3,6 -6,12 -10,18 -5,6 -9,12 -14,19 -6,4 -12,9 -18,14 -2,-1 -4,-2 -5,-3 -7,2 -14,4 -22,6 -4,2 -9,4 -14,6 -5,-3 -9,-7 -14,-10 -4,-3 -8,-6 -12,-9 -5,-4 -11,-9 -16,-13 -7,0 -13,1 -19,1 -7,1 -13,1 -19,2 -8,-3 -16,-5 -24,-8 -9,-4 -19,-8 -28,-12 -5,-4 -10,-8 -14,-12 -2,-8 -4,-15 -6,-23 -2,-8 -4,-16 -6,-23 -4,-9 -8,-17 -12,-25 -4,-7 -8,-15 -12,-22 -5,-4 -10,-7 -15,-11 -1,0 -1,0 -2,-1 -5,-5 -11,-10 -16,-15 -6,-5 -11,-10 -17,-14 -7,-8 -14,-15 -21,-22 -10,-3 -20,-5 -30,-8 -4,3 -8,5 -12,8 0,0 0,1 0,1 -2,-2 -5,-5 -7,-7 -6,-4 -11,-7 -17,-11 -3,-3 -5,-7 -8,-10 -3,-5 -6,-10 -9,-16 0,-5 0,-11 0,-17 -1,-6 -1,-13 -2,-20 -1,-3 -3,-7 -5,-10 0,-3 -1,-6 -2,-9 0,-5 0,-11 0,-17 0,-3 1,-7 2,-11 0,-3 1,-5 1,-8 0,-3 0,-7 1,-10 -1,0 -1,0 -1,-1 -2,-2 -3,-5 -5,-8 -13,-8 -25,-17 -38,-25 -4,-6 -9,-12 -13,-17 -7,-6 -14,-11 -20,-17 -1,0 -1,0 -1,-1 -4,-1 -7,-2 -10,-3 -3,2 -6,4 -8,6 -5,6 -10,12 -15,18 -4,2 -8,3 -12,5 -5,0 -10,0 -15,0 -7,-3 -13,-6 -20,-9 -7,-10 -13,-20 -20,-30 -5,-8 -10,-16 -15,-25 -2,-5 -4,-9 -6,-14 -2,-6 -5,-11 -8,-16 -1,-5 -3,-10 -5,-15 0,-7 0,-14 0,-21 -2,-7 -4,-13 -5,-20 -2,-5 -5,-11 -7,-16 -4,-7 -8,-14 -12,-21 -2,-4 -4,-7 -6,-11 -5,-6 -10,-13 -15,-20 -1,-5 -3,-11 -5,-17 0,-2 0,-5 0,-7 0,-4 0,-7 -1,-11 0,-5 0,-9 0,-14 -4,-2 -7,-4 -11,-5 -5,-1 -10,-2 -16,-3 -6,-1 -13,-2 -19,-3 -2,-3 -4,-6 -6,-10 -4,-2 -8,-4 -12,-7 -5,-2 -11,-5 -17,-7 -5,-3 -10,-5 -14,-7 -5,-3 -9,-7 -14,-10 0,-7 -1,-14 -2,-20 4,-7 8,-14 12,-21 5,-5 10,-10 15,-15 10,-5 20,-10 30,-14 5,-6 10,-11 16,-17 4,-6 9,-12 13,-18 4,-4 8,-7 12,-11 3,-4 6,-9 9,-13 0,-1 -1,-1 -1,-1 -1,-4 -3,-7 -5,-11 -2,-2 -4,-5 -6,-8 -2,-2 -4,-5 -7,-8 0,-3 0,-7 0,-11 3,-4 5,-9 8,-13 4,-6 8,-11 11,-17 4,-11 7,-22 11,-33 0,-5 0,-11 0,-17 -2,-4 -4,-9 -6,-13 -3,-7 -6,-13 -9,-19 -2,-6 -4,-12 -6,-18 4,-5 7,-10 10,-14 8,-1 16,-2 24,-2 8,0 16,1 24,2 5,0 11,0 17,1 4,-2 8,-4 12,-6 3,-3 7,-7 10,-10 1,-4 1,-7 2,-11 1,-4 1,-7 2,-11 2,-3 4,-6 6,-9 3,-2 5,-4 7,-5 4,-1 7,-1 11,-1 2,2 4,3 7,5 2,0 5,1 7,2 3,-2 6,-3 9,-5 2,-3 4,-7 6,-11 3,-6 6,-11 8,-17 3,-3 6,-6 9,-9 5,-4 10,-7 15,-10 6,-2 12,-3 18,-4 15,0 29,1 43,1 11,0 21,0 31,0 4,3 8,6 12,9 4,2 8,3 12,4 4,0 8,0 12,0 2,0 4,-1 7,-1 3,-2 7,-5 10,-8 3,-2 6,-5 9,-7 1,-1 2,-2 3,-3 2,-1 3,-2 4,-3 3,2 5,3 8,4 0,5 1,9 2,13 3,1 6,3 10,5z"/>
   </g>
   <g>
    <path fill="#295637" d="M469 145c3,2 6,4 9,6 4,4 8,8 13,12 1,6 2,12 4,18 2,6 4,11 6,17 1,3 2,7 3,11 2,4 4,8 6,13 7,1 14,2 21,4 10,0 21,0 31,1 5,1 10,3 16,4 6,6 12,12 18,18 3,3 5,5 8,8 8,8 16,16 25,24 4,2 8,4 12,6 5,-1 10,-1 15,-1 4,-3 9,-7 13,-10 4,-2 9,-4 13,-5 6,0 11,1 17,2 4,1 8,3 13,4 6,-2 11,-4 17,-6 7,-4 13,-7 20,-10 5,-3 11,-6 17,-10 4,-1 8,-2 13,-3 5,1 10,1 16,2 3,3 7,6 11,8 2,4 4,8 6,13 2,3 4,6 5,9 3,3 6,5 9,7 4,0 8,0 11,0 3,4 6,7 9,10 2,9 4,18 7,27 4,10 8,21 12,32 4,2 7,5 11,8 4,3 8,7 12,10 9,1 18,2 28,3 8,0 16,1 25,1 5,-3 10,-6 14,-9 3,-4 6,-8 9,-12 4,-4 8,-7 12,-11 5,-2 9,-4 14,-6 3,-1 6,-3 10,-4 1,-1 3,-1 5,-2 3,2 6,3 9,4 2,4 3,7 5,10 0,3 0,7 0,10 -1,4 -2,8 -3,12 -3,6 -5,11 -8,16 -3,5 -6,10 -9,15 -4,4 -7,8 -11,12 -2,4 -4,7 -5,10 0,4 0,7 0,11 1,2 2,5 3,8 4,3 8,5 13,8 3,-1 7,-3 11,-4 2,-3 3,-6 5,-9 2,-3 4,-7 6,-10 3,-2 5,-4 7,-6 1,-3 2,-6 4,-8 2,-2 4,-5 6,-7 12,13 25,26 38,38 -1,14 -3,28 -4,42 -7,7 -14,14 -21,21 0,10 0,20 1,29 14,4 29,7 43,11 14,20 28,39 42,59 3,3 5,7 7,10 7,15 14,31 20,46 -5,16 -10,31 -15,47 2,22 4,45 6,68 -5,8 -10,17 -15,25 -4,7 -9,14 -13,21 2,9 5,18 8,27 8,12 15,24 23,36 12,3 23,6 34,9 4,-2 9,-5 13,-8 3,5 6,10 9,15 1,2 2,5 4,7 2,4 4,7 6,11 2,4 3,8 4,12 2,4 4,8 6,13 0,4 0,9 0,14 -1,4 -1,9 -2,14 -3,3 -6,6 -9,10 -4,0 -8,-1 -12,-1 -4,-1 -8,-3 -11,-4 -3,-3 -6,-6 -8,-9 -3,-3 -5,-6 -8,-9 -5,-2 -10,-3 -16,-5 -6,1 -11,2 -17,3 -5,-2 -9,-5 -14,-7 -4,-2 -9,-3 -13,-5 -5,-1 -11,-2 -16,-3 -8,-3 -15,-6 -23,-10 -6,-1 -13,-3 -19,-5 -8,-3 -15,-6 -22,-9 -6,-2 -12,-4 -19,-6 0,0 0,0 0,0 -4,3 -8,6 -11,9 -5,3 -10,6 -14,9 -7,1 -14,2 -21,3 -6,0 -13,1 -20,1 -5,4 -10,7 -15,11 -6,2 -12,4 -18,6 -7,2 -13,3 -20,5 -4,2 -8,3 -12,5 -5,1 -11,1 -17,2 -3,1 -6,3 -10,4 -4,3 -8,6 -12,9 -3,4 -6,7 -8,11 -2,5 -3,11 -5,16 -1,6 -2,12 -3,19 -3,3 -6,7 -9,11 -3,5 -6,11 -10,16 -2,4 -4,9 -6,13 -3,3 -5,7 -8,10 -3,2 -6,4 -9,6 -3,2 -6,4 -8,6 -4,3 -8,6 -11,9 0,1 0,1 0,1 1,7 2,13 2,19 0,8 0,16 0,24 3,4 5,7 7,11 6,3 11,5 16,7 4,5 7,9 11,13 0,5 0,9 0,14 -1,3 -2,5 -3,8 -3,6 -5,12 -8,18 -3,5 -6,11 -10,17 -4,6 -9,13 -14,19 -6,5 -12,10 -18,15 -2,-1 -3,-2 -5,-3 -7,2 -14,3 -21,5 -5,2 -10,4 -15,7 -5,-4 -9,-8 -14,-11 -4,-3 -8,-6 -12,-9 -5,-4 -11,-9 -16,-13 -6,0 -13,1 -19,2 -6,0 -13,0 -19,1 -8,-3 -16,-5 -24,-7 -9,-4 -18,-8 -28,-12 -5,-5 -9,-9 -14,-13 -2,-8 -4,-15 -6,-23 -2,-7 -4,-15 -6,-23 -4,-8 -8,-17 -12,-25 -4,-7 -8,-15 -12,-22 -5,-4 -10,-7 -15,-10 -1,-1 -1,-1 -2,-1 -5,-5 -11,-11 -16,-16 -6,-4 -11,-9 -16,-14 -8,-7 -15,-15 -22,-22 -10,-2 -20,-5 -30,-7 -4,2 -8,5 -12,7 0,0 0,1 0,1 -2,-2 -5,-5 -7,-7 -6,-4 -11,-7 -17,-11 -3,-3 -5,-6 -8,-10 -3,-5 -6,-10 -9,-15 0,-6 0,-12 0,-17 -1,-7 -1,-14 -2,-20 -1,-4 -3,-8 -4,-11 -1,-3 -2,-6 -3,-9 0,-5 0,-11 0,-16 1,-4 1,-8 2,-12 0,-2 1,-5 1,-8 0,-3 1,-6 1,-9 0,-1 -1,-1 -1,-2 -2,-2 -3,-5 -5,-7 -12,-9 -25,-17 -37,-26 -5,-5 -10,-11 -14,-17 -7,-5 -13,-11 -20,-16 0,-1 -1,-1 -1,-1 -4,-1 -7,-2 -10,-3 -3,2 -6,3 -8,5 -5,6 -10,12 -15,18 -4,2 -8,3 -12,5 -5,0 -10,0 -15,0 -7,-3 -13,-6 -20,-9 -6,-9 -13,-19 -20,-29 -5,-9 -10,-17 -15,-25 -2,-5 -4,-10 -6,-15 -2,-5 -5,-11 -8,-16 -1,-5 -3,-10 -5,-14 0,-8 0,-15 0,-22 -2,-7 -3,-13 -5,-20 -2,-5 -5,-11 -7,-16 -4,-7 -8,-14 -12,-21 -2,-3 -4,-7 -6,-10 -5,-7 -10,-14 -15,-21 -1,-5 -3,-11 -4,-16 -1,-3 -1,-6 -1,-8 0,-4 0,-7 0,-10 -1,-5 -1,-10 -1,-15 -4,-2 -7,-3 -11,-5 -5,-1 -10,-1 -15,-2 -7,-1 -13,-2 -20,-4 -2,-3 -4,-6 -6,-10 -4,-2 -8,-4 -11,-6 -6,-3 -12,-6 -18,-8 -5,-2 -9,-5 -14,-7 -5,-3 -9,-6 -14,-10 0,-6 -1,-13 -1,-20 3,-7 7,-14 11,-20 5,-6 10,-11 16,-16 9,-5 19,-9 29,-14 5,-5 10,-11 16,-16 4,-6 9,-13 13,-19 4,-3 8,-7 13,-10 2,-5 5,-9 8,-14 0,0 0,-1 -1,-1 -1,-4 -3,-7 -5,-11 -2,-2 -4,-5 -6,-8 -2,-2 -4,-5 -6,-7 -1,-4 -1,-8 -1,-12 3,-4 6,-9 8,-13 4,-5 8,-11 11,-16 4,-11 7,-22 11,-33 0,-6 0,-12 0,-18 -2,-4 -4,-9 -6,-13 -3,-7 -6,-13 -9,-19 -2,-6 -4,-12 -6,-18 4,-4 7,-9 10,-14 8,-1 16,-1 24,-2 8,1 16,1 24,2 5,0 11,1 17,1 4,-2 8,-4 12,-6 3,-3 7,-6 10,-10 1,-3 1,-7 2,-11 1,-3 2,-7 2,-11 2,-3 4,-6 6,-9 3,-2 5,-3 7,-5 4,0 7,0 11,-1 2,2 4,3 7,5 2,1 5,1 8,2 2,-1 5,-3 8,-4 2,-4 4,-8 6,-12 3,-5 6,-11 8,-16 3,-4 6,-7 9,-10 5,-3 10,-7 15,-10 6,-1 12,-3 18,-4 15,1 29,1 44,2 10,0 20,0 30,0 4,3 8,6 12,9 4,1 8,2 13,4 3,-1 7,-1 11,-1 2,0 5,0 7,0 3,-3 7,-6 10,-8 3,-3 6,-6 9,-8 1,-1 2,-2 3,-3 2,0 3,-1 4,-2 3,1 5,2 8,4 0,4 1,8 2,12 3,2 7,3 10,5z"/>
   </g>
   <g>
    <path fill="#2D5B3C" d="M470 137c3,2 6,4 9,6 4,4 9,8 13,12 1,6 3,12 4,18 2,6 4,11 6,17 1,4 2,7 3,11 2,4 4,9 6,13 7,1 14,3 21,4 11,0 21,1 31,1 5,2 11,3 16,5 6,6 12,12 18,18 3,2 6,4 8,7 8,8 17,16 25,24 4,2 8,4 12,6 5,0 10,-1 15,-1 5,-3 9,-6 13,-10 5,-1 9,-3 14,-5 5,1 10,2 16,3 4,1 8,2 13,3 6,-2 12,-4 18,-6 6,-3 12,-7 19,-10 5,-3 11,-6 17,-9 4,-2 9,-3 13,-4 5,1 10,2 16,3 4,2 8,5 11,7 3,5 5,9 7,13 1,3 3,6 5,9 3,3 6,5 8,8 4,0 8,0 11,0 3,3 6,6 9,9 2,9 4,18 7,27 4,11 8,21 12,32 4,3 8,6 11,8 4,4 8,7 12,11 9,0 18,1 28,2 8,1 16,1 25,1 5,-3 10,-6 14,-9 3,-4 6,-8 9,-12 4,-3 8,-7 12,-11 5,-2 9,-4 14,-6 3,-1 7,-2 10,-4 2,0 3,-1 5,-1 3,1 6,2 9,4 2,3 3,6 5,9 0,3 0,7 0,10 -1,4 -2,8 -3,13 -3,5 -5,10 -8,15 -3,5 -6,10 -9,15 -4,4 -7,8 -11,13 -2,3 -3,6 -5,10 0,3 0,7 0,10 1,3 2,6 3,8 4,3 9,6 13,8 4,-1 7,-3 11,-4 2,-3 3,-6 5,-9 2,-3 4,-6 7,-10 2,-2 4,-4 6,-6 1,-3 2,-5 4,-8 2,-2 4,-4 6,-7 13,13 25,26 38,38 -1,15 -3,29 -4,43 -7,7 -14,14 -21,21 0,9 1,19 1,28 14,4 29,8 43,11 14,20 28,40 43,59 2,4 4,7 6,10 7,15 14,31 20,46 -5,16 -10,31 -15,47 2,23 4,46 6,68 -5,9 -10,17 -15,25 -4,7 -9,14 -13,21 3,9 5,18 8,27 8,12 15,24 23,36 12,3 23,6 35,10 4,-3 8,-6 12,-9 3,5 6,10 9,15 1,3 2,5 4,8 2,3 4,7 6,10 2,4 3,8 4,13 2,4 4,8 6,12 0,5 0,9 0,14 0,5 -1,9 -2,14 -3,3 -6,7 -9,10 -4,0 -8,0 -12,-1 -4,-1 -7,-3 -11,-4 -3,-3 -5,-6 -8,-9 -3,-3 -5,-6 -8,-9 -5,-1 -10,-3 -16,-4 -5,1 -11,1 -17,2 -5,-2 -9,-5 -14,-7 -4,-1 -9,-3 -13,-4 -5,-2 -11,-3 -16,-4 -8,-3 -15,-6 -23,-9 -6,-2 -13,-4 -19,-5 -7,-3 -15,-6 -22,-9 -6,-2 -12,-4 -19,-6 0,0 0,0 0,0 -4,2 -7,5 -11,8 -5,3 -10,6 -14,9 -7,1 -14,2 -20,3 -7,1 -14,1 -21,1 -5,4 -10,7 -15,11 -6,2 -12,4 -18,7 -7,1 -13,3 -20,4 -4,2 -8,4 -12,5 -5,1 -11,1 -17,2 -3,1 -6,3 -10,4 -4,3 -8,6 -12,9 -3,4 -5,7 -8,11 -2,5 -3,11 -5,16 -1,6 -2,13 -3,19 -3,4 -6,8 -9,11 -3,6 -6,11 -10,16 -2,5 -4,9 -6,13 -3,3 -5,7 -8,10 -3,2 -6,4 -9,6 -3,2 -5,4 -8,6 -4,3 -7,6 -11,9 0,1 0,1 0,2 1,6 2,12 3,19 0,8 0,15 0,23 2,4 4,8 6,11 6,3 11,5 17,8 3,4 6,8 10,13 0,4 0,9 0,13 -1,3 -2,6 -3,8 -3,6 -5,12 -7,18 -4,6 -7,11 -10,17 -5,7 -10,13 -15,19 -6,5 -12,10 -18,15 -2,-1 -3,-2 -5,-3 -7,2 -14,4 -21,6 -5,2 -10,4 -15,6 -5,-4 -9,-7 -14,-11 -4,-3 -8,-5 -12,-8 -5,-5 -11,-9 -16,-14 -6,1 -13,1 -19,2 -6,0 -13,1 -19,1 -8,-2 -16,-5 -24,-7 -9,-4 -18,-8 -28,-12 -5,-4 -9,-9 -14,-13 -2,-7 -4,-15 -6,-22 -2,-8 -4,-16 -6,-24 -4,-8 -8,-16 -12,-24 -4,-8 -8,-15 -11,-23 -6,-3 -11,-7 -16,-10 -1,0 -1,-1 -2,-1 -5,-5 -11,-10 -16,-15 -5,-5 -11,-10 -16,-15 -8,-7 -15,-14 -22,-22 -10,-2 -20,-5 -30,-7 -4,2 -8,5 -12,7 0,1 0,1 0,2 -2,-3 -5,-5 -7,-8 -6,-3 -11,-7 -17,-11 -2,-3 -5,-6 -8,-10 -3,-5 -6,-10 -9,-15 0,-6 0,-11 0,-17 -1,-7 -1,-13 -2,-20 -1,-4 -3,-7 -4,-11 -1,-3 -2,-6 -3,-8 0,-6 0,-11 0,-17 1,-4 1,-8 2,-11 1,-3 1,-6 1,-9 0,-3 1,-6 1,-9 0,-1 -1,-1 -1,-1 -1,-3 -3,-6 -5,-8 -12,-9 -25,-17 -37,-25 -5,-6 -10,-12 -14,-18 -7,-5 -13,-11 -20,-16 0,0 -1,-1 -1,-1 -3,-1 -7,-2 -10,-3 -3,2 -5,4 -8,6 -5,6 -10,12 -15,18 -4,1 -8,3 -12,4 -5,0 -10,0 -15,1 -7,-3 -13,-6 -20,-9 -6,-10 -13,-20 -20,-30 -5,-8 -10,-17 -15,-25 -2,-5 -4,-10 -5,-15 -3,-5 -6,-11 -8,-16 -2,-5 -4,-9 -6,-14 0,-7 0,-15 0,-22 -2,-6 -3,-13 -5,-20 -2,-5 -5,-10 -7,-16 -4,-7 -8,-14 -11,-21 -3,-3 -5,-7 -7,-10 -5,-7 -10,-14 -15,-20 -1,-6 -3,-11 -4,-17 0,-3 -1,-5 -1,-8 0,-3 0,-7 0,-10 -1,-5 -1,-10 -1,-15 -4,-1 -7,-3 -11,-5 -5,0 -10,-1 -15,-2 -7,-1 -13,-2 -20,-3 -2,-4 -4,-7 -6,-10 -4,-3 -8,-5 -11,-7 -6,-3 -12,-5 -18,-8 -5,-2 -9,-4 -14,-7 -5,-3 -9,-6 -14,-9 0,-7 -1,-14 -1,-21 3,-7 7,-13 11,-20 5,-5 10,-11 16,-16 9,-4 19,-9 29,-14 5,-5 11,-11 16,-16 4,-6 9,-12 13,-19 4,-3 9,-7 13,-10 2,-5 5,-9 8,-14 0,0 0,0 -1,-1 -1,-3 -3,-7 -4,-10 -3,-3 -5,-6 -7,-8 -2,-3 -4,-6 -6,-8 -1,-4 -1,-8 -1,-11 3,-5 6,-9 8,-14 4,-5 8,-11 12,-16 3,-11 6,-22 10,-33 0,-6 0,-12 0,-17 -2,-5 -4,-9 -6,-14 -3,-6 -6,-13 -9,-19 -2,-6 -4,-12 -5,-17 3,-5 6,-10 10,-15 7,0 15,-1 23,-2 8,1 16,2 24,2 6,1 11,1 17,1 4,-2 8,-3 12,-5 3,-4 7,-7 10,-10 1,-4 2,-8 2,-12 1,-3 2,-7 2,-10 3,-3 5,-7 7,-10 2,-1 4,-3 6,-5 4,0 7,0 11,0 2,1 5,3 7,4 2,1 5,2 8,2 3,-1 6,-3 9,-4 1,-4 3,-8 5,-11 3,-6 6,-12 9,-17 2,-3 5,-7 8,-10 5,-3 10,-6 15,-10 6,-1 12,-2 18,-4 15,1 29,1 44,2 10,0 20,0 30,0 4,3 8,6 12,9 4,1 9,3 13,4 3,0 7,-1 11,-1 2,0 5,0 7,0 3,-3 7,-5 10,-8 3,-3 6,-5 9,-8 1,-1 2,-1 3,-2 2,-1 3,-2 4,-3 3,1 5,3 8,4 0,4 1,8 2,12 3,2 7,4 10,5z"/>
   </g>
   <g>
    <path fill="#326040" d="M471 130c3,1 6,3 9,5 4,4 9,8 13,12 1,6 3,12 4,18 2,6 4,12 6,17 1,4 2,8 3,11 2,5 4,9 6,13 7,2 14,3 21,4 11,1 21,1 31,1 5,2 11,3 16,5 6,6 12,12 18,18 3,2 6,5 8,7 8,8 17,16 25,24 4,2 8,4 12,6 5,0 10,0 15,-1 5,-3 9,-6 13,-9 5,-2 9,-4 14,-6 5,1 10,2 16,3 4,1 8,2 13,3 6,-2 12,-4 18,-6 6,-3 12,-6 19,-10 6,-3 11,-6 17,-9 4,-1 9,-3 13,-4 5,1 10,2 16,3 4,3 8,5 12,8 2,4 4,8 6,12 1,3 3,6 5,10 3,2 6,4 9,7 3,0 7,0 10,0 3,3 6,6 9,9 2,9 5,18 7,27 4,11 8,22 12,32 4,3 8,6 12,9 3,3 7,6 11,10 9,1 18,2 28,3 8,0 17,0 25,1 5,-3 10,-6 15,-9 3,-4 6,-9 8,-13 4,-3 8,-7 12,-10 5,-2 10,-4 14,-6 3,-2 7,-3 10,-4 2,-1 4,-2 5,-2 3,1 6,3 9,4 2,3 3,6 5,9 0,4 0,7 0,10 -1,5 -2,9 -3,13 -3,5 -5,10 -8,15 -3,5 -6,10 -9,15 -3,4 -7,9 -11,13 -2,3 -3,7 -5,10 0,3 0,7 0,10 1,3 2,6 3,9 4,2 9,5 13,7 4,-1 8,-2 11,-4 2,-3 3,-6 5,-9 2,-3 4,-6 7,-10 2,-2 4,-4 6,-6 1,-2 2,-5 4,-8 2,-2 4,-4 6,-6 13,12 25,25 38,38 -1,14 -3,28 -4,42 -7,7 -14,14 -21,21 0,10 1,19 1,29 14,3 29,7 43,10 14,20 28,40 43,60 2,3 4,6 6,9 7,16 14,31 21,47 -5,15 -10,31 -16,46 2,23 4,46 6,69 -5,8 -10,16 -14,24 -5,7 -9,14 -14,22 3,9 5,17 8,26 8,12 16,24 23,36 12,3 23,7 35,10 4,-3 8,-6 12,-9 3,5 6,10 9,15 1,3 3,5 4,8 2,3 4,7 7,11 1,4 2,8 3,12 2,4 5,8 7,12 0,5 0,10 0,14 -1,5 -2,10 -3,14 -3,4 -6,7 -9,10 -4,0 -8,0 -12,0 -4,-2 -7,-3 -11,-5 -3,-3 -5,-6 -8,-9 -3,-3 -5,-6 -8,-9 -5,-1 -10,-3 -16,-4 -5,1 -11,2 -17,3 -5,-3 -9,-5 -14,-8 -4,-1 -9,-3 -13,-4 -5,-1 -11,-2 -16,-4 -8,-3 -15,-6 -22,-9 -7,-2 -14,-3 -20,-5 -7,-3 -15,-6 -22,-9 -6,-2 -12,-4 -18,-6 -1,0 -1,0 -1,0 -4,3 -7,5 -11,8 -5,3 -9,6 -14,9 -7,1 -14,2 -20,4 -7,0 -14,0 -21,1 -5,3 -10,7 -15,10 -6,3 -12,5 -18,7 -7,1 -13,3 -20,5 -4,1 -8,3 -11,4 -6,1 -12,2 -18,2 -3,2 -6,3 -9,5 -5,3 -9,6 -13,9 -3,3 -5,7 -8,10 -2,6 -3,11 -5,17 -1,6 -2,12 -2,18 -4,4 -7,8 -10,12 -3,5 -6,10 -9,15 -3,5 -5,9 -7,13 -3,4 -5,7 -7,10 -4,2 -7,4 -10,6 -3,2 -5,4 -8,6 -4,3 -7,7 -11,10 0,0 0,0 0,1 1,6 2,13 3,19 0,8 0,16 0,23 2,4 4,8 6,12 6,2 11,5 17,7 3,4 6,9 10,13 0,4 0,9 0,13 -1,3 -2,6 -3,9 -2,6 -5,11 -7,17 -4,6 -7,12 -10,17 -5,7 -10,13 -15,19 -6,5 -12,10 -18,15 -2,-1 -3,-2 -5,-3 -7,2 -14,4 -21,6 -5,2 -10,4 -15,6 -5,-3 -9,-7 -14,-11 -4,-2 -8,-5 -12,-8 -5,-5 -10,-9 -16,-14 -6,1 -13,2 -19,2 -6,1 -13,1 -19,1 -8,-2 -16,-4 -23,-7 -10,-4 -19,-8 -29,-12 -4,-4 -9,-8 -14,-13 -2,-7 -4,-15 -6,-22 -2,-8 -4,-16 -6,-24 -4,-8 -8,-16 -12,-24 -4,-8 -7,-15 -11,-23 -6,-3 -11,-6 -16,-10 -1,0 -1,-1 -2,-1 -5,-5 -11,-10 -16,-15 -5,-5 -11,-10 -16,-15 -7,-7 -15,-14 -22,-21 -10,-3 -20,-5 -30,-8 -4,3 -8,5 -12,8 0,0 0,0 0,1 -2,-3 -4,-5 -7,-7 -5,-4 -11,-8 -17,-11 -2,-4 -5,-7 -7,-10 -3,-5 -6,-11 -9,-16 -1,-6 -1,-11 -1,-17 -1,-6 -1,-13 -2,-20 -1,-3 -3,-7 -4,-11 -1,-2 -2,-5 -3,-8 0,-6 0,-11 0,-17 1,-4 2,-7 2,-11 1,-3 1,-6 1,-8 1,-4 1,-7 1,-10 0,0 0,-1 -1,-1 -1,-3 -3,-5 -5,-8 -12,-8 -25,-17 -37,-25 -5,-6 -10,-12 -14,-18 -7,-5 -13,-10 -20,-16 0,0 -1,0 -1,-1 -3,-1 -7,-2 -10,-3 -3,2 -5,4 -8,6 -5,6 -10,12 -15,18 -4,1 -8,3 -12,4 -5,1 -10,1 -15,1 -6,-3 -13,-6 -20,-9 -6,-10 -13,-20 -20,-30 -5,-8 -10,-17 -15,-25 -2,-5 -4,-10 -5,-14 -3,-6 -6,-11 -8,-17 -2,-4 -4,-9 -6,-14 0,-7 0,-14 0,-22 -2,-6 -3,-13 -5,-19 -2,-6 -4,-11 -7,-17 -4,-6 -7,-13 -11,-20 -2,-4 -4,-7 -7,-11 -5,-7 -10,-13 -15,-20 -1,-6 -3,-11 -4,-17 0,-2 -1,-5 -1,-8 0,-3 0,-6 0,-10 0,-5 -1,-10 -1,-14 -3,-2 -7,-4 -11,-5 -5,-1 -10,-2 -15,-3 -7,-1 -13,-2 -20,-3 -2,-3 -4,-7 -6,-10 -4,-2 -7,-5 -11,-7 -6,-2 -12,-5 -18,-8 -4,-2 -9,-4 -14,-6 -5,-4 -9,-7 -14,-10 0,-7 -1,-14 -1,-21 3,-6 7,-13 11,-20 5,-5 10,-10 16,-16 9,-4 19,-9 29,-14 5,-5 11,-10 16,-16 5,-6 9,-12 14,-18 4,-4 8,-7 12,-11 3,-4 5,-9 8,-13 0,-1 0,-1 0,-1 -2,-4 -4,-8 -5,-11 -2,-3 -4,-5 -7,-8 -2,-3 -4,-5 -6,-8 0,-4 -1,-7 -1,-11 3,-5 6,-9 9,-14 3,-5 7,-10 11,-16 3,-11 6,-22 10,-33 0,-6 0,-11 0,-17 -2,-5 -4,-9 -6,-14 -3,-6 -6,-12 -9,-19 -2,-5 -3,-11 -5,-17 3,-5 6,-10 10,-15 8,0 15,-1 23,-1 8,0 16,1 24,1 6,1 11,1 17,2 4,-2 8,-4 12,-6 4,-3 7,-7 11,-10 0,-4 1,-8 1,-11 1,-4 2,-7 3,-11 2,-3 4,-6 6,-10 2,-1 4,-3 6,-5 4,0 8,0 11,0 2,1 5,3 7,4 2,1 5,2 8,3 3,-2 6,-3 9,-5 2,-4 3,-7 5,-11 3,-6 6,-11 9,-17 2,-3 5,-6 8,-9 5,-4 10,-7 15,-10 6,-2 12,-3 19,-4 14,0 28,1 43,1 10,0 20,0 30,0 4,3 8,6 12,9 5,1 9,3 13,4 3,0 7,0 11,0 2,-1 5,-1 7,-1 4,-3 7,-5 10,-8 3,-2 6,-5 9,-8 1,0 2,-1 4,-2 1,-1 2,-2 4,-3 2,2 4,3 7,4 1,4 1,8 2,12 3,2 7,4 10,6z"/>
   </g>
   <g>
    <path fill="#366545" d="M472 122c3,2 6,4 9,5 5,5 9,9 13,13 1,6 3,12 4,18 2,5 4,11 6,17 1,3 2,7 4,11 1,4 3,8 5,13 7,1 14,2 22,4 10,0 20,0 30,1 6,1 11,3 16,4 6,6 12,12 18,18 3,3 6,5 8,7 9,8 17,16 25,24 4,2 8,5 12,7 5,-1 10,-1 16,-1 4,-4 8,-7 12,-10 5,-2 9,-4 14,-6 5,1 11,2 16,3 4,1 9,2 13,4 6,-2 12,-5 18,-7 6,-3 13,-6 19,-9 6,-3 11,-7 17,-10 4,-1 9,-2 13,-4 5,1 11,2 16,3 4,3 8,5 12,8 2,4 4,8 6,12 1,4 3,7 5,10 3,2 6,5 9,7 3,0 7,0 10,0 3,3 6,6 9,10 2,9 5,18 7,27 4,10 8,21 12,31 4,3 8,6 12,9 3,3 7,7 11,10 9,1 19,2 28,3 8,0 17,1 25,1 5,-3 10,-6 15,-9 3,-4 6,-8 9,-12 4,-4 7,-7 11,-11 5,-2 10,-4 14,-6 4,-2 7,-3 10,-4 2,-1 4,-1 5,-2 3,2 7,3 10,4 1,3 2,6 4,10 0,3 0,6 0,10 -1,4 -2,8 -3,12 -2,5 -5,11 -8,16 -3,5 -6,9 -9,14 -3,5 -7,9 -11,13 -2,4 -3,7 -5,10 0,4 0,7 0,10 1,3 2,6 3,9 5,2 9,5 13,8 4,-2 8,-3 12,-4 1,-3 3,-6 4,-9 2,-4 5,-7 7,-10 2,-2 4,-4 6,-6 1,-3 3,-6 4,-8 2,-3 4,-5 6,-7 13,13 25,25 38,38 -1,14 -3,28 -4,42 -7,7 -14,14 -21,21 0,10 1,19 1,29 14,3 29,7 43,11 14,19 29,39 43,59 2,3 4,6 6,10 7,15 14,30 21,46 -5,15 -10,31 -15,46 1,23 3,46 5,69 -5,8 -10,16 -14,25 -5,7 -9,14 -14,21 3,9 5,18 8,27 8,12 16,24 24,36 11,3 22,6 34,9 4,-3 8,-6 12,-8 3,5 6,10 9,15 1,2 3,5 4,7 2,4 4,7 7,11 1,4 2,8 3,12 3,4 5,8 7,12 0,5 0,10 0,14 -1,5 -2,10 -3,14 -3,4 -6,7 -9,11 -4,-1 -8,-1 -12,-1 -4,-2 -7,-3 -11,-4 -3,-3 -5,-7 -8,-10 -2,-3 -5,-5 -8,-8 -5,-2 -10,-3 -15,-5 -6,1 -12,2 -18,3 -4,-3 -9,-5 -14,-7 -4,-2 -8,-3 -13,-5 -5,-1 -11,-2 -16,-3 -7,-3 -15,-7 -22,-10 -7,-1 -13,-3 -20,-5 -7,-3 -14,-6 -22,-9 -6,-2 -12,-4 -18,-6 -1,0 -1,0 -1,0 -4,3 -7,6 -11,8 -5,3 -9,6 -14,9 -7,2 -14,3 -20,4 -7,0 -14,1 -21,1 -5,3 -10,7 -15,11 -6,2 -12,4 -18,6 -7,2 -13,3 -20,5 -4,1 -7,3 -11,5 -6,0 -12,1 -18,2 -3,1 -6,2 -9,4 -4,3 -9,6 -13,9 -2,3 -5,7 -8,11 -2,5 -3,10 -4,16 -1,6 -2,12 -3,18 -4,4 -7,8 -10,12 -3,5 -6,11 -9,16 -3,4 -5,8 -7,13 -2,3 -5,6 -7,10 -4,2 -7,3 -10,5 -3,2 -5,4 -8,7 -4,3 -7,6 -11,9 0,0 0,1 1,1 0,6 1,13 2,19 0,8 0,16 0,24 2,3 4,7 7,11 5,2 10,5 16,7 3,5 7,9 10,13 0,5 0,9 0,14 -1,2 -2,5 -3,8 -2,6 -5,12 -7,17 -4,6 -7,12 -10,18 -5,6 -10,12 -15,19 -6,5 -12,9 -18,14 -1,-1 -3,-2 -5,-2 -7,1 -14,3 -21,5 -5,2 -10,4 -15,6 -4,-3 -9,-7 -14,-10 -4,-3 -8,-6 -11,-9 -6,-4 -11,-9 -17,-13 -6,0 -12,1 -19,1 -6,1 -13,1 -19,2 -8,-3 -16,-5 -23,-8 -10,-4 -19,-8 -28,-11 -5,-5 -10,-9 -15,-13 -2,-8 -4,-15 -6,-23 -2,-8 -4,-15 -6,-23 -4,-9 -8,-17 -12,-25 -3,-7 -7,-15 -11,-22 -5,-4 -11,-7 -16,-11 0,0 -1,0 -2,-1 -5,-5 -10,-10 -16,-15 -5,-5 -11,-9 -16,-14 -7,-8 -15,-15 -22,-22 -10,-3 -20,-5 -30,-7 -4,2 -8,4 -12,7 0,0 0,1 0,1 -2,-2 -4,-5 -7,-7 -5,-4 -11,-7 -17,-11 -2,-3 -5,-7 -7,-10 -3,-5 -6,-10 -9,-16 -1,-5 -1,-11 -1,-17 0,-6 -1,-13 -2,-20 -1,-3 -3,-7 -4,-10 -1,-3 -2,-6 -3,-9 0,-5 0,-11 0,-17 1,-3 2,-7 2,-11 1,-3 1,-5 1,-8 1,-3 1,-7 1,-10 0,0 0,0 -1,-1 -1,-2 -3,-5 -5,-8 -12,-8 -25,-16 -37,-25 -5,-6 -9,-11 -14,-17 -7,-6 -13,-11 -20,-16 0,-1 0,-1 -1,-2 -3,-1 -7,-1 -10,-2 -3,1 -5,3 -8,5 -5,6 -10,12 -15,18 -4,2 -8,3 -12,5 -5,0 -10,0 -15,0 -6,-3 -13,-6 -19,-9 -7,-10 -14,-20 -21,-29 -5,-9 -10,-17 -15,-26 -2,-4 -3,-9 -5,-14 -3,-6 -6,-11 -8,-16 -2,-5 -4,-10 -6,-14 0,-8 0,-15 0,-22 -1,-7 -3,-13 -5,-20 -2,-5 -4,-11 -7,-16 -3,-7 -7,-14 -11,-21 -2,-4 -4,-7 -6,-11 -5,-6 -11,-13 -16,-20 -1,-5 -3,-11 -4,-17 0,-2 0,-5 -1,-7 0,-4 0,-7 0,-11 0,-4 -1,-9 -1,-14 -3,-2 -7,-3 -11,-5 -5,-1 -10,-2 -15,-2 -7,-2 -13,-3 -20,-4 -2,-3 -4,-6 -6,-10 -4,-2 -7,-4 -11,-6 -6,-3 -12,-6 -17,-8 -5,-3 -10,-5 -15,-7 -5,-3 -9,-7 -14,-10 0,-7 -1,-13 -1,-20 4,-7 7,-14 11,-21 5,-5 11,-10 16,-15 10,-5 19,-10 29,-14 5,-6 11,-11 16,-16 5,-7 9,-13 14,-19 4,-4 8,-7 12,-11 3,-4 5,-9 8,-13 0,0 0,-1 0,-1 -2,-4 -4,-7 -5,-11 -2,-2 -4,-5 -6,-8 -3,-2 -5,-5 -7,-8 0,-3 -1,-7 -1,-11 3,-4 6,-9 9,-13 3,-6 7,-11 11,-16 3,-12 7,-23 10,-34 0,-5 0,-11 0,-17 -2,-4 -4,-9 -6,-13 -3,-7 -6,-13 -9,-19 -1,-6 -3,-12 -5,-18 3,-5 6,-9 10,-14 8,-1 16,-1 23,-2 8,1 16,1 24,2 6,0 12,0 17,1 4,-2 8,-4 12,-6 4,-3 7,-6 11,-10 0,-4 1,-7 1,-11 1,-4 2,-7 3,-11 2,-3 4,-6 6,-9 2,-2 4,-4 6,-5 4,0 8,-1 11,-1 2,2 5,3 7,5 3,0 5,1 8,2 3,-2 6,-3 9,-5 2,-3 4,-7 5,-11 3,-5 6,-11 9,-17 3,-3 5,-6 8,-9 5,-4 10,-7 15,-10 6,-2 13,-3 19,-4 14,0 28,1 43,1 10,0 20,0 30,0 4,3 8,6 12,9 5,2 9,3 13,4 4,0 7,0 11,0 2,0 5,-1 7,-1 4,-2 7,-5 10,-8 3,-2 6,-5 9,-7 1,-1 3,-2 4,-3 1,-1 2,-2 4,-2 2,1 5,2 7,4 1,4 1,8 2,12 4,1 7,3 10,5z"/>
   </g>
   <g>
    <path fill="#3A6A49" d="M473 114c3,2 6,4 9,6 5,4 9,8 13,12 1,6 3,12 4,18 2,6 4,11 6,17 1,3 3,7 4,11 2,4 3,9 5,13 7,1 15,3 22,4 10,0 20,1 30,1 6,1 11,3 16,4 6,6 12,12 19,18 2,3 5,5 7,8 9,8 17,16 25,24 4,2 8,4 12,6 5,0 11,-1 16,-1 4,-3 8,-7 12,-10 5,-2 9,-4 14,-5 5,1 11,1 16,2 4,2 9,3 13,4 6,-2 12,-4 18,-6 6,-4 13,-7 19,-10 6,-3 12,-6 17,-9 5,-2 9,-3 13,-4 5,1 11,2 16,2 4,3 8,6 12,8 2,4 4,9 6,13 2,3 3,6 5,9 3,3 6,5 9,7 3,0 7,0 11,0 2,4 5,7 8,10 2,9 5,18 7,27 4,10 8,21 12,32 4,3 8,5 12,8 3,4 7,7 11,10 9,1 19,2 28,3 8,0 17,1 25,1 5,-3 10,-6 15,-9 3,-4 6,-8 9,-12 4,-4 8,-7 12,-11 4,-2 9,-4 13,-6 4,-1 7,-3 10,-4 2,0 4,-1 6,-2 3,2 6,3 9,4 1,4 3,7 4,10 0,3 0,7 1,10 -2,4 -3,8 -4,12 -2,6 -5,11 -8,16 -2,5 -5,10 -8,15 -4,4 -8,8 -12,13 -1,3 -3,6 -5,10 0,3 0,6 0,10 1,3 2,5 4,8 4,3 8,5 12,8 4,-1 8,-3 12,-4 1,-3 3,-6 4,-9 2,-3 5,-7 7,-10 2,-2 4,-4 6,-6 1,-3 3,-5 4,-8 2,-2 4,-5 6,-7 13,13 26,26 38,38 -1,14 -2,28 -4,42 -7,7 -14,14 -21,22 0,9 1,19 1,28 15,4 29,7 43,11 15,20 29,39 43,59 2,3 4,7 7,10 6,15 13,31 20,46 -5,16 -10,31 -15,47 2,23 3,45 5,68 -5,8 -9,17 -14,25 -5,7 -9,14 -14,21 3,9 6,18 8,27 8,12 16,24 24,36 11,3 22,6 34,9 4,-2 8,-5 12,-8 3,5 6,10 9,15 1,2 3,5 4,7 2,4 5,7 7,11 1,4 2,8 4,12 2,4 4,9 6,13 0,4 0,9 0,14 -1,4 -2,9 -3,14 -3,3 -6,6 -9,10 -4,0 -8,-1 -12,-1 -3,-1 -7,-3 -11,-4 -2,-3 -5,-6 -8,-9 -2,-3 -5,-6 -8,-9 -5,-2 -10,-3 -15,-5 -6,1 -12,2 -18,3 -4,-2 -9,-5 -14,-7 -4,-2 -8,-3 -13,-5 -5,-1 -10,-2 -16,-3 -7,-3 -15,-6 -22,-9 -7,-2 -13,-4 -20,-6 -7,-3 -14,-6 -22,-9 -6,-2 -12,-4 -18,-6 0,0 -1,0 -1,0 -3,3 -7,6 -11,9 -5,3 -9,6 -14,9 -7,1 -13,2 -20,3 -7,0 -14,1 -21,1 -5,4 -10,7 -14,11 -7,2 -13,4 -19,7 -6,1 -13,3 -20,4 -3,2 -7,3 -11,5 -6,1 -12,1 -18,2 -3,1 -6,3 -9,4 -4,3 -8,6 -13,9 -2,4 -5,7 -8,11 -1,5 -3,11 -4,16 -1,6 -2,12 -3,19 -3,4 -7,7 -10,11 -3,6 -6,11 -9,16 -2,4 -5,9 -7,13 -2,3 -5,7 -7,10 -3,2 -7,4 -10,6 -2,2 -5,4 -8,6 -3,3 -7,6 -11,9 0,1 1,1 1,1 0,7 1,13 2,19 0,8 0,16 0,24 2,4 4,8 7,11 5,3 10,5 16,8 3,4 7,8 10,12 0,5 0,9 1,14 -2,3 -3,5 -4,8 -2,6 -5,12 -7,18 -3,5 -7,11 -10,17 -5,6 -10,13 -15,19 -6,5 -12,10 -18,15 -1,-1 -3,-2 -5,-3 -7,2 -14,4 -21,5 -5,2 -10,5 -15,7 -4,-4 -9,-8 -14,-11 -4,-3 -7,-6 -11,-8 -6,-5 -11,-9 -17,-14 -6,1 -12,1 -19,2 -6,0 -12,1 -19,1 -8,-3 -15,-5 -23,-7 -10,-4 -19,-8 -28,-12 -5,-5 -10,-9 -15,-13 -2,-8 -4,-15 -5,-23 -2,-7 -5,-15 -7,-23 -4,-8 -7,-16 -11,-25 -4,-7 -8,-15 -12,-22 -5,-3 -11,-7 -16,-10 0,-1 -1,-1 -2,-1 -5,-5 -10,-10 -16,-15 -5,-5 -11,-10 -16,-15 -7,-7 -15,-15 -22,-22 -10,-2 -20,-5 -30,-7 -4,2 -7,5 -11,7 0,1 0,1 0,1 -3,-2 -5,-5 -8,-7 -5,-4 -11,-7 -16,-11 -3,-3 -6,-6 -8,-10 -3,-5 -6,-10 -9,-15 0,-6 -1,-12 -1,-17 0,-7 -1,-14 -1,-20 -2,-4 -3,-8 -5,-11 -1,-3 -2,-6 -3,-8 0,-6 0,-12 0,-17 1,-4 2,-8 2,-12 1,-2 1,-5 2,-8 0,-3 0,-6 0,-9 0,-1 0,-1 0,-2 -2,-2 -4,-5 -6,-7 -12,-9 -25,-17 -37,-26 -5,-5 -9,-11 -14,-17 -7,-5 -13,-11 -20,-16 0,-1 0,-1 -1,-1 -3,-1 -7,-2 -10,-3 -3,2 -5,4 -8,5 -5,6 -10,12 -15,18 -4,2 -8,3 -12,5 -5,0 -10,0 -15,0 -6,-3 -13,-6 -19,-9 -7,-9 -14,-19 -21,-29 -5,-9 -10,-17 -15,-25 -1,-5 -3,-10 -5,-15 -3,-5 -5,-11 -8,-16 -2,-5 -4,-10 -6,-14 0,-8 0,-15 0,-22 -1,-7 -3,-13 -5,-20 -2,-5 -4,-11 -6,-16 -4,-7 -8,-14 -12,-21 -2,-3 -4,-7 -6,-10 -5,-7 -10,-14 -15,-21 -2,-5 -3,-11 -5,-16 0,-3 0,-6 -1,-8 0,-4 0,-7 0,-10 0,-5 0,-10 -1,-15 -3,-2 -7,-3 -10,-5 -6,-1 -11,-1 -16,-2 -7,-1 -13,-2 -20,-3 -2,-4 -4,-7 -6,-11 -4,-2 -7,-4 -11,-6 -6,-3 -12,-5 -17,-8 -5,-2 -10,-5 -15,-7 -4,-3 -9,-6 -13,-9 -1,-7 -2,-14 -2,-21 4,-7 7,-14 11,-20 5,-6 11,-11 16,-16 10,-5 19,-9 29,-14 5,-5 11,-11 16,-16 5,-6 9,-13 14,-19 4,-3 8,-7 12,-10 3,-5 6,-9 8,-14 0,0 0,-1 0,-1 -2,-3 -3,-7 -5,-11 -2,-2 -4,-5 -6,-7 -3,-3 -5,-6 -7,-8 0,-4 0,-8 -1,-11 3,-5 6,-9 9,-14 3,-5 7,-11 11,-16 3,-11 7,-22 10,-33 0,-6 0,-12 0,-18 -2,-4 -4,-9 -6,-13 -3,-6 -6,-13 -8,-19 -2,-6 -4,-12 -6,-18 3,-4 7,-9 10,-14 8,-1 16,-1 24,-2 7,1 15,1 23,2 6,0 12,1 17,1 4,-2 8,-4 12,-5 4,-4 7,-7 11,-11 0,-3 1,-7 1,-11 1,-3 2,-7 3,-10 2,-4 4,-7 6,-10 2,-2 4,-3 7,-5 3,0 7,0 10,-1 3,2 5,3 7,5 3,1 5,1 8,2 3,-1 6,-3 9,-4 2,-4 4,-8 5,-12 3,-5 6,-11 9,-16 3,-4 5,-7 8,-10 5,-3 10,-7 15,-10 7,-1 13,-3 19,-4 14,1 29,1 43,2 10,0 20,0 30,0 4,3 8,6 13,9 4,1 8,2 12,4 4,-1 7,-1 11,-1 3,0 5,0 7,0 4,-3 7,-6 11,-8 3,-3 6,-6 8,-8 2,-1 3,-2 4,-2 1,-1 2,-2 4,-3 2,1 5,2 7,4 1,4 2,8 2,12 4,2 7,3 10,5z"/>
   </g>
   <g>
    <path fill="#3E6F4E" d="M474 106c3,2 6,4 10,6 4,4 8,8 12,12 2,6 3,12 4,18 2,6 4,11 6,17 2,4 3,7 4,11 2,4 4,9 5,13 8,1 15,3 22,4 10,0 20,1 31,1 5,2 10,3 15,5 6,6 12,12 19,18 2,2 5,4 8,7 8,8 16,16 24,24 4,2 8,4 12,6 6,0 11,-1 16,-1 4,-3 8,-6 12,-10 5,-1 9,-3 14,-5 5,1 11,2 16,3 4,1 9,2 13,3 6,-2 12,-4 18,-6 6,-3 13,-6 19,-10 6,-3 12,-6 17,-9 5,-1 9,-3 13,-4 6,1 11,2 16,3 4,2 8,5 12,8 2,4 4,8 6,12 2,3 3,6 5,9 3,3 6,5 9,8 3,0 7,0 11,0 2,3 5,6 8,9 2,9 5,18 7,27 4,11 8,21 12,32 4,3 8,6 12,8 4,4 7,7 11,11 9,1 19,1 28,2 8,1 17,1 25,1 5,-3 10,-6 15,-9 3,-4 6,-8 9,-12 4,-3 8,-7 12,-10 4,-3 9,-5 14,-7 3,-1 6,-2 9,-4 2,0 4,-1 6,-1 3,1 6,2 9,4 1,3 3,6 4,9 0,4 1,7 1,10 -1,4 -3,9 -4,13 -2,5 -5,10 -7,15 -3,5 -6,10 -9,15 -4,4 -8,8 -12,13 -1,3 -3,6 -5,10 0,3 0,7 0,10 1,3 3,6 4,8 4,3 8,6 12,8 4,-1 8,-2 12,-4 1,-3 3,-6 4,-9 3,-3 5,-6 7,-10 2,-2 4,-4 6,-6 2,-3 3,-5 4,-8 2,-2 4,-4 6,-7 13,13 26,26 38,39 -1,14 -2,28 -4,42 -7,7 -14,14 -21,21 1,9 1,19 1,28 15,4 29,8 43,11 15,20 29,40 43,60 2,3 4,6 7,9 6,16 13,31 20,47 -5,15 -10,31 -15,46 2,23 4,46 5,68 -4,9 -9,17 -14,25 -5,7 -9,14 -14,21 3,9 6,18 8,27 8,12 16,24 24,36 11,3 23,6 34,10 4,-3 8,-6 12,-9 3,5 6,10 9,15 2,3 3,5 4,8 2,3 5,7 7,10 1,4 2,8 4,13 2,4 4,8 6,12 0,5 0,9 0,14 -1,5 -2,9 -3,14 -3,3 -6,7 -9,10 -4,0 -8,0 -12,-1 -3,-1 -7,-2 -11,-4 -2,-3 -5,-6 -8,-9 -2,-3 -5,-6 -7,-9 -6,-1 -11,-3 -16,-4 -6,1 -12,2 -18,2 -4,-2 -9,-4 -14,-7 -4,-1 -8,-3 -13,-4 -5,-2 -10,-3 -16,-4 -7,-3 -15,-6 -22,-9 -7,-2 -13,-4 -20,-5 -7,-3 -14,-6 -22,-9 -6,-2 -12,-4 -18,-6 0,0 -1,0 -1,0 -3,2 -7,5 -11,8 -4,3 -9,6 -14,9 -7,1 -13,2 -20,3 -7,1 -14,1 -21,1 -5,4 -10,8 -14,11 -7,2 -13,5 -19,7 -6,1 -13,3 -19,4 -4,2 -8,4 -12,5 -6,1 -12,1 -18,2 -3,2 -6,3 -9,4 -4,3 -8,6 -12,9 -3,4 -6,8 -9,11 -1,6 -3,11 -4,16 -1,7 -2,13 -3,19 -3,4 -6,8 -10,12 -3,5 -6,10 -9,15 -2,5 -5,9 -7,13 -2,4 -5,7 -7,10 -3,2 -7,4 -10,6 -2,2 -5,4 -8,6 -3,3 -7,6 -11,10 0,0 1,0 1,1 1,6 1,12 2,19 0,8 0,15 0,23 2,4 4,8 7,12 5,2 11,4 16,7 3,4 7,8 10,13 0,4 0,9 1,13 -1,3 -3,6 -4,8 -2,6 -5,12 -7,18 -3,6 -7,12 -10,17 -5,7 -10,13 -15,19 -6,5 -12,10 -18,15 -1,-1 -3,-2 -5,-3 -7,2 -14,4 -21,6 -5,2 -10,4 -15,6 -4,-4 -9,-7 -14,-11 -3,-3 -7,-5 -11,-8 -6,-5 -11,-9 -17,-14 -6,1 -12,1 -19,2 -6,0 -12,1 -19,1 -8,-2 -15,-5 -23,-7 -10,-4 -19,-8 -28,-12 -5,-4 -10,-9 -15,-13 -2,-7 -3,-15 -5,-22 -2,-8 -4,-16 -6,-24 -4,-8 -8,-16 -12,-24 -4,-8 -8,-15 -12,-23 -5,-3 -10,-7 -16,-10 0,0 -1,-1 -1,-1 -6,-5 -11,-10 -17,-15 -5,-5 -10,-10 -16,-15 -7,-7 -14,-14 -22,-22 -10,-2 -20,-4 -29,-7 -4,3 -8,5 -12,7 0,1 0,1 0,2 -3,-3 -5,-5 -8,-8 -5,-3 -11,-7 -16,-10 -3,-4 -6,-7 -8,-10 -3,-6 -6,-11 -9,-16 0,-6 -1,-11 -1,-17 0,-7 -1,-13 -1,-20 -2,-4 -3,-7 -5,-11 -1,-3 -2,-5 -3,-8 0,-6 0,-11 0,-17 1,-4 2,-8 3,-11 0,-3 0,-6 1,-9 0,-3 0,-6 0,-9 0,-1 0,-1 0,-1 -2,-3 -4,-5 -5,-8 -13,-9 -25,-17 -38,-25 -5,-6 -9,-12 -14,-18 -6,-5 -13,-11 -20,-16 0,0 0,-1 -1,-1 -3,-1 -6,-2 -10,-3 -2,2 -5,4 -8,6 -5,6 -10,12 -15,18 -4,1 -8,3 -11,4 -5,0 -11,1 -16,1 -6,-3 -13,-6 -19,-9 -7,-10 -14,-20 -20,-30 -5,-8 -11,-17 -16,-25 -1,-5 -3,-10 -5,-15 -3,-5 -5,-10 -8,-16 -2,-5 -4,-9 -6,-14 0,-7 0,-15 0,-22 -1,-6 -3,-13 -5,-19 -2,-6 -4,-11 -6,-17 -4,-7 -8,-14 -12,-20 -2,-4 -4,-7 -6,-11 -5,-7 -10,-13 -15,-20 -2,-6 -3,-11 -5,-17 0,-3 0,-5 0,-8 -1,-3 -1,-7 -1,-10 0,-5 0,-10 -1,-15 -3,-1 -7,-3 -10,-5 -6,0 -11,-1 -16,-2 -6,-1 -13,-2 -19,-3 -3,-4 -5,-7 -7,-10 -3,-2 -7,-5 -11,-7 -6,-3 -11,-5 -17,-8 -5,-2 -10,-4 -15,-7 -4,-3 -9,-6 -13,-9 -1,-7 -1,-14 -2,-21 4,-7 8,-13 11,-20 6,-5 11,-10 16,-16 10,-4 19,-9 29,-14 6,-5 11,-11 16,-16 5,-6 9,-12 14,-18 4,-4 8,-8 12,-11 3,-5 6,-9 8,-14 0,0 0,0 0,-1 -2,-3 -3,-7 -5,-10 -2,-3 -4,-6 -6,-8 -2,-3 -5,-5 -7,-8 0,-4 0,-8 -1,-11 3,-5 6,-9 9,-14 4,-5 7,-11 11,-16 3,-11 7,-22 10,-33 0,-6 0,-12 0,-17 -2,-5 -4,-9 -5,-14 -3,-6 -6,-12 -9,-19 -2,-6 -4,-11 -6,-17 3,-5 7,-10 10,-15 8,0 16,-1 24,-1 8,0 15,1 23,1 6,1 12,1 18,1 3,-1 7,-3 11,-5 4,-4 7,-7 11,-10 0,-4 1,-8 2,-12 0,-3 1,-7 2,-10 2,-3 4,-7 6,-10 2,-1 4,-3 7,-5 3,0 7,0 10,0 3,1 5,3 7,4 3,1 5,2 8,2 3,-1 6,-3 9,-4 2,-4 4,-8 6,-11 2,-6 5,-12 8,-17 3,-3 6,-6 8,-10 5,-3 10,-6 15,-10 7,-1 13,-2 19,-4 14,1 29,1 43,2 10,0 20,0 30,0 4,3 9,6 13,9 4,1 8,3 12,4 4,0 7,0 11,-1 3,0 5,0 7,0 4,-3 7,-5 11,-8 3,-3 6,-5 9,-8 1,-1 2,-1 3,-2 1,-1 3,-2 4,-3 2,1 5,3 7,4 1,4 2,8 2,12 4,2 7,4 10,5z"/>
   </g>
   <g>
    <path fill="#437552" d="M476 99c3,2 6,3 9,5 4,4 8,8 12,13 2,6 3,12 4,18 2,5 5,11 7,16 1,4 2,8 3,11 2,5 4,9 6,13 7,2 14,3 21,4 10,1 20,1 31,1 5,2 10,3 15,5 6,6 13,12 19,18 2,2 5,5 8,7 8,8 16,16 24,24 4,2 8,4 13,6 5,0 10,0 15,-1 4,-3 8,-6 13,-9 4,-2 9,-4 13,-6 5,1 11,2 16,3 5,1 9,2 13,3 6,-2 12,-4 18,-6 6,-3 13,-6 19,-9 6,-4 12,-7 18,-10 4,-1 8,-2 12,-4 6,1 11,2 16,3 4,3 8,5 12,8 2,4 4,8 6,12 2,3 3,7 5,10 3,2 6,5 9,7 4,0 7,0 11,0 3,3 5,6 8,9 3,9 5,18 7,27 4,11 8,22 12,32 4,3 8,6 12,9 4,3 7,6 11,10 10,1 19,2 28,3 9,0 17,0 25,1 5,-3 10,-6 15,-9 3,-4 6,-8 9,-13 4,-3 8,-7 12,-10 4,-2 9,-4 14,-6 3,-2 6,-3 9,-4 2,-1 4,-1 6,-2 3,1 6,3 9,4 1,3 3,6 4,9 0,4 1,7 1,10 -1,5 -2,9 -4,13 -2,5 -5,10 -7,16 -3,4 -6,9 -9,14 -4,4 -8,9 -12,13 -1,3 -3,7 -5,10 0,3 0,7 0,10 2,3 3,6 4,9 4,2 8,5 12,7 4,-1 8,-2 12,-4 1,-2 3,-5 4,-8 3,-4 5,-7 7,-10 2,-3 4,-5 6,-7 2,-2 3,-5 4,-8 2,-2 4,-4 6,-6 13,12 26,25 38,38 -1,14 -2,28 -3,42 -8,7 -15,14 -22,21 1,10 1,19 1,29 15,3 29,7 44,10 14,20 28,40 42,60 2,3 5,6 7,9 7,16 13,31 20,47 -5,15 -10,31 -15,46 2,23 4,46 6,69 -5,8 -10,16 -15,24 -5,7 -9,15 -14,22 3,9 6,18 8,26 8,12 16,24 24,36 11,4 23,7 34,10 4,-3 8,-6 12,-9 3,6 6,11 9,16 2,2 3,4 4,7 2,3 5,7 7,11 1,4 3,8 4,12 2,4 4,8 6,12 0,5 0,10 0,14 -1,5 -2,10 -3,14 -3,4 -6,7 -9,10 -4,0 -8,0 -12,0 -3,-2 -7,-3 -11,-5 -2,-3 -5,-6 -7,-9 -3,-3 -6,-6 -8,-9 -6,-1 -11,-3 -16,-4 -6,1 -12,2 -17,3 -5,-3 -10,-5 -14,-8 -5,-1 -9,-3 -13,-4 -6,-1 -11,-2 -17,-3 -7,-4 -15,-7 -22,-10 -7,-2 -13,-3 -20,-5 -7,-3 -14,-6 -21,-9 -7,-2 -13,-4 -19,-6 0,0 0,0 -1,0 -3,3 -7,5 -11,8 -4,3 -9,6 -14,9 -6,1 -13,2 -20,4 -7,0 -14,0 -21,1 -5,3 -9,7 -14,10 -6,3 -13,5 -19,7 -6,2 -13,3 -19,5 -4,1 -8,3 -12,5 -6,0 -12,1 -17,1 -4,2 -7,3 -10,5 -4,3 -8,6 -12,9 -3,3 -6,7 -9,10 -1,6 -3,11 -4,17 -1,6 -2,12 -3,18 -3,4 -6,8 -10,12 -3,5 -6,10 -9,16 -2,4 -4,8 -7,12 -2,4 -5,7 -7,10 -3,2 -6,4 -10,6 -2,2 -5,4 -7,6 -4,3 -8,7 -12,10 1,0 1,1 1,1 1,6 1,13 2,19 0,8 0,16 0,24 2,3 5,7 7,11 5,2 11,5 16,7 3,4 7,9 10,13 0,4 1,9 1,13 -1,3 -2,6 -4,9 -2,6 -4,11 -7,17 -3,6 -7,12 -10,18 -5,6 -10,12 -15,18 -6,5 -11,10 -17,15 -2,-1 -4,-2 -6,-3 -7,2 -14,4 -21,6 -5,2 -10,4 -14,6 -5,-3 -10,-7 -14,-11 -4,-2 -8,-5 -12,-8 -6,-4 -11,-9 -16,-13 -7,0 -13,1 -19,1 -7,1 -13,1 -20,1 -7,-2 -15,-4 -23,-7 -9,-4 -19,-8 -28,-12 -5,-4 -10,-8 -15,-13 -2,-7 -3,-15 -5,-22 -2,-8 -4,-16 -6,-24 -4,-8 -8,-16 -12,-24 -4,-8 -8,-15 -12,-23 -5,-3 -10,-6 -16,-10 0,0 -1,0 -1,-1 -6,-5 -11,-10 -17,-15 -5,-5 -10,-10 -16,-15 -7,-7 -14,-14 -22,-21 -10,-3 -19,-5 -29,-8 -4,3 -8,5 -12,8 0,0 0,0 0,1 -3,-3 -5,-5 -7,-7 -6,-4 -12,-8 -17,-11 -3,-4 -5,-7 -8,-10 -3,-5 -6,-11 -9,-16 0,-5 0,-11 -1,-17 0,-6 -1,-13 -1,-20 -2,-3 -3,-7 -5,-11 -1,-2 -2,-5 -3,-8 0,-6 0,-11 0,-17 1,-3 2,-7 3,-11 0,-3 0,-6 1,-8 0,-4 0,-7 0,-10 0,0 0,-1 0,-1 -2,-3 -4,-5 -5,-8 -13,-8 -25,-17 -38,-25 -4,-6 -9,-12 -14,-17 -6,-6 -13,-11 -19,-17 -1,0 -1,0 -1,-1 -4,-1 -7,-2 -11,-3 -2,2 -5,4 -7,6 -6,6 -11,12 -16,18 -4,1 -7,3 -11,4 -5,1 -10,1 -15,1 -7,-3 -14,-6 -20,-9 -7,-10 -14,-20 -20,-30 -5,-8 -10,-16 -15,-25 -2,-5 -4,-10 -6,-14 -3,-6 -5,-11 -8,-17 -2,-4 -4,-9 -5,-14 0,-7 0,-14 0,-22 -2,-6 -4,-13 -5,-19 -3,-6 -5,-11 -7,-16 -4,-7 -8,-14 -12,-21 -2,-4 -4,-7 -6,-11 -5,-6 -10,-13 -15,-20 -2,-6 -3,-11 -5,-17 0,-2 0,-5 0,-8 -1,-3 -1,-6 -1,-10 0,-5 0,-10 0,-14 -4,-2 -8,-4 -11,-5 -5,-1 -11,-2 -16,-3 -6,-1 -13,-2 -19,-3 -2,-3 -4,-7 -7,-10 -3,-2 -7,-4 -11,-7 -6,-2 -11,-5 -17,-8 -5,-2 -10,-4 -15,-6 -4,-4 -9,-7 -13,-10 -1,-7 -1,-14 -2,-21 4,-6 8,-13 11,-20 6,-5 11,-10 16,-15 10,-5 20,-10 29,-14 6,-6 11,-11 17,-17 4,-6 8,-12 13,-18 4,-4 8,-7 12,-11 3,-4 6,-9 9,-13 -1,-1 -1,-1 -1,-1 -2,-4 -3,-7 -5,-11 -2,-3 -4,-5 -6,-8 -2,-3 -5,-5 -7,-8 0,-4 0,-7 0,-11 2,-4 5,-9 8,-13 4,-6 7,-11 11,-17 4,-11 7,-22 10,-33 0,-6 0,-11 0,-17 -2,-5 -3,-9 -5,-14 -3,-6 -6,-12 -9,-19 -2,-5 -4,-11 -6,-17 3,-5 7,-10 10,-14 8,-1 16,-2 24,-2 8,0 15,1 23,2 6,0 12,0 18,1 4,-2 8,-4 11,-6 4,-3 7,-7 11,-10 1,-4 1,-8 2,-11 0,-4 1,-7 2,-11 2,-3 4,-6 6,-10 2,-1 5,-3 7,-4 3,-1 7,-1 11,-1 2,1 4,3 6,4 3,1 6,2 8,3 3,-2 6,-3 9,-5 2,-4 4,-7 6,-11 3,-6 5,-11 8,-17 3,-3 6,-6 8,-9 5,-4 11,-7 16,-10 6,-2 12,-3 18,-4 14,0 29,1 43,1 10,0 20,0 30,0 5,3 9,6 13,9 4,2 8,3 12,4 4,0 8,0 11,0 3,-1 5,-1 8,-1 3,-3 6,-5 10,-8 3,-2 6,-5 9,-8 1,0 2,-1 3,-2 1,-1 3,-2 4,-3 2,2 5,3 7,4 1,4 2,8 3,13 3,1 6,3 10,5z"/>
   </g>
   <g>
    <path fill="#477A57" d="M477 91c3,2 6,4 9,6 4,4 8,8 12,12 2,6 3,12 4,18 3,5 5,11 7,17 1,3 2,7 3,11 2,4 4,8 6,13 7,1 14,2 21,4 10,0 20,0 31,1 5,1 10,3 15,4 7,6 13,12 19,18 2,3 5,5 8,7 8,8 16,16 24,24 4,3 9,5 13,7 5,-1 10,-1 15,-1 4,-4 8,-7 13,-10 4,-2 9,-4 13,-6 6,1 11,2 16,3 5,1 9,3 13,4 6,-2 12,-4 18,-7 7,-3 13,-6 19,-9 6,-3 12,-7 18,-10 4,-1 8,-2 13,-3 5,0 10,1 15,2 4,3 8,5 12,8 2,4 4,8 6,12 2,4 4,7 5,10 3,2 6,5 9,7 4,0 7,0 11,0 3,3 5,7 8,10 3,9 5,18 8,27 3,10 7,21 11,32 4,2 8,5 12,8 4,3 8,7 11,10 10,1 19,2 28,3 9,0 17,1 26,1 4,-3 9,-6 14,-9 3,-4 6,-8 9,-12 4,-4 8,-7 12,-11 4,-2 9,-4 14,-6 3,-1 6,-3 9,-4 2,-1 4,-1 6,-2 3,2 6,3 9,4 1,3 3,7 4,10 1,3 1,6 1,10 -1,4 -2,8 -3,12 -3,5 -6,11 -8,16 -3,5 -6,10 -9,14 -4,5 -8,9 -11,13 -2,4 -4,7 -6,10 0,4 0,7 0,11 2,2 3,5 4,8 4,3 8,5 12,8 4,-2 8,-3 12,-4 1,-3 3,-6 5,-9 2,-4 4,-7 6,-10 2,-2 4,-4 6,-6 2,-3 3,-6 4,-8 2,-2 4,-5 6,-7 13,13 26,25 39,38 -2,14 -3,28 -4,42 -7,7 -15,14 -22,21 1,10 1,19 2,29 14,4 28,7 43,11 14,19 28,39 42,59 2,3 5,6 7,10 7,15 13,31 20,46 -5,16 -10,31 -15,47 2,22 4,45 6,68 -5,8 -10,16 -15,25 -4,7 -9,14 -13,21 2,9 5,18 7,27 8,12 16,24 24,36 11,3 23,6 34,9 4,-3 8,-5 12,-8 3,5 6,10 9,15 2,2 3,5 4,7 3,4 5,7 7,11 1,4 3,8 4,12 2,4 4,8 6,12 0,5 0,10 0,15 -1,4 -2,9 -3,14 -3,3 -6,6 -9,10 -4,-1 -7,-1 -11,-1 -4,-1 -8,-3 -12,-4 -2,-3 -5,-6 -7,-9 -3,-3 -6,-6 -8,-9 -5,-2 -11,-3 -16,-5 -6,1 -12,2 -17,3 -5,-2 -10,-5 -14,-7 -5,-2 -9,-3 -13,-5 -6,-1 -11,-2 -17,-3 -7,-3 -14,-6 -22,-10 -6,-1 -13,-3 -19,-5 -8,-3 -15,-6 -22,-9 -7,-2 -13,-4 -19,-6 0,0 0,0 0,0 -4,3 -8,6 -12,9 -4,3 -9,5 -14,8 -6,2 -13,3 -20,4 -7,0 -14,1 -21,1 -4,4 -9,7 -14,11 -6,2 -12,4 -19,6 -6,2 -13,3 -19,5 -4,2 -8,3 -12,5 -6,0 -12,1 -17,2 -4,1 -7,3 -10,4 -4,3 -8,6 -12,9 -3,3 -6,7 -9,11 -1,5 -3,10 -4,16 -1,6 -2,12 -3,18 -3,4 -6,8 -9,12 -4,5 -7,11 -10,16 -2,4 -4,8 -7,13 -2,3 -4,6 -7,10 -3,2 -6,4 -10,5 -2,2 -5,5 -7,7 -4,3 -8,6 -12,9 1,0 1,1 1,1 1,7 1,13 2,19 0,8 0,16 0,24 2,4 5,7 7,11 5,3 11,5 16,7 4,5 7,9 10,13 1,5 1,9 1,14 -1,2 -2,5 -4,8 -2,6 -4,12 -7,17 -3,6 -6,12 -10,18 -5,6 -10,12 -14,19 -6,5 -12,10 -18,14 -2,-1 -4,-1 -5,-2 -7,1 -15,3 -22,5 -5,2 -9,4 -14,6 -5,-3 -10,-7 -14,-10 -4,-3 -8,-6 -12,-9 -5,-4 -11,-9 -16,-13 -7,0 -13,1 -19,1 -7,1 -13,1 -19,2 -8,-3 -16,-5 -24,-8 -9,-4 -19,-7 -28,-11 -5,-5 -10,-9 -15,-13 -1,-8 -3,-15 -5,-23 -2,-8 -4,-15 -6,-23 -4,-8 -8,-17 -12,-25 -4,-7 -8,-15 -12,-22 -5,-4 -10,-7 -15,-10 -1,-1 -2,-1 -2,-2 -6,-5 -11,-10 -16,-15 -6,-5 -11,-9 -17,-14 -7,-8 -14,-15 -22,-22 -9,-3 -19,-5 -29,-7 -4,2 -8,4 -12,7 0,0 0,1 0,1 -3,-2 -5,-5 -7,-7 -6,-4 -12,-7 -17,-11 -3,-3 -5,-7 -8,-10 -3,-5 -6,-10 -9,-16 0,-5 0,-11 0,-16 -1,-7 -2,-14 -2,-21 -2,-3 -3,-7 -5,-10 -1,-3 -1,-6 -2,-9 0,-5 0,-11 0,-16 0,-4 1,-8 2,-12 0,-3 1,-5 1,-8 0,-3 0,-6 0,-10 0,0 0,0 0,-1 -2,-2 -4,-5 -5,-8 -13,-8 -25,-16 -38,-25 -4,-6 -9,-11 -14,-17 -6,-6 -13,-11 -19,-16 -1,-1 -1,-1 -1,-1 -4,-1 -7,-2 -11,-3 -2,1 -5,3 -7,5 -5,6 -10,12 -16,18 -3,2 -7,3 -11,5 -5,0 -10,0 -15,0 -7,-3 -13,-6 -20,-9 -7,-10 -13,-19 -20,-29 -5,-9 -10,-17 -15,-26 -2,-4 -4,-9 -6,-14 -2,-6 -5,-11 -8,-16 -2,-5 -3,-10 -5,-14 0,-8 0,-15 0,-22 -2,-7 -4,-13 -5,-20 -3,-5 -5,-11 -7,-16 -4,-7 -8,-14 -12,-21 -2,-3 -4,-7 -6,-10 -5,-7 -10,-14 -15,-21 -2,-5 -3,-11 -5,-16 0,-3 0,-6 0,-8 0,-4 -1,-7 -1,-11 0,-4 0,-9 0,-14 -4,-2 -7,-3 -11,-5 -5,-1 -11,-2 -16,-2 -6,-1 -13,-3 -19,-4 -2,-3 -4,-6 -6,-10 -4,-2 -8,-4 -12,-6 -5,-3 -11,-6 -17,-8 -5,-3 -10,-5 -15,-7 -4,-3 -9,-6 -13,-10 -1,-7 -1,-13 -2,-20 4,-7 8,-14 12,-20 5,-6 10,-11 15,-16 10,-5 20,-10 29,-14 6,-6 11,-11 17,-16 4,-7 9,-13 13,-19 4,-3 8,-7 12,-11 3,-4 6,-9 9,-13 0,0 -1,-1 -1,-1 -2,-4 -3,-7 -5,-11 -2,-2 -4,-5 -6,-8 -2,-2 -5,-5 -7,-8 0,-3 0,-7 0,-11 2,-4 5,-9 8,-13 4,-6 8,-11 11,-16 4,-11 7,-22 10,-34 0,-5 0,-11 0,-17 -1,-4 -3,-9 -5,-13 -3,-7 -6,-13 -9,-19 -2,-6 -4,-12 -6,-18 4,-5 7,-9 10,-14 8,-1 16,-1 24,-2 8,1 16,1 23,2 6,0 12,1 18,1 4,-2 8,-4 12,-6 3,-3 7,-6 10,-10 1,-4 1,-7 2,-11 1,-4 1,-7 2,-11 2,-3 4,-6 6,-9 2,-2 5,-4 7,-5 3,0 7,-1 11,-1 2,2 4,3 6,5 3,0 6,1 8,2 3,-2 6,-3 9,-5 2,-3 4,-7 6,-11 3,-5 5,-11 8,-17 3,-3 6,-6 9,-9 5,-3 10,-7 15,-10 6,-1 12,-3 18,-4 15,0 29,1 43,2 10,0 20,0 31,0 4,3 8,6 12,8 4,2 8,3 12,4 4,0 8,0 11,0 3,0 5,0 8,-1 3,-2 6,-5 10,-7 3,-3 6,-6 9,-8 1,-1 2,-2 3,-3 1,-1 3,-1 4,-2 3,1 5,2 7,4 1,4 2,8 3,12 3,2 6,3 10,5z"/>
   </g>
   <g>
    <path fill="#4B7F5B" d="M478 83c3,2 6,4 9,6 4,4 8,8 13,12 1,6 2,12 4,18 2,6 4,11 6,17 1,4 2,7 3,11 2,4 4,9 6,13 7,1 14,3 21,4 10,0 21,1 31,1 5,1 10,3 16,4 6,6 12,12 18,18 3,3 5,5 8,8 8,8 16,16 24,24 5,2 9,4 13,6 5,0 10,-1 15,-1 4,-3 9,-7 13,-10 4,-2 9,-3 13,-5 6,1 11,2 17,2 4,2 8,3 12,4 6,-2 12,-4 18,-6 7,-3 13,-7 19,-10 6,-3 12,-6 18,-9 4,-2 8,-3 13,-4 5,1 10,2 15,3 4,2 8,5 12,7 2,4 4,9 6,13 2,3 4,6 5,9 3,3 6,5 9,8 4,0 7,0 11,0 3,3 6,6 8,9 3,9 5,18 8,27 4,11 8,21 11,32 4,3 8,5 12,8 4,4 8,7 11,10 10,1 19,2 28,3 9,1 17,1 26,1 4,-3 9,-6 14,-9 3,-4 6,-8 9,-12 4,-4 8,-7 12,-11 5,-2 9,-4 14,-6 3,-1 6,-2 9,-4 2,0 4,-1 6,-1 3,1 6,2 9,4 2,3 3,6 4,9 1,3 1,7 1,10 -1,4 -2,8 -3,12 -3,6 -5,11 -8,16 -3,5 -6,10 -9,15 -4,4 -8,8 -11,13 -2,3 -4,6 -5,10 0,3 0,6 0,10 1,3 2,5 3,8 4,3 8,5 12,8 4,-1 8,-3 12,-4 2,-3 3,-6 5,-9 2,-3 4,-7 6,-10 2,-2 4,-4 7,-6 1,-3 2,-5 3,-8 2,-2 5,-4 7,-7 12,13 25,26 38,38 -2,14 -3,28 -4,42 -7,7 -14,15 -22,22 1,9 1,19 2,28 14,4 28,7 43,11 14,20 28,40 42,59 3,4 5,7 7,10 7,15 13,31 20,46 -5,16 -10,31 -15,47 2,23 4,45 6,68 -5,8 -10,17 -15,25 -4,7 -9,14 -13,21 2,9 5,18 8,27 7,12 15,24 23,36 11,3 23,6 34,10 4,-3 8,-6 12,-9 4,5 7,10 10,15 1,3 2,5 3,7 3,4 5,8 7,11 1,4 3,8 4,12 2,5 4,9 6,13 0,4 0,9 0,14 -1,4 -2,9 -3,14 -2,3 -5,7 -8,10 -4,0 -8,-1 -12,-1 -4,-1 -8,-3 -11,-4 -3,-3 -6,-6 -8,-9 -3,-3 -5,-6 -8,-9 -5,-2 -11,-3 -16,-5 -6,1 -11,2 -17,3 -5,-2 -10,-5 -14,-7 -5,-2 -9,-3 -13,-5 -6,-1 -11,-2 -16,-3 -8,-3 -15,-6 -23,-9 -6,-2 -13,-4 -19,-5 -8,-3 -15,-6 -22,-9 -6,-2 -13,-5 -19,-7 0,0 0,0 0,0 -4,3 -8,6 -11,9 -5,3 -10,6 -15,9 -6,1 -13,2 -20,3 -7,1 -14,1 -20,1 -5,4 -10,7 -15,11 -6,2 -12,4 -18,7 -7,1 -14,3 -20,4 -4,2 -8,3 -12,5 -6,1 -11,1 -17,2 -3,1 -7,3 -10,4 -4,3 -8,6 -12,9 -3,4 -6,7 -9,11 -1,5 -2,11 -4,16 -1,6 -2,13 -3,19 -3,4 -6,7 -9,11 -3,6 -7,11 -10,16 -2,4 -4,9 -7,13 -2,3 -4,7 -7,10 -3,2 -6,4 -9,6 -3,2 -6,4 -8,6 -4,3 -8,6 -11,9 0,1 0,1 0,1 1,7 2,13 2,20 0,7 0,15 0,23 3,4 5,8 7,11 5,3 11,5 16,8 4,4 7,8 10,12 1,5 1,9 1,14 -1,3 -2,5 -3,8 -3,6 -5,12 -8,18 -3,6 -6,11 -10,17 -5,6 -9,13 -14,19 -6,5 -12,10 -18,15 -2,-1 -4,-2 -5,-3 -7,2 -14,4 -22,6 -4,2 -9,4 -14,6 -5,-4 -10,-7 -14,-11 -4,-3 -8,-6 -12,-8 -5,-5 -11,-9 -16,-14 -7,1 -13,1 -19,2 -7,0 -13,1 -19,1 -8,-2 -16,-5 -24,-7 -9,-4 -19,-8 -28,-12 -5,-4 -10,-9 -14,-13 -2,-8 -4,-15 -6,-22 -2,-8 -4,-16 -6,-24 -4,-8 -8,-16 -12,-25 -4,-7 -8,-15 -12,-22 -5,-3 -10,-7 -15,-10 -1,-1 -2,-1 -2,-1 -6,-5 -11,-10 -16,-15 -6,-5 -11,-10 -17,-15 -7,-7 -14,-15 -21,-22 -10,-2 -20,-5 -30,-7 -4,2 -8,5 -12,7 0,1 0,1 0,1 -2,-2 -5,-4 -7,-7 -6,-3 -11,-7 -17,-11 -3,-3 -5,-6 -8,-10 -3,-5 -6,-10 -9,-15 0,-6 0,-12 0,-17 -1,-7 -1,-14 -2,-20 -2,-4 -3,-7 -5,-11 0,-3 -1,-6 -2,-8 0,-6 0,-12 0,-17 0,-4 1,-8 2,-11 0,-3 1,-6 1,-9 0,-3 0,-6 1,-9 -1,-1 -1,-1 -1,-1 -2,-3 -3,-6 -5,-8 -13,-9 -25,-17 -38,-26 -4,-5 -9,-11 -14,-17 -6,-5 -13,-11 -19,-16 -1,0 -1,-1 -1,-1 -4,-1 -7,-2 -10,-3 -3,2 -6,4 -8,6 -5,6 -10,12 -15,18 -4,1 -8,2 -12,4 -5,0 -10,0 -15,1 -7,-3 -13,-6 -20,-9 -7,-10 -13,-20 -20,-30 -5,-9 -10,-17 -15,-25 -2,-5 -4,-10 -6,-15 -2,-5 -5,-11 -8,-16 -2,-5 -3,-9 -5,-14 0,-7 0,-15 0,-22 -2,-7 -4,-13 -5,-20 -3,-5 -5,-10 -7,-16 -4,-7 -8,-14 -12,-21 -2,-3 -4,-7 -6,-10 -5,-7 -10,-14 -15,-20 -2,-6 -3,-12 -5,-17 0,-3 0,-5 0,-8 0,-3 0,-7 -1,-10 0,-5 0,-10 0,-15 -4,-1 -7,-3 -11,-5 -5,-1 -10,-1 -16,-2 -6,-1 -13,-2 -19,-3 -2,-4 -4,-7 -6,-10 -4,-3 -8,-5 -12,-7 -5,-3 -11,-5 -17,-8 -5,-2 -10,-5 -14,-7 -5,-3 -9,-6 -14,-9 -1,-7 -1,-14 -2,-21 4,-7 8,-13 12,-20 5,-5 10,-11 15,-16 10,-5 20,-9 29,-14 6,-5 11,-11 17,-16 4,-6 9,-12 13,-19 4,-3 8,-7 12,-10 3,-5 6,-9 9,-14 0,0 -1,0 -1,-1 -1,-3 -3,-7 -5,-10 -2,-3 -4,-6 -6,-8 -2,-3 -4,-6 -7,-8 0,-4 0,-8 0,-11 3,-5 5,-9 8,-14 4,-5 8,-11 11,-16 4,-11 7,-22 11,-33 0,-6 0,-12 0,-18 -2,-4 -4,-9 -6,-13 -3,-6 -6,-13 -9,-19 -2,-6 -4,-12 -6,-17 4,-5 7,-10 10,-15 8,-1 16,-1 24,-2 8,1 16,1 24,2 5,0 11,1 17,1 4,-2 8,-4 12,-5 3,-4 7,-7 10,-10 1,-4 1,-8 2,-12 1,-3 1,-7 2,-10 2,-4 4,-7 6,-10 3,-2 5,-3 7,-5 4,0 7,0 11,0 2,1 4,2 6,4 3,1 6,1 8,2 3,-1 6,-3 9,-4 2,-4 4,-8 6,-12 3,-5 6,-11 8,-16 3,-3 6,-7 9,-10 5,-3 10,-7 15,-10 6,-1 12,-3 18,-4 15,1 29,1 43,2 10,0 21,0 31,0 4,3 8,6 12,9 4,1 8,2 12,4 4,0 8,-1 12,-1 2,0 4,0 7,0 3,-3 7,-6 10,-8 3,-3 6,-5 9,-8 1,-1 2,-2 3,-2 2,-1 3,-2 4,-3 3,1 5,3 7,4 1,4 2,8 3,12 3,2 6,3 10,5z"/>
   </g>
   <g>
    <path fill="#4F8460" d="M479 75c3,2 6,4 9,6 4,4 8,8 13,12 1,6 2,12 4,18 2,6 4,12 6,17 1,4 2,8 3,11 2,5 4,9 6,13 7,1 14,3 21,4 10,1 21,1 31,1 5,2 10,3 16,5 6,6 12,12 18,18 3,2 5,5 8,7 8,8 16,16 25,24 4,2 8,4 12,6 5,0 10,-1 15,-1 4,-3 9,-6 13,-9 4,-2 9,-4 13,-6 6,1 11,2 17,3 4,1 8,2 13,3 5,-2 11,-4 17,-6 7,-3 13,-6 20,-10 5,-3 11,-6 17,-9 4,-1 8,-3 13,-4 5,1 10,2 15,3 4,2 8,5 12,8 2,4 4,8 6,12 2,3 4,6 5,9 3,3 6,5 9,8 4,0 8,0 11,0 3,3 6,6 8,9 3,9 5,18 8,27 4,11 8,21 12,32 3,3 7,6 11,8 4,4 8,7 12,11 9,1 18,2 27,2 9,1 17,1 26,1 5,-2 9,-5 14,-8 3,-5 6,-9 9,-13 4,-3 8,-7 12,-10 5,-2 9,-5 14,-7 3,-1 6,-2 10,-4 1,0 3,-1 5,-1 3,1 6,2 9,4 2,3 3,6 5,9 0,4 0,7 0,10 -1,4 -2,9 -3,13 -3,5 -5,10 -8,15 -3,5 -6,10 -9,15 -4,4 -7,9 -11,13 -2,3 -4,7 -5,10 0,3 0,7 0,10 1,3 2,6 3,8 4,3 8,6 12,8 4,-1 8,-2 12,-4 2,-3 3,-6 5,-9 2,-3 4,-6 6,-10 3,-2 5,-4 7,-6 1,-2 2,-5 4,-8 2,-2 4,-4 6,-6 12,12 25,25 38,38 -2,14 -3,28 -4,42 -7,7 -14,14 -21,21 0,9 0,19 1,28 14,4 28,8 43,11 14,20 28,40 42,60 3,3 5,6 7,9 7,16 14,31 20,47 -5,15 -10,31 -15,46 2,23 4,46 6,69 -5,8 -10,16 -15,24 -4,7 -9,14 -13,21 2,9 5,18 8,27 7,12 15,24 23,36 12,3 23,7 34,10 4,-3 9,-6 13,-9 3,5 6,10 9,15 1,3 2,5 4,8 2,3 4,7 6,10 2,4 3,9 4,13 2,4 4,8 6,12 0,5 0,9 0,14 -1,5 -2,9 -2,14 -3,3 -6,7 -9,10 -4,0 -8,0 -12,0 -4,-2 -8,-3 -11,-5 -3,-3 -6,-6 -8,-9 -3,-3 -5,-6 -8,-9 -5,-1 -11,-3 -16,-4 -6,1 -11,2 -17,2 -5,-2 -10,-4 -14,-7 -4,-1 -9,-3 -13,-4 -6,-1 -11,-3 -16,-4 -8,-3 -15,-6 -23,-9 -6,-2 -13,-4 -19,-5 -8,-3 -15,-6 -22,-9 -6,-2 -13,-4 -19,-6 0,0 0,0 0,0 -4,2 -8,5 -11,8 -5,3 -10,6 -14,9 -7,1 -14,2 -21,3 -7,1 -13,1 -20,2 -5,3 -10,7 -15,10 -6,2 -12,5 -18,7 -7,1 -13,3 -20,4 -4,2 -8,4 -12,5 -6,1 -11,2 -17,2 -3,2 -7,3 -10,4 -4,3 -8,6 -12,9 -3,4 -6,8 -8,11 -2,6 -3,11 -5,16 -1,7 -2,13 -3,19 -3,4 -6,8 -9,12 -3,5 -7,10 -10,15 -2,5 -4,9 -6,13 -3,4 -5,7 -8,10 -3,2 -6,4 -9,6 -3,2 -6,4 -8,6 -4,3 -8,6 -11,10 0,0 0,0 0,1 1,6 2,12 2,19 0,8 0,16 0,23 3,4 5,8 7,12 6,2 11,4 16,7 4,4 7,8 11,13 0,4 0,9 0,13 -1,3 -2,6 -3,9 -3,5 -5,11 -8,17 -3,6 -6,12 -10,17 -4,7 -9,13 -14,19 -6,5 -12,10 -18,15 -2,-1 -4,-2 -5,-3 -7,2 -14,4 -21,6 -5,2 -10,4 -15,6 -5,-4 -9,-7 -14,-11 -4,-3 -8,-5 -12,-8 -5,-5 -11,-9 -16,-14 -6,1 -13,1 -19,2 -6,0 -13,1 -19,1 -8,-2 -16,-5 -24,-7 -9,-4 -18,-8 -28,-12 -5,-4 -10,-8 -14,-13 -2,-7 -4,-15 -6,-22 -2,-8 -4,-16 -6,-24 -4,-8 -8,-16 -12,-24 -4,-8 -8,-15 -12,-23 -5,-3 -10,-7 -15,-10 -1,0 -1,-1 -2,-1 -5,-5 -11,-10 -16,-15 -6,-5 -11,-10 -16,-15 -8,-7 -15,-14 -22,-22 -10,-2 -20,-4 -30,-7 -4,3 -8,5 -12,7 0,1 0,1 0,2 -2,-3 -5,-5 -7,-8 -6,-3 -11,-7 -17,-10 -3,-4 -5,-7 -8,-10 -3,-6 -6,-11 -9,-16 0,-6 0,-11 0,-17 -1,-7 -1,-13 -2,-20 -1,-4 -3,-7 -4,-11 -1,-3 -2,-5 -3,-8 0,-6 0,-11 0,-17 1,-4 1,-7 2,-11 0,-3 1,-6 1,-9 0,-3 0,-6 1,-9 -1,0 -1,-1 -1,-1 -2,-3 -3,-5 -5,-8 -13,-8 -25,-17 -38,-25 -4,-6 -9,-12 -13,-18 -7,-5 -14,-10 -20,-16 0,0 -1,-1 -1,-1 -4,-1 -7,-2 -10,-3 -3,2 -6,4 -8,6 -5,6 -10,12 -15,18 -4,1 -8,3 -12,4 -5,0 -10,1 -15,1 -7,-3 -13,-6 -20,-9 -7,-10 -13,-20 -20,-30 -5,-8 -10,-17 -15,-25 -2,-5 -4,-10 -6,-15 -2,-5 -5,-10 -8,-16 -1,-5 -3,-9 -5,-14 0,-7 0,-14 0,-22 -2,-6 -3,-13 -5,-19 -2,-6 -5,-11 -7,-17 -4,-7 -8,-13 -12,-20 -2,-4 -4,-7 -6,-11 -5,-7 -10,-13 -15,-20 -1,-6 -3,-11 -4,-17 -1,-3 -1,-5 -1,-8 0,-3 0,-7 -1,-10 0,-5 0,-10 0,-15 -4,-1 -7,-3 -11,-5 -5,0 -10,-1 -16,-2 -6,-1 -13,-2 -19,-3 -2,-3 -4,-7 -6,-10 -4,-2 -8,-5 -12,-7 -5,-3 -11,-5 -17,-8 -5,-2 -10,-4 -14,-7 -5,-3 -9,-6 -14,-9 0,-7 -1,-14 -2,-21 4,-6 8,-13 12,-20 5,-5 10,-10 15,-16 10,-4 20,-9 30,-14 5,-5 10,-10 16,-16 4,-6 9,-12 13,-18 4,-4 8,-7 12,-11 3,-5 6,-9 9,-14 0,0 0,0 -1,-1 -1,-3 -3,-7 -5,-10 -2,-3 -4,-5 -6,-8 -2,-3 -4,-5 -7,-8 0,-4 0,-7 0,-11 3,-5 6,-9 8,-14 4,-5 8,-10 11,-16 4,-11 7,-22 11,-33 0,-6 0,-12 0,-17 -2,-5 -4,-9 -6,-14 -3,-6 -6,-12 -9,-19 -2,-6 -4,-11 -6,-17 4,-5 7,-10 10,-15 8,0 16,-1 24,-1 8,0 16,1 24,1 5,1 11,1 17,1 4,-1 8,-3 12,-5 3,-4 7,-7 10,-10 1,-4 1,-8 2,-12 1,-3 2,-7 2,-10 2,-3 4,-7 6,-10 3,-1 5,-3 7,-5 4,0 7,0 11,0 2,1 4,3 7,4 2,1 5,2 7,2 3,-1 6,-3 9,-4 2,-4 4,-8 6,-11 3,-6 6,-11 8,-17 3,-3 6,-6 9,-10 5,-3 10,-6 15,-10 6,-1 12,-2 18,-4 15,1 29,2 43,2 11,0 21,0 31,0 4,3 8,6 12,9 4,1 8,3 13,4 3,0 7,0 11,-1 2,0 4,0 7,0 3,-3 7,-5 10,-8 3,-3 6,-5 9,-8 1,-1 2,-1 3,-2 2,-1 3,-2 4,-3 3,1 5,3 8,4 0,4 1,8 2,12 3,2 6,4 10,5z"/>
   </g>
   <g>
    <path fill="#548964" d="M480 68c3,2 6,3 9,5 4,4 9,9 13,13 1,6 2,12 4,18 2,5 4,11 6,16 1,4 2,8 3,11 2,5 4,9 6,13 7,2 14,3 21,4 11,1 21,1 31,2 5,1 10,2 16,4 6,6 12,12 18,18 3,2 5,5 8,7 8,8 17,16 25,24 4,2 8,4 12,6 5,0 10,0 15,-1 4,-3 9,-6 13,-9 4,-2 9,-4 13,-6 6,1 11,2 17,3 4,1 8,2 13,3 6,-2 12,-4 17,-6 7,-3 13,-6 20,-9 5,-4 11,-7 17,-10 4,-1 9,-2 13,-4 5,1 10,2 16,3 4,3 7,5 11,8 2,4 4,8 7,12 1,3 3,7 4,10 3,2 6,5 9,7 4,0 8,0 11,0 3,3 6,6 9,9 2,9 4,18 7,27 4,11 8,22 12,32 4,3 7,6 11,9 4,3 8,7 12,10 9,1 18,2 28,3 8,0 16,0 25,1 5,-3 10,-6 14,-9 3,-4 6,-8 9,-13 4,-3 8,-7 12,-10 5,-2 9,-4 14,-6 3,-2 6,-3 10,-4 2,-1 3,-1 5,-2 3,1 6,3 9,4 2,3 3,6 5,10 0,3 0,6 0,10 -1,4 -2,8 -3,12 -3,5 -5,10 -8,16 -3,4 -6,9 -9,14 -4,5 -7,9 -11,13 -2,3 -4,7 -5,10 0,4 0,7 0,10 1,3 2,6 3,9 4,2 8,5 13,8 3,-2 7,-3 11,-4 2,-3 3,-6 5,-9 2,-4 4,-7 7,-10 2,-2 4,-5 6,-7 1,-2 2,-5 4,-7 2,-3 4,-5 6,-7 12,13 25,25 38,38 -1,14 -3,28 -4,42 -7,7 -14,14 -21,21 0,10 0,19 1,29 14,3 29,7 43,10 14,20 28,40 42,60 3,3 5,6 7,9 7,16 14,31 20,47 -5,15 -10,31 -15,46 2,23 4,46 6,69 -5,8 -10,16 -15,24 -4,8 -9,15 -13,22 3,9 5,18 8,27 8,12 15,23 23,35 12,4 23,7 34,10 5,-3 9,-6 13,-8 3,5 6,10 9,15 1,2 2,4 4,7 2,4 4,7 6,11 2,4 3,8 4,12 2,4 4,8 6,12 0,5 0,10 0,14 -1,5 -1,10 -2,14 -3,4 -6,7 -9,10 -4,0 -8,0 -12,0 -4,-2 -8,-3 -11,-5 -3,-3 -5,-6 -8,-9 -3,-3 -5,-6 -8,-9 -5,-1 -10,-3 -16,-4 -5,1 -11,2 -17,3 -5,-3 -9,-5 -14,-8 -4,-1 -9,-3 -13,-4 -5,-1 -11,-2 -16,-3 -8,-4 -15,-7 -23,-10 -6,-2 -13,-3 -19,-5 -7,-3 -15,-6 -22,-9 -6,-2 -12,-4 -19,-6 0,0 0,0 0,0 -4,3 -8,6 -11,8 -5,3 -10,6 -14,9 -7,1 -14,3 -21,4 -6,0 -13,0 -20,1 -5,3 -10,7 -15,10 -6,3 -12,5 -18,7 -7,2 -13,3 -20,5 -4,1 -8,3 -12,5 -5,0 -11,1 -17,1 -3,2 -6,3 -10,5 -4,3 -8,6 -12,9 -3,3 -6,7 -8,10 -2,6 -3,11 -5,17 -1,6 -2,12 -3,18 -3,4 -6,8 -9,12 -3,5 -6,10 -10,16 -2,4 -4,8 -6,13 -3,3 -5,6 -8,10 -3,1 -6,3 -9,5 -3,2 -5,4 -8,6 -4,4 -8,7 -11,10 0,0 0,1 0,1 1,6 2,13 2,19 0,8 0,16 0,24 3,3 5,7 7,11 6,2 11,5 16,7 4,4 7,9 11,13 0,4 0,9 0,13 -1,3 -2,6 -3,9 -3,6 -5,11 -8,17 -3,6 -6,12 -10,18 -4,6 -9,12 -14,19 -6,4 -12,9 -18,14 -2,-1 -3,-2 -5,-3 -7,2 -14,4 -21,6 -5,2 -10,4 -15,6 -5,-3 -9,-7 -14,-10 -4,-3 -8,-6 -12,-9 -5,-4 -11,-9 -16,-13 -6,0 -13,1 -19,1 -6,1 -13,1 -19,2 -8,-3 -16,-5 -24,-8 -9,-4 -18,-8 -28,-12 -5,-4 -9,-8 -14,-13 -2,-7 -4,-14 -6,-22 -2,-8 -4,-16 -6,-23 -4,-9 -8,-17 -12,-25 -4,-8 -8,-15 -11,-22 -6,-4 -11,-7 -16,-11 -1,0 -1,0 -2,-1 -5,-5 -11,-10 -16,-15 -6,-5 -11,-10 -16,-14 -8,-8 -15,-15 -22,-22 -10,-3 -20,-5 -30,-8 -4,3 -8,5 -12,8 0,0 0,1 0,1 -2,-2 -5,-5 -7,-7 -6,-4 -11,-8 -17,-11 -2,-3 -5,-7 -8,-10 -3,-5 -6,-11 -9,-16 0,-5 0,-11 0,-17 -1,-6 -1,-13 -2,-20 -1,-3 -3,-7 -4,-11 -1,-2 -2,-5 -3,-8 0,-5 0,-11 0,-17 1,-3 1,-7 2,-11 0,-3 1,-6 1,-8 0,-3 1,-7 1,-10 0,0 -1,-1 -1,-1 -1,-3 -3,-5 -5,-8 -12,-8 -25,-17 -37,-25 -5,-6 -10,-12 -14,-17 -7,-6 -13,-11 -20,-17 0,0 -1,0 -1,-1 -3,-1 -7,-2 -10,-3 -3,2 -5,4 -8,6 -5,6 -10,12 -15,18 -4,2 -8,3 -12,4 -5,1 -10,1 -15,1 -7,-3 -13,-6 -20,-9 -6,-10 -13,-20 -20,-30 -5,-8 -10,-16 -15,-25 -2,-5 -4,-9 -6,-14 -2,-6 -5,-11 -7,-17 -2,-4 -4,-9 -6,-14 0,-7 0,-14 0,-21 -2,-7 -3,-14 -5,-20 -2,-6 -5,-11 -7,-16 -4,-7 -8,-14 -12,-21 -2,-4 -4,-7 -6,-11 -5,-6 -10,-13 -15,-20 -1,-5 -3,-11 -4,-17 -1,-2 -1,-5 -1,-8 0,-3 0,-6 0,-10 -1,-5 -1,-9 -1,-14 -4,-2 -7,-4 -11,-5 -5,-1 -10,-2 -15,-3 -7,-1 -13,-2 -20,-3 -2,-3 -4,-7 -6,-10 -4,-2 -8,-4 -11,-7 -6,-2 -12,-5 -18,-7 -5,-3 -9,-5 -14,-7 -5,-3 -9,-7 -14,-10 0,-7 -1,-14 -1,-20 3,-7 7,-14 11,-21 5,-5 10,-10 16,-15 9,-5 19,-10 29,-14 5,-6 11,-11 16,-17 4,-6 9,-12 13,-18 4,-4 9,-7 13,-11 2,-4 5,-9 8,-13 0,-1 0,-1 -1,-1 -1,-4 -3,-7 -5,-11 -2,-3 -4,-5 -6,-8 -2,-2 -4,-5 -6,-8 -1,-3 -1,-7 -1,-11 3,-4 6,-9 8,-13 4,-6 8,-11 12,-17 3,-11 6,-22 10,-33 0,-5 0,-11 0,-17 -2,-5 -4,-9 -6,-14 -3,-6 -6,-12 -9,-18 -2,-6 -4,-12 -6,-18 4,-5 7,-10 11,-14 7,-1 15,-2 23,-2 8,0 16,1 24,2 5,0 11,0 17,1 4,-2 8,-4 12,-6 3,-3 7,-7 10,-10 1,-4 2,-7 2,-11 1,-4 2,-7 2,-11 2,-3 4,-6 7,-9 2,-2 4,-4 6,-5 4,-1 7,-1 11,-1 2,2 4,3 7,4 2,1 5,2 8,3 3,-2 6,-3 8,-5 2,-3 4,-7 6,-11 3,-6 6,-11 8,-17 3,-3 6,-6 9,-9 5,-4 10,-7 15,-10 6,-2 12,-3 18,-4 15,0 29,1 44,1 10,0 20,0 30,0 4,3 8,6 12,9 4,2 8,3 13,4 3,0 7,0 11,0 2,0 5,-1 7,-1 3,-2 7,-5 10,-8 3,-2 6,-5 9,-8 1,0 2,-1 3,-2 2,-1 3,-2 4,-3 3,2 5,3 8,4 0,4 1,9 2,13 3,1 7,3 10,5z"/>
   </g>
   <g>
    <path fill="#588E69" d="M481 60c3,2 6,4 9,6 4,4 9,8 13,12 1,6 3,12 4,18 2,5 4,11 6,17 1,3 2,7 3,11 2,4 4,8 6,13 7,1 14,2 21,4 11,0 21,0 31,1 5,1 11,3 16,4 6,6 12,12 18,18 3,3 6,5 8,8 8,8 17,16 25,24 4,2 8,4 12,6 5,-1 10,-1 15,-1 5,-4 9,-7 13,-10 5,-2 9,-4 14,-5 5,0 10,1 16,2 4,1 8,3 13,4 6,-2 12,-4 18,-6 6,-4 12,-7 19,-10 6,-3 11,-6 17,-10 4,-1 9,-2 13,-3 5,0 10,1 16,2 4,3 8,6 12,8 2,4 4,8 6,13 1,3 3,6 5,9 3,2 6,5 9,7 3,0 7,0 10,0 3,3 6,7 9,10 2,9 5,18 7,27 4,10 8,21 12,32 4,2 8,5 11,8 4,3 8,7 12,10 9,1 18,2 28,3 8,0 17,1 25,1 5,-3 10,-6 15,-9 2,-4 5,-8 8,-12 4,-4 8,-7 12,-11 5,-2 10,-4 14,-6 3,-1 7,-3 10,-4 2,-1 3,-1 5,-2 3,2 6,3 9,4 2,3 3,7 5,10 0,3 0,6 0,10 -1,4 -2,8 -3,12 -3,5 -5,11 -8,16 -3,5 -6,10 -9,14 -3,5 -7,9 -11,13 -2,4 -3,7 -5,10 0,4 0,7 0,11 1,2 2,5 3,8 4,3 9,5 13,8 4,-2 7,-3 11,-4 2,-3 3,-6 5,-9 2,-3 4,-7 7,-10 2,-2 4,-4 6,-6 1,-3 2,-6 4,-8 2,-2 4,-5 6,-7 13,13 25,25 38,38 -1,14 -3,28 -4,42 -7,7 -14,14 -21,21 0,10 1,20 1,29 14,4 29,7 43,11 14,20 28,39 43,59 2,3 4,7 6,10 7,15 14,31 21,46 -6,16 -11,31 -16,47 2,22 4,45 6,68 -5,8 -10,16 -15,25 -4,7 -9,14 -13,21 3,9 5,18 8,27 8,12 16,24 23,36 12,3 23,6 35,9 4,-3 8,-5 12,-8 3,5 6,10 9,15 1,2 2,5 4,7 2,4 4,7 6,11 2,4 3,8 4,12 2,4 4,8 7,13 0,4 0,9 0,14 -1,4 -2,9 -3,14 -3,3 -6,6 -9,10 -4,-1 -8,-1 -12,-1 -4,-1 -7,-3 -11,-4 -3,-3 -5,-6 -8,-9 -3,-3 -5,-6 -8,-9 -5,-2 -10,-3 -16,-5 -5,1 -11,2 -17,3 -5,-2 -9,-5 -14,-7 -4,-2 -9,-3 -13,-5 -5,-1 -11,-2 -16,-3 -8,-3 -15,-6 -23,-10 -6,-1 -13,-3 -19,-5 -7,-3 -15,-6 -22,-9 -6,-2 -12,-4 -18,-6 -1,0 -1,0 -1,0 -4,3 -7,6 -11,9 -5,3 -10,6 -14,9 -7,1 -14,2 -20,3 -7,0 -14,1 -21,1 -5,4 -10,7 -15,11 -6,2 -12,4 -18,6 -7,2 -13,3 -20,5 -4,2 -8,3 -12,5 -5,0 -11,1 -17,2 -3,1 -6,3 -9,4 -5,3 -9,6 -13,9 -3,4 -5,7 -8,11 -2,5 -3,11 -5,16 -1,6 -2,12 -3,19 -3,3 -6,7 -9,11 -3,5 -6,11 -9,16 -3,4 -5,9 -7,13 -3,3 -5,6 -7,10 -4,2 -7,4 -10,5 -3,3 -5,5 -8,7 -4,3 -7,6 -11,9 0,1 0,1 0,1 1,7 2,13 3,19 0,8 0,16 0,24 2,4 4,7 6,11 6,3 11,5 17,7 3,5 6,9 10,13 0,5 0,9 0,14 -1,2 -2,5 -3,8 -3,6 -5,12 -7,18 -4,5 -7,11 -10,17 -5,6 -10,13 -15,19 -6,5 -12,10 -18,14 -2,0 -3,-1 -5,-2 -7,2 -14,3 -21,5 -5,2 -10,4 -15,7 -5,-4 -9,-8 -14,-11 -4,-3 -8,-6 -12,-9 -5,-4 -10,-9 -16,-13 -6,0 -13,1 -19,2 -6,0 -13,0 -19,1 -8,-3 -16,-5 -24,-7 -9,-4 -18,-8 -28,-12 -4,-5 -9,-9 -14,-13 -2,-8 -4,-15 -6,-23 -2,-8 -4,-15 -6,-23 -4,-8 -8,-17 -12,-25 -4,-7 -7,-15 -11,-22 -6,-4 -11,-7 -16,-10 -1,-1 -1,-1 -2,-1 -5,-6 -11,-11 -16,-16 -5,-4 -11,-9 -16,-14 -8,-7 -15,-15 -22,-22 -10,-2 -20,-5 -30,-7 -4,2 -8,5 -12,7 0,0 0,1 0,1 -2,-2 -5,-5 -7,-7 -6,-4 -11,-7 -17,-11 -2,-3 -5,-7 -8,-10 -3,-5 -6,-10 -8,-15 -1,-6 -1,-12 -1,-17 -1,-7 -1,-14 -2,-20 -1,-4 -3,-8 -4,-11 -1,-3 -2,-6 -3,-9 0,-5 0,-11 0,-16 1,-4 1,-8 2,-12 1,-2 1,-5 1,-8 0,-3 1,-6 1,-10 0,0 -1,0 -1,-1 -1,-2 -3,-5 -5,-7 -12,-9 -25,-17 -37,-26 -5,-6 -10,-11 -14,-17 -7,-6 -13,-11 -20,-16 0,-1 -1,-1 -1,-1 -3,-1 -7,-2 -10,-3 -3,2 -5,3 -8,5 -5,6 -10,12 -15,18 -4,2 -8,3 -12,5 -5,0 -10,0 -15,0 -6,-3 -13,-6 -20,-9 -6,-10 -13,-19 -20,-29 -5,-9 -10,-17 -15,-25 -2,-5 -4,-10 -5,-15 -3,-5 -6,-11 -8,-16 -2,-5 -4,-10 -6,-14 0,-8 0,-15 0,-22 -2,-7 -3,-13 -5,-20 -2,-5 -4,-11 -7,-16 -4,-7 -8,-14 -11,-21 -2,-3 -5,-7 -7,-10 -5,-7 -10,-14 -15,-21 -1,-5 -3,-11 -4,-16 0,-3 -1,-6 -1,-8 0,-4 0,-7 0,-10 -1,-5 -1,-10 -1,-15 -3,-2 -7,-3 -11,-5 -5,-1 -10,-2 -15,-2 -7,-1 -13,-3 -20,-4 -2,-3 -4,-6 -6,-10 -4,-2 -8,-4 -11,-6 -6,-3 -12,-6 -18,-8 -4,-2 -9,-5 -14,-7 -5,-3 -9,-6 -14,-10 0,-6 -1,-13 -1,-20 3,-7 7,-14 11,-20 5,-6 10,-11 16,-16 9,-5 19,-9 29,-14 5,-6 11,-11 16,-16 5,-7 9,-13 13,-19 5,-3 9,-7 13,-10 3,-5 5,-9 8,-14 0,0 0,-1 0,-1 -2,-4 -4,-7 -5,-11 -2,-2 -5,-5 -7,-8 -2,-2 -4,-5 -6,-7 -1,-4 -1,-8 -1,-12 3,-4 6,-9 9,-13 3,-6 7,-11 11,-16 3,-11 6,-22 10,-33 0,-6 0,-12 0,-18 -2,-4 -4,-9 -6,-13 -3,-7 -6,-13 -9,-19 -2,-6 -4,-12 -5,-18 3,-4 6,-9 10,-14 8,-1 15,-1 23,-2 8,1 16,1 24,2 6,0 11,1 17,1 4,-2 8,-4 12,-6 3,-3 7,-6 11,-10 0,-3 1,-7 1,-11 1,-3 2,-7 3,-11 2,-3 4,-6 6,-9 2,-2 4,-3 6,-5 4,0 7,0 11,-1 2,2 5,3 7,5 2,0 5,1 8,2 3,-2 6,-3 9,-4 1,-4 3,-8 5,-12 3,-5 6,-11 9,-17 2,-3 5,-6 8,-9 5,-3 10,-7 15,-10 6,-1 12,-3 19,-4 14,1 28,1 43,2 10,0 20,0 30,0 4,3 8,6 12,9 4,1 9,2 13,4 3,-1 7,-1 11,-1 2,0 5,0 7,-1 4,-2 7,-5 10,-7 3,-3 6,-6 9,-8 1,-1 2,-2 4,-3 1,-1 2,-1 4,-2 2,1 4,2 7,4 1,4 1,8 2,12 3,2 7,3 10,5z"/>
   </g>
   <g>
    <path fill="#5C936D" d="M482 52c3,2 6,4 9,6 4,4 9,8 13,12 1,6 3,12 4,18 2,6 4,11 6,17 1,4 2,7 3,11 2,4 4,9 6,13 7,1 14,3 21,4 11,0 21,1 31,1 5,2 11,3 16,4 6,6 12,12 18,18 3,3 6,5 8,8 9,8 17,16 25,24 4,2 8,4 12,6 5,0 10,-1 15,-1 5,-3 9,-6 13,-10 5,-2 9,-3 14,-5 5,1 11,2 16,3 4,1 9,2 13,3 6,-2 12,-4 18,-6 6,-3 12,-7 19,-10 6,-3 11,-6 17,-9 4,-2 9,-3 13,-4 5,1 11,2 16,3 4,2 8,5 12,7 2,5 4,9 6,13 1,3 3,6 5,9 3,3 6,5 9,8 3,0 7,0 10,0 3,3 6,6 9,9 2,9 5,18 7,27 4,11 8,21 12,32 4,3 8,5 12,8 3,4 7,7 11,10 9,1 18,2 28,3 8,1 17,1 25,1 5,-3 10,-6 15,-9 3,-4 6,-8 9,-12 3,-4 7,-7 11,-11 5,-2 10,-4 14,-6 3,-1 7,-2 10,-4 2,0 4,-1 5,-1 3,1 6,2 9,4 2,3 3,6 5,9 0,3 0,7 0,10 -1,4 -2,8 -3,13 -2,5 -5,10 -8,15 -3,5 -6,10 -9,15 -3,4 -7,8 -11,13 -2,3 -3,6 -5,10 0,3 0,6 0,10 1,3 2,5 3,8 5,3 9,5 13,8 4,-1 8,-3 11,-4 2,-3 4,-6 5,-9 2,-3 5,-7 7,-10 2,-2 4,-4 6,-6 1,-3 3,-5 4,-8 2,-2 4,-4 6,-7 13,13 25,26 38,38 -1,14 -3,28 -4,42 -7,8 -14,15 -21,22 0,9 1,19 1,28 14,4 29,7 43,11 14,20 29,40 43,59 2,4 4,7 6,10 7,15 14,31 21,46 -5,16 -10,31 -15,47 1,23 3,46 5,68 -5,9 -10,17 -14,25 -5,7 -9,14 -14,21 3,9 5,18 8,27 8,12 16,24 23,36 12,3 23,6 35,10 4,-3 8,-6 12,-9 3,5 6,10 9,15 1,3 3,5 4,7 2,4 4,8 7,11 1,4 2,8 3,12 2,5 5,9 7,13 0,4 0,9 0,14 -1,5 -2,9 -3,14 -3,3 -6,7 -9,10 -4,0 -8,0 -12,-1 -4,-1 -7,-3 -11,-4 -3,-3 -5,-6 -8,-9 -2,-3 -5,-6 -8,-9 -5,-2 -10,-3 -16,-4 -5,0 -11,1 -17,2 -5,-2 -9,-5 -14,-7 -4,-2 -8,-3 -13,-5 -5,-1 -11,-2 -16,-3 -7,-3 -15,-6 -22,-9 -7,-2 -13,-4 -20,-5 -7,-3 -15,-6 -22,-9 -6,-2 -12,-4 -18,-7 -1,0 -1,0 -1,0 -4,3 -7,6 -11,9 -5,3 -9,6 -14,9 -7,1 -14,2 -20,3 -7,1 -14,1 -21,1 -5,4 -10,7 -15,11 -6,2 -12,4 -18,7 -7,1 -13,3 -20,4 -4,2 -8,4 -11,5 -6,1 -12,1 -18,2 -3,1 -6,3 -9,4 -4,3 -9,6 -13,9 -3,4 -5,7 -8,11 -2,5 -3,11 -5,16 -1,6 -1,13 -2,19 -4,4 -7,8 -10,11 -3,6 -6,11 -9,16 -3,4 -5,9 -7,13 -3,3 -5,7 -7,10 -4,2 -7,4 -10,6 -3,2 -5,4 -8,6 -4,3 -7,6 -11,9 0,1 0,1 1,2 0,6 1,12 2,19 0,7 0,15 0,23 2,4 4,8 6,11 6,3 11,5 17,8 3,4 6,8 10,12 0,5 0,9 0,14 -1,3 -2,6 -3,8 -2,6 -5,12 -7,18 -4,6 -7,11 -10,17 -5,6 -10,13 -15,19 -6,5 -12,10 -18,15 -2,-1 -3,-2 -5,-3 -7,2 -14,4 -21,6 -5,2 -10,4 -15,6 -4,-4 -9,-7 -14,-11 -4,-3 -8,-6 -11,-8 -6,-5 -11,-9 -17,-14 -6,1 -12,1 -19,2 -6,0 -13,1 -19,1 -8,-2 -16,-5 -23,-7 -10,-4 -19,-8 -29,-12 -4,-4 -9,-9 -14,-13 -2,-7 -4,-15 -6,-22 -2,-8 -4,-16 -6,-24 -4,-8 -8,-16 -12,-25 -3,-7 -7,-14 -11,-22 -5,-3 -11,-7 -16,-10 -1,0 -1,-1 -2,-1 -5,-5 -11,-10 -16,-15 -5,-5 -11,-10 -16,-15 -7,-7 -15,-14 -22,-22 -10,-2 -20,-5 -30,-7 -4,2 -8,5 -12,7 0,1 0,1 0,1 -2,-2 -4,-4 -7,-7 -5,-3 -11,-7 -17,-11 -2,-3 -5,-6 -7,-10 -3,-5 -6,-10 -9,-15 -1,-6 -1,-11 -1,-17 -1,-7 -1,-14 -2,-20 -1,-4 -3,-7 -4,-11 -1,-3 -2,-6 -3,-8 0,-6 0,-12 0,-17 1,-4 2,-8 2,-11 1,-3 1,-6 1,-9 1,-3 1,-6 1,-9 0,-1 0,-1 -1,-1 -1,-3 -3,-6 -5,-8 -12,-9 -25,-17 -37,-25 -5,-6 -9,-12 -14,-18 -7,-5 -13,-11 -20,-16 0,0 -1,-1 -1,-1 -3,-1 -7,-2 -10,-3 -3,2 -5,4 -8,6 -5,6 -10,12 -15,18 -4,1 -8,3 -12,4 -5,0 -10,0 -15,1 -6,-3 -13,-6 -20,-9 -6,-10 -13,-20 -20,-30 -5,-8 -10,-17 -15,-25 -2,-5 -3,-10 -5,-15 -3,-5 -6,-11 -8,-16 -2,-5 -4,-9 -6,-14 0,-7 0,-15 0,-22 -1,-6 -3,-13 -5,-20 -2,-5 -4,-10 -7,-16 -4,-7 -7,-14 -11,-21 -2,-3 -4,-7 -7,-10 -5,-7 -10,-14 -15,-20 -1,-6 -3,-12 -4,-17 0,-3 -1,-5 -1,-8 0,-3 0,-7 0,-10 0,-5 -1,-10 -1,-15 -3,-1 -7,-3 -11,-5 -5,0 -10,-1 -15,-2 -7,-1 -13,-2 -20,-3 -2,-4 -4,-7 -6,-10 -4,-3 -7,-5 -11,-7 -6,-3 -12,-5 -18,-8 -4,-2 -9,-4 -14,-7 -5,-3 -9,-6 -14,-9 0,-7 -1,-14 -1,-21 4,-7 7,-13 11,-20 5,-5 11,-11 16,-16 9,-5 19,-9 29,-14 5,-5 11,-11 16,-16 5,-6 9,-12 14,-19 4,-3 8,-7 12,-10 3,-5 5,-9 8,-14 0,0 0,0 0,-1 -2,-3 -4,-7 -5,-10 -2,-3 -4,-6 -7,-8 -2,-3 -4,-6 -6,-8 0,-4 -1,-8 -1,-11 3,-5 6,-9 9,-14 3,-5 7,-11 11,-16 3,-11 7,-22 10,-33 0,-6 0,-12 0,-17 -2,-5 -4,-9 -6,-14 -3,-6 -6,-13 -9,-19 -2,-6 -3,-12 -5,-17 3,-5 6,-10 10,-15 8,0 16,-1 23,-2 8,1 16,2 24,2 6,1 11,1 17,1 4,-2 8,-3 12,-5 4,-4 7,-7 11,-10 0,-4 1,-8 1,-12 1,-3 2,-7 3,-10 2,-3 4,-7 6,-10 2,-2 4,-3 6,-5 4,0 8,0 11,0 2,1 5,3 7,4 3,1 5,1 8,2 3,-1 6,-3 9,-4 2,-4 3,-8 5,-11 3,-6 6,-12 9,-17 2,-3 5,-7 8,-10 5,-3 10,-6 15,-10 6,-1 13,-2 19,-4 14,1 28,1 43,2 10,0 20,0 30,0 4,3 8,6 12,9 5,1 9,2 13,4 4,0 7,-1 11,-1 2,0 5,0 7,0 4,-3 7,-6 10,-8 3,-3 6,-5 9,-8 1,-1 3,-2 4,-2 1,-1 2,-2 4,-3 2,1 4,3 7,4 1,4 1,8 2,12 3,2 7,4 10,5z"/>
   </g>
   <g>
    <path fill="#609872" d="M483 44c3,2 6,4 9,6 5,4 9,8 13,12 1,6 3,12 4,18 2,6 4,12 6,17 1,4 2,8 4,11 1,5 3,9 5,13 7,2 14,3 22,4 10,1 20,1 30,1 6,2 11,3 16,5 6,6 12,12 18,18 3,2 6,5 8,7 9,8 17,16 25,24 4,2 8,4 12,6 5,0 10,0 16,-1 4,-3 8,-6 12,-9 5,-2 9,-4 14,-6 5,1 11,2 16,3 4,1 9,2 13,3 6,-2 12,-4 18,-6 6,-3 13,-6 19,-10 6,-3 11,-6 17,-9 5,-1 9,-3 13,-4 5,1 11,2 16,3 4,2 8,5 12,8 2,4 4,8 6,12 2,3 3,6 5,10 3,2 6,4 9,7 3,0 7,0 11,0 2,3 5,6 8,9 2,9 5,18 7,27 4,11 8,22 12,32 4,3 8,6 12,9 3,3 7,6 11,10 9,1 19,2 28,2 8,1 17,1 25,2 5,-3 10,-6 15,-9 3,-4 6,-9 9,-13 4,-3 8,-7 11,-10 5,-2 10,-4 14,-7 4,-1 7,-2 10,-3 2,-1 4,-2 6,-2 3,1 6,3 9,4 1,3 3,6 4,9 0,4 0,7 1,10 -2,5 -3,9 -4,13 -2,5 -5,10 -8,15 -3,5 -6,10 -9,15 -3,4 -7,9 -11,13 -2,3 -3,7 -5,10 0,3 0,7 0,10 1,3 2,6 4,9 4,2 8,5 12,7 4,-1 8,-2 12,-4 1,-3 3,-6 4,-9 2,-3 5,-6 7,-10 2,-2 4,-4 6,-6 1,-2 3,-5 4,-8 2,-2 4,-4 6,-6 13,12 26,25 38,38 -1,14 -2,28 -4,42 -7,7 -14,14 -21,21 0,9 1,19 1,29 15,3 29,7 43,10 14,20 29,40 43,60 2,3 4,6 7,9 6,16 13,31 20,47 -5,15 -10,31 -15,46 2,23 3,46 5,69 -5,8 -9,16 -14,24 -5,7 -9,14 -14,22 3,8 5,17 8,26 8,12 16,24 24,36 11,3 22,7 34,10 4,-3 8,-6 12,-9 3,5 6,10 9,15 1,3 3,5 4,8 2,3 4,7 7,10 1,5 2,9 4,13 2,4 4,8 6,12 0,5 0,9 0,14 -1,5 -2,9 -3,14 -3,3 -6,7 -9,10 -4,0 -8,0 -12,0 -3,-2 -7,-3 -11,-5 -3,-3 -5,-6 -8,-9 -2,-3 -5,-6 -8,-9 -5,-1 -10,-3 -15,-4 -6,1 -12,2 -18,3 -4,-3 -9,-5 -14,-8 -4,-1 -8,-3 -13,-4 -5,-1 -11,-2 -16,-4 -7,-3 -15,-6 -22,-9 -7,-2 -13,-3 -20,-5 -7,-3 -14,-6 -22,-9 -6,-2 -12,-4 -18,-6 0,0 -1,0 -1,0 -4,3 -7,5 -11,8 -5,3 -9,6 -14,9 -7,1 -13,2 -20,3 -7,1 -14,1 -21,2 -5,3 -10,7 -15,10 -6,2 -12,5 -18,7 -6,1 -13,3 -20,4 -4,2 -7,4 -11,5 -6,1 -12,2 -18,2 -3,2 -6,3 -9,5 -4,3 -9,6 -13,9 -2,3 -5,7 -8,10 -2,6 -3,11 -4,16 -1,7 -2,13 -3,19 -3,4 -7,8 -10,12 -3,5 -6,10 -9,15 -3,5 -5,9 -7,13 -2,4 -5,7 -7,10 -3,2 -7,4 -10,6 -3,2 -5,4 -8,6 -3,3 -7,7 -11,10 0,0 0,0 1,1 0,6 1,13 2,19 0,8 0,16 0,23 2,4 4,8 7,12 5,2 10,5 16,7 3,4 7,9 10,13 0,4 0,9 1,13 -2,3 -3,6 -4,9 -2,5 -5,11 -7,17 -4,6 -7,12 -10,17 -5,7 -10,13 -15,19 -6,5 -12,10 -18,15 -1,-1 -3,-2 -5,-3 -7,2 -14,4 -21,6 -5,2 -10,4 -15,6 -4,-4 -9,-7 -14,-11 -4,-2 -7,-5 -11,-8 -6,-5 -11,-9 -17,-14 -6,1 -12,2 -19,2 -6,0 -12,1 -19,1 -8,-2 -15,-5 -23,-7 -10,-4 -19,-8 -28,-12 -5,-4 -10,-8 -15,-13 -2,-7 -4,-15 -5,-22 -3,-8 -5,-16 -7,-24 -4,-8 -8,-16 -11,-24 -4,-8 -8,-15 -12,-23 -5,-3 -11,-6 -16,-10 0,0 -1,-1 -2,-1 -5,-5 -10,-10 -16,-15 -5,-5 -11,-10 -16,-15 -7,-7 -15,-14 -22,-22 -10,-2 -20,-4 -30,-7 -4,3 -8,5 -11,7 0,1 0,1 0,2 -3,-3 -5,-5 -8,-8 -5,-3 -11,-7 -17,-10 -2,-4 -5,-7 -7,-10 -3,-6 -6,-11 -9,-16 0,-6 -1,-11 -1,-17 0,-7 -1,-13 -1,-20 -2,-4 -4,-7 -5,-11 -1,-3 -2,-5 -3,-8 0,-6 0,-11 0,-17 1,-4 2,-7 2,-11 1,-3 1,-6 2,-9 0,-3 0,-6 0,-9 0,0 0,-1 0,-1 -2,-3 -4,-5 -6,-8 -12,-8 -25,-17 -37,-25 -5,-6 -9,-12 -14,-18 -7,-5 -13,-10 -20,-16 0,0 0,-1 -1,-1 -3,-1 -7,-2 -10,-3 -3,2 -5,4 -8,6 -5,6 -10,12 -15,18 -4,1 -8,3 -12,4 -5,0 -10,1 -15,1 -6,-3 -13,-6 -19,-9 -7,-10 -14,-20 -21,-30 -5,-8 -10,-17 -15,-25 -2,-5 -3,-10 -5,-15 -3,-5 -6,-10 -8,-16 -2,-4 -4,-9 -6,-14 0,-7 0,-14 0,-22 -1,-6 -3,-13 -5,-19 -2,-6 -4,-11 -7,-17 -3,-6 -7,-13 -11,-20 -2,-4 -4,-7 -6,-11 -5,-7 -10,-13 -15,-20 -2,-6 -4,-11 -5,-17 0,-2 0,-5 -1,-8 0,-3 0,-7 0,-10 0,-5 -1,-10 -1,-14 -3,-2 -7,-4 -10,-5 -6,-1 -11,-2 -16,-3 -7,-1 -13,-2 -20,-3 -2,-3 -4,-7 -6,-10 -4,-2 -7,-5 -11,-7 -6,-2 -12,-5 -17,-8 -5,-2 -10,-4 -15,-6 -4,-4 -9,-7 -13,-10 -1,-7 -2,-14 -2,-21 4,-6 7,-13 11,-20 5,-5 11,-10 16,-16 10,-4 19,-9 29,-14 5,-5 11,-10 16,-16 5,-6 9,-12 14,-18 4,-4 8,-7 12,-11 3,-4 6,-9 8,-13 0,-1 0,-1 0,-2 -2,-3 -4,-7 -5,-10 -2,-3 -4,-5 -6,-8 -3,-3 -5,-5 -7,-8 0,-4 0,-7 -1,-11 3,-5 6,-9 9,-14 3,-5 7,-10 11,-16 3,-11 7,-22 10,-33 0,-6 0,-11 0,-17 -2,-5 -4,-9 -6,-14 -3,-6 -6,-12 -9,-19 -1,-5 -3,-11 -5,-17 3,-5 6,-10 10,-15 8,0 16,-1 24,-1 7,0 15,1 23,1 6,1 12,1 17,2 4,-2 8,-4 12,-6 4,-3 7,-7 11,-10 0,-4 1,-8 1,-11 1,-4 2,-7 3,-11 2,-3 4,-6 6,-10 2,-1 4,-3 7,-5 3,0 7,0 10,0 2,1 5,3 7,4 3,1 5,2 8,2 3,-1 6,-2 9,-4 2,-4 4,-7 5,-11 3,-6 6,-11 9,-17 3,-3 5,-6 8,-10 5,-3 10,-6 15,-10 6,-1 13,-2 19,-4 14,1 29,2 43,2 10,0 20,0 30,0 4,3 8,6 13,9 4,1 8,3 12,4 4,0 7,0 11,-1 2,0 5,0 7,0 4,-3 7,-5 11,-8 2,-2 5,-5 8,-8 2,-1 3,-1 4,-2 1,-1 2,-2 4,-3 2,2 5,3 7,4 1,4 1,8 2,12 4,2 7,4 10,5z"/>
   </g>
   <g>
    <path fill="#659D76" d="M484 37c3,2 6,4 9,5 5,4 9,9 13,13 2,6 3,12 4,18 2,5 4,11 6,16 1,4 3,8 4,12 2,4 3,8 5,12 7,2 15,3 22,5 10,0 20,0 30,1 6,1 11,3 16,4 6,6 12,12 19,18 2,2 5,5 8,7 8,8 16,16 24,24 4,2 8,4 12,7 5,-1 11,-1 16,-2 4,-3 8,-6 12,-9 5,-2 9,-4 14,-6 5,1 11,2 16,3 4,1 9,2 13,4 6,-3 12,-5 18,-7 6,-3 13,-6 19,-9 6,-3 12,-7 17,-10 5,-1 9,-2 13,-4 6,1 11,2 16,3 4,3 8,5 12,8 2,4 4,8 6,12 2,3 3,7 5,10 3,2 6,5 9,7 3,0 7,0 11,0 2,3 5,6 8,10 2,9 5,18 7,27 4,10 8,21 12,31 4,3 8,6 12,9 4,3 7,7 11,10 9,1 19,2 28,3 8,0 17,0 25,1 5,-3 10,-6 15,-9 3,-4 6,-8 9,-12 4,-4 8,-8 12,-11 4,-2 9,-4 13,-6 4,-2 7,-3 10,-4 2,-1 4,-1 6,-2 3,1 6,3 9,4 1,3 3,6 4,10 0,3 0,6 1,10 -1,4 -3,8 -4,12 -2,5 -5,10 -7,16 -3,5 -6,9 -9,14 -4,5 -8,9 -12,13 -1,4 -3,7 -5,10 0,4 0,7 0,10 1,3 2,6 4,9 4,2 8,5 12,8 4,-2 8,-3 12,-4 1,-3 3,-6 4,-9 2,-4 5,-7 7,-10 2,-2 4,-4 6,-7 1,-2 3,-5 4,-7 2,-3 4,-5 6,-7 13,13 26,25 38,38 -1,14 -2,28 -4,42 -7,7 -14,14 -21,21 0,10 1,19 1,29 15,3 29,7 43,11 15,19 29,39 43,59 2,3 4,6 7,9 6,16 13,31 20,47 -5,15 -10,31 -15,46 2,23 3,46 5,69 -4,8 -9,16 -14,24 -5,8 -9,15 -14,22 3,9 6,18 8,27 8,12 16,24 24,35 11,4 22,7 34,10 4,-3 8,-6 12,-8 3,5 6,10 9,15 1,2 3,5 4,7 2,4 5,7 7,11 1,4 2,8 4,12 2,4 4,8 6,12 0,5 0,10 0,14 -1,5 -2,10 -3,14 -3,4 -6,7 -9,10 -4,0 -8,0 -12,0 -3,-2 -7,-3 -11,-4 -2,-4 -5,-7 -8,-10 -2,-3 -5,-6 -7,-9 -6,-1 -11,-2 -16,-4 -6,1 -12,2 -18,3 -4,-3 -9,-5 -14,-7 -4,-2 -8,-3 -13,-5 -5,-1 -10,-2 -16,-3 -7,-3 -15,-7 -22,-10 -7,-1 -13,-3 -20,-5 -7,-3 -14,-6 -22,-9 -6,-2 -12,-4 -18,-6 0,0 -1,0 -1,0 -3,3 -7,6 -11,8 -5,3 -9,6 -14,9 -7,1 -13,3 -20,4 -7,0 -14,1 -21,1 -5,3 -10,7 -14,10 -7,3 -13,5 -19,7 -6,2 -13,3 -20,5 -3,1 -7,3 -11,5 -6,0 -12,1 -18,1 -3,2 -6,3 -9,5 -4,3 -8,6 -13,9 -2,3 -5,7 -8,11 -1,5 -3,10 -4,16 -1,6 -2,12 -3,18 -3,4 -7,8 -10,12 -3,5 -6,10 -9,16 -2,4 -5,8 -7,13 -2,3 -5,6 -7,10 -3,2 -7,3 -10,5 -2,2 -5,4 -8,6 -3,4 -7,7 -11,10 0,0 1,1 1,1 0,6 1,13 2,19 0,8 0,16 0,24 2,3 4,7 7,11 5,2 11,5 16,7 3,5 7,9 10,13 0,5 0,9 1,13 -2,3 -3,6 -4,9 -2,6 -5,12 -7,17 -3,6 -7,12 -10,18 -5,6 -10,12 -15,19 -6,5 -12,9 -18,14 -1,-1 -3,-2 -5,-3 -7,2 -14,4 -21,6 -5,2 -10,4 -15,6 -4,-3 -9,-7 -14,-10 -3,-3 -7,-6 -11,-9 -6,-4 -11,-9 -17,-13 -6,0 -12,1 -19,1 -6,1 -12,1 -19,2 -8,-3 -15,-5 -23,-8 -10,-4 -19,-8 -28,-12 -5,-4 -10,-8 -15,-12 -2,-8 -4,-15 -5,-23 -2,-8 -4,-16 -7,-23 -3,-9 -7,-17 -11,-25 -4,-7 -8,-15 -12,-22 -5,-4 -11,-7 -16,-11 0,0 -1,0 -2,-1 -5,-5 -10,-10 -16,-15 -5,-5 -11,-10 -16,-14 -7,-8 -15,-15 -22,-22 -10,-3 -20,-5 -30,-8 -3,3 -7,5 -11,8 0,0 0,1 0,1 -3,-2 -5,-5 -8,-7 -5,-4 -11,-7 -16,-11 -3,-3 -6,-7 -8,-10 -3,-5 -6,-10 -9,-16 0,-5 -1,-11 -1,-17 0,-6 -1,-13 -1,-20 -2,-3 -3,-7 -5,-10 -1,-3 -2,-6 -3,-9 0,-5 0,-11 0,-17 1,-3 2,-7 2,-11 1,-3 1,-5 2,-8 0,-3 0,-7 0,-10 0,0 0,0 0,-1 -2,-2 -4,-5 -5,-8 -13,-8 -25,-17 -38,-25 -5,-6 -9,-12 -14,-17 -6,-6 -13,-11 -20,-17 0,0 0,0 -1,-1 -3,-1 -6,-2 -10,-3 -2,2 -5,4 -8,6 -5,6 -10,12 -15,18 -4,2 -8,3 -11,5 -6,0 -11,0 -16,0 -6,-3 -13,-6 -19,-9 -7,-10 -14,-20 -21,-30 -5,-8 -10,-16 -15,-25 -1,-5 -3,-9 -5,-14 -3,-6 -5,-11 -8,-16 -2,-5 -4,-10 -6,-15 0,-7 0,-14 0,-21 -1,-7 -3,-13 -5,-20 -2,-5 -4,-11 -6,-16 -4,-7 -8,-14 -12,-21 -2,-4 -4,-7 -6,-11 -5,-6 -10,-13 -15,-20 -2,-5 -3,-11 -5,-17 0,-2 0,-5 -1,-7 0,-4 0,-7 0,-11 0,-5 0,-9 -1,-14 -3,-2 -7,-4 -10,-5 -6,-1 -11,-2 -16,-3 -7,-1 -13,-2 -20,-3 -2,-3 -4,-6 -6,-10 -3,-2 -7,-4 -11,-7 -6,-2 -12,-5 -17,-7 -5,-3 -10,-5 -15,-7 -4,-3 -9,-7 -13,-10 -1,-7 -1,-14 -2,-20 4,-7 8,-14 11,-21 5,-5 11,-10 16,-15 10,-5 19,-10 29,-14 6,-6 11,-11 16,-17 5,-6 9,-12 14,-18 4,-4 8,-7 12,-11 3,-4 6,-9 8,-13 0,-1 0,-1 0,-1 -2,-4 -3,-7 -5,-11 -2,-2 -4,-5 -6,-8 -3,-2 -5,-5 -7,-8 0,-3 0,-7 -1,-11 3,-4 6,-9 9,-13 4,-6 7,-11 11,-17 3,-11 7,-22 10,-33 0,-5 0,-11 0,-17 -2,-4 -4,-9 -6,-13 -2,-7 -5,-13 -8,-19 -2,-6 -4,-12 -6,-18 3,-5 7,-10 10,-14 8,-1 16,-1 24,-2 7,1 15,1 23,2 6,0 12,0 17,1 4,-2 8,-4 12,-6 4,-3 7,-7 11,-10 0,-4 1,-7 1,-11 1,-4 2,-7 3,-11 2,-3 4,-6 6,-9 2,-2 4,-4 7,-5 3,-1 7,-1 10,-1 3,2 5,3 7,5 3,0 5,1 8,2 3,-2 6,-3 9,-5 2,-3 4,-7 6,-11 2,-6 5,-11 8,-17 3,-3 5,-6 8,-9 5,-4 10,-7 15,-10 7,-2 13,-3 19,-4 14,0 29,1 43,1 10,0 20,0 30,0 4,3 9,6 13,9 4,2 8,3 12,4 4,0 7,0 11,0 3,0 5,-1 7,-1 4,-2 7,-5 11,-8 3,-2 6,-5 9,-7 1,-1 2,-2 3,-3 1,-1 3,-2 4,-3 2,2 5,3 7,4 1,5 2,9 2,13 4,1 7,3 10,5z"/>
   </g>
   <g>
    <path fill="#69A27B" d="M485 29c4,2 7,4 10,6 4,4 8,8 12,12 2,6 3,12 4,18 2,6 4,11 7,17 1,3 2,7 3,11 2,4 4,8 5,13 8,1 15,2 22,4 10,0 20,1 31,1 5,1 10,3 15,4 6,6 13,12 19,18 2,3 5,5 8,8 8,8 16,16 24,24 4,2 8,4 12,6 6,-1 11,-1 16,-1 4,-3 8,-7 13,-10 4,-2 9,-4 13,-5 5,0 11,1 16,2 5,1 9,3 13,4 6,-2 12,-4 18,-6 6,-4 13,-7 19,-10 6,-3 12,-6 17,-10 5,-1 9,-2 13,-3 6,1 11,1 16,2 4,3 8,6 12,8 2,4 4,8 6,13 2,3 3,6 5,9 3,3 6,5 9,7 4,0 7,0 11,0 3,4 5,7 8,10 3,9 5,18 7,27 4,10 8,21 12,32 4,2 8,5 12,8 4,3 7,7 11,10 9,1 19,2 28,3 9,0 17,1 25,1 5,-3 10,-6 15,-9 3,-4 6,-8 9,-12 4,-4 8,-7 12,-11 4,-2 9,-4 14,-6 3,-1 6,-3 9,-4 2,-1 4,-1 6,-2 3,2 6,3 9,4 1,4 3,7 4,10 0,3 1,7 1,10 -1,4 -2,8 -4,12 -2,6 -5,11 -7,16 -3,5 -6,10 -9,15 -4,4 -8,8 -12,12 -1,4 -3,7 -5,10 0,4 0,7 0,11 1,2 3,5 4,8 4,3 8,5 12,8 4,-1 8,-3 12,-4 1,-3 3,-6 4,-9 3,-3 5,-7 7,-10 2,-2 4,-4 6,-6 2,-3 3,-6 4,-8 2,-2 4,-5 6,-7 13,13 26,26 38,38 -1,14 -2,28 -4,42 -7,7 -14,14 -21,21 1,10 1,20 1,29 15,4 29,7 43,11 15,20 29,39 43,59 2,3 4,7 7,10 6,15 13,31 20,46 -5,16 -10,31 -15,47 2,23 4,45 5,68 -4,8 -9,17 -14,25 -5,7 -9,14 -14,21 3,9 6,18 8,27 8,12 16,24 24,36 11,3 23,6 34,9 4,-2 8,-5 12,-8 3,5 6,10 9,15 2,2 3,5 4,7 2,4 5,7 7,11 1,4 2,8 4,12 2,4 4,8 6,13 0,4 0,9 0,14 -1,4 -2,9 -3,14 -3,3 -6,6 -9,10 -4,0 -8,-1 -12,-1 -3,-1 -7,-3 -11,-4 -2,-3 -5,-6 -8,-9 -2,-3 -5,-6 -7,-9 -6,-2 -11,-3 -16,-5 -6,1 -12,2 -18,3 -4,-2 -9,-5 -14,-7 -4,-2 -8,-3 -12,-5 -6,-1 -11,-2 -17,-3 -7,-3 -15,-6 -22,-10 -7,-1 -13,-3 -20,-5 -7,-3 -14,-6 -22,-9 -6,-2 -12,-4 -18,-6 0,0 0,0 -1,0 -3,3 -7,6 -11,9 -4,3 -9,6 -14,9 -7,1 -13,2 -20,3 -7,0 -14,1 -21,1 -5,4 -9,7 -14,11 -6,2 -13,4 -19,6 -6,2 -13,3 -19,5 -4,2 -8,3 -12,5 -6,1 -12,1 -18,2 -3,1 -6,3 -9,4 -4,3 -8,6 -12,9 -3,4 -6,7 -9,11 -1,5 -3,11 -4,16 -1,6 -2,12 -3,19 -3,3 -6,7 -10,11 -3,5 -6,11 -9,16 -2,4 -5,9 -7,13 -2,3 -5,7 -7,10 -3,2 -6,4 -10,6 -2,2 -5,4 -8,6 -3,3 -7,6 -11,9 0,1 1,1 1,1 1,7 1,13 2,19 0,8 0,16 0,24 2,4 5,7 7,11 5,3 11,5 16,7 3,5 7,9 10,13 0,5 1,9 1,14 -1,3 -3,5 -4,8 -2,6 -5,12 -7,18 -3,5 -7,11 -10,17 -5,6 -10,13 -15,19 -6,5 -12,10 -17,15 -2,-1 -4,-2 -6,-3 -7,2 -14,3 -21,5 -5,2 -10,4 -14,7 -5,-4 -10,-8 -14,-11 -4,-3 -8,-6 -12,-9 -6,-4 -11,-9 -17,-13 -6,0 -12,1 -18,2 -7,0 -13,0 -20,1 -7,-3 -15,-5 -23,-7 -9,-4 -19,-8 -28,-12 -5,-5 -10,-9 -15,-13 -2,-8 -3,-15 -5,-23 -2,-7 -4,-15 -6,-23 -4,-8 -8,-17 -12,-25 -4,-7 -8,-15 -12,-22 -5,-4 -10,-7 -16,-10 0,-1 -1,-1 -1,-1 -6,-5 -11,-10 -17,-16 -5,-4 -10,-9 -16,-14 -7,-7 -14,-15 -22,-22 -10,-2 -20,-5 -29,-7 -4,2 -8,5 -12,7 0,0 0,1 0,1 -3,-2 -5,-5 -8,-7 -5,-4 -11,-7 -16,-11 -3,-3 -6,-6 -8,-10 -3,-5 -6,-10 -9,-15 0,-6 0,-12 -1,-17 0,-7 -1,-14 -1,-20 -2,-4 -3,-8 -5,-11 -1,-3 -2,-6 -3,-9 0,-5 0,-11 0,-16 1,-4 2,-8 3,-12 0,-2 0,-5 1,-8 0,-3 0,-6 0,-9 0,-1 0,-1 0,-2 -2,-2 -4,-5 -5,-7 -13,-9 -25,-17 -38,-26 -5,-5 -9,-11 -14,-17 -6,-5 -13,-11 -19,-16 -1,-1 -1,-1 -2,-1 -3,-1 -6,-2 -10,-3 -2,2 -5,4 -8,5 -5,6 -10,12 -15,18 -4,2 -7,3 -11,5 -5,0 -10,0 -15,0 -7,-3 -14,-6 -20,-9 -7,-9 -14,-19 -20,-29 -5,-9 -10,-17 -15,-25 -2,-5 -4,-10 -6,-15 -3,-5 -5,-11 -8,-16 -2,-5 -4,-10 -5,-14 0,-8 0,-15 0,-22 -2,-7 -4,-13 -6,-20 -2,-5 -4,-11 -6,-16 -4,-7 -8,-14 -12,-21 -2,-3 -4,-7 -6,-10 -5,-7 -10,-14 -15,-21 -2,-5 -3,-11 -5,-16 0,-3 0,-6 0,-8 -1,-4 -1,-7 -1,-10 0,-5 0,-10 0,-15 -4,-2 -8,-3 -11,-5 -5,-1 -11,-1 -16,-2 -6,-1 -13,-2 -19,-4 -2,-3 -5,-6 -7,-10 -3,-2 -7,-4 -11,-6 -6,-3 -11,-6 -17,-8 -5,-2 -10,-5 -15,-7 -4,-3 -9,-6 -13,-10 -1,-6 -1,-13 -2,-20 4,-7 8,-14 11,-20 6,-6 11,-11 16,-16 10,-5 20,-9 29,-14 6,-5 11,-11 16,-16 5,-6 9,-13 14,-19 4,-3 8,-7 12,-10 3,-5 6,-9 9,-14 -1,0 -1,-1 -1,-1 -2,-4 -3,-7 -5,-11 -2,-2 -4,-5 -6,-8 -2,-2 -5,-5 -7,-7 0,-4 0,-8 0,-12 2,-4 5,-9 8,-13 4,-5 7,-11 11,-16 3,-11 7,-22 10,-33 0,-6 0,-12 0,-18 -2,-4 -4,-9 -5,-13 -3,-6 -6,-13 -9,-19 -2,-6 -4,-12 -6,-18 3,-4 7,-9 10,-14 8,-1 16,-1 24,-2 8,1 15,1 23,2 6,0 12,1 18,1 4,-2 7,-4 11,-6 4,-3 7,-6 11,-10 1,-3 1,-7 2,-11 0,-3 1,-7 2,-10 2,-4 4,-7 6,-10 2,-2 5,-3 7,-5 3,0 7,0 10,-1 3,2 5,3 7,5 3,1 5,1 8,2 3,-1 6,-3 9,-4 2,-4 4,-8 6,-12 2,-5 5,-11 8,-16 3,-4 6,-7 8,-10 5,-3 10,-7 16,-10 6,-1 12,-3 18,-4 14,1 29,1 43,2 10,0 20,0 30,0 5,3 9,6 13,9 4,1 8,2 12,4 4,-1 8,-1 11,-1 3,0 5,0 8,0 3,-3 6,-6 10,-8 3,-3 6,-6 9,-8 1,-1 2,-2 3,-3 1,0 3,-1 4,-2 2,1 5,2 7,4 1,4 2,8 2,12 4,2 7,3 10,5z"/>
   </g>
  </g>
  <g id="_641325129040_0">
   <g id="_579246087584_1">
    <g id="Layers_2">
     <g id="Himachal_Pradesh_3">
      <polygon fill="#6DA77F" points="487,21 496,27 508,39 512,57 519,74 522,85 528,98 549,102 580,103 595,108 614,126 622,133 646,157 659,163 674,162 687,152 700,147 716,150 729,153 747,147 766,137 784,128 796,124 812,127 824,135 830,147 835,156 844,164 855,164 863,173 870,200 882,232 894,240 905,251 933,253 958,254 973,245 982,233 994,222 1008,216 1017,212 1023,211 1032,215 1036,224 1037,234 1034,247 1026,262 1017,277 1005,290 1000,300 1000,310 1004,318 1016,326 1028,322 1032,313 1039,303 1045,297 1049,289 1055,282 1094,321 1090,363 1068,384 1069,412 1113,423 1155,482 1162,492 1182,538 1167,585 1173,653 1158,678 1145,699 1152,726 1176,762 1210,772 1222,763 1231,778 1235,786 1242,796 1246,809 1252,821 1252,835 1249,849 1240,859 1229,858 1217,854 1210,845 1202,836 1186,832 1169,834 1155,827 1142,823 1125,819 1103,810 1083,805 1062,796 1043,790 1042,790 1031,798 1017,807 997,810 976,811 962,822 943,829 924,833 912,838 895,840 885,844 873,853 864,864 860,880 857,899 848,911 838,926 831,939 824,949 814,955 807,961 795,970 796,972 798,991 798,1014 805,1025 821,1033 831,1046 832,1059 828,1067 821,1085 811,1102 796,1121 779,1136 774,1133 752,1139 738,1145 724,1134 712,1126 696,1112 677,1114 657,1115 634,1108 606,1096 591,1083 586,1061 580,1037 568,1013 556,990 540,980 539,979 522,964 506,949 484,927 455,920 443,927 443,929 436,921 419,911 411,900 402,885 401,868 400,848 395,837 393,829 393,812 395,801 396,792 396,783 396,782 391,774 353,749 339,731 320,715 319,714 308,711 301,717 285,735 274,739 259,740 239,731 219,701 204,676 198,661 190,645 185,631 185,609 180,589 173,573 161,552 155,542 140,522 135,505 135,497 134,487 134,472 123,467 107,465 88,462 81,452 70,445 53,437 38,430 25,421 23,400 34,380 50,364 79,350 96,334 109,315 121,305 130,291 129,290 124,280 118,272 111,264 111,253 119,239 130,223 140,190 140,173 135,159 126,140 120,123 130,108 154,106 177,108 195,109 206,104 217,94 219,82 221,72 227,62 234,57 245,57 251,61 259,63 268,59 274,48 282,31 290,21 306,11 324,7 367,9 397,9 410,18 422,22 433,21 441,21 451,13 460,5 463,3 467,0 474,4 477,16 "/>
     </g>
    </g>
   </g>
  </g>
 </g>
</svg>
