<?xml version="1.0" encoding="UTF-8"?>
<!DOCTYPE svg PUBLIC "-//W3C//DTD SVG 1.1//EN" "http://www.w3.org/Graphics/SVG/1.1/DTD/svg11.dtd">
<!-- Creator: CorelDRAW X8 -->
<svg xmlns="http://www.w3.org/2000/svg" xml:space="preserve" width="100%" height="100%" version="1.1" shape-rendering="geometricPrecision" text-rendering="geometricPrecision" image-rendering="optimizeQuality" fill-rule="evenodd" clip-rule="evenodd"
viewBox="0 0 1026 1150"
 xmlns:xlink="http://www.w3.org/1999/xlink">
 <g id="Layer_x0020_1">
  <metadata id="CorelCorpID_0Corel-Layer"/>
  <polygon fill="#143D21" points="941,202 946,215 960,227 973,241 935,306 943,377 975,401 1008,433 1026,455 1022,504 1009,535 979,585 969,630 944,688 885,782 834,863 772,999 766,1150 629,1143 523,1104 504,1097 396,1097 368,1103 306,1059 255,1029 229,1033 223,1062 208,1061 198,1055 181,1055 150,1056 127,1047 112,1034 106,1019 95,986 88,962 80,945 80,926 91,902 96,881 97,867 94,860 111,856 118,843 117,827 106,812 105,793 113,777 117,763 118,760 118,744 119,726 128,709 124,692 126,672 138,654 151,637 161,622 174,602 179,593 184,586 192,567 198,548 199,524 205,498 220,470 228,456 240,437 255,418 261,397 275,381 282,368 293,367 305,376 319,388 330,394 350,395 375,396 394,387 408,368 410,353 425,324 432,305 446,289 466,275 472,263 465,245 459,226 461,208 471,198 488,186 489,186 515,186 538,187 562,181 583,176 598,170 614,170 627,178 641,193 660,196 684,196 703,197 721,202 734,207 756,210 784,206 796,200 810,193 827,189 828,189 846,162 854,149 864,135 868,122 878,107 894,103 914,104 933,112 940,132 930,145 919,148 914,161 916,178 929,190 "/>
  <g id="_348050409808">
   <path fill="#184225" d="M937 197c2,5 3,9 5,14 5,3 10,7 14,11 5,5 9,10 13,14 -12,22 -25,44 -37,65 2,24 4,47 7,71 11,8 21,16 32,25 11,10 22,20 33,31 6,7 12,15 18,22 -1,17 -2,33 -3,49 -5,10 -9,21 -14,31 -10,17 -20,33 -30,50 -3,15 -7,30 -10,45 -8,20 -17,39 -25,58 -19,32 -39,63 -59,94 -17,27 -34,54 -51,81 -21,45 -41,91 -62,136 -2,50 -4,101 -6,151 -46,-2 -91,-5 -137,-7 -35,-13 -71,-26 -106,-39 -6,-2 -13,-5 -19,-7 -36,0 -72,0 -107,0 -10,2 -19,4 -29,6 -20,-15 -41,-29 -62,-44 -17,-10 -34,-20 -51,-30 -9,1 -17,3 -25,4 -2,10 -4,20 -6,29 -6,0 -11,-1 -16,-1 -3,-2 -6,-4 -10,-6 -5,0 -11,0 -16,0 -11,0 -22,0 -32,1 -8,-3 -15,-6 -23,-9 -5,-4 -10,-9 -15,-13 -2,-5 -4,-10 -6,-15 -3,-11 -7,-22 -11,-32 -2,-8 -5,-17 -7,-25 -3,-5 -5,-11 -7,-16 0,-7 0,-13 0,-20 3,-8 7,-16 10,-24 2,-7 4,-14 5,-20 1,-5 1,-10 1,-15 -1,-2 -2,-4 -3,-6 6,-2 11,-4 17,-5 2,-4 5,-9 7,-13 0,-5 0,-11 -1,-16 -3,-5 -7,-10 -10,-15 -1,-6 -1,-13 -1,-19 2,-5 4,-11 7,-16 1,-5 3,-9 4,-14 1,-1 1,-2 1,-3 0,-5 0,-10 0,-16 1,-6 1,-12 1,-18 3,-5 6,-11 9,-17 -1,-5 -2,-11 -3,-17 0,-6 1,-13 2,-20 4,-6 7,-12 11,-18 5,-6 9,-11 13,-17 3,-5 7,-10 10,-15 4,-6 8,-13 13,-20 2,-3 4,-6 5,-9 2,-2 3,-5 5,-7 3,-6 5,-13 8,-19 2,-6 4,-13 6,-19 0,-8 1,-16 1,-24 2,-8 4,-17 6,-26 5,-10 10,-19 15,-28 3,-5 6,-10 9,-14 3,-6 7,-12 11,-19 5,-6 10,-12 15,-19 2,-7 4,-14 6,-21 5,-5 10,-11 14,-16 2,-5 5,-9 7,-13 3,-1 7,-1 11,-1 4,3 8,6 12,9 4,4 9,8 14,12 4,2 8,4 12,6 6,0 13,1 20,1 8,1 16,1 24,1 7,-3 13,-6 20,-9 4,-7 8,-13 13,-19 1,-5 2,-10 2,-15 5,-10 10,-19 15,-29 3,-6 5,-13 7,-19 5,-6 10,-11 14,-16 7,-5 14,-9 20,-14 2,-4 4,-8 6,-12 -2,-6 -5,-12 -7,-18 -2,-6 -4,-12 -6,-19 1,-6 1,-12 2,-18 3,-3 7,-7 10,-10 6,-4 12,-8 17,-12 1,0 1,0 1,0 9,0 18,0 27,0 7,0 15,1 23,1 7,-2 15,-4 23,-6 7,-2 14,-4 21,-5 5,-2 10,-4 15,-6 5,0 11,0 16,0 4,3 8,5 13,8 5,5 10,10 14,16 7,0 13,1 19,2 8,0 16,0 24,0 6,0 13,0 19,1 6,2 12,3 18,5 4,2 8,4 13,5 7,1 15,2 22,3 9,-1 19,-2 28,-4 4,-2 8,-4 12,-6 5,-2 10,-4 15,-6 5,-2 11,-3 17,-5 0,0 0,0 0,0 6,-9 12,-18 18,-27 3,-5 6,-9 8,-13 3,-5 7,-9 10,-14 2,-4 3,-8 4,-13 4,-5 7,-10 10,-15 5,-1 11,-2 16,-4 7,1 14,1 21,1 6,3 12,5 19,8 2,6 4,13 6,20 -3,4 -6,9 -10,13 -3,1 -7,2 -11,3 -2,4 -3,8 -4,13 0,5 1,11 2,17 4,4 8,8 12,12 4,4 8,8 12,12z"/>
   <path fill="#1C472A" d="M933 192c2,5 4,9 5,14 5,4 10,7 14,11 5,5 9,10 14,14 -13,22 -26,44 -38,65 2,24 5,47 7,71 11,8 21,16 32,25 11,10 22,20 34,31 5,7 11,15 17,22 -1,17 -2,33 -3,49 -5,10 -9,21 -13,31 -11,17 -21,33 -31,50 -3,15 -7,30 -10,46 -8,19 -16,38 -25,58 -19,31 -39,62 -58,93 -18,27 -35,54 -52,81 -20,45 -41,91 -62,136 -2,50 -4,101 -6,151 -45,-2 -91,-5 -137,-7 -35,-13 -70,-26 -106,-39 -6,-2 -12,-5 -19,-7 -35,0 -71,0 -107,0 -10,2 -19,4 -28,6 -21,-14 -42,-29 -62,-44 -18,-10 -35,-20 -52,-30 -9,1 -17,3 -25,4 -2,10 -4,20 -6,29 -5,0 -11,-1 -16,-1 -3,-2 -6,-4 -9,-6 -6,0 -12,0 -17,0 -11,0 -22,0 -32,1 -8,-3 -15,-6 -23,-9 -5,-4 -10,-9 -14,-13 -3,-5 -5,-10 -7,-15 -3,-11 -7,-22 -11,-32 -2,-8 -5,-16 -7,-24 -2,-6 -5,-12 -7,-17 0,-7 0,-13 0,-20 3,-8 7,-16 11,-24 1,-7 3,-14 5,-20 0,-5 0,-10 1,-15 -1,-2 -2,-4 -4,-6 6,-2 11,-3 17,-5 2,-4 5,-9 8,-13 -1,-5 -1,-10 -1,-16 -4,-5 -8,-10 -11,-15 -1,-6 -1,-13 -1,-19 2,-5 5,-11 7,-16 2,-4 3,-9 5,-14 0,-1 0,-2 1,-3 0,-5 0,-10 0,-16 0,-6 0,-12 1,-18 3,-5 5,-11 8,-16 -1,-6 -2,-12 -3,-17 0,-7 1,-14 2,-21 4,-6 8,-12 12,-18 4,-5 8,-11 12,-17 4,-5 7,-10 10,-15 4,-6 9,-13 13,-20 2,-3 4,-6 6,-9 1,-2 3,-5 4,-7 3,-6 5,-13 8,-19 2,-6 4,-13 6,-19 0,-8 1,-16 1,-23 2,-9 4,-18 7,-27 5,-10 10,-19 15,-28 2,-5 5,-10 8,-14 4,-6 8,-12 12,-19 4,-6 9,-12 14,-18 2,-7 4,-14 7,-21 4,-6 9,-12 13,-17 3,-5 5,-9 7,-13 4,-1 7,-1 11,-1 4,3 8,6 12,9 5,4 9,8 14,12 4,2 8,4 12,6 6,0 13,1 20,1 8,1 16,1 24,2 7,-4 13,-7 20,-10 4,-7 9,-13 13,-19 1,-5 2,-10 3,-15 5,-10 10,-19 15,-29 2,-6 4,-13 7,-19 4,-5 9,-11 14,-16 6,-5 13,-9 19,-14 2,-4 4,-8 6,-12 -2,-6 -4,-12 -7,-18 -2,-6 -4,-12 -6,-19 1,-6 2,-12 2,-18 4,-3 7,-7 10,-10 6,-4 12,-8 18,-12 0,0 0,0 0,0 9,0 18,0 27,0 7,0 15,1 23,1 8,-2 15,-4 23,-6 7,-2 14,-4 21,-5 5,-2 10,-4 15,-6 5,0 11,0 16,0 4,3 9,5 13,8 5,5 10,10 15,16 6,0 12,1 19,2 7,0 15,0 23,0 6,0 13,0 19,1 6,2 12,4 18,5 4,2 9,4 13,5 7,1 15,2 22,3 10,-1 19,-2 28,-4 4,-2 8,-4 12,-6 5,-2 10,-4 15,-6 5,-2 11,-3 17,-5 0,0 0,0 0,0 6,-9 12,-18 19,-27 2,-4 5,-9 7,-13 4,-5 7,-9 11,-14 1,-4 2,-8 4,-13 3,-5 6,-9 9,-14 6,-2 11,-3 16,-5 7,1 14,1 21,1 6,3 12,5 19,8 2,7 4,13 6,20 -3,4 -6,9 -9,13 -4,1 -8,2 -12,3 -1,4 -3,9 -4,13 0,5 1,11 2,17 4,4 8,8 13,13 3,3 7,7 11,11z"/>
   <path fill="#214C2E" d="M929 187c2,5 4,9 6,14 4,4 9,8 14,11 4,5 8,10 13,14 -13,22 -25,44 -38,65 2,24 5,48 7,71 11,8 22,17 32,25 11,10 23,21 34,31 6,7 11,15 17,22 -1,17 -2,33 -3,49 -4,11 -9,21 -13,31 -10,17 -20,34 -31,50 -3,15 -6,30 -10,46 -8,19 -16,38 -24,58 -20,31 -40,62 -59,93 -17,27 -34,54 -52,81 -20,46 -41,91 -62,136 -2,50 -4,101 -6,151 -45,-2 -91,-5 -136,-7 -36,-13 -71,-26 -107,-39 -6,-2 -12,-4 -18,-7 -36,0 -72,0 -108,0 -9,2 -19,4 -28,7 -21,-15 -42,-30 -62,-45 -17,-10 -35,-20 -52,-30 -8,2 -17,3 -25,4 -2,10 -4,20 -6,30 -5,-1 -10,-1 -16,-2 -3,-2 -6,-4 -9,-6 -6,0 -12,0 -17,0 -11,0 -21,1 -32,1 -7,-3 -15,-6 -23,-9 -4,-4 -9,-9 -14,-13 -2,-5 -4,-10 -6,-15 -4,-11 -8,-22 -11,-32 -3,-8 -5,-16 -8,-24 -2,-6 -5,-12 -7,-17 0,-7 0,-13 0,-20 3,-8 7,-16 11,-24 1,-7 3,-13 5,-20 0,-5 0,-10 1,-15 -1,-2 -2,-4 -3,-6 5,-2 11,-3 16,-5 3,-4 5,-8 8,-13 -1,-5 -1,-10 -1,-16 -4,-5 -7,-10 -11,-14 0,-7 -1,-13 -1,-20 2,-5 5,-10 7,-16 2,-4 3,-9 5,-14 0,-1 0,-2 1,-3 0,-5 0,-10 0,-16 0,-6 0,-12 1,-17 3,-6 6,-12 9,-17 -2,-6 -3,-12 -4,-17 1,-7 1,-14 2,-21 4,-6 8,-12 12,-18 4,-5 8,-11 13,-17 3,-5 6,-10 9,-14 5,-7 9,-14 13,-21 2,-3 4,-6 6,-9 1,-2 3,-5 4,-7 3,-6 5,-13 8,-19 2,-6 4,-12 6,-19 1,-8 1,-16 1,-23 2,-9 5,-18 7,-27 5,-9 10,-19 15,-28 2,-5 5,-9 8,-14 4,-6 8,-12 12,-18 5,-7 10,-13 15,-19 2,-7 4,-14 6,-21 4,-6 9,-12 14,-17 2,-5 4,-9 6,-13 4,0 7,-1 11,-1 4,3 8,6 12,9 5,4 9,8 14,12 4,2 8,4 12,6 7,1 13,1 20,2 8,0 16,0 24,1 7,-4 13,-7 20,-10 4,-7 9,-13 13,-19 1,-5 2,-10 3,-15 5,-10 10,-19 15,-29 2,-6 4,-13 7,-19 4,-5 9,-11 14,-16 6,-5 13,-9 20,-14 2,-4 3,-8 5,-12 -2,-6 -4,-12 -6,-18 -2,-6 -5,-12 -7,-19 1,-6 2,-12 3,-17 3,-4 6,-8 9,-11 6,-4 12,-8 18,-12 0,0 0,0 0,0 9,0 18,0 27,0 8,0 15,1 23,1 8,-2 16,-4 24,-6 7,-2 14,-3 21,-5 4,-2 9,-4 14,-6 6,0 11,0 16,0 4,3 9,5 13,8 5,5 10,10 15,16 6,0 12,1 19,2 8,0 15,0 23,0 7,0 13,0 19,1 6,2 12,4 18,5 5,2 9,4 13,5 8,2 15,3 23,4 9,-2 18,-3 27,-5 4,-2 8,-4 12,-6 5,-2 10,-4 15,-6 6,-2 11,-3 17,-4 0,0 0,0 0,0 7,-10 13,-19 19,-28 2,-4 5,-9 7,-13 4,-4 7,-9 11,-14 1,-4 2,-8 4,-13 3,-4 6,-9 9,-14 6,-2 11,-3 16,-4 7,0 14,0 21,1 6,2 13,4 19,7 2,7 4,13 6,20 -3,5 -6,9 -9,13 -4,1 -8,2 -12,3 -1,4 -3,9 -4,13 1,6 1,11 2,17 4,4 8,8 13,13 4,4 7,8 11,11z"/>
   <path fill="#255133" d="M925 183c2,4 4,8 6,13 4,4 9,8 14,12 4,4 9,9 13,13 -13,22 -25,44 -38,66 2,23 5,47 7,70 11,8 22,17 33,25 11,10 22,21 33,31 6,8 11,15 17,23 -1,16 -2,32 -3,48 -4,11 -9,21 -13,32 -10,16 -20,33 -30,49 -4,15 -7,31 -11,46 -8,19 -16,38 -24,58 -20,31 -39,62 -59,93 -17,27 -34,54 -51,81 -21,46 -42,91 -62,136 -2,50 -4,101 -7,151 -45,-2 -91,-5 -136,-7 -36,-13 -71,-26 -106,-39 -7,-2 -13,-4 -19,-7 -36,0 -72,0 -108,0 -9,2 -19,5 -28,7 -21,-15 -41,-30 -62,-45 -17,-10 -35,-20 -52,-30 -8,2 -17,3 -25,4 -2,10 -4,20 -6,30 -5,-1 -10,-1 -15,-2 -4,-2 -7,-4 -10,-6 -6,0 -11,0 -17,0 -11,0 -21,1 -32,1 -7,-3 -15,-6 -22,-9 -5,-4 -10,-9 -15,-13 -2,-5 -4,-10 -6,-15 -4,-11 -8,-21 -11,-32 -3,-8 -5,-16 -8,-24 -2,-6 -5,-12 -7,-17 0,-7 0,-13 0,-20 4,-8 7,-16 11,-24 2,-7 3,-13 5,-20 0,-5 1,-10 1,-15 -1,-2 -2,-4 -3,-6 5,-2 11,-3 16,-5 3,-4 5,-8 8,-13 0,-5 -1,-10 -1,-16 -4,-5 -7,-9 -11,-14 0,-7 0,-13 -1,-20 3,-5 5,-10 7,-16 2,-4 3,-9 5,-14 0,-1 1,-2 1,-3 0,-5 0,-10 0,-16 0,-5 1,-11 1,-17 3,-6 6,-12 9,-17 -1,-6 -3,-12 -4,-17 1,-7 1,-14 2,-21 4,-6 8,-12 12,-18 4,-5 8,-11 13,-17 3,-4 6,-9 9,-14 5,-7 9,-14 13,-21 2,-3 4,-6 6,-9 1,-2 3,-4 5,-7 2,-6 5,-12 7,-19 2,-6 4,-12 6,-19 1,-8 1,-15 1,-23 3,-9 5,-18 7,-27 5,-9 10,-19 15,-28 3,-5 5,-9 8,-14 4,-6 8,-12 12,-18 5,-7 10,-13 15,-19 2,-7 4,-14 6,-21 4,-6 9,-12 14,-17 2,-4 4,-9 6,-13 4,0 8,-1 11,-1 4,3 8,6 12,9 5,4 10,8 14,12 4,2 8,4 12,6 7,1 13,1 20,2 8,0 16,0 25,1 6,-4 13,-7 19,-10 5,-6 9,-13 13,-19 1,-5 2,-10 3,-15 5,-9 10,-19 15,-29 2,-6 5,-13 7,-19 5,-5 9,-11 14,-16 7,-5 13,-9 20,-14 2,-4 4,-8 5,-12 -2,-6 -4,-12 -6,-17 -2,-7 -4,-13 -6,-19 0,-6 1,-12 2,-18 3,-4 6,-8 9,-11 6,-4 12,-8 18,-12 0,0 0,0 0,0 9,0 18,0 27,0 8,0 15,1 23,1 8,-2 16,-4 24,-6 7,-2 14,-3 21,-5 5,-2 10,-4 14,-6 6,0 11,0 16,0 5,3 9,5 13,8 5,5 10,11 15,16 6,0 13,1 19,2 8,0 16,0 24,0 6,0 12,1 18,1 6,2 12,4 18,6 5,1 9,3 13,5 8,1 15,2 23,3 9,-2 18,-3 27,-4 4,-3 8,-5 12,-7 5,-2 10,-4 15,-6 6,-2 11,-3 17,-4 0,0 0,0 1,0 6,-10 12,-19 18,-28 2,-4 5,-9 8,-13 3,-4 6,-9 10,-14 1,-4 3,-8 4,-12 3,-5 6,-10 10,-15 5,-2 10,-3 16,-4 6,0 13,0 20,1 6,2 13,4 19,7 2,7 4,14 6,20 -3,5 -6,9 -9,13 -4,1 -8,2 -12,3 -1,4 -3,9 -4,13 1,6 1,11 2,17 4,4 9,8 13,13 4,4 7,8 11,12z"/>
   <path fill="#295637" d="M921 178c2,4 4,8 6,13 5,4 9,8 14,12 4,4 9,9 13,14 -12,21 -25,43 -38,65 3,23 5,47 7,70 11,8 22,17 33,25 11,10 22,21 33,31 6,8 12,15 17,23 -1,16 -2,32 -3,48 -4,11 -9,21 -13,32 -10,16 -20,33 -30,49 -4,15 -7,31 -10,46 -9,19 -17,38 -25,58 -20,31 -39,62 -59,93 -17,27 -34,54 -51,81 -21,46 -42,91 -62,136 -2,51 -4,101 -6,151 -46,-2 -91,-4 -137,-7 -35,-13 -71,-26 -106,-39 -7,-2 -13,-4 -19,-7 -36,0 -72,0 -108,0 -9,3 -18,5 -28,7 -21,-15 -41,-30 -62,-45 -17,-10 -34,-20 -52,-30 -8,2 -16,3 -25,4 -2,10 -4,20 -6,30 -5,-1 -10,-1 -15,-2 -3,-2 -7,-4 -10,-6 -6,0 -11,0 -17,0 -10,0 -21,1 -32,1 -7,-3 -15,-6 -22,-9 -5,-4 -10,-9 -15,-13 -2,-5 -4,-10 -6,-15 -4,-11 -7,-21 -11,-32 -3,-8 -5,-16 -8,-24 -2,-6 -4,-11 -7,-17 0,-7 0,-13 0,-20 4,-8 7,-16 11,-24 2,-6 3,-13 5,-20 0,-5 1,-10 1,-15 -1,-2 -2,-4 -3,-6 5,-2 11,-3 16,-5 3,-4 6,-8 8,-13 0,-5 -1,-10 -1,-16 -4,-4 -7,-9 -11,-14 0,-7 0,-13 -1,-20 3,-5 5,-10 8,-16 1,-4 3,-9 4,-14 0,-1 1,-2 1,-3 0,-5 0,-10 0,-15 0,-6 1,-12 1,-18 3,-6 6,-12 9,-17 -1,-6 -3,-12 -4,-17 1,-7 2,-14 2,-21 4,-6 8,-12 12,-18 4,-5 9,-11 13,-16 3,-5 6,-10 10,-15 4,-7 8,-14 12,-21 2,-3 4,-6 6,-9 2,-2 3,-4 5,-7 2,-6 5,-12 7,-19 2,-6 4,-12 7,-19 0,-7 0,-15 1,-23 2,-9 4,-18 6,-27 5,-9 10,-19 15,-28 3,-5 6,-9 8,-14 4,-6 8,-12 12,-18 5,-7 10,-13 15,-19 2,-7 4,-14 6,-21 5,-6 9,-11 14,-17 2,-4 4,-9 7,-13 3,0 7,-1 10,-1 4,3 9,6 13,9 4,4 9,8 13,12 4,2 8,4 12,6 7,1 14,1 20,2 8,0 17,0 25,1 6,-3 13,-7 19,-10 5,-6 9,-13 14,-19 0,-5 1,-10 2,-15 5,-9 10,-19 15,-29 2,-6 5,-12 7,-19 5,-5 9,-11 14,-16 7,-4 13,-9 20,-14 2,-4 4,-8 6,-12 -3,-6 -5,-12 -7,-17 -2,-7 -4,-13 -6,-19 0,-6 1,-12 2,-18 3,-4 6,-7 10,-11 5,-4 11,-8 17,-12 0,0 0,0 1,0 8,0 17,0 26,0 8,0 16,1 23,1 8,-2 16,-4 24,-6 7,-2 14,-3 21,-5 5,-2 10,-4 15,-6 5,0 10,0 16,0 4,3 8,5 12,8 5,5 10,11 15,16 7,1 13,1 19,2 8,0 16,0 24,0 6,0 12,1 19,1 6,2 12,4 18,6 4,1 8,3 12,5 8,1 15,2 23,3 9,-2 18,-3 28,-4 4,-3 7,-5 11,-7 5,-2 10,-4 15,-6 6,-1 12,-3 17,-4 0,0 1,0 1,0 6,-9 12,-19 18,-28 3,-4 5,-8 8,-13 3,-4 7,-9 10,-13 1,-5 3,-9 4,-13 3,-5 7,-10 10,-15 5,-2 10,-3 16,-4 7,0 13,0 20,1 7,2 13,5 19,7 2,7 4,14 6,20 -3,5 -6,9 -9,13 -4,1 -8,2 -12,3 -1,5 -2,9 -4,13 1,6 2,11 2,17 5,4 9,9 13,13 4,4 8,8 11,12z"/>
   <path fill="#2D5B3C" d="M918 173c1,4 3,9 5,13 5,4 9,8 14,12 4,4 9,9 13,14 -12,21 -25,43 -38,65 3,23 5,47 8,70 10,9 21,17 32,25 11,10 22,21 33,31 6,8 12,15 18,23 -1,16 -2,32 -3,48 -5,11 -9,21 -14,32 -10,16 -20,33 -30,49 -3,15 -7,31 -10,46 -8,19 -17,39 -25,58 -20,31 -39,62 -59,94 -17,27 -34,54 -51,81 -21,45 -41,90 -62,135 -2,51 -4,101 -6,151 -46,-2 -91,-4 -137,-7 -35,-13 -71,-26 -106,-39 -6,-2 -13,-4 -19,-6 -36,0 -72,0 -108,0 -9,2 -18,4 -28,6 -20,-15 -41,-30 -62,-45 -17,-10 -34,-20 -51,-30 -9,2 -17,3 -26,5 -2,9 -4,19 -6,29 -5,-1 -10,-1 -15,-2 -3,-2 -7,-4 -10,-6 -5,0 -11,0 -17,0 -10,0 -21,1 -31,1 -8,-3 -15,-6 -23,-9 -5,-4 -10,-8 -15,-13 -2,-5 -4,-10 -6,-15 -4,-11 -7,-21 -11,-32 -2,-8 -5,-16 -7,-24 -3,-6 -5,-11 -8,-17 0,-7 0,-13 0,-19 4,-9 8,-17 11,-25 2,-6 4,-13 5,-20 1,-5 1,-10 1,-15 -1,-2 -2,-4 -3,-6 6,-2 11,-3 17,-5 2,-4 5,-8 7,-12 0,-6 0,-11 -1,-16 -3,-5 -7,-10 -10,-15 -1,-7 -1,-13 -1,-20 2,-5 4,-10 7,-16 1,-4 3,-9 4,-13 1,-1 1,-3 1,-4 0,-5 0,-10 0,-15 1,-6 1,-12 1,-18 3,-6 6,-12 9,-17 -1,-6 -2,-11 -4,-17 1,-7 2,-14 2,-21 4,-6 8,-12 12,-18 5,-5 9,-11 13,-16 3,-5 7,-10 10,-15 4,-7 8,-14 13,-21 2,-3 3,-6 5,-8 2,-3 3,-5 5,-8 2,-6 5,-12 8,-19 2,-6 4,-12 6,-19 0,-7 0,-15 1,-23 2,-9 4,-18 6,-27 5,-9 10,-19 15,-28 3,-5 6,-9 8,-14 4,-6 8,-12 12,-18 5,-7 10,-13 15,-19 2,-7 4,-14 6,-21 5,-6 9,-11 14,-17 2,-4 5,-9 7,-13 3,0 7,-1 11,-1 4,3 8,6 12,9 4,4 9,8 14,12 4,2 7,4 11,6 7,1 14,1 20,2 9,0 17,0 25,1 6,-3 13,-7 19,-10 5,-6 9,-13 14,-19 1,-5 1,-10 2,-15 5,-9 10,-19 15,-28 3,-7 5,-13 7,-20 5,-5 10,-10 14,-16 7,-4 14,-9 20,-14 2,-4 4,-8 6,-12 -2,-6 -5,-11 -7,-17 -2,-7 -4,-13 -6,-19 1,-6 1,-12 2,-18 3,-4 7,-7 10,-11 6,-4 11,-8 17,-12 0,0 1,0 1,0 9,0 18,0 26,0 8,1 16,1 23,1 8,-2 16,-4 24,-6 7,-2 14,-3 21,-5 5,-2 10,-4 15,-6 5,0 10,0 16,0 4,3 8,6 13,8 4,5 9,11 14,16 7,1 13,1 19,2 8,0 16,0 24,0 6,0 13,1 19,1 6,2 12,4 18,6 4,1 8,3 13,5 7,1 15,2 22,3 9,-2 19,-3 28,-4 4,-2 8,-5 12,-7 5,-2 9,-4 14,-6 6,-1 12,-3 17,-4 1,0 1,0 1,0 6,-9 12,-19 18,-28 3,-4 5,-8 8,-13 3,-4 7,-9 10,-13 2,-5 3,-9 4,-13 4,-5 7,-10 10,-15 5,-1 11,-3 16,-4 7,0 14,0 20,1 7,2 13,5 19,7 2,7 5,14 7,20 -3,5 -7,9 -10,13 -4,1 -8,2 -11,3 -2,5 -3,9 -5,13 1,6 2,11 3,17 4,4 8,9 12,13 4,4 8,8 12,12z"/>
   <path fill="#326040" d="M914 168c2,4 3,9 5,13 5,4 10,8 14,12 5,4 9,9 13,14 -12,21 -25,43 -37,65 2,23 4,47 7,70 11,9 21,17 32,25 11,10 22,21 33,31 6,8 12,15 18,23 -1,16 -2,32 -3,48 -5,11 -9,21 -14,32 -10,16 -20,33 -30,49 -3,16 -7,31 -10,46 -8,19 -17,39 -25,58 -19,31 -39,62 -59,94 -17,27 -34,54 -51,81 -21,45 -41,90 -62,135 -2,51 -4,101 -6,151 -46,-2 -91,-4 -137,-7 -35,-13 -70,-26 -106,-39 -6,-2 -12,-4 -19,-6 -36,0 -71,0 -107,0 -10,2 -19,4 -29,6 -20,-15 -41,-30 -61,-45 -18,-10 -35,-20 -52,-29 -9,1 -17,2 -25,4 -2,9 -4,19 -6,29 -6,-1 -11,-1 -16,-2 -3,-2 -6,-4 -10,-6 -5,0 -11,0 -16,0 -11,0 -22,1 -32,1 -8,-3 -15,-6 -23,-9 -5,-4 -10,-8 -15,-13 -2,-5 -4,-10 -6,-15 -3,-10 -7,-21 -11,-32 -2,-8 -5,-16 -7,-24 -3,-6 -5,-11 -7,-17 0,-6 0,-13 0,-19 3,-8 7,-16 10,-24 2,-7 4,-14 5,-21 1,-5 1,-10 1,-15 -1,-2 -2,-4 -3,-6 6,-2 11,-3 17,-5 2,-4 5,-8 7,-12 0,-6 0,-11 -1,-16 -3,-5 -7,-10 -10,-15 -1,-7 -1,-13 -1,-20 2,-5 5,-10 7,-15 1,-5 3,-10 4,-14 1,-1 1,-2 1,-3 0,-6 0,-11 0,-16 1,-6 1,-12 1,-18 3,-6 6,-11 9,-17 -1,-6 -2,-11 -3,-17 0,-7 1,-14 2,-21 4,-6 7,-11 11,-17 5,-6 9,-12 13,-17 3,-5 7,-10 10,-15 4,-7 9,-14 13,-21 2,-3 4,-5 6,-8 1,-3 3,-5 4,-8 3,-6 5,-12 8,-19 2,-6 4,-12 6,-18 0,-8 1,-16 1,-24 2,-9 4,-18 7,-27 4,-9 9,-19 14,-28 3,-5 6,-9 9,-14 4,-6 7,-12 11,-18 5,-6 10,-13 15,-19 2,-7 4,-14 6,-21 5,-6 10,-11 14,-17 2,-4 5,-9 7,-13 4,0 7,-1 11,-1 4,3 8,6 12,9 5,4 9,8 14,12 4,2 8,4 12,6 6,1 13,1 20,2 8,0 16,1 24,1 7,-3 13,-7 20,-10 4,-6 8,-13 13,-19 1,-5 2,-10 2,-15 5,-9 10,-19 15,-28 3,-7 5,-13 7,-20 5,-5 10,-10 14,-16 7,-4 14,-9 20,-14 2,-4 4,-8 6,-12 -2,-6 -4,-11 -7,-17 -2,-7 -4,-13 -6,-19 1,-6 2,-12 2,-18 3,-4 7,-7 10,-11 6,-4 12,-8 17,-12 1,0 1,0 1,0 9,0 18,0 27,0 7,1 15,1 23,1 7,-2 15,-4 23,-6 7,-1 14,-3 21,-5 5,-2 10,-4 15,-6 5,0 11,0 16,0 4,3 8,6 13,8 5,5 10,11 15,16 6,1 12,1 18,2 8,0 16,0 24,0 6,0 13,1 19,1 6,2 12,4 18,6 4,1 8,3 13,5 7,1 15,2 22,3 10,-1 19,-3 28,-4 4,-2 8,-5 12,-7 5,-2 10,-4 15,-6 5,-1 11,-3 17,-4 0,0 0,0 0,0 6,-9 12,-19 18,-28 3,-4 6,-8 8,-13 4,-4 7,-9 10,-13 2,-5 3,-9 5,-13 3,-5 6,-10 9,-15 5,-1 11,-3 16,-4 7,0 14,1 21,1 6,2 12,5 19,7 2,7 4,14 6,21 -3,4 -6,8 -10,12 -3,1 -7,2 -11,3 -2,5 -3,9 -4,13 0,6 1,12 2,17 4,4 8,9 12,13 4,4 8,8 12,12z"/>
   <path fill="#366545" d="M910 163c2,4 4,9 6,13 4,4 9,8 13,12 5,4 9,9 14,14 -13,21 -26,43 -38,65 2,23 5,47 7,71 11,8 21,16 32,24 11,11 22,21 34,31 5,8 11,15 17,23 -1,16 -2,32 -3,49 -5,10 -9,20 -13,31 -10,16 -21,33 -31,49 -3,16 -7,31 -10,46 -8,19 -16,39 -25,58 -19,31 -39,62 -58,94 -18,27 -35,54 -52,81 -20,45 -41,90 -62,135 -2,51 -4,101 -6,152 -45,-3 -91,-5 -137,-8 -35,-13 -70,-26 -106,-39 -6,-2 -12,-4 -19,-6 -35,0 -71,0 -107,0 -10,2 -19,4 -28,6 -21,-15 -42,-30 -62,-45 -18,-10 -35,-19 -52,-29 -8,1 -17,2 -25,4 -2,9 -4,19 -6,29 -5,-1 -11,-1 -16,-2 -3,-2 -6,-4 -9,-6 -6,0 -12,0 -17,0 -11,1 -21,1 -32,1 -8,-3 -15,-6 -23,-8 -5,-5 -10,-9 -14,-14 -2,-5 -5,-10 -7,-15 -3,-10 -7,-21 -10,-32 -3,-8 -6,-16 -8,-24 -2,-6 -5,-11 -7,-17 0,-6 0,-13 0,-19 3,-8 7,-16 11,-24 1,-7 3,-14 5,-21 0,-5 0,-10 1,-15 -1,-2 -2,-4 -3,-6 5,-1 10,-3 16,-5 3,-4 5,-8 8,-12 -1,-6 -1,-11 -1,-16 -4,-5 -8,-10 -11,-15 0,-7 -1,-13 -1,-19 2,-6 5,-11 7,-16 2,-5 3,-10 5,-14 0,-1 0,-2 1,-3 0,-6 0,-11 0,-16 0,-6 0,-12 1,-18 3,-6 5,-11 8,-17 -1,-6 -2,-11 -3,-17 0,-7 1,-14 2,-20 4,-6 8,-12 12,-18 4,-6 8,-12 12,-17 4,-5 7,-10 10,-15 4,-7 9,-14 13,-21 2,-2 4,-5 6,-8 1,-3 3,-5 4,-7 3,-7 5,-13 8,-19 2,-7 4,-13 6,-19 0,-8 1,-16 1,-24 2,-9 4,-18 7,-27 5,-9 10,-18 15,-28 2,-4 5,-9 8,-14 4,-6 8,-12 12,-18 5,-6 9,-13 14,-19 2,-7 5,-14 7,-21 4,-6 9,-11 13,-17 3,-4 5,-8 7,-13 4,0 7,0 11,-1 4,3 8,6 12,10 5,3 9,7 14,11 4,2 8,4 12,6 6,1 13,1 20,2 8,0 16,1 24,1 7,-3 13,-7 20,-10 4,-6 9,-12 13,-19 1,-5 2,-10 3,-15 5,-9 10,-19 15,-28 2,-7 4,-13 7,-20 4,-5 9,-10 14,-16 6,-4 13,-9 20,-13 1,-5 3,-9 5,-13 -2,-5 -4,-11 -7,-17 -2,-6 -4,-13 -6,-19 1,-6 2,-12 2,-18 4,-4 7,-7 10,-11 6,-4 12,-8 18,-12 0,0 0,0 0,0 9,0 18,0 27,0 7,1 15,1 23,1 8,-2 16,-4 23,-6 7,-1 14,-3 21,-5 5,-2 10,-4 15,-5 5,0 11,0 16,0 4,2 9,5 13,7 5,6 10,11 15,16 6,1 12,2 19,2 8,0 15,0 23,0 7,1 13,1 19,1 6,2 12,4 18,6 4,2 9,3 13,5 7,1 15,2 22,3 10,-1 19,-3 28,-4 4,-2 8,-4 12,-7 5,-2 10,-4 15,-6 5,-1 11,-3 17,-4 0,0 0,0 0,0 6,-9 13,-18 19,-28 2,-4 5,-8 7,-12 4,-5 7,-10 11,-14 1,-5 2,-9 4,-13 3,-5 6,-10 9,-15 6,-1 11,-3 16,-4 7,0 14,1 21,1 6,2 12,5 19,7 2,7 4,14 6,21 -3,4 -6,8 -9,12 -4,1 -8,2 -12,4 -1,4 -3,8 -4,12 0,6 1,12 2,17 4,5 8,9 13,13 3,4 7,8 11,12z"/>
   <path fill="#3A6A49" d="M906 158c2,4 4,9 6,13 4,4 9,8 14,12 4,5 8,9 13,14 -13,22 -25,43 -38,65 2,23 5,47 7,71 11,8 22,16 32,24 12,11 23,21 34,31 6,8 11,15 17,23 -1,16 -2,32 -3,49 -4,10 -9,20 -13,31 -10,16 -20,33 -30,50 -4,15 -7,30 -11,45 -8,19 -16,39 -24,58 -20,31 -40,63 -59,94 -17,27 -34,54 -52,81 -20,45 -41,90 -61,136 -3,50 -5,100 -7,151 -45,-3 -91,-5 -136,-8 -36,-13 -71,-26 -106,-38 -7,-3 -13,-5 -19,-7 -36,0 -72,0 -108,0 -9,2 -19,4 -28,6 -21,-15 -41,-30 -62,-45 -17,-9 -35,-19 -52,-29 -8,1 -17,2 -25,4 -2,10 -4,19 -6,29 -5,0 -10,-1 -16,-1 -3,-3 -6,-5 -9,-7 -6,0 -11,0 -17,0 -11,1 -21,1 -32,1 -7,-3 -15,-5 -22,-8 -5,-5 -10,-9 -15,-14 -2,-5 -4,-10 -6,-15 -4,-10 -8,-21 -11,-32 -3,-8 -5,-16 -8,-24 -2,-6 -5,-11 -7,-17 0,-6 0,-13 0,-19 4,-8 7,-16 11,-24 1,-7 3,-14 5,-21 0,-5 0,-10 1,-15 -1,-2 -2,-4 -3,-6 5,-1 11,-3 16,-4 3,-5 5,-9 8,-13 -1,-6 -1,-11 -1,-16 -4,-5 -7,-10 -11,-15 0,-6 -1,-13 -1,-19 2,-6 5,-11 7,-16 2,-5 3,-10 5,-14 0,-1 0,-2 1,-3 0,-6 0,-11 0,-16 0,-6 0,-12 1,-18 3,-6 6,-11 9,-17 -2,-6 -3,-11 -4,-17 1,-7 1,-14 2,-20 4,-6 8,-12 12,-18 4,-6 8,-12 13,-17 3,-5 6,-10 9,-15 5,-7 9,-14 13,-20 2,-3 4,-6 6,-9 1,-3 3,-5 4,-7 3,-7 6,-13 8,-19 2,-7 4,-13 6,-19 1,-8 1,-16 1,-24 2,-9 5,-18 7,-27 5,-9 10,-18 15,-28 3,-4 5,-9 8,-14 4,-6 8,-12 12,-18 5,-6 10,-13 15,-19 2,-7 4,-14 6,-21 4,-6 9,-11 14,-17 2,-4 4,-8 6,-13 4,0 7,0 11,-1 4,3 8,7 12,10 5,4 9,7 14,11 4,2 8,4 12,7 7,0 13,1 20,1 8,0 16,1 25,1 6,-3 12,-6 19,-10 4,-6 9,-12 13,-19 1,-5 2,-10 3,-14 5,-10 10,-20 15,-29 2,-7 4,-13 7,-20 4,-5 9,-10 14,-15 6,-5 13,-10 20,-14 2,-4 3,-9 5,-13 -2,-5 -4,-11 -6,-17 -2,-6 -4,-13 -7,-19 1,-6 2,-12 3,-18 3,-4 6,-7 9,-11 6,-4 12,-8 18,-12 0,0 0,0 0,0 9,0 18,0 27,0 8,1 15,1 23,2 8,-3 16,-5 24,-7 7,-1 14,-3 21,-5 4,-2 9,-3 14,-5 6,0 11,0 16,0 5,2 9,5 13,7 5,6 10,11 15,16 6,1 13,2 19,2 8,0 16,0 23,0 7,1 13,1 19,1 6,2 12,4 18,6 5,2 9,3 13,5 8,1 15,2 23,3 9,-1 18,-3 27,-4 4,-2 8,-4 12,-7 5,-2 10,-4 15,-6 6,-1 11,-3 17,-4 0,0 0,0 0,0 7,-9 13,-18 19,-28 2,-4 5,-8 7,-12 4,-5 7,-10 11,-14 1,-4 3,-9 4,-13 3,-5 6,-10 10,-15 5,-1 10,-3 16,-4 6,0 13,1 20,1 6,2 13,5 19,7 2,7 4,14 6,21 -3,4 -6,8 -9,12 -4,2 -8,3 -12,4 -1,4 -3,8 -4,12 1,6 1,12 2,17 4,5 9,9 13,13 4,4 7,8 11,12z"/>
   <path fill="#3E6F4E" d="M902 153c2,4 4,9 6,13 4,4 9,8 14,12 4,5 9,9 13,14 -13,22 -25,43 -38,65 3,24 5,47 7,71 11,8 22,16 33,24 11,11 22,21 33,31 6,8 12,16 17,23 -1,16 -2,32 -3,49 -4,10 -9,21 -13,31 -10,17 -20,33 -30,50 -4,15 -7,30 -11,45 -8,20 -16,39 -24,58 -20,31 -39,63 -59,94 -17,27 -34,54 -51,81 -21,45 -42,90 -62,136 -2,50 -4,100 -6,151 -46,-3 -92,-5 -137,-7 -36,-13 -71,-26 -106,-39 -7,-3 -13,-5 -19,-7 -36,0 -72,0 -108,0 -9,2 -19,4 -28,6 -21,-15 -41,-30 -62,-44 -17,-10 -34,-20 -52,-30 -8,1 -17,3 -25,4 -2,10 -4,19 -6,29 -5,0 -10,-1 -15,-1 -4,-2 -7,-5 -10,-7 -6,0 -11,0 -17,0 -11,1 -21,1 -32,1 -7,-2 -15,-5 -22,-8 -5,-5 -10,-9 -15,-14 -2,-5 -4,-9 -6,-14 -4,-11 -7,-22 -11,-33 -3,-8 -5,-16 -8,-24 -2,-5 -5,-11 -7,-17 0,-6 0,-13 0,-19 4,-8 7,-16 11,-24 2,-7 3,-14 5,-21 0,-5 1,-10 1,-15 -1,-2 -2,-4 -3,-6 5,-1 11,-3 16,-4 3,-5 5,-9 8,-13 0,-5 -1,-11 -1,-16 -4,-5 -7,-10 -11,-15 0,-6 0,-13 -1,-19 3,-6 5,-11 7,-16 2,-5 3,-9 5,-14 0,-1 1,-2 1,-3 0,-5 0,-11 0,-16 0,-6 1,-12 1,-18 3,-6 6,-11 9,-17 -1,-5 -3,-11 -4,-17 1,-7 1,-13 2,-20 4,-6 8,-12 12,-18 4,-6 9,-11 13,-17 3,-5 6,-10 9,-15 5,-7 9,-14 13,-20 2,-3 4,-6 6,-9 2,-3 3,-5 5,-7 2,-7 5,-13 7,-19 2,-7 4,-13 6,-19 1,-8 1,-16 1,-24 3,-9 5,-18 7,-26 5,-10 10,-19 15,-29 3,-4 5,-9 8,-13 4,-7 8,-13 12,-19 5,-6 10,-12 15,-19 2,-7 4,-14 6,-21 5,-5 9,-11 14,-17 2,-4 4,-8 6,-13 4,0 8,0 11,-1 4,4 8,7 12,10 5,4 10,7 14,11 4,2 8,5 12,7 7,0 13,1 20,1 8,0 16,1 25,1 6,-3 13,-6 19,-10 5,-6 9,-12 13,-19 1,-5 2,-9 3,-14 5,-10 10,-20 15,-29 2,-7 5,-13 7,-20 5,-5 9,-10 14,-15 7,-5 13,-10 20,-14 2,-4 4,-8 6,-13 -3,-5 -5,-11 -7,-17 -2,-6 -4,-13 -6,-19 0,-6 1,-12 2,-18 3,-3 6,-7 10,-11 5,-4 11,-7 17,-11 0,0 0,0 0,0 9,0 18,0 27,0 8,0 15,0 23,1 8,-2 16,-4 24,-6 7,-2 14,-4 21,-6 5,-2 10,-3 15,-5 5,0 10,0 15,0 5,2 9,5 13,7 5,6 10,11 15,16 6,1 13,2 19,2 8,0 16,0 24,0 6,1 12,1 19,1 5,2 11,4 17,6 5,2 9,3 13,5 8,1 15,2 23,3 9,-1 18,-3 28,-4 3,-2 7,-4 11,-7 5,-2 10,-4 15,-6 6,-1 11,-2 17,-4 0,0 0,0 1,0 6,-9 12,-18 18,-28 3,-4 5,-8 8,-12 3,-5 6,-9 10,-14 1,-4 3,-9 4,-13 3,-5 6,-10 10,-15 5,-1 10,-3 16,-4 7,0 13,1 20,1 6,3 13,5 19,7 2,7 4,14 6,21 -3,4 -6,8 -9,13 -4,1 -8,2 -12,3 -1,4 -2,8 -4,12 1,6 2,12 2,17 4,5 9,9 13,13 4,4 8,8 11,12z"/>
   <path fill="#437552" d="M898 148c2,5 4,9 6,13 5,4 9,8 14,12 4,5 9,9 13,14 -12,22 -25,43 -38,65 3,24 5,47 8,71 10,8 21,16 32,24 11,11 22,21 33,32 6,7 12,15 18,22 -2,16 -3,33 -4,49 -4,10 -8,21 -13,31 -10,17 -20,33 -30,50 -4,15 -7,30 -10,45 -9,20 -17,39 -25,58 -20,32 -39,63 -59,94 -17,27 -34,54 -51,81 -21,45 -41,90 -62,136 -2,50 -4,100 -6,151 -46,-3 -91,-5 -137,-7 -35,-13 -71,-26 -106,-39 -6,-3 -13,-5 -19,-7 -36,0 -72,0 -108,0 -9,2 -18,4 -28,6 -20,-15 -41,-30 -62,-44 -17,-10 -34,-20 -52,-30 -8,1 -16,3 -25,4 -2,10 -4,19 -6,29 -5,0 -10,-1 -15,-1 -3,-2 -7,-4 -10,-7 -5,0 -11,0 -17,0 -10,1 -21,1 -32,2 -7,-3 -15,-6 -22,-9 -5,-5 -10,-9 -15,-14 -2,-4 -4,-9 -6,-14 -4,-11 -7,-22 -11,-33 -2,-8 -5,-16 -8,-24 -2,-5 -4,-11 -7,-17 0,-6 0,-13 0,-19 4,-8 7,-16 11,-24 2,-7 3,-14 5,-21 0,-5 1,-10 1,-14 -1,-3 -2,-5 -3,-7 6,-1 11,-3 17,-4 2,-5 5,-9 7,-13 0,-5 -1,-11 -1,-16 -3,-5 -7,-10 -11,-15 0,-6 0,-13 -1,-19 3,-6 5,-11 8,-16 1,-5 3,-9 4,-14 0,-1 1,-2 1,-3 0,-5 0,-11 0,-16 0,-6 1,-12 1,-18 3,-5 6,-11 9,-17 -1,-5 -2,-11 -4,-17 1,-7 2,-13 2,-20 4,-6 8,-12 12,-18 4,-6 9,-11 13,-17 3,-5 6,-10 10,-15 4,-7 8,-13 13,-20 1,-3 3,-6 5,-9 2,-2 3,-5 5,-7 2,-7 5,-13 7,-19 2,-7 5,-13 7,-19 0,-8 0,-16 1,-24 2,-9 4,-17 6,-26 5,-10 10,-19 15,-29 3,-4 6,-9 8,-13 4,-7 8,-13 12,-19 5,-6 10,-12 15,-19 2,-7 4,-14 6,-21 5,-5 9,-11 14,-17 2,-4 4,-8 7,-13 3,0 7,0 10,-1 5,4 9,7 13,10 4,4 9,8 13,11 4,3 8,5 12,7 7,0 14,1 20,1 8,1 17,1 25,1 6,-3 13,-6 19,-10 5,-6 9,-12 14,-19 0,-4 1,-9 2,-14 5,-10 10,-19 15,-29 2,-7 5,-13 7,-19 5,-6 9,-11 14,-16 7,-5 13,-10 20,-14 2,-4 4,-8 6,-12 -3,-6 -5,-12 -7,-18 -2,-6 -4,-13 -6,-19 1,-6 1,-12 2,-18 3,-3 6,-7 10,-11 5,-3 11,-7 17,-11 0,0 0,0 1,0 8,0 17,0 26,0 8,0 16,0 23,1 8,-2 16,-4 24,-6 7,-2 14,-4 21,-6 5,-1 10,-3 15,-5 5,0 10,0 16,0 4,2 8,5 12,8 5,5 10,10 15,15 7,1 13,2 19,2 8,0 16,0 24,0 6,1 12,1 19,1 6,2 12,4 18,6 4,2 8,3 12,5 8,1 16,2 23,3 9,-1 18,-3 28,-4 4,-2 8,-4 11,-6 5,-3 10,-5 15,-7 6,-1 12,-2 17,-4 0,0 1,0 1,0 6,-9 12,-18 18,-27 3,-5 5,-9 8,-13 3,-5 7,-9 10,-14 1,-4 3,-9 4,-13 3,-5 7,-10 10,-15 5,-1 11,-2 16,-4 7,1 14,1 20,1 7,3 13,5 19,7 2,7 4,14 6,21 -3,4 -6,8 -9,13 -4,1 -8,2 -12,3 -1,4 -2,8 -4,12 1,6 2,12 2,18 5,4 9,8 13,12 4,4 8,8 11,12z"/>
   <path fill="#477A57" d="M895 143c2,5 3,9 5,13 5,4 9,8 14,12 5,5 9,9 13,14 -12,22 -25,43 -38,65 3,24 5,47 8,71 10,8 21,16 32,24 11,11 22,21 33,32 6,7 12,15 18,22 -1,16 -2,33 -3,49 -5,10 -9,21 -14,31 -10,17 -20,33 -30,50 -3,15 -7,30 -10,45 -8,20 -17,39 -25,58 -19,32 -39,63 -59,94 -17,27 -34,54 -51,81 -21,45 -41,91 -62,136 -2,50 -4,101 -6,151 -46,-3 -91,-5 -137,-7 -35,-13 -71,-26 -106,-39 -6,-2 -13,-5 -19,-7 -36,0 -72,0 -107,0 -10,2 -19,4 -29,6 -20,-15 -41,-29 -62,-44 -17,-10 -34,-20 -51,-30 -9,1 -17,3 -26,4 -2,10 -4,20 -6,29 -5,0 -10,-1 -15,-1 -3,-2 -6,-4 -10,-6 -5,0 -11,0 -17,0 -10,0 -21,0 -31,1 -8,-3 -15,-6 -23,-9 -5,-5 -10,-9 -15,-13 -2,-5 -4,-10 -6,-15 -4,-11 -7,-22 -11,-33 -2,-8 -5,-16 -7,-24 -3,-5 -5,-11 -8,-17 0,-6 0,-13 0,-19 4,-8 8,-16 11,-24 2,-7 4,-14 5,-21 1,-4 1,-9 1,-14 -1,-2 -2,-5 -3,-7 6,-1 11,-3 17,-4 2,-4 5,-9 7,-13 0,-5 0,-11 -1,-16 -3,-5 -7,-10 -10,-15 -1,-6 -1,-13 -1,-19 2,-5 4,-11 7,-16 1,-5 3,-9 4,-14 1,-1 1,-2 1,-3 0,-5 0,-11 0,-16 1,-6 1,-12 1,-18 3,-5 6,-11 9,-17 -1,-5 -2,-11 -4,-17 1,-6 2,-13 3,-20 3,-6 7,-12 11,-18 5,-6 9,-11 13,-17 3,-5 7,-10 10,-15 4,-7 8,-13 13,-20 2,-3 3,-6 5,-9 2,-2 3,-5 5,-7 2,-6 5,-13 8,-19 2,-6 4,-13 6,-19 0,-8 0,-16 1,-24 2,-9 4,-17 6,-26 5,-10 10,-19 15,-29 3,-4 6,-9 8,-13 4,-6 8,-13 12,-19 5,-6 10,-12 15,-19 2,-7 4,-14 6,-21 5,-5 9,-11 14,-17 2,-4 5,-8 7,-12 3,-1 7,-1 11,-1 4,3 8,6 12,9 4,4 9,8 14,12 4,2 8,4 11,6 7,0 14,1 20,1 9,1 17,1 25,1 7,-3 13,-6 19,-9 5,-7 9,-13 14,-19 1,-5 1,-10 2,-15 5,-10 10,-19 15,-29 3,-6 5,-13 7,-19 5,-6 10,-11 14,-16 7,-5 14,-10 20,-14 2,-4 4,-8 6,-12 -2,-6 -5,-12 -7,-18 -2,-6 -4,-12 -6,-19 1,-6 1,-12 2,-18 3,-3 7,-7 10,-10 6,-4 11,-8 17,-12 0,0 1,0 1,0 9,0 18,0 26,0 8,0 16,0 24,1 7,-2 15,-4 23,-6 7,-2 14,-4 21,-5 5,-2 10,-4 15,-6 5,0 10,0 16,0 4,2 8,5 13,8 5,5 9,10 14,15 7,1 13,2 19,3 8,0 16,0 24,0 6,0 13,0 19,1 6,1 12,3 18,5 4,2 8,4 13,5 7,1 15,2 22,3 9,-1 19,-2 28,-4 4,-2 8,-4 12,-6 5,-2 9,-4 14,-7 6,-1 12,-2 17,-4 1,0 1,0 1,0 6,-9 12,-18 18,-27 3,-5 5,-9 8,-13 3,-5 7,-9 10,-14 2,-4 3,-8 4,-13 4,-5 7,-10 10,-15 5,-1 11,-2 16,-4 7,1 14,1 21,1 6,3 12,5 18,7 2,7 5,14 7,21 -3,4 -7,8 -10,13 -4,1 -7,2 -11,3 -2,4 -3,8 -4,13 0,5 1,11 2,17 4,4 8,8 12,12 4,4 8,8 12,12z"/>
   <path fill="#4B7F5B" d="M891 138c2,5 4,9 5,14 5,3 10,7 14,11 5,5 9,10 14,14 -13,22 -26,44 -38,65 2,24 4,47 7,71 11,8 21,16 32,25 11,10 22,20 33,31 6,7 12,15 18,22 -1,16 -2,33 -3,49 -5,10 -9,21 -14,31 -10,17 -20,33 -30,50 -3,15 -7,30 -10,45 -8,20 -16,39 -25,58 -19,32 -39,63 -59,94 -17,27 -34,54 -51,81 -20,45 -41,91 -62,136 -2,50 -4,101 -6,151 -46,-2 -91,-5 -137,-7 -35,-13 -70,-26 -106,-39 -6,-2 -12,-5 -19,-7 -36,0 -71,0 -107,0 -10,2 -19,4 -28,6 -21,-15 -42,-29 -62,-44 -18,-10 -35,-20 -52,-30 -9,1 -17,3 -25,4 -2,10 -4,20 -6,29 -6,0 -11,-1 -16,-1 -3,-2 -6,-4 -10,-6 -5,0 -11,0 -16,0 -11,0 -22,0 -32,1 -8,-3 -15,-6 -23,-9 -5,-4 -10,-9 -15,-13 -2,-5 -4,-10 -6,-15 -3,-11 -7,-22 -11,-32 -2,-9 -5,-17 -7,-25 -3,-5 -5,-11 -7,-16 0,-7 0,-13 0,-20 3,-8 7,-16 10,-24 2,-7 4,-14 5,-20 1,-5 1,-10 1,-15 -1,-2 -2,-4 -3,-6 6,-2 11,-4 17,-5 2,-4 5,-9 7,-13 0,-5 0,-11 -1,-16 -3,-5 -7,-10 -10,-15 -1,-6 -1,-13 -1,-19 2,-5 5,-11 7,-16 1,-5 3,-9 4,-14 1,-1 1,-2 1,-3 0,-5 0,-11 0,-16 1,-6 1,-12 2,-18 2,-5 5,-11 8,-17 -1,-5 -2,-11 -3,-17 0,-6 1,-13 2,-20 4,-6 8,-12 11,-18 5,-6 9,-11 13,-17 4,-5 7,-10 10,-15 4,-6 9,-13 13,-20 2,-3 4,-6 6,-9 1,-2 3,-5 4,-7 3,-6 5,-13 8,-19 2,-6 4,-13 6,-19 0,-8 1,-16 1,-24 2,-8 4,-17 7,-26 5,-10 10,-19 14,-28 3,-5 6,-10 9,-14 4,-6 8,-12 11,-19 5,-6 10,-12 15,-19 2,-7 4,-14 6,-21 5,-5 10,-11 14,-16 2,-5 5,-9 7,-13 4,-1 7,-1 11,-1 4,3 8,6 12,9 5,4 9,8 14,12 4,2 8,4 12,6 6,0 13,1 20,1 8,1 16,1 24,1 7,-3 13,-6 20,-9 4,-7 8,-13 13,-19 1,-5 2,-10 3,-15 4,-10 9,-19 14,-29 3,-6 5,-13 8,-19 4,-6 9,-11 13,-16 7,-5 14,-9 20,-14 2,-4 4,-8 6,-12 -2,-6 -4,-12 -7,-18 -2,-6 -4,-12 -6,-19 1,-6 2,-12 2,-18 4,-3 7,-7 10,-10 6,-4 12,-8 17,-12 1,0 1,0 1,0 9,0 18,0 27,0 7,0 15,0 23,1 8,-2 15,-4 23,-6 7,-2 14,-4 21,-5 5,-2 10,-4 15,-6 5,0 11,0 16,0 4,3 8,5 13,8 5,5 10,10 15,16 6,0 12,1 19,2 7,0 15,0 23,0 6,0 13,0 19,1 6,2 12,3 18,5 4,2 9,4 13,5 7,1 15,2 22,3 10,-1 19,-2 28,-4 4,-2 8,-4 12,-6 5,-2 10,-4 15,-6 5,-2 11,-3 17,-5 0,0 0,0 0,0 6,-9 12,-18 19,-27 2,-5 5,-9 7,-13 4,-5 7,-9 10,-14 2,-4 3,-8 5,-13 3,-5 6,-10 9,-15 6,-1 11,-2 16,-4 7,1 14,1 21,1 6,3 12,5 19,8 2,6 4,13 6,20 -3,4 -6,9 -9,13 -4,1 -8,2 -12,3 -2,4 -3,8 -4,13 0,5 1,11 2,17 4,4 8,8 12,12 4,4 8,8 12,12z"/>
   <path fill="#4F8460" d="M887 133c2,5 4,9 6,14 4,4 9,7 13,11 5,5 9,10 14,14 -13,22 -26,44 -38,65 2,24 5,47 7,71 11,8 22,16 32,25 11,10 23,20 34,31 5,7 11,15 17,22 -1,17 -2,33 -3,49 -5,10 -9,21 -13,31 -10,17 -21,33 -31,50 -3,15 -6,30 -10,46 -8,19 -16,38 -24,58 -20,31 -40,62 -59,93 -17,27 -35,54 -52,81 -20,45 -41,91 -62,136 -2,50 -4,101 -6,151 -45,-2 -91,-5 -136,-7 -36,-13 -71,-26 -107,-39 -6,-2 -12,-5 -19,-7 -35,0 -71,0 -107,0 -10,2 -19,4 -28,6 -21,-14 -42,-29 -62,-44 -18,-10 -35,-20 -52,-30 -8,1 -17,3 -25,4 -2,10 -4,20 -6,29 -5,0 -11,-1 -16,-1 -3,-2 -6,-4 -9,-6 -6,0 -12,0 -17,0 -11,0 -21,0 -32,1 -8,-3 -15,-6 -23,-9 -5,-4 -9,-9 -14,-13 -2,-5 -5,-10 -7,-15 -3,-11 -7,-22 -10,-32 -3,-8 -5,-16 -8,-24 -2,-6 -5,-12 -7,-17 0,-7 0,-13 0,-20 3,-8 7,-16 11,-24 1,-7 3,-14 5,-20 0,-5 0,-10 1,-15 -1,-2 -2,-4 -3,-6 5,-2 11,-4 16,-5 3,-4 5,-9 8,-13 -1,-5 -1,-10 -1,-16 -4,-5 -8,-10 -11,-15 0,-6 -1,-13 -1,-19 2,-5 5,-11 7,-16 2,-4 3,-9 5,-14 0,-1 0,-2 1,-3 0,-5 0,-10 0,-16 0,-6 0,-12 1,-18 3,-5 6,-11 8,-16 -1,-6 -2,-12 -3,-17 1,-7 1,-14 2,-21 4,-6 8,-12 12,-18 4,-5 8,-11 12,-17 4,-5 7,-10 10,-15 4,-6 9,-13 13,-20 2,-3 4,-6 6,-9 1,-2 3,-5 4,-7 3,-6 5,-13 8,-19 2,-6 4,-13 6,-19 0,-8 1,-16 1,-23 2,-9 5,-18 7,-27 5,-10 10,-19 15,-28 2,-5 5,-10 8,-14 4,-6 8,-12 12,-19 5,-6 10,-12 14,-18 3,-7 5,-14 7,-21 4,-6 9,-12 13,-17 3,-5 5,-9 7,-13 4,-1 7,-1 11,-1 4,3 8,6 12,9 5,4 9,8 14,12 4,2 8,4 12,6 6,0 13,1 20,1 8,1 16,1 24,2 7,-4 13,-7 20,-10 4,-7 9,-13 13,-19 1,-5 2,-10 3,-15 5,-10 10,-19 15,-29 2,-6 4,-13 7,-19 4,-5 9,-11 14,-16 6,-5 13,-9 20,-14 1,-4 3,-8 5,-12 -2,-6 -4,-12 -6,-18 -3,-6 -5,-12 -7,-19 1,-6 2,-12 2,-18 4,-3 7,-7 10,-10 6,-4 12,-8 18,-12 0,0 0,0 0,0 9,0 18,0 27,0 7,0 15,1 23,1 8,-2 16,-4 23,-6 7,-2 14,-4 21,-5 5,-2 10,-4 15,-6 6,0 11,0 16,0 4,3 9,5 13,8 5,5 10,10 15,16 6,0 12,1 19,2 8,0 15,0 23,0 7,0 13,0 19,1 6,2 12,3 18,5 4,2 9,4 13,5 8,1 15,2 23,3 9,-1 18,-2 27,-4 4,-2 8,-4 12,-6 5,-2 10,-4 15,-6 5,-2 11,-3 17,-5 0,0 0,0 0,0 6,-9 13,-18 19,-27 2,-4 5,-9 7,-13 4,-5 7,-9 11,-14 1,-4 2,-8 4,-13 3,-5 6,-9 9,-14 6,-2 11,-3 16,-5 7,1 14,1 21,1 6,3 12,5 19,8 2,6 4,13 6,20 -3,4 -6,9 -9,13 -4,1 -8,2 -12,3 -1,4 -3,9 -4,13 1,5 1,11 2,17 4,4 8,8 13,13 3,3 7,7 11,11z"/>
   <path fill="#548964" d="M883 128c2,5 4,9 6,14 4,4 9,8 14,11 4,5 8,10 13,14 -13,22 -25,44 -38,65 2,24 5,48 7,71 11,8 22,17 32,25 12,10 23,20 34,31 6,7 11,15 17,22 -1,17 -2,33 -3,49 -4,11 -9,21 -13,31 -10,17 -20,33 -30,50 -4,15 -7,30 -11,46 -8,19 -16,38 -24,58 -20,31 -40,62 -59,93 -17,27 -34,54 -51,81 -21,46 -42,91 -62,136 -2,50 -5,101 -7,151 -45,-2 -91,-5 -136,-7 -36,-13 -71,-26 -106,-39 -7,-2 -13,-4 -19,-7 -36,0 -72,0 -108,0 -9,2 -19,4 -28,6 -21,-14 -41,-29 -62,-44 -17,-10 -35,-20 -52,-30 -8,2 -17,3 -25,4 -2,10 -4,20 -6,30 -5,-1 -10,-1 -16,-2 -3,-2 -6,-4 -9,-6 -6,0 -11,0 -17,0 -11,0 -21,0 -32,1 -7,-3 -15,-6 -22,-9 -5,-4 -10,-9 -15,-13 -2,-5 -4,-10 -6,-15 -4,-11 -8,-22 -11,-32 -3,-8 -5,-16 -8,-24 -2,-6 -5,-12 -7,-17 0,-7 0,-13 0,-20 4,-8 7,-16 11,-24 1,-7 3,-13 5,-20 0,-5 0,-10 1,-15 -1,-2 -2,-4 -3,-6 5,-2 11,-3 16,-5 3,-4 5,-8 8,-13 -1,-5 -1,-10 -1,-16 -4,-5 -7,-10 -11,-14 0,-7 -1,-13 -1,-20 2,-5 5,-10 7,-16 2,-4 3,-9 5,-14 0,-1 0,-2 1,-3 0,-5 0,-10 0,-16 0,-6 1,-12 1,-18 3,-5 6,-11 9,-16 -2,-6 -3,-12 -4,-17 1,-7 1,-14 2,-21 4,-6 8,-12 12,-18 4,-5 8,-11 13,-17 3,-5 6,-10 9,-14 5,-7 9,-14 13,-21 2,-3 4,-6 6,-9 1,-2 3,-5 4,-7 3,-6 6,-13 8,-19 2,-6 4,-12 6,-19 1,-8 1,-16 1,-23 3,-9 5,-18 7,-27 5,-9 10,-19 15,-28 3,-5 5,-9 8,-14 4,-6 8,-12 12,-18 5,-7 10,-13 15,-19 2,-7 4,-14 6,-21 4,-6 9,-12 14,-17 2,-5 4,-9 6,-13 4,-1 8,-1 11,-1 4,3 8,6 12,9 5,4 10,8 14,12 4,2 8,4 12,6 7,1 13,1 20,2 8,0 16,0 25,1 6,-4 13,-7 19,-10 4,-7 9,-13 13,-19 1,-5 2,-10 3,-15 5,-10 10,-19 15,-29 2,-6 5,-13 7,-19 5,-5 9,-11 14,-16 6,-5 13,-9 20,-14 2,-4 4,-8 5,-12 -2,-6 -4,-12 -6,-18 -2,-6 -4,-12 -6,-19 0,-6 1,-12 2,-17 3,-4 6,-8 9,-11 6,-4 12,-8 18,-12 0,0 0,0 0,0 9,0 18,0 27,0 8,0 15,1 23,1 8,-2 16,-4 24,-6 7,-2 14,-3 21,-5 5,-2 9,-4 14,-6 6,0 11,0 16,0 5,3 9,5 13,8 5,5 10,10 15,16 6,0 13,1 19,2 8,0 16,0 23,0 7,0 13,0 19,1 6,2 12,4 18,5 5,2 9,4 13,5 8,1 15,3 23,4 9,-2 18,-3 27,-5 4,-2 8,-4 12,-6 5,-2 10,-4 15,-6 6,-2 11,-3 17,-4 0,0 0,0 0,0 7,-10 13,-19 19,-28 2,-4 5,-9 7,-13 4,-4 7,-9 11,-14 1,-4 3,-8 4,-13 3,-4 6,-9 10,-14 5,-2 10,-3 16,-4 6,0 13,0 20,1 6,2 13,4 19,7 2,7 4,13 6,20 -3,4 -6,9 -9,13 -4,1 -8,2 -12,3 -1,4 -3,9 -4,13 1,6 1,11 2,17 4,4 9,8 13,13 4,4 7,8 11,11z"/>
   <path fill="#588E69" d="M879 124c2,4 4,8 6,13 5,4 9,8 14,11 4,5 9,10 13,14 -13,22 -25,44 -38,65 3,24 5,48 7,71 11,8 22,17 33,25 11,10 22,21 33,31 6,7 12,15 17,23 -1,16 -2,32 -3,48 -4,11 -9,21 -13,31 -10,17 -20,34 -30,50 -4,15 -7,31 -11,46 -8,19 -16,38 -24,58 -20,31 -39,62 -59,93 -17,27 -34,54 -51,81 -21,46 -42,91 -62,136 -2,50 -4,101 -6,151 -46,-2 -92,-5 -137,-7 -35,-13 -71,-26 -106,-39 -7,-2 -13,-4 -19,-7 -36,0 -72,0 -108,0 -9,2 -19,5 -28,7 -21,-15 -41,-30 -62,-45 -17,-10 -34,-20 -52,-30 -8,2 -16,3 -25,4 -2,10 -4,20 -6,30 -5,-1 -10,-1 -15,-2 -4,-2 -7,-4 -10,-6 -6,0 -11,0 -17,0 -10,0 -21,1 -32,1 -7,-3 -15,-6 -22,-9 -5,-4 -10,-9 -15,-13 -2,-5 -4,-10 -6,-15 -4,-11 -7,-21 -11,-32 -3,-8 -5,-16 -8,-24 -2,-6 -4,-12 -7,-17 0,-7 0,-13 0,-20 4,-8 7,-16 11,-24 2,-7 3,-13 5,-20 0,-5 1,-10 1,-15 -1,-2 -2,-4 -3,-6 5,-2 11,-3 16,-5 3,-4 5,-8 8,-13 0,-5 -1,-10 -1,-16 -4,-5 -7,-9 -11,-14 0,-7 0,-13 -1,-20 3,-5 5,-10 7,-16 2,-4 3,-9 5,-14 0,-1 1,-2 1,-3 0,-5 0,-10 0,-16 0,-5 1,-11 1,-17 3,-6 6,-12 9,-17 -1,-6 -3,-12 -4,-17 1,-7 2,-14 2,-21 4,-6 8,-12 12,-18 4,-5 9,-11 13,-17 3,-5 6,-9 10,-14 4,-7 8,-14 12,-21 2,-3 4,-6 6,-9 2,-2 3,-4 5,-7 2,-6 5,-12 7,-19 2,-6 4,-12 6,-19 1,-8 1,-15 2,-23 2,-9 4,-18 6,-27 5,-9 10,-19 15,-28 3,-5 5,-9 8,-14 4,-6 8,-12 12,-18 5,-7 10,-13 15,-19 2,-7 4,-14 6,-21 5,-6 9,-12 14,-17 2,-4 4,-9 6,-13 4,0 8,-1 11,-1 4,3 8,6 13,9 4,4 9,8 13,12 4,2 8,4 12,6 7,1 13,1 20,2 8,0 17,0 25,1 6,-4 13,-7 19,-10 5,-6 9,-13 13,-19 1,-5 2,-10 3,-15 5,-9 10,-19 15,-29 2,-6 5,-13 7,-19 5,-5 9,-11 14,-16 7,-5 13,-9 20,-14 2,-4 4,-8 6,-12 -3,-6 -5,-12 -7,-17 -2,-7 -4,-13 -6,-20 0,-5 1,-11 2,-17 3,-4 6,-8 10,-11 5,-4 11,-8 17,-12 0,0 0,0 0,0 9,0 18,0 27,0 8,0 16,1 23,1 8,-2 16,-4 24,-6 7,-2 14,-3 21,-5 5,-2 10,-4 15,-6 5,0 10,0 15,0 5,3 9,5 13,8 5,5 10,11 15,16 6,0 13,1 19,2 8,0 16,0 24,0 6,0 12,1 19,1 6,2 12,4 17,6 5,1 9,3 13,5 8,1 15,2 23,3 9,-2 18,-3 28,-4 3,-3 7,-5 11,-7 5,-2 10,-4 15,-6 6,-2 11,-3 17,-4 0,0 0,0 1,0 6,-10 12,-19 18,-28 3,-4 5,-9 8,-13 3,-4 7,-9 10,-14 1,-4 3,-8 4,-12 3,-5 7,-10 10,-15 5,-2 10,-3 16,-4 7,0 13,0 20,1 7,2 13,4 19,7 2,7 4,13 6,20 -3,5 -6,9 -9,13 -4,1 -8,2 -12,3 -1,4 -2,9 -4,13 1,6 2,11 2,17 5,4 9,8 13,13 4,4 8,8 11,12z"/>
   <path fill="#5C936D" d="M876 119c1,4 3,8 5,13 5,4 9,8 14,12 4,4 9,9 13,14 -12,21 -25,43 -38,65 3,23 5,47 8,70 10,8 21,17 32,25 11,10 22,21 33,31 6,8 12,15 18,23 -1,16 -3,32 -4,48 -4,11 -8,21 -13,32 -10,16 -20,33 -30,49 -4,15 -7,31 -10,46 -9,19 -17,38 -25,58 -20,31 -39,62 -59,93 -17,27 -34,54 -51,81 -21,46 -41,91 -62,136 -2,51 -4,101 -6,151 -46,-2 -91,-5 -137,-7 -35,-13 -71,-26 -106,-39 -6,-2 -13,-4 -19,-7 -36,0 -72,0 -108,0 -9,3 -18,5 -28,7 -20,-15 -41,-30 -62,-45 -17,-10 -34,-20 -52,-30 -8,2 -16,3 -25,4 -2,10 -4,20 -6,30 -5,-1 -10,-1 -15,-2 -3,-2 -7,-4 -10,-6 -5,0 -11,0 -17,0 -10,0 -21,1 -32,1 -7,-3 -15,-6 -22,-9 -5,-4 -10,-9 -15,-13 -2,-5 -4,-10 -6,-15 -4,-11 -7,-21 -11,-32 -2,-8 -5,-16 -7,-24 -3,-6 -5,-12 -8,-17 0,-7 0,-13 0,-20 4,-8 8,-16 11,-24 2,-6 3,-13 5,-20 0,-5 1,-10 1,-15 -1,-2 -2,-4 -3,-6 6,-2 11,-3 17,-5 2,-4 5,-8 7,-13 0,-5 -1,-10 -1,-16 -3,-4 -7,-9 -11,-14 0,-7 0,-13 -1,-20 3,-5 5,-10 8,-16 1,-4 3,-9 4,-14 0,-1 1,-2 1,-3 0,-5 0,-10 0,-15 1,-6 1,-12 1,-18 3,-6 6,-12 9,-17 -1,-6 -2,-12 -4,-17 1,-7 2,-14 2,-21 4,-6 8,-12 12,-18 4,-5 9,-11 13,-16 3,-5 6,-10 10,-15 4,-7 8,-14 13,-21 1,-3 3,-6 5,-9 2,-2 3,-4 5,-7 2,-6 5,-12 7,-19 3,-6 5,-12 7,-19 0,-7 0,-15 1,-23 2,-9 4,-18 6,-27 5,-9 10,-19 15,-28 3,-5 6,-9 8,-14 4,-6 8,-12 12,-18 5,-7 10,-13 15,-19 2,-7 4,-14 6,-21 5,-6 9,-11 14,-17 2,-4 4,-9 7,-13 3,0 7,-1 10,-1 5,3 9,6 13,9 4,4 9,8 13,12 4,2 8,4 12,6 7,1 14,1 20,2 9,0 17,0 25,1 6,-4 13,-7 19,-10 5,-6 9,-13 14,-19 0,-5 1,-10 2,-15 5,-9 10,-19 15,-29 2,-6 5,-12 7,-19 5,-5 10,-11 14,-16 7,-4 13,-9 20,-14 2,-4 4,-8 6,-12 -2,-6 -5,-12 -7,-17 -2,-7 -4,-13 -6,-19 1,-6 1,-12 2,-18 3,-4 6,-7 10,-11 6,-4 11,-8 17,-12 0,0 0,0 1,0 9,0 17,0 26,0 8,0 16,1 23,1 8,-2 16,-4 24,-6 7,-2 14,-3 21,-5 5,-2 10,-4 15,-6 5,0 10,0 16,0 4,3 8,5 12,8 5,5 10,11 15,16 7,1 13,1 19,2 8,0 16,0 24,0 6,0 12,1 19,1 6,2 12,4 18,6 4,1 8,3 13,5 7,1 15,2 22,3 9,-2 19,-3 28,-4 4,-3 8,-5 11,-7 5,-2 10,-4 15,-6 6,-2 12,-3 17,-4 0,0 1,0 1,0 6,-10 12,-19 18,-28 3,-4 5,-8 8,-13 3,-4 7,-9 10,-13 2,-5 3,-9 4,-13 3,-5 7,-10 10,-15 5,-2 11,-3 16,-4 7,0 14,0 20,1 7,2 13,5 19,7 2,7 4,14 7,20 -4,5 -7,9 -10,13 -4,1 -8,2 -12,3 -1,4 -2,9 -4,13 1,6 2,11 2,17 5,4 9,9 13,13 4,4 8,8 12,12z"/>
   <path fill="#609872" d="M872 114c2,4 3,9 5,13 5,4 10,8 14,12 5,4 9,9 13,14 -12,21 -25,43 -37,65 2,23 4,47 7,70 10,9 21,17 32,25 11,10 22,21 33,31 6,8 12,15 18,23 -1,16 -2,32 -3,48 -5,11 -9,21 -14,32 -10,16 -20,33 -30,49 -3,15 -7,31 -10,46 -8,19 -17,39 -25,58 -19,31 -39,62 -59,93 -17,27 -34,54 -51,81 -21,46 -41,91 -62,136 -2,51 -4,101 -6,151 -46,-2 -91,-4 -137,-7 -35,-13 -71,-26 -106,-39 -6,-2 -13,-4 -19,-6 -36,0 -72,0 -107,0 -10,2 -19,4 -29,6 -20,-15 -41,-30 -62,-45 -17,-10 -34,-20 -51,-30 -9,2 -17,3 -25,5 -3,9 -5,19 -7,29 -5,-1 -10,-1 -15,-2 -3,-2 -6,-4 -10,-6 -5,0 -11,0 -17,0 -10,0 -21,1 -31,1 -8,-3 -15,-6 -23,-9 -5,-4 -10,-9 -15,-13 -2,-5 -4,-10 -6,-15 -3,-11 -7,-21 -11,-32 -2,-8 -5,-16 -7,-24 -3,-6 -5,-11 -8,-17 0,-7 0,-13 0,-20 4,-8 8,-16 11,-24 2,-6 4,-13 5,-20 1,-5 1,-10 1,-15 -1,-2 -2,-4 -3,-6 6,-2 11,-3 17,-5 2,-4 5,-8 7,-12 0,-6 0,-11 -1,-16 -3,-5 -7,-10 -10,-15 -1,-7 -1,-13 -1,-20 2,-5 4,-10 7,-16 1,-4 3,-9 4,-13 1,-1 1,-3 1,-4 0,-5 0,-10 0,-15 1,-6 1,-12 1,-18 3,-6 6,-12 9,-17 -1,-6 -2,-11 -3,-17 0,-7 1,-14 2,-21 3,-6 7,-12 11,-18 5,-5 9,-11 13,-16 3,-5 7,-10 10,-15 4,-7 8,-14 13,-21 2,-3 4,-6 5,-9 2,-2 3,-4 5,-7 3,-6 5,-12 8,-19 2,-6 4,-12 6,-19 0,-7 1,-15 1,-23 2,-9 4,-18 6,-27 5,-9 10,-19 15,-28 3,-5 6,-9 9,-14 3,-6 7,-12 11,-18 5,-7 10,-13 15,-19 2,-7 4,-14 6,-21 5,-6 10,-11 14,-17 2,-4 5,-9 7,-13 3,0 7,-1 11,-1 4,3 8,6 12,9 4,4 9,8 14,12 4,2 8,4 12,6 6,1 13,1 19,2 9,0 17,0 25,1 7,-3 13,-7 20,-10 4,-6 8,-13 13,-19 1,-5 2,-10 2,-15 5,-9 10,-19 15,-28 3,-7 5,-13 7,-20 5,-5 10,-10 14,-16 7,-4 14,-9 20,-14 2,-4 4,-8 6,-12 -2,-6 -5,-11 -7,-17 -2,-7 -4,-13 -6,-19 1,-6 1,-12 2,-18 3,-4 7,-7 10,-11 6,-4 12,-8 17,-12 0,0 1,0 1,0 9,0 18,0 26,0 8,1 16,1 24,1 7,-2 15,-4 23,-6 7,-2 14,-3 21,-5 5,-2 10,-4 15,-6 5,0 10,0 16,0 4,3 8,6 13,8 5,5 10,11 14,16 7,1 13,1 19,2 8,0 16,0 24,0 6,0 13,1 19,1 6,2 12,4 18,6 4,1 8,3 13,5 7,1 15,2 22,3 9,-2 19,-3 28,-4 4,-2 8,-5 12,-7 5,-2 10,-4 14,-6 6,-1 12,-3 17,-4 1,0 1,0 1,0 6,-9 12,-19 18,-28 3,-4 5,-8 8,-13 3,-4 7,-9 10,-13 2,-5 3,-9 4,-13 4,-5 7,-10 10,-15 5,-1 11,-3 16,-4 7,0 14,0 21,1 6,2 12,5 18,7 3,7 5,14 7,20 -3,5 -6,9 -10,13 -4,1 -7,2 -11,3 -2,5 -3,9 -4,13 0,6 1,11 2,17 4,4 8,9 12,13 4,4 8,8 12,12z"/>
   <path fill="#659D76" d="M868 109c2,4 4,9 5,13 5,4 10,8 14,12 5,4 9,9 14,14 -13,21 -26,43 -38,65 2,23 5,47 7,70 11,9 21,17 32,25 11,10 22,21 34,31 5,8 11,15 17,23 -1,16 -2,32 -3,48 -5,11 -9,21 -13,32 -11,16 -21,33 -31,49 -3,16 -7,31 -10,46 -8,19 -16,39 -25,58 -19,31 -39,62 -59,94 -17,27 -34,54 -51,81 -20,45 -41,90 -62,135 -2,51 -4,101 -6,151 -45,-2 -91,-4 -137,-7 -35,-13 -70,-26 -106,-39 -6,-2 -12,-4 -19,-6 -36,0 -71,0 -107,0 -10,2 -19,4 -28,6 -21,-15 -42,-30 -62,-45 -18,-10 -35,-20 -52,-29 -9,1 -17,2 -25,4 -2,9 -4,19 -6,29 -6,-1 -11,-1 -16,-2 -3,-2 -6,-4 -9,-6 -6,0 -12,0 -17,0 -11,0 -22,1 -32,1 -8,-3 -15,-6 -23,-9 -5,-4 -10,-8 -15,-13 -2,-5 -4,-10 -6,-15 -3,-10 -7,-21 -11,-32 -2,-8 -5,-16 -7,-24 -3,-6 -5,-11 -7,-17 0,-6 0,-13 0,-19 3,-8 7,-16 10,-24 2,-7 4,-14 6,-21 0,-5 0,-10 1,-15 -2,-2 -3,-4 -4,-6 6,-2 11,-3 17,-5 2,-4 5,-8 8,-12 -1,-6 -1,-11 -2,-16 -3,-5 -7,-10 -10,-15 -1,-7 -1,-13 -1,-20 2,-5 5,-10 7,-15 1,-5 3,-10 4,-14 1,-1 1,-2 2,-3 0,-6 0,-11 0,-16 0,-6 0,-12 1,-18 2,-6 5,-11 8,-17 -1,-6 -2,-11 -3,-17 0,-7 1,-14 2,-21 4,-6 8,-12 11,-17 5,-6 9,-12 13,-17 4,-5 7,-10 10,-15 4,-7 9,-14 13,-21 2,-3 4,-5 6,-8 1,-3 3,-5 4,-8 3,-6 5,-12 8,-19 2,-6 4,-12 6,-18 0,-8 1,-16 1,-24 2,-9 4,-18 7,-27 5,-9 10,-19 15,-28 2,-5 5,-9 8,-14 4,-6 8,-12 12,-18 4,-6 9,-13 14,-19 2,-7 4,-14 7,-21 4,-6 9,-11 13,-17 3,-4 5,-9 7,-13 4,0 7,-1 11,-1 4,3 8,6 12,9 5,4 9,8 14,12 4,2 8,4 12,6 6,1 13,1 20,2 8,0 16,1 24,1 7,-3 13,-7 20,-10 4,-6 9,-13 13,-19 1,-5 2,-10 3,-15 5,-9 9,-19 14,-28 3,-7 5,-13 8,-20 4,-5 9,-10 13,-16 7,-4 14,-9 20,-14 2,-4 4,-8 6,-12 -2,-6 -4,-11 -7,-17 -2,-7 -4,-13 -6,-19 1,-6 2,-12 2,-18 4,-4 7,-7 10,-11 6,-4 12,-8 17,-12 1,0 1,0 1,0 9,0 18,0 27,0 7,1 15,1 23,1 8,-2 15,-4 23,-6 7,-1 14,-3 21,-5 5,-2 10,-4 15,-6 5,0 11,0 16,0 4,3 9,6 13,8 5,5 10,11 15,16 6,1 12,1 19,2 7,0 15,0 23,0 6,0 13,1 19,1 6,2 12,4 18,6 4,1 9,3 13,5 7,1 15,2 22,3 10,-1 19,-3 28,-4 4,-2 8,-5 12,-7 5,-2 10,-4 15,-6 5,-1 11,-3 17,-4 0,0 0,0 0,0 6,-9 12,-19 19,-28 2,-4 5,-8 7,-13 4,-4 7,-9 10,-13 2,-5 3,-9 5,-13 3,-5 6,-10 9,-15 6,-1 11,-3 16,-4 7,0 14,1 21,1 6,2 12,5 19,7 2,7 4,14 6,21 -3,4 -6,8 -9,12 -4,1 -8,2 -12,3 -2,5 -3,9 -4,13 0,6 1,12 2,17 4,4 8,9 13,13 3,4 7,8 11,12z"/>
   <path fill="#69A27B" d="M864 104c2,4 4,9 6,13 4,4 9,8 13,12 5,4 9,9 14,14 -13,21 -25,43 -38,65 2,23 5,47 7,71 11,8 22,16 32,24 11,11 23,21 34,31 5,8 11,15 17,23 -1,16 -2,32 -3,49 -4,10 -9,20 -13,31 -10,16 -20,33 -31,49 -3,16 -6,31 -10,46 -8,19 -16,39 -24,58 -20,31 -40,62 -59,94 -17,27 -35,54 -52,81 -20,45 -41,90 -62,135 -2,51 -4,101 -6,152 -45,-3 -91,-5 -136,-8 -36,-13 -71,-26 -107,-39 -6,-2 -12,-4 -18,-6 -36,0 -72,0 -108,0 -9,2 -19,4 -28,6 -21,-15 -42,-30 -62,-45 -17,-10 -35,-19 -52,-29 -8,1 -17,2 -25,4 -2,9 -4,19 -6,29 -5,-1 -10,-1 -16,-2 -3,-2 -6,-4 -9,-6 -6,0 -12,0 -17,0 -11,1 -21,1 -32,1 -8,-3 -15,-6 -23,-8 -4,-5 -9,-9 -14,-14 -2,-5 -4,-10 -7,-15 -3,-10 -7,-21 -10,-32 -3,-8 -5,-16 -8,-24 -2,-6 -5,-11 -7,-17 0,-6 0,-13 0,-19 3,-8 7,-16 11,-24 1,-7 3,-14 5,-21 0,-5 0,-10 1,-15 -1,-2 -2,-4 -3,-6 5,-1 11,-3 16,-5 3,-4 5,-8 8,-12 -1,-6 -1,-11 -1,-16 -4,-5 -7,-10 -11,-15 0,-7 -1,-13 -1,-20 2,-5 5,-10 7,-15 2,-5 3,-10 5,-14 0,-1 0,-2 1,-3 0,-6 0,-11 0,-16 0,-6 0,-12 1,-18 3,-6 6,-11 9,-17 -2,-6 -3,-11 -4,-17 1,-7 1,-14 2,-20 4,-6 8,-12 12,-18 4,-6 8,-12 13,-17 3,-5 6,-10 9,-15 5,-7 9,-14 13,-21 2,-2 4,-5 6,-8 1,-3 3,-5 4,-8 3,-6 5,-12 8,-18 2,-7 4,-13 6,-19 1,-8 1,-16 1,-24 2,-9 5,-18 7,-27 5,-9 10,-18 15,-28 2,-4 5,-9 8,-14 4,-6 8,-12 12,-18 5,-6 10,-13 15,-19 2,-7 4,-14 6,-21 4,-6 9,-11 13,-17 3,-4 5,-8 7,-13 4,0 7,0 11,-1 4,3 8,6 12,10 5,3 9,7 14,11 4,2 8,4 12,6 7,1 13,1 20,2 8,0 16,1 24,1 7,-3 13,-7 20,-10 4,-6 9,-12 13,-19 1,-5 2,-10 3,-15 5,-9 10,-19 15,-28 2,-7 4,-13 7,-20 4,-5 9,-10 14,-16 6,-4 13,-9 20,-13 2,-5 3,-9 5,-13 -2,-6 -4,-11 -6,-17 -2,-6 -5,-13 -7,-19 1,-6 2,-12 2,-18 4,-4 7,-7 10,-11 6,-4 12,-8 18,-12 0,0 0,0 0,0 9,0 18,0 27,0 8,1 15,1 23,1 8,-2 16,-4 23,-6 7,-1 14,-3 21,-5 5,-2 10,-4 15,-5 6,0 11,0 16,0 4,2 9,5 13,7 5,6 10,11 15,16 6,1 12,1 19,2 8,0 15,0 23,0 7,1 13,1 19,1 6,2 12,4 18,6 4,2 9,3 13,5 8,1 15,2 23,3 9,-1 18,-3 27,-4 4,-2 8,-5 12,-7 5,-2 10,-4 15,-6 6,-1 11,-3 17,-4 0,0 0,0 0,0 6,-9 13,-18 19,-28 2,-4 5,-8 7,-12 4,-5 7,-10 11,-14 1,-5 2,-9 4,-13 3,-5 6,-10 9,-15 6,-1 11,-3 16,-4 7,0 14,1 21,1 6,2 13,5 19,7 2,7 4,14 6,21 -3,4 -6,8 -9,12 -4,1 -8,2 -12,3 -1,5 -3,9 -4,13 1,6 1,12 2,17 4,5 8,9 13,13 3,4 7,8 11,12z"/>
  </g>
  <polygon fill="#6DA77F" points="860,99 866,112 880,124 893,138 855,203 862,274 895,298 928,329 945,352 942,401 929,432 899,482 888,527 864,585 805,679 754,760 692,896 685,1047 549,1039 443,1000 424,994 316,994 288,1000 226,955 174,926 149,930 143,959 128,958 118,951 101,951 69,952 47,944 32,930 26,915 15,883 7,859 0,842 0,823 11,799 16,778 17,763 14,757 30,753 38,740 37,724 26,709 25,690 32,674 37,660 38,657 38,641 39,623 48,606 44,589 46,569 58,551 71,534 80,519 93,499 99,490 103,483 111,464 117,445 118,421 125,394 140,366 148,352 160,334 175,315 181,294 195,277 201,264 212,263 224,273 238,284 250,290 270,292 295,293 314,283 327,264 330,250 345,221 352,201 366,186 386,172 391,159 385,142 379,123 381,105 390,94 408,82 408,82 435,82 458,83 482,77 503,72 517,67 533,67 546,74 561,90 580,92 603,92 622,93 640,99 653,104 676,107 703,103 715,96 730,90 747,86 748,86 766,58 774,46 784,32 788,19 798,4 814,0 834,1 853,8 859,29 850,41 838,45 834,57 836,74 849,87 "/>
 </g>
</svg>
